<?xml version="1.0" encoding="utf-8"?>
<!-- Generator: Adobe Illustrator 22.1.0, SVG Export Plug-In . SVG Version: 6.00 Build 0)  -->
<svg version="1.1" id="Слой_1" xmlns="http://www.w3.org/2000/svg" xmlns:xlink="http://www.w3.org/1999/xlink" x="0px" y="0px"
	 viewBox="0 0 105.2 84.2" style="enable-background:new 0 0 105.2 84.2;" xml:space="preserve">
<style type="text/css">
	.st0{clip-path:url(#SVGID_2_);}
	.st1{fill:#F4B848;}
</style>
<g>
	<defs>
		<rect id="SVGID_1_" width="105.2" height="84.2"/>
	</defs>
	<clipPath id="SVGID_2_">
		<use xlink:href="#SVGID_1_"  style="overflow:visible;"/>
	</clipPath>
	<g class="st0">
		<g>
			<path class="st1" d="M44,0.4c10-1.2,16.7,2.9,22.7,6.1c6.1,3.5,11.5,6,19.3,9.8c13.7,4.6,23.4,35.1,17.5,42.5
				C98.8,64.4,89.3,84,75.8,84.2c-10-2.3-19.7-5.3-29.9-4c-13.2-0.3-30.3,6-40-6.5C0,63.1-1.1,51,1,44.2c2.2-7.6,7.6-9.8,14.9-17.9
				C24.4,18.6,32.3,1.3,44,0.4"/>
		</g>
	</g>
</g>
</svg>
