<svg version="1.1" id="Слой_1" xmlns="http://www.w3.org/2000/svg" xmlns:xlink="http://www.w3.org/1999/xlink" x="0" y="0" viewBox="0 0 105.2 84.2" xml:space="preserve"><defs><path id="SVGID_1_" d="M0 0h105.2v84.2H0z"/></defs><clipPath id="SVGID_2_"><use xlink:href="#SVGID_1_" overflow="visible"/></clipPath><g clip-path="url(#SVGID_2_)"><path d="M44 .4C54-.8 60.7 3.3 66.7 6.5c6.1 3.5 11.5 6 19.3 9.8 13.7 4.6 23.4 35.1 17.5 42.5-4.7 5.6-14.2 25.2-27.7 25.4-10-2.3-19.7-5.3-29.9-4-13.2-.3-30.3 6-40-6.5C0 63.1-1.1 51 1 44.2c2.2-7.6 7.6-9.8 14.9-17.9C24.4 18.6 32.3 1.3 44 .4" fill="#f4b848"/></g></svg>