<svg id="Слой_1" data-name="Слой 1" xmlns="http://www.w3.org/2000/svg" viewBox="0 0 821.16 821.16"><path d="M685.58 10.5c9.82 1.65 19.81 2.67 29.45 5.08 53.32 13.29 86.36 52 93.18 105.51 3.06 24 2.27 48.53 2.3 72.82q.27 224.73-.07 449.47c-.13 45.86-13.56 87.77-43.9 123-24.89 28.9-56.56 44.17-95.14 44.12q-60-.08-120 0h-6.42V453.33h84.75v-69.78h-84.51a9.87 9.87 0 01-.64-2.22c.3-21-.52-42.06 1.24-62.92 2.2-26 12.92-48.51 34.79-64.26 13.58-9.79 29.09-13.7 45.74-12.93 10.43.48 20.84 1.32 31.69 2 4.28-26 8.56-52.06 13-79-7.48-1.48-14.55-3.14-21.71-4.24-32.59-5-64.94-4.71-97.1 3.72-43.85 11.49-74 39.22-94.47 78.62-14.92 28.64-21.39 59.32-22 91.38-.26 14.5 0 29 0 43.5v5.9H370.1v70h65.26v357.28h-5.84c-80.83 0-161.67-.37-242.49.17-36.95.25-69.86-10.57-99.34-32.15-36.66-26.84-62.65-61.39-73.38-106.14a129 129 0 01-3.64-29.66q-.31-247 0-494c0-46.2 22.19-80.59 59.45-106 27.71-18.9 58.75-28.61 92.07-31.38 1.81-.15 3.6-.56 5.4-.84zm-117.6 776.83H671.1c30.26 0 55.48-11.55 75.57-33.82 28.25-31.31 40.41-69.15 40.54-110.5q.69-225 .09-450c0-22.79.28-45.74-2.11-68.35-3.13-29.53-16.61-54.21-41.69-71.48-20.67-14.23-44.16-19.09-68.67-19.42-31.33-.41-62.67-.08-94-.08h-301c-36.32 0-72.66-.3-109 .52a161.54 161.54 0 00-82.39 24.38c-35.74 22.12-55.11 53.24-55 96.55.46 161.49.1 323 .37 484.48a123.38 123.38 0 004.49 32.48c10.75 38.54 34.48 67.9 67 90.36 22 15.16 46.23 24.68 73.18 24.79 76 .32 152 .11 228 .12h5.61v-311H346.9V359.81h65.68c0-9-.06-17.46 0-25.93.31-35.85 7.83-70 24.3-102 24.52-47.59 61.64-79.49 114.43-92 33.73-8 67.69-8.41 101.69-2.77 14.83 2.46 29.4 6.55 44.45 10-7.11 43.33-14 85.31-20.94 127.57a40.58 40.58 0 01-4.26-1.45c-16.25-7.69-33.58-9.16-51.21-8.76-14.81.34-27.06 6.2-36.64 17.55-7 8.32-11.21 18-13.81 28.49-3.62 14.58-2.69 29.44-2.94 44.25-.07 4.32 1.4 5.25 5.41 5.23 24.67-.16 49.33-.08 74-.08h6v116.71h-85z" style="xstroke-miterlimit:10" stroke="#282828" fill="#282828" stroke-width="21"/></svg>