<svg id="стикеры" xmlns="http://www.w3.org/2000/svg" viewBox="0 0 347.6 436.79"><defs><style>.cls-1{fill:#f4b848}</style></defs><path class="cls-1" d="M1095.39-533.89a.69.69 0 01-.3.2 1.13 1.13 0 01-1.3-.49c-.91-1.07-1.79-2.17-2.72-3.21-3.25-3.63-6.6-7.15-9.74-10.86a168.35 168.35 0 00-14.89-15.09c-5.92-5.38-12-10.59-18.31-15.55-6.1-4.79-12-9.85-18-14.71-5.79-4.64-11.77-9-17.46-13.79-9.25-7.7-19-14.75-28.75-21.78-12.2-8.77-25.86-14.89-39.31-21.35-15.77-7.57-31.76-14.69-47.56-22.2-2.83-1.35-4.67 0-6.37 1.43a6.14 6.14 0 00-2.31 6.14 37.27 37.27 0 003 7.51c5.16 10 10.45 20 15.69 29.95 6.12 11.64 12.54 23.1 19.55 34.22a387.57 387.57 0 0023.82 33.88c6.91 8.73 14 17.34 21.34 25.72 8.34 9.53 16.49 19.26 25.7 28 6.65 6.34 13.06 12.93 19.49 19.49 2.13 2.17 4 4.61 6 6.88a2 2 0 01.47 2.5c-.65 1-1.45-.1-2.18-.29-1.18-.31-2.37-.64-3.53-1-5.27-1.83-10.18-4.54-15.48-6.34q-18.24-6.17-36.89-10.65c-13.69-3.29-27.23-7.13-41.26-9-7.19-1-14.4-1.45-21.58-2.37-3.22-.41-6.45-.21-9.65-.58-5.14-.59-10.26-1.41-15.42-1.79-3.94-.3-7.89-.8-11.79-1.28-6.88-.85-13.79-1.27-20.68-1.7-11.19-.69-22.4.1-33.56 1-4.53.37-9.08.53-13.57 1-7.46.84-15 1.17-22.42 1.88-4.13.4-8.1 1.36-11.43 4-1.32 1.05-2.4 2.54-1.75 4.28a14.42 14.42 0 004.6 6.65c2.86 2.21 5.89 4.21 8.74 6.44 12.4 9.67 25.22 18.77 38.2 27.63 7.76 5.29 15.88 10 24 14.68 13.3 7.75 26.65 15.34 41 20.93 5 2 10 4.11 14.93 6.32 10.2 4.57 21.08 7.21 31.7 10.61 6.25 2 12.62 3.53 19 5 7 1.65 14.09 3.05 20.94 5.35 1.12.38 2.32.44 2.19 2.1s-1.34 1.3-2.38 1.49c-6.43 1.23-12.88 2.43-19.28 3.83s-13.06 3-19.59 4.5c-4.85 1.12-9.7 2.27-14.56 3.38-7.25 1.65-14.34 3.95-21.57 5.7s-14.11 3.61-21.13 5.54c-6.72 1.84-13.41 3.82-20.17 5.51-15.73 3.92-30.72 10-45.77 15.8-5.94 2.3-11.68 5.13-17.5 7.74-11.3 5.07-22.29 10.79-33.32 16.42-3.31 1.69-4.24 5.77-1.91 8.06a17.7 17.7 0 004.87 3.33c5.49 2.58 11 5.2 16.88 6.78.59.16 1.58.3 1.42 1.4h322.51V-533z" transform="translate(-749.1 741.37)"/><path class="cls-1" d="M1054-720.12c.86 9.68 1.41 19.38 3 29 1.17 7 1.67 14 3.2 20.91 1.32 5.9 2.16 11.89 3.71 17.75 2 7.73 3.63 15.57 6 23.24 3.28 10.73 6.61 21.45 10.23 32.07 3.86 11.35 15.4 67.23 15.4 75.57v1c.18.22.35.44.52.67v-193.47c-.45-.31-.92-.61-1.36-.93-.4 0-.67-.36-1-.65a188.5 188.5 0 00-15.54-13.4 148.35 148.35 0 00-16.78-11.73c-5.12-2.91-6.69-.5-8.23 3.65a6.23 6.23 0 00-.12 2 132.07 132.07 0 00.97 14.32zm42.55 187.77l-.48-.64v228.41c1-.55.47-1.52.47-2.25q.01-112.75.01-225.52z" transform="translate(-749.1 741.37)"/></svg>