<svg id="Слой_1" data-name="Слой 1" xmlns="http://www.w3.org/2000/svg" viewBox="0 0 309.43 265.67"><defs><style>.cls-1{fill:#fff;}.cls-2{fill:#007f53;}</style></defs><title>form-logo</title><path class="cls-1" d="M1653.75-2791.57h-4.52c.1,4.82.06,12.14,0,15.91a7,7,0,0,1-2.6,5.35,6.27,6.27,0,0,1-5.23,1.17c-3.22-.72-5.17-3.3-5.24-6.91-.06-3.81-.08-10.79,0-15.52h-4.39c0,1.47,0,3.11,0,4.81,0,4.29,0,8.73.09,11.7a10.67,10.67,0,0,0,4.23,8.13,11.18,11.18,0,0,0,9.26,1.95,16.7,16.7,0,0,0,2.43-.73l.8-.32-.24,1c0,.11-.06.19-.08.26-.14.4-.28.76-.38,1a6.24,6.24,0,0,1-2.17,2.49c-2.37,1.59-5.57,1.48-6.84,1.36v4.16a15.1,15.1,0,0,0,9.67-2.24c3.93-2.53,5-7.17,5.23-10.62.14-2.27.11-10.58.08-16.64C1653.75-2787.88,1653.74-2790.15,1653.75-2791.57Z" transform="translate(-1474.55 2799.62)"/><path class="cls-1" d="M1681.6-2791.49a13.3,13.3,0,0,0-8.33,2.91l-.71.56v-3c0-3,1.15-4.14,4.17-4.2,2.29,0,7.55-.05,10.36,0v-4.42c-2.83,0-8.52,0-11.19,0a7.67,7.67,0,0,0-7.8,7.82l0,2c-.07,3.91-.15,7.95.07,11.9l.12,1.22a13.39,13.39,0,0,0,13.36,12,13.44,13.44,0,0,0,13.42-13.43A13.44,13.44,0,0,0,1681.6-2791.49Zm0,22.63a9.22,9.22,0,0,1-9.21-9.2,9.22,9.22,0,0,1,9.21-9.2,9.21,9.21,0,0,1,9.2,9.2A9.21,9.21,0,0,1,1681.6-2768.86Z" transform="translate(-1474.55 2799.62)"/><path class="cls-1" d="M1605.43-2791.57c-2.64,7.48-6.19,17.64-9.41,26.89h4.7c1.18-3.39,6-17.17,6-17.17l.41-1.18.42,1.18s5.11,14.5,6.06,17.17h4.68c-1.22-3.5-7.54-21.55-9.38-26.89Z" transform="translate(-1474.55 2799.62)"/><path class="cls-1" d="M1575-2778.55l.42-.83c.94-1.89,4.36-8.78,6-12.19h-4.84c-1.33,2.73-4.1,8.34-5.19,10.53l-.22.43h-4.37v-11h-4.42l0,26.89h4.41V-2776h4.61l.21.45c1.29,2.78,3.81,8,5.19,10.83h5.2c-2-4-6.88-13.52-6.88-13.52Z" transform="translate(-1474.55 2799.62)"/><ellipse class="cls-2" cx="150.68" cy="85.5" rx="14.48" ry="14.89"/><path class="cls-2" d="M1633.38-2656h0s-9.67-1.76-16.75-5.39c-5-2.58-7.77-4.43-9.76-7.26-2.59-3.67-4.22-10.42-4.51-21.09,0-.14,0-.27,0-.41s0-.25,0-.38a14.7,14.7,0,0,0-14.49-14.89,14.69,14.69,0,0,0-14.48,14.89,14.85,14.85,0,0,0,10.26,14.24h0s7.67,2.07,9.71,2.94c2.71,1.14,9.65,4.09,11.55,6.34a23.07,23.07,0,0,1,5.83,12.36,149.2,149.2,0,0,1,1.73,15.75.45.45,0,0,0,0,.11c0,.21,0,.41,0,.62a17.91,17.91,0,0,0,17.65,18.15,17.91,17.91,0,0,0,17.65-18.15A18,18,0,0,0,1633.38-2656Z" transform="translate(-1474.55 2799.62)"/><path class="cls-1" d="M1783.9-2640.51a47.2,47.2,0,0,0-47.13-44.55,47.21,47.21,0,0,0-47.21,47.21,47.2,47.2,0,0,0,45.38,47.16l0,0h49v-49.76Zm-47.13,32.12a29.47,29.47,0,0,1-29.47-29.46,29.47,29.47,0,0,1,29.47-29.47,29.46,29.46,0,0,1,29.47,29.47A29.46,29.46,0,0,1,1736.77-2608.39Z" transform="translate(-1474.55 2799.62)"/><path class="cls-1" d="M1663.76-2712.43c-5.38,5.64-5,11.37-5,11.37v16h-30.89l0,0a46.84,46.84,0,0,0-15.3,3.17c1.14,5,5,12.38,17.59,14.21a12.12,12.12,0,0,1,1.86.41,29.46,29.46,0,0,1,27.15,29.37,29.46,29.46,0,0,1-29.47,29.46,29.46,29.46,0,0,1-29.46-29.46,29.4,29.4,0,0,1,1.67-9.8,17.91,17.91,0,0,0-3.34-10.77,23.76,23.76,0,0,0-7.37-6.74,47,47,0,0,0-8.7,27.31,47.2,47.2,0,0,0,47.2,47.2,47.2,47.2,0,0,0,47.13-44.54l.08-.1v-81.86S1669.14-2718.06,1663.76-2712.43Z" transform="translate(-1474.55 2799.62)"/><path class="cls-1" d="M1519.67-2608h-.75v-.1a29.66,29.66,0,0,1-27.43-29.58,29.67,29.67,0,0,1,29.67-29.67,29.67,29.67,0,0,1,29.66,29.09h-45.06a15.17,15.17,0,0,0,3.23,11.31c4.35,5.78,10,5.8,10,5.8h48.82v-17.11h0a46.61,46.61,0,0,0-46.6-46,46.61,46.61,0,0,0-46.61,46.61,46.6,46.6,0,0,0,45.12,46.58v.13h48.68v-17h-48.68Z" transform="translate(-1474.55 2799.62)"/><path class="cls-1" d="M1769.5-2569.75a13.44,13.44,0,0,0-13.42,13.43,13.44,13.44,0,0,0,13.42,13.43,13.45,13.45,0,0,0,13.43-13.43A13.45,13.45,0,0,0,1769.5-2569.75Zm0,22.63a9.21,9.21,0,0,1-9.2-9.2,9.21,9.21,0,0,1,9.2-9.2,9.22,9.22,0,0,1,9.21,9.2A9.21,9.21,0,0,1,1769.5-2547.12Z" transform="translate(-1474.55 2799.62)"/><path class="cls-1" d="M1697.81-2569.75a13.45,13.45,0,0,0-13.43,13.43,13.45,13.45,0,0,0,13.43,13.43,13.35,13.35,0,0,0,10.78-5.45h-6.22a9.16,9.16,0,0,1-4.56,1.22,9.24,9.24,0,0,1-8.81-6.55l-.18-.57h19.86a2.28,2.28,0,0,0,2.55-2.09A13.44,13.44,0,0,0,1697.81-2569.75Zm-8.89,11,.21-.59a9.2,9.2,0,0,1,8.68-6.16,9.2,9.2,0,0,1,8.68,6.16l.2.59Z" transform="translate(-1474.55 2799.62)"/><path class="cls-1" d="M1577.44-2558.15v-.07a13.48,13.48,0,0,0-13.28-11.53,13.44,13.44,0,0,0-13.42,13.43,13.44,13.44,0,0,0,13.42,13.43,13.34,13.34,0,0,0,7.69-2.43l.75-.53-.06.92a6.73,6.73,0,0,1-2.89,5.38c-2.37,1.59-5.57,1.48-6.84,1.36v4.16a15.18,15.18,0,0,0,9.66-2.25c3.94-2.53,5-7.17,5.24-10.62a52.53,52.53,0,0,0-.23-11.13Zm-13.29,11a9.21,9.21,0,0,1-9.2-9.2,9.21,9.21,0,0,1,9.2-9.2,9.22,9.22,0,0,1,9.21,9.2A9.21,9.21,0,0,1,1564.15-2547.12Z" transform="translate(-1474.55 2799.62)"/><path class="cls-1" d="M1537.17-2569.81h-4.51c.1,4.82.06,12.14,0,15.9a7,7,0,0,1-2.6,5.35,6.25,6.25,0,0,1-5.23,1.17c-3.22-.72-5.18-3.3-5.24-6.9-.06-3.82-.08-10.8,0-15.52h-4.38c0,1.47,0,3.12,0,4.82,0,4.29-.06,8.72.09,11.69a10.69,10.69,0,0,0,4.22,8.12,11.2,11.2,0,0,0,9.27,2,18,18,0,0,0,2.43-.73l.8-.32-.24.95c0,.12-.06.19-.08.26l0,.09c-.11.33-.26.69-.36.92a6.24,6.24,0,0,1-2.16,2.5c-2.37,1.59-5.57,1.48-6.84,1.36v4.16a15.17,15.17,0,0,0,9.66-2.25c3.94-2.53,5-7.17,5.23-10.62.15-2.27.11-10.59.09-16.66C1537.18-2566.14,1537.17-2568.4,1537.17-2569.81Z" transform="translate(-1474.55 2799.62)"/><path class="cls-1" d="M1614.07-2569.81h-4.51c.1,4.81.06,12.13,0,15.9a7,7,0,0,1-2.6,5.35,6.25,6.25,0,0,1-5.23,1.17c-3.22-.72-5.18-3.3-5.24-6.9-.06-3.81-.08-10.8,0-15.52H1592c0,1.46,0,3.1,0,4.8,0,4.3-.06,8.74.09,11.71a10.69,10.69,0,0,0,4.22,8.12,11.2,11.2,0,0,0,9.27,2,18,18,0,0,0,2.43-.73l.8-.32-.24,1a1.86,1.86,0,0,1-.08.25l0,.09c-.11.33-.25.68-.35.91a6.23,6.23,0,0,1-2.17,2.51c-2.37,1.59-5.57,1.48-6.84,1.36v4.16a15.17,15.17,0,0,0,9.66-2.25c3.94-2.53,5-7.17,5.24-10.62.14-2.27.1-10.59.08-16.66C1614.08-2566.14,1614.07-2568.4,1614.07-2569.81Z" transform="translate(-1474.55 2799.62)"/><path class="cls-1" d="M1669.34-2551c0-5.92.11-13.37.24-18.85h-4.32c0,5.7,0,13.59,0,15.15,0,4.49-2.58,7.4-6.48,7.42h0c-3.91,0-6.47-2.89-6.54-7.36,0-3.2-.08-10.15,0-15.21h-4.36c0,5.27,0,12.74,0,15.25a7.8,7.8,0,0,1-2,5.65,6.14,6.14,0,0,1-4.47,1.66c-3.89-.05-6.43-3-6.47-7.43s-.07-10.6,0-15.13h-4.5c0,2.93,0,6.46,0,9.6,0,2.08,0,3.92,0,5.18,0,5.26,2.12,8.91,6.25,10.86a11,11,0,0,0,12-1.33,3.17,3.17,0,0,1,3.1,0c4.29,3.15,8.74,3.34,13.61.6.69-.39,2.27-.48,2.74.12,1.48,1.91,3.32,1.78,5.65,1.61l1.17-.08-1-1.19c-1.26-1.42-2.34-2.64-3.36-3.92A4.37,4.37,0,0,1,1669.34-2551Z" transform="translate(-1474.55 2799.62)"/><path class="cls-1" d="M1737.72-2554.75a7.1,7.1,0,0,0,5.09-8.17,7.29,7.29,0,0,0-6.81-6.31c-.2,0-.94,0-3.36,0v0H1731l-3.7,0v4.17h.15c2.21,0,4.75,0,6.2,0h.73c3.29,0,4.06,1.77,4.12,3.23.11,2.57-2.14,3-3.78,3.23-.36.06-.71.1-1.06.14s-.68.07-1,.12c-4.24.72-7,3.82-6.81,7.72a7.93,7.93,0,0,0,7.6,7.35c1.08.06,3.84,0,6.51,0h1.57v-4.43c-1.79,0-3.74,0-5.26,0h-2.2c-2.27,0-3.61-1-3.77-2.95-.22-2.73,2.38-3.21,3.36-3.39l1.44-.22A15.22,15.22,0,0,0,1737.72-2554.75Z" transform="translate(-1474.55 2799.62)"/><path class="cls-1" d="M1488.81-2569.73a13.29,13.29,0,0,0-8.33,2.9l-.7.56v-.9c0-.56,0-1.15,0-1.58v-.52c0-3,1.14-4.14,4.16-4.2,2.31,0,7.57-.05,10.37,0v-4.41c-2.83,0-8.53,0-11.19,0a7.68,7.68,0,0,0-7.81,7.82l0,2c-.08,4-.15,8,.07,12v0l.12,1a13.38,13.38,0,0,0,13.35,12,13.44,13.44,0,0,0,13.43-13.43A13.44,13.44,0,0,0,1488.81-2569.73Zm0,22.63a9.22,9.22,0,0,1-9.2-9.21,9.21,9.21,0,0,1,9.2-9.2,9.22,9.22,0,0,1,9.21,9.2A9.22,9.22,0,0,1,1488.81-2547.1Z" transform="translate(-1474.55 2799.62)"/></svg>