<svg xmlns="http://www.w3.org/2000/svg" viewBox="0 0 219.63 254.97"><g id="Слой_2" data-name="Слой 2"><path d="M149.22 125.65l70.41 32.75L75.39 255 58.9 236.47 25.36 197.8zM85.63 58.78s-29.77 2.61-36.43 3.31c-5.3.56-18.06 1.73-26.85 4C7.54 69.78 2.38 81.26.91 117s-1.47 59 2.35 73.81 13.8 15.14 21.43 13.39 49-24.53 49-24.53l55.35-9L143 65.82l-25.33-7zm44.89-45.57l-21-1-5.58 4.88-3.89 6.36s-2.31 6.26-3.35 8.82-12.91 27.41-12.91 27.41 4.74 13.17 8.07 20.79C95.05 87.77 98 94.26 102.55 99c3.66 3.77 5.77-4.3 7.79-12.2 1.08-4.24 4.7-18.38 5.35-20.19 1.16-3.24 1.52-3.23 3-2.12 2.82 2.18 6.58 5.12 12.68 4.38 3.36-.41 7.69-7 8.14-7.58 1.34-1.84 3.14-11.24 4.85-28.72C145.82 17 141.7 12.7 141.7 12.7zm5.2 63.79l-22-.43S95.8 89.35 90.44 99.46 79.35 122.2 86 141.56c6.07 17.8 15.82 25.76 15.82 25.76v15.94l15.45 8.94 17.51-9.74v-19L111 152.88s-7.4-8.43-9.95-16.39c-1.91-5.93-3.33-16.63-.44-22.86s8.77-16.06 18.67-17.8a59.87 59.87 0 0116.48-.29zm.59 55.42l-34.53 17.31 55.89 32.71 35.72-23.17zm-11.06 10.68c-.13.86 2.37 2 5.58 2.46s5.93.21 6.07-.65a.67.67 0 00-.2-.51l3.7-23.77a.65.65 0 00.35-.43c.13-.86-2.36-2-5.58-2.46s-5.93-.21-6.06.65a.66.66 0 00.23.55l-3.7 23.71a.67.67 0 00-.39.47zm17.1 2.9c.09.87 2.78 1.3 6 1s5.79-1.31 5.7-2.17a.64.64 0 00-.33-.45l-2.48-23.92a.63.63 0 00.23-.51c-.09-.86-2.78-1.3-6-1s-5.79 1.31-5.7 2.18a.7.7 0 00.37.47l2.47 23.86a.69.69 0 00-.26.54zm16.25-2.63c.27.83 3 .68 6.09-.33s5.39-2.5 5.12-3.33a.68.68 0 00-.42-.37l-7.46-22.86a.64.64 0 00.12-.54c-.27-.83-3-.68-6.09.32s-5.38 2.5-5.11 3.33a.67.67 0 00.45.39l7.45 22.81a.68.68 0 00-.15.6zm-33.19-22.17l41.32-3.69-6.35-11.81-32.75 2.82zm16.59-8.09c0 .52 1.56.94 3.49.94s3.49-.42 3.49-.94a.36.36 0 00-.16-.28V98.57a.35.35 0 00.16-.28c0-.52-1.56-.93-3.49-.93s-3.49.41-3.49.93a.39.39 0 00.19.3v14.22a.39.39 0 00-.19.3zm-8.1-5.19a.78.78 0 000 .21c0 1.29 4.7 2.33 10.51 2.33s10.52-1 10.52-2.33V62.41h-.21a.7.7 0 00.17-.4c0-1.29-4.71-2.33-10.52-2.33s-10.51 1-10.51 2.33a.68.68 0 00.16.4h-.12zm-58.61 62.92s21.8-15.25 24.7-18.72 4.48-7.56 3.57-8.49c-1.78-1.8-2.88.28-6.49 3.21-3.33 2.7-5.81 4.07-6.07 3.67-.68-1.06 0-2.12 4.43-6.66 1.58-1.61 6.43-7.36 8-10.46 2.29-4.61-.48-4.53-1.45-4.25s-9.21 7.54-11.19 9.05c-.72.55-2.56 3.66-1.26 1.76a41.27 41.27 0 014.87-4.68c2.8-2.51 6.95-5.6 9.45-8.49 2.26-2.61.62-6.56-2.34-4.83-.68.4-2.57 1.67 0 0 4.34-2.82 3-7-.26-6.07-.92.26-4.39 2.19-9.79 4.41s-8.09 4.32-9.06 4.32 1.1-5.26 1.75-8.88c.3-1.67 1.86-6.42-3-5.32-1.32.31-2.17 10.1-9.5 16.39-7.77 6.67-8.35 11.2-8.35 11.2zm63.86-108.72c0 .69 2.64 1.24 5.89 1.24s5.89-.55 5.89-1.24c0-.13-.1-.25-.28-.37V42.9c.18-.12.28-.25.28-.38 0-.68-2.63-1.24-5.89-1.24s-5.89.56-5.89 1.24c0 .14.11.27.31.4v18.81c-.2.12-.31.27-.31.39zm-20.51 2.36s-6.23-5.81-7.1-7.16 2.67 13.79 2.67 13.79 1.75-5.89 2.33-6.56.72-1.12 2.1-.07zM140.51 39a.83.83 0 101.18 0 .83.83 0 00-1.18 0zm-8.52-.6a11.09 11.09 0 01-2.6-.57c-.44-.16-.63.54-.19.7a12.6 12.6 0 002.79.59c.46.05.46-.67 0-.72zm-.38 14.63c.52 1.28 2.7 1.89 4.34 2m-51.52 76.62c6.54-2.33 11.84-6.42 17.66-10M86.6 142.43c.12-.14 1-.79 1.42-1.12 1-.82 1.94-1.72 2.93-2.61 1.73-1.56 3.64-3 5.28-4.68a29.71 29.71 0 014.12-3.82m3.33-98.28c2.36.48 3.71 3.23 5 5.83s5.52 2.67 7.3-2c.43-1.14 1.53-4.28 2.4-6.44s2-1.58 7.92-3.17 9.37-4.46 9.65-5-.14-6.48-.14-6.48a5.19 5.19 0 013.19 2.42c.78 1.21 5 7.32 5 7.32s2.16-1.13 4.25-7.9c2.77-9-4.29-18.87-14.19-16-7.42 2.16-7.63 6.91-7.63 6.91-3.4-1.8-9.56-1.68-13.55-.28-4.45 1.55-8.59 7.25-10.32 10.71S94.15 38.1 94.15 38.1s5.58-6.99 9.53-6.18z" fill="#ccc" id="Слой_1-2" data-name="Слой 1"/></g></svg>