<svg xmlns="http://www.w3.org/2000/svg" viewBox="0 0 219.63 254.97"><defs><style>.cls-1{fill:#fff}.cls-2{fill:#f8e5df}.cls-3{fill:#595959}.cls-9{fill:#e6b8ae}.cls-8{opacity:.59}.cls-7{fill:#282828}</style></defs><g id="Слой_2" data-name="Слой 2"><g id="Слой_1-2" data-name="Слой 1"><path class="cls-1" d="M149.22 125.65l70.41 32.75-144.24 96.57-16.49-18.5-33.54-38.67 123.86-72.15z"/><path class="cls-1" d="M85.63 58.78s-29.77 2.61-36.43 3.31c-5.3.56-18.06 1.73-26.85 4C7.54 69.78 2.38 81.26.91 117s-1.47 59 2.35 73.81 13.8 15.14 21.43 13.39 49-24.53 49-24.53l55.35-9L143 65.82l-25.33-7z"/><path class="cls-2" d="M141.7 12.7s4.12 4.32 2.61 19.86c-1.71 17.44-3.51 26.88-4.85 28.72-.45.62-4.78 7.17-8.14 7.58-6.1.74-9.86-2.2-12.68-4.38-1.43-1.11-1.79-1.12-3 2.12-.65 1.81-4.27 16-5.35 20.19-2 7.9-4.13 16-7.79 12.2-4.5-4.73-7.45-11.22-10.64-18.52-3.33-7.62-8.07-20.79-8.07-20.79S95.65 34.79 96.7 32.24s3.35-8.82 3.35-8.82l3.89-6.36 5.58-4.88 21 1z"/><path class="cls-3" d="M135.72 77l-22-.43S95.8 89.35 90.44 99.46 79.35 122.2 86 141.56c6.07 17.8 15.82 25.76 15.82 25.76v15.94l15.45 8.94 17.51-9.74v-19L111 152.88s-7.4-8.43-9.95-16.39c-1.91-5.93-3.33-16.63-.44-22.86s8.77-16.06 18.67-17.8a59.87 59.87 0 0116.48-.29z"/><path d="M139.27 133.83a7.64 7.64 0 00-5.88.08l-28.69 14.37c-1.6.81-1.65 2.21-.1 3.12l50.25 29.41a5.83 5.83 0 005.56-.12l30.24-19.62c1.5-1 1.41-2.41-.22-3.17z" fill="#c6c6c6"/><path class="cls-3" d="M125.64 142.67l3.7-23.71a.66.66 0 01-.23-.55c.13-.86 2.85-1.16 6.06-.65s5.71 1.6 5.58 2.46a.65.65 0 01-.35.43l-3.7 23.77a.67.67 0 01.2.51c-.14.86-2.85 1.16-6.07.65s-5.71-1.6-5.58-2.46a.67.67 0 01.39-.45z"/><path class="cls-3" d="M142.61 145.48l-2.47-23.86a.7.7 0 01-.37-.47c-.09-.87 2.46-1.85 5.7-2.18s5.93.1 6 1a.63.63 0 01-.23.51l2.48 23.92a.64.64 0 01.33.45c.09.86-2.46 1.84-5.7 2.17s-5.93-.09-6-1a.69.69 0 01.26-.54z"/><path class="cls-3" d="M158.75 142.81L151.3 120a.67.67 0 01-.45-.39c-.27-.83 2-2.32 5.11-3.33s5.82-1.15 6.09-.32a.64.64 0 01-.12.54l7.46 22.86a.68.68 0 01.42.37c.27.83-2 2.32-5.12 3.33s-5.82 1.16-6.09.33a.68.68 0 01.15-.58z"/><path d="M126 118a2.38 2.38 0 002.69 2.93l34.82-3.11a2 2 0 001.7-3.17l-3.25-6a5.42 5.42 0 00-4.81-2.6l-26.23 2.26a4.49 4.49 0 00-3.82 3.5z" fill="#eaeaec"/><path class="cls-3" d="M142.14 112.81V98.59a.39.39 0 01-.19-.3c0-.52 1.56-.93 3.49-.93s3.49.41 3.49.93a.35.35 0 01-.16.28v14.26a.36.36 0 01.16.28c0 .52-1.56.94-3.49.94s-3.49-.42-3.49-.94a.39.39 0 01.19-.3z"/><path class="cls-3" d="M133.85 62.41h.15a.68.68 0 01-.16-.4c0-1.29 4.7-2.33 10.51-2.33s10.52 1 10.52 2.33a.7.7 0 01-.17.4h.21v45.72c0 1.29-4.71 2.33-10.52 2.33s-10.51-1-10.51-2.33a.78.78 0 010-.21z"/><path class="cls-2" d="M63.25 138s.58-4.53 8.35-11.2c7.33-6.29 8.18-16.08 9.5-16.39 4.88-1.1 3.32 3.65 3 5.32-.65 3.62-2.71 8.88-1.75 8.88s3.65-2.1 9.06-4.32 8.87-4.15 9.79-4.41c3.28-1 4.6 3.25.26 6.07-2.57 1.67-.68.4 0 0 3-1.73 4.6 2.22 2.34 4.83-2.5 2.89-6.65 6-9.45 8.49A41.27 41.27 0 0089.5 140c-1.3 1.9.54-1.21 1.26-1.76 2-1.51 10.23-8.76 11.19-9.05s3.74-.36 1.45 4.25c-1.54 3.1-6.39 8.85-8 10.46-4.44 4.54-5.11 5.6-4.43 6.66.26.4 2.74-1 6.07-3.67 3.61-2.93 4.71-5 6.49-3.21.91.93-.68 5-3.57 8.49s-24.7 18.72-24.7 18.72z"/><path class="cls-3" d="M139.46 61.73V42.92c-.2-.13-.31-.26-.31-.4 0-.68 2.64-1.24 5.89-1.24s5.89.56 5.89 1.24c0 .13-.1.26-.28.38v18.85c.18.12.28.24.28.37 0 .69-2.63 1.24-5.89 1.24s-5.89-.55-5.89-1.24c0-.12.11-.27.31-.39z"/><path d="M118.64 64.48s-6.23-5.81-7.1-7.16 2.67 13.79 2.67 13.79 1.75-5.89 2.33-6.56.72-1.12 2.1-.07z" opacity=".59" fill="#e6b8ae"/><circle class="cls-7" cx="141.1" cy="39.63" r=".84"/><path class="cls-7" d="M132 38.44a11.09 11.09 0 01-2.6-.57c-.44-.16-.63.54-.19.7a12.6 12.6 0 002.79.59c.46.05.46-.67 0-.72z"/><g class="cls-8"><path class="cls-9" d="M136 54.74a8.9 8.9 0 01-2.44-.55 2.72 2.72 0 01-1.59-1.3.37.37 0 00-.5-.13.38.38 0 00-.12.5 3.34 3.34 0 001.91 1.58 9.49 9.49 0 002.74.62c.46 0 .46-.68 0-.72z"/></g><g class="cls-8"><path class="cls-9" d="M102 121.54c-5.75 3.54-11.21 7.65-17.61 10-.18.06-.1.34.07.28 6.44-2.33 11.91-6.45 17.69-10a.15.15 0 00-.15-.25z"/></g><g class="cls-8"><path class="cls-9" d="M100.28 130.08a22.94 22.94 0 00-3.36 3c-1.15 1.18-2.34 2.3-3.59 3.36s-2.52 2.17-3.75 3.29c-.61.56-1.23 1.12-1.89 1.64a10.68 10.68 0 00-1.19.94c-.13.13.07.33.21.2a11.64 11.64 0 011.17-.93c.6-.46 1.16-1 1.72-1.47 1.23-1.12 2.47-2.22 3.74-3.3s2.36-2.06 3.46-3.19a24.65 24.65 0 013.62-3.31c.15-.11 0-.36-.14-.25z"/></g><path class="cls-7" d="M94.17 38.11s6.68-16.81 8.41-20.26 5.87-9.16 10.32-10.71c4-1.4 10.15-1.52 13.55.28 0 0 .21-4.75 7.63-6.91 9.9-2.88 17 7 14.19 16-2.09 6.77-4.25 7.9-4.25 7.9s-4.26-6.11-5-7.32a5.19 5.19 0 00-3.17-2.45s.43 5.9.14 6.48-3.74 3.46-9.65 5-7.06 1-7.92 3.17-2 5.3-2.4 6.44c-1.78 4.66-6 4.58-7.3 2s-2.64-5.35-5-5.83c-3.99-.79-9.55 6.21-9.55 6.21z"/></g></g></svg>