<svg id="Размеры" xmlns="http://www.w3.org/2000/svg" viewBox="0 0 1159.37 1159.36"><path d="M-114.29 1435.62a261.26 261.26 0 00-74.35-190c-49.82-51.27-116.22-79.67-187-79.94h-1.05a261.22 261.22 0 00-185 76.35 261.61 261.61 0 00-78 186.13c.28 141.25 114.73 259.14 255.13 262.79 70.5 1.83 137.26-23.73 188.05-72 50.51-48.04 80.51-114.85 82.22-183.33zm-262.77 189h-.07c-53-.35-102.41-20.92-139.14-57.91s-56.75-86-56.72-138.5a194.81 194.81 0 0157.45-138.85c36.9-36.8 86.14-57 138.68-57h.46c53 .12 102.48 20.78 139.42 58.16 36.72 37.17 56.66 86.91 56.14 140-1.05 108.15-87.25 193.41-196.22 194.09zm249.15-446.54A52.11 52.11 0 00-90.55 1194h.78c28.22 0 51.5-23.13 52.06-51.92a51.29 51.29 0 00-14.72-36.72 51.76 51.76 0 00-36.45-16.18h-1a52.21 52.21 0 00-52.67 51.34 51.73 51.73 0 0014.64 37.56z" transform="translate(963.74 -837.67)"/><path d="M1144.6 273.6c0-34.32 1.07-69-3.25-102.87-9.61-75.56-56.31-130.28-131.61-149.06-13.62-3.39-27.73-4.83-41.61-7.17H236.34c-2.54.4-5.07 1-7.63 1.19-47.06 3.91-90.91 17.62-130.06 44.33-52.64 35.91-83.91 84.49-84 149.76q-.37 348.91.08 697.83a182 182 0 005.14 41.88c15.16 63.23 51.87 112 103.66 149.95 41.65 30.49 88.14 45.77 140.33 45.42 78.65-.53 157.3-.44 236-.34l-.07.1h448.34c54.5.06 99.24-21.5 134.4-62.33 42.86-49.75 61.83-109 62-173.74q.87-317.47.07-634.95zm-32.86 634.41c-.18 58.41-17.36 111.87-57.26 156.1-28.38 31.46-64 47.8-106.76 47.78H524.01h0c-90.68 0-181.37.19-272-.18-38.07-.16-72.35-13.61-103.38-35-46-31.73-79.52-73.21-94.7-127.65a174 174 0 01-6.34-45.89c-.39-228.14.12-456.28-.52-684.41-.18-61.19 27.19-105.16 77.68-136.4a228.18 228.18 0 01116.38-34.44c51.29-1.16 102.62-.71 153.94-.74q212.6-.09 425.2 0c44.26 0 88.53-.47 132.78.12 34.63.46 67.81 7.33 97 27.42 35.44 24.4 54.48 59.28 58.9 101 3.38 31.94 2.95 64.36 3 96.57q.26 317.87-.21 635.72z" stroke="#010000" stroke-miterlimit="10" stroke-width="28.99"/></svg>