<svg id="Слой_1" data-name="Слой 1" xmlns="http://www.w3.org/2000/svg" xmlns:xlink="http://www.w3.org/1999/xlink" viewBox="0 0 1182.07 1182.01"><defs><clipPath id="clip-path"><path d="M0 0h1182.07v1182.01H0z"/></clipPath></defs><path d="M324.05 0H857.3c1.08.25 2.14.6 3.23.74 14.79 1.86 29.73 2.91 44.36 5.67a329.9 329.9 0 01101.27 37.28 345.3 345.3 0 01146.72 161.44c18.53 41.93 28.84 85.84 28.95 131.62q.59 247.31.12 494.61a334.16 334.16 0 01-1.56 36.64 451 451 0 01-7.29 47.45c-9.55 43.51-27.75 83.33-53.29 119.81a345.08 345.08 0 01-151.09 121c-39.91 16.41-81.47 25.45-124.57 25.53q-241.48.48-483 .09c-15.85 0-31.76-.15-47.51-1.61a405.52 405.52 0 01-47.14-7.22c-31.63-6.75-61.42-18.61-89.67-34.38A345.09 345.09 0 0128.49 975.4C10.44 934.08.29 890.89.2 845.83Q-.31 600.6.09 355.35c0-11.23.37-22.47.74-33.7.61-18.72 3.6-37.15 7.81-55.35A338.55 338.55 0 0153.16 160a345.6 345.6 0 0172.06-81.54 340.89 340.89 0 0186.29-52.13A329.73 329.73 0 01312.34 1.44c3.92-.32 7.81-.95 11.71-1.44M91 591v244.49c0 8.72.53 17.46 1.15 26.17a228.44 228.44 0 0013.66 62.78c21.9 59.59 60.63 105 116.2 135.66 37.66 20.77 78.26 30.62 121.33 30.59q247.48-.12 495-.14a268.3 268.3 0 0038-2.55A250.78 250.78 0 001044 985.63q46.67-65.85 46.71-146.77V343.14a248.78 248.78 0 00-4.09-46.5c-7.8-41.17-24.53-78.31-50.75-111.11a248.72 248.72 0 00-74.61-63.08c-38.94-21.54-80.81-31.54-125.24-31.53q-245.23.09-490.47.15a289.87 289.87 0 00-41 2.88 240.91 240.91 0 00-82.13 27.49q-68.31 37.53-104 106.78C99.89 264.38 91.07 303 91.05 343.53Q91 467.28 91 591"/><path class="cls-3" d="M272.62 590.61c.58-176.64 144.64-318.68 319.91-318 175 .69 321.11 146 316.6 327C905 767.42 764.5 913.75 581.73 909 414.1 904.63 273 766.4 272.62 590.61m318.12 227.65c127-.8 226.17-100.29 227.38-224.88C819.39 463.79 716.19 364 591.56 363.74a226.43 226.43 0 00-227.77 227c-.07 125.34 99.63 226.71 227 227.56"/><path d="M931.37 318.2a68 68 0 01-67.76-69.68c1-38.67 32.34-67.51 69.9-66.81 37.08.68 67.38 32.46 66.66 68.95-.77 39.17-32.77 68.06-68.8 67.54"/></svg>