<svg id="Слой_1" data-name="Слой 1" xmlns="http://www.w3.org/2000/svg" xmlns:xlink="http://www.w3.org/1999/xlink" viewBox="0 0 108.14 77.55"><defs><clipPath id="clip-path"><path fill="none" d="M0 0h108.14v77.54H0z"/></clipPath></defs><g clip-path="url(#clip-path)"><path d="M99.43 33.08a5 5 0 01-2.72 4.38 17.75 17.75 0 01-8.11 1.8A5 5 0 0183.82 36c-1.66-4.56-1.91-9.16 1-13.27a6.33 6.33 0 0110.65.14c1.94 2.92 4.35 7.75 4 10.26M5.62.1c4.27.7 8.64 1.76 12.18 5 3 2.77 3.5 6.68.92 9.68a38.78 38.78 0 01-3.23 3.31c-1.07 1-2.07 1-3.59.21a24.22 24.22 0 01-8.17-7.45A28.43 28.43 0 01.16 3.61C-.57 1.66 1.25.07 3.88 0c.49 0 1 .06 1.74.1m37.16 7.27a4 4 0 013.46-4.26 31.13 31.13 0 017.54-.26c1.6.11 2.56 1.25 3 3.08 1.11 4.49.1 8.57-1.55 12.59-.91 2.2-2.79 3.17-5 3.6-1.95.38-3.45-.62-4.55-2.45-2.32-3.85-2.42-8.17-3-12.3m52.79 62.45c.47-2.91.8-6.12 1.54-9.23.69-2.89 5.33-4.94 8.07-3.65a3.49 3.49 0 011.5 2.35c.59 3.76.88 7.56 1.47 11.32.29 1.89-.06 3.5-1.57 4.55a13.84 13.84 0 01-4.73 2.29c-2.82.6-5.26-1.58-6-4.9-.17-.8-.2-1.63-.33-2.73M51.18 41.69a9.07 9.07 0 015.63-7.4c2.58-1.13 4.7.41 6.49 2.31a14.34 14.34 0 014.12 7.5c.64 3.8-1.88 7.17-6.28 5.94A20 20 0 0153 45.21c-1-1-1.38-2.63-1.81-3.52m-29.54-1.94c-2.36-.17-4.49-.74-5.66-3.28a3 3 0 01.34-3.42c2.4-2.89 5.75-3.93 9-5 1.37-.46 2.31.78 2.82 2a12.69 12.69 0 01.94 3.74c.37 4.15-.8 5.57-4.7 5.94-.92.08-1.85 0-2.77.07" fill="#fff"/></g></svg>