<svg id="Слой_1" data-name="Слой 1" xmlns="http://www.w3.org/2000/svg" viewBox="0 0 1514.45 1576.85"><defs><style>.cls-1{fill:#809c35;}.cls-2{fill:#790a71;}.cls-3{fill:#e8b80e;}</style></defs><title>our-product-dots</title><path class="cls-1" d="M9164.16-2007.5c12.82,0,22.12,9.47,22.3,22.63.12,8.67-13.48,23.56-21.32,23.34-9.76-.28-24.9-15.59-24.61-24.88C9140.87-1997.21,9152.45-2007.54,9164.16-2007.5Z" transform="translate(-8244.35 2351.46)"/><path class="cls-1" d="M8804.16-774.61c-6.55.16-16.33-8.64-16.52-14.89s9.35-15.21,16.08-15.3c7.23-.09,14,7.08,14.46,15.31C8818.51-783.61,8810.17-774.77,8804.16-774.61Z" transform="translate(-8244.35 2351.46)"/><path class="cls-2" d="M9312.82-1416.15c5.85.15,12.32,6.38,12.44,12s-7.51,12.54-13.24,12.2c-5.46-.32-12.05-7.16-12.13-12.57C9299.83-1409.21,9307.71-1416.28,9312.82-1416.15Z" transform="translate(-8244.35 2351.46)"/><path class="cls-3" d="M9143.65-1156.39c-.09,6.05-6.41,12.35-12.15,12.1-5.53-.23-12.12-7-12.11-12.47,0-5,7.29-12.25,12.37-12.33S9143.72-1161.82,9143.65-1156.39Z" transform="translate(-8244.35 2351.46)"/><path class="cls-3" d="M8268.61-1783c-.09,6-6.41,12.34-12.15,12.1-5.53-.24-12.12-7-12.11-12.47,0-5,7.29-12.25,12.37-12.33S8268.68-1788.39,8268.61-1783Z" transform="translate(-8244.35 2351.46)"/><path class="cls-3" d="M9758.81-2337.82c-.86,2.67-1.22,5.82-2.78,8.18-2.79,4.22-6.37,4.25-9-.27a20,20,0,0,1-2-6.8c-1.1-6.5,3.05-15.65,6.76-14.68C9758.47-2349.62,9756.67-2342.82,9758.81-2337.82Z" transform="translate(-8244.35 2351.46)"/></svg>