<svg id="Слой_1" data-name="Слой 1" xmlns="http://www.w3.org/2000/svg" viewBox="0 0 94.58 106.46"><defs><style>.cls-1{fill:#073d75;}.cls-2{fill:#f7f7f6;}</style></defs><title>our-ideas-figure-4</title><path class="cls-1" d="M6655.39,857.32c-1.21-1.48-2.7.18-4,.68-3.86,1.54-7.12,4.13-10.46,6.85-.7-3.19.33-4.92,2.48-6.58,3.7-2.86,5.47-7,6.2-11.57.19-1.19.36-2.76-.94-3.38s-1.86.91-2.67,1.58c-2.56,2.14-3.76,5.3-5.6,8.5-1.86-3.93-3.86-6.91-6.85-9.11-.88-.65-1.9-1.69-3-.94s-.61,2.1-.36,3.14c1,4.35,3,8.21,6.64,11,1.23.91,2.48,1.74,2.29,3.53-.09.84.27,1.91-.59,2.41-1,.6-1.55-.53-2.07-1.09a27,27,0,0,0-8.46-6.06c-.83-.4-1.88-1.19-2.75-.32s-.38,1.85.08,2.77c2.32,4.59,5.33,8.45,10.55,9.94.93.26,2.4.24,2.08,1.54-1,3.94-2.19,9.31-3.68,12-1.15,2.29-1.85,3.55-3,5.56a26.93,26.93,0,0,1-2,3.54c-.48,1-1.79,1.93-1.26,3.39,3.1-2.43,4.33-5.51,6.38-8.5a21,21,0,0,0,1.9-3.49,50.59,50.59,0,0,0,2.66-9.21c.5-2.86,2.25-4.21,5.34-5a17.94,17.94,0,0,0,9.79-7.16C6654.92,860.11,6656.51,858.71,6655.39,857.32Z" transform="translate(-6569.01 -843.09)"/><path class="cls-2" d="M6661.07,889.19c-2.76-.74-3.4,1.79-4.49,3.55-2.08,3.39-2.9,7.83-5.21,11-.43.45-1,.8-1.25.61-.54-.43,0-1,.45-1.66,3.54-6,3.4-12.62,3.73-19.2.14-2.75-.38-5.35-3.54-5.54-3-.17-4.2,2.35-4.74,4.91a67,67,0,0,0-.9,6.66c-.7,6.59-2.23,12.8-7.79,17.17-.66.52-1.85,1.43-2.29,1-.69-.72.65-1.64,1.28-2.21,7.14-6.39,8-14.92,7.82-23.64-.08-3.78-2.74-4.8-6.21-2.91-1.39,1-2.22,2.58-2.47,6.7-.38,8-6.35,16.36-13.72,19-1.83.64-3.75.88-5-1s-1-3.71.58-5.42c3.4-3.74,8-5.81,12.15-8.44,0,0,3.29-2.43,3.62-6.14-.12-6-2.35-7.06-7.63-3.86-2,1.2-7.58,5-10.63,6.11-6.36,2.35-11.74,6.32-14.4,12.42-3.06,7-8.42,11.22-14.35,15.23-4.54,3.09-9,6.3-13.48,9.49-3.93,2.81-4.48,5-2.27,9.25,4.33,8.24,11,13.71,19.72,16.89a5.5,5.5,0,0,0,6.16-1.12c6.25-5.41,12.15-11.16,17.83-17.14,1.64-1.72,3.44-3,5.88-2.65,6.81,1,13.22-.64,19.32-3.26,13.34-5.72,21.21-16,24.11-30.16C6663.79,892.45,6664,890,6661.07,889.19Z" transform="translate(-6569.01 -843.09)"/></svg>