<svg id="вектор" xmlns="http://www.w3.org/2000/svg" viewBox="0 0 169.08 149.35"><path d="M1008.09-139c3.24 9.87 9.19 17.68 16.29 25a93 93 0 0021.82 16.81c6 3.32 12.54 4.56 19.33 5 4 .23 8 .06 11.89 1.08 3.32.85 6.79.64 10.18.4 8.54-.62 17.07-1.4 25.6-2.13 2.74-.23 5.27-1.65 8.08-1.42l8.71-2.27c3.59-1.51 7-3.63 10.84-4.32a18.17 18.17 0 0010-5.57c6.62-6.69 12.72-13.71 17.24-22a33 33 0 004.08-15.76c0-5.24-.3-10.46-.11-15.7.08-2.48-1.23-4.75-1-7.25L1167.9-179a15.22 15.22 0 01-1-2.24c-2.91-11.32-8.52-21.41-14.9-31.05a64.05 64.05 0 00-33.17-25.71 41.7 41.7 0 00-13.75-1.86c-12.31 0-24.64-.21-36.85 1.87a87.6 87.6 0 00-30.1 11.63 95.06 95.06 0 00-24.56 21.59 41.94 41.94 0 00-8.68 18.58c-3.38 16.1-1.89 31.68 3.2 47.19z" transform="translate(-1003.07 239.85)" fill="#fbba00"/><path d="M1026-179a.76.76 0 01-.32-.6c0-.33 0-.9.13-1.71l.15-1.41c.11-1.11.2-2.56.27-4.34s.12-3.37.12-4.77v-1.74c0-.66 0-1.16-.06-1.49 0-.92-.07-1.78-.07-2.57a1.33 1.33 0 01.46-1.06 1.71 1.71 0 011.16-.41 2.26 2.26 0 011.5.49 1.67 1.67 0 01.57 1.33c0 .75-.07 2.63-.21 5.65-.09 2.37-.19 4.39-.31 6.09q2.12-3.06 3.85-6a73.15 73.15 0 003.53-6.52 1.28 1.28 0 01.51-1 1.91 1.91 0 011.22-.37 1.47 1.47 0 01.82.23 1.9 1.9 0 01.6.56 1.11 1.11 0 01.24.65 18.14 18.14 0 01-.24 2.31c-.15 1.09-.29 2.72-.41 4.87s-.18 4.1-.18 5.85v5a1.19 1.19 0 01-.26.79.85.85 0 01-.67.3 1.71 1.71 0 01-1.28-.44 2.62 2.62 0 01-.61-1.2 9.26 9.26 0 01-.24-1.61c0-.6-.07-1.25-.07-2 0-1.16 0-2.51.11-4.06s.15-2.86.25-3.93c-.25.54-.72 1.37-1.4 2.49s-1.32 2.15-1.93 3.07-1.32 2-2 3-1.51 2.14-2.33 3.26l-.18.37a2 2 0 01-.71.8 2.54 2.54 0 01-1.28.27 1.17 1.17 0 01-.73-.15zm19.12-1.11a5.72 5.72 0 01-1.79-2.28 7.2 7.2 0 01-.63-3 11.72 11.72 0 01.89-4.4 9.83 9.83 0 012.49-3.7 5.12 5.12 0 013.59-1.48 3.94 3.94 0 012 .49 3.4 3.4 0 011.24 1.23 3 3 0 01.41 1.43 2.29 2.29 0 01-.49 1.55 1.52 1.52 0 01-1.21.58.83.83 0 01-.63-.19 1.64 1.64 0 01-.33-.44 2.53 2.53 0 00-.18-.35 1.25 1.25 0 00-1.13-.75 2.09 2.09 0 00-1.6.92 6.89 6.89 0 00-1.19 2.38 10.3 10.3 0 00-.44 3 3.23 3.23 0 00.36 1.7 1.38 1.38 0 001.27.58 5.33 5.33 0 002.33-.51 10.18 10.18 0 002-1.25l.36-.31.27-.2a.45.45 0 01.25-.07c.55 0 .82.43.82 1.3a3.08 3.08 0 01-1 2.28 10 10 0 01-2.51 1.68 6 6 0 01-2.55.68 4.43 4.43 0 01-2.6-.87zm26.41-.41c0-.06 0-.6.1-1.64 0-.16.07-.75.15-1.79s.11-1.93.11-2.68c0-1.15 0-2-.08-2.6a3 3 0 00-.27-1.18.64.64 0 00-.58-.32 1.66 1.66 0 00-1 .55 8.4 8.4 0 00-1.21 1.53 17.23 17.23 0 00-1.21 2.19c0 .89-.06 2-.12 3.2s-.11 1.87-.11 2.14q0 1.44-1.86 1.44a1.72 1.72 0 01-1-.3 1.06 1.06 0 01-.42-.91c0-.37 0-.85.08-1.44.16-1.83.23-3.75.23-5.77a6.83 6.83 0 00-.22-2c-.14-.47-.35-.7-.63-.7a2 2 0 00-1.14.49 5.73 5.73 0 00-1.3 1.5 11 11 0 00-1.15 2.45c0 1-.07 2.09-.13 3.15s-.11 1.94-.18 2.61a1.09 1.09 0 01-.57.85 2 2 0 01-1.13.34 1.67 1.67 0 01-1.19-.39 1.55 1.55 0 01-.41-1.17 13.54 13.54 0 01.08-1.41l.09-1.58q.06-1.31.06-3.24a28.19 28.19 0 00-.31-5.33 5.17 5.17 0 00-.18-.64 2.09 2.09 0 01-.13-.6 1.49 1.49 0 01.56-1.19 2.24 2.24 0 011.46-.46 1.4 1.4 0 011.07.51 3.06 3.06 0 01.63 1.54 10.5 10.5 0 01.15 1.33c0 .52.06 1.1.08 1.76a9.36 9.36 0 011.3-2.25 6.4 6.4 0 011.57-1.46 2.68 2.68 0 011.42-.5 2.69 2.69 0 011.52.46 3.55 3.55 0 011.13 1.21 4 4 0 01.55 1.56l.1 1.06a12.66 12.66 0 012.08-3 3.12 3.12 0 012.21-1.12 3 3 0 012 .75 3.86 3.86 0 011.14 2.28 11.93 11.93 0 01.18 1.84v2.28c0 1.27 0 2.6-.13 4a20.93 20.93 0 01-.25 2.62 1.36 1.36 0 01-.66.84 2.15 2.15 0 01-1.1.32c-.91.03-1.38-.36-1.38-1.13zm9.15.58a6.63 6.63 0 01-2.12-2.5 7.81 7.81 0 01-.81-3.59 9.65 9.65 0 012.45-7 5.85 5.85 0 011.76-1.3 3.88 3.88 0 011.6-.43 1.43 1.43 0 01.85.23 2.42 2.42 0 01.59.66 2.64 2.64 0 011.19-.29 3 3 0 011.8.68 5 5 0 011.47 1.95 7.07 7.07 0 01.58 2.94 12.25 12.25 0 01-1 5.05 9.41 9.41 0 01-2.34 3.3 4.86 4.86 0 01-3.27 1.22 4.79 4.79 0 01-2.75-.92zm4.34-3.53a6.28 6.28 0 001.31-2.38 9.6 9.6 0 00.46-2.86 3.29 3.29 0 00-.37-1.79 1 1 0 00-.77-.51 1.8 1.8 0 00-.57.1 1.92 1.92 0 01-.49.1q-.36 0-.54-.78a4.87 4.87 0 00-1.55 1.4 7.27 7.27 0 00-1.06 2.1 8.2 8.2 0 00-.39 2.55c0 2 .65 3 1.94 3a2.69 2.69 0 002.01-.93zm15.89 3.95a1.42 1.42 0 01-.42-.91q-.15-1.35-.15-5.34a8.93 8.93 0 01-1.8 2.12 3.25 3.25 0 01-2.18.82 3.35 3.35 0 01-2.22-.73 4.15 4.15 0 01-1.26-1.92 8.23 8.23 0 01-.39-2.59c0-.12 0-.7.1-1.73 0-.29 0-.65.07-1.07s0-.84.06-1.24 0-.76 0-1v-.63a.71.71 0 01.36-.61 2.07 2.07 0 011.08-.23 2 2 0 011.25.42 1.33 1.33 0 01.53 1.11c0 .58 0 1.46-.1 2.65s-.1 2-.1 2.54a2.23 2.23 0 00.32 1.4 1.15 1.15 0 00.94.39 2.17 2.17 0 001.16-.42 6.16 6.16 0 001.24-1.08 5.12 5.12 0 00.91-1.39l.07-1.32c.11-1.58.19-2.61.26-3.09a1.24 1.24 0 01.62-.86 2.71 2.71 0 011.47-.35 1.53 1.53 0 01.84.2.64.64 0 01.3.55v.84l-.08.69v.6c-.14 1.79-.21 3.68-.21 5.66s0 3.49.12 4.32.11 1.31.11 1.44a1 1 0 01-.37.77 1.82 1.82 0 01-1.15.3 1.93 1.93 0 01-1.38-.31zm16.86.36a1.73 1.73 0 01-.71-.55 1.5 1.5 0 01-.28-.89v-5.34c-1 .12-2 .2-3.07.26l-2 .17c0 1.68 0 2.91-.08 3.71a5.69 5.69 0 01-.28 1.77 1.34 1.34 0 01-.75.68 3.18 3.18 0 01-1.32.27 1.14 1.14 0 01-.84-.26.94.94 0 01-.27-.72v-1.27c.19-2 .28-3.76.28-5.24 0-2-.06-3.7-.18-5.05a4.82 4.82 0 010-.61c-.07-.57-.1-.92-.1-1a1.24 1.24 0 01.57-1.08 2.28 2.28 0 011.34-.39 1.15 1.15 0 011 .47 3.43 3.43 0 01.46 1.46c0 .38.07 1.36.07 2.94v1.21c1.58 0 3.3 0 5.16-.14v-2.08c0-.85 0-1.63.06-2.36a1.59 1.59 0 01.46-1.14 2.1 2.1 0 011.37-.36c1 0 1.45.41 1.45 1.24v1.09c0 .54-.06.75-.06 1v2.57h.93a5.79 5.79 0 01.65 0 .28.28 0 01.29.17 1.76 1.76 0 01.07.61 2.08 2.08 0 01-.5 1.38 1.83 1.83 0 01-1.1.61l-.39.06v5.56a1.56 1.56 0 01-.38 1.16 1.5 1.5 0 01-1.06.37 2.45 2.45 0 01-.79-.28zm15.58-.52a1.61 1.61 0 01-.59-.9 8.91 8.91 0 01-.27-1.31 12.69 12.69 0 01-.14-1.57 14.56 14.56 0 01-2.24 2.83 3.29 3.29 0 01-2.15 1.12 3.13 3.13 0 01-1.84-.6 4.41 4.41 0 01-1.38-1.86 8.15 8.15 0 01-.53-3.13c0-1.77.08-3.59.24-5.45 0-.33 0-.79.07-1.37s.06-1.1.08-1.54a1.33 1.33 0 01.27-.86 1.2 1.2 0 01.84-.24 2.12 2.12 0 011.6.62 2.39 2.39 0 01.6 1.74c0 .79-.06 1.77-.18 2.95-.06.55-.1 1.13-.15 1.73s-.06 1.17-.06 1.73a8.19 8.19 0 00.17 2.06c.11.39.28.59.5.59a3.09 3.09 0 002-1.18 14.87 14.87 0 002.16-3.06c0-1.23.09-2.42.16-3.56s.15-1.94.22-2.38a1.26 1.26 0 01.57-.88 1.9 1.9 0 011.06-.3 1.83 1.83 0 011.17.39 1.28 1.28 0 01.47 1.11c0 .19 0 .54-.08 1a60.07 60.07 0 00-.34 6.08q0 2.07.09 3a3 3 0 00.35 1.32 1.61 1.61 0 01.26.87 1.08 1.08 0 01-.55.94 2.31 2.31 0 01-1.28.36 2 2 0 01-1.1-.25zm14.79.3a4.41 4.41 0 01-.91-.92c-.3-.4-.73-1-1.28-1.89l-1.24-1.87a14 14 0 00-1-1.26c-.26-.3-.41-.47-.45-.5 0 1 0 1.91-.12 2.87a15.22 15.22 0 01-.34 2.37 1.53 1.53 0 01-.74 1 2.68 2.68 0 01-1.3.3 1.42 1.42 0 01-.83-.27.82.82 0 01-.39-.68c0-.14 0-.43.08-.9 0-.17.07-.62.14-1.36s.14-1.57.18-2.48.07-1.88.07-2.9q0-1.91-.21-4.53v-1a1.34 1.34 0 01.46-1.11 1.85 1.85 0 011.17-.36 3 3 0 011 .13 1.06 1.06 0 01.56.46 2.24 2.24 0 01.24 1c0 .75.08 1.88.08 3.4v1.88a19.69 19.69 0 002.22-2.44 15.69 15.69 0 001.63-2.47l.33-.72a6.9 6.9 0 01.42-.83 1.4 1.4 0 01.47-.44 1.6 1.6 0 01.71-.14 1.1 1.1 0 01.8.36 2.63 2.63 0 01.57.87 2.32 2.32 0 01.21.88 2.58 2.58 0 01-.33 1.08 8.75 8.75 0 01-.73 1.22 11.49 11.49 0 01-1.21 1.37c-.43.42-.92.85-1.48 1.31l-.87.78c.34.35.7.74 1.07 1.18l1 1.27c.61.77 1.11 1.36 1.51 1.78a3.81 3.81 0 001.18.85 2.56 2.56 0 00.85.11c.33 0 .49.16.49.46a2.39 2.39 0 01-.3 1.08 2.44 2.44 0 01-1 1 3.19 3.19 0 01-1.71.42 1.8 1.8 0 01-1-.36zm-107.04 27.23a1.56 1.56 0 01-.62-1.37c0-.42 0-1.06.13-1.93.05-.69.1-1.49.16-2.41s.09-1.85.09-2.81a5.62 5.62 0 00-.24-1.89.83.83 0 00-.79-.62 2.09 2.09 0 00-1.1.55 9.42 9.42 0 00-1.4 1.46 10.46 10.46 0 00-1.22 1.91v.67c0 1.61 0 2.9-.09 3.86a6.4 6.4 0 01-.27 1.93 1.49 1.49 0 01-.76.69 2.79 2.79 0 01-1.3.29 1.26 1.26 0 01-.87-.27.94.94 0 01-.29-.74c0-.21 0-.54.07-1 .16-1.9.24-3.72.24-5.47 0-1.95-.06-3.6-.18-5a7 7 0 00-.11-.7 6.21 6.21 0 01-.1-.95 1.31 1.31 0 01.55-1.05 2.32 2.32 0 011.37-.42 1.1 1.1 0 011 .44 3.72 3.72 0 01.46 1.44 27.1 27.1 0 01.23 2.94 10.24 10.24 0 012.1-3.23 3.46 3.46 0 012.39-1.07 2.8 2.8 0 011.87.72 4.86 4.86 0 011.32 2 7.73 7.73 0 01.48 2.78c0 .77 0 1.57-.08 2.41s-.11 1.61-.16 2.32q-.1 1.31-.15 2.31v1.53a1.11 1.11 0 01-.34.92 1.42 1.42 0 01-.88.26 2.46 2.46 0 01-1.51-.5zm15.46-.07a1.58 1.58 0 01-.6-.89 9.38 9.38 0 01-.27-1.32c-.07-.54-.12-1.07-.14-1.57a14.24 14.24 0 01-2.23 2.83 3.29 3.29 0 01-2.16 1.12 3.13 3.13 0 01-1.83-.6 4.25 4.25 0 01-1.38-1.86 8.15 8.15 0 01-.53-3.13c0-1.77.08-3.59.23-5.45 0-.33 0-.78.08-1.37s.06-1.1.08-1.54a1.22 1.22 0 01.27-.85 1.13 1.13 0 01.84-.25 2.13 2.13 0 011.6.62 2.45 2.45 0 01.59 1.75q0 1.17-.18 2.94c0 .55-.1 1.13-.14 1.73s-.07 1.17-.07 1.73a8.7 8.7 0 00.17 2.06c.11.39.28.59.51.59a3 3 0 002-1.18 15.25 15.25 0 002.15-3.06c0-1.23.09-2.42.17-3.56s.15-1.94.22-2.38a1.28 1.28 0 01.57-.88 1.89 1.89 0 011-.3 1.88 1.88 0 011.18.39 1.28 1.28 0 01.5 1.08c0 .19 0 .54-.07 1a57.29 57.29 0 00-.34 6.08c0 1.39 0 2.39.09 3a3 3 0 00.35 1.33 1.55 1.55 0 01.26.86 1.1 1.1 0 01-.56.94 2.28 2.28 0 01-1.28.36 2 2 0 01-1.08-.22zm26.84-.12v5.19a1 1 0 01-.3.78 1.41 1.41 0 01-1 .29 2.87 2.87 0 01-1.44-.29 1 1 0 01-.47-.95l.07-1.07c.13-1.21.19-2 .19-2.39a1.06 1.06 0 00-.16-.68.76.76 0 00-.54-.16 2.22 2.22 0 01-1.2-.28 1.55 1.55 0 01-.63-.9 11.13 11.13 0 01-.28-1.34c-.07-.51-.12-1-.14-1.57a16.41 16.41 0 01-1.34 2.29 4.36 4.36 0 01-1.28 1.24 2.8 2.8 0 01-1.46.39q-2.31 0-3.17-3.17-.1-.43-.18-.87a15.17 15.17 0 01-1.9 3 2.62 2.62 0 01-2 1 2.2 2.2 0 01-1.35-.49 4.35 4.35 0 01-1.14-1.29 6.37 6.37 0 01-.71-1.73 8.77 8.77 0 01-.22-1.55v-2c0-1 0-2.21.13-3.75.07-1.77.1-2.89.1-3.37a.94.94 0 01.38-.82 1.5 1.5 0 01.94-.28 2.23 2.23 0 011 .22 1.77 1.77 0 01.75.63 1.73 1.73 0 01.28 1c0 .17 0 1.08-.1 2.74-.12 1.84-.18 3.25-.18 4.24a7.84 7.84 0 00.26 2.42q.26.69.75.69t1.35-1.17a25.08 25.08 0 001.8-3c0-1.39.08-3.41.2-6.09a1.59 1.59 0 01.4-1 1.79 1.79 0 011.23-.33 2.25 2.25 0 011.16.3 1 1 0 01.52.85c0 .41 0 1.28-.11 2.63-.1 1.84-.15 3.45-.15 4.81a7.19 7.19 0 00.28 2.4q.28.72.75.72c.33 0 .77-.4 1.33-1.2a19.84 19.84 0 001.74-3.21c0-1.1.08-2.27.14-3.52s.13-2.22.2-2.91a1.13 1.13 0 01.46-.83 1.65 1.65 0 011-.3 2 2 0 011.29.39 1.33 1.33 0 01.5 1.11q0 .25-.06 1.53-.15 2.25-.15 5.07c0 1.48 0 2.73.13 3.75h1.68a.8.8 0 01.6.23 1.32 1.32 0 01.22.9c-.09.42-.11 1.04-.17 1.7zm3.6-.13a5.09 5.09 0 01-2-2.29 8.78 8.78 0 01-.71-3.75 11 11 0 01.86-4.42 7.44 7.44 0 012.44-3.12 5.93 5.93 0 013.56-1.14 4.54 4.54 0 012.1.47 3.23 3.23 0 011.4 1.34 4.13 4.13 0 01.51 2.12 5.08 5.08 0 01-3.28 4.75 12.33 12.33 0 01-4.11.95 2.32 2.32 0 002.51 2.43 4.45 4.45 0 001.8-.33 9.15 9.15 0 001.47-.85 7.14 7.14 0 01.69-.47 1.11 1.11 0 01.48-.17.64.64 0 01.5.23 1.13 1.13 0 01.19.72 3.39 3.39 0 01-.28 1.39 4.16 4.16 0 01-.7 1.09 5.31 5.31 0 01-1.86 1.28 6.6 6.6 0 01-2.76.54 5.32 5.32 0 01-2.81-.77zm4-8.62a2.47 2.47 0 00.92-1.94 1.3 1.3 0 00-.3-.91 1 1 0 00-.81-.33 2.09 2.09 0 00-1.23.47 4.06 4.06 0 00-1.12 1.44 6.32 6.32 0 00-.62 2.33 6 6 0 003.09-1.06zm9.09 8.48a5.9 5.9 0 01-1.92-2.74 12.51 12.51 0 01-.67-4.37 24.46 24.46 0 01.9-6.77 11.89 11.89 0 012.76-5.08 6.12 6.12 0 014.6-1.93 3.63 3.63 0 012 .56 3.46 3.46 0 011.24 1.47 4.91 4.91 0 01.4 2 8 8 0 01-.54 3 6.32 6.32 0 01-1.65 2.36 2.46 2.46 0 011.58 1.33 6.53 6.53 0 01.64 3.17 9.74 9.74 0 01-.81 4 6.92 6.92 0 01-2.25 2.88 5.56 5.56 0 01-3.35 1.07 4.88 4.88 0 01-2.93-.95zm4.64-2.83a4 4 0 001.14-1.57 4.8 4.8 0 00.4-1.9 6.43 6.43 0 00-.11-1.28 6.17 6.17 0 00-.38-1.23 5 5 0 00-.25-.52l-.12-.26a1.58 1.58 0 01-.12-.37 6.14 6.14 0 01-1.6 1.15c-.63.33-1.38.67-2.24 1l-.57.23a7.33 7.33 0 000 .78 13.65 13.65 0 00.2 2.59 2.88 2.88 0 00.66 1.47 1.7 1.7 0 001.31.49 2.57 2.57 0 001.68-.58zm.25-10.35a4 4 0 001.48-3 1.53 1.53 0 00-.35-1.07 1.27 1.27 0 00-1-.37 2.59 2.59 0 00-1.83.85 6.69 6.69 0 00-1.5 2.42 13.82 13.82 0 00-.83 3.59 14.18 14.18 0 004.05-2.42zm10.16 13.84a11.64 11.64 0 01-2-.47.68.68 0 01-.33-.29 1.41 1.41 0 01-.21-.61 17.35 17.35 0 01-.09-1.93v-3.72c0-2.63 0-4.53-.13-5.68a3.75 3.75 0 01-.05-.47v-.62a1.19 1.19 0 01.22-.68 1.68 1.68 0 01.63-.54 2.36 2.36 0 011-.2 1.31 1.31 0 011 .33 2 2 0 01.42 1.06c.06.4.09.94.12 1.63s0 1.51 0 2.49a1.47 1.47 0 01.67-.63 4.68 4.68 0 011.38-.52 7.38 7.38 0 011.79-.2 4.31 4.31 0 013.35 1.28 5 5 0 011.17 3.53 7.51 7.51 0 01-.68 3.19 5.48 5.48 0 01-2.16 2.35 7.16 7.16 0 01-3.74.89 14 14 0 01-2.36-.19zm4.94-3.64a3.46 3.46 0 00.75-2.34 1.93 1.93 0 00-.5-1.43 2.13 2.13 0 00-1.54-.5 3.21 3.21 0 00-.81.1 6.73 6.73 0 00-.71.22l-.39.11a1.79 1.79 0 01-.54.09.68.68 0 01-.37-.08.58.58 0 01-.22-.3q0 2.49-.21 4.5a5.14 5.14 0 001 .36 5.88 5.88 0 001.4.13 2.68 2.68 0 002.14-.86zm6.72 2.59a8.31 8.31 0 01-.65-3.86c0-1.25.06-2.72.17-4.4s.24-3.13.37-4.34a1.27 1.27 0 01.62-1 2.3 2.3 0 011.29-.38 1.8 1.8 0 011.18.38 1.31 1.31 0 01.45 1.07 3.15 3.15 0 010 .44 3.42 3.42 0 010 .39c0 .16-.07.38-.1.67-.16 1.32-.28 2.55-.38 3.67s-.14 2.21-.14 3.25v1.35a2.42 2.42 0 00.16.68.6.6 0 00.31.3 1 1 0 01.39.29.91.91 0 01.12.52 2.1 2.1 0 01-.24.92 2.14 2.14 0 01-.68.81 1.65 1.65 0 01-1 .32 2 2 0 01-1.87-1.08zm5.64 2.9a1.7 1.7 0 01-.64-.61 1.61 1.61 0 01-.23-.82 2.45 2.45 0 01.14-.71 3.67 3.67 0 01.4-.79l1.37-2 2.53-3.72c-.38-.8-.77-1.71-1.17-2.71s-.78-2-1.13-2.85a2.65 2.65 0 01-.15-.87 2.39 2.39 0 01.26-1.08 2.35 2.35 0 01.67-.82 1.32 1.32 0 01.8-.32 1.19 1.19 0 011.29.9q.93 3 1.65 4.78l1.27-1.87c.39-.58.76-1.11 1.09-1.59a14.59 14.59 0 011-1.24 2.87 2.87 0 012.22-1 1.1 1.1 0 01.83.26 1.14 1.14 0 01.23.75 1.66 1.66 0 01-.14.6 3.7 3.7 0 01-.4.67c-.54.68-1.13 1.49-1.78 2.45l-2 2.89-.77 1.12a15.38 15.38 0 001.39 2.81 1.62 1.62 0 001.27.85 1.26 1.26 0 00.66-.18 2.38 2.38 0 00.58-.6c.08-.11.2-.28.35-.51a2.9 2.9 0 01.41-.54.58.58 0 01.4-.18.63.63 0 01.54.3 1.26 1.26 0 01.21.73 5.48 5.48 0 01-.1.94 4.51 4.51 0 01-.31.94 4.39 4.39 0 01-1.36 1.67 3.76 3.76 0 01-2.15.55 2.9 2.9 0 01-1.62-.46 4.47 4.47 0 01-1.21-1.27 21.63 21.63 0 01-1.2-2.19q-1.14 1.84-3 5a2.09 2.09 0 01-.61.71 1.3 1.3 0 01-.73.21 1.86 1.86 0 01-.86-.2zm-90.56 24.95a5.9 5.9 0 01-1.92-2.74 12.51 12.51 0 01-.67-4.37 24.46 24.46 0 01.9-6.77 12 12 0 012.76-5.08 6.12 6.12 0 014.6-1.93 3.63 3.63 0 012 .56 3.46 3.46 0 011.24 1.47 4.91 4.91 0 01.4 2 8 8 0 01-.54 3 6.32 6.32 0 01-1.65 2.36 2.46 2.46 0 011.58 1.33 6.44 6.44 0 01.64 3.17 9.9 9.9 0 01-.8 4 7 7 0 01-2.26 2.88 5.56 5.56 0 01-3.35 1.07 4.82 4.82 0 01-2.93-.95zm4.64-2.82a4.09 4.09 0 001.15-1.58 5 5 0 00.4-1.9 6.4 6.4 0 00-.12-1.28 6.38 6.38 0 00-.38-1.23 5 5 0 00-.25-.52s-.06-.12-.12-.26a1.58 1.58 0 01-.12-.37 5.92 5.92 0 01-1.6 1.15c-.63.33-1.38.68-2.24 1l-.57.23a7.33 7.33 0 000 .78 13.65 13.65 0 00.2 2.59 2.88 2.88 0 00.66 1.47 1.72 1.72 0 001.31.5 2.63 2.63 0 001.68-.61zm.25-10.36a3.93 3.93 0 001.48-3 1.53 1.53 0 00-.35-1.07 1.3 1.3 0 00-1-.37 2.59 2.59 0 00-1.83.85 6.78 6.78 0 00-1.5 2.42 13.82 13.82 0 00-.83 3.59 14.18 14.18 0 004.03-2.42zM1056-125a6.51 6.51 0 01-2.12-2.49 7.86 7.86 0 01-.81-3.59 9.66 9.66 0 012.45-7 5.85 5.85 0 011.76-1.3 4 4 0 011.6-.43 1.43 1.43 0 01.85.23 2.76 2.76 0 01.59.66 2.63 2.63 0 011.19-.28 2.94 2.94 0 011.79.67 5 5 0 011.48 2 7.14 7.14 0 01.58 2.94 12.07 12.07 0 01-1 5 9.39 9.39 0 01-2.33 3.3 4.81 4.81 0 01-3.27 1.22 4.72 4.72 0 01-2.76-.93zm4.34-3.53a6.28 6.28 0 001.31-2.38 9.52 9.52 0 00.45-2.85 3.26 3.26 0 00-.36-1.79 1 1 0 00-.77-.52 1.8 1.8 0 00-.57.1 1.62 1.62 0 01-.49.1q-.36 0-.54-.78a4.87 4.87 0 00-1.55 1.4 7.4 7.4 0 00-1.06 2.1 8.22 8.22 0 00-.39 2.56c0 2 .65 3 1.94 3a2.71 2.71 0 002.06-.96zm15.6 3.96a3.4 3.4 0 01-.41-1.05q-.49-2.11-1.24-4.83c-.5-1.82-1-3.52-1.52-5.09a43.54 43.54 0 01-1.54 5.45 28 28 0 01-1.87 4.29 2.79 2.79 0 01-1.07 1.13 2.65 2.65 0 01-1.33.37q-1.44 0-1.44-1.38a.84.84 0 01.06-.36 1.57 1.57 0 01.25-.36c.15-.18.27-.33.36-.46a25.51 25.51 0 002.54-5.18 62.41 62.41 0 002-6.3 1.6 1.6 0 01.77-1.08 3.18 3.18 0 011.55-.33c1.15 0 1.81.22 2 .66q1 2.66 2 6.21c.73 2.38 1.25 4.26 1.58 5.64.12.5.2.89.24 1.18a6.56 6.56 0 01.07.9c0 .17-.12.32-.34.46a3.36 3.36 0 01-.86.33 4.35 4.35 0 01-1.07.13.78.78 0 01-.73-.33zm7.32-.43a6.49 6.49 0 01-2.11-2.49 7.74 7.74 0 01-.82-3.59 9.66 9.66 0 012.45-7 5.85 5.85 0 011.76-1.3 4 4 0 011.6-.43 1.41 1.41 0 01.85.23 2.78 2.78 0 01.6.66 2.56 2.56 0 011.18-.28 3 3 0 011.8.67 5.1 5.1 0 011.47 2 7 7 0 01.58 2.94 12.22 12.22 0 01-1 5 9.41 9.41 0 01-2.34 3.3 4.81 4.81 0 01-3.26 1.22 4.73 4.73 0 01-2.76-.93zm4.34-3.53a6.29 6.29 0 001.32-2.38 9.52 9.52 0 00.45-2.85 3.26 3.26 0 00-.36-1.79 1 1 0 00-.78-.52 1.8 1.8 0 00-.57.1 1.57 1.57 0 01-.49.1q-.36 0-.54-.78a5 5 0 00-1.55 1.4 7.4 7.4 0 00-1.06 2.1 8.52 8.52 0 00-.38 2.56c0 2 .64 3 1.93 3a2.7 2.7 0 002.03-.96zm16.14 4.07a4.67 4.67 0 01-.91-.92c-.3-.39-.73-1-1.28-1.89l-1.24-1.87a14 14 0 00-1-1.26l-.45-.5c0 1 0 1.92-.11 2.87a16.75 16.75 0 01-.35 2.38 1.51 1.51 0 01-.74 1 2.68 2.68 0 01-1.3.3 1.44 1.44 0 01-.83-.27.81.81 0 01-.39-.68c0-.13 0-.43.08-.89 0-.18.07-.63.14-1.37s.14-1.57.18-2.48.07-1.88.07-2.9q0-1.91-.21-4.53v-1a1.32 1.32 0 01.47-1.11 1.83 1.83 0 011.16-.36 3.23 3.23 0 011 .13 1.06 1.06 0 01.56.46 2.28 2.28 0 01.24 1c.06.75.08 1.88.08 3.4v1.82a19 19 0 002.22-2.44 16.14 16.14 0 001.63-2.46l.33-.72a6.45 6.45 0 01.42-.84 1.28 1.28 0 01.47-.43 1.49 1.49 0 01.71-.15 1.1 1.1 0 01.8.36 2.63 2.63 0 01.57.87 2.32 2.32 0 01.21.88 2.61 2.61 0 01-.32 1.08 8.8 8.8 0 01-.74 1.22 11.49 11.49 0 01-1.21 1.37c-.43.42-.92.85-1.47 1.32l-.88.77c.34.35.7.74 1.07 1.19s.72.86 1 1.27c.61.76 1.11 1.36 1.51 1.77a3.65 3.65 0 001.18.85 2.32 2.32 0 00.85.11c.33 0 .49.16.49.47a2.46 2.46 0 01-.3 1.08 2.56 2.56 0 01-1 1 3.28 3.28 0 01-1.71.41 1.8 1.8 0 01-1-.31zm8.07-.54a6.6 6.6 0 01-2.12-2.49 7.86 7.86 0 01-.81-3.59 9.66 9.66 0 012.45-7 5.85 5.85 0 011.76-1.3 4 4 0 011.6-.43 1.43 1.43 0 01.85.23 2.78 2.78 0 01.6.66 2.56 2.56 0 011.18-.28 3 3 0 011.8.67 5.1 5.1 0 011.47 2 7 7 0 01.58 2.94 12.22 12.22 0 01-1 5 9.41 9.41 0 01-2.34 3.3 4.81 4.81 0 01-3.27 1.22 4.72 4.72 0 01-2.75-.93zm4.34-3.53a6.28 6.28 0 001.31-2.38 9.23 9.23 0 00.46-2.85 3.16 3.16 0 00-.37-1.79 1 1 0 00-.77-.52 1.8 1.8 0 00-.57.1 1.57 1.57 0 01-.49.1q-.36 0-.54-.78a4.87 4.87 0 00-1.55 1.4 7.4 7.4 0 00-1.06 2.1 8.22 8.22 0 00-.38 2.56c0 2 .64 3 1.93 3a2.7 2.7 0 002.03-.96zm17.47 4.29a1.73 1.73 0 01-.71-.55 1.43 1.43 0 01-.28-.89v-5.34c-1 .12-2 .21-3.07.26l-2 .18c0 1.67 0 2.9-.08 3.7a5.69 5.69 0 01-.28 1.77 1.37 1.37 0 01-.75.68 3.18 3.18 0 01-1.32.28 1.19 1.19 0 01-.84-.26 1 1 0 01-.27-.72v-1.27c.19-2 .28-3.77.28-5.25 0-2-.06-3.7-.18-5a4.83 4.83 0 01-.05-.6c-.07-.58-.1-.93-.1-1a1.24 1.24 0 01.57-1.08 2.28 2.28 0 011.34-.39 1.17 1.17 0 011 .47 3.48 3.48 0 01.46 1.46c0 .39.07 1.37.07 2.94v1.21c1.58 0 3.3 0 5.16-.14v-2.08c0-.85 0-1.63.07-2.36a1.59 1.59 0 01.46-1.14 2.08 2.08 0 011.37-.36c1 0 1.45.41 1.45 1.24v1.09c0 .53-.06.75-.06 1v2.57h.93a5.79 5.79 0 01.65 0 .27.27 0 01.29.18 1.66 1.66 0 01.07.6 2.09 2.09 0 01-.51 1.39 1.81 1.81 0 01-1.09.6l-.39.06c0 .67 0 1.72.05 3.14v2.42a1.59 1.59 0 01-.38 1.16 1.46 1.46 0 01-1.06.37 2.45 2.45 0 01-.8-.34z" transform="translate(-1003.07 239.85)" fill="#1d1d1b"/></svg>