<svg id="стикеры" xmlns="http://www.w3.org/2000/svg" viewBox="0 0 448.45 386.48"><defs><style>.cls-1{fill:#007ac2;}</style></defs><title>our-ideas-wave-5-mobile</title><path class="cls-1" d="M380.28-179.4c-16.34-22.76-35.67-18.72-52-24.89-12.11-4.58-15.44-12.44-17.61-25.32-2-12-1.53-24.11-.44-36.08,2.64-27.55,4.75-57.62,5.72-70.26,2.64-34.35-9.32-57.52-31.1-73.21-29.42-21.19-62.72-11.22-69-10.54-35.24,8.42-78.06,23.66-110.67,39.48C50.66-353.79,3.31-317.24-30.15-277.4-42-263.26-74.31-192.8-56.57-157.17c18.23,36.61,41.69,59,74.42,78.83C88.31-39.59,175.69-31.6,221.74-38.27c137-19.81,163.62-93,164.49-106C387.06-156.67,387.49-169.36,380.28-179.4Z" transform="translate(61.78 422.63)"/></svg>