<svg id="Слой_1" data-name="Слой 1" xmlns="http://www.w3.org/2000/svg" viewBox="0 0 104.95 163.47"><defs><style>.cls-1{fill:#fdfdfd;}.cls-2{fill:#f9b500;}.cls-3{fill:#007bc1;}</style></defs><title>our-ideas-figure-3</title><path class="cls-1" d="M589.91,737c-6.83.36-13.66.31-20.49,0-.46-5.13-.2-5.48,4.84-5.42,3.74,0,7.44-.12,11.18,0C590.18,731.66,590.36,732.21,589.91,737Z" transform="translate(-512.32 -624.04)"/><path class="cls-2" d="M539.65,747.14c-3-2.83-3.93-6.4-3.77-10.37,11.18-.09,61.81-.15,65.69-.1,4.58.06,6.19,1.36,6.22,5.1,0,4-1.61,5.46-6.34,5.46Q570.55,747.23,539.65,747.14Z" transform="translate(-512.32 -624.04)"/><path class="cls-2" d="M558.23,641.38c-4.47,1.59-8.78,3.62-13.47,4.54-.91-2.6-1.83-5.19-2.73-7.79-.6-1.72-.81-3.59-3.43-3.64-1.43,0-1.69-1.7-1.87-2.94a2.26,2.26,0,0,1,1.76-2.54c4.61-1.62,9.18-3.37,13.84-4.82,2.73-.84,5.33,1.88,3.75,3.94-2,2.65-.66,4.58,0,6.82S557.53,639.24,558.23,641.38Z" transform="translate(-512.32 -624.04)"/><path class="cls-3" d="M610.75,772.05q-46-.1-92.07,0c-2.87,0-6.19.44-6.23,3.93-.09,8.38-.78,10,2.32,11.25a10.88,10.88,0,0,0,2.5.26q22.08,0,44.14-.12c16.35,0,32.69.2,49,.14,6.08,0,6.82-1.69,6.82-6.34C617.28,773.15,616.66,772.06,610.75,772.05Z" transform="translate(-512.32 -624.04)"/><path class="cls-3" d="M589.94,712.82c-1.48-4.65-3.12-9.25-4.71-13.88-5.89-17.18-11.85-34.34-17.66-51.55-2.16-6.41-2.64-7.67-9.34-6l-13.47,4.54c-5.88,2.22-5.68,4.16-3.84,9.59,1.4,4.15,2.32,8.55,4.3,12.39,2.16,4.19.12,5.85-2.79,8.16-16.66,13.18-25.95,30.46-27.66,51.65a67.62,67.62,0,0,0,7.43,36.74c1,1.9,1.92,2.62,3.92,2.61,11.58-.06,23.16,0,34.73,0,.46,0,1,.1,1.13-.61-.48-1.49-1.82-1.88-3-2.53-9.54-5.13-24.65-17.35-23-38.24,1.41-13.33,7.59-23.89,17.74-33,3.32,9.74,6.46,18.87,9.54,28,1.4,4.16,3.13,5.39,7.31,4.13,5.65-1.7,11.18-3.76,16.72-5.79C590.15,717.92,590.81,715.55,589.94,712.82Zm-53.39,44.32a3.89,3.89,0,0,1-4.08,4.35,3.78,3.78,0,0,1-4.19-3.7c0-3.34,1.74-4.63,4.25-4.65A3.78,3.78,0,0,1,536.55,757.14Zm8.37-65.92a3.88,3.88,0,0,1-4-4.12c0-2.58,1.51-4.19,4.28-4.24a3.87,3.87,0,0,1,4.06,4.1A4,4,0,0,1,544.92,691.22Z" transform="translate(-512.32 -624.04)"/><path class="cls-1" d="M528.28,757.79c0-3.34,1.74-4.63,4.25-4.65a3.78,3.78,0,0,1,4,4,3.89,3.89,0,0,1-4.08,4.35A3.78,3.78,0,0,1,528.28,757.79Z" transform="translate(-512.32 -624.04)"/><path class="cls-1" d="M545.16,682.87a3.85,3.85,0,0,1,4.05,4.09,4,4,0,0,1-4.29,4.26,3.88,3.88,0,0,1-4-4.12C540.85,684.52,542.38,682.91,545.16,682.87Z" transform="translate(-512.32 -624.04)"/></svg>