<svg id="вектор" xmlns="http://www.w3.org/2000/svg" viewBox="0 0 118.57 104.86"><defs><style>.cls-1{fill:#fbba00;}.cls-2{fill:#1d1d1b;}</style></defs><title>our-product-omega</title><path class="cls-1" d="M642.93-83.79a25.6,25.6,0,0,0,4.76,11c2.36,3.18,4.61,6.42,6.95,9.61a4.28,4.28,0,0,0,1.6,1.59c7.56,2.91,13.35,8.84,21,11.61,2.81,1,5.56,2.2,8.34,3.31l20.52,2.36c3.66-.44,7.31-1,11-1.3,5.65-.47,10.76-2.38,15.8-4.74,5.72-2.68,11.43-5.32,16.5-9.06s7.51-8.91,9.09-14.65c.22-.8.48-1.59.72-2.38l1.61-13.91a66.94,66.94,0,0,0-3.31-12.06,21.78,21.78,0,0,1-1.31-7.84c-.1-4.49-1-8.58-4.39-12.39-10.44-11.86-23.61-19.26-38.64-24a10.54,10.54,0,0,1-4.37-2.08l-4.1-.47a28.67,28.67,0,0,1-14,2.21c-6.13-.38-11.66.41-16.41,4.73-2.18,2-5.16,3.24-7.92,4.53-5.83,2.74-9.74,6.91-11.19,13.11a27.37,27.37,0,0,1-3.68,7.9c-3.52,5.78-5,12.3-7.17,18.58a23.78,23.78,0,0,1-1.63,4.7l-.4,3.48C642.89-87.95,642.57-85.83,642.93-83.79Z" transform="translate(-642.22 149.2)"/><path class="cls-2" d="M670-86.62a5.82,5.82,0,0,1,1.61,2.4,8.62,8.62,0,0,1,.56,3.12,12.9,12.9,0,0,1-.85,4.75,8,8,0,0,1-2.54,3.49,6.45,6.45,0,0,1-4,1.31,5.85,5.85,0,0,1-3.46-1.08,7.23,7.23,0,0,1-2.36-2.8A8.11,8.11,0,0,1,658-79a12,12,0,0,1,.84-4.54,9.47,9.47,0,0,1,2.4-3.49,7.4,7.4,0,0,1,1.84-1.21,4.78,4.78,0,0,1,1.93-.43,1,1,0,0,1,.84.38,1.63,1.63,0,0,1,.38,1,4.36,4.36,0,0,1,1.3-.2A3.55,3.55,0,0,1,670-86.62Zm-3,10.86a6.62,6.62,0,0,0,1.52-2.66,10.94,10.94,0,0,0,.5-3.24,5.68,5.68,0,0,0-.31-2.18,1.17,1.17,0,0,0-1.16-.71,3,3,0,0,0-.92.12,7,7,0,0,0-.8.34.59.59,0,0,1-.26.13c-.22,0-.43-.16-.65-.47a2.73,2.73,0,0,1-.45-1,8.33,8.33,0,0,0-1,.93,7.09,7.09,0,0,0-1.6,2.51,8.8,8.8,0,0,0-.5,3.12,5.78,5.78,0,0,0,.39,2.23,3.23,3.23,0,0,0,1.15,1.43,3,3,0,0,0,1.72.5A3.23,3.23,0,0,0,666.94-75.76Z" transform="translate(-642.22 149.2)"/><path class="cls-2" d="M673.17-71.71a.74.74,0,0,1-.27-.58,6.61,6.61,0,0,1,.08-.89c.06-.35.15-.84.29-1.46.27-1.19.56-2.53.88-4s.62-2.95.9-4.41c.37-1.92.59-3.11.65-3.55,0-.08-.1-.22-.21-.43a1.06,1.06,0,0,1-.16-.42,1,1,0,0,1,.29-.69,1.9,1.9,0,0,1,.81-.5,3.69,3.69,0,0,1,1.2-.18,1.24,1.24,0,0,1,.8.28,2.82,2.82,0,0,1,.67.91,13.57,13.57,0,0,1,.83,2.13c.29.92.67,2.27,1.15,4a33.6,33.6,0,0,0,1.19,3.87c.08.15.14.22.19.22a.09.09,0,0,0,.08-.06l0-.08c.2-.45.45-1.07.75-1.87s.61-1.6.9-2.42c.48-1.32.9-2.43,1.24-3.33s.65-1.63.93-2.2a1.53,1.53,0,0,1,.36-.86,1,1,0,0,1,.71-.27,4.26,4.26,0,0,1,1.23.2,4,4,0,0,1,1.08.5.8.8,0,0,1,.44.62c0,1.69.14,3.48.28,5.38s.31,3.49.52,4.78a14,14,0,0,0,.43,2.11q.22.69.45,1.2a1.73,1.73,0,0,1,.14.32,1,1,0,0,1,.05.32,1.33,1.33,0,0,1-.23.75,1.7,1.7,0,0,1-.62.54,1.82,1.82,0,0,1-.83.2,1.8,1.8,0,0,1-.93-.25,1.54,1.54,0,0,1-.68-.76,10.07,10.07,0,0,1-.67-2.84c-.18-1.3-.35-3-.52-5.06l-.16-1.79a.7.7,0,0,0,0-.16s0-.06-.07-.06-.06,0-.07.07a.54.54,0,0,1-.07.13,12.43,12.43,0,0,0-.87,2.27l-.18.52c-.42,1.27-.8,2.33-1.13,3.17A9.89,9.89,0,0,1,684-74.24a2,2,0,0,1-1.49,1,4,4,0,0,1-.87-.1,3.17,3.17,0,0,1-.82-.26c-.23-.1-.35-.2-.39-.3-.18-.61-.63-2.18-1.35-4.73l-.23-.9-.35-1.25c-.26-1-.43-1.53-.49-1.69s-.12-.27-.14-.27-.05.1-.09.29q-.24,1.08-.87,5.46c-.12.89-.26,1.73-.43,2.55a7.87,7.87,0,0,1-.45,1.66,2.24,2.24,0,0,1-.85,1,2.55,2.55,0,0,1-1.37.32A.91.91,0,0,1,673.17-71.71Z" transform="translate(-642.22 149.2)"/><path class="cls-2" d="M695.84-72.14a2.53,2.53,0,0,1-1.09-1.43,8.2,8.2,0,0,1-.35-2.71c0-.91,0-1.84.07-2.79a2.64,2.64,0,0,1-.22-.5,1.35,1.35,0,0,1-.09-.5,1.81,1.81,0,0,1,.12-.64,2,2,0,0,1,.3-.54c.07-1,.1-1.73.1-2.17,0-.93,0-1.75-.07-2.45a3.6,3.6,0,0,1-.12-1,1.34,1.34,0,0,1,.38-1.09,1.91,1.91,0,0,1,1.21-.31l.66,0,1.67,0c1.21,0,2.28,0,3.2-.07l1.65-.1.79,0a.45.45,0,0,1,.4.22,1.54,1.54,0,0,1,.14.76,3,3,0,0,1-.25,1.15,1.09,1.09,0,0,1-.71.71,6.93,6.93,0,0,1-1.73.42A25.35,25.35,0,0,1,699-85H697.8v1.2c0,.37,0,1.08,0,2.13,1.39,0,2.76-.09,4.11-.22l.81-.05.66,0a.58.58,0,0,1,.5.21,1,1,0,0,1,.15.58,1.7,1.7,0,0,1-.29,1,2.23,2.23,0,0,1-.9.68,8.56,8.56,0,0,1-2.09.54c-.87.13-1.93.23-3.16.31,0,.51,0,1.12,0,1.84a5.61,5.61,0,0,0,.08,1.15A.9.9,0,0,0,698-75a1.67,1.67,0,0,0,.9.19,10.61,10.61,0,0,0,2.62-.36,11.72,11.72,0,0,0,2.32-.84,2.21,2.21,0,0,0,.36-.17,1.09,1.09,0,0,1,.46-.14.43.43,0,0,1,.44.35,2.57,2.57,0,0,1,.12.82,2.38,2.38,0,0,1-.19,1,2.33,2.33,0,0,1-.44.71,4.19,4.19,0,0,1-1.35.86,12,12,0,0,1-2.36.68,16,16,0,0,1-3,.27A3.87,3.87,0,0,1,695.84-72.14Z" transform="translate(-642.22 149.2)"/><path class="cls-2" d="M707.3-71.55a.76.76,0,0,1-.34-.66,4.36,4.36,0,0,1,.1-.86c0-.08.07-.51.16-1.3s.17-1.94.23-3.47.12-3,.12-4.31,0-2.24-.07-3c0-.11,0-.38,0-.82s0-.83,0-1.18a1.13,1.13,0,0,1,.24-.75.88.88,0,0,1,.71-.28l.93,0c.84,0,1.64,0,2.38,0a38.52,38.52,0,0,0,4.36-.2l.61,0a.49.49,0,0,1,.44.27,1.44,1.44,0,0,1,.17.75,1.82,1.82,0,0,1-.17.69,2.92,2.92,0,0,1-.43.72,1.74,1.74,0,0,1-.59.48c-.61.28-2.37.43-5.27.46q0,3.55,0,6.71c0,1.16-.06,2.29-.14,3.39a16.81,16.81,0,0,1-.28,2.34,1.24,1.24,0,0,1-.38.59,2.63,2.63,0,0,1-.81.48,2.85,2.85,0,0,1-1,.18A1.47,1.47,0,0,1,707.3-71.55Z" transform="translate(-642.22 149.2)"/><path class="cls-2" d="M716.17-71.81a2,2,0,0,1-.79-.46,1.05,1.05,0,0,1-.3-.75,3.83,3.83,0,0,1,.23-1c.34-1.08.78-2.32,1.31-3.72s1.07-2.76,1.63-4.07q.93-2.2,1.8-3.9a14.06,14.06,0,0,1,1.23-2.1,3.18,3.18,0,0,1,2-.71,1.26,1.26,0,0,1,.68.16,1.4,1.4,0,0,1,.42.6q.68,1.65,1.26,3.36t1.26,4l.35,1.13a1.73,1.73,0,0,0,.37,0l.37,0a.35.35,0,0,1,.29.14.78.78,0,0,1,.13.52,2.48,2.48,0,0,1-.09.65,1.42,1.42,0,0,1-.3.57l-.17.2c.3,1.17.55,2.24.75,3.2q0,.18.12.42a2,2,0,0,1,.07.34,1.17,1.17,0,0,1-.39.87,2.87,2.87,0,0,1-.93.6,2.74,2.74,0,0,1-1,.22.42.42,0,0,1-.37-.22,2.6,2.6,0,0,1-.28-.76c0-.11-.09-.34-.16-.68-.36-1.41-.64-2.45-.84-3.14a54,54,0,0,1-5.46.22q-.3.8-.66,2c-.25.78-.44,1.42-.58,1.92a1.12,1.12,0,0,1-.32.55.89.89,0,0,1-.61.21A3.09,3.09,0,0,1,716.17-71.81ZM722.28-79l1.7-.09q-.65-2.48-1.58-5.19c-.44.91-1,2.3-1.66,4.16L720.3-79Z" transform="translate(-642.22 149.2)"/><path class="cls-2" d="M731.56-77.18a3,3,0,0,0-.48,0l-.42,0c-.23,0-.41-.16-.54-.47a2.81,2.81,0,0,1-.19-1.1,2.78,2.78,0,0,1,.2-1.13.63.63,0,0,1,.57-.46l.45,0c.5,0,1,0,1.55,0l.56,0a3.3,3.3,0,0,1,.51,0,.47.47,0,0,1,.43.3,1.53,1.53,0,0,1,.16.76,3.59,3.59,0,0,1-.17,1.18,1.25,1.25,0,0,1-.49.68,3.13,3.13,0,0,1-1.45.24Z" transform="translate(-642.22 149.2)"/><path class="cls-2" d="M736.76-72.36a2.29,2.29,0,0,1-.91-.89,2.37,2.37,0,0,1-.3-1.14c0-.7.26-1,.79-1a1.66,1.66,0,0,1,.5.08l.62.19L738-75a8.45,8.45,0,0,0,.84.19,4.59,4.59,0,0,0,.81.07,3.2,3.2,0,0,0,2.11-.61,2.22,2.22,0,0,0,.74-1.81,1.86,1.86,0,0,0-.28-1,1.72,1.72,0,0,0-.72-.62,2.19,2.19,0,0,0-.94-.21,4.59,4.59,0,0,0-1.19.19,3,3,0,0,1-.51.1,1,1,0,0,1-.93-.52,2.45,2.45,0,0,1-.3-1.22,1.05,1.05,0,0,1,.22-.72,1.42,1.42,0,0,1,.54-.39,9.84,9.84,0,0,1,1.05-.33,4.34,4.34,0,0,0,1.88-1,2.19,2.19,0,0,0,.69-1.63,1,1,0,0,0-.26-.72.85.85,0,0,0-.63-.25,3.67,3.67,0,0,0-1.12.17c-.37.11-.77.26-1.21.44l-.5.22a4.25,4.25,0,0,1-.56.22,1.5,1.5,0,0,1-.45.07c-.38,0-.56-.25-.56-.76a2.63,2.63,0,0,1,.28-1.15,2.65,2.65,0,0,1,.77-1,4.68,4.68,0,0,1,1.6-.87,6.27,6.27,0,0,1,2-.33,3.92,3.92,0,0,1,2.09.54,3.44,3.44,0,0,1,1.31,1.42,4,4,0,0,1,.45,1.84,4.27,4.27,0,0,1-.55,2.15A3.88,3.88,0,0,1,742.91-81a3.68,3.68,0,0,1,2.34,1.41,4.19,4.19,0,0,1,.65,2.29,5.57,5.57,0,0,1-.7,2.66,5.56,5.56,0,0,1-2.09,2.14,6.48,6.48,0,0,1-3.37.83A5.85,5.85,0,0,1,736.76-72.36Z" transform="translate(-642.22 149.2)"/><path class="cls-2" d="M663.78-97.84a.65.65,0,0,1-.3-.5,2.93,2.93,0,0,1,0-.45c0-.19.06-.4.08-.62.24-1.61.44-3.36.61-5.25s.25-4.17.25-6.82c0-2.5,0-4.31-.08-5.45,0-.22,0-.42,0-.6s-.05-.34-.06-.47a6.22,6.22,0,0,1-.09-.94,1.15,1.15,0,0,1,.37-.9,1.45,1.45,0,0,1,1-.33l.87,0c1.44.11,3,.17,4.61.17s2.79,0,3.57-.12,1.26-.12,1.4-.12a.7.7,0,0,1,.64.44,2.07,2.07,0,0,1,.22,1,3.45,3.45,0,0,1-.41,1.72,2,2,0,0,1-1.14,1,12.44,12.44,0,0,1-2.61.29c-1.29,0-2.69.08-4.19.08l-.09,4.45a6,6,0,0,1,1.13-.27,10.08,10.08,0,0,1,1.69-.13,7.31,7.31,0,0,1,3.66.83,5.53,5.53,0,0,1,2.23,2.27,6.92,6.92,0,0,1,.75,3.25,8.34,8.34,0,0,1-.94,4A6.45,6.45,0,0,1,674-98.61a11.32,11.32,0,0,1-5,1c-.38,0-.73,0-1.06,0s-.73-.07-1.21-.14l-.82.12a14.17,14.17,0,0,1-1.6.08A1,1,0,0,1,663.78-97.84Zm8.91-4.45a3.74,3.74,0,0,0,1.14-2.87,3.64,3.64,0,0,0-.24-1.41,1.87,1.87,0,0,0-1-.92,5.66,5.66,0,0,0-2.24-.35,12.36,12.36,0,0,0-2.06.17,56.09,56.09,0,0,1-.69,6.35c.68.07,1.19.1,1.55.1A5,5,0,0,0,672.69-102.29Z" transform="translate(-642.22 149.2)"/><path class="cls-2" d="M695.2-117.82a8,8,0,0,1,2.06,3.28,12.62,12.62,0,0,1,.72,4.26,18.69,18.69,0,0,1-1.09,6.49A10.93,10.93,0,0,1,693.63-99a7.93,7.93,0,0,1-5.19,1.79A7.23,7.23,0,0,1,684-98.71a9.77,9.77,0,0,1-3-3.83,11.76,11.76,0,0,1-1.07-4.9,17.47,17.47,0,0,1,1.07-6.2A12.91,12.91,0,0,1,684-118.4a9.24,9.24,0,0,1,2.36-1.66,5.73,5.73,0,0,1,2.48-.58,1.32,1.32,0,0,1,1.08.52,2.29,2.29,0,0,1,.48,1.32,5.28,5.28,0,0,1,1.68-.27A4.43,4.43,0,0,1,695.2-117.82ZM691.32-103a9.17,9.17,0,0,0,1.95-3.63,15.56,15.56,0,0,0,.64-4.43,8.18,8.18,0,0,0-.4-3,1.47,1.47,0,0,0-1.48-1,3.37,3.37,0,0,0-1.19.17,8.52,8.52,0,0,0-1,.46.7.7,0,0,1-.33.17c-.28,0-.56-.21-.83-.63a3.91,3.91,0,0,1-.57-1.37,10.07,10.07,0,0,0-1.35,1.27,10,10,0,0,0-2.05,3.42,13,13,0,0,0-.64,4.26,8.18,8.18,0,0,0,.51,3,4.19,4.19,0,0,0,1.46,2,3.71,3.71,0,0,0,2.22.69A4,4,0,0,0,691.32-103Z" transform="translate(-642.22 149.2)"/><path class="cls-2" d="M701.08-97.24a1,1,0,0,1-.43-.9,7.22,7.22,0,0,1,.12-1.17q0-.16.21-1.77c.11-1.07.21-2.66.29-4.75s.15-4.12.15-5.88,0-3.06-.09-4.15c0-.16,0-.53-.06-1.12s-.06-1.13-.06-1.62a1.58,1.58,0,0,1,.32-1,1.1,1.1,0,0,1,.91-.39c.46,0,.86,0,1.2,0,1.08,0,2.09.06,3.05.06a49.45,49.45,0,0,0,5.6-.26l.78-.07a.62.62,0,0,1,.56.37,2.08,2.08,0,0,1,.21,1,2.64,2.64,0,0,1-.21.94,4,4,0,0,1-.55,1,2.19,2.19,0,0,1-.76.65q-1.17.57-6.77.63,0,4.86-.06,9.16c0,1.59-.08,3.13-.18,4.63a26.41,26.41,0,0,1-.35,3.2,1.73,1.73,0,0,1-.5.8,3,3,0,0,1-1,.65,3.4,3.4,0,0,1-1.29.25A1.81,1.81,0,0,1,701.08-97.24Z" transform="translate(-642.22 149.2)"/><path class="cls-2" d="M712.47-97.59a2.51,2.51,0,0,1-1-.64,1.41,1.41,0,0,1-.39-1,5.8,5.8,0,0,1,.3-1.43c.44-1.47,1-3.17,1.68-5.08s1.37-3.77,2.09-5.55q1.2-3,2.32-5.34A18,18,0,0,1,719-119.5a3.93,3.93,0,0,1,2.57-1,1.51,1.51,0,0,1,.87.21,1.88,1.88,0,0,1,.54.82c.58,1.5,1.12,3,1.62,4.58s1,3.37,1.61,5.42l.45,1.54a3,3,0,0,0,.48,0,2.17,2.17,0,0,1,.48,0,.45.45,0,0,1,.37.2,1.1,1.1,0,0,1,.17.7,3.39,3.39,0,0,1-.12.88,2.09,2.09,0,0,1-.39.79l-.21.27q.57,2.4,1,4.38l.15.56a2.22,2.22,0,0,1,.09.47,1.68,1.68,0,0,1-.5,1.19,3.47,3.47,0,0,1-1.19.82,3.44,3.44,0,0,1-1.34.3.54.54,0,0,1-.47-.3,4.13,4.13,0,0,1-.36-1c0-.15-.11-.47-.21-.93-.46-1.92-.82-3.35-1.08-4.28a66.33,66.33,0,0,1-7,.3c-.26.71-.55,1.6-.86,2.66s-.55,1.93-.73,2.62a1.54,1.54,0,0,1-.42.75,1.09,1.09,0,0,1-.78.29A4,4,0,0,1,712.47-97.59Zm7.84-9.9c.92,0,1.64-.07,2.18-.11-.56-2.25-1.23-4.62-2-7.09q-.84,1.88-2.13,5.68l-.57,1.57C718.54-107.44,719.39-107.45,720.31-107.49Z" transform="translate(-642.22 149.2)"/><path class="cls-2" d="M734.7-97.89a2.57,2.57,0,0,1-.78-1.49,8.91,8.91,0,0,1-.16-1.42c0-.59,0-1.48,0-2.66s0-2.42.1-4.13.13-3.13.19-4.29.11-2.07.15-2.74l.06-.87-1.1-.07-1.23-.07q-.69,0-1.47,0a2.09,2.09,0,0,1-1.3-.42,2.52,2.52,0,0,1-.82-1.08,3.84,3.84,0,0,1-.27-1.44,1.71,1.71,0,0,1,.4-1.25,1.32,1.32,0,0,1,1-.42,6.41,6.41,0,0,1,.68.06l.72.1c1.16.14,2.5.24,4,.32s2.95.12,4.31.12c1.06,0,2.17,0,3.32-.13l.78,0a1.12,1.12,0,0,1,.75.29,1.06,1.06,0,0,1,.33.85,3.6,3.6,0,0,1-.23,1.15,4,4,0,0,1-.56,1.14,1.45,1.45,0,0,1-.65.58,7.17,7.17,0,0,1-1.82.3c-.84.07-1.8.1-2.88.1q-.27,5.36-.27,8.5a81.59,81.59,0,0,0,.3,8.29.92.92,0,0,1-.22.58,1.68,1.68,0,0,1-.6.47,1.93,1.93,0,0,1-.85.18A2.82,2.82,0,0,1,734.7-97.89Z" transform="translate(-642.22 149.2)"/></svg>