<svg id="вектор" xmlns="http://www.w3.org/2000/svg" viewBox="0 0 244.24 485.32"><defs><style>.cls-1{fill:#72a02e;}.cls-2{fill:#fbba00;}.cls-3{fill:#3f9961;}</style></defs><title>our-ideas-plant-0</title><path class="cls-1" d="M369.73-88.92c3.34-7,3.91-14.89,7.43-21.8.45-.88.7-1.86,1.07-2.79,1.62-4,4.87-4.91,8.44-2.19,5.28,4,9.57,9,13.9,14a55.75,55.75,0,0,1,8.07,12.83c.49,3.7,1.87,7.18,2.44,10.88,1.16,7.61,2.39,15.24,5.17,22.48,1.52,4,3.21,7.85,7.17,10.16a3.79,3.79,0,0,0,4.78-.29c3.14-2.48,4.26-6,5.3-9.62,1.22-4.27,1.08-8.72.95-13-.23-7.13-1.16-14.32-4.79-20.77-1.33-5.57-4.88-10-7.57-14.9-6-11-11.34-22.23-11-35.19.18-7.27,1.13-14.4,4.08-21.15,1.39-3.19,4.26-5.46,7.78-4.2,5.11,1.83,10.61,2.59,15.36,5.56,7.75,4.84,11.87,12.17,14.71,20.48,1,2.88,2.35,5.53,5,7.22,2.33,1.46,3.88,1.54,4.91-1.76,2.45-7.84,5.41-15.53,8-23.34,3.32-10.11,10.32-17.83,16.74-25.91,1.33-1.68,3.53-2.74,5.45-3.87s3.27.22,4.28,1.75c6.05,9.25,10.16,19.24,10.39,30.39a79.13,79.13,0,0,1-10,40.55c-2.05,3.7-3.83,7.57-5.53,11.44-.42,1-1.62,2.41-.09,3.33,1.18.7,2-.64,2.78-1.32a125,125,0,0,1,13.77-11c8.85-5.82,18.8-8.49,29.17-9.62,4.52-.49,4.89.35,3.49,4.53-3,9.08-7.92,17.18-13.27,25-.41.6-1.08,1.08-1,1.95A19,19,0,0,0,525-87a125.83,125.83,0,0,1-27.64,26.09c-8.75,6.19-16.87,12.9-21.94,22.6-1.68,3.21-3.65,6.58-1.34,10.18a11,11,0,0,0,10.51,5.21c6.06-.32,11.8-2.06,17.45-3.92,13.46-4.43,27-5.4,40.83-2.1,3.24.77,6.63,1.36,9.12,4,1.26,1.32,1.78,2.41.44,4.18C543.92-9.52,533.88.51,522.31,8.09c-20.66,13.54-43.52,21.62-68.66,23.12-13.38.79-26.22,4.75-36.71,14-3,2.64-3.13,5.13-.19,7.78a8.53,8.53,0,0,0,5.88,2c7.68.13,15-2.08,22.44-3.52,11.26-2.17,22.48-4.71,34-2.41,6,1.18,12.06,2.06,17.54,4.94,2.36,1.24,4.56,2.71,1.16,5.46-1,.79-1.39,2.34-1.95,3.58-5.54,12.24-12.57,23.11-24.55,30.27-7.64,4.57-15.15,9.09-23.89,11.26-12.57,3.13-25.12,6.28-37.8,8.91a233.08,233.08,0,0,0-29.4,8.32c0-3.12,0-6.24,0-9.36a7.67,7.67,0,0,0-2.51-6c-4.11-3.64-12.39-3.42-16.63.27a28.7,28.7,0,0,0-7.39,10.22c-.72,1.64-1.72,2.38-2.71.27-1.92-4.08-5.57-6.15-9.43-7.48-9.25-3.19-13-2-15.65,5.58a16,16,0,0,0,1.6,14.06,45.58,45.58,0,0,0,7.3,9c2.07,1.91,3.88,4.24,3.93,7,.24,11.94,1.13,23.93-1.94,35.69-.21.8,0,2-1.12,2.11s-1.36-.94-1.78-1.67a49.54,49.54,0,0,1-6.88-23,38.06,38.06,0,0,0-1.26-9.57c-2.09-6.84-8.14-8.92-16.82-6.12V-54.47c2.75-3.18,5.36-6.5,8.28-9.51,4.19-4.32,6.51-4.29,11.32-.74,9.52,7,14.75,17,19.27,27.55A37.31,37.31,0,0,1,351-26.51a255.54,255.54,0,0,0,3.79,25.43c1.57,7.25,4.64,14,11.69,18,2.05,1.14,4.06,1.91,6.22.16,3.36-2.73,6.3-5.82,7.14-10.21a65.42,65.42,0,0,0,.81-19.7c-1.05-9.46-3.82-18.5-6.64-27.53-4-12.9-6.83-25.95-5.14-39.59C369.28-83,369.46-85.95,369.73-88.92Z" transform="translate(-308.95 186.54)"/><path class="cls-2" d="M309,142.78c8.68-2.8,14.73-.72,16.82,6.12a38.06,38.06,0,0,1,1.26,9.57,49.54,49.54,0,0,0,6.88,23c.42.73.71,1.81,1.78,1.67s.91-1.31,1.12-2.11c3.07-11.76,2.18-23.75,1.94-35.69-.05-2.78-1.86-5.11-3.93-7a45.58,45.58,0,0,1-7.3-9,16,16,0,0,1-1.6-14.06c2.63-7.53,6.4-8.77,15.65-5.58,3.86,1.33,7.51,3.4,9.43,7.48,1,2.11,2,1.37,2.71-.27a28.7,28.7,0,0,1,7.39-10.22c4.24-3.69,12.52-3.91,16.63-.27a7.67,7.67,0,0,1,2.51,6c0,3.12,0,6.24,0,9.36l0,0-.65.75a32.26,32.26,0,0,1-.66,3.28c-3.1,9.88-5.57,19.82-3.21,30.27.92,4.1.09,8.41,1.48,12.45-.25,3.32.43,6.52,1.17,10.06,2.15-1.1,4-2.19,5.89-3,7.56-3.15,12-8.87,13.93-16.67l2.11-3.5c2.88-4.75,7.38-6.47,12.42-4.59a54.06,54.06,0,0,1,5,2.43c3.23,4.22,3.18,5.55-.35,9.73-1.52,1.81-3.12,3.57-4.52,5.48-.78,1.07-1.89,2.59-.8,3.73,1.43,1.52,2.44-.4,3.31-1.19,4.19-3.82,8.63-6.69,14.73-5.81,3,.43,5.75,1.35,7.31,3.93s-.08,5-1.6,7.2a24,24,0,0,1-5.69,5.9,31.7,31.7,0,0,0-8.41,9.41,73.77,73.77,0,0,1-21.2,22.43Q388,222.6,375.27,230.82c-1.66,1.07-3.7,2.36-3.88,4.37-.42,4.74-.15,9.53-1,14.56a15.75,15.75,0,0,0,5.31-3.11c12.78-9.4,25.82-18.4,40.65-24.38a62.87,62.87,0,0,0,13.75-7.52,17.74,17.74,0,0,1,6.75-3c7.4-1.64,14.76-3.45,22.13-5.2,7.62-.11,12.65-3.81,16-10.63,2.74-5.54,5.45-11.28,10.53-15.29s11.3-1.63,12.38,4.76a27.37,27.37,0,0,1-.47,11.81c-.72,2.65-.1,4.16,2.84,4.79,3.89.83,7.69,2.06,11.54,3.08,2.81.74,4,2.53,4.19,5.42.35,4.72-2.29,7.29-5.9,9.54-5,3.12-11.05,4.17-15.71,7.77-13.13,10.14-28.21,15.68-44.15,19.35a36.48,36.48,0,0,0-3.77,1.39c6.74,2.1,12.06,5.08,18.51,4.61a126.37,126.37,0,0,0,21-2.89c9.9-2.42,18.19.25,25.78,6.32,3.12,2.49,3.58,5.78,1.84,9.36-2.52,5.16-6.07,8.55-12.21,9.06-4.4.37-4.16.69-2.23,4.85,2.78,6,6,12,2.59,18.85l-19.6,0c-2.44-3.61-4.85-7.24-7.33-10.82a6.25,6.25,0,0,0-4.79-2.56c-3.1-.3-6.21-.42-9.3-.8-8.14-1-16.3-1.73-23.79-5.7-8.09-4.28-20-2.28-26.78,3.9-5.88,5.39-11.9,10.62-17.85,15.93q-28.75.08-57.5.15c-5.85,0-11.7-.08-17.55-.12-.51-1.12-1.46-2.25-1.45-3.37,0-6.34-.82-12.74.31-19,1.22-6.82,3.17-13.52,4.35-20.35.71-4.08,2.52-8.15,1.32-12.4-1.38-4.9-2.84-9.79-4.57-14.58-2-5.59-4.24-11.12-8.29-15.66Z" transform="translate(-308.95 186.54)"/><path class="cls-1" d="M309,213.28c4.05,4.54,6.27,10.07,8.29,15.66,1.73,4.79,3.19,9.68,4.57,14.58,1.2,4.25-.61,8.32-1.32,12.4-1.18,6.83-3.13,13.53-4.35,20.35-1.13,6.27-.27,12.67-.31,19,0,1.12.94,2.25,1.45,3.37l-8.33.13Z" transform="translate(-308.95 186.54)"/><path class="cls-1" d="M417.74,153.27c7-1.12,14.11-2.37,21.1-1.36,10.55,1.52,21.26,2,31.69,4.43a41,41,0,0,0,6.9,1.44c2.8.15,2.58,2.3,1.93,4.45a158.61,158.61,0,0,1-15.1,34.84c-1.83,3.11-3.55,6.28-5.32,9.43-7.37,1.75-14.73,3.56-22.13,5.2a17.74,17.74,0,0,0-6.75,3,62.87,62.87,0,0,1-13.75,7.52c-14.83,6-27.87,15-40.65,24.38a15.75,15.75,0,0,1-5.31,3.11c.89-5,.62-9.82,1-14.56.18-2,2.22-3.3,3.88-4.37q12.75-8.19,25.25-16.74a73.77,73.77,0,0,0,21.2-22.43,31.7,31.7,0,0,1,8.41-9.41,24,24,0,0,0,5.69-5.9c1.52-2.22,3.19-4.57,1.6-7.2s-4.3-3.5-7.31-3.93c-6.1-.88-10.54,2-14.73,5.81-.87.79-1.88,2.71-3.31,1.19-1.09-1.14,0-2.66.8-3.73,1.4-1.91,3-3.67,4.52-5.48C420.92,158.82,421,157.49,417.74,153.27Z" transform="translate(-308.95 186.54)"/><path class="cls-1" d="M377.19,168.53c5.55-2.8,10.82-6.19,16.72-8.27,1.41-.49,2.84-.89,4.27-1.33-2,7.8-6.37,13.52-13.93,16.67-1.93.8-3.74,1.89-5.89,3C377.62,175.05,376.94,171.85,377.19,168.53Z" transform="translate(-308.95 186.54)"/><path class="cls-3" d="M380.23,121.78l-.65.75Z" transform="translate(-308.95 186.54)"/></svg>