<svg id="Слой_1" data-name="Слой 1" xmlns="http://www.w3.org/2000/svg" viewBox="0 0 104.95 163.47"><defs><style>.cls-1{fill:#fdfdfd}</style></defs><path class="cls-1" d="M589.91 737c-6.83.36-13.66.31-20.49 0-.46-5.13-.2-5.48 4.84-5.42 3.74 0 7.44-.12 11.18 0 4.74.08 4.92.63 4.47 5.42z" transform="translate(-512.32 -624.04)"/><path d="M539.65 747.14c-3-2.83-3.93-6.4-3.77-10.37 11.18-.09 61.81-.15 65.69-.1 4.58.06 6.19 1.36 6.22 5.1 0 4-1.61 5.46-6.34 5.46q-30.9 0-61.8-.09zm18.58-105.76c-4.47 1.59-8.78 3.62-13.47 4.54-.91-2.6-1.83-5.19-2.73-7.79-.6-1.72-.81-3.59-3.43-3.64-1.43 0-1.69-1.7-1.87-2.94a2.26 2.26 0 011.76-2.54c4.61-1.62 9.18-3.37 13.84-4.82 2.73-.84 5.33 1.88 3.75 3.94-2 2.65-.66 4.58 0 6.82s1.45 4.29 2.15 6.43z" transform="translate(-512.32 -624.04)" fill="#f9b500"/><path d="M610.75 772.05q-46-.1-92.07 0c-2.87 0-6.19.44-6.23 3.93-.09 8.38-.78 10 2.32 11.25a10.88 10.88 0 002.5.26q22.08 0 44.14-.12c16.35 0 32.69.2 49 .14 6.08 0 6.82-1.69 6.82-6.34.05-8.02-.57-9.11-6.48-9.12zm-20.81-59.23c-1.48-4.65-3.12-9.25-4.71-13.88-5.89-17.18-11.85-34.34-17.66-51.55-2.16-6.41-2.64-7.67-9.34-6l-13.47 4.54c-5.88 2.22-5.68 4.16-3.84 9.59 1.4 4.15 2.32 8.55 4.3 12.39 2.16 4.19.12 5.85-2.79 8.16-16.66 13.18-25.95 30.46-27.66 51.65a67.62 67.62 0 007.43 36.74c1 1.9 1.92 2.62 3.92 2.61 11.58-.06 23.16 0 34.73 0 .46 0 1 .1 1.13-.61-.48-1.49-1.82-1.88-3-2.53-9.54-5.13-24.65-17.35-23-38.24 1.41-13.33 7.59-23.89 17.74-33 3.32 9.74 6.46 18.87 9.54 28 1.4 4.16 3.13 5.39 7.31 4.13 5.65-1.7 11.18-3.76 16.72-5.79 2.86-1.11 3.52-3.48 2.65-6.21zm-53.39 44.32a3.89 3.89 0 01-4.08 4.35 3.78 3.78 0 01-4.19-3.7c0-3.34 1.74-4.63 4.25-4.65a3.78 3.78 0 014.02 4zm8.37-65.92a3.88 3.88 0 01-4-4.12c0-2.58 1.51-4.19 4.28-4.24a3.87 3.87 0 014.06 4.1 4 4 0 01-4.34 4.26z" transform="translate(-512.32 -624.04)" fill="#007bc1"/><path class="cls-1" d="M528.28 757.79c0-3.34 1.74-4.63 4.25-4.65a3.78 3.78 0 014 4 3.89 3.89 0 01-4.08 4.35 3.78 3.78 0 01-4.17-3.7zm16.88-74.92a3.85 3.85 0 014.05 4.09 4 4 0 01-4.29 4.26 3.88 3.88 0 01-4-4.12c-.07-2.58 1.46-4.19 4.24-4.23z" transform="translate(-512.32 -624.04)"/></svg>