<svg id="вектор" xmlns="http://www.w3.org/2000/svg" viewBox="0 0 143.95 136.54"><defs><style>.cls-1{fill:#75276b;}.cls-2{fill:#fefefe;}</style></defs><title>our-product-b12</title><path class="cls-1" d="M1002.44,15.16a31.28,31.28,0,0,1-7.11-11.82,28.32,28.32,0,0,0-9.92-13.47c-7.37-5.79-15.81-9.46-24.59-12.49-1.57-.54-3.11-1.19-4.7-1.69a25.57,25.57,0,0,0-13.78-1c-5.72,1.34-11,.1-16.24-2.22a97.11,97.11,0,0,0-14.53,1.24C897.7-22.46,890-12.4,882.31.81a174,174,0,0,0-9.17,17.74c-4.31,9.92-6.36,20.31-4.78,31,1.89,12.84,7,24.71,14.22,35.43,4.56,6.81,11.58,11,19.22,14.2a114.51,114.51,0,0,0,26.06,7.56c9.52,1.46,19.08,3.33,28.78,1.75A55.82,55.82,0,0,0,993,86.59a96.12,96.12,0,0,0,14.68-28.49c2.11-6.34,3.93-12.67,4.1-19.44C1012,29.44,1008.51,21.75,1002.44,15.16Z" transform="translate(-867.83 27.5)"/><path class="cls-2" d="M933.25,55.84c-.12-.83-.41-2.92-3.53-3.38s-4.17,1.34-4.71,3.3a66.53,66.53,0,0,0-1.31,10.55c-.08,2.92.78,3.22,1.35,3.17s1.23-.5,1.19-1.62,0-2.34,0-2.34,0-.46.37-.54l3.69.25s.53-.09.49.62-.16,3.38,1.23,3.59,1.6-.67,1.56-2S933.37,56.68,933.25,55.84Zm-6.68,7.72a53.56,53.56,0,0,1,1.11-7.93,1.9,1.9,0,0,1,2.09-1.46c.61,0,.77,1.17.77,2.09s.13,7.38.13,7.38Z" transform="translate(-867.83 27.5)"/><path class="cls-2" d="M923.39,52.42c-.28-.42-1-.42-1.59-.42s-7.91-.13-8.77-.09-2.42.05-2.17,1.09,4.22,1.21,4.67,1.21.65.12.74.37,0,2.63,0,3.93.2,8.47.28,9.38,0,1.63,1,1.84,1.31-.33,1.72-.88,0-1.33,0-2-.54-11.22-.54-11.22a3,3,0,0,1,.21-1.13c.25-.76,2.74-.5,3.4-.33a1.16,1.16,0,0,0,1.35-.42C923.93,53.33,923.68,52.83,923.39,52.42Z" transform="translate(-867.83 27.5)"/><path class="cls-2" d="M976.49,52c-1.07-.33-1.4,1-1.35,2.88s0,5.92,0,5.92l-4.26-.12s0-3.71-.17-4.3-.57-1.67-1.47-1.62-.9,1.16-.9,1.16.12,9.31.16,10.68,0,2.63,1.23,3.05,1.6.42,1.47-1.25-.16-5.68-.12-5.84.12-.46.9-.38,2.17.17,2.17.17.78,0,.74.67a47.39,47.39,0,0,0,.37,5.42,1.56,1.56,0,0,0,1.27,1.13c.61,0,1.06-.09,1.11-1.13s.2-12.14.12-13.73S977.55,52.31,976.49,52Z" transform="translate(-867.83 27.5)"/><path class="cls-2" d="M966.82,64c0-1.84.25-9.2,0-10.11s-.49-1.69-1.38-1.84c-1.33-.23-1.23.15-1.23.15s0,9.33-.25,11.8-.61,4.29-3.07,4.32-2.46-1.85-2.46-3,.07-9.52.07-10.36,0-1.85-.83-2.38-1.57-.69-1.69,0c0,0-.53,9.36-.25,12s.89,3.69,2.61,4.6,3,1.19,4.09.75a7.24,7.24,0,0,0,2-1c.25-.21.61-.44.83,0s.25,1.19.83,1.32a1.63,1.63,0,0,0,1.39-.63,2.34,2.34,0,0,0,0-2A7.84,7.84,0,0,1,966.82,64Z" transform="translate(-867.83 27.5)"/><path class="cls-2" d="M909.61,64c0-1.84.24-9.2,0-10.11s-.49-1.69-1.39-1.84c-1.33-.23-1.23.15-1.23.15s0,9.33-.24,11.8-.62,4.29-3.07,4.32-2.46-1.85-2.46-3,.06-9.52.06-10.36,0-1.85-.83-2.38-1.57-.69-1.69,0c0,0-.52,9.36-.25,12s.89,3.69,2.62,4.6,3,1.19,4.08.75a7.36,7.36,0,0,0,2-1c.24-.21.61-.44.83,0s.24,1.19.83,1.32a1.61,1.61,0,0,0,1.38-.63,2.31,2.31,0,0,0,0-2A7.86,7.86,0,0,1,909.61,64Z" transform="translate(-867.83 27.5)"/><path class="cls-2" d="M891.17,52.7c-1.53.09-3,.95-3.47,3.78,0,.08-.22,6.78-.16,8.71s.25,2.38,1,3.11a3.69,3.69,0,0,0,3,1.13,3.6,3.6,0,0,0,3.72-1.7c1.38-1.74,1.76-2.42,1.76-3.35a3.13,3.13,0,0,0-1-2.77c-1-.84-.82-1-.8-1.18s1.61-1.23,1.86-2.63a4.56,4.56,0,0,0-.76-3.9C895.23,52.47,892.71,52.6,891.17,52.7Zm3.35,11.39a4.24,4.24,0,0,1-1.37,2.65c-.66.77-1.24,1.42-1.95,1.35s-.78-.74-.85-1.38,0-4.49,0-4.56c0-1.2.58-1.15,1.11-1.18a3.35,3.35,0,0,1,2,.5C894.38,62,894.57,62.93,894.52,64.09Zm-.43-6a3.07,3.07,0,0,1-2.78,1.52c-.69,0-.76-.3-.8-1s-.06-1.34,0-1.84c0-1.86.58-2.59,2.09-2.81a1.83,1.83,0,0,1,2.16,1.68A3,3,0,0,1,894.09,58.14Z" transform="translate(-867.83 27.5)"/><path class="cls-2" d="M952.59,55.1c-.78-2.84-3.64-4.84-6-.54a20.27,20.27,0,0,0-1.7,5.16c-.34-1.89-.69-3.64-1-4.62-.78-2.84-3.64-4.84-6-.54s-2.87,14.1-2.87,14.1c0,.42.29.71,1.19.67a1.81,1.81,0,0,0,1.6-1.5c.08-.63,1-6.22,1.31-8.26S940.35,56,941,56.06s.62.63,1.07,2,1.19,8.18,1.43,9.72a6.81,6.81,0,0,0,.2.91h0a.59.59,0,0,0,.49.6,1,1,0,0,0,.4.07h.3a1.66,1.66,0,0,0,.51-.12c.61-.16.81-.44.84-.74a1.77,1.77,0,0,0,.25-.64c.08-.63,1-6.22,1.31-8.26S949,56,949.68,56.06s.62.63,1.07,2,1.19,8.18,1.43,9.72.54,1.76,1.76,1.51,1-.92.95-1.42S953.37,57.94,952.59,55.1Z" transform="translate(-867.83 27.5)"/><path class="cls-2" d="M986.91,60.05c-1.55-1.25-4.74-.63-4.74-.63s-.33-3.75-.25-5.79a1.16,1.16,0,0,0-2.29-.37c-.53,1.58-.32,5.16-.2,8.41s.78,6.58,2.78,7.87a5,5,0,0,0,5.6,0c1.56-1,1.52-4.12,1.35-5.54A5.45,5.45,0,0,0,986.91,60.05ZM986,68.71c-.24.13-1.14.17-2.2-1.21S982.09,61,982.09,61a4.42,4.42,0,0,1,2.78.88c1.1,1,1.51,3.91,1.51,5.2S986.22,68.59,986,68.71Z" transform="translate(-867.83 27.5)"/><path class="cls-2" d="M993,54.39c-.09-1.71-.26-2.56-1.41-2.92s-1.5,1.12-1.46,3.1,0,6.39,0,6.39l.09,2.43a50.92,50.92,0,0,0,0,5.81,1.66,1.66,0,0,0,1.37,1.22c.66,0,1.15-.09,1.19-1.22S993.09,56.1,993,54.39Z" transform="translate(-867.83 27.5)"/><path class="cls-2" d="M926.55,22.72s-.52,9.39-.24,12,.89,3.71,2.62,4.62,3,1.19,4.1.75a7.36,7.36,0,0,0,2-1c.25-.21.61-.45.83,0s.25,1.2.84,1.32a1.58,1.58,0,0,0,1.38-.62,2.33,2.33,0,0,0,0-2,8,8,0,0,1-.61-3.65c0-1.85.24-9.23,0-10.14s-.49-1.7-1.39-1.85c-1.33-.23-1.23.15-1.23.15s0,9.36-.25,11.84-.62,4.31-3.08,4.34-2.47-1.85-2.47-3,.06-9.54.06-10.39a2.57,2.57,0,0,0-.83-2.39C927.42,22.19,926.68,22,926.55,22.72Z" transform="translate(-867.83 27.5)"/><path class="cls-2" d="M903.71,18.29c.48-2.75.48-4.84-1.48-7.64s-6.88-2.53-9.89-2.35-5.93,1.87-6.8,7.41c0,.16-.44,13.27-.31,17s.48,4.66,1.88,6.08,2.83,2.17,5.79,2.22,4.58.08,7.28-3.33,3.44-4.75,3.44-6.57,0-3.77-2-5.42-1.62-2-1.57-2.3S903.23,21,903.71,18.29ZM896.2,35.78c-1.29,1.5-2.42,2.79-3.82,2.66s-1.52-1.47-1.65-2.71-.05-8.79-.05-8.92c0-2.35,1.14-2.26,2.18-2.31a6.55,6.55,0,0,1,4,1c1.74,1,2.11,2.86,2,5.12S897.44,34.35,896.2,35.78ZM898.05,19a6,6,0,0,1-5.45,3c-1.35,0-1.48-.58-1.57-2s-.1-2.62-.09-3.6c.07-3.64,1.14-5,4.1-5.5a3.61,3.61,0,0,1,4.23,3.29C899.4,15.4,899.7,16.25,898.05,19Z" transform="translate(-867.83 27.5)"/><path class="cls-2" d="M964.76,18.29c.48-2.75.48-4.84-1.48-7.64s-6.89-2.53-9.89-2.35-5.93,1.87-6.8,7.41c0,.16-.44,13.27-.31,17s.48,4.66,1.88,6.08S951,41,954,41.06s4.58.08,7.28-3.33,3.44-4.75,3.44-6.57,0-3.77-2-5.42-1.61-2-1.57-2.3S964.28,21,964.76,18.29Zm-7.51,17.49c-1.29,1.5-2.42,2.79-3.82,2.66s-1.52-1.47-1.66-2.71,0-8.79,0-8.92c0-2.35,1.13-2.26,2.18-2.31a6.55,6.55,0,0,1,4,1c1.74,1,2.11,2.86,2,5.12S958.49,34.35,957.25,35.78ZM959.1,19a6,6,0,0,1-5.45,3c-1.35,0-1.48-.58-1.57-2s-.11-2.62-.09-3.6c.07-3.64,1.14-5,4.1-5.5a3.61,3.61,0,0,1,4.23,3.29C960.45,15.4,960.75,16.25,959.1,19Z" transform="translate(-867.83 27.5)"/><path class="cls-2" d="M908.32,24.37a1,1,0,0,0-.72.9c-.07.76.58.94,1.15,1.19s1,0,1.84-.43,3.75-.4,4.4-.36.87.68.43,1.76-3.89,10.75-3.6,14.64c0,0-.22,1.55,1.66,1.55S915,42.18,915,41.2a34.28,34.28,0,0,1,1.51-6.74,37.42,37.42,0,0,0,2.09-7.64c.07-1.59-.07-3.17-2.09-3.25S909.94,23.61,908.32,24.37Z" transform="translate(-867.83 27.5)"/><path class="cls-2" d="M970.14,25.64s3.72-2.12,4.78-2.76,2.66-.11,2.34,2.44a113.4,113.4,0,0,0-.21,11.7c.11.75,0,1.92,1.38,1.81s2,.43,2,1.17-.21,1.6-2.34,1.49-4.78-.21-6.06.53-2.55-.63-2.23-1.38a3.43,3.43,0,0,1,2.23-2.13c1.28-.32,1.38-3.4,1.28-5.21a24.38,24.38,0,0,1,.63-5.42c.22-1.07-.31-1.07-1.27-.32S968.54,28.2,970.14,25.64Z" transform="translate(-867.83 27.5)"/><path class="cls-2" d="M985,25.54s3.29-.53,4.46.21a3.7,3.7,0,0,1,.75,5.32c-1.7,2.13-5.64,6.81-6.06,8.29s1,1.81,2.55,1.6a52.45,52.45,0,0,1,7.76-.32c.64.21,1.7-1.91-.32-2a28.22,28.22,0,0,0-5.53.11c-.85.21-1.59-.75.11-1.71s5.53-5.42,6-7.44-.43-6.49-4.37-6.7-6.16,1.7-6.16,2.23S985,25.54,985,25.54Z" transform="translate(-867.83 27.5)"/></svg>