<svg id="Слой_1" data-name="Слой 1" xmlns="http://www.w3.org/2000/svg" xmlns:xlink="http://www.w3.org/1999/xlink" viewBox="0 0 414.33 447.1"><defs><clipPath id="clip-path"><path fill="none" d="M0 0h414.33v447.1H0z"/></clipPath></defs><g clip-path="url(#clip-path)" fill="#184382"><path d="M0 47c2.17-2.91 2.93-6.46 4.4-9.69 4.83-10.64 11.13-20 21.07-26.67 3.32-2.21 6.37-4.83 9.61-7.17A23.89 23.89 0 0139.27 1c1.58-.72 3.54-1.59 5-.49s.82 3.29.5 5a69.75 69.75 0 01-7.15 20.79c-4.2 7.51-7.91 15.3-12.9 22.35a6.11 6.11 0 00-1.14 3.46c2.36-1.4 4.76-2.75 7.07-4.23C42 40.58 54.78 36.66 67.61 33c3.13-.89 6.47-.54 9.69 0 3.88.6 5.19 2.82 3.87 6.67-1.6 4.64-5.06 7.93-8.55 11.18C55.3 66.94 34.11 74.24 11.22 77.7a30.91 30.91 0 00-7.33 1.64C4.22 81.15 5.6 82 6.84 83c11.88 9.36 23.92 18.5 35.55 28.15a21 21 0 0014.29 4.91h22.49c1.85 0 2.66-.51 3.5-2.38 10.82-24.12 20.91-48.57 32.79-72.21 3-5.91 6.36-11.62 11.29-16.21a13.69 13.69 0 019.07-3.9c2.62-.1 4.13.8 5 3.42a24.73 24.73 0 01-1.55 19.6c-3.53 6.74-7.31 13.35-11 20-.65 1.19-1.22 2.42-1.93 3.83 2 .61 3-.73 4.13-1.52 8.44-6 16.82-12.13 25.27-18.13a28.12 28.12 0 0112-5.09c5.2-.82 9.22 2.38 9.15 7.68-.08 6.52-2.22 12.21-7.29 16.62a58.8 58.8 0 01-11.07 7.64A263.69 263.69 0 00129 93.91a90.37 90.37 0 01-16.89 9.57c-7.26 3.13-13.37 8.23-20 12.48-.58.37-1.52.76-1.14 1.65.19.43 1 .74 1.51.87a264.66 264.66 0 0028.78 4.84 6.93 6.93 0 003.25-.67c14.43-6 29.56-9.93 44.29-15C179 104.11 188 98.1 197 92.4c11-6.93 22.54-8.29 34.79-5 8 2.19 10.06 8.32 5 14.86-6 7.7-14.65 11-23.61 13.57-5.87 1.68-11.87 2.89-17.81 4.36-.63.16-1.58.11-1.66 1.57 9.17 1.29 18.37 2.57 27.56 3.91 6.42.93 12.85 1.86 19.24 3a20 20 0 0110.31 5c4 3.64 3.71 7.92-.64 11a20.49 20.49 0 01-11.65 3.47c-29.66.54-58.78-2.69-87-12.4a114.55 114.55 0 00-28.89-5.82c-13.34-1-26.34-4.25-39.47-6.65-8.32-1.51-16.77-1-25.45.13 2.34 1.51 4.6 3.15 7 4.52 16.28 9.25 32.62 18.37 48.85 27.69 6.17 3.54 12.24 7.28 18.09 11.32 10 6.87 21 10.41 32.77 12.91 20 4.24 39.89 9 60 12.94 11.18 2.18 20.21 8.26 27 17.57a20.05 20.05 0 01-.63 23.73c-1.47 1.8-3.43 2.31-5.54 2.74-8.53 1.72-16.6-.78-24.74-2.6-3.63-.81-7.25-1.68-10.87-2.52-1 1.88.18 3.34.59 4.82 3.17 11.48 7.76 22.6 9.9 34.48.66 3.64 1.56 7.41-.6 10.94-2.86 4.66-7.71 5.95-12.65 3.24-6.33-3.48-10.84-8.75-14.26-15-10.67-19.48-20.3-39.49-30-59.47-3.81-7.87-8.37-15.33-12.82-22.84a9.07 9.07 0 00-2.68-3.07c-9.91-6.18-19.89-12.24-30.21-18.56 0 2.28 1.1 3.72 1.9 5.19 11.14 20.62 20 42.16 25.53 64.94 4 16.27 7.19 32.7 6.33 49.59-.28 5.56-.16 11.31-5.08 15.49-2.88 2.45-5.54 2.8-8.8.75a20.57 20.57 0 01-7.74-9.37c-4.17-9.2-7.28-18.81-11.29-29.24-1.47 6.63-2.85 12.28-4 18-1.29 6.6-4.49 11.75-10.28 15.37-2.86 1.79-5.33 1.68-7.93-.22-3.39-2.47-5.23-5.86-6.39-9.83-3.82-13.16-2.25-26.23.43-39.29 4.72-23 12-45.35 16.43-68.39.94-4.9 1.67-9.84 2.49-14.76a3.82 3.82 0 00-2-4.41Q80.27 145.33 54 130.63c-.18-.1-.48 0-.7 0 0 4.48-.1 8.95 0 13.41.49 17.25-.33 34.48-.9 51.7-.38 11.55 2.23 22.56 4.32 33.7a402.43 402.43 0 015.85 41.88c.55 6.86-.15 13.74-3.19 20.13C57.21 296 54 299 48.69 298.92c-4.17-.08-8.33-3.89-9.9-9-1-3.16-1.67-6.4-2.58-9.95-2.74 3.38-5.16 6.34-7.54 9.32-3.12 3.91-7.63 4.56-12.11 4.92-2.39.19-4.12-1.57-5.41-3.52a19.93 19.93 0 01-3.57-10.14c-.41-8.8.2-17.46 4.43-25.51 5.85-11.13 10.11-23.1 17.43-33.47 3.76-5.33 8.39-9.91 13.08-14.41 2.31-2.21 3.55-4.44 3.45-7.8-.24-8.58-.08-17.16-.08-25.7-5.65 5.87-11.58 12-17.47 18.14a218.43 218.43 0 00-22.64 28.34A82.7 82.7 0 010 227v-47.29c3.7-1.47 7.43-2.86 11.08-4.43 10.78-4.66 22.34-7 33.31-11.05 1.59-.6 2.8-1 2.81-3.23.07-11.72.24-23.43-2-35a8.41 8.41 0 00-3.75-5.66C30 112 18.52 103.58 7 95.26c-2.29-1.66-4.18-3.91-7-4.8zm272.19 369.92c.52 6.26 2.43 12 2.62 18 .05 1.37.26 2.74.25 4.11 0 3.23-.42 6.41-4 7.73-3 1.11-7.15-.58-9.22-3.43-4.71-6.49-6.11-14.17-7.56-21.75a294.07 294.07 0 01-5.42-51.35c0-2.86-.58-5.72-.62-8.59 0-1.94-1.33-2.16-2.62-2.53q-11.18-3.18-22.35-6.32c-2-.57-4.58-.77-3.54-3.93s3.33-1.39 5-.93c18.65 5.16 37.28 10.34 55.88 15.68 8.17 2.35 16.57 2.1 24.89 2.81 13.44 1.14 26.89 2.23 40 5.37 5.23 1.24 10.26 3.2 14.19 7.2 2.84 2.89 4.31 6.28 2.74 10.19s-4.91 5.55-8.9 5.81c-3 .2-6 0-9.46 0 2 2.82 3.71 5.46 5.64 7.93 2.76 3.54 2.32 7.55 1.72 11.49-.4 2.7-2.79 3.6-5.19 4.23a26.35 26.35 0 01-21.82-4.29c-13.26-9.28-26.25-19.18-35.64-32.81a3 3 0 01-.4-.62c-3.39-9.75-11-13.72-20.52-15.36-3.76-.64-7.38-2.07-11.85-3.36 4.56 7.5 8.72 14.22 12.77 21 5.81 9.69 13.38 18 20.18 27 4.55 6 8.1 12.61 11.67 19.2 1.47 2.71 3.15 6.1.69 8.75s-5.89 1.1-8.75-.09a30.57 30.57 0 01-12.85-10.58c-2.56-3.5-5.06-7.05-7.59-10.58m58.71-185.78c1.91-6 3.44-10.92 5.08-15.82a16.55 16.55 0 012-4.39c1.42-2 3-4.42 5.91-3.75 2.72.62 4.34 2.78 4.95 5.57a56.52 56.52 0 011.09 16.76 163.93 163.93 0 01-14.42 55.92c-.38.83-1.13 1.67-.67 3 2.68-.86 4.42-3.15 6.79-4.3 9.44-4.58 14.08-12.9 17.8-22.1 4.73-11.69 9.25-23.47 14.65-34.88 1.93-4.1 4-8.07 7.6-11 2-1.65 4.22-2.81 6.87-1.47s3.17 3.55 3.1 6.27c-.19 7.47-2.74 14.44-4.28 21.63-.91 4.24-.95 4.24 3.3 3 3.84-1.09 7.66-2.34 11.57-3.09s7.87-1.45 10.34 2.81a11.65 11.65 0 01-.45 13.07 25 25 0 01-14.81 10.79c-13.3 3.46-26.35 7.77-39.56 11.48a39.11 39.11 0 00-12.67 6.22c-10.6 7.74-21.4 15.18-32.6 22-1.41.86-2.84 2.53-4.31 0s.73-3 2.09-3.85c5.35-3.46 10.64-7 16.13-10.24 2.62-1.53 3.35-3.24 2.61-6.1-2.58-9.91-5.52-19.72-8.89-29.38a236.89 236.89 0 01-7.06-23.94 37.93 37.93 0 01-.15-16.36c.05-.24.12-.48.19-.72.87-2.85 2.14-5.68 5.32-6.19 2.79-.43 4.75 1.73 6.55 3.69 2.32 2.51 2.8 5.78 3.78 8.85.59 1.84 1.2 3.67 2.13 6.52"/></g></svg>