<svg id="Слой_1" data-name="Слой 1" xmlns="http://www.w3.org/2000/svg" viewBox="0 0 699.2 721.62"><path d="M1868.29 1497.1c-16.59-2.37-32-7.87-45.66-17.79l-2.1 4.74-17.14 45.72c-.79 2.26-1.63 4.51-2.53 6.73l-5.63 15c-.1.27-.21.55-.31.83l-6.17 16.44c13.63 3.62 26.58 8.83 38.42 16.6 2.14 1.4 4.3 2.79 6.45 4.18zm20.3 335.66a114.76 114.76 0 00-45 23c-.67-1-44.51-81.88-48.43-89.77-7.65-15.42.1-32.36 16.56-36.63 11.28-2.92 22.62 2.58 29.09 14.13 4.89 8.83 47.09 87.63 47.78 89.27zM1650.43 1644c-1.38 10.55-2.62 21.12-1.89 31.78.43 6.27 1.25 12.53 1.89 18.79-1 .14-68.24 5.42-80.07 6.91-17.29 2.16-30.95-7-32.42-23.6-1.13-12.81 8.38-26.3 26.32-27.17 12.74-.63 85.19-6.81 86.17-6.71zm249.1 59.29c2.44-12.86 4.71-25.74 4-38.93-.23-4.12-.58-8.25-.87-12.37 1.63.24 77.25 15.7 89.45 18.85 14.37 3.7 21.78 16.86 18.37 31.19-3 12.6-16.06 20.6-29.8 18-11.77-2.2-78.49-16.16-81.15-16.74z" transform="translate(-1426.39 -1315.48)" fill="#fff"/><path d="M1785.67 1409.71c1.65 20.56 8.26 39.17 21.71 55.07 1.81 2.14 3.68 4.23 5.52 6.34l9.73 8.19c14 10.13 29.71 15.65 46.7 17.94l18.11-.48 11.32-2 12.32-4 14.38-7.34 12.25-9.18 5.41-5.43c4.66-5.2 8.56-11 12.57-16.68l8-18.32 4-19.86a103.45 103.45 0 00-8.16-45.85l-1.35-2.7a149.32 149.32 0 00-13.82-20.11l-6.38-6.46-9.86-7.7-17.72-9.33a117.48 117.48 0 00-19.24-5.25 97.45 97.45 0 00-44.28 3.73l-7.41 2.88-17.82 10.4-3.46 2.93a155.72 155.72 0 00-15.59 16.69q-4.76 8.32-9.5 16.65l-5.94 19.07zM2007.34 1893a223.13 223.13 0 00-11.58-20.13l-9.27-11-9.84-9.06-9.16-6.48a171 171 0 00-27.93-12.61l-2-.27-3-.73-6-1c-7-1.26-14-.83-21-1.29l-18.86 2.38a114.76 114.76 0 00-45 23 120.32 120.32 0 00-27.09 37.08q-3.06 10-6.13 20l-2 15c0 1 0 2-.07 3.05a122.7 122.7 0 007.44 41.89l10.59 20.13a1.16 1.16 0 011.22 1.06 189.83 189.83 0 0017.27 18.81l2.74 2.14a140.62 140.62 0 0031 17l9.2 2.52 19.87 2.62 19-.95a112 112 0 0041-15.1l11.55-8.39 8.36-8q4.86-6 9.71-12l10.2-18.19.63-1.91q2.88-9.88 5.75-19.77l1.88-20q-1-10-2.11-20z" transform="translate(-1426.39 -1315.48)" fill="#b3d7ca"/><path d="M1807.57 1789.3c-4.15-7.77-8.54-15.43-12.46-23.32-7.65-15.42.1-32.36 16.56-36.63 11.28-2.92 22.62 2.58 29.09 14.13 4.94 8.84 9.13 18.09 14.7 26.58l12-10.35q3-3.42 6.1-6.85 6.4-9 12.82-18.07c.37-.65.73-1.31 1.09-2l9-20a38.2 38.2 0 013-9.55c2.44-12.86 4.71-25.74 4-38.93-.23-4.12-.58-8.25-.87-12.37q-2-9.59-4-19.17-3.81-10-7.63-20c-1.16-2.37-2.33-4.74-3.49-7.1l-8.22-12.86a157.38 157.38 0 00-31.81-31.06l-15.13-9-4.88-2.17-16.72-6-8.7-1.92c-13.86-3.13-27.85-3.45-41.92-2l-12.65 2.12-19 6-9 4-12 6.9c-15.83 11-29.53 24.12-39.64 40.7-2.5 4.09-4.81 8.3-7.21 12.45q-3.66 10-7.34 19.92-1.44 5.6-2.87 11.18c-1.38 10.55-2.62 21.12-1.89 31.78.43 6.27 1.25 12.53 1.89 18.79q2.52 9.14 5 18.27l9.09 20c1 1.68 2 3.35 3 5l10.91 15 9.14 9.86 10 8.9 10 7a150.12 150.12 0 0040 16.67l18.93 2.85c7 .69 14 .17 21-.13l20-3.21 2.18-1.09c-.64-1.34-1.3-2.86-2.07-4.32zm-237.21-87.83c-17.29 2.16-30.95-7-32.42-23.6-1.13-12.81 8.38-26.3 26.32-27.17 12.77-.62 25.49-2.09 38.24-3.19l-6.93-14.68a106.12 106.12 0 00-29.17-29.91 107.48 107.48 0 00-39-13.83l-19.83-.08-11.65 2a2.45 2.45 0 01-2.39.72 9.3 9.3 0 01-4.72 1.26c-7.18 3.18-14.42 6.27-21.2 10.28a105.46 105.46 0 00-29.12 30.58 100.84 100.84 0 00-12.11 39c.19 6.68-.23 13.39.8 20 .13 1.27.25 2.55.38 3.82a4.78 4.78 0 01.38.61c0 .07-.09.22-.14.33.17.75.33 1.51.5 2.26a112.11 112.11 0 0015 32.94q2.13 2.79 4.28 5.57l15.2 14.35a12.41 12.41 0 014.67 3.16 202.13 202.13 0 0020 9.87c6.65 1.51 13.19 3.48 20 4.26h20l19.93-4.36 20-9.92a8.57 8.57 0 014.1-2.88l15.91-15.07 3.9-5 7.8-13.11a1.16 1.16 0 01.44-.86l1.41-3.19c.44-1 .87-1.91 1.31-2.86l3.75-13.93c-11.9-.38-23.81 1.16-35.64 2.63zm552.52-28.58a160.15 160.15 0 00-7.48-20l-8.07-12.65-6.13-7.26-13.76-12-13.43-7.91-6.45-2.51c-6.54-2.4-13.34-3.87-20.11-5.45l-6.94-.47-1-.07-8-.1h-1l-3 .13c-6.73.55-13.26 2.19-19.82 3.67l-3 1-6.24 2.39a12.39 12.39 0 01-5 2.08 134.91 134.91 0 00-25.67 19.43 165.69 165.69 0 00-14 19.77l-3.55 8.74c1.62.39 3.22.82 4.85 1.16 12.33 2.63 24.77 4.83 37 8 14.37 3.7 21.78 16.86 18.37 31.19-3 12.6-16.06 20.6-29.8 18-11.74-2.21-23.43-4.69-35.14-7.06 2.78 14.78 9.48 27.75 18.34 39.71l3.66 4.19a152.89 152.89 0 0019.21 15.87l1 .6a162.4 162.4 0 0021.06 9.28l18.7 3.37c6.7-.13 13.41.23 20.08-.67l18.77-4.62c23.85-9.83 41.39-26.28 52.21-49.78 7.46-18.92 9.15-38.22 4.34-58.03z" transform="translate(-1426.39 -1315.48)" fill="#007bc1"/></svg>