<svg id="вектор" xmlns="http://www.w3.org/2000/svg" viewBox="0 0 114.01 104.01"><path d="M777.31-117.19a26 26 0 00-5.8-10.33c-2.62-2.89-5.15-5.86-7.75-8.76a4.27 4.27 0 00-1.71-1.4c-7.6-2-13.83-7.25-21.48-9.13-2.82-.69-5.6-1.54-8.4-2.32h-20c-3.47.86-6.91 1.83-10.41 2.55-5.38 1.12-10.09 3.6-14.68 6.52-5.2 3.31-10.4 6.59-14.86 10.89s-6.23 9.71-7.11 15.59c-.13.82-.29 1.63-.44 2.45v14a67.34 67.34 0 004.52 11.6 22.39 22.39 0 012.12 7.64c.6 4.45 2 8.4 5.6 11.81 11.36 10.59 24.85 16.43 39.84 19.39a10 10 0 014.42 1.56h4a27.15 27.15 0 0113.27-3.81c5.94-.32 11.17-1.74 15.26-6.58 1.88-2.22 4.6-3.8 7.12-5.41 5.3-3.38 8.6-8 9.31-14.3a28.08 28.08 0 012.66-8.27c2.74-6.14 3.47-12.79 4.84-19.27a23.81 23.81 0 011-4.86v-3.5c-.83-1.93-.75-4.07-1.32-6.06z" transform="translate(-664.67 149.13)" fill="#71a12e"/><path d="M694.87-103a.68.68 0 01-.35-.53 3.55 3.55 0 01.05-.48 5.86 5.86 0 00.09-.66c.28-1.7.53-3.56.73-5.58s.3-4.43.3-7.25c0-2.65 0-4.58-.11-5.79a6.11 6.11 0 000-.64c0-.19 0-.35-.07-.5a6 6 0 01-.11-1 1.19 1.19 0 01.44-1 1.84 1.84 0 011.19-.36h1q2.55.18 5.46.18c1.89 0 3.3 0 4.24-.13s1.48-.12 1.64-.12a.84.84 0 01.77.46 2.1 2.1 0 01.26 1 3.29 3.29 0 01-.49 1.83 2.34 2.34 0 01-1.35 1 15.85 15.85 0 01-3.09.31c-1.53.05-3.19.08-5 .08l-.11 4.73a8 8 0 011.33-.28 12.86 12.86 0 012-.14 9.59 9.59 0 014.34.88 6.22 6.22 0 012.64 2.42 6.77 6.77 0 01.89 3.45 8.11 8.11 0 01-1.12 4.3 7.33 7.33 0 01-3.44 3.02 14.94 14.94 0 01-5.91 1h-1.26c-.39 0-.86-.07-1.43-.14-.14 0-.47.07-1 .12a16.47 16.47 0 01-1.89.09 1.17 1.17 0 01-.64-.27zm10.57-4.72a3.8 3.8 0 001.35-3.06 3.47 3.47 0 00-.29-1.49 2.14 2.14 0 00-1.2-1 7.38 7.38 0 00-2.66-.37 16.14 16.14 0 00-2.45.18 54.62 54.62 0 01-.81 6.75c.8.07 1.41.1 1.84.1a6.47 6.47 0 004.22-1.1zm11.88 4.52a3.72 3.72 0 01-1.67-2.08 11.53 11.53 0 01-.53-3.92c0-1.33 0-2.68.1-4.06a5.05 5.05 0 01-.33-.73 1.88 1.88 0 01-.13-.72 2.56 2.56 0 01.18-.93 2.48 2.48 0 01.46-.78c.1-1.47.14-2.52.14-3.16 0-1.35 0-2.54-.1-3.56a5 5 0 01-.18-1.42 1.87 1.87 0 01.58-1.58 3 3 0 011.83-.44h3.54c1.84 0 3.46 0 4.87-.11l2.5-.14 1.21-.07a.66.66 0 01.6.32 2.1 2.1 0 01.21 1.1 4.14 4.14 0 01-.37 1.67 1.64 1.64 0 01-1.08 1 10.83 10.83 0 01-2.63.6 37.07 37.07 0 01-4.36.25h-1.88v1.74c0 .55 0 1.58-.07 3.1 2.11 0 4.19-.13 6.24-.32l1.24-.08h1a.91.91 0 01.76.3 1.38 1.38 0 01.23.84 2.4 2.4 0 01-.44 1.47 3.27 3.27 0 01-1.37 1 13.16 13.16 0 01-3.17.78c-1.34.19-2.94.34-4.81.46 0 .74-.07 1.63-.07 2.67a7.84 7.84 0 00.13 1.67 1.29 1.29 0 00.56.85 2.59 2.59 0 001.37.29 16.41 16.41 0 004-.54 17.35 17.35 0 003.53-1.21 6 6 0 00.55-.24 1.62 1.62 0 01.69-.22.67.67 0 01.67.52 3.59 3.59 0 01.18 1.19 3.47 3.47 0 01-.29 1.42 3.34 3.34 0 01-.67 1 6.11 6.11 0 01-2.06 1.25 18 18 0 01-3.58 1 25.57 25.57 0 01-4.61.39 6 6 0 01-2.97-.57zm17.88-.62a4.28 4.28 0 01-1.93-3.79 2.61 2.61 0 01.5-1.68 1.54 1.54 0 011.27-.63 1 1 0 01.92.72 4 4 0 001.81 2.07 5.88 5.88 0 003 .73 5.16 5.16 0 003.51-1 3.33 3.33 0 001.17-2.63 2.75 2.75 0 00-1.22-2.4 6.41 6.41 0 00-3.57-.83 8.12 8.12 0 00-1.84.16 6.11 6.11 0 01-.85.16c-.28 0-.53-.2-.73-.59a2.86 2.86 0 01-.3-1.33 2.06 2.06 0 01.53-1.48 3 3 0 011.6-.76 11.66 11.66 0 003.88-1.35 2.67 2.67 0 001.37-2.38 2.14 2.14 0 00-.61-1.53 2.6 2.6 0 00-2-.64 7.36 7.36 0 00-3.62.89 11.71 11.71 0 01-1.33.69 2.19 2.19 0 01-.76.2.64.64 0 01-.51-.32 1.54 1.54 0 01-.23-.93 3.64 3.64 0 012.26-3.34 11 11 0 015.11-1.17 8.76 8.76 0 013.6.69 5.4 5.4 0 012.36 1.92 5 5 0 01.81 2.79 5.43 5.43 0 01-1 3.34 7.33 7.33 0 01-3.1 2.24 6.26 6.26 0 013.9 1.74 5.49 5.49 0 011.42 4 7 7 0 01-2.73 5.48 10.89 10.89 0 01-7.27 2.31 9.68 9.68 0 01-5.42-1.35zm-46.37 32.31a1.08 1.08 0 01-.52-1 6.62 6.62 0 01.15-1.25c0-.12.1-.74.24-1.88s.26-2.82.36-5.05.18-4.38.18-6.25 0-3.25-.11-4.41c0-.17 0-.56-.07-1.19s-.07-1.2-.07-1.72a1.55 1.55 0 01.37-1.09 1.4 1.4 0 011.08-.41h1.42c1.28.05 2.48.07 3.62.07a65.44 65.44 0 006.63-.28L703-96a.76.76 0 01.67.39 2.05 2.05 0 01.25 1.11 2.48 2.48 0 01-.25 1 4.09 4.09 0 01-.65 1 2.53 2.53 0 01-.91.69c-.92.41-3.59.63-8 .68 0 3.43 0 6.68-.07 9.74q0 2.52-.21 4.92a23.65 23.65 0 01-.43 3.39 1.78 1.78 0 01-.59.86 3.65 3.65 0 01-1.22.69 4.43 4.43 0 01-1.52.27 2.36 2.36 0 01-1.24-.25zm15.78-.23a1 1 0 01-.41-.84 8.57 8.57 0 01.12-1.3c.08-.51.23-1.21.45-2.11q.6-2.6 1.32-5.83c.49-2.16.94-4.29 1.37-6.4q.85-4.19 1-5.15a5.39 5.39 0 00-.32-.62 1.68 1.68 0 01-.24-.63 1.4 1.4 0 01.44-1 3 3 0 011.24-.73 5.68 5.68 0 011.83-.27 1.94 1.94 0 011.2.41 4.12 4.12 0 011 1.34 19.3 19.3 0 011.26 3.09c.43 1.33 1 3.28 1.75 5.86a44.69 44.69 0 001.81 5.62c.12.21.21.32.28.32s.09 0 .13-.09a.36.36 0 000-.13c.31-.64.69-1.54 1.15-2.7s.92-2.33 1.37-3.52c.73-1.91 1.36-3.53 1.88-4.83s1-2.37 1.42-3.2a2.08 2.08 0 01.55-1.24 1.49 1.49 0 011.08-.39 6.62 6.62 0 011.86.28 6 6 0 011.65.73c.45.3.67.6.67.91q.11 3.66.43 7.8c.21 2.76.47 5.07.78 6.95a20 20 0 00.65 3.05 17.53 17.53 0 00.69 1.74 2.44 2.44 0 01.22.47 1.64 1.64 0 01.07.46 1.83 1.83 0 01-.36 1.1 2.41 2.41 0 01-.94.78 2.84 2.84 0 01-1.26.29 2.93 2.93 0 01-1.41-.36 2.3 2.3 0 01-1-1.1 14.07 14.07 0 01-1-4.12q-.39-2.85-.78-7.36l-.25-2.6a.75.75 0 000-.23c0-.06-.06-.08-.11-.08s-.08 0-.11.1a.52.52 0 01-.1.18 17 17 0 00-1.31 3.3l-.29.75q-1 2.77-1.72 4.6a14.16 14.16 0 01-1.65 3 3 3 0 01-2.29 1.44 6.62 6.62 0 01-1.33-.14 5.89 5.89 0 01-1.24-.37c-.34-.16-.53-.3-.58-.45q-.42-1.3-2.06-6.86l-.35-1.31-.53-1.81c-.41-1.4-.65-2.22-.75-2.45a1.44 1.44 0 00-.21-.4 1.37 1.37 0 00-.14.43c-.24 1-.68 3.69-1.31 7.93q-.29 1.92-.66 3.69a11.85 11.85 0 01-.69 2.42 3.34 3.34 0 01-1.3 1.42 4.07 4.07 0 01-2.07.46 1.39 1.39 0 01-.9-.3zm49.26-21.65a8.61 8.61 0 012.45 3.48 12.41 12.41 0 01.85 4.54 18.1 18.1 0 01-1.3 6.89 11.55 11.55 0 01-3.87 5.06 10.07 10.07 0 01-6.15 1.91 9.23 9.23 0 01-5.27-1.57 10.63 10.63 0 01-3.6-4.07 11.31 11.31 0 01-1.27-5.2 16.74 16.74 0 011.27-6.6 13.69 13.69 0 013.66-5.05 11 11 0 012.81-1.76 7.46 7.46 0 012.94-.62 1.62 1.62 0 011.27.55 2.28 2.28 0 01.57 1.4 6.94 6.94 0 012-.28 5.51 5.51 0 013.64 1.32zm-4.59 15.76a9.46 9.46 0 002.3-3.85 15 15 0 00.76-4.71 8 8 0 00-.47-3.17 1.78 1.78 0 00-1.76-1 4.58 4.58 0 00-1.4.18 10.91 10.91 0 00-1.22.5 1 1 0 01-.39.18 1.37 1.37 0 01-1-.68 3.88 3.88 0 01-.67-1.46 12.88 12.88 0 00-1.59 1.35 10.33 10.33 0 00-2.43 3.65 12.43 12.43 0 00-.77 4.53 7.89 7.89 0 00.61 3.23 4.64 4.64 0 001.75 2.05 4.75 4.75 0 002.63.73 5 5 0 003.65-1.53z" transform="translate(-664.67 149.13)" fill="#fff"/></svg>