<svg id="чертеж" xmlns="http://www.w3.org/2000/svg" viewBox="0 0 1116.15 1098.41"><defs><style>.cls-1{fill:#107abb;}.cls-2{fill:#f8b32a;}</style></defs><title>our-ideas-plant-4</title><path class="cls-1" d="M7688.64,5073.06c-1.26-8-2.41-20.57-16.88-15.3-40.41,14.7-81.5,28.89-110.1,61.17l-68.18,10.85-35.86-54.17-1.9-23.91c6.56-12.28,13.64-24.34,19.44-36.92,31.38-68.15,35.77-136.83,1.84-205.56-10.95-22.17-18.92-24.33-42-13.59-45.12,21-72.65,55.74-90.87,97.9-9.59,22.19-17.61,45.21-37.67,62-10.57,8.87-23.11,17.81-36.84,11.84-14.07-6.11-16.53-21-17.05-34.78-.09-2.17,1-4.36,1.3-6.56,4.65-39.54,25.84-72.66,49.38-104.43,40.72-55,51-115.26,41.41-180-2.16-14.52-9.5-18.61-22.69-13.13-39.3,16.32-74.19,37.43-91.86,76.14-8.67,19-18.06,37.71-31.62,54.28-8.1,9.89-18.19,22.18-31.81,17.81s-13.84-19.85-12.63-32.24c3.77-38.69,21.4-71.67,51.53-98.54,17-15.18,33.07-31,46.71-48.8,22.21-29,30.26-61.31,26.69-96.46-1.19-11.67-8.72-17.25-20-17.64-39-1.34-72.78,8.28-94.79,40.85-4.15,6.14-8.49,12.51-15.78,15.82-9.14,4.16-17.43,6.58-17.42-8.09,0-13.32-2.06-26.64-2.7-40-1.76-36.84-12.26-71.05-34.42-102.1-7.58-10.61-14.09-9-23-1.44-14.91,12.59-24.87,28.58-37,43.08l-.12,512.35c31.86,13.59,63.68,27.41,85.86,53.86,5.08,6.07,14.72,12.48,7.92,21.79-7.42,10.16-19,9.12-29.51,5-21.58-8.47-42.74-17.82-64.08-26.81q-.14,75.31-.26,150.62c22.76,11.15,45.2,22.91,68.36,33.3,38.79,17.4,72.69,40.72,102.84,68.92v-.08c30.92,50.06,29,72.89,22.81,83.09-12.46,13.41-31.5,15.83-53.84,5.83a73,73,0,0,1-24.94-18.74c-29.19-33.12-68.56-53.7-108.25-73.8-1.91-1-4.64-.53-7-.75q0,116.74,0,233.48h431c8.22-6,16.67-11.71,24.5-17.74,20.1-15.45,40.65-30.46,60.46-46.22,20.19-16.06,39.22-33.42,54.88-53.39,25.79-32.88,45.48-70.64,76-100.17,12.06-39.68,14.33-78.76,13.3-109.19l1,0C7695.43,5125.93,7692.79,5099.41,7688.64,5073.06Z" transform="translate(-7033.66 -4382.08)"/><path class="cls-2" d="M7327.92,5184.68c1.21-8.54,2-17.17,3.7-25.61,7.76-38.18,16.05-43.17,53.3-33.58,20.77,5.34,37.83,15.21,51,33s28.19,34,42.88,50.45c15.09,16.93,27.82,23.68,62.07,34.3-1.63-9.69-8.19-15.47-12.61-22-27.35-40.08-49.86-82.31-59.41-130.43-2.51-12.7-8.44-23.91-14.16-35.22s-10.74-23.18-12.37-35.85c-2.69-20.86,16.37-35.08,35.4-26.88,3.68,1.58,7.33,3.25,11,4.94,10.25,4.76,20.69,13.69,30.67,13.21,10.35-.51,11.37-16.38,18.16-24.51,20.46-24.52,33.73-27.41,55.22-10.58,5.43,19.11,5.47,38.71-1.36,56.9-14.4,38.4-1.43,68.15,26,94.47,61.24,86.69,90.6,186.48,116.46,289.89,7.53-9.94,12.1-18.6,19-24.54,14.51-12.49,14-26.21,9.69-43.32-9.57-38.21-24.18-75-30.57-114.12-7.41-45.32,7.67-90.58-1.09-136-2.41-12.51-3.47-29.17,12.59-34.52,15.72-5.23,28.22,4.72,38.4,16.21a38.67,38.67,0,0,1,9.75,21.58c1.06,8.84,3.34,17.52,5.4,27.83,9.86-13.13,9.86-13.13,10-30.77.21-30.18,2.18-32.09,32.07-31,29.84,15,35.52,24.23,24.43,55.7-11.62,33-8.65,62.76,10.58,94,37.66-39.29,86.81-67.37,106.84-122.31,5-13.62,13.82-26.05,22.21-38.11,8.92-12.8,19.17-25.06,37.94-19.84,19.95,5.56,33.94,21.52,35.13,41.74.51,8.55-.91,17.36-2.5,25.85-2,10.87-3.09,18.41,12.81,15.24,16.32-3.24,31.82,2,45.74,10.88,19.13,12.26,22.72,28.74,10.58,48.06-12.45,19.82-31.63,29.38-53.94,30.35-26.91,1.17-46.61,12.69-63.16,33.25-20.55,25.53-42.76,49.73-57.91,83.59,28.8-8.17,51.4-20.82,71-39.26,9.77-9.16,19.22-18.88,30.05-26.64,16.09-11.53,37.31-8.91,49.44,4.49s12.8,31.89.85,48c-5.93,8-13.31,14.9-20.06,22.33.89,1.31,1.32,2.75,2.15,3,28.12,9.72,42.43,25.46,39.62,43.72s-35.41,38.23-56.59,45.77c-53.36,19-111.36,23.18-161.7,51.26-113.93.22-227.86.31-341.79.88-9.51,0-13.07-3.31-13.95-12.12-1.61-16-4-31.89-5.52-47.88-4-41.37-25.35-66.64-66-78.11-31.7-8.94-57.43-28.53-82.7-48.31-15.8-12.37-30.88-14.48-47.81-4-9.81,1.63-19.56,3.84-29.43,4.75-15.29,1.41-31.23,3.28-40.26-13.77-8.45-15.95-4.16-37.6,9.84-51.29,8.72-8.52,19.23-14.23,30.36-18.71,8.66-3.49,9.58-8.39,3.82-15C7335.61,5192.05,7331.66,5188.46,7327.92,5184.68Z" transform="translate(-7033.66 -4382.08)"/></svg>