<svg id="чертеж" xmlns="http://www.w3.org/2000/svg" viewBox="0 0 364.31 569.89"><defs><style>.cls-1{fill:#fff}</style></defs><path class="cls-1" d="M3810.77 1521c-.54-3-3-4.3-5.76-4.76-3.74-.62-7.25.56-10.68 1.85-8.8 3.31-16.64 8.37-24.49 13.4-18 11.55-33.64 26.16-50.18 39.59-1.89 1.53-3.33 4.37-6.6 3.28a88.9 88.9 0 0114.06-37.8c12.35-17.95 26.16-34.53 46.22-44.6a31 31 0 0010.92-8.56c1.52-2 2.38-4.11.67-6.38a5.07 5.07 0 00-6.29-1.58 28.59 28.59 0 00-5.25 2.82c-4.2 2.7-8.27 5.61-12.49 8.28-34.88 22-54.39 54-60.44 94.38a14.61 14.61 0 01-7.08 11.14c-17 11.11-35.81 17.41-55.65 20.93-.46.08-1.05-.62-1.82-1.1.39-3.73 2.92-6.54 4.65-9.7 6.72-12.24 14.58-24 18.8-37.41q9.55-30.49 18.6-61.14c1.74-6 3.35-11.07 10.39-13.12 4-1.15 7.46-4.32 10.83-7 16.17-12.92 31.3-26.93 44.16-43.25 16.3-20.7 32.36-41.56 42.58-66.16 1.53-3.67 3.58-7.18 3.95-11.24a4.49 4.49 0 00-1.81-4.37c-2-1.43-3.81-.55-5.49.59-3.21 2.2-4.5 5.76-5.86 9.12-2.62 6.49-5.18 13-9 18.92a385 385 0 01-76.8 87.56c-1.23 1-2.48 2.24-4.92 1.15.91-5.68 1.81-11.55 2.79-17.41 5.36-31.82 13.57-63.15 16.09-95.45 1-13 1.44-25.93-.35-38.88-.55-3.94-1.79-7.46-6.66-6.94-4.37.46-4.8 4.32-4.9 7.57-.15 4.64.76 9.31.56 13.93-1.46 34.69-7 68.85-13.86 102.82-.82 4-1.48 8.34-4.58 11.53-2.29-1.27-2.67-3.28-3.32-5.16-4.6-13.22-4.77-26.88-3.27-40.51 1.29-11.61 1.17-23.28 2.25-34.89a17.78 17.78 0 00-1.21-8.83 4.73 4.73 0 00-4.63-3.19 4.1 4.1 0 00-3.71 2.94c-1.08 3.83-2.44 7.7-2.66 11.62-.94 16.62-3 33.24-2.11 49.88.8 15 3.08 30 10.71 43.25 3.68 6.39 3.82 12.17 1.88 19q-8.76 30.75-19 61a141.56 141.56 0 01-13 28c-1.1 1.84-1.68 4.45-5.13 4.51-12.58-18.64-14.61-39.31-10.91-61 2.36-13.85 7.61-26.89 11.8-40.22 1.08-3.46 1.43-6.74-2.32-8.66-4.28-2.19-6.93.57-9 3.75a21.89 21.89 0 00-2.29 5.5c-2.78 8.89-6 17.69-8.11 26.74-5.66 24-5.18 47.47 6 70.14 2.88 5.81 9.27 11.21 7.36 17.85-1.76 6.1-6.84 11.27-10.57 16.78-.9 1.35-4.39 5.64-5.74 5.75h.22c-3.76 7.47-9.78 13.21-15.29 19.24-8.24 9-68.9 65.42-81 74.57-.43 7.67-.94 15.34.3 23 1.59-1.19 3.22-2.33 4.77-3.58 14.52-11.68 27.48-25.12 41.7-37.11 18.87-15.91 35.91-33.6 52-52.2 6.11-7.06 12.13-13.07 22.31-12.8 2.9.07 5.82-1.21 8.76-1.78 24.88-4.81 47.7-14.09 67.11-30.85 3-2.59 6.27-4.86 9.42-7.27 6.78-5.9 13.86-11.49 20.25-17.78 5.87-5.8 12.22-7.34 20-5.11 11.27 3.24 22.42 2 33.44-1.4a29.27 29.27 0 006.47-2.52c2.81-1.7 4.18-4.38 2.74-7.67-1.32-3-4-3.25-6.8-2.62-2.59.59-5.08 1.59-7.65 2.29-8.19 2.22-18.92 1.92-25.32-.88a145.44 145.44 0 0138.44-23.16 74.42 74.42 0 007.35-3.08c2.1-1.07 3.91-2.88 3.45-5.55z" transform="translate(-3446.53 -1317.13)"/><path class="cls-1" d="M3541 1687.35a8.49 8.49 0 01-1.5.28 161.75 161.75 0 01-9.06-26.79c-.45-.89-.94-1.76-1.32-2.68-3.75-9-3.72-16.63 4.08-24.31 9.78-9.63 16.35-21.7 21.41-34.6 8.11-20.65 12-42.21 14.6-64.09 2.13-18.23.92-36.62 2.21-54.91a27.43 27.43 0 00-.56-6.93 3.73 3.73 0 00-3.38-3.17 3.68 3.68 0 00-3.86 2.54c-1.54 3.74-1.78 7.76-2.26 11.72-2.53 20.83-2.43 41.89-5.94 62.66-4.38 25.91-12.07 50.48-27.25 72.27-1.2 1.72-1.79 4.49-5.65 3.7-1.82-6.17-1.28-12.89-2.06-19.39-3.08-26-.7-51.85 4-77.48 4.87-26.32 15.2-51 23.47-76.31a278.59 278.59 0 008.72-34.84 42.61 42.61 0 00.16-15.92c-.57-3-2.06-6-5.92-5.35-3.34.56-3.57 3.51-3.57 6.26 0 6.33 0 12.61-1.19 18.9a258.65 258.65 0 01-14.4 46.69 324.31 324.31 0 00-14.52 44.6 16.51 16.51 0 01-3.35 7.51c-7.63-14.25-10.5-28.24-7.1-43.17 3.48-15.28 8.57-30.08 14.17-44.71 2.49-6.51 2.12-10.76-1.23-11.4-5.13-1-6.85 3.32-8.38 6.91-6 14.08-12.19 28.12-15 43.33-3.81 21 .15 40.49 11.53 58.32 2.58 4 3.63 7.43 2.63 12-2.38 10.78-3 21.75-3.14 32.77a336.61 336.61 0 0011.68 93.84c3.11 8.68 6.09 17.42 9.4 26 1.14 3 1.12 5.37-.15 7.57 5.28-3.12 9.96-6.65 12.73-11.82zm-28.88 165.93c37.51-12.5 72.94-29 104.44-53.36 17.92-13.83 35.79-27.76 55.14-39.64a158.43 158.43 0 0136.15-16.74c7.68-2.39 10.91-1.71 12.15 2.12 1.33 4.14-.84 7.14-7.79 9.57-26.16 9.12-48.85 24.14-70.41 41.11-5.76 4.53-11.6 9-17.33 13.52-2.24 1.78-4.85 3.3-6.62 7 12.28 2.39 22.9-.12 33-5.4 11-5.72 20.88-13 30.51-20.77 7-5.63 14.37-10.82 21.6-16.16 2.5-1.85 5.48-3.69 7.94-.63 2.25 2.82.77 5.92-1.86 7.84-16.38 12-30.15 27.3-47.7 37.86-10.71 6.44-22 10.87-34.57 12-6.17.56-11.91-.46-17.73-1.83-3.6-.85-7-1.57-10.66.32-24.13 12.6-48.38 25-75.63 34 8.31 5.38 16.37 7.43 24.34 8.8 25.14 4.3 49.06.67 71.25-12.51 6.87-4.08 13.86-8 20.9-11.74a27.42 27.42 0 017.43-2.81c2.48-.5 4.49 1 5.75 3.17 1.51 2.61-.16 4.37-1.86 6a2.91 2.91 0 01-.8.59c-21.62 10.87-41.55 25.55-66.17 29.72s-48.38.81-71.3-8.9c-1.09-7.73-.75-15.41-.17-23.13zm-1.12-89c16.68-2.81 32-8.34 46.51-15.29 4-1.94 5.95-5 6.46-9.3a108.69 108.69 0 015.75-24.22c5.42-15 13.81-27.88 26.54-37.91a313.43 313.43 0 0136.94-25.52c3.21-1.85 6.39-3.65 10.3-3 4.44.76 6.08 4.77 2.9 8-2 2.06-4.85 3.43-7.43 4.92-13.26 7.68-26.18 15.82-38 25.69-14.3 11.94-20.92 28-25.31 45.37-.21.85.25 1.88.41 2.89 3.93.44 6.18-2.38 8.84-4.08 20.22-12.93 39.27-27.46 58.07-42.36 19.61-15.52 39.87-30.09 63.33-39.51 4.65-1.86 9.28-3.78 14.25-4.4 3.53-.44 7 .52 8 4.36 1.16 4.29-2.16 5.76-5.45 6.9-5.66 1.94-11.36 3.79-17 5.82-20.35 7.35-37.61 19.81-54.29 33.16-4.6 3.68-8.84 7.8-14.94 13.22a95.49 95.49 0 0027.09-.67 130.57 130.57 0 0037-11.79c3-1.49 6-2.84 9.07-4.17 2.9-1.27 6.07-2.19 7.61 1.6 1.4 3.43-.82 5.53-3.77 7.06-12.14 6.27-24.39 12.3-37.71 15.7-14.93 3.81-30 6.46-45.35 2.58-5.05-1.28-8.83.7-12.81 3.63-17.16 12.63-34.13 25.55-52.48 36.43-16.47 9.77-34 16.78-53.2 19-1.04-5.12-1.75-8.96-1.33-14.11zm1 34.72a172.56 172.56 0 0126.1-9.68c15.95-4.7 31.63-10 46.3-18 2.63-1.42 5.26-2.89 8.46-2.34 2.09.37 3.92 1.31 4.69 3.25a4.73 4.73 0 01-1.63 5.39 47.93 47.93 0 01-5.65 4 159.44 159.44 0 01-36.74 17.54c-13.88 4.48-27.67 9.24-41.51 13.87q-.02-7.03-.02-14.03zm3-89.77c-10.69 9.39-55.92 33.25-67.95 41.54-.43 7.67-.93 15.34.31 23 1.59-1.2 3.22-2.34 4.77-3.59 13.47-10.84 49-26.13 62.05-37.44 22.63-18.28 4.7-19.35.82-23.51z" transform="translate(-3446.53 -1317.13)"/><path class="cls-1" d="M3470.92 1876.35c24.09-6.12 49.56-9 69.58-19.38-.89-5-10.27-4.46-11.23-9.47-21.8 8.37-71.56 17.18-82.22 20.75-.27 3.67-.49 9.94-.52 13.6 3.47-.25 20.67-5.04 24.39-5.5z" transform="translate(-3446.53 -1317.13)"/><path class="cls-1" d="M3533.53 1869.93c-.92-.27-1.84-.54-2.76-.84-7.6-2.42-15.19-5.52-22.58-11.82-.54 0-1.09.07-1.63.09-3.33.1-.84 5.23-4.16 5-.5 3.63-6.61 1.75-6.59 5.44a132.56 132.56 0 0034.84 14.79c.87-4.23 1.87-8.45 2.88-12.66zm-7.35-108.93c-17.83 5.29-63 9.46-79.24 10.36-.41 5.16-.71 10.31.3 15.44 16.59-1.94 56.65-5 78.5-10.83-.39-4.72.8-10.31.44-14.97zm-11.67 36.74c-14 7.29-26.35 10.87-41.46 15.33a171.1 171.1 0 00-26.1 9.68v14.07c13.83-4.64 27.62-9.39 41.5-13.87 11.1-3.58 23.56-9.91 35.51-13.76-.96-4.1-8.47-7.34-9.45-11.45z" transform="translate(-3446.53 -1317.13)"/></svg>