<svg id="Слой_1" data-name="Слой 1" xmlns="http://www.w3.org/2000/svg" viewBox="0 0 1514.45 1576.85"><path d="M9164.16-2007.5c12.82 0 22.12 9.47 22.3 22.63.12 8.67-13.48 23.56-21.32 23.34-9.76-.28-24.9-15.59-24.61-24.88.34-10.8 11.92-21.13 23.63-21.09zm-360 1232.89c-6.55.16-16.33-8.64-16.52-14.89s9.35-15.21 16.08-15.3c7.23-.09 14 7.08 14.46 15.31.33 5.88-8.01 14.72-14.02 14.88z" transform="translate(-8244.35 2351.46)" fill="#809c35"/><path d="M9312.82-1416.15c5.85.15 12.32 6.38 12.44 12s-7.51 12.54-13.24 12.2c-5.46-.32-12.05-7.16-12.13-12.57-.06-4.69 7.82-11.76 12.93-11.63z" transform="translate(-8244.35 2351.46)" fill="#790a71"/><path d="M9143.65-1156.39c-.09 6.05-6.41 12.35-12.15 12.1-5.53-.23-12.12-7-12.11-12.47 0-5 7.29-12.25 12.37-12.33s11.96 7.27 11.89 12.7zM8268.61-1783c-.09 6-6.41 12.34-12.15 12.1-5.53-.24-12.12-7-12.11-12.47 0-5 7.29-12.25 12.37-12.33s11.96 7.31 11.89 12.7zm1490.2-554.82c-.86 2.67-1.22 5.82-2.78 8.18-2.79 4.22-6.37 4.25-9-.27a20 20 0 01-2-6.8c-1.1-6.5 3.05-15.65 6.76-14.68 6.68 1.77 4.88 8.57 7.02 13.57z" transform="translate(-8244.35 2351.46)" fill="#e8b80e"/></svg>