<svg id="Слой_1" data-name="Слой 1" xmlns="http://www.w3.org/2000/svg" viewBox="0 0 651.41 872.63"><defs><style>.cls-1{fill:#e2e9ce;}.cls-2{fill:#b3d7ca;}.cls-3{fill:#f9b200;}.cls-4{fill:#fff;}.cls-5{fill:#0079c0;}.cls-6{fill:#ffd500;}</style></defs><title>our-ideas-figure-2</title><path class="cls-1" d="M1040.83-302.68c.76-.26,1.65.06,2.2-.44,5.47-5,15.82-6.72,22.71-8.3a144.86,144.86,0,0,1,43.93-3.45c12.62,1,25.29,2.41,37.1,7.71,3,1.36,4.77,4.13,7.42,5.85q0,10.14,0,20.29c-7,.67-13.22,4-20.1,5.1a221.66,221.66,0,0,1-59.45,1.43c-10.51-1.12-21.38-4.88-31.35-7.93C1043.24-289.4,1040.84-295.7,1040.83-302.68Z" transform="translate(-670.69 771.67)"/><path class="cls-2" d="M1154.15-281q0,52.72,0,105.45a16.62,16.62,0,0,0,2.25,8.89q46,79.17,91.83,158.45,14.19,24.51,28.41,49a47.29,47.29,0,0,1,4.56,9.94c3.12,10.15-1.8,19.17-12,22.08-4.39,1.25-8.89,1.28-13.39,1.28l-229.4,0Q982.2,74,938,74c-1,0-2,0-3-.08-16.65-1.07-24.14-14.11-16.1-28.8,7.87-14.39,16.34-28.44,24.54-42.65q30.6-53,61.21-106c12.74-22,24.61-44,37.45-65.88,2-1.5-.83-3.91-.82-5.78,0-31.4,1.34-62.9,1.32-94.3,0-3.81.44-7.74.33-11.56.07-.48,1.26-.34,1.34-.83,10,3.05,19.83,6.27,30.34,7.39a221.66,221.66,0,0,0,59.45-1.43C1140.93-277,1147.2-280.35,1154.15-281Zm-28,171.7c1.67-18.32-15.87-34.19-33.11-33.64-19.9.64-34.3,14-34.23,35.23,0,16.24,14,32.93,34.64,32.54C1110.79-75.52,1127.6-90.61,1126.15-109.32ZM1185.07-4.94c.1-15-13.78-28.89-29.17-29.18-15.93-.3-30.49,13.22-30.52,28.6,0,18.79,12.59,31,30.94,30.83C1172,25.16,1184.74,12.71,1185.07-4.94Z" transform="translate(-670.69 771.67)"/><path class="cls-3" d="M842.11-86c-5.6,30.79-42.22,53.18-72.25,42.43-19-6.8-30.64-20.34-35-40.12-1.7-12.86-.68-25.77-.7-38.65q-.15-87.48.07-174.95c0-8.74,0-8.63,7.86-5.7,11.42,4.23,23.39,5.72,35.43,6.36,19.43,1,38.66-.16,57.16-6.92,5.36-1.95,5.45-2.06,5.42,3.45C839.71-227.72,844.23-158.42,842.11-86Z" transform="translate(-670.69 771.67)"/><path class="cls-4" d="M995.32-424.45h207.29c3.85-1.12,7.3-3,9.61-6.88,8-13.21-2.42-25.77-16.19-25.81-64.32-.2-128.63,0-192.95-.13a23.08,23.08,0,0,0-13.15,3.85c-5.18,3.41-9.8,11.3-6.28,18.46C986.42-429.34,990.38-426.06,995.32-424.45Z" transform="translate(-670.69 771.67)"/><path class="cls-4" d="M1321.84,71.19a67.34,67.34,0,0,0-6.54-18.58c-6.63-12.84-15.12-24.56-22.32-37-9.92-17.22-19.52-34.61-29.39-51.86-12-21-23.83-42.12-36.35-62.82-12.28-20.3-23.72-41.07-35.48-61.65-3.2-5.6-7.79-10.37-7.76-18q.38-95,.16-190h-29.8q-.09,33.76-.17,67.53l0,20.29q0,52.72,0,105.45a16.62,16.62,0,0,0,2.25,8.89q46,79.17,91.83,158.45,14.19,24.51,28.41,49a47.29,47.29,0,0,1,4.56,9.94c3.12,10.15-1.8,19.17-12,22.08-4.39,1.25-8.89,1.28-13.39,1.28l-229.4,0Q982.2,74,938,74c-1,0-2,0-3-.08-16.65-1.07-24.14-14.11-16.1-28.8,7.87-14.39,16.34-28.44,24.54-42.65q30.6-53,61.21-106c12.74-22,25.66-43.83,38.5-65.73.06-4.29.15-8.58.21-12.87V-368.84h-29.29q0,95.59,0,191.19c0,2.48.08,4.9-1.58,7.13a94.44,94.44,0,0,0-5.87,9c-12,20.77-23.89,41.6-35.89,62.37-11.42,19.75-23,39.43-34.39,59.18C924.49-19.47,912.51.92,901.05,21.59c-7.3,13.16-17.3,25-21.32,39.78-3.34,12.29-4.15,24.52,6.16,34.75,3,3,5.79,4.84,10.25,4.82,26.72-.15,53.45,0,80.17,0h162v-.11q82,0,164,0c2,0,4,.51,5.84-.59C1316.21,95.37,1323.57,80.52,1321.84,71.19Z" transform="translate(-670.69 771.67)"/><path class="cls-4" d="M683.94-424.45h207a22.85,22.85,0,0,0,8.54-5.55c5.25-5.27,5.67-12.34,1.45-18.53-5-7.29-12.58-8.62-20.37-8.64-47-.16-94-.08-140.95-.07-17.16,0-34.33-.06-51.49.13-7.83.09-16.14,7.72-17.3,15.3-1,6.51,4.57,13.55,12,16.9C683.18-424.74,683.56-424.59,683.94-424.45Z" transform="translate(-670.69 771.67)"/><path class="cls-4" d="M871-368.84H840c0,76.93.11,221.19.09,270.89,0,4.61.51,9.35-1.79,13.69-5.49,30.16-38.67,49.05-68.13,38.51-18.63-6.66-30.07-19.93-34.32-39.31-2.41-4-1.58-8.39-1.59-12.62-.09-30.48,0-61,0-91.45,0-26.56.19-119.42.22-179.71H703.55v114.09c0,52,.11,104-.07,156-.05,15.35,2.38,30.1,9.93,43.48,13.94,24.71,35.34,39.42,63.3,43.52a77.63,77.63,0,0,0,52.12-10.54c27-16.33,41.74-40.77,42-72.65.42-48.48.15-97,.16-145.45Q871-304.64,871-368.84Z" transform="translate(-670.69 771.67)"/><path class="cls-4" d="M929-567.58a42.34,42.34,0,0,1-42.25,42.28c-22.26.26-42.59-18.48-42.23-42.09.37-24.49,19.14-42.29,42.18-42.44A42.16,42.16,0,0,1,929-567.58Z" transform="translate(-670.69 771.67)"/><path class="cls-4" d="M960.3-670.94c-.85-26.19,22.14-47.65,47.78-47.67a48.4,48.4,0,0,1,48.4,49.13c-.23,24.23-20.87,47.59-48.31,47.42C981.65-622.22,959.28-643.73,960.3-670.94Z" transform="translate(-670.69 771.67)"/><path class="cls-4" d="M771.1-549.39c0,17.27-13.56,29.87-30.19,29.93S711-534.13,711-550c.07-15.08,13.64-29.34,30.18-29.44C756.53-579.54,771.47-565.81,771.1-549.39Z" transform="translate(-670.69 771.67)"/><path class="cls-4" d="M1104.08-564.48c-2-20.32,18.2-38.8,38-38,22.33.88,37.13,17.51,37.7,37.48.6,21.38-16.92,38-38.14,38.42C1121.24-526.21,1102.29-544.51,1104.08-564.48Z" transform="translate(-670.69 771.67)"/><path class="cls-4" d="M1163.05-645.23c-12.8,1-22.87-11.84-23.07-22.46-.23-12.42,10.26-24.11,23.46-23.63A23.45,23.45,0,0,1,1186.3-668C1186.63-655.42,1174.46-644.17,1163.05-645.23Z" transform="translate(-670.69 771.67)"/><path class="cls-4" d="M814.93-730.34c-10.82,1.43-21.91-9.56-21.57-19,.48-13.2,7.71-21.52,19.59-22.32,12.22-.83,21.19,10.06,21.74,20C835.21-742.25,825.85-729.09,814.93-730.34Z" transform="translate(-670.69 771.67)"/><path class="cls-5" d="M1126.15-109.32c1.45,18.71-15.36,33.8-32.7,34.13-20.63.39-34.59-16.3-34.64-32.54-.07-21.22,14.33-34.59,34.23-35.23C1110.28-143.51,1127.82-127.64,1126.15-109.32Z" transform="translate(-670.69 771.67)"/><path class="cls-5" d="M1080.55.16c1.71,21.92-18,39.59-38.3,40-24.18.46-40.52-19.09-40.58-38.12-.08-24.86,16.79-40.52,40.1-41.27C1062-39.9,1082.51-21.3,1080.55.16Z" transform="translate(-670.69 771.67)"/><path class="cls-1" d="M1185.07-4.94c-.33,17.65-13.06,30.1-28.75,30.25-18.35.18-31-12-30.94-30.83,0-15.38,14.59-28.9,30.52-28.6C1171.29-33.83,1185.17-19.94,1185.07-4.94Z" transform="translate(-670.69 771.67)"/><path class="cls-6" d="M839.72-319.34c-.23.19-.48.35-.72.54a.49.49,0,0,0,0-.12c-2.5-6.07-8.61-7.61-13.65-9.41-8.52-3-17.71-4.24-26.77-4.56-15.18-.54-30.39-1.23-45.3,3.46-6.2,1.95-11.91,4.25-16.86,8.42h-.09a13.54,13.54,0,0,1-1.32.66c-.87,5.16-.69,10.37-.58,15.56h0a8.22,8.22,0,0,0,3.76,3.25,41,41,0,0,1,4.77,1.6c11.21,4.15,22.95,5.61,34.77,6.23,19.07,1,37.93-.16,56.09-6.78l1.26-.45c.32-.15.65-.3,1-.47a21.8,21.8,0,0,0,2-1.21c.59-.51,1.16-1,1.75-1.55.09-.12.18-.22.26-.34C839.92-309.45,839.81-314.39,839.72-319.34Z" transform="translate(-670.69 771.67)"/><path class="cls-4" d="M703.56-382.06l.14,51.47h30.88q0-4.12,0-8.25c0-15.62.06-31.23-.12-46.85-.08-7.13-6.45-14.2-13.47-14.78a15.78,15.78,0,0,0-15.82,9.11,23.41,23.41,0,0,0-1.63,7C703.73-384.27,703.56-382.32,703.56-382.06Z" transform="translate(-670.69 771.67)"/><path class="cls-4" d="M840.14-382.06l.13,51.47h30.88v-8.25c0-15.62.06-31.23-.12-46.85-.08-7.13-6.45-14.2-13.47-14.78a15.56,15.56,0,0,0-16.11,9.94,20.68,20.68,0,0,0-1.34,6.2C840.3-384.27,840.14-382.32,840.14-382.06Z" transform="translate(-670.69 771.67)"/><path class="cls-4" d="M1013.8-382.06l.38,54.67,29.15-3.2c0-2.75,0-5.5,0-8.25,0-15.62.22-31.15,0-46.77-.08-7.13-6.3-14.28-13-14.86a14.91,14.91,0,0,0-15.06,9.11,24.17,24.17,0,0,0-1.55,7C1014-384.27,1013.8-382.32,1013.8-382.06Z" transform="translate(-670.69 771.67)"/><path class="cls-4" d="M1154-382.06l.13,51.47h30q0-4.12,0-8.25c0-15.62.06-31.23-.11-46.85-.08-7.13-6.26-14.2-13.07-14.78a15.23,15.23,0,0,0-15.35,9.11,23.61,23.61,0,0,0-1.58,7C1154.19-384.27,1154-382.32,1154-382.06Z" transform="translate(-670.69 771.67)"/></svg>