<svg id="Слой_1" data-name="Слой 1" xmlns="http://www.w3.org/2000/svg" viewBox="0 0 651.41 872.63"><defs><style>.cls-1{fill:#e2e9ce}.cls-4{fill:#fff}</style></defs><path class="cls-1" d="M1040.83-302.68c.76-.26 1.65.06 2.2-.44 5.47-5 15.82-6.72 22.71-8.3a144.86 144.86 0 0143.93-3.45c12.62 1 25.29 2.41 37.1 7.71 3 1.36 4.77 4.13 7.42 5.85v20.29c-7 .67-13.22 4-20.1 5.1a221.66 221.66 0 01-59.45 1.43c-10.51-1.12-21.38-4.88-31.35-7.93-.05-6.98-2.45-13.28-2.46-20.26z" transform="translate(-670.69 771.67)"/><path d="M1154.15-281v105.45a16.62 16.62 0 002.25 8.89q46 79.17 91.83 158.45 14.19 24.51 28.41 49a47.29 47.29 0 014.56 9.94c3.12 10.15-1.8 19.17-12 22.08-4.39 1.25-8.89 1.28-13.39 1.28h-229.4Q982.2 74 938 74c-1 0-2 0-3-.08-16.65-1.07-24.14-14.11-16.1-28.8 7.87-14.39 16.34-28.44 24.54-42.65q30.6-53 61.21-106c12.74-22 24.61-44 37.45-65.88 2-1.5-.83-3.91-.82-5.78 0-31.4 1.34-62.9 1.32-94.3 0-3.81.44-7.74.33-11.56.07-.48 1.26-.34 1.34-.83 10 3.05 19.83 6.27 30.34 7.39a221.66 221.66 0 0059.45-1.43c6.87-1.08 13.14-4.43 20.09-5.08zm-28 171.7c1.67-18.32-15.87-34.19-33.11-33.64-19.9.64-34.3 14-34.23 35.23 0 16.24 14 32.93 34.64 32.54 17.34-.35 34.15-15.44 32.7-34.15zm58.92 104.36c.1-15-13.78-28.89-29.17-29.18-15.93-.3-30.49 13.22-30.52 28.6 0 18.79 12.59 31 30.94 30.83 15.68-.15 28.42-12.6 28.75-30.25z" transform="translate(-670.69 771.67)" fill="#b3d7ca"/><path d="M842.11-86c-5.6 30.79-42.22 53.18-72.25 42.43-19-6.8-30.64-20.34-35-40.12-1.7-12.86-.68-25.77-.7-38.65q-.15-87.48.07-174.95c0-8.74 0-8.63 7.86-5.7 11.42 4.23 23.39 5.72 35.43 6.36 19.43 1 38.66-.16 57.16-6.92 5.36-1.95 5.45-2.06 5.42 3.45-.39 72.38 4.13 141.68 2.01 214.1z" transform="translate(-670.69 771.67)" fill="#f9b200"/><path class="cls-4" d="M995.32-424.45h207.29c3.85-1.12 7.3-3 9.61-6.88 8-13.21-2.42-25.77-16.19-25.81-64.32-.2-128.63 0-192.95-.13a23.08 23.08 0 00-13.15 3.85c-5.18 3.41-9.8 11.3-6.28 18.46 2.77 5.62 6.73 8.9 11.67 10.51zm326.52 495.64a67.34 67.34 0 00-6.54-18.58c-6.63-12.84-15.12-24.56-22.32-37-9.92-17.22-19.52-34.61-29.39-51.86-12-21-23.83-42.12-36.35-62.82-12.28-20.3-23.72-41.07-35.48-61.65-3.2-5.6-7.79-10.37-7.76-18q.38-95 .16-190h-29.8q-.09 33.76-.17 67.53v125.74a16.62 16.62 0 002.25 8.89q46 79.17 91.83 158.45 14.19 24.51 28.41 49a47.29 47.29 0 014.56 9.94c3.12 10.15-1.8 19.17-12 22.08-4.39 1.25-8.89 1.28-13.39 1.28h-229.4Q982.2 74 938 74c-1 0-2 0-3-.08-16.65-1.07-24.14-14.11-16.1-28.8 7.87-14.39 16.34-28.44 24.54-42.65q30.6-53 61.21-106c12.74-22 25.66-43.83 38.5-65.73.06-4.29.15-8.58.21-12.87v-186.71h-29.29v191.19c0 2.48.08 4.9-1.58 7.13a94.44 94.44 0 00-5.87 9c-12 20.77-23.89 41.6-35.89 62.37-11.42 19.75-23 39.43-34.39 59.18-11.85 20.5-23.83 40.89-35.29 61.56-7.3 13.16-17.3 25-21.32 39.78-3.34 12.29-4.15 24.52 6.16 34.75 3 3 5.79 4.84 10.25 4.82 26.72-.15 53.45 0 80.17 0h162v-.11h164c2 0 4 .51 5.84-.59 8.06-4.87 15.42-19.72 13.69-29.05zm-637.9-495.64h207a22.85 22.85 0 008.54-5.55c5.25-5.27 5.67-12.34 1.45-18.53-5-7.29-12.58-8.62-20.37-8.64-47-.16-94-.08-140.95-.07-17.16 0-34.33-.06-51.49.13-7.83.09-16.14 7.72-17.3 15.3-1 6.51 4.57 13.55 12 16.9.36.17.74.32 1.12.46zM871-368.84h-31c0 76.93.11 221.19.09 270.89 0 4.61.51 9.35-1.79 13.69-5.49 30.16-38.67 49.05-68.13 38.51-18.63-6.66-30.07-19.93-34.32-39.31-2.41-4-1.58-8.39-1.59-12.62-.09-30.48 0-61 0-91.45 0-26.56.19-119.42.22-179.71h-30.93v114.09c0 52 .11 104-.07 156-.05 15.35 2.38 30.1 9.93 43.48 13.94 24.71 35.34 39.42 63.3 43.52a77.63 77.63 0 0052.12-10.54c27-16.33 41.74-40.77 42-72.65.42-48.48.15-97 .16-145.45q.01-64.25.01-128.45zm58-198.74a42.34 42.34 0 01-42.25 42.28c-22.26.26-42.59-18.48-42.23-42.09.37-24.49 19.14-42.29 42.18-42.44a42.16 42.16 0 0142.3 42.25zm31.3-103.36c-.85-26.19 22.14-47.65 47.78-47.67a48.4 48.4 0 0148.4 49.13c-.23 24.23-20.87 47.59-48.31 47.42-26.52-.16-48.89-21.67-47.87-48.88zM771.1-549.39c0 17.27-13.56 29.87-30.19 29.93S711-534.13 711-550c.07-15.08 13.64-29.34 30.18-29.44 15.35-.1 30.29 13.63 29.92 30.05zm332.98-15.09c-2-20.32 18.2-38.8 38-38 22.33.88 37.13 17.51 37.7 37.48.6 21.38-16.92 38-38.14 38.42-20.4.37-39.35-17.93-37.56-37.9zm58.97-80.75c-12.8 1-22.87-11.84-23.07-22.46-.23-12.42 10.26-24.11 23.46-23.63A23.45 23.45 0 011186.3-668c.33 12.58-11.84 23.83-23.25 22.77zm-348.12-85.11c-10.82 1.43-21.91-9.56-21.57-19 .48-13.2 7.71-21.52 19.59-22.32 12.22-.83 21.19 10.06 21.74 20 .52 9.41-8.84 22.57-19.76 21.32z" transform="translate(-670.69 771.67)"/><path d="M1126.15-109.32c1.45 18.71-15.36 33.8-32.7 34.13-20.63.39-34.59-16.3-34.64-32.54-.07-21.22 14.33-34.59 34.23-35.23 17.24-.55 34.78 15.32 33.11 33.64zM1080.55.16c1.71 21.92-18 39.59-38.3 40-24.18.46-40.52-19.09-40.58-38.12-.08-24.86 16.79-40.52 40.1-41.27 20.23-.67 40.74 17.93 38.78 39.39z" transform="translate(-670.69 771.67)" fill="#0079c0"/><path class="cls-1" d="M1185.07-4.94c-.33 17.65-13.06 30.1-28.75 30.25-18.35.18-31-12-30.94-30.83 0-15.38 14.59-28.9 30.52-28.6 15.39.29 29.27 14.18 29.17 29.18z" transform="translate(-670.69 771.67)"/><path d="M839.72-319.34c-.23.19-.48.35-.72.54a.49.49 0 000-.12c-2.5-6.07-8.61-7.61-13.65-9.41-8.52-3-17.71-4.24-26.77-4.56-15.18-.54-30.39-1.23-45.3 3.46-6.2 1.95-11.91 4.25-16.86 8.42h-.09a13.54 13.54 0 01-1.32.66c-.87 5.16-.69 10.37-.58 15.56a8.22 8.22 0 003.76 3.25 41 41 0 014.77 1.6c11.21 4.15 22.95 5.61 34.77 6.23 19.07 1 37.93-.16 56.09-6.78l1.26-.45c.32-.15.65-.3 1-.47a21.8 21.8 0 002-1.21c.59-.51 1.16-1 1.75-1.55.09-.12.18-.22.26-.34-.17-4.94-.28-9.88-.37-14.83z" transform="translate(-670.69 771.67)" fill="#ffd500"/><path class="cls-4" d="M703.56-382.06l.14 51.47h30.88v-8.25c0-15.62.06-31.23-.12-46.85-.08-7.13-6.45-14.2-13.47-14.78a15.78 15.78 0 00-15.82 9.11 23.41 23.41 0 00-1.63 7c.19.09.02 2.04.02 2.3zm136.58 0l.13 51.47h30.88v-8.25c0-15.62.06-31.23-.12-46.85-.08-7.13-6.45-14.2-13.47-14.78a15.56 15.56 0 00-16.11 9.94 20.68 20.68 0 00-1.34 6.2c.19.06.03 2.01.03 2.27zm173.66 0l.38 54.67 29.15-3.2v-8.25c0-15.62.22-31.15 0-46.77-.08-7.13-6.3-14.28-13-14.86a14.91 14.91 0 00-15.06 9.11 24.17 24.17 0 00-1.55 7c.28.09.08 2.04.08 2.3zm140.2 0l.13 51.47h30v-8.25c0-15.62.06-31.23-.11-46.85-.08-7.13-6.26-14.2-13.07-14.78a15.23 15.23 0 00-15.35 9.11 23.61 23.61 0 00-1.58 7c.17.09-.02 2.04-.02 2.3z" transform="translate(-670.69 771.67)"/></svg>