<svg id="Слой_1" data-name="Слой 1" xmlns="http://www.w3.org/2000/svg" viewBox="0 0 161.72 415.83"><defs><style>.cls-1{fill:#007abe;}</style></defs><title>our-ideas-plant-2</title><path class="cls-1" d="M8157.1,53.74c-1.11-6.39-.64-13.44-.6-19.91a149.16,149.16,0,0,1,2-21c0-.83,0-1.67.06-2.5.25-5.89,1.47-11.67,2-17.52v-88c0-.74-.09-1.48-.15-2.23-.84,1.14-1.33,1.19-1.6-.39-.86-4.9-1.81-9.78-2.69-14.68-.55-3.06-1.09-6.12-1.54-9.2-.83-5.77-.13-6.66,5.92-7.92q0-48.39,0-96.78c-7.84,2.61-11,9.43-14.07,16.11-3.9,8.42-5.14,17.67-7.53,26.56-.29,1.08-.59,2.15-1.12,4.09-3.31-7-6.3-13.35-9.28-19.7a8.37,8.37,0,0,0-.71-1.73c-4.82-6.16-2.77-11.15,1.4-17.1,13-18.62,22.36-39.19,30-60.55.38-1,.88-2,1.32-3.05,1.68-3.18,4.65-10.12,0-13.68-6.36-4.22-8.8-3.8-14.16,1.82-5,5.2-8.77,11.17-12.47,17.25-.75,1.24-1.34,2.61-3.11,3.2-.28-4.23-.63-8.18-.78-12.14-.16-4.12,0-8.25-.18-12.37s-3.7-8.47-7.29-8.93c-4-.5-6,2.2-7.74,5.32-5.78,10.17-8.57,21.15-9.74,32.7-.67,6.7-2,13.33-3.16,20.73-4.24-5.34-7.94-10-11.66-14.68-4.16-5.21-4.28-5.28-.6-11,5.81-8.95,9.33-18.49,8-29.32-.81-6.54-2.06-13-2.89-19.57a27.64,27.64,0,0,0-4.25-11.46c-2.07-3.26-5.65-4-8.68-1.62-6.1,4.85-10.55,10.82-12,18.77-.83,4.55-.28,9.42-2.85,13.92-2.36-2.16-3.15-5-4.49-7.42a70.39,70.39,0,0,0-25.88-26.46c-5.48-3.31-10.91-2.34-12.09,5.32a20.06,20.06,0,0,0,.1,7c2.29,11.9,8.43,21.74,16,30.87,3.61,4.32,7,8.79,11.23,14-6.5-1.36-11.82-2.51-17.15-3.59-9.21-1.86-18.44-3.18-27.74-.53-3.05.86-5.05,2.65-5.57,5.86a7.1,7.1,0,0,0,3.12,7.13,90.89,90.89,0,0,0,8.16,5.28c11.51,6.79,23.62,11.4,37.32,9.67,6.54-.83,13.05-1.94,19.6-2.7,2.89-.34,6.36-1.72,8.68.39a88.22,88.22,0,0,1,15.72,19c.9,1.44.33,2.14-1.25,2a8,8,0,0,1-2.49-.77A142.1,142.1,0,0,0,8045.36-250c-6.42-.69-13-1.81-18,4.18-3.05,3.64-3.38,6.15.07,9.44s7.16,7,11.86,9c1.16.5,2.54.84,3.22,2.4a37.93,37.93,0,0,1-4.22,2c-7.6,2.48-12.54,7.93-16.35,14.61-2.27,4-.17,7.07,4,9.31,7.27,3.93,13.64,2.54,21.58,2.6,9.83.07,19.56-1.81,29.35-2.7,11.65-1.07,23.35-1.77,34.84-4.08,2.47-.5,3.63-.07,4.62,2.14,3.42,7.63,7.13,15.14,10.43,22.81a104.79,104.79,0,0,1,6.3,18c-1.49-.75-2.53-1.14-3.44-1.73a245.19,245.19,0,0,0-21.24-12.61c-9.41-4.86-19.08-8.62-30-7.49-4.27.44-6.7,2.89-8.54,6.38-1.61,3.08.33,5.09,1.91,7.4,2.85,4.17,6.39,7.75,10.5,11.93-7.23-.5-13.4.51-19.63.69a69.76,69.76,0,0,0-12.95,1.65c-4.9,1.08-9,4.14-10.17,9-1.14,4.6,2.85,7.43,6,10a20.65,20.65,0,0,0,6.5,3.64c15.57,4.94,31.29,9.32,47.82,9.43,13.61.08,27.12-1.24,40.62-2.77,1.68-.19,3.12-.26,3.73,2,4,14.66,5.57,29.69,7.09,44.82-1.66,0-2.48-1-3.46-1.73-14.59-10.56-29.31-20.76-47.19-25.3a15.51,15.51,0,0,0-13.09,2c-2.65,1.69-3.13,3.66-1.28,6.24,1.67,2.31,3.26,4.69,4.89,7l.26-.07.43.62s3.8,6.11-9.74,3.14a21.27,21.27,0,0,0-2.83-.43c-3.38-.56-6.76-1.11-10.05-2-6.38-1.73-11.15.75-15.49,4.92-2.27,2.18-2.41,4.58-.25,6.9a68.9,68.9,0,0,0,8.42,8.23c1.45,1.51,18.93,18.52,68.7,21.75,5.36.42,10.72.84,16.08,1.29,2.93.25,7.95,6.14,8,9.65.18,12.45-.72,24.86-1.51,37.27,0,.88-.14,1.93-1.1,2.17-1.22.31-1.59-.92-2.18-1.67a77.88,77.88,0,0,0-26.63-21.77,108.73,108.73,0,0,0-27-10.82c-26.59-6.61-7.59,18.82-7.59,18.82s5.21,6-11.27,4.48c-2.13-.25-8.19-1-12.07-1.35,0,0,0-.07,0-.11-3.31-.15-6.6-.66-9.9.41-5.78,1.88-7.64,5.84-4.93,11.2a31.89,31.89,0,0,0,6,8.36.22.22,0,0,1,0,.08l.71.6a27.26,27.26,0,0,0,2.17,1.8c1.86,1.48,4,3.11,6.33,4.76,2.86,1.41,5.82,2.67,8.35,4a113.12,113.12,0,0,0,17.43,7.86c12.66,4.12,25.53,5,38.58,7.08,4.71.74,10.44,1.17,14.11,4.59s4.1,8.29,5.27,12.89c2,8,5.35,16.24,10.82,22.58h.34V63.76A36.23,36.23,0,0,1,8157.1,53.74Z" transform="translate(-8001.24 338.46)"/><path class="cls-1" d="M8071.93-21l.25.25c.09-.17.18-.34.28-.51Z" transform="translate(-8001.24 338.46)"/></svg>