<svg id="вектор" xmlns="http://www.w3.org/2000/svg" viewBox="0 0 146.82 130.18"><defs><style>.cls-1{fill:#71a12e;}.cls-2{fill:#fefefe;}</style></defs><title>our-product-vegan</title><path class="cls-1" d="M824.48-87.25A29.91,29.91,0,0,1,831.59-76c1.77,5.21,5.35,9.43,9.91,12.84,7.38,5.52,15.82,9,24.6,11.91,1.57.52,3.11,1.13,4.69,1.61a26.82,26.82,0,0,0,13.79.93c5.72-1.28,11-.1,16.24,2.11a100.65,100.65,0,0,0,14.53-1.18C929.22-51.38,937-61,944.61-73.57a162.47,162.47,0,0,0,9.17-16.91c4.31-9.46,6.35-19.36,4.78-29.51-1.9-12.24-7-23.56-14.22-33.78-4.56-6.49-11.58-10.53-19.23-13.53a118.19,118.19,0,0,0-26.05-7.21c-9.52-1.4-19.09-3.17-28.78-1.67a56.28,56.28,0,0,0-36.34,20.83,90.14,90.14,0,0,0-14.69,27.17c-2.1,6-3.93,12.07-4.1,18.53C814.92-100.86,818.41-93.53,824.48-87.25Z" transform="translate(-812.27 176.75)"/><path class="cls-2" d="M814.46-129.41c3.06-.48,4.81.42,6,3.57,2.24,5.73,4.3,11.54,6.45,17.31,1.13,3,2.15,6.15,4.34,8.66.53.61,1,1.47,2,1.15.83-.26.91-1.11,1.07-1.85,1.19-5.51.9-11.1.8-16.67-.07-4.16-.38-8.32-.42-12.48,0-1.78-.08-4.05,2.35-4.34,2.73-.32,4.46,1.69,4.45,4.54,0,8.91.52,17.81.1,26.72a30.15,30.15,0,0,1-1.51,8.85,6.6,6.6,0,0,1-10.34,3.32c-4.13-2.91-6.39-7.21-8.43-11.6-3.75-8.1-6.36-16.61-8.89-25.14-.48-1.6-.39-1.68,2-2" transform="translate(-812.27 176.75)"/><path class="cls-2" d="M953.67-117.75c.22,1.29.41,3,.83,4.74.59,2.38-.5,3.42-2.68,3.83-2.66.49-4-.23-4.4-2.7a102.86,102.86,0,0,0-3-13.68,34.46,34.46,0,0,0-2.07-5.08c-1.13-2.18-2.62-2.43-4.4-.69-2.51,2.48-2.93,5.72-2.83,9a101.83,101.83,0,0,0,1.47,11.92c.43,2.89-.33,3.87-3.08,4.35-2.48.43-3.95-.56-4.42-3.2-.86-4.84-1.92-9.65-1.51-14.64.8-9.6,7.4-12.89,15.71-13,4.16,0,5.91,3.47,7.21,6.77a51.82,51.82,0,0,1,3.13,12.29" transform="translate(-812.27 176.75)"/><path class="cls-2" d="M901.8-106.7c-.24-1.39-.46-2.8-.72-4.19-1.8-10-6.51-14.2-16.51-14.87-6.6-.44-12.21,4.35-13.35,11.4-1.16,7.21,2.81,13.89,9.13,15.52a28.89,28.89,0,0,0,12.45.09c.82-.14,1.62-.53,1.78.89A10.07,10.07,0,0,1,888.1-87.4c-1.34.49-2.64,1.05-4,1.57a1.77,1.77,0,0,0-1.34,1.63,1.88,1.88,0,0,0,1.33,1.68A5.34,5.34,0,0,0,886-82c6.06.33,15.06-3.55,16.36-11.57a32.84,32.84,0,0,0-.59-13.14m-8.57-3.24c.68,5.62,0,6.41-6.83,7.55-3.55.59-6.57-1.71-7.41-5.75-1-5,.17-9.27,4.12-12.59,2.75-2.31,5.46-1.75,7.4,1.26,1.58,2.45,2,5.28,2.52,7.87l.2,1.66" transform="translate(-812.27 176.75)"/><path class="cls-2" d="M869.66-97.62c-.93-1.09-4.46-1.64-5.77-.93-3.85,2.07-7.31,1.27-9.1-2.09-1.15-2.17-.68-3.2,1.76-3.72.9-.19,1.83-.3,2.73-.47,5.55-1.06,7.51-3.87,6.67-9.44-.38-2.53-1.22-4.66-3.84-5.71-7.14-2.85-13.75.85-15,8.38a18.78,18.78,0,0,0,0,6.48c1.9,12.5,12.54,14.58,21.68,9.58.76-.42,1.83-.9.84-2.08M854-109a13.35,13.35,0,0,1,2.06-6.6c.42-.63.78-1.47,1.6-1.43,1.15,0,1.34,2.58,1.38,2.71.7,4-.54,6.14-3.62,6.61-1.16.17-1.51-.17-1.42-1.29" transform="translate(-812.27 176.75)"/><path class="cls-2" d="M922.05-126.37a7.55,7.55,0,0,0-6.51-4.8c-3.81-.45-7.29.89-10.75,2.16-1.42.52-1.25,1.44-.19,2.22,2.18,1.63,4.57,1.3,7,.6l1.71-.44c2.69-.72,3,1.15,3.49,3,.6,2.16-.61,2.38-2.21,2.56a14,14,0,0,0-6.25,2.46c-4,2.6-5,6.66-2.81,10.76a9,9,0,0,0,9.11,5.06,8.92,8.92,0,0,0,7.9-6.47,23.64,23.64,0,0,0-.47-17.14m-5.39,11a15.88,15.88,0,0,1-2.22,6.34,2.62,2.62,0,0,1-2.51,1.36c-1.15-.15-1.29-1.21-1.5-2.08a5.78,5.78,0,0,1,5.13-7.07c.39-.05,1.35.15,1.1,1.45" transform="translate(-812.27 176.75)"/></svg>