<svg id="Слой_1" data-name="Слой 1" xmlns="http://www.w3.org/2000/svg" xmlns:xlink="http://www.w3.org/1999/xlink" viewBox="0 0 609.94 492.17"><defs><style>.cls-1{fill:#282828;stroke:#282828;}.cls-2{clip-path:url(#clip-path);fill:#282828;}</style><clipPath id="clip-path" transform="translate(0 0)"><rect class="cls-1" width="609.94" height="492.17"/></clipPath></defs><title>telegram-icon</title><g class="cls-2"><path d="M0,223.25c-.13-7.82,3.49-12.54,10.84-15.18q25.83-9.28,51.7-18.49L389.73,72.71Q488,37.63,586.25,2.59c2-.73,4.09-1.44,6.17-2,5.54-1.53,10.27.06,14,4.25a12.78,12.78,0,0,1,2.47,14Q595.62,53,582.31,87.17q-52.23,134-104.49,267.91Q462,395.55,446.28,436c-5.18,13.23-11.87,15.86-24.43,9.54q-57.75-29.07-115.43-58.3c-3.09-1.57-4.83-1.21-7.3,1.08Q245.95,437.6,192.6,486.66c-3.8,3.51-7.94,6.09-13.39,5.4-6.48-.82-10.46-5.15-12.26-13.26q-19.8-89-39.5-177.95a10.74,10.74,0,0,0-6.27-8.09C84,273.67,47,254.37,9.83,235.22c-5.56-2.87-9.45-6.7-9.83-12M424.43,416l140-359.12-.87-.57L227.07,316.37,424.43,416m-376-192.09c2.33,1.34,3.71,2.19,5.15,2.93,26.6,13.78,53.23,27.48,79.76,41.39,3.21,1.68,5.46,1.62,8.58-.24Q286.52,181.78,431.21,95.81q15.84-9.42,31.63-18.9l-.37-.82-414,147.78m351.39-76c-.26-.26-.51-.53-.76-.79-1.27.7-2.57,1.37-3.82,2.12Q277,219.63,158.67,289.9c-4,2.36-4.62,4.55-3.68,8.66,5.76,25.15,11.3,50.35,16.93,75.53q2.29,10.28,4.64,20.54a6.28,6.28,0,0,0,1.74-3.77c2.91-23,5.9-45.92,8.62-68.9.8-6.82,3.23-12.08,8.91-16.44Q279,241.55,362,177.22l37.9-29.3M199.7,441l1.19.51,75.26-69.39L212.54,340c-4.36,34.35-8.6,67.66-12.84,101" transform="translate(0 0)"/></g></svg>