<svg id="Слой_1" data-name="Слой 1" xmlns="http://www.w3.org/2000/svg" xmlns:xlink="http://www.w3.org/1999/xlink" viewBox="0 0 839.7 839.7"><defs><style>.cls-1,.cls-3,.cls-4{fill:#282828;stroke:#282828;}.cls-2{clip-path:url(#clip-path);}.cls-3,.cls-4{stroke:#282828;stroke-miterlimit:10;}.cls-3{stroke-width:21px;}.cls-4{stroke-width:7px;}</style><clipPath id="clip-path" transform="translate(0 0)"><rect class="cls-1" width="839.7" height="839.7"/></clipPath></defs><title>vk-icon</title><g class="cls-2"><path d="M829,198.16c0-24.85.77-50-2.36-74.51-7-54.72-40.78-94.35-95.33-107.95-9.87-2.46-20.08-3.5-30.14-5.2h-530c-1.84.29-3.67.71-5.53.86-34.08,2.84-65.84,12.77-94.2,32.11-38.12,26-60.78,61.2-60.83,108.47q-.27,252.71.06,505.42A131.57,131.57,0,0,0,14.4,687.7c11,45.79,37.57,81.14,75.08,108.6,30.16,22.08,63.83,33.15,101.64,32.89,57-.38,113.93-.31,170.89-.24L362,829H563.9q61.4,0,122.78,0c39.47.05,71.88-15.57,97.34-45.14,31-36,44.79-78.92,44.92-125.84q.64-229.93.07-459.89m-23.8,459.49c-.14,42.31-12.58,81-41.48,113.06-20.55,22.79-46.36,34.62-77.32,34.6q-49.62,0-99.25,0H379.53v0c-65.68,0-131.36.14-197-.14-27.58-.11-52.4-9.85-74.88-25.36-33.31-23-57.6-53-68.59-92.45a126.22,126.22,0,0,1-4.59-33.24c-.28-165.23.09-330.47-.38-495.7-.13-44.32,19.69-76.16,56.26-98.79a165.23,165.23,0,0,1,84.3-24.94c37.15-.84,74.32-.52,111.49-.54q154-.08,308,0c32.06,0,64.12-.34,96.17.09,25.08.33,49.12,5.3,70.26,19.86,25.67,17.67,39.46,42.93,42.66,73.14,2.45,23.13,2.14,46.61,2.17,69.94q.24,230.2-.1,460.42" transform="translate(0 0)"/><path class="cls-3" d="M829,198.16c0-24.85.77-50-2.36-74.51-7-54.72-40.78-94.35-95.33-107.95-9.87-2.46-20.08-3.5-30.14-5.2h-530c-1.84.29-3.67.71-5.53.86-34.08,2.84-65.84,12.77-94.2,32.11-38.12,26-60.78,61.2-60.83,108.47q-.27,252.71.06,505.42A131.57,131.57,0,0,0,14.4,687.7c11,45.79,37.57,81.14,75.08,108.6,30.16,22.08,63.83,33.15,101.64,32.89,57-.38,113.93-.31,170.89-.24L362,829H563.9q61.4,0,122.78,0c39.47.05,71.88-15.57,97.34-45.14,31-36,44.79-78.92,44.92-125.84Q829.59,428.12,829,198.16Zm-23.8,459.49c-.14,42.31-12.58,81-41.48,113.06-20.55,22.79-46.36,34.62-77.32,34.6q-49.62,0-99.25,0H379.53v0c-65.68,0-131.36.14-197-.14-27.58-.11-52.4-9.85-74.88-25.36-33.31-23-57.6-53-68.59-92.45a126.22,126.22,0,0,1-4.59-33.24c-.28-165.23.09-330.47-.38-495.7-.13-44.32,19.69-76.16,56.26-98.79a165.23,165.23,0,0,1,84.3-24.94c37.15-.84,74.32-.52,111.49-.54q154-.08,308,0c32.06,0,64.12-.34,96.17.09,25.08.33,49.12,5.3,70.26,19.86,25.67,17.67,39.46,42.93,42.66,73.14,2.45,23.13,2.14,46.61,2.17,69.94Q805.55,427.43,805.21,657.65Z" transform="translate(0 0)"/><path d="M348,400.05c3.79-18.39,3.38-36.5,2.67-54.64-.32-8.1-.71-16.13-3.36-23.91-.91-2.65-2.34-4.54-4.94-5.44a74.08,74.08,0,0,0-9.07-2.9c-13.69-2.84-17.83-16.54-10.55-27.34,6.52-9.67,15.89-15.33,26.88-18.6S371.8,263,383.09,263c15.64.07,31.28.31,46.9,1,9.33.38,18.58,1.92,27.25,5.71,12.06,5.28,18.33,14.91,20.33,27.61,1.73,10.91,1,21.88.73,32.85q-.68,29.64-1.18,59.28c-.05,2.73.61,5.47.94,8.21l.83.21c2-2.11,4.09-4.11,5.93-6.34a316,316,0,0,0,40.31-63.44c5-10.2,9.46-20.62,13.84-31.08,5.52-13.19,15.73-20,29.47-20.32,29.33-.66,58.67-.61,88-.5a52,52,0,0,1,16.21,2.76c10,3.38,15.05,11,16,21.44.74,8.18-1.71,15.66-5,23C676,340.22,666,355.69,655.06,370.52c-14,18.89-28.21,37.58-42.27,56.39-2.28,3-4.27,6.31-6.4,9.47-1.09,1.61-1.23,3.05.31,4.55,7.62,7.44,15,15.08,22.81,22.35,14.22,13.31,28.35,26.7,40.3,42.13a210.09,210.09,0,0,1,14,20.9c4.2,7,6.21,14.82,4.62,23.07-2.08,10.81-9.2,17.48-18.82,21.88a48.75,48.75,0,0,1-19.9,4.37c-21.63.27-43.28,0-64.88,1-23.51,1.06-42.1-8.74-58.17-24.41-9.68-9.44-18.38-19.87-27.71-29.68-3.57-3.77-7.59-7.12-11.51-10.55-2.74-2.41-4.41-1.37-6,1.33a23.57,23.57,0,0,0-2.84,7.82,103.72,103.72,0,0,0-1.44,14.6c-.28,13.78-9.19,23.92-22.9,25.6a49,49,0,0,1-6.51.48c-18-.11-36,0-53.92-.5q-67.12-2-113.64-50.68c-22.6-23.69-41.63-50.11-59.33-77.54A1084.26,1084.26,0,0,1,154.12,312.6c-2.42-5.06-3.91-10.37-3.19-16,1.53-12,10.13-19.8,23.12-21,3.48-.31,7-.48,10.48-.48q34.2-.08,68.41,0A37.2,37.2,0,0,1,287,298.06a425.65,425.65,0,0,0,49.14,88.47c2.79,3.83,6,7.34,9.08,11a31.53,31.53,0,0,0,2.81,2.57m17.36-103.3c6.87,6.26,9.76,10.42,11.62,18.35a111.91,111.91,0,0,1,2.89,17.69c1.18,16.92,1.72,33.88.56,50.84-.7,10.35-2.08,20.61-5.62,30.4-3.78,10.45-11.33,16.46-22.48,17.68-8.7,1-16-2.45-22.51-7.78-7.29-5.95-13.26-13.14-18.7-20.74A461.68,461.68,0,0,1,260,311c-1.75-4.23-4-5.95-8.93-6-21.64-.11-43.27-.05-64.9,0-.65,0-1.3.08-1.95.13a2.75,2.75,0,0,0,.09.67c3.13,6.34,6.18,12.71,9.41,19,21.69,42.32,45.16,83.59,72.95,122.26,13.73,19.1,28.37,37.44,45.9,53.3,21.23,19.21,46,29.93,74.66,30.93,19.59.69,39.21.45,58.82.66,1.49,0,2.05-.44,2.08-2q.08-4.66.5-9.32c.75-8.49,3-16.51,7.86-23.62,10-14.48,28.13-24,48.71-9.12,7.19,5.18,13.22,11.56,19.22,18,8.24,8.81,16.23,17.87,24.82,26.31,9.93,9.74,21.4,15.34,36.16,14.54,20.88-1.13,41.85-.66,62.77-1.1,3.54-.07,7.06-1.25,11.25-2-2.7-4.46-4.75-8.29-7.21-11.84C641.44,516.19,628,503,614.35,490c-9-8.56-18.44-16.77-27-25.79-11.94-12.6-15.06-27.16-7.36-43.34a104.17,104.17,0,0,1,13.57-20.61c14.21-17.51,28.78-34.75,41.62-53.33,7.21-10.43,14.25-21,19.55-32.55,1.13-2.47,1.82-5.15,3-8.48-3.76,0-6.78,0-9.79,0-25.45.15-50.89.34-76.34.4-3.62,0-4.21,0-5.77,3.93a397.94,397.94,0,0,1-54.09,96c-5.94,7.73-12.52,14.9-20.78,20.28-6.1,4-12.72,5.84-20,4.24-9.41-2.06-15.11-8.51-19-16.77-3.41-7.15-4.57-14.88-4.65-22.69-.13-12.6.06-25.21.28-37.81.27-15.4.76-30.8,1-46.2a40.5,40.5,0,0,0-1.09-7.59,3.68,3.68,0,0,0-3.06-3.12c-3.57-.78-7.1-1.84-10.7-2.3-12.93-1.66-25.92-1.56-38.91-1.06a181.64,181.64,0,0,0-29.42,3.54" transform="translate(0 0)"/><path class="cls-4" d="M348,400.05c3.79-18.39,3.38-36.5,2.67-54.64-.32-8.1-.71-16.13-3.36-23.91-.91-2.65-2.34-4.54-4.94-5.44a74.08,74.08,0,0,0-9.07-2.9c-13.69-2.84-17.83-16.54-10.55-27.34,6.52-9.67,15.89-15.33,26.88-18.6S371.8,263,383.09,263c15.64.07,31.28.31,46.9,1,9.33.38,18.58,1.92,27.25,5.71,12.06,5.28,18.33,14.91,20.33,27.61,1.73,10.91,1,21.88.73,32.85q-.68,29.64-1.18,59.28c-.05,2.73.61,5.47.94,8.21l.83.21c2-2.11,4.09-4.11,5.93-6.34a316,316,0,0,0,40.31-63.44c5-10.2,9.46-20.62,13.84-31.08,5.52-13.19,15.73-20,29.47-20.32,29.33-.66,58.67-.61,88-.5a52,52,0,0,1,16.21,2.76c10,3.38,15.05,11,16,21.44.74,8.18-1.71,15.66-5,23C676,340.22,666,355.69,655.06,370.52c-14,18.89-28.21,37.58-42.27,56.39-2.28,3-4.27,6.31-6.4,9.47-1.09,1.61-1.23,3.05.31,4.55,7.62,7.44,15,15.08,22.81,22.35,14.22,13.31,28.35,26.7,40.3,42.13a210.09,210.09,0,0,1,14,20.9c4.2,7,6.21,14.82,4.62,23.07-2.08,10.81-9.2,17.48-18.82,21.88a48.75,48.75,0,0,1-19.9,4.37c-21.63.27-43.28,0-64.88,1-23.51,1.06-42.1-8.74-58.17-24.41-9.68-9.44-18.38-19.87-27.71-29.68-3.57-3.77-7.59-7.12-11.51-10.55-2.74-2.41-4.41-1.37-6,1.33a23.57,23.57,0,0,0-2.84,7.82,103.72,103.72,0,0,0-1.44,14.6c-.28,13.78-9.19,23.92-22.9,25.6a49,49,0,0,1-6.51.48c-18-.11-36,0-53.92-.5q-67.12-2-113.64-50.68c-22.6-23.69-41.63-50.11-59.33-77.54A1084.26,1084.26,0,0,1,154.12,312.6c-2.42-5.06-3.91-10.37-3.19-16,1.53-12,10.13-19.8,23.12-21,3.48-.31,7-.48,10.48-.48q34.2-.08,68.41,0A37.2,37.2,0,0,1,287,298.06a425.65,425.65,0,0,0,49.14,88.47c2.79,3.83,6,7.34,9.08,11A31.53,31.53,0,0,0,348,400.05Zm17.36-103.3c6.87,6.26,9.76,10.42,11.62,18.35a111.91,111.91,0,0,1,2.89,17.69c1.18,16.92,1.72,33.88.56,50.84-.7,10.35-2.08,20.61-5.62,30.4-3.78,10.45-11.33,16.46-22.48,17.68-8.7,1-16-2.45-22.51-7.78-7.29-5.95-13.26-13.14-18.7-20.74A461.68,461.68,0,0,1,260,311c-1.75-4.23-4-5.95-8.93-6-21.64-.11-43.27-.05-64.9,0-.65,0-1.3.08-1.95.13a2.75,2.75,0,0,0,.09.67c3.13,6.34,6.18,12.71,9.41,19,21.69,42.32,45.16,83.59,72.95,122.26,13.73,19.1,28.37,37.44,45.9,53.3,21.23,19.21,46,29.93,74.66,30.93,19.59.69,39.21.45,58.82.66,1.49,0,2.05-.44,2.08-2q.08-4.66.5-9.32c.75-8.49,3-16.51,7.86-23.62,10-14.48,28.13-24,48.71-9.12,7.19,5.18,13.22,11.56,19.22,18,8.24,8.81,16.23,17.87,24.82,26.31,9.93,9.74,21.4,15.34,36.16,14.54,20.88-1.13,41.85-.66,62.77-1.1,3.54-.07,7.06-1.25,11.25-2-2.7-4.46-4.75-8.29-7.21-11.84C641.44,516.19,628,503,614.35,490c-9-8.56-18.44-16.77-27-25.79-11.94-12.6-15.06-27.16-7.36-43.34a104.17,104.17,0,0,1,13.57-20.61c14.21-17.51,28.78-34.75,41.62-53.33,7.21-10.43,14.25-21,19.55-32.55,1.13-2.47,1.82-5.15,3-8.48-3.76,0-6.78,0-9.79,0-25.45.15-50.89.34-76.34.4-3.62,0-4.21,0-5.77,3.93a397.94,397.94,0,0,1-54.09,96c-5.94,7.73-12.52,14.9-20.78,20.28-6.1,4-12.72,5.84-20,4.24-9.41-2.06-15.11-8.51-19-16.77-3.41-7.15-4.57-14.88-4.65-22.69-.13-12.6.06-25.21.28-37.81.27-15.4.76-30.8,1-46.2a40.5,40.5,0,0,0-1.09-7.59,3.68,3.68,0,0,0-3.06-3.12c-3.57-.78-7.1-1.84-10.7-2.3-12.93-1.66-25.92-1.56-38.91-1.06A181.64,181.64,0,0,0,365.38,296.75Z" transform="translate(0 0)"/></g></svg>