<svg xmlns="http://www.w3.org/2000/svg" viewBox="0 0 464.63 374.64"><g id="Слой_2" data-name="Слой 2"><path d="M71.81 356.64C52.81 351.09 32 333.4 19 318.16 4.57 301.36-.84 279.25.1 257.48c.5-11.48 1.52-20.14 4.67-31.21 1-3.47 3.11-9.92 4.51-13.19A714.37 714.37 0 0158 132.48a377.08 377.08 0 0146-54.59 444.4 444.4 0 0187.26-65.83A86.4 86.4 0 01218 2.55c4.92-1 9.94-1.41 14.91-2.1.67-.1 1.32-.28 2-.42h7.44c2.33.33 4.66.63 7 1 6.21.93 12.24 2.41 17.62 5.83a51.15 51.15 0 0113.34 12.84 103.17 103.17 0 0114.4 27.67c2.78 7.9 5 16 7.52 24a194.47 194.47 0 0014.71 33.87c7 12.8 15.34 24.61 26 34.69 9.52 9 20.56 15.64 32.55 20.78a191.08 191.08 0 0038.46 11.43c8.82 1.74 17.64 3.52 26 7.09 9.58 4.1 17 10.54 21.59 20a28.62 28.62 0 013.15 13.17c-.29 30.85-23.74 54.4-27.86 59.57-15.63 19.61-54.6 59-128.47 87-42.07 16.03-138.85 26.21-236.55-2.33z" fill="#377c53" id="стикеры"/></g></svg>