<svg xmlns="http://www.w3.org/2000/svg" viewBox="0 0 509.34 376.56"><defs><style>.cls-1{fill:#cacacd;}.cls-2{fill:#377b53;}</style></defs><title>Ресурс 8</title><g id="Слой_2" data-name="Слой 2"><g id="стикеры"><path class="cls-1" d="M30.77,333c-86.1-76.27,29.51-201.86,90.38-251.83,47.44-35.75,157.4-110.28,208.22-48.64C352,63,350.48,104.38,375.52,133.89c32.4,48.42,123.51,47.31,133.4,111.27,3.49,29.56-15.21,50.61-38.45,66.15A271.07,271.07,0,0,1,393,350.6c-79.63,25.48-164.75,32.09-247.73,20.33C105.65,364.21,63.91,356.91,30.77,333Z"/><path class="cls-2" d="M63,339.54C-27,275.48,69.5,141.89,122,87.11,163.27,47.49,259.81-36.31,314.65,17.5c24.76,26.9,27.7,66.88,54.63,92.57,35.93,43.1,122.38,32.08,138.57,92.6,6.47,28.09-9.06,50.41-29.48,67.91A259.29,259.29,0,0,1,409,316.89C336,350.13,255.85,365.8,175.77,363.54,137.41,361.39,97,358.92,63,339.54Z"/></g></g></svg>