<svg xmlns="http://www.w3.org/2000/svg" viewBox="0 0 509.34 376.56"><g id="Слой_2" data-name="Слой 2"><g id="стикеры"><path d="M30.77 333c-86.1-76.27 29.51-201.86 90.38-251.83 47.44-35.75 157.4-110.28 208.22-48.64C352 63 350.48 104.38 375.52 133.89c32.4 48.42 123.51 47.31 133.4 111.27 3.49 29.56-15.21 50.61-38.45 66.15A271.07 271.07 0 01393 350.6c-79.63 25.48-164.75 32.09-247.73 20.33-39.62-6.72-81.36-14.02-114.5-37.93z" fill="rgba(0,0,0,.1)"/><path d="M63 339.54c-90-64.06 6.5-197.65 59-252.43C163.27 47.49 259.81-36.31 314.65 17.5c24.76 26.9 27.7 66.88 54.63 92.57 35.93 43.1 122.38 32.08 138.57 92.6 6.47 28.09-9.06 50.41-29.48 67.91A259.29 259.29 0 01409 316.89c-73 33.24-153.15 48.91-233.23 46.65-38.36-2.15-78.77-4.62-112.77-24z" fill="#377b53"/></g></g></svg>