<svg xmlns="http://www.w3.org/2000/svg" viewBox="0 0 126.94 115.63"><g id="Слой_2" fill="#377c53" data-name="Слой 2"><g id="стикеры"><path d="M119.4,102.54c2.07-1.79,9-8,7.25-11-.62-1-9.82-1.41-11.53-1.65-1.24-.17-2.49-.3-3.73-.39a59.61,59.61,0,0,0-30.63,5.75c-.45.22-.9.44-1.34.67l-.88-.87a9.22,9.22,0,0,0,1.85-1c19.36-17.41,27.68-40,30.93-65,.15-1.14,1-2.69-.59-3.37-1.13-.48-2.06.63-2.92,1.31C93.4,38.41,80.2,51,71,67.06,65.27,77,61.4,87.43,62.18,99c.4,5.86,1,6,6.41,3.29.73-.36,1.45-1.21,2.63-.47-1,1.07-1.85,2-2.66,2.93-2.91,3.45-2.61,4.42,1.68,5.58a57,57,0,0,0,21.32,1.94,79.58,79.58,0,0,0,18.66-4.35,29.22,29.22,0,0,0,9.15-5.37Z"/><path d="M65.19,59.06a69.37,69.37,0,0,1-3,17.17c-1.1,3.35-2.88,3.62-5.73,1.48-9.65-7.27-14.95-16.89-18.11-27.52C33.86,35,33.44,19.54,35.37,4c.17-1.38-.06-3.4,1.4-3.87,2-.64,2.85,1.44,3.86,2.59C55,19.14,64.49,37.28,65.19,59.06Z"/><path d="M58.4,97.78c.64,4.93-2.14,5-5.53,3.94C42.26,98.35,34.43,91.13,27.78,82.66,18.3,70.6,12.27,56.71,7.72,42.15c-.33-1-1.22-2.26-.21-3.27s2.22-.27,3.22.27C32.37,50.85,49.81,66.3,56.89,91,57.53,93.2,57.9,95.51,58.4,97.78Z"/><path d="M84.22,38.17c-.67,3.52-3.78,8.31-8.86,12.26-2.58,2-4,1.71-5.85-1.19A21.47,21.47,0,0,1,67.19,30.7c2-6.42,6-12.08,10.51-17.54.5-.61,1-1.46,2.27-1.3,1.73.22,1.74,1.38,2.08,2.22A38.53,38.53,0,0,1,84.22,38.17Z"/><path d="M5.83,85.22c18.29,2.22,35.24,7.66,47,23.54,3.7,5,3.09,6.49-3.13,6.82-8.74.46-16.77-2.31-24.24-6.65A99.49,99.49,0,0,1,2.9,90.86C1.7,89.59-.57,88.21.13,86.47,1,84.23,3.68,85.79,5.83,85.22Z"/></g></g></svg>