<svg version="1.1" id="Слой_1" xmlns="http://www.w3.org/2000/svg" xmlns:xlink="http://www.w3.org/1999/xlink" x="0" y="0" viewBox="0 0 1920 1080" xml:space="preserve"><path d="M388.61 234.72H54.59c-10.07 0-18.23-8.16-18.23-18.23V52.52c0-10.07 8.16-18.23 18.23-18.23h334.02c10.07 0 18.23 8.16 18.23 18.23V216.5c0 10.06-8.16 18.22-18.23 18.22z" fill="#113d36"/><path d="M101.16 93.55c0-11.28 8.43-20.62 20.17-20.62 7.23 0 11.45 2.68 15.44 6.44l-2.96 3.19c-3.36-3.19-7.12-5.47-12.53-5.47-8.83 0-15.44 7.18-15.44 16.46 0 9.23 6.67 16.46 15.44 16.46 5.47 0 9.06-2.11 12.88-5.75l2.96 3.13c-4.16 4.22-8.72 6.78-15.95 6.78-11.52.01-20.01-9.05-20.01-20.62zm43.8-19.93h4.5v17.72h23.01V73.62h4.5v39.88h-4.5V95.55h-23.01v17.94h-4.5V73.62zm43.69 0h4.5v39.88h-4.5V73.62zm16.17 0h28.83v4.1h-24.32v13.61h21.76v4.1h-21.76v13.96h24.61v4.1h-29.11V73.62zm38.17 0h28.65v4.16h-24.15v14.24h21.59v4.1h-21.59v17.37h-4.5V73.62zm35.77 10.93c2.62-.97 3.82-2.28 3.82-4.39v-.56h-2.05v-5.98h5.24v5.13c0 4.61-1.99 6.84-6.32 7.8l-.69-2zm14.06 23.13l2.79-3.3c4.16 3.76 8.15 5.64 13.67 5.64 5.36 0 8.89-2.85 8.89-6.89 0-3.7-1.99-5.81-10.37-7.58-9.17-1.99-13.39-4.96-13.39-11.62 0-6.27 5.53-10.88 13.1-10.88 5.81 0 9.97 1.65 14.01 4.9l-2.62 3.47c-3.7-3.02-7.41-4.33-11.51-4.33-5.18 0-8.49 2.85-8.49 6.55 0 3.76 2.05 5.87 10.82 7.75 8.89 1.94 12.99 5.18 12.99 11.39 0 6.84-5.7 11.28-13.62 11.28-6.3 0-11.48-2.1-16.27-6.38zm-192.51 68.35l2.79-3.3c4.16 3.76 8.15 5.64 13.67 5.64 5.36 0 8.89-2.85 8.89-6.89 0-3.7-1.99-5.81-10.37-7.58-9.17-1.99-13.39-4.96-13.39-11.62 0-6.27 5.53-10.88 13.1-10.88 5.81 0 9.97 1.65 14.01 4.9l-2.62 3.47c-3.7-3.02-7.41-4.33-11.51-4.33-5.18 0-8.49 2.85-8.49 6.55 0 3.76 2.05 5.87 10.82 7.75 8.89 1.94 12.99 5.18 12.99 11.39 0 6.84-5.7 11.28-13.62 11.28-6.3 0-11.49-2.1-16.27-6.38zm39.07-34.06h14.93c9 0 14.93 4.79 14.93 12.76 0 8.6-7.18 13.05-15.67 13.05h-9.68v14.07h-4.5v-39.88zm14.36 21.7c6.61 0 10.94-3.53 10.94-8.89 0-5.7-4.27-8.66-10.71-8.66h-10.08v17.55h9.85zm23.69-21.7h28.83v4.1h-24.32v13.61h21.76v4.1h-21.76v13.96h24.61v4.1h-29.11v-39.87zm36.4 19.94c0-11.28 8.43-20.62 20.17-20.62 7.23 0 11.45 2.68 15.44 6.44l-2.96 3.19c-3.36-3.19-7.12-5.47-12.53-5.47-8.83 0-15.44 7.18-15.44 16.46 0 9.23 6.67 16.46 15.44 16.46 5.47 0 9.06-2.11 12.88-5.75l2.96 3.13c-4.16 4.22-8.72 6.78-15.95 6.78-11.53 0-20.01-9.06-20.01-20.62zm44.2-19.94h4.5v39.88h-4.5v-39.88zm30.93-.29h4.21l18.17 40.16h-4.84l-4.67-10.54h-21.7l-4.73 10.54h-4.61l18.17-40.16zm11.1 25.58L291 146.92l-9.11 20.34h18.17zm19.14-25.29h4.5v35.72h22.44v4.16H319.2v-39.88z" fill="#fff"/></svg>