<?xml version="1.0" encoding="utf-8"?>
<!-- Generator: Adobe Illustrator 25.2.1, SVG Export Plug-In . SVG Version: 6.00 Build 0)  -->
<svg version="1.1" id="Слой_1" xmlns="http://www.w3.org/2000/svg" xmlns:xlink="http://www.w3.org/1999/xlink" x="0px" y="0px"
	 viewBox="0 0 1920 1080" style="enable-background:new 0 0 1920 1080;" xml:space="preserve">
<style type="text/css">
	.st0{fill:#113D36;}
	.st1{fill:#FFFFFF;}
</style>
<g>
	<g>
		<path class="st0" d="M388.61,234.72H54.59c-10.07,0-18.23-8.16-18.23-18.23V52.52c0-10.07,8.16-18.23,18.23-18.23h334.02
			c10.07,0,18.23,8.16,18.23,18.23v163.98C406.84,226.56,398.68,234.72,388.61,234.72z"/>
	</g>
</g>
<g>
	<g>
		<path class="st1" d="M101.16,93.55c0-11.28,8.43-20.62,20.17-20.62c7.23,0,11.45,2.68,15.44,6.44l-2.96,3.19
			c-3.36-3.19-7.12-5.47-12.53-5.47c-8.83,0-15.44,7.18-15.44,16.46c0,9.23,6.67,16.46,15.44,16.46c5.47,0,9.06-2.11,12.88-5.75
			l2.96,3.13c-4.16,4.22-8.72,6.78-15.95,6.78C109.65,114.18,101.16,105.12,101.16,93.55z"/>
	</g>
	<g>
		<path class="st1" d="M144.96,73.62h4.5v17.72h23.01V73.62h4.5v39.88h-4.5V95.55h-23.01v17.94h-4.5V73.62z"/>
	</g>
	<g>
		<path class="st1" d="M188.65,73.62h4.5v39.88h-4.5V73.62z"/>
	</g>
	<g>
		<path class="st1" d="M204.82,73.62h28.83v4.1h-24.32v13.61h21.76v4.1h-21.76v13.96h24.61v4.1h-29.11V73.62z"/>
	</g>
	<g>
		<path class="st1" d="M242.99,73.62h28.65v4.16h-24.15v14.24h21.59v4.1h-21.59v17.37h-4.5V73.62z"/>
	</g>
	<g>
		<path class="st1" d="M278.76,84.55c2.62-0.97,3.82-2.28,3.82-4.39V79.6h-2.05v-5.98h5.24v5.13c0,4.61-1.99,6.84-6.32,7.8
			L278.76,84.55z"/>
	</g>
	<g>
		<path class="st1" d="M292.82,107.68l2.79-3.3c4.16,3.76,8.15,5.64,13.67,5.64c5.36,0,8.89-2.85,8.89-6.89
			c0-3.7-1.99-5.81-10.37-7.58c-9.17-1.99-13.39-4.96-13.39-11.62c0-6.27,5.53-10.88,13.1-10.88c5.81,0,9.97,1.65,14.01,4.9
			l-2.62,3.47c-3.7-3.02-7.41-4.33-11.51-4.33c-5.18,0-8.49,2.85-8.49,6.55c0,3.76,2.05,5.87,10.82,7.75
			c8.89,1.94,12.99,5.18,12.99,11.39c0,6.84-5.7,11.28-13.62,11.28C302.79,114.06,297.61,111.96,292.82,107.68z"/>
	</g>
	<g>
		<path class="st1" d="M100.31,176.03l2.79-3.3c4.16,3.76,8.15,5.64,13.67,5.64c5.36,0,8.89-2.85,8.89-6.89
			c0-3.7-1.99-5.81-10.37-7.58c-9.17-1.99-13.39-4.96-13.39-11.62c0-6.27,5.53-10.88,13.1-10.88c5.81,0,9.97,1.65,14.01,4.9
			l-2.62,3.47c-3.7-3.02-7.41-4.33-11.51-4.33c-5.18,0-8.49,2.85-8.49,6.55c0,3.76,2.05,5.87,10.82,7.75
			c8.89,1.94,12.99,5.18,12.99,11.39c0,6.84-5.7,11.28-13.62,11.28C110.28,182.41,105.09,180.31,100.31,176.03z"/>
	</g>
	<g>
		<path class="st1" d="M139.38,141.97h14.93c9,0,14.93,4.79,14.93,12.76c0,8.6-7.18,13.05-15.67,13.05h-9.68v14.07h-4.5V141.97z
			 M153.74,163.67c6.61,0,10.94-3.53,10.94-8.89c0-5.7-4.27-8.66-10.71-8.66h-10.08v17.55H153.74z"/>
	</g>
	<g>
		<path class="st1" d="M177.43,141.97h28.83v4.1h-24.32v13.61h21.76v4.1h-21.76v13.96h24.61v4.1h-29.11V141.97z"/>
	</g>
	<g>
		<path class="st1" d="M213.83,161.91c0-11.28,8.43-20.62,20.17-20.62c7.23,0,11.45,2.68,15.44,6.44l-2.96,3.19
			c-3.36-3.19-7.12-5.47-12.53-5.47c-8.83,0-15.44,7.18-15.44,16.46c0,9.23,6.67,16.46,15.44,16.46c5.47,0,9.06-2.11,12.88-5.75
			l2.96,3.13c-4.16,4.22-8.72,6.78-15.95,6.78C222.31,182.53,213.83,173.47,213.83,161.91z"/>
	</g>
	<g>
		<path class="st1" d="M258.03,141.97h4.5v39.88h-4.5V141.97z"/>
	</g>
	<g>
		<path class="st1" d="M288.96,141.68h4.21l18.17,40.16h-4.84l-4.67-10.54h-21.7l-4.73,10.54h-4.61L288.96,141.68z M300.06,167.26
			l-9.06-20.34l-9.11,20.34H300.06z"/>
	</g>
	<g>
		<path class="st1" d="M319.2,141.97h4.5v35.72h22.44v4.16H319.2V141.97z"/>
	</g>
</g>
</svg>
