<svg width="258.28" height="257.89" xmlns="http://www.w3.org/2000/svg">
 <style type="text/css">.st0{fill:#fff;}</style>

 <g>
  <title>Layer 1</title>
  <g id="svg_1">
   <path id="svg_2" d="m2152.55,-128.04c0,-2.67 0,-5.33 0,-8c0.74,-4.39 1.62,-8.77 2.19,-13.19c9.19,-70.28 75.93,-120.03 146.58,-108.22c68.03,11.37 114.42,75.35 105.12,142.35c-7.52,54.15 -49.32,98.38 -103.23,108.49c-6.5,1.22 -11.69,2.27 -18.53,2.16c-2.67,-0.04 -5.32,0.08 -7.97,-0.14c-4.27,-0.36 -8.55,-0.85 -12.82,-1.59c-54.87,-7.49 -97.86,-48.13 -108.09,-102.31c-1.23,-6.48 -2.17,-13.03 -3.25,-19.55zm140.25,-19.24c0.03,0 0.07,0 0.1,0c0,-4.83 0.13,-9.66 -0.03,-14.49c-0.19,-5.89 -2.37,-9.13 -8.13,-9.5c-9.24,-0.6 -18.55,-0.29 -27.82,0.04c-2.13,0.08 -4.43,1.48 -6.23,2.85c-2.48,1.88 -3.09,4.18 0.78,5.29c4.82,1.39 6.48,5 6.68,9.44c0.26,5.98 0.58,12.02 0.08,17.96c-0.28,3.38 -2.13,6.62 -3.27,9.93c-2.76,-2.12 -6.4,-3.69 -8.11,-6.46c-5.73,-9.33 -10.92,-19.02 -16.01,-28.73c-1.89,-3.61 -3.89,-6.95 -8.22,-7.07c-8.15,-0.23 -16.33,-0.26 -24.46,0.21c-5.09,0.29 -6.75,3.37 -4.68,8c9.75,21.8 20.72,42.92 36.11,61.38c14.05,16.84 32.02,25 54.11,23.61c6.27,-0.39 8.53,-2.65 9.15,-8.87c0.31,-3.11 0.74,-6.31 1.8,-9.22c1.59,-4.35 4.62,-5.06 8.16,-2.12c2.29,1.91 4.56,3.99 6.31,6.38c7.97,10.9 18.28,15.98 31.95,14.02c4.75,-0.68 9.71,0.08 14.43,-0.7c6.69,-1.1 8.53,-5.46 5.14,-11.28c-1.58,-2.72 -3.39,-5.4 -5.53,-7.68c-5.12,-5.46 -10.52,-10.66 -15.79,-15.98c-5.43,-5.48 -5.61,-7.36 -1.17,-13.77c1.8,-2.6 3.91,-4.98 5.7,-7.59c5.54,-8.09 11.48,-15.97 16.33,-24.46c4.75,-8.33 2.09,-12.1 -7.4,-12.08c-7.16,0.02 -14.33,0.3 -21.48,0.02c-6.12,-0.24 -9.36,2.16 -12.21,7.82c-5.52,10.92 -12.26,21.23 -18.76,31.63c-0.84,1.35 -3.7,2.72 -4.86,2.24c-1.34,-0.55 -2.46,-3.11 -2.57,-4.87c-0.31,-5.28 -0.1,-10.62 -0.1,-15.95z" class="st0"/>
  </g>
  <g id="svg_3">
   <path id="svg_4" d="m171.64333,248.30665c0,-1.28 0,-2.17 0,-3.07c0,-23.17 0.04,-46.35 -0.06,-69.52c-0.01,-2.63 0.67,-3.51 3.39,-3.46c4.47,0.09 8.96,-0.4 13.44,-0.41c3.67,-0.01 7.35,0.21 11.01,0.52c2.37,0.2 3.43,-0.9 3.7,-3.02c0.98,-7.72 1.91,-15.45 2.87,-23.17c0.34,-2.73 0.72,-5.45 1.1,-8.17c0.29,-2.05 -0.56,-2.73 -2.63,-2.71c-9.79,0.08 -19.57,-0.07 -29.36,0.1c-2.86,0.05 -3.61,-0.81 -3.53,-3.6c0.2,-6.92 -0.24,-13.86 0.15,-20.77c0.41,-7.37 2.52,-11.41 8.45,-13.51c2.72,-0.96 5.71,-1.42 8.61,-1.54c5.81,-0.23 11.63,-0.13 17.45,-0.04c1.9,0.03 2.58,-0.55 2.56,-2.51c-0.08,-9.6 -0.05,-19.2 -0.02,-28.8c0.01,-1.52 -0.31,-2.39 -2.1,-2.45c-9.37,-0.31 -18.75,-1.13 -28.11,-0.98c-9.64,0.16 -18.93,2.36 -26.99,8.13c-7.57,5.42 -12.57,12.68 -15.3,21.58c-2.17,7.11 -2.63,14.41 -2.74,21.76c-0.1,6.46 -0.12,12.93 0.03,19.39c0.06,2.48 -0.57,3.39 -3.22,3.33c-8.03,-0.17 -16.06,0 -24.09,-0.1c-2.31,-0.03 -3.31,0.6 -3.29,3.12c0.11,10.38 0.09,20.77 0.01,31.16c-0.01,1.94 0.81,2.28 2.49,2.27c7.11,-0.06 14.22,-0.03 21.33,-0.02c0.74,0 1.48,-0.02 2.22,0.01c4.28,0.17 4.5,0.4 4.5,4.57c0,25.39 -0.04,50.78 0.06,76.16c0.01,2.78 -0.69,3.61 -3.54,3.58c-30.02,-0.32 -57.16,-9.15 -80.62,-27.96c-24.35,-19.51 -39.59,-44.76 -45.73,-75.5c-2.26,-11.3 -2.85,-22.7 -1.96,-34.03c2.03,-25.78 11.04,-49.06 27.28,-69.34c17.01,-21.23 38.53,-35.68 64.73,-43.32c14.48,-4.23 29.24,-5.71 44.12,-4.66c24.78,1.74 47.32,10.19 67.16,25.22c26.48,20.05 43.26,46.47 48.99,79.19c6.47,36.9 -1.7,70.67 -24.49,100.59c-14.13,18.56 -32.42,31.79 -53.88,40.73c-1.14,0.48 -2.38,0.75 -3.99,1.25z" class="st0"/>
  </g>
  <g id="svg_5">
   <path id="svg_6" d="m1879.15,-258.07c69.77,0.07 126.21,56.58 126.16,126.3c-0.06,69.75 -56.59,126.18 -126.34,126.1c-69.77,-0.08 -126.17,-56.62 -126.06,-126.37c0.11,-69.68 56.62,-126.1 126.24,-126.03zm-78.05,126.16c0.14,0 0.28,0.01 0.42,0.01c0,5.32 -0.08,10.63 0.02,15.95c0.17,8.75 -0.17,17.55 1.52,26.2c3.15,16.13 12.22,27.25 28.02,32.44c6.32,2.08 12.92,2.81 19.52,2.87c17,0.16 34,0.24 50.99,0.07c6.4,-0.07 12.87,-0.46 19.18,-1.51c16.95,-2.8 28.16,-12.53 33.21,-29.05c1.89,-6.18 2.49,-12.61 2.57,-19.05c0.18,-13.78 0.24,-27.57 0.21,-41.35c-0.02,-9.46 0.04,-18.94 -1.6,-28.31c-2.72,-15.44 -11.16,-26.34 -25.87,-32.06c-6.94,-2.7 -14.3,-3.48 -21.68,-3.59c-14.72,-0.22 -29.44,-0.35 -44.16,-0.21c-7.99,0.08 -15.99,0.51 -23.94,1.29c-7.6,0.74 -14.67,3.31 -20.83,8.02c-10.21,7.82 -15.38,18.46 -16.26,30.99c-0.87,12.4 -0.91,24.86 -1.32,37.29z" class="st0"/>
   <path id="svg_7" d="m1942.95,-131.73c-0.23,10.63 -0.26,21.27 -0.79,31.88c-0.22,4.43 -1.04,8.98 -2.45,13.18c-3.45,10.32 -11.35,15.7 -21.75,17.1c-7.21,0.97 -14.55,1.16 -21.84,1.22c-14.78,0.13 -29.56,0.03 -44.34,-0.17c-4.24,-0.06 -8.54,-0.43 -12.71,-1.23c-12.68,-2.45 -20.48,-10.34 -22.22,-23.13c-1,-7.32 -1.21,-14.78 -1.23,-22.19c-0.05,-16.53 0.08,-33.06 0.49,-49.59c0.1,-4.19 1.07,-8.49 2.43,-12.48c3.48,-10.23 11.35,-15.52 21.65,-17.02c6.33,-0.92 12.8,-1.16 19.21,-1.18c17.35,-0.05 34.7,0.04 52.04,0.42c4.3,0.09 8.73,1.04 12.83,2.41c10.34,3.44 15.71,11.36 17.11,21.74c1,7.38 1.01,14.9 1.26,22.36c0.18,5.54 0.04,11.1 0.04,16.65c0.08,0.02 0.18,0.03 0.27,0.03zm-23.94,0.46c0.46,-21.81 -17.17,-40.04 -39.17,-40.5c-21.97,-0.45 -40.2,17.14 -40.63,39.21c-0.43,21.96 17.1,40.09 39.25,40.59c21.86,0.49 40.08,-17.16 40.55,-39.3zm1.46,-32.76c5.21,0.03 9.4,-4.09 9.41,-9.26c0.01,-5.15 -4.18,-9.36 -9.33,-9.37c-5.09,-0.01 -9.23,4.09 -9.29,9.21c-0.06,5.25 3.99,9.39 9.21,9.42z" class="st0"/>
   <path id="svg_8" d="m1879.12,-157.76c14.22,0 25.86,11.63 25.88,25.85c0.02,14.24 -11.58,25.89 -25.81,25.93c-14.3,0.04 -26.01,-11.66 -25.97,-25.95c0.04,-14.25 11.65,-25.83 25.9,-25.83z" class="st0"/>
  </g>
 </g>
</svg>