<svg width="258.28" height="254.89" xmlns="http://www.w3.org/2000/svg"><style>.st0{fill:#fff}</style><g id="svg_1"><path id="svg_2" d="M1775.48 235v-8c.74-4.39 1.62-8.77 2.19-13.19 9.19-70.28 75.93-120.03 146.58-108.22 68.03 11.37 114.42 75.35 105.12 142.35-7.52 54.15-49.32 98.38-103.23 108.49-6.5 1.22-11.69 2.27-18.53 2.16-2.67-.04-5.32.08-7.97-.14-4.27-.36-8.55-.85-12.82-1.59-54.87-7.49-97.86-48.13-108.09-102.31-1.23-6.49-2.17-13.03-3.25-19.55zm140.25-19.24h.1c0-4.83.13-9.66-.03-14.49-.19-5.89-2.37-9.13-8.13-9.5-9.24-.6-18.55-.29-27.82.04-2.13.08-4.43 1.48-6.23 2.85-2.48 1.88-3.09 4.18.78 5.29 4.82 1.39 6.49 5 6.68 9.44.26 5.98.58 12.02.08 17.96-.28 3.38-2.13 6.62-3.27 9.93-2.76-2.12-6.4-3.69-8.11-6.46-5.73-9.33-10.92-19.02-16.01-28.73-1.89-3.61-3.89-6.95-8.22-7.07-8.15-.23-16.33-.26-24.46.21-5.09.29-6.75 3.37-4.68 8 9.75 21.8 20.72 42.92 36.11 61.38 14.05 16.84 32.02 25 54.11 23.61 6.27-.39 8.53-2.65 9.15-8.87.31-3.11.74-6.31 1.8-9.22 1.59-4.35 4.62-5.06 8.16-2.12 2.29 1.91 4.56 3.99 6.31 6.38 7.97 10.9 18.28 15.98 31.95 14.02 4.75-.68 9.71.08 14.43-.7 6.69-1.1 8.53-5.46 5.14-11.28-1.58-2.72-3.39-5.4-5.53-7.68-5.12-5.46-10.52-10.66-15.79-15.98-5.43-5.48-5.61-7.36-1.17-13.77 1.8-2.6 3.91-4.98 5.7-7.59 5.54-8.09 11.48-15.97 16.33-24.46 4.75-8.33 2.09-12.1-7.4-12.08-7.16.02-14.33.3-21.48.02-6.12-.24-9.36 2.16-12.21 7.82-5.52 10.92-12.26 21.23-18.76 31.63-.84 1.35-3.7 2.72-4.86 2.24-1.34-.55-2.46-3.11-2.57-4.87-.31-5.28-.1-10.62-.1-15.95z" class="st0"/></g><g id="svg_3"><path id="svg_4" d="M2322.99 351.17v-3.07c0-23.17.04-46.35-.05-69.52-.01-2.63.67-3.51 3.39-3.46 4.47.09 8.96-.4 13.44-.41 3.67-.01 7.35.21 11.01.52 2.37.2 3.43-.9 3.7-3.02.98-7.72 1.91-15.45 2.87-23.17.34-2.73.72-5.45 1.1-8.17.29-2.05-.56-2.73-2.63-2.71-9.79.08-19.57-.07-29.36.1-2.86.05-3.61-.81-3.53-3.6.2-6.92-.24-13.86.15-20.77.41-7.37 2.52-11.41 8.45-13.51 2.72-.96 5.71-1.42 8.61-1.54 5.81-.23 11.63-.13 17.45-.04 1.9.03 2.58-.55 2.56-2.51-.08-9.6-.05-19.2-.02-28.8.01-1.52-.31-2.39-2.1-2.45-9.37-.31-18.75-1.13-28.11-.98-9.64.16-18.93 2.36-26.99 8.13-7.57 5.42-12.57 12.68-15.3 21.58-2.17 7.11-2.63 14.41-2.74 21.76-.1 6.46-.12 12.93.03 19.39.06 2.48-.57 3.39-3.22 3.33-8.03-.17-16.06 0-24.09-.1-2.31-.03-3.31.6-3.29 3.12.11 10.38.09 20.77.01 31.16-.01 1.94.81 2.28 2.49 2.27 7.11-.06 14.22-.03 21.33-.02.74 0 1.48-.02 2.22.01 4.28.17 4.5.4 4.5 4.57 0 25.39-.04 50.78.06 76.16.01 2.78-.69 3.61-3.54 3.58-30.02-.32-57.16-9.15-80.62-27.96-24.35-19.52-39.59-44.76-45.72-75.5-2.26-11.3-2.85-22.7-1.96-34.03 2.03-25.78 11.04-49.06 27.28-69.34 17-21.24 38.53-35.68 64.72-43.33 14.48-4.23 29.24-5.71 44.12-4.66 24.78 1.74 47.32 10.19 67.16 25.22 26.48 20.05 43.26 46.47 48.99 79.19 6.47 36.9-1.7 70.67-24.49 100.59-14.13 18.56-32.42 31.79-53.88 40.73-1.15.48-2.38.76-4 1.26z" class="st0"/></g><g id="svg_5"><path id="svg_6" d="M128.48 1.3c69.77.07 126.21 56.58 126.16 126.3-.06 69.75-56.59 126.18-126.34 126.1-69.77-.08-126.17-56.62-126.06-126.37C2.35 57.64 58.86 1.23 128.48 1.3zM50.43 127.45c.14 0 .28.01.42.01 0 5.32-.08 10.63.02 15.95.17 8.75-.17 17.55 1.52 26.2 3.15 16.13 12.22 27.25 28.02 32.44 6.32 2.08 12.92 2.81 19.52 2.87 17 .16 34 .24 50.99.07 6.4-.07 12.87-.46 19.18-1.51 16.95-2.8 28.16-12.53 33.21-29.05 1.89-6.18 2.49-12.61 2.57-19.05.18-13.78.24-27.57.21-41.35-.02-9.46.04-18.94-1.6-28.31-2.72-15.44-11.16-26.34-25.87-32.06-6.94-2.7-14.3-3.48-21.68-3.59-14.72-.22-29.44-.35-44.16-.21-7.99.08-15.99.51-23.94 1.29-7.6.74-14.67 3.31-20.83 8.02-10.21 7.82-15.38 18.46-16.26 30.99-.87 12.4-.91 24.86-1.32 37.29z" class="st0"/><path id="svg_7" d="M192.28 127.63c-.23 10.63-.26 21.27-.79 31.88-.22 4.43-1.04 8.98-2.45 13.18-3.45 10.32-11.35 15.7-21.75 17.1-7.21.97-14.55 1.16-21.84 1.22-14.78.13-29.56.03-44.34-.17-4.24-.06-8.54-.43-12.71-1.23-12.68-2.45-20.48-10.34-22.22-23.13-1-7.32-1.21-14.78-1.23-22.19-.05-16.53.08-33.06.49-49.59.1-4.19 1.07-8.49 2.43-12.48C71.35 71.99 79.22 66.7 89.52 65.2c6.33-.92 12.8-1.16 19.21-1.18 17.35-.05 34.7.04 52.04.42 4.3.09 8.73 1.04 12.83 2.41 10.34 3.44 15.71 11.36 17.11 21.74 1 7.38 1.01 14.9 1.26 22.36.18 5.54.04 11.1.04 16.65.08.03.18.03.27.03zm-23.94.47c.46-21.81-17.17-40.04-39.17-40.5-21.97-.45-40.2 17.14-40.63 39.21-.43 21.96 17.1 40.09 39.25 40.59 21.86.49 40.08-17.17 40.55-39.3zm1.46-32.76c5.21.03 9.4-4.09 9.41-9.26.01-5.15-4.18-9.36-9.33-9.37-5.09-.01-9.23 4.09-9.29 9.21-.06 5.24 3.99 9.38 9.21 9.42z" class="st0"/><path id="svg_8" d="M128.45 101.6c14.22 0 25.86 11.63 25.88 25.85.02 14.24-11.58 25.89-25.81 25.93-14.3.04-26.01-11.66-25.97-25.95.04-14.24 11.65-25.82 25.9-25.83z" class="st0"/></g></svg>