<svg width="46" height="67" xmlns="http://www.w3.org/2000/svg">
 <style type="text/css">.st0{fill:#282827;}
	.st1{fill:#C4B29D;}</style>

 <g>
  <title>Layer 1</title>
  <path id="svg_1" d="m43.24257,23.2528c0,-11.50963 -9.13368,-20.84254 -20.40334,-20.84254s-20.40334,9.33029 -20.40334,20.84254c0,15.23703 20.40334,39.96413 20.40334,39.96413s20.40334,-24.7271 20.40334,-39.96413z" class="st0" stroke="null"/>
  <g stroke="null" id="svg_2">
   <path stroke="null" id="svg_3" d="m18.18853,30.69553l0,-10.38115l2.9285,0l0,11.52249c0,2.39176 0.25006,4.09712 0.75018,5.11608c0.47512,1.06419 1.26976,1.82508 2.38114,2.28268l-1.43091,0c-1.51982,-0.65182 -2.67844,-1.56436 -3.47308,-2.73762c-0.77241,-1.15198 -1.15584,-3.08614 -1.15584,-5.80248l0,-0.00001z" class="st1"/>
   <path stroke="null" id="svg_4" d="m22.14506,31.28615l0,-10.93453l2.9285,0l0,11.42405c0,3.95612 1.44202,5.93285 4.32329,5.93285c0.93078,0 1.6893,-0.17293 2.28112,-0.52145l0,0.71833c-1.15862,0.91254 -2.80347,1.37014 -4.18714,1.37014c-1.27254,0 -2.37836,-0.35916 -3.24246,-1.09611c-0.93078,-0.7609 -1.46703,-1.60958 -1.69486,-2.52212c-0.27229,-0.9152 -0.40843,-2.37048 -0.40843,-4.37115l0,0.00001z" class="st1"/>
   <g stroke="null" id="svg_5">
    <rect stroke="null" id="svg_6" height="22.99" width="10.54" class="st1" transform="matrix(0.196465 -0.188122 0.196465 0.188122 65.2582 276.723)" y="-820.27111" x="574.32937"/>
   </g>
   <g stroke="null" id="svg_7">
    <rect stroke="null" id="svg_8" height="22.99" width="10.54" class="st1" transform="matrix(0.196465 -0.188122 0.196465 0.188122 68.0516 277.83)" y="-830.32111" x="584.38937"/>
   </g>
  </g>
 </g>
</svg>