<svg width="46" height="67" xmlns="http://www.w3.org/2000/svg"><style>.st1{fill:#c4b29d}</style><path id="svg_1" d="M43.243 23.253c0-11.51-9.134-20.843-20.404-20.843S2.436 11.74 2.436 23.253c0 15.237 20.403 39.964 20.403 39.964S43.243 38.49 43.243 23.253z" stroke="null" fill="#282827"/><g stroke="null" id="svg_2"><path stroke="null" id="svg_3" d="M18.189 30.696V20.314h2.928v11.523c0 2.392.25 4.097.75 5.116.475 1.064 1.27 1.825 2.381 2.283h-1.43c-1.52-.652-2.679-1.565-3.474-2.738-.772-1.152-1.155-3.086-1.155-5.802h0z" class="st1"/><path stroke="null" id="svg_4" d="M22.145 31.286V20.352h2.929v11.424c0 3.956 1.442 5.933 4.323 5.933.93 0 1.69-.173 2.281-.522v.718c-1.159.913-2.803 1.37-4.187 1.37-1.273 0-2.379-.359-3.243-1.096-.93-.76-1.467-1.61-1.694-2.522-.273-.915-.409-2.37-.409-4.37h0z" class="st1"/><g stroke="null" id="svg_5"><path stroke="null" id="svg_6" class="st1" transform="matrix(.19646 -.18812 .19646 .18812 65.258 276.718)" d="M574.329-820.271h10.54v22.99h-10.54z"/></g><g stroke="null" id="svg_7"><path stroke="null" id="svg_8" class="st1" transform="matrix(.19646 -.18812 .19646 .18812 68.05 277.825)" d="M584.389-830.321h10.54v22.99h-10.54z"/></g></g></svg>