<svg width="343" height="712" xmlns="http://www.w3.org/2000/svg">
 <style type="text/css">.st0{fill:#C4B29D;}</style>

 <g>
  <title>Layer 1</title>
  <g id="svg_1">
   <g id="svg_2">
    <path id="svg_3" d="m31,501.5l0,-246.4l66.5,0l0,273.5c0,56.7 5.7,97.2 17,121.5c10.8,25.3 28.9,43.3 54.1,54.2l-32.5,0c-34.6,-15.5 -60.9,-37.1 -78.9,-65c-17.4,-27.5 -26.2,-73.4 -26.2,-137.8z" class="st0"/>
    <path id="svg_4" d="m120.9,515.5l0,-259.6l66.5,0l0,271.1c0,93.9 32.7,140.8 98.3,140.8c21.1,0 38.4,-4.1 51.8,-12.4l0,17c-26.3,21.6 -63.7,32.5 -95.2,32.5c-28.9,0 -54.1,-8.5 -73.7,-26c-21.2,-18.1 -33.4,-38.2 -38.5,-59.8c-6.1,-21.6 -9.2,-56.2 -9.2,-103.6z" class="st0"/>
    <g id="svg_5">
     <rect id="svg_6" height="145.2" width="66.5" class="st0" transform="matrix(0.7071 -0.7071 0.7071 0.7071 -72.2462 432.991)" y="-172.66182" x="278.64296"/>
    </g>
    <g id="svg_7">
     <rect id="svg_8" height="145.2" width="66.5" class="st0" transform="matrix(0.7071 -0.7071 0.7071 0.7071 -8.757 459.289)" y="-236.16182" x="342.14296"/>
    </g>
   </g>
  </g>
 </g>
</svg>