<svg width="105" height="16" xmlns="http://www.w3.org/2000/svg">
 <style type="text/css">.st0{fill:#fff;}</style>

 <g>
  <title>Layer 1</title>
  <g id="svg_1">
   <path id="svg_2" d="m7.5,13.56c-1.02,-0.56 -1.82,-1.32 -2.4,-2.3c-0.58,-0.98 -0.87,-2.08 -0.87,-3.31c0,-1.23 0.29,-2.33 0.88,-3.31s1.39,-1.75 2.41,-2.3c1.02,-0.56 2.16,-0.83 3.43,-0.83c1.03,0 1.96,0.18 2.81,0.54c0.85,0.36 1.56,0.88 2.15,1.56l-1.5,1.41c-0.91,-0.98 -2.02,-1.47 -3.35,-1.47c-0.86,0 -1.63,0.19 -2.31,0.56c-0.68,0.38 -1.21,0.9 -1.59,1.57c-0.38,0.67 -0.57,1.43 -0.57,2.27c0,0.85 0.19,1.61 0.57,2.27c0.38,0.67 0.91,1.19 1.59,1.57c0.68,0.38 1.45,0.56 2.31,0.56c1.33,0 2.44,-0.49 3.35,-1.49l1.5,1.43c-0.59,0.68 -1.3,1.2 -2.16,1.56c-0.85,0.36 -1.79,0.54 -2.82,0.54c-1.26,0 -2.41,-0.28 -3.43,-0.83z" class="st0"/>
   <path id="svg_3" d="m24.2,13.56c-1.03,-0.56 -1.83,-1.33 -2.42,-2.31c-0.58,-0.98 -0.88,-2.09 -0.88,-3.3c0,-1.22 0.29,-2.32 0.88,-3.3c0.58,-0.98 1.39,-1.76 2.42,-2.31s2.18,-0.83 3.46,-0.83c1.28,0 2.43,0.28 3.46,0.83c1.03,0.56 1.83,1.32 2.42,2.3c0.58,0.98 0.88,2.08 0.88,3.31c0,1.23 -0.29,2.33 -0.88,3.31c-0.59,0.98 -1.39,1.75 -2.42,2.3c-1.03,0.56 -2.18,0.83 -3.46,0.83c-1.28,0 -2.43,-0.28 -3.46,-0.83zm5.71,-1.78c0.67,-0.38 1.19,-0.9 1.58,-1.58c0.38,-0.67 0.57,-1.43 0.57,-2.27c0,-0.84 -0.19,-1.59 -0.57,-2.26c-0.38,-0.67 -0.91,-1.2 -1.58,-1.58c-0.67,-0.38 -1.42,-0.56 -2.26,-0.56c-0.84,0 -1.59,0.19 -2.26,0.56c-0.67,0.38 -1.19,0.9 -1.58,1.58c-0.38,0.67 -0.57,1.43 -0.57,2.26c0,0.84 0.19,1.59 0.57,2.27c0.38,0.67 0.91,1.2 1.58,1.58c0.67,0.38 1.42,0.56 2.26,0.56c0.84,0.01 1.59,-0.18 2.26,-0.56z" class="st0"/>
   <path id="svg_4" d="m43.13,3.63l0,3.81l6.05,0l0,1.97l-6.05,0l0,4.8l-2.33,0l0,-12.53l9.15,0l0,1.95l-6.82,0z" class="st0"/>
   <path id="svg_5" d="m56.13,1.68l2.33,0l0,12.53l-2.33,0l0,-12.53z" class="st0"/>
   <path id="svg_6" d="m67.1,12.93c-0.97,-0.97 -1.45,-2.37 -1.45,-4.18l0,-7.07l2.33,0l0,6.98c0,2.46 1.06,3.69 3.19,3.69c2.11,0 3.17,-1.23 3.17,-3.69l0,-6.98l2.29,0l0,7.07c0,1.81 -0.48,3.21 -1.44,4.18c-0.96,0.97 -2.31,1.46 -4.04,1.46c-1.73,0 -3.08,-0.49 -4.05,-1.46z" class="st0"/>
   <path id="svg_7" d="m95.32,14.21l-0.02,-8.31l-4.12,6.88l-1.04,0l-4.12,-6.77l0,8.2l-2.22,0l0,-12.53l1.92,0l4.98,8.31l4.89,-8.31l1.92,0l0.02,12.53l-2.21,0z" class="st0"/>
  </g>
 </g>
</svg>