<svg width="32" height="31" viewBox="0 0 32 31" fill="none" xmlns="http://www.w3.org/2000/svg">
<g clip-path="url(#clip0)">
<path d="M31.3092 15.4673C31.3092 6.92534 24.3849 0.000732422 15.8432 0.000732422C7.30152 0.000732422 0.377136 6.92534 0.377136 15.4673C0.377136 23.1872 6.03285 29.5857 13.4266 30.746V19.9382H9.4997V15.4673H13.4266V12.0598C13.4266 8.18352 15.7356 6.04237 19.2683 6.04237C20.9604 6.04237 22.7304 6.34444 22.7304 6.34444V10.1507H20.7803C18.859 10.1507 18.2597 11.3429 18.2597 12.566V15.4673H22.5492L21.8635 19.9382H18.2597V30.746C25.6536 29.5857 31.3092 23.1872 31.3092 15.4673Z" fill="#2F2F2F"/>
</g>
<defs>
<clipPath id="clip0">
<rect width="30.9345" height="30.9355" fill="white" transform="translate(0.377136 0.000732422)"/>
</clipPath>
</defs>
</svg>
