<svg width="31" height="31" viewBox="0 0 31 31" fill="none" xmlns="http://www.w3.org/2000/svg">
<g clip-path="url(#clip0)">
<path d="M15.5329 0.000732422C11.3309 0.000732422 10.8063 0.0200671 9.15649 0.0935391C7.50923 0.170878 6.38785 0.429963 5.40182 0.812791C4.38484 1.20722 3.52126 1.73699 2.66153 2.59674C1.80181 3.45649 1.27077 4.31882 0.877644 5.33711C0.494829 6.32318 0.234464 7.4446 0.158416 9.09192C0.08108 10.7418 0.0656128 11.2664 0.0656128 15.4685C0.0656128 19.6706 0.0849469 20.1952 0.158416 21.8451C0.235753 23.4911 0.494829 24.6138 0.877644 25.5999C1.27206 26.6156 1.80181 27.4805 2.66153 28.3403C3.52126 29.1987 4.38355 29.7311 5.40182 30.1242C6.38914 30.5058 7.51052 30.7674 9.15649 30.8435C10.8063 30.9208 11.3309 30.9363 15.5329 30.9363C19.7348 30.9363 20.2594 30.9169 21.9092 30.8435C23.5552 30.7661 24.6779 30.5058 25.6639 30.1242C26.6796 29.7298 27.5445 29.1987 28.4042 28.3403C29.2626 27.4805 29.795 26.6195 30.1881 25.5999C30.5696 24.6138 30.8313 23.4911 30.9073 21.8451C30.9847 20.1952 31.0001 19.6706 31.0001 15.4685C31.0001 11.2664 30.9808 10.7418 30.9073 9.09192C30.83 7.44589 30.5696 6.3219 30.1881 5.33711C29.7937 4.32011 29.2626 3.45649 28.4042 2.59674C27.5445 1.73699 26.6835 1.20593 25.6639 0.812791C24.6779 0.429963 23.5552 0.169589 21.9092 0.0935391C20.2594 0.0162002 19.7348 0.000732422 15.5329 0.000732422ZM15.5329 2.78493C19.6613 2.78493 20.1537 2.80556 21.7842 2.87645C23.2923 2.94734 24.1108 3.19741 24.6547 3.41138C25.3791 3.69109 25.8921 4.02622 26.436 4.5663C26.9761 5.10768 27.3112 5.62198 27.5909 6.34639C27.8023 6.89034 28.0549 7.70884 28.1232 9.21695C28.1967 10.8488 28.2134 11.3386 28.2134 15.4685C28.2134 19.5984 28.1941 20.0895 28.1181 21.7201C28.0394 23.2282 27.7881 24.0467 27.5754 24.5906C27.2867 25.315 26.958 25.828 26.4167 26.372C25.8766 26.9121 25.3546 27.2472 24.6379 27.5269C24.0966 27.7383 23.2652 27.991 21.7572 28.0593C20.115 28.1327 19.6317 28.1495 15.4942 28.1495C11.3554 28.1495 10.8721 28.1302 9.23125 28.0541C7.7219 27.9755 6.89054 27.7241 6.34918 27.5115C5.61578 27.2227 5.1118 26.894 4.57174 26.3527C4.0291 25.8126 3.68237 25.2905 3.4117 24.5739C3.19902 24.0325 2.94897 23.2011 2.87034 21.693C2.81234 20.0689 2.79172 19.5675 2.79172 15.4492C2.79172 11.3296 2.81234 10.8269 2.87034 9.18343C2.94897 7.67533 3.19902 6.84522 3.4117 6.30385C3.68237 5.56913 4.0291 5.06643 4.57174 4.52377C5.1118 3.98368 5.61578 3.63566 6.34918 3.36626C6.89054 3.15229 7.70386 2.90094 9.21192 2.8236C10.8553 2.7656 11.3387 2.74626 15.4749 2.74626L15.5329 2.78493ZM15.5329 7.5258C11.144 7.5258 7.59043 11.0834 7.59043 15.4685C7.59043 19.8575 11.1479 23.4112 15.5329 23.4112C19.9217 23.4112 23.4753 19.8536 23.4753 15.4685C23.4753 11.0795 19.9178 7.5258 15.5329 7.5258ZM15.5329 20.6244C12.6843 20.6244 10.3771 18.3172 10.3771 15.4685C10.3771 12.6199 12.6843 10.3126 15.5329 10.3126C18.3814 10.3126 20.6886 12.6199 20.6886 15.4685C20.6886 18.3172 18.3814 20.6244 15.5329 20.6244ZM25.6459 7.21258C25.6459 8.23732 24.8132 9.06871 23.7898 9.06871C22.7651 9.06871 21.9337 8.23603 21.9337 7.21258C21.9337 6.18913 22.7664 5.35774 23.7898 5.35774C24.8119 5.35645 25.6459 6.18913 25.6459 7.21258Z" fill="#2F2F2F"/>
</g>
<defs>
<clipPath id="clip0">
<rect width="30.9345" height="30.9355" fill="white" transform="translate(0.0656128 0.000732422)"/>
</clipPath>
</defs>
</svg>
