<svg width="350" height="41" viewBox="0 0 350 41" fill="none" xmlns="http://www.w3.org/2000/svg">
<path fill-rule="evenodd" clip-rule="evenodd" d="M235.647 8.09513L235.385 8.35787C235.691 16.1877 235.778 24.0616 235.778 31.9355C235.778 34.4289 235.778 35.785 235.691 38.803L235.953 39.0657L238.622 39.0216L238.885 38.7593C238.622 32.6787 238.622 31.0168 238.578 24.9362L242.559 24.8925C243.127 25.5926 243.39 25.8991 246.54 30.0981C250.477 35.3477 250.914 35.9164 253.014 38.8471L253.451 39.1094C254.019 39.0657 254.544 39.0216 255.113 38.978H256.556L256.731 38.5843C255.989 37.6656 252.707 33.4666 252.051 32.5915C251.046 31.3227 250.082 30.0544 249.077 28.742L245.884 24.5425C247.809 24.2803 250.214 23.8866 252.269 21.7431C253.538 20.4749 254.588 18.4188 254.588 16.0568C254.588 15.3131 254.457 10.3262 249.514 8.57644C247.677 7.96369 245.621 7.92 241.947 7.96369L235.647 8.09513ZM238.535 10.4134C240.459 10.3699 242.034 10.2826 243.697 10.2826C246.146 10.2826 251.701 10.2826 251.701 16.1004C251.701 19.8185 249.296 21.1745 247.896 21.7431C245.927 22.5305 243.915 22.6178 238.535 22.662V10.4134Z" fill="#CE8F52"/>
<path fill-rule="evenodd" clip-rule="evenodd" d="M225.066 23.5802C225.11 29.3107 223.098 34.1662 219.292 36.1782C218.024 36.8788 216.231 37.3597 213.956 37.3597C204.857 37.3597 202.888 28.7857 202.888 23.5366C202.888 17.9374 205.075 13.957 207.132 12.1195C208.75 10.7199 211.156 9.80122 214.349 9.80122C215.531 9.80122 219.642 9.80122 222.573 13.782C224.848 16.9314 225.066 21.9183 225.066 23.5802ZM227.996 23.5802C227.996 14.3507 223.798 7.48278 214.174 7.48278C203.85 7.48278 199.958 15.5313 199.958 23.4929C199.958 28.5234 201.27 33.2038 204.638 36.3973C206.825 38.4971 209.975 39.6776 214.131 39.6776C222.836 39.6776 227.996 33.3793 227.996 23.5802Z" fill="#CE8F52"/>
<path fill-rule="evenodd" clip-rule="evenodd" d="M171.948 38.0898C171.902 38.0898 171.584 37.7262 171.493 37.635C170.81 36.8162 170.129 36.1791 169.491 35.4965C168.217 34.268 167.489 33.3129 166.989 32.7214C169.264 30.037 170.083 28.3988 170.538 27.5344V27.0795C169.854 26.3513 169.627 26.0784 168.9 25.0773L168.854 25.0321L168.49 25.0773V25.1229C167.671 27.1702 166.625 29.127 165.306 30.8558C162.939 28.0347 160.619 25.1684 158.389 22.3016C161.438 20.4821 165.396 18.1158 165.396 13.5206C165.396 9.78951 162.394 7.06001 158.344 7.06001C153.748 7.06001 150.792 10.3359 150.792 14.1121C150.792 15.7954 151.155 17.4792 154.567 21.7102C151.427 23.4395 147.287 25.7143 147.287 30.7647C147.287 35.1329 150.609 38.9547 156.16 38.9547C160.3 38.9547 163.167 36.6799 165.077 34.7232C166.442 36.3154 166.806 36.8162 167.944 38.4544L167.99 38.4995L168.398 38.6818C167.671 38.6818 169.127 38.5906 169.946 38.5906C170.765 38.545 171.175 38.545 171.721 38.545L171.948 38.0898ZM163.531 32.9032C162.348 34.1773 160.164 36.5888 156.523 36.5888C152.883 36.5888 150.336 34.1773 150.336 30.8558C150.336 26.8066 153.794 24.8955 155.977 23.6669L163.531 32.9032ZM156.888 20.4366C155.34 18.2981 153.521 15.8866 153.521 13.7029C153.521 11.6551 155.113 9.38031 158.116 9.38031C160.892 9.38031 162.621 11.291 162.621 13.5663C162.621 17.1602 159.027 19.2081 156.933 20.391L156.888 20.4366Z" fill="#231F20"/>
<path fill-rule="evenodd" clip-rule="evenodd" d="M5.52458 8.05137L1.32557 8.13862L1.01917 8.40137C1.28145 13.0818 1.28145 14.0879 1.36921 23.2736C1.36921 26.2927 1.45647 29.3106 1.45647 32.3291C1.45647 34.9534 1.41284 36.31 1.32557 38.8029L1.63149 39.0657L5.43731 39.0216H7.3184C12.9176 38.8907 16.3292 38.847 18.9541 36.4845C20.7038 34.9098 21.5788 32.635 21.5788 30.273C21.5788 26.6859 19.435 23.7993 15.5855 23.0114C14.8423 22.8804 14.0986 22.8369 13.3549 22.7927C14.1422 22.5741 14.886 22.3554 15.5855 22.0495C16.1984 21.7868 19.7414 19.9934 19.7414 15.2688C19.7414 14.3942 19.6541 9.97612 14.7546 8.53281C12.9612 7.96362 11.1679 7.96362 8.10575 8.00768L5.52458 8.05137ZM4.3872 36.6595C4.21266 32.2414 4.16854 30.5358 4.16854 24.2802C5.5687 24.2802 6.96836 24.2365 8.3244 24.2365C10.9487 24.2365 14.9301 24.2365 17.073 26.3363C18.6918 27.8673 18.6918 29.748 18.6918 30.3166C18.6918 32.9851 17.248 35.0848 14.6673 35.9599C12.7862 36.6159 11.2993 36.6159 4.3872 36.6595ZM4.16854 10.2826H4.64996C5.26229 10.2826 9.54906 10.2389 9.81183 10.2389C11.7802 10.2389 16.8979 10.2389 16.8979 15.7067C16.8979 18.9001 14.6236 20.5621 12.8735 21.2181C10.5114 22.0932 6.79335 22.0054 4.16854 21.9618V10.2826Z" fill="#CE8F52"/>
<path d="M51.752 8.05147L49.3895 8.09516L49.1271 8.40147C49.3021 13.8256 49.3458 15.0067 49.3458 24.1925C49.3458 29.0921 49.3458 30.6231 48.6026 32.6351C48.4712 33.0729 48.1212 33.9475 47.1588 34.9535C45.1468 37.0974 42.3906 37.2288 40.9033 37.2288C39.2412 37.2288 35.8727 37.0533 33.9921 33.7725C32.8983 31.8478 32.8547 29.4858 32.8547 25.0677C32.8547 19.7308 32.9857 14.3943 33.117 8.27016L32.8983 8.00778L30.0986 8.09516L29.8363 8.40147C29.9236 10.8949 29.9236 11.901 29.9236 13.607L29.8363 26.686C29.8363 29.6172 29.8363 32.6788 31.1922 35.0413C32.1106 36.6596 33.7734 38.0593 35.5232 38.7594C37.0106 39.3717 38.8912 39.6776 40.6846 39.6776C46.6774 39.6776 50.3959 36.5282 51.4456 32.6788C51.927 30.9291 51.9706 28.4798 51.9706 25.9864L52.0143 20.2121V8.31422L51.752 8.05147Z" fill="#CE8F52"/>
<path fill-rule="evenodd" clip-rule="evenodd" d="M66.4129 8.05137L62.2134 8.13862L61.9069 8.40137C62.1697 13.0818 62.1697 14.0879 62.2574 23.2736C62.2574 26.2927 62.3447 29.3106 62.3447 32.3291C62.3447 34.9534 62.3011 36.31 62.2134 38.8029L62.5197 39.0657L66.3256 39.0216H68.2062C73.8053 38.8907 77.2174 38.847 79.8423 36.4845C81.5919 34.9098 82.4666 32.635 82.4666 30.273C82.4666 26.6859 80.3232 23.7993 76.4737 23.0114C75.7301 22.8804 74.9869 22.8369 74.2432 22.7927C75.0304 22.5741 75.7741 22.3554 76.4737 22.0495C77.0866 21.7868 80.6297 19.9934 80.6297 15.2688C80.6297 14.3942 80.5419 9.97612 75.6428 8.53281C73.8495 7.96362 72.0557 7.96362 68.9941 8.00768L66.4129 8.05137ZM65.2755 36.6595C65.1004 32.2414 65.0568 30.5358 65.0568 24.2802C66.4564 24.2802 67.8565 24.2365 69.2126 24.2365C71.837 24.2365 75.8178 24.2365 77.9612 26.3363C79.5796 27.8673 79.5796 29.748 79.5796 30.3166C79.5796 32.9851 78.1362 35.0848 75.5551 35.9599C73.6744 36.6159 72.187 36.6159 65.2755 36.6595ZM65.0568 10.2826H65.5382C66.1505 10.2826 70.4372 10.2389 70.6996 10.2389C72.6679 10.2389 77.7861 10.2389 77.7861 15.7067C77.7861 18.9001 75.5114 20.5621 73.7617 21.2181C71.3996 22.0932 67.6815 22.0054 65.0568 21.9618V10.2826Z" fill="#CE8F52"/>
<path d="M108.178 38.8907L108.353 36.7469L108.178 36.4846L97.6799 36.6596H93.8739L93.6554 24.0616H97.8107C99.2982 24.0179 100.786 24.0179 102.273 24.0179C104.023 24.0179 105.16 24.0616 106.91 24.1053L107.304 23.8866L107.391 21.9183L107.128 21.6554L97.9421 21.7432H93.6117V10.4571L96.1051 10.5007L107.609 10.6321L107.959 10.3699L108.091 8.27014L107.828 8.05145L101.66 8.1387H93.8304L90.7682 8.09514L90.5055 8.35789C90.7682 16.2755 90.8992 24.1925 90.8992 32.1105C90.8992 34.429 90.8555 36.0909 90.8119 38.8907L91.1182 39.1967L94.6613 39.0216H108.003L108.178 38.8907Z" fill="#CE8F52"/>
<path d="M138.976 38.7156C138.67 31.4981 138.581 22.4869 138.581 15.138C138.581 12.3381 138.626 10.5006 138.67 8.22637L138.408 8.00768L136.089 8.09505L135.87 8.31412C136.22 19.5561 136.263 23.0991 136.351 36.7909L127.209 20.5621C125.065 16.9313 123.36 14.0442 122.004 11.6822C120.91 9.75743 120.866 9.66968 119.991 8.27006L119.597 8.00768L115.748 8.09505L115.486 8.3578C115.704 16.8876 115.836 21.8308 115.836 29.0042C115.836 32.285 115.792 35.5221 115.792 38.8029L116.054 39.0657L118.373 39.0216L118.635 38.7156C118.416 31.8913 118.373 30.9726 118.329 23.3178C118.285 18.9874 118.241 14.6566 118.198 10.3261L130.314 31.8041C132.721 35.9599 133.771 37.7528 134.471 38.847L134.821 39.0657L138.713 38.9779L138.976 38.7156Z" fill="#CE8F52"/>
<path d="M196.825 38.8907L197 36.8346L196.737 36.5282C192.977 36.6596 191.795 36.7032 186.152 36.7469H180.334L191.882 16.4499C194.07 12.5569 194.9 11.1571 196.607 8.35787L196.432 8.09513L190.92 8.13869H181.778L177.623 8.05144L177.359 8.31419L177.184 10.3699L177.446 10.6321L187.858 10.3699L192.189 10.3262C191.533 11.5508 191.227 12.1195 188.033 17.7188L183.134 26.3363C179.896 32.0664 179.066 33.5102 175.959 38.7593L176.134 39.1094L182.783 39.0216H192.67L196.562 39.1094L196.825 38.8907Z" fill="#CE8F52"/>
<path d="M222.527 4.20677C222.527 2.93808 222.527 3.32544 222.572 1.96938L222.265 1.61938C212.777 2.21177 207.483 1.80505 206.127 1.84862L205.777 2.19874C205.82 3.42336 205.82 2.99232 205.733 4.43613L206.083 4.78613C207.352 4.69789 221.04 4.60046 222.222 4.55689L222.527 4.20677Z" fill="#CE8F52"/>
<path d="M288.275 38.7593C289.15 34.3853 289.368 33.3352 290.55 28.1297L292.955 17.9373L295.274 8.40143L295.012 8.13869H292.605L292.343 8.35787L289.981 19.7743L286.219 36.966L281.844 18.5497L279.439 8.27012L279.133 8.05143C277.383 8.13869 276.989 8.13869 275.283 8.13869L274.977 8.40143L273.008 17.0191L268.371 37.0096L265.267 23.0992C263.604 15.5313 263.342 14.3065 262.16 8.27012L261.897 8.00775L259.142 8.13869L258.923 8.40143L262.247 22.2241L263.779 28.6548L266.097 38.9344L266.404 39.1094L270.077 39.0216L270.427 38.7593L273.227 26.686L277.119 9.71344L282.106 31.1045L283.988 38.803L284.294 39.1094L287.968 39.0216L288.275 38.7593Z" fill="#CE8F52"/>
<path d="M318.449 38.8907L318.624 36.7469L318.449 36.4846L307.95 36.6596H304.145L303.927 24.0616H308.082C309.569 24.0179 311.057 24.0179 312.544 24.0179C314.294 24.0179 315.431 24.0616 317.181 24.1053L317.574 23.8866L317.662 21.9183L317.399 21.6554L308.214 21.7432H303.883V10.4571L306.377 10.5007L317.881 10.6321L318.231 10.3699L318.362 8.27014L318.099 8.05145L311.932 8.1387H304.102L301.04 8.09514L300.777 8.35789C301.04 16.2755 301.17 24.1925 301.17 32.1105C301.17 34.429 301.127 36.0909 301.083 38.8907L301.39 39.1967L304.932 39.0216H318.274L318.449 38.8907Z" fill="#CE8F52"/>
<path d="M348.591 37.7093L348.373 38.1029C344.479 39.5031 341.243 39.6776 339.449 39.6776C337.481 39.6776 330.044 39.6776 325.889 32.8538C323.832 29.4858 323.527 25.5927 323.527 23.7552C323.527 16.4063 327.857 7.48278 339.143 7.48278C343.429 7.48278 345.704 8.62016 347.541 9.53835L347.76 9.88897L347.41 12.2073L347.103 12.3819C346.141 11.6381 345.529 11.1136 343.868 10.5885C342.511 10.1948 340.979 9.93253 339.274 9.93253C330.044 9.93253 326.5 16.625 326.5 23.5802C326.5 30.0981 329.957 37.2724 339.668 37.2724C342.948 37.2724 344.566 36.6596 345.704 36.2659V32.7665V30.1858C345.704 28.471 345.678 27.403 345.587 25.8486L338.071 26.0382L337.81 25.7755L337.985 23.7198L338.247 23.4575L342.403 23.5448L348.702 23.4333C348.892 23.4576 348.766 24.2366 348.766 24.2366C348.635 28.042 348.548 30.2731 348.548 33.3793C348.548 34.8226 348.548 36.2659 348.591 37.7093Z" fill="#CE8F52"/>
</svg>
