<svg width="30" height="30" viewBox="0 0 30 30" fill="none" xmlns="http://www.w3.org/2000/svg">
<path fill-rule="evenodd" clip-rule="evenodd" d="M13.4991 2.98311C7.69126 2.98311 2.98311 7.69126 2.98311 13.4991C2.98311 19.3069 7.69126 24.015 13.4991 24.015C16.3325 24.015 18.9043 22.8944 20.7952 21.0721C20.8346 21.0209 20.8777 20.9716 20.9247 20.9247C20.9716 20.8777 21.0209 20.8346 21.0721 20.7952C22.8944 18.9043 24.015 16.3325 24.015 13.4991C24.015 7.69126 19.3069 2.98311 13.4991 2.98311ZM24.0409 21.9316C25.8914 19.6212 26.9981 16.6894 26.9981 13.4991C26.9981 6.04374 20.9544 0 13.4991 0C6.04374 0 0 6.04374 0 13.4991C0 20.9544 6.04374 26.9981 13.4991 26.9981C16.6894 26.9981 19.6212 25.8914 21.9316 24.0409L27.4538 29.5631C28.0362 30.1456 28.9806 30.1456 29.5631 29.5631C30.1456 28.9806 30.1456 28.0362 29.5631 27.4538L24.0409 21.9316Z" fill="black"/>
</svg>
