<svg width="31" height="31" viewBox="0 0 31 31" fill="none" xmlns="http://www.w3.org/2000/svg">
<g clip-path="url(#clip0)">
<path d="M0.467219 14.0584C3.63191 12.5675 7.16456 11.3232 10.4653 10.0725C16.1438 8.02394 21.8449 6.01092 27.6035 4.13682C28.724 3.81751 30.7371 3.50528 30.9345 4.92532C30.8264 6.93545 30.3817 8.93381 30.0768 10.9322C29.3027 15.3267 28.4079 19.7063 27.5354 24.0864C27.2348 25.5454 25.0978 26.3006 23.7304 25.367C20.4444 23.4686 17.1331 21.5886 13.8889 19.6462C12.8263 18.7227 13.8117 17.3965 14.7608 16.737C17.4673 14.4558 20.3376 12.5176 22.9026 10.1185C23.5945 8.6895 21.5501 9.8938 20.8758 10.2628C17.1706 12.4466 13.556 14.7637 9.64957 16.683C7.65415 17.6224 5.32846 16.8196 3.33394 16.2954C1.54565 15.6621 -1.07493 15.0241 0.467038 14.0586L0.467219 14.0584Z" fill="#2F2F2F"/>
</g>
<defs>
<clipPath id="clip0">
<rect width="30.9345" height="30.9345" fill="white"/>
</clipPath>
</defs>
</svg>
