<svg width="32" height="31" viewBox="0 0 32 31" fill="none" xmlns="http://www.w3.org/2000/svg">
<g clip-path="url(#clip0)">
<path d="M30.9777 7.99425C30.7984 7.35172 30.4564 6.76631 29.9847 6.29462C29.513 5.82293 28.9276 5.48092 28.2851 5.30166C25.8748 4.6559 16.1691 4.6559 16.1691 4.6559C16.1691 4.6559 6.49045 4.64301 4.05436 5.30166C3.41191 5.48123 2.82667 5.82352 2.35521 6.29544C1.88374 6.76735 1.54201 7.35292 1.36306 7.99554C0.905754 10.4636 0.680068 12.969 0.688942 15.4791C0.681752 17.9802 0.90743 20.4764 1.36306 22.9356C1.54221 23.578 1.88402 24.1633 2.35547 24.635C2.82692 25.1067 3.41207 25.4488 4.05436 25.6282C6.46338 26.2753 16.1704 26.2753 16.1704 26.2753C16.1704 26.2753 25.8477 26.2753 28.2851 25.6282C28.9278 25.4488 29.5133 25.1066 29.985 24.6347C30.4567 24.1628 30.7986 23.5771 30.9777 22.9343C31.4233 20.4746 31.639 17.9788 31.6222 15.4791C31.641 12.9691 31.4252 10.4628 30.9777 7.99296V7.99425ZM13.0731 20.1103V10.8351L21.1495 15.4804L13.0731 20.1103Z" fill="#2F2F2F"/>
</g>
<defs>
<clipPath id="clip0">
<rect width="30.9345" height="30.9355" fill="white" transform="translate(0.68866 0.000732422)"/>
</clipPath>
</defs>
</svg>
