<?xml version="1.0" encoding="UTF-8" standalone="no"?>
<!DOCTYPE svg PUBLIC "-//W3C//DTD SVG 1.1//EN" "http://www.w3.org/Graphics/SVG/1.1/DTD/svg11.dtd">
<svg width="100%" height="100%" viewBox="0 0 1609 864" version="1.1" xmlns="http://www.w3.org/2000/svg" xmlns:xlink="http://www.w3.org/1999/xlink" xml:space="preserve" xmlns:serif="http://www.serif.com/" style="fill-rule:evenodd;clip-rule:evenodd;stroke-miterlimit:10;">
    <g transform="matrix(1,0,0,1,-1506.69,-2193.53)">
        <g transform="matrix(1.07116,0,0,5.61287,-410.058,-12672.8)">
            <g transform="matrix(4.08721,0,0,1.17595,1792.01,2648.74)">
                <g id="Слой-1" serif:id="Слой 1">
                    <g transform="matrix(1,0,0,1,0.2823,27.4778)">
                        <path d="M0,42.217C0,42.217 22.09,43.017 32.713,40.01C50.136,35.078 63.792,32.195 81.525,34.217C92.805,35.503 109.59,31.468 124.675,20.745C139.76,10.023 161.569,-1.246 194.828,-3.245C228.086,-5.244 245.897,5.66 272.613,12.203C299.33,18.746 305.327,21.29 310.052,28.196C314.778,35.103 316.912,45.28 365.46,47.461" style="fill:none;fill-rule:nonzero;stroke:rgb(16,71,154);stroke-width:0.14px;"/>
                    </g>
                    <g transform="matrix(1,0,0,1,0.2823,68.0321)">
                        <path d="M0,7.816C0,7.816 20.355,3.272 30.533,2.181C40.71,1.091 64.155,3.454 85.419,-1.454C106.683,-6.36 120.313,-15.266 142.123,-9.631C163.931,-3.997 184.105,7.998 199.007,13.813C213.911,19.629 221.362,22.537 234.993,20.719C248.624,18.902 264.98,19.432 279.156,21.257C293.332,23.082 302.055,20.174 306.781,17.811C311.506,15.449 337.267,7.634 365.46,12.359" style="fill:none;fill-rule:nonzero;stroke:rgb(16,71,154);stroke-width:0.14px;"/>
                    </g>
                    <g transform="matrix(1,0,0,1,153.127,73.4851)">
                        <path d="M0,-33.804C8.319,-37.92 16.175,-44.345 40.528,-45.799C64.882,-47.253 75.968,-39.619 85.601,-36.712C95.232,-33.804 104.952,-29.149 131.399,-25.08C143.213,-23.263 144.667,-22.718 146.303,-17.811C147.938,-12.904 151.392,-8.724 157.025,-5.997C162.659,-3.272 160.66,3.634 151.209,8.542C141.759,13.449 121.403,11.087 111.59,11.087C101.775,11.087 79.239,13.314 70.697,11.655C62.155,9.996 49.875,7.232 23.263,-5.816C-4.032,-19.198 -14.62,-26.571 0,-33.804Z" style="fill:none;fill-rule:nonzero;stroke:rgb(16,71,154);stroke-width:0.14px;"/>
                    </g>
                    <g transform="matrix(1,0,0,1,181.14,82.761)">
                        <path d="M0,-46.452C0,-46.452 12.334,-49.441 36.506,-44.716C60.678,-39.99 61.586,-31.266 84.486,-30.177C107.385,-29.086 108.113,-29.267 109.021,-23.997C109.93,-18.726 104.841,-16.001 112.111,-12.002C119.38,-8.004 112.837,-1.461 100.479,-1.461C88.121,-1.461 74.488,-2.276 62.859,0.357C51.23,2.989 41.414,1.629 31.962,-3.097C22.512,-7.822 23.103,-11.487 -1.614,-19.847C-26.331,-28.207 -15.448,-43.908 0,-46.452Z" style="fill:none;fill-rule:nonzero;stroke:rgb(16,71,154);stroke-width:0.14px;"/>
                    </g>
                    <g transform="matrix(1,0,0,1,199.761,82.0197)">
                        <path d="M0,-39.697C5.41,-39.728 17.097,-37.771 29.096,-32.554C46.726,-24.889 50.036,-23.183 56.232,-23.105C62.428,-23.027 72.78,-24.174 76.702,-22.11C80.623,-20.047 77.251,-17.85 81.016,-14.871C84.78,-11.89 85.878,-7.262 82.113,-5.538C78.349,-3.812 66.741,-4.518 58.585,-4.361C50.429,-4.204 39.057,0.031 29.724,-0.754C20.391,-1.538 18.43,-5.929 4.548,-11.655C-9.334,-17.38 -22.745,-23.654 -21.804,-30.164C-20.863,-36.674 -13.463,-39.618 0,-39.697Z" style="fill:none;fill-rule:nonzero;stroke:rgb(16,71,154);stroke-width:0.14px;"/>
                    </g>
                    <g transform="matrix(1,0,0,1,181.33,58.643)">
                        <path d="M0,-7.415C0.784,-9.178 3.776,-11.414 9.49,-13.061C17.781,-15.451 23.293,-13.768 28.234,-11.493C33.175,-9.219 36.469,-6.865 41.488,-5.846C46.508,-4.826 50.9,-4.042 50.272,-1.611C49.646,0.82 43.449,3.723 39.92,3.644C36.391,3.565 31.606,2.389 27.528,5.212C23.45,8.036 20.078,7.801 15.529,5.762C10.98,3.723 5.02,0.663 2.823,-0.513C0.627,-1.689 -0.784,-5.651 0,-7.415Z" style="fill:none;fill-rule:nonzero;stroke:rgb(16,71,154);stroke-width:0.14px;"/>
                    </g>
                    <g transform="matrix(1,0,0,1,188.937,59.935)">
                        <path d="M0,-8.707C1.778,-9.12 2.98,-9.252 5.647,-10.47C8.313,-11.686 10.901,-12.706 14.588,-10.902C18.274,-9.099 19.686,-6.981 23.528,-6.746C27.372,-6.511 34.431,-6.589 34.822,-2.746C35.215,1.097 27.999,-0.236 23.607,0.626C19.215,1.489 15.686,3.999 11.765,3.686C7.843,3.371 4.235,1.254 1.098,-0.394C-2.039,-2.04 -3.843,-3.608 -3.843,-5.727C-3.843,-7.844 -1.778,-8.294 0,-8.707Z" style="fill:none;fill-rule:nonzero;stroke:rgb(16,71,154);stroke-width:0.14px;"/>
                    </g>
                    <g transform="matrix(1,0,0,1,190.932,59.5903)">
                        <path d="M0,-6.5C0,-6.5 2.563,-9.188 8.063,-8.813C13.563,-8.437 12.688,-5.25 17.812,-4.688C22.937,-4.125 24.472,-3.937 24.437,-2.5C24.376,0.086 21.375,-2.049 16,0.319C10.625,2.688 9.25,1.819 4.062,-0.188C-1.125,-2.194 -3.652,-2.875 0,-6.5Z" style="fill:none;fill-rule:nonzero;stroke:rgb(16,71,154);stroke-width:0.14px;"/>
                    </g>
                    <g transform="matrix(-0.322222,-0.946664,-0.946664,0.322222,194.393,52.7892)">
                        <path d="M-3.574,-5.493C-5.994,-6.782 -8.621,-4.62 -6.928,-2.556C-5.235,-0.491 -4.339,-0.942 -3.574,1.307C-2.809,3.556 -1.266,3.764 -0.601,2.078C0.391,-0.439 -1.155,-4.204 -3.574,-5.493Z" style="fill:none;fill-rule:nonzero;stroke:rgb(16,71,154);stroke-width:0.16px;"/>
                    </g>
                    <g transform="matrix(1,0,0,1,228.557,77.1829)">
                        <path d="M0,-14.368C3.958,-17.488 6.937,-18.025 14.438,-15.34C21.937,-12.655 23.25,-11.843 32.063,-10.468C40.875,-9.093 40.25,-6.155 38.813,-4.655C37.375,-3.155 32.25,-3.593 26.312,-2.843C20.375,-2.093 10.938,-0.093 7.75,1.032C4.562,2.157 0.375,3.657 -3.875,1.345C-8.125,-0.968 -9.063,-5.155 -13.563,-6.593C-18.062,-8.03 -22.649,-7.288 -21.687,-9.843C-21.083,-11.447 -14.75,-12.343 -12.688,-12.218C-10.625,-12.093 -4.31,-10.971 0,-14.368Z" style="fill:none;fill-rule:nonzero;stroke:rgb(16,71,154);stroke-width:0.14px;"/>
                    </g>
                    <g transform="matrix(1,0,0,1,225.682,74.7578)">
                        <path d="M0,-6.022C2.014,-6.105 3.458,-6.272 5.667,-7.397C7.875,-8.522 11.167,-9.584 15.542,-8.802C19.917,-8.022 25.833,-5.813 28.042,-5.23C30.25,-4.647 30.25,-2.938 27.542,-2.022C24.833,-1.105 21.125,-1.188 16.25,0.52C11.375,2.228 6.375,3.562 3.542,3.312C0.708,3.062 -2,1.02 -4.167,-1.897C-6.333,-4.813 -3.164,-5.891 0,-6.022Z" style="fill:none;fill-rule:nonzero;stroke:rgb(16,71,154);stroke-width:0.14px;"/>
                    </g>
                    <g transform="matrix(1,0,0,1,229.913,72.8058)">
                        <path d="M0,-0.32C1.741,-0.149 3.02,-0.028 4.812,-1.111C6.603,-2.195 10.603,-3.726 12.895,-2.877C15.187,-2.028 13.728,0.139 11.978,0.805C10.228,1.472 6.145,2.347 3.145,2.805C0.145,3.264 -1.813,3.406 -2.98,2.722C-4.348,1.921 -3.397,-0.653 0,-0.32Z" style="fill:none;fill-rule:nonzero;stroke:rgb(16,71,154);stroke-width:0.14px;"/>
                    </g>
                    <g transform="matrix(1,0,0,1,235.159,72.271)">
                        <path d="M0,0.624C0.953,0.37 1.695,0.166 2.903,-0.449C4.112,-1.064 5.918,-1.759 6.273,-0.951C6.649,-0.097 6.19,0.492 3.856,0.958C1.523,1.424 -1.367,2.383 -1.742,1.883C-2.117,1.383 -0.954,0.877 0,0.624Z" style="fill:none;fill-rule:nonzero;stroke:rgb(16,71,154);stroke-width:0.14px;"/>
                    </g>
                    <g transform="matrix(1,0,0,1,0.2823,22.7132)">
                        <path d="M0,39.13C0,39.13 23.9,40.065 39.65,36.69C55.4,33.315 76.9,33.065 104.025,22.69C131.15,12.315 149.025,-3.935 179.775,-4.935C210.525,-5.935 241.275,2.19 252.4,4.19C263.525,6.19 292.525,12.779 303.9,19.609C315.275,26.44 320.025,34.432 329.775,38.623C339.525,42.815 351.395,45.065 365.46,44.565" style="fill:none;fill-rule:nonzero;stroke:rgb(16,71,154);stroke-width:0.14px;"/>
                    </g>
                    <g transform="matrix(1,0,0,1,365.743,72.0698)">
                        <path d="M0,11.083C0,11.083 -27.186,8.583 -49.186,14.708C-71.186,20.833 -74.936,22.708 -89.811,22.083C-104.686,21.458 -118.811,18.333 -144.061,19.958C-169.311,21.583 -181.698,13.012 -192.001,5.932C-211.616,-7.547 -226.889,-11.625 -252.061,-7.667C-277.979,-3.592 -277.704,3.291 -316.957,1.159C-345.449,-0.389 -365.46,9.293 -365.46,9.293" style="fill:none;fill-rule:nonzero;stroke:rgb(16,71,154);stroke-width:0.14px;"/>
                    </g>
                    <g transform="matrix(1,0,0,1,0.2823,82.927)">
                        <path d="M0,2.925C0,2.925 13.033,-2.855 35.942,-3.498C58.852,-4.14 70.128,-1.357 85.045,-3.927C99.961,-6.496 119.374,-12.562 140.285,-11.777C161.196,-10.992 170.974,1.426 185.961,7.492C200.949,13.559 203.589,15.487 224.929,13.131C246.268,10.776 256.688,14.773 268.821,14.987C280.954,15.2 293.435,15.48 308.004,9.876C333.055,0.241 352.038,2.046 365.46,2.827" style="fill:none;fill-rule:nonzero;stroke:rgb(16,71,154);stroke-width:0.14px;"/>
                    </g>
                    <g transform="matrix(1,0,0,1,0.2823,19.9523)">
                        <path d="M0,34.429C0,34.429 24.339,38.805 52.665,34.429C80.991,30.054 96.305,24.872 116.686,14.048C137.066,3.225 151.69,-6.562 176.676,-8.175C201.663,-9.787 213.753,-8.98 221.698,-7.138C229.643,-5.296 244.727,-0.69 258.314,0.231C271.902,1.153 275.816,3.455 286.64,8.637C297.463,13.818 305.375,20.15 316.923,27.521C329.008,35.235 337.425,43.987 365.46,44.216" style="fill:none;fill-rule:nonzero;stroke:rgb(16,71,154);stroke-width:0.14px;"/>
                    </g>
                    <g transform="matrix(1,0,0,1,0.2823,14.3129)">
                        <path d="M0,34.542C0,34.542 11.213,36.153 32.976,35.923C54.738,35.693 84.1,29.36 92.621,26.251C101.141,23.143 110.929,20.954 135.915,7.367C160.901,-6.22 171.407,-11.286 204.152,-9.329C236.897,-7.371 258.199,-1.614 268.332,1.38C278.464,4.373 290.209,9.555 311.396,24.063C332.583,38.571 346.522,45.828 365.46,45.597" style="fill:none;fill-rule:nonzero;stroke:rgb(16,71,154);stroke-width:0.14px;"/>
                    </g>
                    <g transform="matrix(1,0,0,1,365.743,1.2998)">
                        <path d="M0,48.936C0,48.936 -21.938,51.124 -34.604,43.87C-47.271,36.616 -57.173,24.872 -69.954,17.157C-82.735,9.442 -105.515,0.345 -141.968,-0.345C-178.421,-1.037 -190.741,-2.188 -212.734,7.024C-234.727,16.235 -251.078,32.356 -275.028,37.192C-298.978,42.028 -312.11,39.231 -329.722,34.077C-347.799,28.786 -365.46,38.228 -365.46,38.228" style="fill:none;fill-rule:nonzero;stroke:rgb(16,71,154);stroke-width:0.14px;"/>
                    </g>
                    <g transform="matrix(1,0,0,1,0.2823,87.7745)">
                        <path d="M0,3.223C0,3.223 9.946,-3.579 25.376,-2.02C40.805,-0.462 53.932,1.602 70.973,-2.02C88.015,-5.643 117.262,-12.551 137.182,-10.825C157.102,-9.097 173.107,1.841 186.118,7.599C199.129,13.356 206.614,15.774 224.922,14.968C243.23,14.161 272.823,13.356 281.574,13.356C290.325,13.356 303.912,9.556 314.39,5.871C324.868,2.187 340.074,-3.916 365.46,1.035" style="fill:none;fill-rule:nonzero;stroke:rgb(16,71,154);stroke-width:0.14px;"/>
                    </g>
                    <g transform="matrix(1,0,0,1,365.743,103.779)">
                        <path d="M0,-10.133C0,-10.133 -16.987,-16.005 -41.168,-8.061C-65.349,-0.115 -86.766,4.375 -111.867,5.066C-136.969,5.757 -159.652,9.672 -175.888,0C-192.123,-9.672 -204.098,-18.867 -227.012,-19.336C-249.926,-19.805 -276.064,-9.121 -306.001,-9.512C-335.939,-9.903 -350.42,-12.091 -365.46,-10.363" style="fill:none;fill-rule:nonzero;stroke:rgb(16,71,154);stroke-width:0.14px;"/>
                    </g>
                    <g transform="matrix(1,0,0,1,0.2823,119.45)">
                        <path d="M0,-22.131C0,-22.131 20.77,-18.665 39.769,-17.514C58.768,-16.362 87.669,-17.767 105.862,-22.131C124.055,-26.495 138.103,-27.301 152.841,-22.81C167.58,-18.319 194.869,-6.459 208.687,-2.199C222.504,2.061 247.721,5.17 269.369,-2.199C291.015,-9.568 317.959,-18.089 328.438,-19.701C338.916,-21.314 353.546,-21.357 365.46,-16.557" style="fill:none;fill-rule:nonzero;stroke:rgb(16,71,154);stroke-width:0.14px;"/>
                    </g>
                    <g transform="matrix(1,0,0,1,365.743,121.642)">
                        <path d="M0,-11.432C0,-11.432 -32.071,-16.943 -57.403,-10.379C-82.735,-3.816 -97.935,7.123 -115.206,8.044C-132.479,8.965 -143.302,9.656 -170.821,-0.707C-198.341,-11.071 -201.22,-21.088 -230.006,-18.209C-258.792,-15.33 -294.142,-9.228 -312.565,-9.574C-330.988,-9.918 -351.457,-15.28 -365.46,-13.981" style="fill:none;fill-rule:nonzero;stroke:rgb(16,71,154);stroke-width:0.14px;"/>
                    </g>
                </g>
            </g>
        </g>
    </g>
</svg>
