<?xml version="1.0" encoding="UTF-8" standalone="no"?>
<!DOCTYPE svg PUBLIC "-//W3C//DTD SVG 1.1//EN" "http://www.w3.org/Graphics/SVG/1.1/DTD/svg11.dtd">
<svg width="100%" height="100%" viewBox="0 0 17 17" version="1.1" xmlns="http://www.w3.org/2000/svg" xmlns:xlink="http://www.w3.org/1999/xlink" xml:space="preserve" xmlns:serif="http://www.serif.com/" style="fill-rule:evenodd;clip-rule:evenodd;stroke-linejoin:round;stroke-miterlimit:2;">
    <g transform="matrix(1,0,0,1,-7524.51,-7091.49)">
        <g transform="matrix(0.890869,0,0,2.74175,6760.13,7024.31)">
            <g transform="matrix(0.0725262,0,0,0.0235657,859.574,27.9864)">
                <path d="M0,-41.396L53.083,11.687L59.897,4.872L6.815,-48.211L0,-41.396ZM19.442,-60.838L72.525,-7.756L79.344,-14.575L26.261,-67.657L19.442,-60.838ZM38.889,-80.285L91.972,-27.203L98.787,-34.017L45.704,-87.1L38.889,-80.285ZM58.332,-99.728L111.414,-46.645L118.229,-53.459L65.146,-106.542L58.332,-99.728ZM84.589,-125.985L77.774,-119.17L130.857,-66.087L137.671,-72.902L84.589,-125.985ZM153.738,-14.811L184.651,-45.723L160.2,-70.174C125.663,-35.638 91.13,-1.105 56.593,33.432L81.044,57.883L111.974,26.953C125.894,13.033 139.304,-1.421 153.738,-14.811M130.886,33.297C156.992,59.402 153.554,57.948 180.472,83.216C180.86,83.578 181.259,83.919 181.672,84.247C184,86.078 186.672,87.404 189.556,88.107C192.127,88.734 194.818,88.865 197.44,88.49C199.499,88.191 201.51,87.585 203.387,86.685C208.594,84.188 212.619,79.482 214.26,73.943C214.871,71.876 215.157,69.722 215.102,67.57C215.047,65.251 214.601,62.936 213.78,60.769C212.745,58.016 211.116,55.553 209.049,53.461L160.065,4.118L130.886,33.297ZM-19.018,-47.625L-18.941,-47.71C13.735,-80.386 45.173,-114.351 79.108,-145.718C79.664,-146.155 80.22,-146.56 80.851,-146.879C82.312,-147.625 83.974,-147.957 85.603,-147.827C86.538,-147.75 87.459,-147.536 88.322,-147.178C89.185,-146.82 89.994,-146.324 90.705,-145.713C91.602,-144.952 92.33,-144.013 92.855,-142.973L150.299,-85.53L153.885,-89.116L154.424,-89.613C154.618,-89.764 154.811,-89.924 155.005,-90.067C155.611,-90.497 156.263,-90.846 156.95,-91.12C159.26,-92.016 161.891,-91.911 164.118,-90.821C164.783,-90.501 165.406,-90.088 165.966,-89.613C166.156,-89.457 166.333,-89.28 166.513,-89.116L203.592,-52.037C203.756,-51.856 203.933,-51.679 204.089,-51.49C204.565,-50.93 204.977,-50.307 205.297,-49.642C206.497,-47.188 206.5,-44.254 205.301,-41.8C204.973,-41.135 204.569,-40.512 204.089,-39.948C203.929,-39.763 203.756,-39.59 203.592,-39.409L172.701,-8.518C198.916,17.571 196.741,14.921 222.388,41.562C223.613,42.87 224.762,44.238 225.806,45.695C228.1,48.906 229.897,52.472 231.11,56.227C232.717,61.219 233.294,66.526 232.793,71.75C232.44,75.446 231.547,79.091 230.15,82.543C227.237,89.724 222.119,95.944 215.653,100.213C212.757,102.124 209.609,103.64 206.309,104.7C202.491,105.934 198.484,106.557 194.472,106.561C189.838,106.557 185.208,105.723 180.873,104.081C177.458,102.798 174.235,101.021 171.326,98.819C170.025,97.839 168.796,96.77 167.614,95.638C141.419,69.771 144.267,71.984 118.254,45.929L87.358,76.824C87.177,76.988 87.005,77.161 86.815,77.325C86.256,77.801 85.633,78.205 84.968,78.533C82.514,79.733 79.58,79.729 77.126,78.529C76.461,78.209 75.838,77.797 75.274,77.325C75.088,77.166 74.912,76.988 74.731,76.824L37.651,39.745C37.487,39.564 37.311,39.388 37.151,39.202C36.679,38.639 36.267,38.016 35.947,37.351C34.747,34.896 34.743,31.963 35.943,29.509C36.271,28.844 36.675,28.221 37.151,27.661C37.315,27.472 37.487,27.299 37.651,27.118L40.455,24.314L-18.941,-35.082C-18.962,-35.103 -18.984,-35.124 -19,-35.149C-19.392,-35.549 -19.741,-35.983 -20.053,-36.446C-20.255,-36.749 -20.44,-37.061 -20.604,-37.393C-20.928,-38.037 -21.168,-38.706 -21.324,-39.401C-21.476,-40.049 -21.556,-40.718 -21.556,-41.392C-21.556,-42.326 -21.404,-43.252 -21.122,-44.132C-21.013,-44.477 -20.882,-44.81 -20.73,-45.138C-20.701,-45.209 -20.671,-45.272 -20.638,-45.34C-20.516,-45.588 -20.381,-45.824 -20.238,-46.06C-20.015,-46.426 -19.767,-46.758 -19.501,-47.074C-19.383,-47.217 -19.262,-47.365 -19.14,-47.503L-19.018,-47.625Z" style="fill:rgb(9,191,146);"/>
            </g>
        </g>
    </g>
</svg>
