<svg width="400" height="400" viewBox="0 0 21 21" version="1.1" xmlns="http://www.w3.org/2000/svg" xmlns:xlink="http://www.w3.org/1999/xlink" xml:space="preserve" xmlns:serif="http://www.serif.com/">
  <g>
    <path d="M10.596,0.001l0.135,0.002l0.134,0.005l0.134,0.006l0.134,0.007l0.132,0.01l0.133,0.01l0.132,0.013l0.132,0.014l0.131,0.016l0.13,0.018l0.13,0.019l0.13,0.02l0.129,0.023l0.128,0.023l0.128,0.026l0.128,0.027l0.126,0.028l0.127,0.03l0.125,0.032l0.125,0.033l0.125,0.034l0.123,0.036l0.123,0.038l0.123,0.039l0.122,0.04l0.121,0.042l0.12,0.043l0.12,0.045l0.119,0.046l0.119,0.048l0.117,0.049l0.117,0.05l0.117,0.052l0.115,0.053l0.115,0.054l0.114,0.056l0.113,0.057l0.112,0.059l0.112,0.059l0.111,0.061l0.109,0.063l0.11,0.063l0.108,0.065l0.107,0.067l0.107,0.067l0.106,0.069l0.104,0.07l0.104,0.071l0.103,0.072l0.102,0.074l0.101,0.074l0.101,0.076l0.099,0.077l0.098,0.079l0.098,0.079l0.096,0.081l0.096,0.081l0.094,0.083l0.093,0.084l0.093,0.085l0.091,0.086l0.09,0.087l0.09,0.088l0.088,0.09l0.087,0.09l0.086,0.091l0.085,0.093l0.084,0.093l0.083,0.095l0.082,0.095l0.08,0.096l0.08,0.098l0.078,0.098l0.077,0.099l0.076,0.101l0.075,0.101l0.073,0.102l0.072,0.103l0.072,0.104l0.07,0.105l0.068,0.105l0.068,0.107l0.066,0.107l0.065,0.109l0.063,0.109l0.063,0.11l0.061,0.11l0.06,0.112l0.058,0.112l0.057,0.114l0.056,0.113l0.054,0.115l0.054,0.116l0.051,0.116l0.051,0.117l0.049,0.117l0.047,0.119l0.046,0.119l0.045,0.12l0.043,0.12l0.042,0.121l0.041,0.122l0.039,0.123l0.037,0.123l0.036,0.124l0.035,0.124l0.033,0.125l0.031,0.126l0.03,0.126l0.029,0.127l0.027,0.127l0.025,0.128l0.024,0.128l0.022,0.129l0.021,0.13l0.019,0.13l0.017,0.131l0.016,0.131l0.014,0.131l0.013,0.132l0.011,0.133l0.009,0.133l0.008,0.133l0.006,0.134l0.004,0.134l0.002,0.135l0.001,0.135l-0.001,0.135l-0.002,0.135l-0.004,0.134l-0.006,0.134l-0.008,0.134l-0.009,0.132l-0.011,0.133l-0.013,0.132l-0.014,0.132l-0.016,0.131l-0.017,0.13l-0.019,0.13l-0.021,0.13l-0.022,0.129l-0.024,0.128l-0.025,0.128l-0.027,0.128l-0.029,0.126l-0.03,0.127l-0.031,0.125l-0.033,0.125l-0.035,0.125l-0.036,0.123l-0.037,0.123l-0.039,0.123l-0.041,0.122l-0.042,0.121l-0.043,0.12l-0.045,0.12l-0.046,0.119l-0.047,0.119l-0.049,0.117l-0.051,0.117l-0.051,0.117l-0.054,0.115l-0.054,0.115l-0.056,0.114l-0.057,0.113l-0.058,0.112l-0.06,0.112l-0.061,0.111l-0.063,0.109l-0.063,0.11l-0.065,0.108l-0.066,0.107l-0.068,0.107l-0.068,0.106l-0.07,0.104l-0.072,0.104l-0.072,0.103l-0.073,0.102l-0.075,0.101l-0.076,0.101l-0.077,0.099l-0.078,0.098l-0.08,0.098l-0.08,0.096l-0.082,0.096l-0.083,0.094l-0.084,0.093l-0.085,0.093l-0.086,0.091l-0.087,0.09l-0.088,0.09l-0.09,0.088l-0.09,0.087l-0.091,0.086l-0.093,0.085l-0.093,0.084l-0.094,0.083l-0.096,0.082l-0.096,0.08l-0.098,0.08l-0.098,0.078l-0.099,0.077l-0.101,0.076l-0.101,0.075l-0.102,0.073l-0.103,0.072l-0.104,0.072l-0.104,0.07l-0.106,0.068l-0.107,0.068l-0.107,0.066l-0.108,0.065l-0.11,0.063l-0.109,0.063l-0.111,0.061l-0.112,0.06l-0.112,0.058l-0.113,0.057l-0.114,0.056l-0.115,0.054l-0.115,0.054l-0.117,0.051l-0.117,0.051l-0.117,0.049l-0.119,0.047l-0.119,0.046l-0.12,0.045l-0.12,0.043l-0.121,0.042l-0.122,0.041l-0.123,0.039l-0.123,0.037l-0.123,0.036l-0.125,0.035l-0.125,0.033l-0.125,0.031l-0.127,0.03l-0.126,0.029l-0.128,0.027l-0.128,0.025l-0.128,0.024l-0.129,0.022l-0.13,0.021l-0.13,0.019l-0.13,0.017l-0.131,0.016l-0.132,0.014l-0.132,0.013l-0.133,0.011l-0.132,0.009l-0.134,0.008l-0.134,0.006l-0.134,0.004l-0.135,0.002l-0.135,0.001l-0.135,-0.001l-0.135,-0.002l-0.134,-0.004l-0.134,-0.006l-0.133,-0.008l-0.133,-0.009l-0.133,-0.011l-0.132,-0.013l-0.131,-0.014l-0.131,-0.016l-0.131,-0.017l-0.13,-0.019l-0.13,-0.021l-0.129,-0.022l-0.128,-0.024l-0.128,-0.025l-0.127,-0.027l-0.127,-0.029l-0.126,-0.03l-0.126,-0.031l-0.125,-0.033l-0.124,-0.035l-0.124,-0.036l-0.123,-0.037l-0.123,-0.039l-0.122,-0.041l-0.121,-0.042l-0.12,-0.043l-0.12,-0.045l-0.119,-0.046l-0.119,-0.047l-0.117,-0.049l-0.117,-0.051l-0.116,-0.051l-0.116,-0.054l-0.115,-0.054l-0.113,-0.056l-0.114,-0.057l-0.112,-0.058l-0.112,-0.06l-0.11,-0.061l-0.11,-0.063l-0.109,-0.063l-0.109,-0.065l-0.107,-0.066l-0.107,-0.068l-0.105,-0.068l-0.105,-0.07l-0.104,-0.072l-0.103,-0.072l-0.102,-0.073l-0.101,-0.075l-0.101,-0.076l-0.099,-0.077l-0.098,-0.078l-0.098,-0.08l-0.096,-0.08l-0.095,-0.082l-0.095,-0.083l-0.093,-0.084l-0.093,-0.085l-0.091,-0.086l-0.09,-0.087l-0.09,-0.088l-0.088,-0.09l-0.087,-0.09l-0.086,-0.091l-0.085,-0.093l-0.084,-0.093l-0.083,-0.094l-0.081,-0.096l-0.081,-0.096l-0.079,-0.098l-0.079,-0.098l-0.077,-0.099l-0.076,-0.101l-0.074,-0.101l-0.074,-0.102l-0.072,-0.103l-0.071,-0.104l-0.07,-0.104l-0.069,-0.106l-0.067,-0.107l-0.067,-0.107l-0.065,-0.108l-0.063,-0.11l-0.063,-0.109l-0.061,-0.111l-0.059,-0.112l-0.059,-0.112l-0.057,-0.113l-0.056,-0.114l-0.054,-0.115l-0.053,-0.115l-0.052,-0.117l-0.05,-0.117l-0.049,-0.117l-0.048,-0.119l-0.046,-0.119l-0.045,-0.12l-0.043,-0.12l-0.042,-0.121l-0.04,-0.122l-0.039,-0.123l-0.038,-0.123l-0.036,-0.123l-0.034,-0.125l-0.033,-0.125l-0.032,-0.125l-0.03,-0.127l-0.028,-0.126l-0.027,-0.128l-0.026,-0.128l-0.023,-0.128l-0.023,-0.129l-0.02,-0.13l-0.019,-0.13l-0.018,-0.13l-0.016,-0.131l-0.014,-0.132l-0.013,-0.132l-0.01,-0.133l-0.01,-0.132l-0.007,-0.134l-0.006,-0.134l-0.005,-0.134l-0.002,-0.135l-0.001,-0.135l0.001,-0.135l0.002,-0.135l0.005,-0.134l0.006,-0.134l0.007,-0.133l0.01,-0.133l0.01,-0.133l0.013,-0.132l0.014,-0.131l0.016,-0.131l0.018,-0.131l0.019,-0.13l0.02,-0.13l0.023,-0.129l0.023,-0.128l0.026,-0.128l0.027,-0.127l0.028,-0.127l0.03,-0.126l0.032,-0.126l0.033,-0.125l0.034,-0.124l0.036,-0.124l0.038,-0.123l0.039,-0.123l0.04,-0.122l0.042,-0.121l0.043,-0.12l0.045,-0.12l0.046,-0.119l0.048,-0.119l0.049,-0.117l0.05,-0.117l0.052,-0.116l0.053,-0.116l0.054,-0.115l0.056,-0.113l0.057,-0.114l0.059,-0.112l0.059,-0.112l0.061,-0.11l0.063,-0.11l0.063,-0.109l0.065,-0.109l0.067,-0.107l0.067,-0.107l0.069,-0.105l0.07,-0.105l0.071,-0.104l0.072,-0.103l0.074,-0.102l0.074,-0.101l0.076,-0.101l0.077,-0.099l0.079,-0.098l0.079,-0.098l0.081,-0.096l0.081,-0.095l0.083,-0.095l0.084,-0.093l0.085,-0.093l0.086,-0.091l0.087,-0.09l0.088,-0.09l0.09,-0.088l0.09,-0.087l0.091,-0.086l0.093,-0.085l0.093,-0.084l0.095,-0.083l0.095,-0.081l0.096,-0.081l0.098,-0.079l0.098,-0.079l0.099,-0.077l0.101,-0.076l0.101,-0.074l0.102,-0.074l0.103,-0.072l0.104,-0.071l0.105,-0.07l0.105,-0.069l0.107,-0.067l0.107,-0.067l0.109,-0.065l0.109,-0.063l0.11,-0.063l0.11,-0.061l0.112,-0.059l0.112,-0.059l0.114,-0.057l0.113,-0.056l0.115,-0.054l0.116,-0.053l0.116,-0.052l0.117,-0.05l0.117,-0.049l0.119,-0.048l0.119,-0.046l0.12,-0.045l0.12,-0.043l0.121,-0.042l0.122,-0.04l0.123,-0.039l0.123,-0.038l0.124,-0.036l0.124,-0.034l0.125,-0.033l0.126,-0.032l0.126,-0.03l0.127,-0.028l0.127,-0.027l0.128,-0.026l0.128,-0.023l0.129,-0.023l0.13,-0.02l0.13,-0.019l0.131,-0.018l0.131,-0.016l0.131,-0.014l0.132,-0.013l0.133,-0.01l0.133,-0.01l0.133,-0.007l0.134,-0.006l0.134,-0.005l0.135,-0.002l0.135,-0.001l0.135,0.001Zm-0.25,1.6l-0.114,0.002l-0.115,0.004l-0.113,0.005l-0.112,0.006l-0.06,0.004l-0.054,0.004l-0.103,0.009l-0.008,0l-0.112,0.011l-0.087,0.009l-0.026,0.003l-0.06,0.007l-0.051,0.006l-0.109,0.015l-0.11,0.016l-0.111,0.018l-0.109,0.019l-0.047,0.008l-0.062,0.012l-0.109,0.021l-0.105,0.023l-0.103,0.023l-0.006,0.001l-0.105,0.025l-0.05,0.013l-0.058,0.014l-0.108,0.029l-0.105,0.029l-0.103,0.03l-0.103,0.031l-0.101,0.032l-0.071,0.024l-0.034,0.011l-0.105,0.037l-0.101,0.036l-0.1,0.037l-0.104,0.04l-0.053,0.022l-0.047,0.018l-0.097,0.041l-0.054,0.023l-0.044,0.019l-0.1,0.045l-0.098,0.044l-0.095,0.046l-0.039,0.019l-0.062,0.03l-0.094,0.048l-0.094,0.048l-0.067,0.036l-0.026,0.014l-0.093,0.051l-0.096,0.056l-0.092,0.053l-0.09,0.054l-0.099,0.06l-0.082,0.052l-0.035,0.023l-0.052,0.035l-0.094,0.062l-0.088,0.06l-0.037,0.026l-0.049,0.035l-0.086,0.062l-0.074,0.055l-0.011,0.007l-0.091,0.069l-0.037,0.029l-0.047,0.036l-0.077,0.061l-0.016,0.013l-0.065,0.054l-0.06,0.05l-0.027,0.023l-0.082,0.069l-0.079,0.07l-0.08,0.071l-0.034,0.032l-0.12,0.113l-0.095,0.091l-0.051,0.051l-0.081,0.083l-0.075,0.077l-0.073,0.077l-0.073,0.079l-0.071,0.08l-0.072,0.08l-0.037,0.044l-0.026,0.03l-0.068,0.082l-0.068,0.084l-0.066,0.084l-0.035,0.044l-0.038,0.049l-0.06,0.078l-0.057,0.078l-0.044,0.063l-0.025,0.034l-0.063,0.089l-0.055,0.08l-0.06,0.09l-0.065,0.101l-0.054,0.083l-0.019,0.031l-0.031,0.052l-0.062,0.103l-0.02,0.034l-0.083,0.147l-0.083,0.149l-0.017,0.034l-0.051,0.098l-0.05,0.098l-0.049,0.1l-0.042,0.089l-0.046,0.101l-0.046,0.102l-0.024,0.056l-0.02,0.046l-0.039,0.093l-0.036,0.092l-0.045,0.116l-0.041,0.106l-0.034,0.095l-0.021,0.061l-0.012,0.034l-0.031,0.096l-0.034,0.108l-0.037,0.121l-0.029,0.098l-0.022,0.079l-0.005,0.019l-0.03,0.111l-0.024,0.099l-0.027,0.113l-0.026,0.113l-0.021,0.101l-0.02,0.102l-0.008,0.045l-0.013,0.07l-0.02,0.115l-0.017,0.104l-0.015,0.104l-0.015,0.118l-0.015,0.117l-0.002,0.018l-0.01,0.088l-0.01,0.099l0,0.008l-0.009,0.107l-0.007,0.12l-0.008,0.121l-0.005,0.108l-0.002,0.068l-0.001,0.042l-0.001,0.071l-0.001,0.038l0,0.246l0.002,0.11l0.003,0.109l0.005,0.109l0.008,0.12l0.007,0.12l0.009,0.107l0.01,0.107l0.012,0.106l0.015,0.118l0.015,0.117l0.015,0.104l0.017,0.104l0.02,0.115l0.021,0.115l0.02,0.102l0.021,0.101l0.026,0.113l0.027,0.113l0.024,0.099l0.03,0.111l0.027,0.099l0.029,0.097l0.037,0.121l0.034,0.109l0.031,0.095l0.033,0.096l0.034,0.094l0.041,0.106l0.045,0.116l0.036,0.093l0.039,0.092l0.044,0.102l0.046,0.102l0.046,0.101l0.042,0.09l0.049,0.099l0.05,0.099l0.051,0.097l0.017,0.034l0.083,0.15l0.083,0.146l0.02,0.034l0.062,0.103l0.05,0.083l0.054,0.083l0.065,0.101l0.06,0.09l0.055,0.081l0.063,0.088l0.069,0.097l0.057,0.078l0.06,0.078l0.073,0.093l0.066,0.084l0.068,0.084l0.068,0.082l0.063,0.074l0.072,0.08l0.071,0.08l0.073,0.079l0.073,0.078l0.075,0.076l0.081,0.083l0.052,0.052l0.094,0.09l0.116,0.11l0.038,0.035l0.08,0.071l0.079,0.07l0.082,0.069l0.087,0.074l0.081,0.066l0.077,0.061l0.084,0.065l0.091,0.069l0.085,0.063l0.086,0.061l0.086,0.061l0.088,0.06l0.094,0.063l0.087,0.057l0.084,0.053l0.186,0.113l0.093,0.053l0.096,0.056l0.093,0.051l0.093,0.05l0.094,0.049l0.094,0.047l0.101,0.049l0.095,0.046l0.098,0.044l0.1,0.046l0.098,0.041l0.097,0.041l0.1,0.04l0.104,0.04l0.1,0.037l0.101,0.037l0.105,0.036l0.105,0.035l0.101,0.032l0.103,0.032l0.103,0.03l0.105,0.029l0.108,0.028l0.108,0.027l0.105,0.025l0.109,0.025l0.105,0.022l0.109,0.021l0.109,0.021l0.109,0.018l0.111,0.018l0.111,0.016l0.108,0.015l0.111,0.013l0.113,0.012l0.112,0.011l0.111,0.009l0.114,0.008l0.112,0.007l0.113,0.005l0.115,0.003l0.114,0.002l0.116,0.001l0.114,-0.001l0.04,0l0.076,-0.002l0.113,-0.003l0.113,-0.005l0.055,-0.004l0.057,-0.003l0.055,-0.004l0.059,-0.004l0.111,-0.009l0.112,-0.011l0.113,-0.012l0.111,-0.013l0.11,-0.015l0.111,-0.016l0.107,-0.017l0.113,-0.02l0.109,-0.02l0.107,-0.021l0.107,-0.022l0.104,-0.024l0.111,-0.027l0.093,-0.023l0.014,-0.003l0.103,-0.028l0.108,-0.029l0.041,-0.012l0.062,-0.018l0.103,-0.032l0.101,-0.032l0.105,-0.035l0.017,-0.006l0.088,-0.03l0.101,-0.037l0.1,-0.037l0.104,-0.04l0.099,-0.04l0.098,-0.041l0.067,-0.028l0.031,-0.013l0.1,-0.046l0.098,-0.044l0.094,-0.046l0.046,-0.022l0.056,-0.027l0.094,-0.047l0.094,-0.049l0.093,-0.05l0.099,-0.054l0.028,-0.016l0.064,-0.037l0.085,-0.049l0.043,-0.026l0.052,-0.032l0.085,-0.052l0.012,-0.007l0.084,-0.053l0.047,-0.031l0.04,-0.026l0.094,-0.063l0.039,-0.026l0.049,-0.034l0.086,-0.061l0.04,-0.028l0.046,-0.033l0.085,-0.063l0.091,-0.069l0.084,-0.065l0.077,-0.061l0.081,-0.066l0.087,-0.074l0.082,-0.069l0.079,-0.07l0.08,-0.071l0.058,-0.054l0.02,-0.018l0.078,-0.073l0.028,-0.027l0.123,-0.122l0.094,-0.095l0.048,-0.05l0.08,-0.085l0.073,-0.079l0.071,-0.08l0.072,-0.08l0.063,-0.074l0.024,-0.029l0.044,-0.053l0.074,-0.092l0.036,-0.044l0.091,-0.117l0.063,-0.084l0.066,-0.089l0.09,-0.125l0.03,-0.042l0.067,-0.099l0.026,-0.039l0.087,-0.133l0.087,-0.137l0.023,-0.039l0.062,-0.103l0.056,-0.095l0.049,-0.086l0.047,-0.086l0.051,-0.097l0.057,-0.108l0.021,-0.042l0.024,-0.046l0.043,-0.089l0.052,-0.111l0.043,-0.09l0.039,-0.091l0.031,-0.072l0.018,-0.041l0.044,-0.104l0.018,-0.044l0.02,-0.048l0.036,-0.094l0.038,-0.105l0.039,-0.106l0.033,-0.096l0.014,-0.042l0.021,-0.065l0.025,-0.077l0.01,-0.032l0.03,-0.097l0.011,-0.037l0.017,-0.06l0.03,-0.111l0.03,-0.111l0.024,-0.099l0.026,-0.113l0.013,-0.054l0.014,-0.059l0.021,-0.101l0.02,-0.102l0.021,-0.115l0.02,-0.115l0.002,-0.01l0.015,-0.094l0.015,-0.104l0.015,-0.117l0.007,-0.05l0.008,-0.068l0.012,-0.106l0.01,-0.107l0.001,-0.014l0.008,-0.093l0.007,-0.12l0.008,-0.12l0.005,-0.109l0.002,-0.057l0.001,-0.052l0.002,-0.123l0.002,-0.11l-0.002,-0.11l-0.002,-0.122l-0.003,-0.11l-0.005,-0.108l-0.008,-0.121l-0.007,-0.12l-0.009,-0.107l-0.01,-0.107l-0.012,-0.106l-0.007,-0.058l-0.008,-0.059l-0.015,-0.118l-0.008,-0.057l-0.007,-0.047l-0.017,-0.104l-0.02,-0.115l-0.011,-0.06l-0.01,-0.055l-0.02,-0.102l-0.021,-0.101l-0.027,-0.113l-0.026,-0.113l-0.024,-0.099l-0.03,-0.111l-0.03,-0.11l-0.028,-0.098l-0.03,-0.097l-0.035,-0.109l-0.024,-0.074l-0.011,-0.033l-0.033,-0.095l-0.039,-0.107l-0.038,-0.105l-0.036,-0.093l-0.026,-0.064l-0.012,-0.029l-0.044,-0.104l-0.049,-0.113l-0.039,-0.091l-0.043,-0.09l-0.052,-0.111l-0.043,-0.089l-0.045,-0.088l-0.057,-0.108l-0.051,-0.097l-0.047,-0.086l-0.049,-0.086l-0.056,-0.095l-0.062,-0.103l-0.016,-0.026l-0.007,-0.012l-0.087,-0.138l-0.087,-0.133l-0.026,-0.039l-0.067,-0.098l-0.03,-0.043l-0.09,-0.125l-0.066,-0.089l-0.063,-0.084l-0.091,-0.117l-0.036,-0.044l-0.074,-0.092l-0.068,-0.082l-0.063,-0.074l-0.072,-0.08l-0.071,-0.08l-0.073,-0.079l-0.08,-0.084l-0.048,-0.051l-0.094,-0.095l-0.122,-0.121l-0.029,-0.028l-0.078,-0.073l-0.078,-0.072l-0.058,-0.052l-0.022,-0.019l-0.079,-0.07l-0.082,-0.069l-0.087,-0.073l-0.081,-0.067l-0.077,-0.061l-0.023,-0.018l-0.061,-0.047l-0.091,-0.069l-0.085,-0.062l-0.034,-0.025l-0.052,-0.037l-0.086,-0.061l-0.036,-0.024l-0.052,-0.036l-0.094,-0.062l-0.087,-0.058l-0.082,-0.052l-0.099,-0.06l-0.096,-0.058l-0.084,-0.049l-0.093,-0.052l-0.098,-0.055l-0.093,-0.05l-0.094,-0.048l-0.094,-0.048l-0.042,-0.02l-0.06,-0.029l-0.094,-0.046l-0.022,-0.01l-0.076,-0.034l-0.039,-0.018l-0.061,-0.027l-0.098,-0.042l-0.098,-0.041l-0.099,-0.04l-0.06,-0.023l-0.044,-0.017l-0.1,-0.037l-0.101,-0.036l-0.105,-0.037l-0.105,-0.035l-0.101,-0.032l-0.103,-0.031l-0.103,-0.03l-0.016,-0.005l-0.092,-0.025l-0.104,-0.028l-0.05,-0.012l-0.056,-0.014l-0.111,-0.027l-0.104,-0.023l-0.107,-0.023l-0.107,-0.021l-0.109,-0.02l-0.113,-0.019l-0.107,-0.018l-0.111,-0.016l-0.11,-0.015l-0.111,-0.013l-0.113,-0.012l-0.058,-0.006l-0.054,-0.005l-0.111,-0.009l-0.114,-0.008l-0.112,-0.006l-0.113,-0.005l-0.113,-0.004l-0.116,-0.002l-0.114,-0.001l-0.116,0.001Z" style="fill:#2291e6;"/>
    <path d="M7.688,7.688l5.546,5.546" style="fill:none;stroke:#2291e6;stroke-width:1.6;stroke-linecap:round;"/>
    <path d="M13.234,7.688l-5.546,5.546" style="fill:none;stroke:#2291e6;stroke-width:1.6;stroke-linecap:round;"/>
  </g>
</svg>