<?xml version="1.0" encoding="UTF-8" standalone="no"?>
<!DOCTYPE svg PUBLIC "-//W3C//DTD SVG 1.1//EN" "http://www.w3.org/Graphics/SVG/1.1/DTD/svg11.dtd">
<svg width="100%" height="100%" viewBox="0 0 36 27" version="1.1" xmlns="http://www.w3.org/2000/svg" xmlns:xlink="http://www.w3.org/1999/xlink" xml:space="preserve" xmlns:serif="http://www.serif.com/" style="fill-rule:evenodd;clip-rule:evenodd;stroke-miterlimit:10;">
    <g transform="matrix(1,0,0,1,-8008.89,-68.5038)">
        <g transform="matrix(0.890869,0,0,2.74175,6761.85,8.02058)">
            <g transform="matrix(1,0,0,1,29.0164,-3.66644)">
                <g transform="matrix(1.1225,0,0,0.364731,1297.27,10.3617)">
                    <path d="M73.03,49.664L76.139,49.664L79.346,61.13L90.034,61.13L93.726,52.968L80.22,52.968" style="fill:none;stroke:white;stroke-width:1.5px;"/>
                </g>
                <g transform="matrix(1.1225,0,0,0.364731,1297.27,10.3617)">
                    <path d="M82.518,64.693C82.518,65.462 81.895,66.085 81.126,66.085C80.358,66.085 79.735,65.462 79.735,64.693C79.735,63.924 80.358,63.3 81.126,63.3C81.895,63.3 82.518,63.924 82.518,64.693" style="fill:white;"/>
                </g>
                <g transform="matrix(1.1225,0,0,0.364731,1297.27,10.3617)">
                    <path d="M89.31,64.693C89.31,65.462 88.687,66.085 87.918,66.085C87.149,66.085 86.526,65.462 86.526,64.693C86.526,63.924 87.149,63.3 87.918,63.3C88.687,63.3 89.31,63.924 89.31,64.693" style="fill:white;"/>
                </g>
            </g>
        </g>
    </g>
</svg>
