<?xml version="1.0" encoding="UTF-8" standalone="no"?><!DOCTYPE svg PUBLIC "-//W3C//DTD SVG 1.1//EN" "http://www.w3.org/Graphics/SVG/1.1/DTD/svg11.dtd"><svg width="100%" height="100%" viewBox="0 0 20 21" version="1.1" xmlns="http://www.w3.org/2000/svg" xmlns:xlink="http://www.w3.org/1999/xlink" xml:space="preserve" xmlns:serif="http://www.serif.com/" style="fill-rule:evenodd;clip-rule:evenodd;stroke-linejoin:round;stroke-miterlimit:2;"><g><path d="M19.429,9.845l-9.295,-9.295c-0.366,-0.367 -0.846,-0.55 -1.326,-0.55c-0.48,0 -0.96,0.183 -1.326,0.55l-5.09,5.089c-0.732,0.732 -0.732,1.943 0,2.675l0.844,0.867l1.946,0l-1.817,-1.84c-0.127,-0.128 -0.146,-0.288 -0.146,-0.365c0,-0.077 0.019,-0.231 0.146,-0.359l0.672,-0.651l3.194,3.215l3.064,0l-4.726,-4.75l2.886,-2.897c0.127,-0.128 0.276,-0.152 0.353,-0.152c0.077,0 0.226,0.016 0.353,0.143l9.295,9.295c0.128,0.127 0.147,0.274 0.147,0.352c0,0.077 -0.033,0.225 -0.16,0.353l-0.527,0.514l0,1.946l1.5,-1.487c0.732,-0.733 0.746,-1.92 0.013,-2.653Z" style="fill:#fff;fill-rule:nonzero;"/><path d="M15.068,10.052l-13.147,0c-1.035,0 -1.921,0.834 -1.921,1.87l0,4.972l16.919,0l0,-4.972c0,-1.036 -0.816,-1.87 -1.851,-1.87Zm-11.097,3.784c0,0.755 -0.693,1.365 -1.265,1.365c-0.753,0 -1.365,-0.61 -1.365,-1.365c0,-0.753 0.611,-1.364 1.365,-1.364c0.525,0 1.265,0.611 1.265,1.364Z" style="fill:#fff;fill-rule:nonzero;"/><path d="M0,19.119c0,1.036 0.885,1.881 1.921,1.881l13.147,0c1.035,0 1.852,-0.845 1.852,-1.881l0,-0.11l-16.92,0l0,0.11Z" style="fill:#fff;fill-rule:nonzero;"/></g></svg>