<?xml version="1.0" encoding="UTF-8" standalone="no"?>
<!DOCTYPE svg PUBLIC "-//W3C//DTD SVG 1.1//EN" "http://www.w3.org/Graphics/SVG/1.1/DTD/svg11.dtd">
<svg width="100%" height="100%" viewBox="0 0 44 48" version="1.1" xmlns="http://www.w3.org/2000/svg" xmlns:xlink="http://www.w3.org/1999/xlink" xml:space="preserve" xmlns:serif="http://www.serif.com/" style="fill-rule:evenodd;clip-rule:evenodd;stroke-miterlimit:10;">
    <g transform="matrix(1,0,0,1,-4379.59,-8913.87)">
        <g transform="matrix(0.890869,0,0,1.43623,3262.24,8161.91)">
            <g transform="matrix(1,0,0,0.550456,626.764,-427.839)">
                <g transform="matrix(1.21842,0,0,1.37298,-17121.6,1092.36)">
                    <circle cx="14587.3" cy="485.087" r="17.273" style="fill:rgb(244,246,247);"/>
                </g>
                <g transform="matrix(2.33989,0,0,2.61308,644.381,1747.47)">
                    <g id="Слой-1" serif:id="Слой 1">
                        <g transform="matrix(0,1,1,0,5.4176,2.24029)">
                            <path d="M-2.241,-2.241L2.241,-2.241" style="fill:none;fill-rule:nonzero;stroke:rgb(21,126,251);stroke-width:1.45px;"/>
                        </g>
                        <g transform="matrix(1,0,0,1,0.0513,6.70129)">
                            <path d="M0,-4.116L3.137,0L6.253,-4.116L0,-4.116Z" style="fill:rgb(21,126,251);fill-rule:nonzero;"/>
                        </g>
                        <g transform="matrix(-1,0,-0,1,0.0009,8.34689)">
                            <path d="M-6.354,0L0,0" style="fill:none;fill-rule:nonzero;stroke:rgb(21,126,251);stroke-width:1.45px;"/>
                        </g>
                    </g>
                </g>
            </g>
        </g>
    </g>
</svg>
