<?xml version="1.0" encoding="UTF-8" standalone="no"?>
<!DOCTYPE svg PUBLIC "-//W3C//DTD SVG 1.1//EN" "http://www.w3.org/Graphics/SVG/1.1/DTD/svg11.dtd">
<svg width="100%" height="100%" viewBox="0 0 33 41" version="1.1" xmlns="http://www.w3.org/2000/svg" xmlns:xlink="http://www.w3.org/1999/xlink" xml:space="preserve" xmlns:serif="http://www.serif.com/" style="fill-rule:evenodd;clip-rule:evenodd;stroke-miterlimit:10;">
    <g transform="matrix(1,0,0,1,-3944.92,-6204.22)">
        <g transform="matrix(1.3046,0,0,1.3046,3764.31,929.903)">
            <g transform="matrix(0.742054,0,0,0.742054,143.845,4048.26)">
                <g id="Слой-1" serif:id="Слой 1">
                    <g transform="matrix(1,0,0,1,1.5977,27.0378)">
                        <path d="M0,-26.538C-0.604,-26.538 -1.098,-26.044 -1.098,-25.44L-1.098,-1.098C-1.098,-0.493 -0.604,0 0,0L15.936,0C16.54,0 17.033,-0.493 17.033,-1.098L17.033,-18.215L9.631,-26.538L0,-26.538Z" style="fill:none;fill-rule:nonzero;stroke:rgb(56,130,241);stroke-width:1.55px;"/>
                    </g>
                    <g transform="matrix(1,0,0,1,11.2291,8.8228)">
                        <path d="M0,-8.323L0,-1.098C0,-0.494 0.494,0 1.098,0L7.402,0" style="fill:none;fill-rule:nonzero;stroke:rgb(56,130,241);stroke-width:1.55px;"/>
                    </g>
                </g>
            </g>
        </g>
    </g>
</svg>
