<?xml version="1.0" encoding="UTF-8" standalone="no"?>
<!DOCTYPE svg PUBLIC "-//W3C//DTD SVG 1.1//EN" "http://www.w3.org/Graphics/SVG/1.1/DTD/svg11.dtd">
<svg width="100%" height="100%" viewBox="0 0 44 45" version="1.1" xmlns="http://www.w3.org/2000/svg" xmlns:xlink="http://www.w3.org/1999/xlink" xml:space="preserve" xmlns:serif="http://www.serif.com/" style="fill-rule:evenodd;clip-rule:evenodd;stroke-miterlimit:10;">
    <g transform="matrix(1,0,0,1,-2588.08,-2818.61)">
        <g transform="matrix(0.890869,0,0,3.78058,1512.35,20.0965)">
            <g transform="matrix(1.06791,0,0,0.251645,797.873,289.965)">
                <g transform="matrix(0.661691,0,0,0.670328,388.84,1794.49)">
                    <g id="Слой-1" serif:id="Слой 1">
                        <g transform="matrix(1,0,0,1,24.8503,38.0099)">
                            <path d="M0,-23.097C0.152,-24.121 0.851,-26.034 0.851,-26.034C2.619,-29.996 6.586,-32.762 11.205,-32.762C17.469,-32.762 22.864,-27.676 22.548,-21.419C22.173,-14.022 16.444,0.663 -2.303,8.578C-3.984,9.288 -6.127,9.665 -8.081,9.665C-14.346,9.665 -19.424,4.587 -19.424,-1.678C-19.424,-5.849 -17.492,-9.258 -13.996,-11.314C-10.499,-13.369 -2.251,-13.398 0,-23.097Z" style="fill:none;fill-rule:nonzero;stroke:white;stroke-width:1.58px;"/>
                        </g>
                        <g transform="matrix(0.27449,-0.96159,-0.96159,-0.27449,42.2065,4.39147)">
                            <path d="M-2.072,2.747L3.64,2.747" style="fill:none;fill-rule:nonzero;stroke:white;stroke-width:1.57px;"/>
                        </g>
                        <g transform="matrix(0.645581,-0.763692,-0.763692,-0.645581,45.6037,8.41014)">
                            <path d="M-1.011,2.179L4.695,2.179" style="fill:none;fill-rule:nonzero;stroke:white;stroke-width:1.57px;"/>
                        </g>
                        <g transform="matrix(0.861175,-0.508309,-0.508309,-0.861175,47.4652,12.6686)">
                            <path d="M-0.395,1.447L5.298,1.447" style="fill:none;fill-rule:nonzero;stroke:white;stroke-width:1.57px;"/>
                        </g>
                        <g transform="matrix(1,0,0,1,47.4108,16.2806)">
                            <path d="M0,0L6.121,0" style="fill:none;fill-rule:nonzero;stroke:white;stroke-width:1.58px;"/>
                        </g>
                        <g transform="matrix(0.966656,0.25608,0.25608,-0.966656,46.9736,20.3209)">
                            <path d="M-0.105,-0.806L6.19,-0.806" style="fill:none;fill-rule:nonzero;stroke:white;stroke-width:1.58px;"/>
                        </g>
                        <g transform="matrix(0.914034,0.405638,0.405638,-0.914034,45.6383,25.0535)">
                            <path d="M-0.287,-1.354L6.389,-1.354" style="fill:none;fill-rule:nonzero;stroke:white;stroke-width:1.59px;"/>
                        </g>
                        <g transform="matrix(0.8475,0.530796,0.530796,-0.8475,43.5553,29.7378)">
                            <path d="M-0.542,-1.886L6.563,-1.886" style="fill:none;fill-rule:nonzero;stroke:white;stroke-width:1.59px;"/>
                        </g>
                        <g transform="matrix(0.722332,0.691547,0.691547,-0.722332,41.3177,34.09)">
                            <path d="M-0.992,-2.471L6.154,-2.471" style="fill:none;fill-rule:nonzero;stroke:white;stroke-width:1.59px;"/>
                        </g>
                        <g transform="matrix(0.626519,0.779406,0.779406,-0.626519,37.8454,38.4365)">
                            <path d="M-1.335,-2.786L5.814,-2.786" style="fill:none;fill-rule:nonzero;stroke:white;stroke-width:1.59px;"/>
                        </g>
                        <g transform="matrix(0.546059,0.837747,0.837747,-0.546059,34.0768,41.9453)">
                            <path d="M-1.594,-2.941L5.428,-2.941" style="fill:none;fill-rule:nonzero;stroke:white;stroke-width:1.59px;"/>
                        </g>
                        <g transform="matrix(0.389117,0.921189,0.921189,-0.389117,29.9135,45.6089)">
                            <path d="M-2.113,-3.187L4.805,-3.187" style="fill:none;fill-rule:nonzero;stroke:white;stroke-width:1.59px;"/>
                        </g>
                        <g transform="matrix(0.227796,0.973709,0.973709,-0.227796,25.1304,48.7582)">
                            <path d="M-2.563,-3.232L4.075,-3.232" style="fill:none;fill-rule:nonzero;stroke:white;stroke-width:1.58px;"/>
                        </g>
                        <g transform="matrix(0,1,1,0,19.7927,50.6982)">
                            <path d="M-3.024,-3.024L3.024,-3.024" style="fill:none;fill-rule:nonzero;stroke:white;stroke-width:1.58px;"/>
                        </g>
                        <g transform="matrix(-0.465383,0.885109,0.885109,0.465383,12.4092,51.6179)">
                            <path d="M-4.237,-2.559L1.546,-2.559" style="fill:none;fill-rule:nonzero;stroke:white;stroke-width:1.57px;"/>
                        </g>
                        <g transform="matrix(-0.786448,0.617656,0.617656,0.786448,5.16365,47.6368)">
                            <path d="M-4.768,-1.649L0.57,-1.649" style="fill:none;fill-rule:nonzero;stroke:white;stroke-width:1.57px;"/>
                        </g>
                        <g transform="matrix(-0.957952,0.286928,0.286928,0.957952,0.802812,41.1087)">
                            <path d="M-5.35,-0.784L0.115,-0.784" style="fill:none;fill-rule:nonzero;stroke:white;stroke-width:1.57px;"/>
                        </g>
                        <g transform="matrix(-0.994719,-0.102638,-0.102638,0.994719,0.0955775,33.1271)">
                            <path d="M-5.607,0.289L0.015,0.289" style="fill:none;fill-rule:nonzero;stroke:white;stroke-width:1.58px;"/>
                        </g>
                        <g transform="matrix(-0.860988,-0.508625,-0.508625,0.860988,3.09917,25.2731)">
                            <path d="M-6.026,1.647L0.45,1.647" style="fill:none;fill-rule:nonzero;stroke:white;stroke-width:1.59px;"/>
                        </g>
                        <g transform="matrix(-0.594983,-0.803739,-0.803739,0.594983,9.77435,20.4229)">
                            <path d="M-5.684,2.865L1.443,2.865" style="fill:none;fill-rule:nonzero;stroke:white;stroke-width:1.59px;"/>
                        </g>
                        <g transform="matrix(-0.246897,-0.969042,-0.969042,0.246897,17.8016,19.3304)">
                            <path d="M-4.841,3.762L2.924,3.762" style="fill:none;fill-rule:nonzero;stroke:white;stroke-width:1.58px;"/>
                        </g>
                        <g transform="matrix(-0.977902,-0.209066,-0.209066,0.977902,18.7029,12.2854)">
                            <path d="M-6.556,0.693L0.073,0.693" style="fill:none;fill-rule:nonzero;stroke:white;stroke-width:1.58px;"/>
                        </g>
                        <g transform="matrix(-0.783052,-0.621956,-0.621956,0.783052,23.5639,4.65115)">
                            <path d="M-5.883,2.052L0.716,2.052" style="fill:none;fill-rule:nonzero;stroke:white;stroke-width:1.59px;"/>
                        </g>
                        <g transform="matrix(-0.479117,-0.877751,-0.877751,0.479117,30.5249,1.34698)">
                            <path d="M-4.696,2.787L1.654,2.787" style="fill:none;fill-rule:nonzero;stroke:white;stroke-width:1.59px;"/>
                        </g>
                        <g transform="matrix(0,-1,-1,0,19.1046,27.4563)">
                            <circle cx="-2.67" cy="0" r="2.67" style="fill:none;stroke:white;stroke-width:1.58px;"/>
                        </g>
                        <g transform="matrix(0,-1,-1,0,16.5811,38.5891)">
                            <circle cx="-2.673" cy="0" r="2.673" style="fill:none;stroke:white;stroke-width:1.58px;"/>
                        </g>
                        <g transform="matrix(0,-1,-1,0,11.5556,32.3711)">
                            <circle cx="-1.971" cy="0" r="1.971" style="fill:none;stroke:white;stroke-width:1.58px;"/>
                        </g>
                        <g transform="matrix(0,-1,-1,0,36.5384,26.8824)">
                            <ellipse cx="-1.972" cy="0" rx="1.971" ry="1.972" style="fill:none;stroke:white;stroke-width:1.58px;"/>
                        </g>
                    </g>
                </g>
                <g transform="matrix(0.863779,0,0,0.863779,-1898.48,-641.151)">
                    <path d="M2646.14,2817.82L2690.5,2862.18" style="fill:none;stroke:white;stroke-width:0.73px;stroke-linecap:square;stroke-miterlimit:1.5;stroke-dasharray:0,0.04,0,0;"/>
                </g>
            </g>
        </g>
    </g>
</svg>
