<?xml version="1.0" encoding="UTF-8" standalone="no"?>
<!DOCTYPE svg PUBLIC "-//W3C//DTD SVG 1.1//EN" "http://www.w3.org/Graphics/SVG/1.1/DTD/svg11.dtd">
<svg width="100%" height="100%" viewBox="0 0 1221 1232" version="1.1" xmlns="http://www.w3.org/2000/svg" xmlns:xlink="http://www.w3.org/1999/xlink" xml:space="preserve" xmlns:serif="http://www.serif.com/" style="fill-rule:evenodd;clip-rule:evenodd;stroke-miterlimit:10;">
    <g transform="matrix(1,0,0,1,-3226.32,-5686.02)">
        <g transform="matrix(3.09219,0,0,19.0117,3270.86,-18868.6)">
            <g transform="matrix(0.701153,0,0,0.150919,-12.8807,1291.74)">
                <g id="Слой-1" serif:id="Слой 1">
                    <g transform="matrix(0.955464,-0.295108,-0.295108,-0.955464,527.411,15.5415)">
                        <path d="M-0.781,5.175L34.291,5.175" style="fill:none;fill-rule:nonzero;stroke:rgb(14,61,132);stroke-width:0.37px;"/>
                    </g>
                    <g transform="matrix(0.955463,-0.295111,-0.295111,-0.955463,367.765,80.6377)">
                        <path d="M-3.057,20.26L134.243,20.26" style="fill:none;fill-rule:nonzero;stroke:rgb(14,61,132);stroke-width:0.37px;"/>
                    </g>
                    <g transform="matrix(0.955463,-0.295112,-0.295112,-0.955463,63.4804,186.87)">
                        <path d="M-4.824,31.964L211.796,31.963" style="fill:none;fill-rule:nonzero;stroke:rgb(14,61,132);stroke-width:0.37px;"/>
                    </g>
                    <g transform="matrix(0.955463,-0.295112,-0.295112,-0.955463,485.099,49.2775)">
                        <path d="M-1.839,12.185L80.74,12.185" style="fill:none;fill-rule:nonzero;stroke:rgb(14,61,132);stroke-width:0.37px;"/>
                    </g>
                    <g transform="matrix(0.955464,-0.295108,-0.295108,-0.955464,128.012,192.737)">
                        <path d="M-6.622,43.876L290.735,43.876" style="fill:none;fill-rule:nonzero;stroke:rgb(14,61,132);stroke-width:0.37px;"/>
                    </g>
                    <g transform="matrix(0.955462,-0.295113,-0.295113,-0.955462,24.867,184.914)">
                        <path d="M-0.9,5.964L39.515,5.964" style="fill:none;fill-rule:nonzero;stroke:rgb(14,61,132);stroke-width:0.37px;"/>
                    </g>
                    <g transform="matrix(0.955468,-0.295095,-0.295095,-0.955468,532.19,38.3616)">
                        <path d="M-0.44,2.916L19.323,2.916" style="fill:none;fill-rule:nonzero;stroke:rgb(14,61,132);stroke-width:0.37px;"/>
                    </g>
                    <g transform="matrix(0.955464,-0.295107,-0.295107,-0.955464,300.352,133.342)">
                        <path d="M-3.811,25.25L167.311,25.25" style="fill:none;fill-rule:nonzero;stroke:rgb(14,61,132);stroke-width:0.37px;"/>
                    </g>
                    <g transform="matrix(0.955464,-0.295108,-0.295108,-0.955464,12.8632,226.005)">
                        <path d="M-4.368,28.945L191.797,28.945" style="fill:none;fill-rule:nonzero;stroke:rgb(14,61,132);stroke-width:0.37px;"/>
                    </g>
                    <g transform="matrix(0.955464,-0.295108,-0.295108,-0.955464,432.035,101.528)">
                        <path d="M-3.166,20.976L138.993,20.976" style="fill:none;fill-rule:nonzero;stroke:rgb(14,61,132);stroke-width:0.37px;"/>
                    </g>
                    <g transform="matrix(0.955465,-0.295104,-0.295104,-0.955465,125.145,213.862)">
                        <path d="M-5.696,37.742L250.092,37.742" style="fill:none;fill-rule:nonzero;stroke:rgb(14,61,132);stroke-width:0.37px;"/>
                    </g>
                    <g transform="matrix(0.955464,-0.295107,-0.295107,-0.955464,25.048,209.133)">
                        <path d="M-0.556,3.684L24.408,3.683" style="fill:none;fill-rule:nonzero;stroke:rgb(14,61,132);stroke-width:0.37px;"/>
                    </g>
                    <g transform="matrix(0.955448,-0.29516,-0.29516,-0.955448,543.03,61.3312)">
                        <path d="M-0.391,2.588L17.146,2.588" style="fill:none;fill-rule:nonzero;stroke:rgb(14,61,132);stroke-width:0.37px;"/>
                    </g>
                    <g transform="matrix(0.955465,-0.295106,-0.295106,-0.955465,34.1802,296.868)">
                        <path d="M-11.691,77.471L513.344,77.471" style="fill:none;fill-rule:nonzero;stroke:rgb(14,61,132);stroke-width:0.37px;"/>
                    </g>
                    <g transform="matrix(0.955464,-0.295108,-0.295108,-0.955464,282.738,194.054)">
                        <path d="M-6.014,39.849L264.05,39.849" style="fill:none;fill-rule:nonzero;stroke:rgb(14,61,132);stroke-width:0.37px;"/>
                    </g>
                    <g transform="matrix(0.955466,-0.295102,-0.295102,-0.955466,33.3496,242.102)">
                        <path d="M-1.835,12.162L80.59,12.162" style="fill:none;fill-rule:nonzero;stroke:rgb(14,61,132);stroke-width:0.37px;"/>
                    </g>
                    <g transform="matrix(0.955464,-0.295108,-0.295108,-0.955464,38.0373,331.527)">
                        <path d="M-13.016,86.25L571.516,86.25" style="fill:none;fill-rule:nonzero;stroke:rgb(14,61,132);stroke-width:0.37px;"/>
                    </g>
                    <g transform="matrix(0.955462,-0.295114,-0.295114,-0.955462,491.169,122.443)">
                        <path d="M-1.126,7.464L49.457,7.464" style="fill:none;fill-rule:nonzero;stroke:rgb(14,61,132);stroke-width:0.37px;"/>
                    </g>
                    <g transform="matrix(0.955465,-0.295105,-0.295105,-0.955465,192.307,235.277)">
                        <path d="M-4.086,27.077L179.421,27.077" style="fill:none;fill-rule:nonzero;stroke:rgb(14,61,132);stroke-width:0.37px;"/>
                    </g>
                    <g transform="matrix(0.955466,-0.295102,-0.295102,-0.955466,29.0002,269.972)">
                        <path d="M-1.816,12.034L79.739,12.033" style="fill:none;fill-rule:nonzero;stroke:rgb(14,61,132);stroke-width:0.37px;"/>
                    </g>
                    <g transform="matrix(0.955464,-0.295109,-0.295109,-0.955464,354.286,205.674)">
                        <path d="M-5.11,33.857L224.345,33.857" style="fill:none;fill-rule:nonzero;stroke:rgb(14,61,132);stroke-width:0.37px;"/>
                    </g>
                    <g transform="matrix(0.955464,-0.295108,-0.295108,-0.955464,71.9238,291.462)">
                        <path d="M-4.904,32.498L215.337,32.497" style="fill:none;fill-rule:nonzero;stroke:rgb(14,61,132);stroke-width:0.37px;"/>
                    </g>
                    <g transform="matrix(0.955466,-0.295101,-0.295101,-0.955466,492.69,152.258)">
                        <path d="M-1.649,10.927L72.407,10.927" style="fill:none;fill-rule:nonzero;stroke:rgb(14,61,132);stroke-width:0.37px;"/>
                    </g>
                    <g transform="matrix(0.955463,-0.29511,-0.29511,-0.955463,210.253,268.969)">
                        <path d="M-5.9,39.091L259.029,39.091" style="fill:none;fill-rule:nonzero;stroke:rgb(14,61,132);stroke-width:0.37px;"/>
                    </g>
                    <g transform="matrix(0.955464,-0.295107,-0.295107,-0.955464,11.3726,316.225)">
                        <path d="M-3.856,25.552L169.315,25.552" style="fill:none;fill-rule:nonzero;stroke:rgb(14,61,132);stroke-width:0.37px;"/>
                    </g>
                    <g transform="matrix(0.955463,-0.295112,-0.295112,-0.955463,401.171,202.241)">
                        <path d="M-2.858,18.94L125.496,18.94" style="fill:none;fill-rule:nonzero;stroke:rgb(14,61,132);stroke-width:0.37px;"/>
                    </g>
                    <g transform="matrix(0.955464,-0.295109,-0.295109,-0.955464,121.204,303.298)">
                        <path d="M-4.961,32.876L217.844,32.876" style="fill:none;fill-rule:nonzero;stroke:rgb(14,61,132);stroke-width:0.37px;"/>
                    </g>
                    <g transform="matrix(0.955465,-0.295105,-0.295105,-0.955465,3.49152,313.213)">
                        <path d="M-1.149,7.612L50.44,7.612" style="fill:none;fill-rule:nonzero;stroke:rgb(14,61,132);stroke-width:0.37px;"/>
                    </g>
                    <g transform="matrix(0.955463,-0.295109,-0.295109,-0.955463,509.375,170.872)">
                        <path d="M-1.232,8.163L54.09,8.163" style="fill:none;fill-rule:nonzero;stroke:rgb(14,61,132);stroke-width:0.37px;"/>
                    </g>
                    <g transform="matrix(0.955464,-0.295109,-0.295109,-0.955464,264.163,275.446)">
                        <path d="M-5.39,35.716L236.663,35.716" style="fill:none;fill-rule:nonzero;stroke:rgb(14,61,132);stroke-width:0.37px;"/>
                    </g>
                    <g transform="matrix(0.955465,-0.295103,-0.295103,-0.955465,12.0154,344.219)">
                        <path d="M-4.077,27.016L179.015,27.015" style="fill:none;fill-rule:nonzero;stroke:rgb(14,61,132);stroke-width:0.37px;"/>
                    </g>
                    <g transform="matrix(0.955464,-0.295108,-0.295108,-0.955464,38.0373,411.507)">
                        <path d="M-13.016,86.25L571.516,86.25" style="fill:none;fill-rule:nonzero;stroke:rgb(14,61,132);stroke-width:0.37px;"/>
                    </g>
                    <g transform="matrix(0.955464,-0.295108,-0.295108,-0.955464,385.975,250.745)">
                        <path d="M-3.409,22.59L149.684,22.59" style="fill:none;fill-rule:nonzero;stroke:rgb(14,61,132);stroke-width:0.37px;"/>
                    </g>
                    <g transform="matrix(0.955463,-0.29511,-0.29511,-0.955463,102.765,350.903)">
                        <path d="M-5.238,34.709L229.989,34.709" style="fill:none;fill-rule:nonzero;stroke:rgb(14,61,132);stroke-width:0.37px;"/>
                    </g>
                    <g transform="matrix(0.95547,-0.29509,-0.29509,-0.95547,2.39756,350.936)">
                        <path d="M-0.773,5.122L33.942,5.122" style="fill:none;fill-rule:nonzero;stroke:rgb(14,61,132);stroke-width:0.37px;"/>
                    </g>
                    <g transform="matrix(0.955467,-0.2951,-0.2951,-0.955467,484.571,222.824)">
                        <path d="M-1.852,12.272L81.32,12.272" style="fill:none;fill-rule:nonzero;stroke:rgb(14,61,132);stroke-width:0.37px;"/>
                    </g>
                    <g transform="matrix(0.955464,-0.295106,-0.295106,-0.955464,232.146,323.808)">
                        <path d="M-5.171,34.267L227.06,34.267" style="fill:none;fill-rule:nonzero;stroke:rgb(14,61,132);stroke-width:0.37px;"/>
                    </g>
                    <g transform="matrix(0.955462,-0.295114,-0.295114,-0.955462,8.75236,377.443)">
                        <path d="M-2.956,19.587L129.786,19.587" style="fill:none;fill-rule:nonzero;stroke:rgb(14,61,132);stroke-width:0.37px;"/>
                    </g>
                    <g transform="matrix(0.955464,-0.295109,-0.295109,-0.955464,392.917,272.277)">
                        <path d="M-2.979,19.738L130.789,19.738" style="fill:none;fill-rule:nonzero;stroke:rgb(14,61,132);stroke-width:0.37px;"/>
                    </g>
                    <g transform="matrix(0.955463,-0.295111,-0.295111,-0.955463,76.4119,394.08)">
                        <path d="M-6.446,42.714L283.028,42.714" style="fill:none;fill-rule:nonzero;stroke:rgb(14,61,132);stroke-width:0.37px;"/>
                    </g>
                    <g transform="matrix(0.955464,-0.295109,-0.295109,-0.955464,263.648,341.03)">
                        <path d="M-5.213,34.544L228.897,34.544" style="fill:none;fill-rule:nonzero;stroke:rgb(14,61,132);stroke-width:0.37px;"/>
                    </g>
                    <g transform="matrix(0.955464,-0.295108,-0.295108,-0.955464,43.6412,397.425)">
                        <path d="M-3.547,23.503L155.734,23.503" style="fill:none;fill-rule:nonzero;stroke:rgb(14,61,132);stroke-width:0.37px;"/>
                    </g>
                    <g transform="matrix(0.955464,-0.295108,-0.295108,-0.955464,424.735,291.671)">
                        <path d="M-3.348,22.185L147.007,22.185" style="fill:none;fill-rule:nonzero;stroke:rgb(14,61,132);stroke-width:0.37px;"/>
                    </g>
                    <g transform="matrix(0.955465,-0.295106,-0.295106,-0.955465,101.436,413.852)">
                        <path d="M-6.567,43.517L288.357,43.517" style="fill:none;fill-rule:nonzero;stroke:rgb(14,61,132);stroke-width:0.37px;"/>
                    </g>
                    <g transform="matrix(0.955464,-0.295108,-0.295108,-0.955464,287.979,362.515)">
                        <path d="M-5.551,36.78L243.714,36.78" style="fill:none;fill-rule:nonzero;stroke:rgb(14,61,132);stroke-width:0.37px;"/>
                    </g>
                    <g transform="matrix(0.955464,-0.295107,-0.295107,-0.955464,72.1015,411.04)">
                        <path d="M-2.933,19.438L128.798,19.438" style="fill:none;fill-rule:nonzero;stroke:rgb(14,61,132);stroke-width:0.37px;"/>
                    </g>
                    <g transform="matrix(0.955463,-0.295112,-0.295112,-0.955463,457.769,302.401)">
                        <path d="M-2.522,16.713L110.743,16.713" style="fill:none;fill-rule:nonzero;stroke:rgb(14,61,132);stroke-width:0.37px;"/>
                    </g>
                    <g transform="matrix(0.955464,-0.295109,-0.295109,-0.955464,152.626,420.746)">
                        <path d="M-5.997,39.737L263.307,39.737" style="fill:none;fill-rule:nonzero;stroke:rgb(14,61,132);stroke-width:0.37px;"/>
                    </g>
                    <g transform="matrix(0.955464,-0.295107,-0.295107,-0.955464,6.50536,439.435)">
                        <path d="M-2.184,14.472L95.899,14.473" style="fill:none;fill-rule:nonzero;stroke:rgb(14,61,132);stroke-width:0.37px;"/>
                    </g>
                </g>
            </g>
        </g>
    </g>
</svg>
