<?xml version="1.0" encoding="UTF-8" standalone="no"?>
<!DOCTYPE svg PUBLIC "-//W3C//DTD SVG 1.1//EN" "http://www.w3.org/Graphics/SVG/1.1/DTD/svg11.dtd">
<svg width="100%" height="100%" viewBox="0 0 104 149" version="1.1" xmlns="http://www.w3.org/2000/svg" xmlns:xlink="http://www.w3.org/1999/xlink" xml:space="preserve" xmlns:serif="http://www.serif.com/" style="fill-rule:evenodd;clip-rule:evenodd;stroke-linejoin:round;stroke-miterlimit:1.41421;">
    <g transform="matrix(1,0,0,1,-1704.65,-286.876)">
        <g transform="matrix(0.890869,0,0,3.78058,1512.35,20.0965)">
            <g transform="matrix(1.1225,0,0,0.26451,-2026.27,-21.0775)">
                <path d="M2049.26,346.465C2020.64,346.465 1997.43,369.676 1997.43,398.292C1997.43,437.162 2049.26,494.542 2049.26,494.542C2049.26,494.542 2101.09,437.162 2101.09,398.292C2101.09,369.676 2077.88,346.465 2049.26,346.465ZM2044.79,409.23L2029.83,409.23L2046.12,442.306L2047.66,445.422L2050.86,445.422L2056.74,433.491L2068.7,409.23L2062.42,409.23L2053.6,427.126L2044.79,409.23ZM2050.86,371.21L2047.66,371.21L2041.78,383.14L2029.83,407.402L2036.1,407.402L2044.92,389.506L2053.74,407.402L2068.7,407.402L2052.4,374.326L2050.86,371.21Z" style="fill:white;"/>
            </g>
        </g>
    </g>
</svg>
