<?xml version="1.0" encoding="utf-8"?>
<!-- Generator: Adobe Illustrator 23.0.1, SVG Export Plug-In . SVG Version: 6.00 Build 0)  -->
<svg version="1.1" id="Layer_1" xmlns:serif="http://www.serif.com/"
	 xmlns="http://www.w3.org/2000/svg" xmlns:xlink="http://www.w3.org/1999/xlink" x="0px" y="0px" viewBox="0 0 551.3 792"
	 style="enable-background:new 0 0 551.3 792;" xml:space="preserve">
<style type="text/css">
	.st0{fill-rule:evenodd;clip-rule:evenodd;fill:#FFFFFF;}
</style>
<g transform="matrix(1,0,0,1,-1933.08,-530.221)">
	<g transform="matrix(0.890869,0,0,3.78058,1512.35,20.0965)">
		<g transform="matrix(0.422117,0,0,0.099469,-370.876,100.47)">
			<path class="st0" d="M2730.4,346.4c-404.8,0-733,328.3-733,733c0,549.7,733,1361.2,733,1361.2s733-811.5,733-1361.2
				C3463.5,674.7,3135.2,346.4,2730.4,346.4z M2667.2,1234.1h-211.6l230.4,467.8l21.8,44.1h45.3l83.2-168.7l169.1-343.1h-88.8
				l-124.7,253.1L2667.2,1234.1z M2753.1,696.4h-45.3l-83.2,168.7l-169,343.1h88.7l124.7-253.1l124.7,253.1h211.6l-230.5-467.8
				L2753.1,696.4z"/>
		</g>
	</g>
</g>
</svg>
