<svg xmlns="http://www.w3.org/2000/svg" fill-rule="evenodd" stroke-linejoin="round" stroke-miterlimit="2" clip-rule="evenodd" viewBox="0 0 30 16"><defs/><path fill="#157efb" fill-rule="nonzero" d="M2.783 0a2.795 2.795 0 00-2.79 2.786v9.812a2.797 2.797 0 002.79 2.786h23.79a2.794 2.794 0 002.79-2.786V2.786A2.796 2.796 0 0026.572 0H2.783z"/><path fill="#fff" fill-rule="nonzero" d="M20.971 6.992V4.195h5.595V2.797h-6.993v9.79h1.398V8.39h4.196V6.992h-4.196zM6.987 6.992H4.19V4.195h2.798c.778 0 1.397.626 1.397 1.399 0 .778-.625 1.398-1.397 1.398M6.98 2.797H2.79v9.79H4.19V8.39h2.79a2.797 2.797 0 100-5.594M16.776 9.79c0 .777-.626 1.398-1.398 1.398H12.58V4.195h2.798c.78 0 1.398.626 1.398 1.399V9.79zM15.37 2.797h-4.189v9.79h4.19c1.549 0 2.803-1.24 2.803-2.806V5.602c0-1.55-1.25-2.805-2.804-2.805"/></svg>