<svg xmlns="http://www.w3.org/2000/svg" fill-rule="evenodd" stroke-linejoin="round" stroke-miterlimit="2" clip-rule="evenodd" viewBox="0 0 84 119"><defs/><path fill="#fff" d="M24.3912 15.1403h36.1625V83.389H24.3912z"/><path fill="#124ba6" d="M41.5988-.0009C18.627-.0009-.0025 18.6293-.0025 41.5977c0 31.1987 41.6013 77.2544 41.6013 77.2544S83.2 72.7964 83.2 41.5977C83.2 18.6293 64.5706-.0009 41.5988-.0009zm-3.5879 50.378H26.0033l13.0752 26.5481 1.236 2.501h2.5685l4.7196-9.5763 9.5996-19.4729h-5.0406l-7.0793 14.3641-7.0714-14.364zm4.8721-30.5166h-2.5685l-4.7195 9.5756-9.5917 19.4737h5.0326l7.0794-14.3641 7.0793 14.364h12.0076L44.1191 22.3617l-1.236-2.501z"/></svg>