<?xml version="1.0" encoding="UTF-8" standalone="no"?>
<!DOCTYPE svg PUBLIC "-//W3C//DTD SVG 1.1//EN" "http://www.w3.org/Graphics/SVG/1.1/DTD/svg11.dtd">
<svg width="100%" height="100%" viewBox="0 0 122 32" version="1.1" xmlns="http://www.w3.org/2000/svg" xmlns:xlink="http://www.w3.org/1999/xlink" xml:space="preserve" xmlns:serif="http://www.serif.com/" style="fill-rule:evenodd;clip-rule:evenodd;stroke-linejoin:round;stroke-miterlimit:2;">
    <g transform="matrix(1,0,0,1,-2371.55,-7858.1)">
        <g transform="matrix(0.890869,0,0,2.74175,1512.35,4871.36)">
            <g id="teknos" transform="matrix(0.798789,0,0,0.798789,190.415,218.595)">
                <g transform="matrix(0.576829,0,0,0.187427,995.331,1097.18)">
                    <path d="M0,0.015C0.006,0.014 0.013,0.014 0.02,0.01C0.024,0.006 0.031,0.003 0.037,0L0,0.015Z" style="fill:rgb(7,78,162);fill-rule:nonzero;"/>
                </g>
                <g transform="matrix(0.576829,0,0,0.187427,980.291,1095.92)">
                    <path d="M0,0.029C0,2.015 1.623,3.611 3.611,3.611C5.596,3.611 7.191,2.015 7.191,0.029C7.191,-1.957 5.596,-3.582 3.611,-3.582C1.623,-3.582 0,-1.957 0,0.029" style="fill:rgb(7,78,162);fill-rule:nonzero;"/>
                </g>
                <g transform="matrix(0.576829,0,0,0.187427,978.268,1101.3)">
                    <path d="M0,-17.582C1.968,-17.587 7.229,-17.505 8.764,-14.811L8.802,-14.747L8.847,-14.686C9.494,-13.86 11.22,-11.658 8.681,-6.721C6.097,-1.682 6.219,3.36 6.698,5.546L6.703,5.57L6.71,5.595C8.313,11.501 12.83,16.221 18.503,17.919L18.769,17.998L19.037,17.932C25.483,16.335 29.47,10.453 30.565,5.32C30.852,3.894 31.734,-0.443 28.808,-6.798C26.536,-11.792 27.728,-13.531 28.602,-14.801L28.633,-14.849L28.661,-14.899C30.169,-17.758 34.289,-17.697 38.646,-17.601C39.8,-17.576 43.062,-17.584 43.062,-17.584L43.056,-35.58L37.854,-35.578L37.875,-22.844C37.109,-22.824 36.229,-22.828 35.523,-22.838C33.396,-22.866 31.557,-22.888 29.6,-22.1C26.268,-20.907 23.867,-18.053 22.838,-14.067C21.831,-10.204 23.099,-7.161 24.323,-4.221C25.026,-2.531 25.688,-0.937 25.934,0.797C26.254,5.763 23.486,10.453 18.984,12.669L18.778,12.769C18.778,12.769 18.715,12.756 18.581,12.666C14.539,10.719 10.88,6.422 11.412,0.824C11.523,-0.336 12.137,-1.795 12.789,-3.34C14.05,-6.334 15.62,-10.058 14.699,-14.181L14.694,-14.203L14.688,-14.227C13.476,-18.731 10.913,-21.413 6.833,-22.415C4.305,-22.996 -0.113,-22.94 -0.113,-22.94L-0.124,-35.578L-5.539,-35.553L-5.549,-17.598C-5.549,-17.598 -1.532,-17.58 0,-17.582" style="fill:rgb(7,78,162);fill-rule:nonzero;"/>
                </g>
                <g transform="matrix(0.576829,0,0,0.187427,974.048,1094.63)">
                    <path d="M0,18.017L0,0.017L-8.662,0L-1.565,8.988L-8.723,18.004L0,18.017Z" style="fill:rgb(7,78,162);fill-rule:nonzero;"/>
                </g>
                <g transform="matrix(0.576829,0,0,0.187427,1003.09,1092.27)">
                    <path d="M0,-0.702C0.044,-7.814 3.405,-9.723 7.555,-11.538L-26.609,-11.538C-31.175,-11.515 -35.252,-8.213 -36.056,-3.45L-36.056,-11.575L-48.568,-11.567L-48.568,10.873L0,10.873L0,-0.702Z" style="fill:rgb(0,171,78);fill-rule:nonzero;"/>
                </g>
                <g transform="matrix(0.576829,0,0,0.187427,1018.17,1094.64)">
                    <path d="M0,39.261L9.945,39.261L9.945,8.799L20.956,8.799L20.956,0L-11.385,0L-11.385,8.799L0,8.799L0,39.261Z" style="fill:rgb(35,31,32);fill-rule:nonzero;"/>
                </g>
                <g transform="matrix(0.576829,0,0,0.187427,1049.02,1096.29)">
                    <path d="M0,21.663L-19.218,21.663L-19.218,14.184L-2.298,14.184L-2.298,6.267L-19.218,6.267L-19.218,-0.608L-0.533,-0.608L-0.533,-8.799L-29.161,-8.799L-29.161,30.462L0,30.462L0,21.663Z" style="fill:rgb(35,31,32);fill-rule:nonzero;"/>
                </g>
                <g transform="matrix(0.576829,0,0,0.187427,1073.83,1094.65)">
                    <path d="M0,39.243L-15.143,19.505L0.014,0L-12.645,0L-26.124,19.516L-12.466,39.243L0,39.243Z" style="fill:rgb(35,31,32);fill-rule:nonzero;"/>
                </g>
                <g transform="matrix(0.576829,0,0,0.187427,1058.18,1096.91)">
                    <path d="M0,15.066L0,2.968L0,-12.098L-10.849,-12.098L-10.849,27.164L0,27.164L0,15.066Z" style="fill:rgb(35,31,32);fill-rule:nonzero;"/>
                </g>
                <g transform="matrix(0.576829,0,0,0.187427,1081.19,1098.99)">
                    <path d="M0,-7.129L0.107,-7.129L14.49,16.066L25.263,16.066L25.263,-23.195L15.346,-23.195L15.346,0.008L15.238,0.008L0.856,-23.195L-9.917,-23.195L-9.917,16.066L0,16.066L0,-7.129Z" style="fill:rgb(35,31,32);fill-rule:nonzero;"/>
                </g>
                <g transform="matrix(0.576829,0,0,0.187427,1109.33,1100.51)">
                    <path d="M0,-23.313C6.573,-23.313 9.093,-17.486 9.093,-11.658C9.093,-5.827 6.573,0.001 0,0.001C-6.576,0.001 -9.096,-5.827 -9.096,-11.658C-9.096,-17.486 -6.576,-23.313 0,-23.313M0,8.799C12.325,8.799 19.286,-0.273 19.286,-11.658C19.286,-23.041 12.325,-32.112 0,-32.112C-12.328,-32.112 -19.288,-23.041 -19.288,-11.658C-19.288,-0.273 -12.328,8.799 0,8.799" style="fill:rgb(35,31,32);fill-rule:nonzero;"/>
                </g>
                <g transform="matrix(0.576829,0,0,0.187427,1133.6,1096.68)">
                    <path d="M0,17.57C0,20.741 -3.369,21.419 -6.921,21.419C-11.551,21.419 -15.578,20.289 -18.466,18.812L-19.429,27.538C-15.7,28.674 -10.827,29.241 -6.921,29.241C2.405,29.241 11.548,26.465 11.548,16.208C11.548,1.928 -8.301,6.233 -8.301,-0.169C-8.301,-3.624 -3.611,-3.851 -0.783,-3.851C2.405,-3.851 5.653,-3.285 8.539,-2.037L9.263,-10.198C6.436,-11.106 2.465,-11.671 -1.564,-11.671C-9.984,-11.671 -19.85,-9.065 -19.85,0.451C-19.85,14.848 0,10.203 0,17.57" style="fill:rgb(35,31,32);fill-rule:nonzero;"/>
                </g>
            </g>
        </g>
    </g>
</svg>
