<svg xmlns="http://www.w3.org/2000/svg" fill-rule="evenodd" stroke-linejoin="round" stroke-miterlimit="2" clip-rule="evenodd" viewBox="0 0 30 16"><defs/><path fill="#157efb" fill-rule="nonzero" d="M2.785 0A2.798 2.798 0 00-.008 2.788v9.823A2.8 2.8 0 002.785 15.4H26.6a2.797 2.797 0 002.792-2.79V2.789A2.799 2.799 0 0026.6 0H2.785z"/><path fill="#fff" fill-rule="nonzero" d="M5.592 4.2v8.4h1.4V4.2h2.8V2.8h-7v1.4h2.8zM13.992 7.7l-2.8-4.9h1.4l2.1 3.675 2.1-3.675h1.4l-2.8 4.9 2.8 4.9h-1.4l-2.1-3.675-2.1 3.675h-1.4l2.8-4.9zM22.392 4.2v8.4h1.4V4.2h2.8V2.8h-7v1.4h2.8z"/></svg>