<svg xmlns="http://www.w3.org/2000/svg" viewBox="0 0 768.21 768.04"><defs><style>.cls-1{fill:#006c20;}</style></defs><g id="Слой_2" data-name="Слой 2"><g id="light"><path class="cls-1" d="M224.57,501.46c-16.41-2.59-32-4.34-47.21-7.62-23.8-5.12-46.28-13.74-62.23-33.31a279,279,0,0,1-25-36C70.72,391.09,57.47,355,45.32,318.42,28.23,267.05,14.72,214.68,2.52,162-10.58,105.41,28.9,46.55,86.28,37.08a129.27,129.27,0,0,1,17.88-1.71c3.47-.08,5.13-1,6.56-4.34A51.26,51.26,0,0,1,163,.26a51.87,51.87,0,0,1,45,40.25C213.47,66,198.71,91.92,174.12,100c-25.18,8.31-52.13-3.28-63-27.55-1.94-4.34-4.21-5.42-8.54-5.19-41.1,2.22-71.91,34.91-70.06,75.83.54,11.81,4,23.57,6.84,35.18,15,61.64,31.45,122.89,55.75,181.64,8.31,20.1,18.52,39.46,28.67,58.73,13.4,25.43,35,39.58,63.23,44.72,37.19,6.78,74.1,6.81,111.14-1,25-5.27,43.56-18.57,56.92-40.25,16.69-27.09,29.1-56.09,40-85.83C416.58,277.4,432.81,217,446.74,155.93,457,111,423.35,68.59,377.15,67.22c-3.84-.11-5.41,1.26-6.88,4.63-9.47,21.67-31.16,33.51-54.84,30.25-21.93-3-40.19-21.66-43.06-43.95A51.37,51.37,0,0,1,302.48,4.52c26.38-11.63,56.39.09,68,26.77,1.37,3.18,3,4,6.22,4.05,53.32,1,96.42,39.37,103.24,91.86,1.94,14.9-.18,29.51-3.68,44.06-12.2,50.82-25.22,101.42-42,151-12.67,37.39-26.23,74.48-47,108.31a235.21,235.21,0,0,1-25.33,33.91c-15.57,17.36-36.84,24.78-58.9,29.48-15.09,3.22-30.49,5-46.58,7.52v4.47q0,66.74,0,133.49c.06,55.9,45.65,99.28,101.38,96.54,49-2.41,89.1-43.82,90.12-93.24.32-15,.11-30,.11-45,0-74.59,61.49-133.06,135.92-127.18,51.6,4.07,87.9,31.5,108.46,79.3a112.75,112.75,0,0,1,9,41.7c.11,3.76,1.47,4.92,5,5.82,38.07,9.81,63.43,44.73,61.67,84.61-1.66,37.72-31.17,70.57-69,76.76-43.87,7.19-84.94-21.19-94.43-65.26-9.1-42.19,17.79-85.09,60.52-96.22,3.55-.92,4.38-2.26,4.24-5.71-1.88-44.25-37.37-82.91-81.44-88.54-58.38-7.46-107.83,36.14-108,95,0,18.32.53,36.72-.91,55C474.79,708.37,431,756,376.3,765.89,306.47,778.58,240.4,734,226.91,664.72a136,136,0,0,1-2.41-25.31c-.18-42.33,0-84.65.07-127C224.58,508.61,224.57,504.8,224.57,501.46ZM685.88,626.85a50.46,50.46,0,1,0-.17,100.91c27.36,0,50.23-22.57,50.43-49.71C736.35,649.6,714.17,627,685.88,626.85ZM157.72,32.14a19.52,19.52,0,0,0-19.31,19.41,19.33,19.33,0,1,0,19.31-19.41ZM342.4,51.43a18.94,18.94,0,0,0-18.8-19.3,19.26,19.26,0,1,0,18.8,19.3Z"/></g></g></svg>