<svg xmlns="http://www.w3.org/2000/svg" viewBox="0 0 480 312"><defs><style>.cls-1{fill:#006c20;}</style></defs><g id="Слой_2" data-name="Слой 2"><g id="light"><path class="cls-1" d="M412.7,0H80V.07A48.11,48.11,0,0,0,40.83,24H33.89a36.72,36.72,0,0,0-33,20.42,8,8,0,0,0,0,7.16A36.82,36.82,0,0,0,14.13,66.3l-1.28.86a28.84,28.84,0,0,0,16,52.84H50.67l16.41,39.38A93.41,93.41,0,0,0,72,169.43V304a8,8,0,0,0,8,8h24a8,8,0,0,0,7.16-4.42l16-32A8.08,8.08,0,0,0,128,272V236l16-12v80a8,8,0,0,0,8,8h24a8,8,0,0,0,7.16-4.42l16-32A8.08,8.08,0,0,0,200,272V229.81A84.8,84.8,0,0,0,224.27,216H320v88a8,8,0,0,0,8,8h24a8,8,0,0,0,7.16-4.42l16-32A8.08,8.08,0,0,0,376,272V236l16-12v80a8,8,0,0,0,8,8h24a8,8,0,0,0,7.16-4.42l16-32a8.58,8.58,0,0,0,.54-1.38l32-112a8.22,8.22,0,0,0,.3-2.2V67.3A67.38,67.38,0,0,0,412.7,0ZM33.58,40,27.2,54.91A20.76,20.76,0,0,1,17.42,48,20.8,20.8,0,0,1,33.58,40ZM99.06,296H88V280h19.06Zm16.14-70.4A8,8,0,0,0,112,232v32H88V190.15a91.67,91.67,0,0,0,43.17,23.48ZM171.06,296H160V280h19.06Zm176,0H336V280h19.06Zm16.14-70.4A8,8,0,0,0,360,232v32H336V216h40ZM419.06,296H408V280h19.06ZM464,158.88,434,264H408V208a8,8,0,0,0-3.56-6.66l-21.37-14.25A51.67,51.67,0,0,1,360,144H344a67.67,67.67,0,0,0,29.6,56H239.48A85,85,0,0,0,256,149.76V144H240v5.76a69.51,69.51,0,0,1-50.19,66.55A8,8,0,0,0,184,224v40H160V144H144v55.58a75.78,75.78,0,0,1-62.15-46.35L68,120H88V104H28.85a12.84,12.84,0,0,1-7.13-23.53l14.72-9.81a8.06,8.06,0,0,0,2.92-3.51L52.92,35.5a32.18,32.18,0,0,1,56.36-5.17l4.07,6.11A8,8,0,0,0,120,40h14.11a20.82,20.82,0,0,1,16.48,8,20.82,20.82,0,0,1-16.48,8H120V72h14.11a36.74,36.74,0,0,0,33-20.42,8,8,0,0,0,0-7.16,36.74,36.74,0,0,0-33-20.42h-9.83l-1.69-2.55A49.79,49.79,0,0,0,118.34,16H412.7A51.35,51.35,0,0,1,464,67.3Z"/><circle class="cls-1" cx="72" cy="48" r="8"/></g></g></svg>