<svg id="_1razv" data-name="1razv" xmlns="http://www.w3.org/2000/svg" viewBox="0 0 437.65 2353.05"><defs><style>.cls-1{fill:#006c20;}.cls-2{fill:#ffd500;}.cls-3{fill:#1a171b;}</style></defs><title>common-figures-bg-mobile</title><path class="cls-1" d="M1022.18,4417.88H1132c0-45.12,0-96.06,0-141.18-3.85.7-22.41,2.72-26.26,3.36a418.69,418.69,0,0,0-42.17,8.81,123.9,123.9,0,0,0-26.31,10.57c-7.06,3.25-20.28,14.36-24.4,20.8-3.7,5.78-5.58,12.74-6.4,19.76a78.88,78.88,0,0,0,.06,18C1008.16,4373.05,1018.12,4407,1022.18,4417.88Z" transform="translate(-695.3 -2064.83)"/><path class="cls-2" d="M695.3,3996.34v214.49a108,108,0,0,0,0-214.49Z" transform="translate(-695.3 -2064.83)"/><path class="cls-3" d="M695.3,2247.88a19.16,19.16,0,0,0,0-36.73Z" transform="translate(-695.3 -2064.83)"/><path class="cls-3" d="M695.3,2172.91a19.16,19.16,0,0,0,0-36.72Z" transform="translate(-695.3 -2064.83)"/><path class="cls-3" d="M695.3,2101.56a19.16,19.16,0,0,0,0-36.73Z" transform="translate(-695.3 -2064.83)"/><path class="cls-2" d="M1133,2771.56a86,86,0,1,1,0-171Z" transform="translate(-695.3 -2064.83)"/><path class="cls-1" d="M695.3,3090a86,86,0,1,1,9.28,171.53,89,89,0,0,1-9.28-.5Z" transform="translate(-695.3 -2064.83)"/><circle class="cls-3" cx="371.82" cy="457.33" r="3.29"/><circle class="cls-3" cx="394.97" cy="457.33" r="3.29"/><circle class="cls-3" cx="418.25" cy="457.33" r="3.29"/><circle class="cls-3" cx="371.82" cy="482.06" r="3.29"/><circle class="cls-3" cx="394.97" cy="482.06" r="3.29"/><circle class="cls-3" cx="418.25" cy="482.06" r="3.29"/><circle class="cls-3" cx="371.82" cy="506.65" r="3.29"/><circle class="cls-3" cx="394.97" cy="506.65" r="3.29"/><circle class="cls-3" cx="418.25" cy="506.65" r="3.29"/><circle class="cls-3" cx="371.82" cy="531.25" r="3.29"/><circle class="cls-3" cx="394.97" cy="531.25" r="3.29"/><circle class="cls-3" cx="418.25" cy="531.25" r="3.29"/><circle class="cls-3" cx="371.82" cy="555.84" r="3.29"/><circle class="cls-3" cx="394.97" cy="555.84" r="3.29"/><circle class="cls-3" cx="418.25" cy="555.84" r="3.29"/><circle class="cls-3" cx="371.82" cy="581.09" r="3.29"/><circle class="cls-3" cx="394.97" cy="581.09" r="3.29"/><circle class="cls-3" cx="418.25" cy="581.09" r="3.29"/><circle class="cls-3" cx="371.82" cy="605.69" r="3.29"/><circle class="cls-3" cx="394.97" cy="605.69" r="3.29"/><circle class="cls-3" cx="418.25" cy="605.69" r="3.29"/><circle class="cls-3" cx="371.82" cy="630.28" r="3.29"/><circle class="cls-3" cx="394.97" cy="630.28" r="3.29"/><circle class="cls-3" cx="418.25" cy="630.28" r="3.29"/></svg>