<svg id="_1razv" data-name="1razv" xmlns="http://www.w3.org/2000/svg" viewBox="0 0 1590.56 2551.08"><defs><style>.cls-1{fill:#006c20;}.cls-2{fill:#ffd500;}.cls-3{fill:#1a171b;}</style></defs><title>common-figures-bg</title><path class="cls-1" d="M1479.28,4653.7h109.8c0-45.12,0-96.06,0-141.18-3.85.69-22.41,2.71-26.26,3.36a415.89,415.89,0,0,0-42.17,8.81,123,123,0,0,0-26.31,10.57c-7.06,3.24-20.28,14.36-24.4,20.79-3.7,5.78-5.58,12.75-6.4,19.77a78.32,78.32,0,0,0,.07,18C1465.27,4608.86,1475.22,4642.8,1479.28,4653.7Z" transform="translate(0.52 -2102.61)"/><path class="cls-2" d="M0,3919.72v214.49A108,108,0,0,0,95.22,4027,108,108,0,0,0,0,3919.72Z" transform="translate(0.52 -2102.61)"/><path class="cls-3" d="M-.52,2976.5a29.6,29.6,0,0,0,21.16-28.36A29.61,29.61,0,0,0-.52,2919.77Z" transform="translate(0.52 -2102.61)"/><path class="cls-3" d="M-.52,2860.69a29.62,29.62,0,0,0,21.16-28.37A29.62,29.62,0,0,0-.52,2804Z" transform="translate(0.52 -2102.61)"/><path class="cls-3" d="M-.52,2750.45a29.61,29.61,0,0,0,21.16-28.37A29.6,29.6,0,0,0-.52,2693.72Z" transform="translate(0.52 -2102.61)"/><path class="cls-2" d="M1590.05,2450.76a109.51,109.51,0,0,1-11.66.63,108,108,0,1,1,0-216,109.52,109.52,0,0,1,11.66.62Z" transform="translate(0.52 -2102.61)"/><circle class="cls-3" cx="1507.91" cy="4.13" r="4.13"/><circle class="cls-3" cx="1536.98" cy="4.13" r="4.13"/><circle class="cls-3" cx="1566.21" cy="4.13" r="4.13"/><circle class="cls-3" cx="1507.91" cy="35.01" r="4.13"/><circle class="cls-3" cx="1536.98" cy="35.01" r="4.13"/><circle class="cls-3" cx="1566.21" cy="35.01" r="4.13"/><circle class="cls-3" cx="1507.91" cy="66.06" r="4.13"/><circle class="cls-3" cx="1536.98" cy="66.06" r="4.13"/><circle class="cls-3" cx="1566.21" cy="66.06" r="4.13"/><circle class="cls-3" cx="1507.91" cy="96.94" r="4.13"/><circle class="cls-3" cx="1536.98" cy="96.94" r="4.13"/><circle class="cls-3" cx="1566.21" cy="96.94" r="4.13"/><circle class="cls-3" cx="1507.91" cy="127.82" r="4.13"/><circle class="cls-3" cx="1536.98" cy="127.82" r="4.13"/><circle class="cls-3" cx="1566.21" cy="127.82" r="4.13"/><circle class="cls-3" cx="1507.91" cy="158.7" r="4.13"/><circle class="cls-3" cx="1536.98" cy="158.7" r="4.13"/><circle class="cls-3" cx="1566.21" cy="158.7" r="4.13"/><circle class="cls-3" cx="1507.91" cy="190.4" r="4.13"/><circle class="cls-3" cx="1536.98" cy="190.4" r="4.13"/><circle class="cls-3" cx="1566.21" cy="190.4" r="4.13"/><circle class="cls-3" cx="1507.91" cy="221.28" r="4.13"/><circle class="cls-3" cx="1536.98" cy="221.28" r="4.13"/><circle class="cls-3" cx="1566.21" cy="221.28" r="4.13"/><circle class="cls-3" cx="1507.91" cy="252.17" r="4.13"/><circle class="cls-3" cx="1536.98" cy="252.17" r="4.13"/><circle class="cls-3" cx="1566.21" cy="252.17" r="4.13"/></svg>