<svg xmlns="http://www.w3.org/2000/svg" viewBox="0 0 512 371.21"><defs><style>.cls-1{fill:#006c20;}</style></defs><g id="Слой_2" data-name="Слой 2"><g id="light"><path class="cls-1" d="M510.91,239.58c-.18-.3-18.21-30.67-7.54-68.91,6.9-24.7,11.13-59.17-7.9-83a54.22,54.22,0,0,0-43-20.34A89.17,89.17,0,0,0,423.65,52c-24.77-8-56.92-4.13-94.15.4-48.37,5.88-102.95,12.51-159.23-3.69a55.91,55.91,0,0,0,4-7.72,7.51,7.51,0,0,0-2.49-9c-.49-.36-5.07-3.6-13.79-6.16-10.86-3.18-23.26-4-36.86-2.4-12.45-3-26.42-16-30.87-21a7.5,7.5,0,0,0-11.7.69c-.34.48-8.34,12-5.73,26.84.16.93.37,1.85.61,2.77l-67,70.33A23.4,23.4,0,0,0,.77,125.2L4.4,139.11a23.54,23.54,0,0,0,22.86,17.61h.44q31.53-.57,53.73-5.16c30.43,43.3,71.48,71.21,83.95,79.1l.9,95.14-17.78,4.45a23.43,23.43,0,0,0-16.62,15.39l-5.24,15.7a7.51,7.51,0,0,0,7.12,9.87h48.1a7.5,7.5,0,0,0,6.24-3.34l13-19.56a31.59,31.59,0,0,0,4.94-12.79L221,248.64a353.67,353.67,0,0,0,49,3.72c23.41,0,41.54-3,56.59-7.18A99.11,99.11,0,0,0,355,256.38c1.09.25,2.18.47,3.28.68l-1,6.56a7.5,7.5,0,1,0,14.83,2.29l1.12-7.23,2.07,0a84.59,84.59,0,0,0,15.37-1.41L393.56,268a7.51,7.51,0,0,0,7.23,5.51,7.7,7.7,0,0,0,2-.27A7.5,7.5,0,0,0,408,264l-3-10.78a85.78,85.78,0,0,0,11.15-5.19l19.68,37.36v39.33l-14.44,5.31a23.67,23.67,0,0,0-14.77,14.85l-5.48,16.44a7.49,7.49,0,0,0,7.12,9.87H456.4a7.49,7.49,0,0,0,6.89-4.52L476,337.23a47.38,47.38,0,0,0,3.91-18.89V259.5a7.58,7.58,0,0,0-.46-2.58c-.11-.29-10.57-29.16-10.57-59.54,0-11.75,2.42-21.08,5-30.95,3.38-13,7.22-27.81,6-50.11-.4-7.58-3.43-19.13-10.89-30.68A38.64,38.64,0,0,1,483.74,97c11.94,15,13.73,39.07,5.19,69.67-12.41,44.43,8.27,79.26,9.16,80.72a7.5,7.5,0,1,0,12.82-7.78ZM87.3,23.13a20.79,20.79,0,0,1,.24-2.44c5.91,5.17,14.37,11.54,23.6,15.26-3.41,6.69-8.64,8.26-11.59,8.59C91.11,38.12,87,30.92,87.3,23.13ZM97,147.48q19.86-6.53,28.71-17.57c7.53-9.43,6-18,5.83-18.89a7.5,7.5,0,1,0-14.68,3s0,2.87-2.87,6.48c-5.93,7.43-25.06,20.06-86.55,21.17h-.15a8.69,8.69,0,0,1-8.36-6.39l-3.63-13.91a8.46,8.46,0,0,1,2-8L80.62,47A56.86,56.86,0,0,0,92.91,58.25a7.48,7.48,0,0,0,3.67,1.32c.53,0,1.08.06,1.67.06,8.29,0,22.27-4.55,28.29-21.63,14.66-1.17,24.82,1.25,30.59,3.39A46.2,46.2,0,0,1,135,59a7.5,7.5,0,0,0,2.25,14.65,7.81,7.81,0,0,0,2.22-.33,60.16,60.16,0,0,0,20.28-12.11C197,73,234.05,74.89,268.37,73.26c-7.89,24.07-29,25.9-53,28-20.44,1.75-41.56,3.56-53.63,20.69-6.37,9-8.43,18.93-10.26,27.66-3,14.55-5.29,25.26-24,32.11A267.92,267.92,0,0,1,97,147.48Zm237.34-47.06a7.5,7.5,0,0,0-10.6.23c-3.07,3.2-6.31,6.62-9.35,10.25-10,11.89-9.62,28.87.85,42.24,9.58,12.24,28.22,20.2,48.27,10.4,5.63-2.75,11.59-6.4,17.36-9.92,11-6.72,24.65-15.07,30.85-13.11.6.19,2.2.69,3.74,4.25,10.51,24.15,20.23,33.11,39.91,35.6a101.43,101.43,0,0,0-1.45,17c0,29.61,8.86,57.12,11,63.41v57.55h0a32.36,32.36,0,0,1-2.68,12.94l-10.78,24.93H418.71l2.19-6.57a8.6,8.6,0,0,1,5.4-5.4l.22-.07L446,337a7.51,7.51,0,0,0,4.91-7V283.55a7.43,7.43,0,0,0-.87-3.49L398.2,181.71a7.5,7.5,0,0,0-13.27,7l8.67,16.46c-2.34.45-4.7,1-7.1,1.63a7.5,7.5,0,0,0,1.93,14.75,7.59,7.59,0,0,0,1.93-.26A88.63,88.63,0,0,1,401,219.14l8.24,15.64c-24.53,13.8-48.25,9-62.39,3.59,5.37-2.11,10.38-4.27,15.19-6.35a7.5,7.5,0,1,0-5.95-13.77c-26.61,11.51-59.58,25.75-132.52,15.6l3.12-18.17a7.5,7.5,0,1,0-14.79-2.53L191.29,333.07l0,.16a16.78,16.78,0,0,1-2.6,6.76l-10.82,16.22H144.17l1.94-5.82a8.5,8.5,0,0,1,6-5.58l23.53-5.88a7.52,7.52,0,0,0,5.68-7.35l-1-105.21a7.5,7.5,0,0,0-3.72-6.4c-.29-.17-16.66-9.86-36.93-27.24,20.16-10.11,23.47-25.91,26.43-40.08,1.68-8,3.26-15.59,7.84-22.09,8-11.42,24.85-12.86,42.65-14.39,26.13-2.24,58.49-5,67.61-43.91,16.56-1.29,32.37-3.21,47.09-5l10-1.2a14.33,14.33,0,0,1,.59,11,7.5,7.5,0,0,0,4.75,9.48,7.59,7.59,0,0,0,2.37.39,7.51,7.51,0,0,0,7.12-5.14,29.15,29.15,0,0,0,.47-17.45C381.33,61.77,402.73,61,419,66.24c32.27,10.47,45.14,36.16,45.92,50.88,1.06,20-2.31,33-5.57,45.55-.26,1-.51,2-.77,3-14.06-1.43-20.32-6-29.39-26.87-2.83-6.52-7.2-10.75-13-12.58-12.73-4-27.53,5-43.2,14.62-5.72,3.5-11.13,6.81-16.11,9.24-13.36,6.53-24.19,1.1-29.88-6.16-5-6.37-7.28-16.07-1.16-23.36,2.74-3.28,5.79-6.5,8.68-9.51A7.51,7.51,0,0,0,334.33,100.42Z"/><path class="cls-1" d="M288.36,155.3c-19.92-16.6-47-24.88-67.45-20.62-9.6,2-17.8,7.41-22.49,14.83a24,24,0,0,0-3.31,18.57c2.53,10.52,12.73,13.86,21.73,16.8,8.21,2.69,16.69,5.46,21.24,12.91,6.83,11.18,16.42,18.81,26.3,21a26.81,26.81,0,0,0,5.67.61,26.43,26.43,0,0,0,15-4.74c8.6-5.84,20.11-15.18,20.78-28.73C306.3,175.64,300.43,165.36,288.36,155.3Zm-11.77,46.9a11.17,11.17,0,0,1-9,1.87c-5.72-1.23-12.11-6.64-16.67-14.11-7.43-12.16-19.6-16.14-29.38-19.34-5.52-1.81-11.24-3.68-11.81-6.06a8.91,8.91,0,0,1,1.4-7c2.5-3.95,7.32-7,12.88-8.17,15.93-3.33,38.46,3.85,54.79,17.46,5.68,4.73,12.38,11.75,12.06,18.32C290.48,192,282.54,198.16,276.59,202.2Z"/><circle class="cls-1" cx="79.8" cy="83.15" r="7.5"/></g></g></svg>