<svg id="Слой_1" data-name="Слой 1" xmlns="http://www.w3.org/2000/svg" xmlns:xlink="http://www.w3.org/1999/xlink" viewBox="0 0 1629.8 1522.81"><defs><style>.cls-1{fill:none;}.cls-2{clip-path:url(#clip-path);}.cls-3{fill:#006c20;}</style><clipPath id="clip-path" transform="translate(0 0)"><rect class="cls-1" width="1629.8" height="1522.81"/></clipPath></defs><title>diploma</title><g class="cls-2"><path class="cls-3" d="M1028.87,1522.81h-6c-18.76-3-29-14.47-34.7-32.22C977,1456.21,964.76,1422.2,953,1388c-2.32-6.73-2.28-6.69-9.12-5.36q-56.4,11-112.8,21.86c-19.62,3.76-37.69-6.75-43.46-25-3.79-12-1-22.8,5.19-33.41q50.81-87.53,101.3-175.23c5.13-8.87,4.57-7.92-4.71-7.92q-398.37,0-796.73-.12c-35.89,0-63.12-16.53-81.34-47.53C5.06,1104.7,2.22,1092.87,0,1080.87V82c.33-1.62.69-3.23,1-4.86C6,49.47,20.3,28,44.17,13.09,55.47,6,68,2.43,81,0H1547.81c1,.24,1.91.54,2.89.71,35.2,6,59.48,25.66,73,58.63,3.38,8.22,4.51,17,6,25.65v992.88a15.8,15.8,0,0,0-.62,2.41c-4.24,45.33-43.49,84-95.77,82.82-29.47-.65-59-.13-88.45-.1-5.8,0-6,.41-3.15,5.5.49.87,1,1.75,1.47,2.61q51.23,88.71,102.41,177.44c8,14,8,28.13-1.42,41.4s-22.8,17.39-38.32,14.46c-36.48-6.89-72.9-14.09-109.35-21.17-10.14-2-10.1-2-13.4,7.65q-18,52.44-36.07,104.88c-2.78,8.09-7.18,15-14.29,20-5.74,4-12.23,5.91-19,7.09h-5c-15.91-2.18-25.76-11.61-33.55-25.29-34.08-59.9-68.75-119.47-103.21-179.15-3.44-5.95-3.48-5.94-6.92,0-34.56,59.82-69.29,119.55-103.52,179.55-7.59,13.32-17.29,22.58-32.77,24.87M1371.79,754.6c1.19-1.91.89-3.6.89-5.2q0-190.71.11-381.41c0-5-1.66-7.2-6.47-8.8-47.44-15.79-79.32-47.48-95.71-94.71-3-8.59-1.08-8.2-11.29-8.2H370.52a31.41,31.41,0,0,1-3.5,0c-3.95-.44-5.85,1.18-7.12,5.1-15.77,48.68-47.85,81.45-96.44,97.71-5,1.69-6.63,4.14-6.62,9.27q.17,213,0,425.91c0,5.43,1.8,7.73,7,9.48,47.76,16.09,79.65,48.24,95.54,96.06,1.54,4.64,3.75,6.22,8.52,6.21q251.94-.13,503.89,0c5,0,6.86-1.77,8.12-6.48,20-74.84,61.22-134.63,126.45-177.07C1065.22,684.15,1130,668.88,1199.7,676c59.08,6,111.6,28.58,157.55,66.26,4.84,4,9.55,8.11,14.54,12.35M814.8,74.12H98.89c-2.83,0-5.67-.07-8.49.12A17.3,17.3,0,0,0,74.34,90c-.2,2.32-.11,4.66-.11,7v968.88c0,2,0,4,0,6a17.46,17.46,0,0,0,16.24,16.68c2.33.18,4.67.09,7,.09h787.9c1.17,0,2.33,0,3.5,0,5.3-.09,5.54-.41,3.52-5.45a299.81,299.81,0,0,1-18.09-65.88c-1.67-10.71-2.5-21.5-3.26-32.29-.25-3.58-1.92-5.06-5.44-4.83-2,.13-4,0-6,0q-264.23,0-528.44.22c-19.77,0-39.17-14.14-39.57-38.58C291,902.61,260,872,220.67,871c-22.9-.55-38-15.93-38-38.75q0-251-.23-501.94c0-20.05,15.74-39,38.3-38.69a63.83,63.83,0,0,0,32.57-8.4c24.28-13.69,37.39-34.46,38.4-62.45.69-19.12,11.25-33.27,28.63-37.45,5.54-1.33,11.22-1.35,16.9-1.35h956.88c6,0,12,.19,17.79,2.06,16.37,5.31,25.4,18.72,26,38.54,1.21,37.29,32.56,68.37,69.69,69.09,24.54.48,39.41,15.54,39.41,40q0,264,0,527.93a45.63,45.63,0,0,0,2.54,15.12c15.14,44.22,20,89.51,13.8,135.94a298.61,298.61,0,0,1-19.18,72.76c-1,2.57-2.52,5.22,2.4,5.22,30.66-.06,61.32,0,92-.12,7.89,0,14.13-5.56,16.26-13.22.92-3.29.67-6.61.67-9.93q0-483.94,0-967.88c0-2,.06-4-.06-6-.59-10.11-7.63-17-17.73-17.33-2.67-.08-5.33,0-8,0H814.8M1168,1194.89c117.77,1.54,220.9-94.47,223.65-218.21,2.7-122.13-94.91-228.33-223.45-228.12-128,.21-221.87,104-223.16,220.43-1.42,127.55,103.46,227.14,223,225.9m268.43,120.51c1,0,2.21.49,2.8-.46,1.12-1.81-.49-3.14-1.27-4.48q-33.08-57.39-66.16-114.76c-2.12-3.7-3.5-3.71-6.56-1a295.66,295.66,0,0,1-133,67.77c-5.31,1.19-5.61,1.89-2.86,6.65q35.12,60.83,70.3,121.61c.79,1.36,1.22,3.71,3.06,3.52s1.76-2.58,2.28-4.08c7.21-20.77,14.31-41.59,21.55-62.35,6.64-19.08,23.37-28.83,43.2-25.31,4.59.81,9.15,1.75,13.73,2.64l53,10.27m-402.18,80.5c1.12-1.58,1.54-2.08,1.86-2.65q36.15-62.52,72.33-125c2.53-4.36.16-4.92-3.26-5.67a296.17,296.17,0,0,1-132.51-66.69c-4.83-4.19-4.9-4.16-8.19,1.53q-32.88,56.91-65.72,113.85c-.72,1.25-1.93,2.36-1.58,4.42a38.75,38.75,0,0,0,4.3-.36q31.89-6.16,63.75-12.42c21.85-4.31,38.42,5,45.9,26.08,4.07,11.46,7.94,23,11.9,34.48l11.22,32.47" transform="translate(0 0)"/><path class="cls-3" d="M815.14,544.63q191.48,0,382.95,0a36.86,36.86,0,0,1,3.22,73.59c-4.8.39-9.64.62-14.46.62q-372.7,0-745.4,0a93.73,93.73,0,0,1-16.93-1.09c-19-3.48-31.63-20.87-29.74-40.71,1.74-18.31,17.52-32.46,36.41-32.46q192,0,384,0" transform="translate(0 0)"/><path class="cls-3" d="M814.9,363.65q75,0,150,0c19.42,0,34.87,13.86,37,33,2.08,18.25-10.14,35.48-28.42,39.89a56.79,56.79,0,0,1-13.39,1.34q-145.23,0-290.45,0c-13.84,0-26.18-3.45-34.73-15.16-8.7-11.93-10.06-25.09-3.7-38.27,6.45-13.37,17.56-20.77,32.7-20.8q75.48-.15,151,0" transform="translate(0 0)"/><path class="cls-3" d="M1168.37,1116.1c-79.67,0-144.62-65-144.45-144.48.18-80.09,65-144,145.93-144,78.22,0,143.08,65.57,142.94,144.43-.14,79.38-65,144-144.42,144m.12-74.36a70.14,70.14,0,0,0,70-69.9c0-38.46-31.45-69.81-70-69.82-38.89,0-70.42,31.42-70.3,70.08.12,38.43,31.65,69.66,70.31,69.64" transform="translate(0 0)"/></g></svg>