<svg xmlns="http://www.w3.org/2000/svg" viewBox="0 0 512 512"><defs><style>.cls-1{fill:#006c20;}</style></defs><g id="Слой_2" data-name="Слой 2"><g id="light"><path class="cls-1" d="M256,64a10.67,10.67,0,0,1-10.67-10.67V10.67a10.67,10.67,0,0,1,21.34,0V53.33A10.67,10.67,0,0,1,256,64Z"/><path class="cls-1" d="M399.32,123.35a10.66,10.66,0,0,1-7.55-18.2L421.93,75A10.66,10.66,0,1,1,437,90.07l-30.16,30.16A10.63,10.63,0,0,1,399.32,123.35Z"/><path class="cls-1" d="M501.33,266.67H458.67a10.67,10.67,0,0,1,0-21.34h42.66a10.67,10.67,0,1,1,0,21.34Z"/><path class="cls-1" d="M429.48,440.15a10.71,10.71,0,0,1-7.55-3.12l-30.16-30.16a10.66,10.66,0,0,1,15.08-15.08L437,422a10.66,10.66,0,0,1-7.53,18.2Z"/><path class="cls-1" d="M256,512a10.67,10.67,0,0,1-10.67-10.67V458.67a10.67,10.67,0,0,1,21.34,0v42.66A10.67,10.67,0,0,1,256,512Z"/><path class="cls-1" d="M82.52,440.15A10.66,10.66,0,0,1,75,422l30.16-30.16a10.66,10.66,0,0,1,15.08,15.08L90.05,437A10.63,10.63,0,0,1,82.52,440.15Z"/><path class="cls-1" d="M53.33,266.67H10.67a10.67,10.67,0,0,1,0-21.34H53.33a10.67,10.67,0,0,1,0,21.34Z"/><path class="cls-1" d="M112.68,123.35a10.71,10.71,0,0,1-7.55-3.12L75,90.07A10.66,10.66,0,0,1,90.07,75l30.16,30.16a10.66,10.66,0,0,1-7.55,18.2Z"/><path class="cls-1" d="M225.56,426.67a11.09,11.09,0,0,1-3.74-.66,10.66,10.66,0,0,1-6.84-11.4l18.19-137.28H160a10.66,10.66,0,0,1-8.53-17.06l128-170.67a10.68,10.68,0,0,1,19.07,8.15L279.25,213.33H352a10.67,10.67,0,0,1,9.39,5.61,10.8,10.8,0,0,1-.47,10.95l-126.45,192a10.69,10.69,0,0,1-8.91,4.78ZM181.33,256h64a10.7,10.7,0,0,1,10.58,12.07L242.24,371.29l90-136.62H266.67a10.66,10.66,0,0,1-10.52-12.42l14.14-84.86Z"/></g></g></svg>