<svg id="Слой_1" data-name="Слой 1" xmlns="http://www.w3.org/2000/svg" xmlns:xlink="http://www.w3.org/1999/xlink" viewBox="0 0 14.5 13"><defs><style>.cls-1{fill:none;}.cls-2{clip-path:url(#clip-path);}.cls-3{fill:#006c20;}</style><clipPath id="clip-path" transform="translate(0 0)"><rect class="cls-1" width="14.5" height="13"/></clipPath></defs><title>email-icon</title><g class="cls-2"><path class="cls-3" d="M1.5,0A1.51,1.51,0,0,0,0,1.5v8A1.51,1.51,0,0,0,1.5,11H7V10H1.5A.5.5,0,0,1,1,9.5V2L7,6.11,13,2V7h1V1.5A1.51,1.51,0,0,0,12.5,0Zm0,1h11l.09,0L7,4.89,1.41,1,1.5,1M12,8v2H8v1h4v2l2.5-2.5Z" transform="translate(0 0)"/></g></svg>