<svg xmlns="http://www.w3.org/2000/svg" viewBox="0 0 487.64 520"><defs><style>.cls-1{fill:#006c20;stroke:#fff;stroke-miterlimit:10;stroke-width:8px;}</style></defs><g id="Слой_2" data-name="Слой 2"><g id="light"><path class="cls-1" d="M391.74,4V35.35H427.1l-69,65.41a134.29,134.29,0,0,0-213.78,29c-2-.08-3.94-.14-5.92-.14C64.3,129.62,4,189.92,4,264c0,68.82,52,125.71,118.74,133.5V439.2H75.82v31.34h46.93V516h31.34V470.54h49V439.2h-49V397.54a134.65,134.65,0,0,0,102-68.62c2,.09,3.94.14,5.93.14,74.12,0,134.41-60.3,134.41-134.42a133.52,133.52,0,0,0-19.07-68.94l74.92-71V93.59h31.35V4ZM138.42,367.11a103.07,103.07,0,0,1-6.59-205.92,133.77,133.77,0,0,0-4.22,33.45c0,60.47,40.13,111.73,95.16,128.57A103,103,0,0,1,138.42,367.11Zm98.45-72.51a103.13,103.13,0,0,1-73.29-130.52A103.13,103.13,0,0,1,236.87,294.6Zm31.75,2.89A134.18,134.18,0,0,0,272.84,264c0-60.47-40.14-111.73-95.16-128.56a103.05,103.05,0,1,1,90.94,162Z"/></g></g></svg>