<svg xmlns="http://www.w3.org/2000/svg" viewBox="0 0 511.86 502"><defs><style>.cls-1{fill:#006c20;}</style></defs><g id="Слой_2" data-name="Слой 2"><g id="light"><path class="cls-1" d="M173.77,406.79V365.37c-9.21-2.81-16.85-7.81-22.23-15.93-5.07-7.65-7.47-16-6.25-25.11.44-3.27-.57-4.73-3.35-6.1-18.36-9-36.52-18.49-55-27.24-7.18-3.39-10.06-8-9.93-15.89.37-23.16.06-46.33.18-69.49,0-3.1-.8-4.57-3.9-5.72A37.77,37.77,0,0,1,50,153.34c.93-3.12.35-4.67-2.22-6.55C34.14,136.72,20.61,126.44,7.05,116.2a30,30,0,0,1-4.5-3.91c-3.16-3.56-3.34-7.5-.78-11.47a9.17,9.17,0,0,1,11.44-3.48,34.19,34.19,0,0,1,6.28,4q21.21,15.85,42.37,31.79c.26.19.59.3.56-.62,7-2.26,13.86-5.49,21-6.55,11-1.64,21.09,2,29.19,9.89,2.49,2.42,4.36,2.5,7.34,1,18.68-9.53,37.52-18.72,56.16-28.32,5.1-2.63,9.45-2.69,14.56-.06,18.65,9.57,37.51,18.74,56.18,28.25,3.21,1.64,5.16,1.27,7.8-1.14a37.28,37.28,0,0,1,51.13.2c2.48,2.34,4.27,2.75,7.29,1.12,7.46-4,15.07-7.81,22.75-11.42,2.61-1.22,3.16-2.69,2.83-5.41a37.28,37.28,0,0,1,24.49-40.14c3-1.09,3.93-2.44,3.9-5.66-.16-20.33-.07-40.66-.05-61a33.18,33.18,0,0,1,.09-4c.68-5.71,4.67-9.43,9.86-9.3s9.13,3.94,9.27,9.79c.25,9.82.13,19.66.13,29.49,0,11.33.08,22.66-.13,34-.06,3.63.84,5.51,4.59,6.87a37.12,37.12,0,0,1,24.1,38c-.35,4.32.74,6.45,4.69,8.37,18.57,9,36.92,18.45,55.46,27.49,5.64,2.75,8.08,6.6,8,12.94-.23,23.49-.1,47-.1,70.48v5.13c9.25,3.09,17,8,22.37,16.1,10.74,16.26,7.87,37.83-6.67,50.25-15.36,13.13-36.62,12.87-51.27-.85-2.38-2.22-4.16-2.43-6.93-1q-11,5.85-22.32,11.18c-2.64,1.25-3.51,2.73-3.34,5.72,1.17,19.88-7,32.61-25.47,40.68a5.81,5.81,0,0,0-2.87,4.25q-.36,17.49,0,35a5.31,5.31,0,0,0,2.73,3.84c18.56,8,26.9,20.92,25.64,40.57-.21,3.23.85,4.64,3.63,6,19.11,9.4,38.14,19,57.18,28.53,5.62,2.83,8,6.8,7.1,11.28-1.39,6.79-7.94,9.79-14.8,6.45-13.75-6.72-27.41-13.65-41.1-20.49-5.81-2.9-11.7-5.64-17.38-8.76-2.8-1.54-4.55-1.21-6.91,1-13.73,12.6-32.84,14.63-47.46,3.15-6.82-5.35-11.07-4.46-17.57-1-16.46,8.74-33.33,16.68-49.91,25.21-5.24,2.7-9.82,2.66-15.08,0-18.65-9.57-37.5-18.76-56.19-28.25-2.79-1.41-4.54-1.3-6.93.89-15.33,14.05-36.58,14-51.84-.07-2.41-2.22-4.16-2.27-6.92-.87q-28.94,14.7-58,29.11c-7.29,3.62-14.41.39-15.22-6.85-.6-5.43,2.62-8.55,7.16-10.81,15.2-7.54,30.35-15.17,45.52-22.77a22.28,22.28,0,0,1,2.7-1.3c8.48-2.93,13-7,12.79-17.82-.27-15.32,9.32-26.16,23.54-32.31C170.68,408,172.23,407.39,173.77,406.79Zm-77.14-169h.06c0,10.83-.15,21.67.15,32.49a7.16,7.16,0,0,0,3.14,5.28c17,8.76,34.18,17.18,51.24,25.83,2.3,1.16,3.68,1,5.62-.75,16.18-14.79,37.14-15,53-.36,2.29,2.1,4,2.11,6.5.78,7.22-3.78,14.48-7.51,21.89-10.9,3.12-1.42,4-3.18,3.69-6.51-1.46-18.14,7.8-33,24.74-39.68,2.76-1.09,3.8-2.44,3.76-5.4q-.22-16.49,0-33c0-2.89-.81-4.34-3.66-5.46-17-6.71-26.35-21.54-24.84-39.59.3-3.61-.85-5.28-4-6.82-17.19-8.4-34.22-17.12-51.45-25.45a8.89,8.89,0,0,0-6.76.32c-17.2,8.38-34.22,17.1-51.41,25.49-3,1.47-3.55,3.25-3.26,6.25,1.66,17.74-8,33.43-24.65,39.69-3.05,1.15-3.92,2.68-3.87,5.8C96.74,216.48,96.63,227.14,96.63,237.8ZM222.56,449.61l-1.65.83c1.1,1.12,2,2.62,3.35,3.3q26.51,13.36,53.16,26.44a7.08,7.08,0,0,0,5.46,0q26.69-13,53.12-26.51a6.12,6.12,0,0,0,2.51-4.9c-1.76-18.14,7.88-34.27,24.86-40.62,2.8-1,3.77-2.31,3.72-5.29-.18-11.15-.13-22.31,0-33.47,0-2.45-.46-3.86-3.1-4.75-15.86-5.29-28.07-22.38-25.4-41.21a5.54,5.54,0,0,0-2.42-4.42c-7.91-4.25-15.93-8.3-24.09-12a6.13,6.13,0,0,0-5.39,1c-15.72,14-37.07,14.33-52.46.34-2.32-2.11-4.08-2.6-6.93-1.08-7.18,3.84-14.47,7.5-21.86,10.91-3,1.4-4,3-3.65,6.43,1.54,17.91-8.11,33.23-24.86,39.61-3,1.17-3.87,2.75-3.81,5.85.19,10.65.23,21.32,0,32-.09,3.49,1.08,4.86,4.33,5.88,11.8,3.71,19.78,11.55,22.76,23.65C221.59,437.36,221.8,443.55,222.56,449.61Zm125.08-308.4c-9.09,4.51-18.07,8.83-26.87,13.48a5.6,5.6,0,0,0-2.43,4.51c2.62,18.92-9.94,36-25.44,41.34a5.5,5.5,0,0,0-2.91,4.11c-.24,11.49-.05,23-.19,34.48,0,2.58.76,3.88,3.22,4.67,14.89,4.78,27.74,21.21,25.32,40.77-.17,1.41.68,3.81,1.77,4.39,9.06,4.83,18.29,9.33,27.34,13.86a13.48,13.48,0,0,0,1.52-1.13c14.74-15.81,40.56-15.52,54.74-.84.91.94,3.64,1.08,5,.46C416,298,423,294.05,430.25,290.84c4-1.76,5.14-4,4.8-8.3a37.38,37.38,0,0,1,24.57-38.3c3.24-1.19,4.22-2.7,4.2-6.05q-.24-32,0-64c0-3.15-1-4.73-3.78-6.07q-25.06-12.32-50-25c-3.1-1.58-5.06-1.54-7.74,1-7.87,7.47-17.44,10.61-28.32,9.94C363.42,153.5,355,148.51,347.64,141.21Z"/></g></g></svg>