<svg id="Слой_1" data-name="Слой 1" xmlns="http://www.w3.org/2000/svg" xmlns:xlink="http://www.w3.org/1999/xlink" viewBox="0 0 16 12"><defs><style>.cls-1{fill:none;}.cls-2{clip-path:url(#clip-path);}.cls-3{fill:#006c20;}</style><clipPath id="clip-path"><rect class="cls-1" width="16" height="12"/></clipPath></defs><title>phone-icon</title><g class="cls-2"><path class="cls-3" d="M5.5,0A1.51,1.51,0,0,0,4,1.5v9A1.51,1.51,0,0,0,5.5,12h5A1.51,1.51,0,0,0,12,10.5v-9A1.51,1.51,0,0,0,10.5,0Zm0,1h5a.5.5,0,0,1,.5.5v9a.5.5,0,0,1-.5.5h-5a.5.5,0,0,1-.5-.5v-9A.5.5,0,0,1,5.5,1M2,9H3V3H2ZM13,9h1V3H13ZM0,8H1V4H0ZM15,8h1V4H15ZM7,10H9V9H7Z"/></g></svg>