<svg xmlns="http://www.w3.org/2000/svg" viewBox="0 0 920.9 812.13"><defs><style>.cls-1{fill:#006c20;stroke:#fff;stroke-miterlimit:10;stroke-width:13px;}</style></defs><g id="Слой_2" data-name="Слой 2"><g id="light"><path class="cls-1" d="M914.4,313.5a188.66,188.66,0,0,1-12.5,39.41C875.64,412,830.05,446.43,766.45,455c-43.34,5.82-83.8-4.8-119.39-31.13-37.48-27.71-60.83-64.52-68-110.61-4.68-29.92-1.07-59.39,9.76-87.9,15.75-41.45,38.27-79,64.48-114.58A785.29,785.29,0,0,1,721.4,30.48c7.88-8.13,16.21-15.79,24-24h2C758.69,16.87,769,28.23,779.64,39.22c6.14,6.33,12.34,12.64,18.07,19.34,23.54,27.47,45.8,55.92,65.46,86.35a406.8,406.8,0,0,1,39.41,77.29,226.46,226.46,0,0,1,11.82,44.3ZM745.46,398.7c22.16.57,42.09-6.13,60.63-17.61,39.29-24.33,60.42-73.13,48.45-120.55-4.85-19.21-12.71-37.18-22-54.52-22.71-42.23-52-79.72-83.44-115.67-2.41-2.76-3.92-2.24-5.89.13-3.51,4.23-7.1,8.4-10.66,12.59-32.36,38.11-61.3,78.49-82.39,124.09-8.09,17.51-14.43,35.66-15.33,55-1.39,30,8.37,56.24,28.39,78.73C685.14,385.59,712.74,397.7,745.46,398.7Z"/><path class="cls-1" d="M298,805.5c-19.4.46-42-.09-64.17-5.89-49-12.84-92.93-35.49-130.44-69.78A299.37,299.37,0,0,1,42.16,651.4C23.68,617.45,11.78,581.32,7.94,543a280.08,280.08,0,0,1,1.85-71.29c5.42-34.61,15.83-67.68,29.68-99.8,15.22-35.28,33.9-68.66,54.27-101.16,30.94-49.37,66.2-95.52,103.68-140q42-49.92,88-96.2c4.34-4.37,8.95-8.48,13.13-13,3.19-3.44,5.75-3,8.77.1,11.45,11.63,23.21,23,34.42,34.82C354.63,70.08,367,84.25,379.77,98.09c18.51,20.1,36,41.1,53.14,62.32q35.86,44.33,67.36,91.86c26.23,39.67,49.58,81,68,124.92,14.41,34.41,25.32,69.91,29.1,107.16,4.46,43.95-1.4,86.75-16.54,128.24a296.86,296.86,0,0,1-149.07,165,299.7,299.7,0,0,1-75.11,25.18C338.42,806.19,319.81,805.68,298,805.5ZM64.26,514.7c.39,42.47,12.34,81.68,33.34,118.37,11.73,20.51,28,37.15,44.66,53.54,25.35,25,55.61,41.66,89.25,52.2,28.05,8.78,56.84,11.49,86.34,9.88,33-1.81,63.89-10.58,93.34-25,30.14-14.8,54.46-36.95,76-62.16,28.67-33.54,45-72.68,51.4-116.28,4.52-30.79,2.48-61.12-4.77-91.16-7.66-31.75-20.83-61.45-35.16-90.62-10.66-21.7-23.19-42.34-35.91-62.89-17.66-28.5-37-55.76-57.4-82.36q-29.44-38.51-61.63-74.76c-11.25-12.72-22.42-25.54-34.22-37.73-7.91-8.17-7.23-7.33-12.72-.36-1.32,1.67-3.33,2.79-4.77,4.38-24.41,26.88-48.25,54.24-71,82.5q-36.42,45.15-68.49,93.49c-24.45,37.06-46.45,75.45-63.32,116.59C74.43,438.28,63.8,475.27,64.26,514.7Z"/><path class="cls-1" d="M709.34,284.15c15.84,0,28.39,12.4,28.38,28,0,16-12.18,28.42-27.89,28.41-15.42,0-29.1-12.62-29.29-27A28.85,28.85,0,0,1,709.34,284.15Z"/><path class="cls-1" d="M140.42,502.28c7.83,0,15.66.11,23.48,0,4.06-.08,5.55,1.61,5.72,5.62,1.5,36.83,15.37,68.08,42.23,93.51C235.77,624,263.83,637,297,638c5.36.15,6.72,2.23,6.64,7.24-.25,14.82-.18,29.65,0,44.47.07,4.58-1.58,6.13-6.12,6.06-15.94-.26-31.42-3.1-46.72-7.34a184.06,184.06,0,0,1-91.56-57.9,189.7,189.7,0,0,1-45-97.57c-1.21-8.06-2.08-16.17-2.81-24.29-.5-5.61.36-6.34,6-6.37C125.09,502.24,132.76,502.28,140.42,502.28Z"/></g></g></svg>