<svg xmlns="http://www.w3.org/2000/svg" viewBox="0 0 459.5 511.94"><defs><style>.cls-1{fill:#006c20;}</style></defs><g id="Слой_2" data-name="Слой 2"><g id="light"><path class="cls-1" d="M166.49,0c10.73,3.2,20,8.78,22,20.49,2.24,13.17,4.41,27.18-2.36,39.43-3.51,6.36-2.53,10.64-.17,16.29,8.06,19.29,18.21,37.57,26.73,56.63,7.24,16.2,10.35,33.21,10.75,50.77.28,12.49.09,25,0,37.49,0,4.52-2,8-6.14,10-3.7,1.76-7.18,1-10.23-1.51-2.73-2.29-3.64-5.39-3.62-8.91q.08-17.74,0-35.49a111.66,111.66,0,0,0-12.2-51.29c-2.34-4.57-4.63-9.17-6.69-13.87-1.09-2.47-2.53-3.39-5.27-3.39q-57.24.13-114.47,0c-2.46,0-3.94.69-5.07,3-7.5,15.15-15.3,30.18-17.71,47.24a150.41,150.41,0,0,0-1.52,20.88q0,115.22,0,230.43c0,24.18,14.84,40,38.91,41.84,8.78.67,13.68,6.68,11.08,13.68-1.64,4.42-4.93,6.27-9.6,6.38-32.63.82-60.09-25.63-60.21-59.23-.3-78.31-.07-156.62-.11-234.94,0-24.64,6.89-47.38,18.25-69A324.46,324.46,0,0,0,53.81,84q-7.64,4.68-15.27,9.37c-7.62,4.69-15.13,9.58-22.88,14.05-6,3.46-11.8,1.85-14.51-3.49C-1.43,98.88.38,93.61,6.11,90c9-5.67,18-11.25,27.05-16.86,5.16-3.21,10.33-6.4,16.33-10.11-8.62-3.56-16.36-6.73-24.09-10a38.14,38.14,0,0,1-6.24-3c-4.71-3.09-6.05-8-3.71-12.52s7-6.75,12.17-4.86c7.45,2.76,14.77,5.88,22.15,8.83,1.35.54,2.71,1,5,1.86C52.61,23.42,55,6.19,77.49,0ZM122.33,20c-13,0-26,0-39,0-6.13,0-8.9,2.74-9,8.74-.07,5.66-.08,11.33,0,17,.1,6.31,2.81,9,9.18,9.18,3.66.1,7.33,0,11,0Q127,55,159.5,55c7.53,0,10.14-2.62,10.28-10.19.1-5.16.11-10.33,0-15.49-.15-6.7-2.82-9.28-9.48-9.3C147.64,20,135,20,122.33,20ZM71,96.73h28.3c23.09,0,46.18-.1,69.26.1,4.2,0,4.4-1.16,2.87-4.42q-3.45-7.41-6.51-15c-.72-1.76-1.56-2.53-3.59-2.53q-39.15.09-78.29,0c-1.86,0-3,.5-3.79,2.41C76.75,83.52,74,89.68,71,96.73Z"/><path class="cls-1" d="M459.36,382.15c0,20.82-.37,41.66.13,62.47.36,15-6.25,25.76-17.93,34.09-16.37,11.67-35.17,17.56-54.37,22.2C341.35,512,294.69,513.5,248,510.75c-36.32-2.14-72.26-7.45-105.95-22.58A79.48,79.48,0,0,1,118.81,473c-7.18-6.95-11-15.18-11-25.24q.06-66.22,0-132.46c0-12.79,6.23-22.14,15.94-29.48,17.05-12.88,37-19.06,57.41-23.81,41.74-9.73,84.11-12,126.79-10.17,2.67.12,5.33.07,8,.17,5.73.24,9.86,2.9,11.14,7.57,1.36,5-.8,8.56-4.87,11.46-4.55,3.25-4.39,4.34.64,6.89,13.18,6.68,27.28,7.87,41.69,6.72A78.34,78.34,0,0,0,384,280.94c5.09-1.76,9.6-4.19,13-8.7,3.58-4.77,8.76-5.18,14-3.12,11.88,4.71,23.63,9.7,33.67,18,9.83,8.08,15.08,18,14.82,31.09C459.05,339.49,459.36,360.82,459.36,382.15ZM439.43,344c-2.31,0-3.55,1.18-4.93,2a134.79,134.79,0,0,1-25.44,11.15c-21.6,7.3-43.86,11.36-66.47,14a500.27,500.27,0,0,1-66.2,3.36c-22.77-.36-45.48-1.84-68-5.49-21.48-3.47-42.54-8.23-62.72-16.6-6-2.5-11.54-6.1-18-8.87,0,34,.19,67.23-.14,100.49-.08,8.49,3.34,14.16,10,18.7,13.66,9.33,29.11,14.23,44.9,18.13,26,6.45,52.52,9.43,79.32,10.48,41.38,1.63,82.38-.66,122.74-10.45,15.65-3.79,30.92-8.73,44.53-17.77,7-4.63,10.78-10.41,10.57-19.4-.5-21.47-.16-43-.16-64.44ZM148.12,294.18c-5.17,2.71-10.09,5.45-14.39,9.17-7.32,6.33-7.37,13.36,0,19.22a87.46,87.46,0,0,0,17,10.35c1.49.72,2.35,1.08,3.57-.74,3.51-5.24,8.63-8.63,14.35-11.12,16-7,32.81-8,49.83-5.72,9.87,1.32,19.51,3.87,27.9,9.72,7.51,5.25,11.89,11.87,10.24,21.55-.43,2.58-2.74,4.46-2.48,7.26,52.41,2,104.18.08,154.82-17.66-4.46-4.06-5.48-8.23-3-12.73,2.3-4.2,6.22-5.8,10.94-5.47,5.61.38,9,3.42,10.31,9.2,2.19-1.59,4.16-2.8,5.89-4.31,8-7,7.93-12.92-.26-19.67-4.5-3.7-9.64-6.4-14.65-9.34-5.93-3.48-11.29-5-16.64.81-.95,1-2.52,1.56-3.87,2.18-16,7.4-32.9,9.18-50.14,7.78-12.94-1.05-25.66-3.64-36.81-11-6.61-4.34-11.86-9.89-12-18.35-.07-3.53-1-4.41-4.47-4.38-21.47.23-42.91.74-64.28,3a344.83,344.83,0,0,0-58,11c-2.75.78-2.91,1.56-1.81,4.28,2.36,5.8-1,11.31-7.12,12.95C156.13,304.06,151.66,301.7,148.12,294.18Zm25.73,47a257,257,0,0,0,40.39,8.55c8.1,1.06,15.64-1.83,22.39-7.05C222.1,331.46,186.5,332.25,173.85,341.2Z"/><path class="cls-1" d="M425.2,168.63c-10.24,2-19.73,4.15-29.38,5.57-28,4.11-56,4.68-84.16,2.93-20.09-1.25-40-3.65-59.4-9.16-6.87-1.95-10.12-6.12-9.16-11.48,1.16-6.47,6.26-10.07,12.88-8.2,32.74,9.22,66.26,10.63,99.89,9.54,23.72-.77,47.41-3,70.13-10.85,1.1-.38,2.21-.73,3.27-1.19,7.86-3.4,7.82-3.4,7.57-12.13-.11-3.79,0-7.59,0-12-13.68,5.45-27.47,8.21-41.38,10.15-23.61,3.29-47.37,3.95-71.2,3.28-23.67-.67-47.09-3.05-70-9.21-9.61-2.58-19.1-5.8-26.52-13-8.53-8.34-8.08-19.76,1.1-27.36,10.21-8.43,22.59-11.72,35.1-14.42,30.93-6.69,62.32-8.16,93.8-6.84,25.23,1.07,50.38,3.49,74.51,11.81,6.62,2.28,12.91,5.24,18.15,10.06,3.83,3.51,6.32,7.7,6.33,13q.07,21.49.06,43a17.46,17.46,0,0,1-7.05,14.18,9.3,9.3,0,0,0-3.39,6.31c-4,25.08-8.32,50.11-12.54,75.16a59.84,59.84,0,0,1-1.33,7.33c-1.54,5.18-5.88,7.75-11.15,6.92-4.71-.74-8-4.67-7.85-9.91.3-9.84,2.86-19.37,4.3-29.06C420,198.48,422.62,184,425.2,168.63Zm10.5-69a48.62,48.62,0,0,0-12.34-5.58c-18.67-5.71-37.87-8-57.3-9.21-32-2-63.77-1.07-95.28,5.18-9.51,1.88-18.89,4.22-27.71,9.56,5.65,4,11.68,5.83,17.75,7.4,28.71,7.44,58,8.82,87.49,8.35,20.79-.34,41.46-2,61.8-6.46C418.79,107,427.53,104.92,435.7,99.63Z"/><path class="cls-1" d="M182.48,205.08c0,8.15.06,16.31,0,24.47-.07,7.44-3.76,11.62-10.06,11.59s-9.89-4.33-9.92-11.73c0-10.49-.22-21,0-31.46.43-17.08-1.26-33.78-7.34-49.88-1.77-4.67-1-8.94,3.05-12.06,5.77-4.41,13-1.65,15.82,5.87a135.88,135.88,0,0,1,8.42,47.22C182.51,194.42,182.49,199.75,182.48,205.08Z"/><path class="cls-1" d="M253.37,281c6.4.08,11.32,4.6,11.09,10.18s-5.07,9.8-11.11,9.82c-6.5,0-11.19-4.22-11.16-10.07C242.23,284.87,246.68,280.92,253.37,281Z"/><path class="cls-1" d="M309.34,321c6.4,0,11,4,11.09,9.55s-4.85,10.24-11.15,10.36c-6.47.13-11.19-4.41-11-10.62C298.37,324.45,302.6,320.91,309.34,321Z"/></g></g></svg>