<svg xmlns="http://www.w3.org/2000/svg" viewBox="0 0 361.09 318.88"><defs><style>.cls-1{fill:#006c20;}</style></defs><g id="Слой_2" data-name="Слой 2"><g id="Слой_1-2" data-name="Слой 1"><path class="cls-1" d="M358.24,103.21a80.19,80.19,0,0,0-68.5-13.6C311.58,45,287.38,5.11,286.26,3.3a7,7,0,0,0-12.93,3.2c-1.91,27.56-18.8,47.2-33.85,59.43a151.82,151.82,0,0,0-58.94-11.6,157.44,157.44,0,0,0-31.45,3.14,2,2,0,0,0-.33.08A145.6,145.6,0,0,0,121.61,66C106.54,53.73,89.67,34.07,87.74,6.52a7,7,0,0,0-12.92-3.2C73.69,5.13,49.48,45,71.35,89.66A80.16,80.16,0,0,0,2.83,103.23a7,7,0,0,0,1.2,12,49.36,49.36,0,0,1,23.16,25.7,31.23,31.23,0,0,0,29.27,22.63,86.09,86.09,0,0,0,22.43,46,54.85,54.85,0,0,1,14.9,38.9c0,.62,0,1.24,0,1.86,0,20.18,11.08,38.34,28.68,50.9l.28.2a104.32,104.32,0,0,0,115.55.06l.21-.15c17.7-12.56,28.84-30.77,28.84-51,0-.63,0-1.26,0-1.87a54.83,54.83,0,0,1,14.9-38.89,86.11,86.11,0,0,0,22.44-46,31.22,31.22,0,0,0,29.26-22.64A49.34,49.34,0,0,1,357,115.23a7,7,0,0,0,1.2-12Zm-75.93-72.1a76.42,76.42,0,0,1-7.6,56.94,119.82,119.82,0,0,0-21.6-15.41A103.71,103.71,0,0,0,282.31,31.11Zm-203.6-.2A103.8,103.8,0,0,0,108,72.63,120.62,120.62,0,0,0,86.35,88,76,76,0,0,1,78.7,30.91ZM40.42,136.3A59.75,59.75,0,0,0,20,108.84a65.63,65.63,0,0,1,51.77-4.65,82.26,82.26,0,0,0-16.11,45.27A17.43,17.43,0,0,1,40.42,136.3Zm67.32,114c0-.47,0-.94,0-1.39a68.81,68.81,0,0,0-18.55-48.82,70.26,70.26,0,0,1-19.64-47.66c0-35.06,28.48-65.16,68.83-77.75-.09.87-.19,1.74-.2,2.69,0,12,7,24.65,21,37.74,13.82,12.94,20.47,29.76,18.22,46.15a34.23,34.23,0,0,1-16.67,26.35c-21.74,11.32-45.11,28.8-36,63.8a55.59,55.59,0,0,0-7.64,25.6,44.26,44.26,0,0,1-9.38-26.71Zm24.94,41A40.87,40.87,0,0,1,131,279.67c0-24.86,22.24-45.09,49.57-45.09s49.59,20.23,49.59,45.09a41.23,41.23,0,0,1-1.73,11.62,91.23,91.23,0,0,1-95.69,0Zm139.16-91.24a68.78,68.78,0,0,0-18.54,48.83c0,.46,0,.92,0,1.38A44.18,44.18,0,0,1,244,277c-1.54-31.31-29.35-56.37-63.43-56.37A65.88,65.88,0,0,0,136.66,237c-.23-17.06,11.77-27.23,30.6-37a48.16,48.16,0,0,0,24.08-36.87c2.87-21-5.34-42.19-22.52-58.27-13.54-12.66-16.5-21.74-16.6-27.13A12.76,12.76,0,0,1,154,70.79a143.59,143.59,0,0,1,26.58-2.46c61.2,0,111,37.7,111,84.06a70.31,70.31,0,0,1-19.65,47.66Zm48.8-63.75a17.42,17.42,0,0,1-15.24,13.17,82.33,82.33,0,0,0-16.1-45.27,65.69,65.69,0,0,1,51.76,4.64,59.8,59.8,0,0,0-20.4,27.46Z"/><path class="cls-1" d="M126.47,162.84a15.63,15.63,0,1,0-15.62-15.63A15.63,15.63,0,0,0,126.47,162.84Z"/><path class="cls-1" d="M234.62,131.59a15.63,15.63,0,1,0,15.62,15.62h0A15.64,15.64,0,0,0,234.62,131.59Z"/><path class="cls-1" d="M164,260.41a12,12,0,1,0,12,12A12,12,0,0,0,164,260.41Z"/><path class="cls-1" d="M197.06,260.41a12,12,0,1,0,12,12A12,12,0,0,0,197.06,260.41Z"/></g></g></svg>