<svg id="Capa_1" data-name="Capa 1" xmlns="http://www.w3.org/2000/svg" viewBox="0 0 385.38 385.38"><defs><style>.cls-1{fill:#006c20;}</style></defs><title>stonks</title><path class="cls-1" d="M320,489.74H22.26V187.26a11.13,11.13,0,0,0-22.26,0V500.87A11.15,11.15,0,0,0,11.13,512H320a11.13,11.13,0,0,0,0-22.26Z" transform="translate(0 -126.62)"/><path class="cls-1" d="M384.52,133.5a11.18,11.18,0,0,0-10.27-6.88H240.68a11.13,11.13,0,0,0,0,22.26h106.7l-34.33,34.33-10.44,10.44L229.24,267a11.11,11.11,0,0,0-3.26,7.87v77.92H148.06a11.08,11.08,0,0,0-7.87,3.26l-13.77,13.77h0L79.84,416.43a11.12,11.12,0,1,0,15.73,15.73l43.7-43.69,13.4-13.4h84.44a11.14,11.14,0,0,0,11.13-11.13V279.5l69.59-69.59h0l45.29-45.29v106.7a11.13,11.13,0,0,0,22.26,0V137.75A11.2,11.2,0,0,0,384.52,133.5Z" transform="translate(0 -126.62)"/></svg>