<?xml version="1.0" encoding="utf-8"?>
<!-- Generator: Adobe Illustrator 24.0.1, SVG Export Plug-In . SVG Version: 6.00 Build 0)  -->
<svg version="1.1" id="Слой_2" xmlns="http://www.w3.org/2000/svg" xmlns:xlink="http://www.w3.org/1999/xlink" x="0px" y="0px"
	 viewBox="0 0 1172 672" style="enable-background:new 0 0 1172 672;" xml:space="preserve">
<style type="text/css">
	.st0{fill:#FFFFFF;}
</style>
<g>
	<path class="st0" d="M64.2,262.8h50.5c9.3,0,15.3,1.4,20.4,4.1c11.6,5.7,19.4,17.2,19.4,32c0,8.7-3.7,16.6-10.1,22.5
		c12.2,5.7,20.7,17.1,20.7,31.7c0,15.1-7.9,27.2-19.8,33.3c-5.4,2.8-11.6,4.4-21.4,4.4H64.2V262.8z M112.4,315.2
		c5.5,0,8.3-0.4,10.9-1.4c6.1-2.6,10.6-7.8,10.6-15.1s-4.6-12.5-10.6-15.1c-2.5-1.1-5.3-1.5-10.9-1.5H85.5v33.1H112.4z M120.1,371.3
		c6.1,0,9.1-0.6,12-1.7c6.8-2.8,12-8.7,12-17.2c0-8.1-5-14.3-12-17c-2.8-1.2-5.8-1.7-12.1-1.7H85.5v37.7H120.1z"/>
	<path class="st0" d="M204.4,262.8v71.8c0,5.7,0.6,9.8,1.8,13.7c3.9,12.8,14.4,22.5,29.9,22.5c15.5,0,26.1-9.6,30-22.5
		c1.2-3.9,1.8-8,1.8-13.7v-71.8h21.3v71.7c0,7.4-0.9,13.3-2.5,18.6c-6.4,22.2-25.1,37.7-50.6,37.7c-25.4,0-44.2-15.5-50.5-37.7
		c-1.7-5.4-2.6-11.2-2.6-18.6v-71.7H204.4z"/>
	<path class="st0" d="M313,390.8v-128h59.8c9.8,0,16.3,1.8,21.9,4.9c11.2,5.9,18.4,17.4,18.4,31.9c0,8.1-2.3,15.4-6.5,21.3
		c-4.2,6-9.8,10-16.3,12.3c-1.4,0.5-2.9,1-4.5,1.4l34,56h-24.7l-32.3-54.4h-28.4v54.4H313z M370.2,316.6c5.6,0,8.5-0.4,11.1-1.5
		c6.2-2.6,10.7-7.9,10.7-15.3c0-7.4-4.5-12.8-10.7-15.4c-2.5-1.1-5.4-1.5-11.1-1.5h-35.8v33.8H370.2z"/>
	<path class="st0" d="M493.8,390.8c-37.3,0-65-27.9-65-64c0-36,27.7-64,65-64c37.3,0,65.1,27.9,65.1,64
		C558.9,362.9,531.1,390.8,493.8,390.8z M493.8,282.7c-25.6,0-43.2,19.3-43.2,44.2s17.6,44,43.2,44c25.7,0,43.2-19.1,43.2-44
		S519.5,282.7,493.8,282.7z"/>
	<path class="st0" d="M726.3,262.8v20h-43.5v108.1h-21.4V282.7h-43.3v-20H726.3z"/>
	<path class="st0" d="M750.3,352.7c11.1,11.2,25.3,18.1,39.7,18.1c14.5,0,26.5-7.4,26.5-18.7c0-14-18.2-16.6-37.3-20.5
		c-21.1-4.4-40-11.9-40-33c0-19.9,16-35.8,43.8-35.8c15.8,0,32.6,5.9,46,17.5l-12.6,15.1c-8.7-8.1-21.4-13-33.7-13
		c-12.6,0-22.7,5.6-22.7,14.5c0,10.2,11.8,12.8,31,16.3c20.2,3.5,46.7,10.3,46.7,39c0,22-20.2,38.6-47.3,38.6
		c-17.3,0-36.7-6.8-53.4-22.9L750.3,352.7z"/>
	<path class="st0" d="M876,262.8v71.8c0,5.7,0.6,9.8,1.8,13.7c3.9,12.8,14.4,22.5,29.9,22.5s26.1-9.6,30-22.5
		c1.2-3.9,1.8-8,1.8-13.7v-71.8h21.3v71.7c0,7.4-0.9,13.3-2.5,18.6c-6.4,22.2-25.1,37.7-50.6,37.7c-25.4,0-44.2-15.5-50.5-37.7
		c-1.7-5.4-2.6-11.2-2.6-18.6v-71.7H876z"/>
	<path class="st0" d="M996.3,262.8l55.4,66.7l55.3-66.7h11.6v128h-21.4v-87.4l-45.5,55.6l-45.6-55.6v87.4h-21.3v-128H996.3z"/>
</g>
</svg>
