<svg width="122" height="83" xmlns="http://www.w3.org/2000/svg">
 <g>
  <title>Layer 1</title>
  <g transform="rotate(-84.80281066894531 73.30546569824219,43.89670562744141) " id="svg_1">
   <path id="svg_2" d="m89.29,24.42667c0,0 -3.35,1.82 -4.47,4.35c0,0 -1.07,1.7 -0.72,3.3c0.1,0.44 0.39,0.81 0.77,1.05c0.65,0.42 1.82,1.05 2.91,1.11c0.5,0.02 0.97,-0.19 1.28,-0.58c0.71,-0.9 2.08,-3.04 2,-6.05c0,0 0.47,-4.29 -1.77,-3.18z"/>
   <path id="svg_3" d="m67.85,40.98667c0,0 -0.76,-1.09 0,-1.76c0.76,-0.68 3.38,-2.21 3.38,-2.21s1.47,-0.53 2.03,0.24c0.56,0.76 1.53,3.38 1.62,3.74c0.09,0.35 0.24,2.38 0,2.85c-0.21,0.42 -1.01,1.27 -2.54,1.36c-0.38,0.02 -0.76,-0.08 -1.07,-0.31c-0.91,-0.68 -2.34,-2.1 -3.42,-3.91z"/>
   <path id="svg_4" d="m85.03,43.10667c0,0 -0.18,-1.67 0.85,-2.08c1.03,-0.42 4.09,-0.42 4.09,-0.42s1.29,0.24 1.65,0.97c0,0 0.18,0.88 -0.32,1.38c-0.5,0.5 -0.44,1.25 -3.26,2.24c0,0 -1.62,0.67 -2.21,-0.19c-0.59,-0.84 -0.79,-1.48 -0.8,-1.9z"/>
   <path id="svg_5" d="m72.5,52.81667c0,0 0.5,-0.71 2.21,-0.85c1.71,-0.15 2.91,1.5 2.91,1.5s0.47,0.85 0,2.18s-1.85,3.26 -2.97,3.94c0,0 -1.59,0.91 -2.68,-0.26c0,0 -1.12,-1.5 -0.47,-4.09c0,-0.01 0.77,-2.21 1,-2.42z"/>
   <path id="svg_6" d="m55.07,58.23667c0.04,-0.86 0.3,-1.71 0.82,-2.39c0.43,-0.57 1.08,-1.11 2.01,-1.27c2.18,-0.38 3.74,1.97 3.74,1.97s1.41,1.79 0.97,3.71s-2,2.32 -2,2.32s-2.62,1.42 -4.38,0.83c-0.22,-0.07 -0.39,-0.23 -0.53,-0.41c-0.29,-0.41 -0.76,-1.21 -0.74,-2.12c0.03,-0.8 0.08,-1.89 0.11,-2.64z"/>
  </g>
  <g transform="rotate(-82.22312927246094 41.97211456298828,38.563358306884766) " stroke="null" id="svg_12">
   <path stroke="null" id="svg_7" d="m57.37581,19.09333c0,0 -3.22827,1.82 -4.30757,4.35c0,0 -1.03112,1.7 -0.69384,3.3c0.09637,0.44 0.37583,0.81 0.74202,1.05c0.62638,0.42 1.75386,1.05 2.80426,1.11c0.48183,0.02 0.93475,-0.19 1.23349,-0.58c0.6842,-0.9 2.00442,-3.04 1.92732,-6.05c0,0 0.45292,-4.29 -1.70568,-3.18z"/>
   <path stroke="null" id="svg_8" d="m36.7149,35.65333c0,0 -0.73238,-1.09 0,-1.76c0.73238,-0.68 3.25718,-2.21 3.25718,-2.21s1.41658,-0.53 1.95623,0.24c0.53965,0.76 1.4744,3.38 1.56113,3.74c0.08673,0.35 0.23128,2.38 0,2.85c-0.20237,0.42 -0.9733,1.27 -2.4477,1.36c-0.36619,0.02 -0.73238,-0.08 -1.03112,-0.31c-0.87693,-0.68 -2.25497,-2.1 -3.29572,-3.91z"/>
   <path stroke="null" id="svg_9" d="m53.27061,37.77333c0,0 -0.17346,-1.67 0.81911,-2.08c0.99257,-0.42 3.94138,-0.42 3.94138,-0.42s1.24312,0.24 1.59004,0.97c0,0 0.17346,0.88 -0.30837,1.38c-0.48183,0.5 -0.42401,1.25 -3.14154,2.24c0,0 -1.56113,0.67 -2.12969,-0.19c-0.56856,-0.84 -0.76129,-1.48 -0.77093,-1.9z"/>
   <path stroke="null" id="svg_10" d="m41.19593,47.48333c0,0 0.48183,-0.71 2.12969,-0.85c1.64786,-0.15 2.80426,1.5 2.80426,1.5s0.45292,0.85 0,2.18s-1.78277,3.26 -2.86207,3.94c0,0 -1.53222,0.91 -2.58261,-0.26c0,0 -1.0793,-1.5 -0.45292,-4.09c0,-0.01 0.74202,-2.21 0.96366,-2.42z"/>
   <path stroke="null" id="svg_11" d="m24.39931,52.90333c0.03855,-0.86 0.2891,-1.71 0.7902,-2.39c0.41437,-0.57 1.04075,-1.11 1.93696,-1.27c2.10078,-0.38 3.60409,1.97 3.60409,1.97s1.35876,1.79 0.93475,3.71s-1.92732,2.32 -1.92732,2.32s-2.52479,1.42 -4.22084,0.83c-0.21201,-0.07 -0.37583,-0.23 -0.51074,-0.41c-0.27946,-0.41 -0.73238,-1.21 -0.71311,-2.12c0.02891,-0.8 0.07709,-1.89 0.106,-2.64z"/>
  </g>
 </g>

</svg>