<svg id="Слой_1" data-name="Слой 1" xmlns="http://www.w3.org/2000/svg" style="fill: #75767f;" viewBox="0 0 1798.92 512.17"><title>соц сети</title><path d="M75,512H242V330H182V270h60V195a75.08,75.08,0,0,1,75-75h75v60H332a30,30,0,0,0-30,30v60h87.29l-10,60H302V512H437a75.08,75.08,0,0,0,75-75V75A75.08,75.08,0,0,0,437,0H75A75.08,75.08,0,0,0,0,75V437A75.08,75.08,0,0,0,75,512ZM30,75c0-30.43,20.19-45,45-45H437a45.05,45.05,0,0,1,45,45V437a45.05,45.05,0,0,1-45,45H332V360h72.71l20-120H332V210h90V90H317A105.12,105.12,0,0,0,212,195v45H152V360h60V482H75a45.05,45.05,0,0,1-45-45Z" transform="translate(0 0.08)"/><path d="M1071.4,0H738.62c-36.75-.76-64.28,3.21-83.38,36a88.8,88.8,0,0,0-11.79,44.7l-.21,346.82c-.56,37.06,21.57,84.06,69.89,84.06l372,.28c23.3,3.19,70.3-26.45,70.3-74.85V75C1155.46,29.58,1119.4-.76,1071.4,0Zm54.06,432.67c0,9.31-3.24,47.78-47.35,49.33l-341.65,0c-29.65,2.36-57.53-3.64-63-41.06l.07-370.22a41.81,41.81,0,0,1,7.4-24.09c13.54-19.19,35.44-16,42.12-16.06l361.19-1c13.51,3.58,41.22,11.46,41.22,45.42Z" transform="translate(0 0.08)"/><path d="M1714.86,0H1382.08c-36.75-.76-64.28,3.21-83.38,36a88.8,88.8,0,0,0-11.79,44.7l-.21,346.82c-.56,37.06,21.57,84.06,69.89,84.06l372,.28c23.3,3.19,70.3-26.45,70.3-74.85V75C1798.92,29.58,1762.86-.76,1714.86,0Zm54.06,432.67c0,9.31-3.24,47.78-47.35,49.33l-341.65,0c-29.65,2.36-57.53-3.64-63-41.06L1317,70.7a41.81,41.81,0,0,1,7.4-24.09c13.54-19.19,35.44-16,42.12-16.06l361.19-1c13.51,3.58,41.22,11.46,41.22,45.42Z" transform="translate(0 0.08)"/><path d="M1542.81,118c-77.2,0-140,62.8-140,140s62.8,140,140,140,140-62.8,140-140S1620,118,1542.81,118Zm0,250a110,110,0,1,1,110-110A110.11,110.11,0,0,1,1542.81,368Z" transform="translate(0 0.08)"/><path d="M1686.15,68.29a41.37,41.37,0,1,0,41.37,41.36A41.41,41.41,0,0,0,1686.15,68.29Zm0,52.71a11.35,11.35,0,1,1,11.35-11.35A11.36,11.36,0,0,1,1686.15,121Z" transform="translate(0 0.08)"/><path d="M901.52,378c52.51,0,33.78-33.24,37.84-42.8-.06-7.14-.12-14,.12-18.18,3.33.94,11.18,4.91,27.39,20.67C991.9,363,998.3,378,1018.52,378h37.22c11.8,0,17.94-4.88,21-9s5.87-10.92,2.69-21.75c-8.3-26.08-56.73-71.1-59.74-75.85.45-.88,1.18-2.05,1.56-2.65h0c9.56-12.63,46-67.29,51.41-89.16a.42.42,0,0,0,0-.12c2.9-10,.24-16.46-2.51-20.12-4.15-5.47-10.74-8.24-19.65-8.24h-37.22c-12.47,0-21.92,6.28-26.7,17.73-8,20.34-30.47,62.17-47.32,77-.52-21-.17-37,.1-48.9.55-23.21,2.3-45.81-21.79-45.81h-58.5c-15.1,0-29.54,16.49-13.9,36.06,13.67,17.15,4.91,26.71,7.86,74.29-11.49-12.33-31.94-45.62-46.4-88.16-4.06-11.51-10.2-22.18-27.48-22.18H741.93c-15.09,0-24.1,8.23-24.1,22,0,30.95,68.5,204.85,183.69,204.85ZM779.16,173.83c3.28,0,3.61,0,6.05,6.91,14.8,43.61,48,108.13,72.28,108.13,18.22,0,18.22-18.68,18.22-25.71v-56c-1-18.53-7.75-27.76-12.18-33.35l53.06.06c0,.25-.3,61.93.15,76.88,0,21.22,16.85,33.38,43.15,6.76,27.76-31.33,47-78.15,47.72-80.06,1.13-2.72,2.12-3.64,5.69-3.64h37.37a.61.61,0,0,1,0,.13c-3.4,15.88-37,66.49-48.23,82.21-.18.24-.35.49-.52.75-4.94,8.08-9,17,.68,29.56h0c.88,1,3.16,3.53,6.49,7,10.34,10.68,45.83,47.19,49,61.71-2.09.33-4.35.09-39.52.17-7.49,0-13.34-11.19-35.68-33.73-20.08-19.54-33.12-27.53-45-27.53-23.05,0-21.38,18.71-21.16,41.34.07,24.53-.08,16.77.09,18.32-1.35.52-5.21,1.58-15.26,1.58-96,0-158.47-152.32-160.87-181.43.83-.08,12.28,0,38.51,0Z" transform="translate(0 0.08)"/></svg>