<svg width="151" height="142" fill="#83154d" xmlns="http://www.w3.org/2000/svg"><path fill="none" d="M-1-1h1002v1002H-1z"/><g><path d="M117.075 84.01c1.84-5.35 2.68-10.93 3.52-16.5.38-2.54.69-11.49.23-16.19-1.03-10.51-4.25-20.16-10.9-28.52-4.64-5.84-10.59-9.69-17.68-11.87-9.89-3.04-19.99-3.16-30.17-2.27-6.93.61-13.67 2.18-20.03 4.97-.11.05-.21.1-.32.15.2.36.38.74.53 1.14.16.43.24.89.25 1.35.27 12.58.45 25.17.84 37.75.08 2.61 1.19 5.28 3.77 6.4 3.05 1.33 7.48.07 7.86-4.24.53-5.98.75-11.99 1.27-17.97.19-2.21.86-4.38 1.3-6.57.32-1.61 1.2-2.95 2.17-4.21 2.84-3.68 8.23-2.6 9.81.91.87 1.95 1.44 3.86 1.38 6.06-.3 12.1-.51 24.2-.71 36.3-.14 8.67.34 17.31 1.31 25.92.29 2.57.69 5.13 1.07 7.69.24 1.67.19 3.29-.47 4.87-.45 1.06-1.14 1.93-2.21 2.39-2.38 1.02-4.71.78-6.99-.36-1.19-.59-2.19-1.39-3.06-2.4-1.12-1.29-1.61-2.88-2-4.45-1.23-4.98-2.2-10.02-2.6-15.13-.27-3.51-.23-7.06-.23-10.58 0-2.44-1.56-4.67-3.95-5.07-3.68-.63-6.72 1.13-6.69 5.42.04 6.26.1 12.53.32 18.79.21 6.03.71 12.05.91 18.09.07 2.2-1.24 4.96-4.01 6.11-.93.39-1.94.65-2.94.83-1.27.22-2.38-.25-3.4-1.04-1.2-.93-1.98-2.15-2.54-3.51-.34-.82-.58-1.68-.74-2.55-.39-2.15-.68-4.32-1.03-6.47-.16-.99-.28-1.98-.34-2.98-.27-4.21-.56-8.43-.67-12.65-.33-13.04-.56-26.08-.85-39.12-.06-2.73.01-6.34-.11-9.07-.01-.19-.16-14.11-.08-16.06.08-2.07.17-4.14.15-6.22-.01-.66.02-1.3.07-1.95-7.07 4.95-13.16 10.96-18.16 18.1-5.37 7.66-8.67 16.12-9.68 25.43-.7 6.41-.02 12.71 1.52 18.95 2.58 10.51 7.45 19.94 13.58 28.76 4 5.75 8.22 11.35 13.53 16 6.92 6.06 14.81 9.79 24.19 9.74 6.37-.04 12.29-1.87 17.9-4.78.96-.5 1.9-1.04 2.81-1.63.68-.45 1.17-.3 1.64.28 3.8 4.75 8.82 7.3 14.73 8.39 4.24.78 8.29.11 12.2-1.4 5.74-2.22 10.2-5.97 12.66-11.73 1.71-4.02 2.6-8.15 1.82-12.63-.84-4.84-2.61-9.22-5.46-13.15-1.07-1.48-.82-2.67-.22-4.19 1.74-4.4 3.36-8.86 4.9-13.33zm-31.37-27.65c.56-2.47 1.68-4.69 3.78-6.2.84-.61 1.91-.91 2.91-1.27.96-.34 1.82-.51 3.07-.68 1.84-.03 3.24.8 4.69 1.64 1.12.65 1.7 1.87 1.96 3.1.8 3.78.59 7.49-1.27 10.94-1.23 2.27-3.36 3.41-5.8 3.97-1.8.41-3.58.52-5.32-.39-1.22-.64-2.05-1.6-2.64-2.8-1.31-2.61-2.06-5.36-1.38-8.31zm15.3 68.69c-.02.02-.04.03-.06.04-1.07.84-2.4 1.29-3.76 1.39-1.04.08-2.07.1-3.16-.19-.22-.09-.56-.25-.78-.34-1.11-.72-1.89-1.77-2.52-2.96-4.08-7.61-6.15-15.69-5.79-24.36.25-5.88 1.07-11.68 2.7-17.33.72-2.5 2.25-4.58 4.81-5.55 1.86-.7 3.82-.38 5.24 1.35 1.65 2.03 2.18 4.36 2.19 6.91.03 5.83.04 11.67.17 17.5.09 4.25.99 8.35 2.59 12.3.15.37.27.74.38 1.12.41 1.46.58 2.97.58 4.48.01 2.18-.9 4.28-2.59 5.64zM149.855 7.49c-.05-.12-.11-.24-.15-.37-1-2.57-2.97-3.97-5.31-4.93-2.1-.55-4.09-.78-7.66.1-3.63 1.33-6.34 4.83-6.83 8.82-1.72 13.89-1.43 27.73.64 41.53.57 3.81 1.65 7.57 2.72 11.29.96 3.37 5.41 4.67 8.22 2.53.67-.51 1.24-1.17 1.75-1.84 1.84-2.39 2.58-5.19 2.87-8.14.73-7.36 1.43-14.72 2.19-22.08.6-5.71 1.27-11.42 1.92-17.12.03-1.31.11-7.87-.36-9.79zM148.965 91.23c-.12 1.73-.15 2.92-.3 4.09-.49 3.83-3.64 6.76-7.33 7.13-10.31 1.04-15.78-8.27-13.6-16.64.46-1.76 1.29-3.45 2.11-5.09.99-1.97 2.78-3 4.89-3.28 4.61-.62 11.06 1.17 13.05 7.48.7 2.18.87 4.54 1.18 6.31z"/></g></svg>