<?xml version="1.0" encoding="utf-8"?>
<!-- Generator: Adobe Illustrator 24.0.1, SVG Export Plug-In . SVG Version: 6.00 Build 0)  -->
<svg version="1.1" xmlns="http://www.w3.org/2000/svg" xmlns:xlink="http://www.w3.org/1999/xlink" x="0px" y="0px"
	 viewBox="0 0 1172 672" style="enable-background:new 0 0 1172 672;" xml:space="preserve">
<style type="text/css">
	.st0{fill:#FFFFFF;}
</style>
<g id="Слой_2">
</g>
<g id="Слой_3">
	<path class="st0" d="M182.4,266.5v83h101.9v-45.3c0,0-77.4-9.4-71.7,7.5c0,0,3.8,11.3,22.6,3.8h0c10-2.5,20.3-3.4,30.6-2.6l9,0.7
		v26.4h-83v-64.2H441v64.2h-83v-26.4c0,0,22.6-7.5,37.7,3.8c0,0,22.6,7.5,22.6-7.5c0,0,7.5-11.3-71.7-7.5v45.3h101.9v-83
		L182.4,266.5z"/>
	<g>
		<g>
			<g>
				<path class="st0" d="M156,191v320.8h320.8V191H156z M461.7,496.7H171.1V206.1h290.6V496.7z"/>
			</g>
		</g>
		<g>
			<path class="st0" d="M578.8,325.2v-88.2h24.9c5.2,0,9.6,0.3,13.2,1c5.5,1,9.7,3.5,12.8,7.3c3,3.9,4.5,8.9,4.5,15.2
				c0,9.3-3.1,16.5-9.3,21.6c-6.2,5.2-14.8,7.8-25.7,7.8h-8.6v35.3H578.8z M590.6,281.1h7.3c9.6,0,15.9-2.1,19.1-6.2
				c3.1-4.2,4.7-8.9,4.7-14.3c0-5.4-1.8-9.3-5.5-11.9c-1.6-1.1-3.4-1.9-5.3-2.3c-1.9-0.4-4.8-0.6-8.6-0.6h-11.7V281.1z"/>
			<path class="st0" d="M639.4,325.2l30.2-88.2h11.7l30.2,88.2h-12.4l-8.5-25h-32.5l-8.5,25H639.4z M661.1,291.4h26.5l-13.2-38.7
				L661.1,291.4z"/>
			<path class="st0" d="M727,325.2v-88.2h54.4v8.8h-42.6v31.8h36.4v8.8h-36.4v38.7H727z"/>
			<path class="st0" d="M822.6,327.4c-10.7,0-18.8-4.3-24.5-13.1c-5.7-8.7-8.6-19.8-8.6-33.3c0-13.5,2.9-24.6,8.6-33.3
				c5.7-8.7,13.9-13,24.5-13c10.6,0,18.8,4.3,24.5,13c5.7,8.7,8.6,19.8,8.6,33.3c0,13.5-2.9,24.6-8.6,33.3
				C841.5,323,833.3,327.4,822.6,327.4z M822.6,318.6c6.7,0,11.8-3.1,15.3-9.3c3.5-6.2,5.3-15.6,5.3-28.3c0-12.6-1.8-22-5.3-28.2
				c-3.5-6.2-8.7-9.3-15.3-9.3c-6.6,0-11.7,3.1-15.3,9.3c-3.5,6.2-5.3,15.6-5.3,28.2c0,12.6,1.8,22.1,5.3,28.3
				C810.8,315.5,815.9,318.6,822.6,318.6z"/>
			<path class="st0" d="M869.2,323.1v-11.6c10.3,4.7,19.2,7,26.6,7c3.3,0,6.5-0.6,9.4-1.9c2.9-1.2,5.1-3.1,6.7-5.6
				c1.5-2.5,2.3-5.1,2.3-7.9c0-5.6-3.5-10.3-10.5-14l-17.1-8.9c-6.3-3.3-10.7-6.7-13.1-10.3c-2.5-3.5-3.7-7.7-3.7-12.4
				c0-6.1,2.1-11.5,6.4-16.1c4.3-4.6,11.1-6.9,20.4-6.9c6.8,0,14.4,1.2,23,3.6v10.2c-8.6-3.3-16.3-4.9-23-4.9c-3.1,0-6,0.5-8.4,1.4
				c-2.5,0.9-4.3,2.4-5.6,4.4c-1.2,2-1.8,4.1-1.8,6.4c0,2.7,0.9,5.1,2.6,7.4c1.7,2.3,4.7,4.6,9.2,6.9l16,8.3
				c6.8,3.5,11.4,7,13.8,10.6c2.4,3.6,3.6,7.7,3.6,12.4c0,7.4-2.7,13.6-8.1,18.6c-5.4,5-13.2,7.5-23.4,7.5c-2.6,0-5.6-0.2-8.8-0.6
				C882.4,326.4,876.9,325.2,869.2,323.1z"/>
			<path class="st0" d="M634,469.6c-7.8,2.8-15.2,4.2-22.2,4.2c-6,0-11.5-1-16.4-3c-4.9-2-8.9-4.7-12.1-8.2
				c-4.1-4.4-7.1-9.6-9.1-15.6c-2-6-3-12.3-3-19c0-6.6,1-13,2.9-19.3c1.9-6.3,4.6-11.4,8.1-15.4c3.5-4.1,7.9-7.1,13-9.2
				c5.1-2.1,10.6-3.1,16.2-3.1c6.6,0,13.8,1.1,21.5,3.4v10.9c-7.9-3.6-15.2-5.4-21.8-5.4c-4.1,0-8,0.9-11.5,2.8
				c-3.6,1.9-6.4,4.4-8.6,7.7c-2.5,3.8-4.4,8.1-5.6,12.8c-1.2,4.8-1.8,9.7-1.8,14.7c0,10.8,2.7,19.4,8.1,25.9
				c2.8,3.3,6.2,5.8,10.1,7.6c4,1.8,8.3,2.7,12.9,2.7c5.4,0,11.8-1.4,19.2-4.3V469.6z"/>
			<path class="st0" d="M639.4,471.7l30.2-88.2h11.7l30.2,88.2h-12.4l-8.5-25h-32.5l-8.5,25H639.4z M661.1,437.9h26.5l-13.2-38.7
				L661.1,437.9z"/>
			<path class="st0" d="M727,471.7v-88.2h54.4v8.8h-42.6v31.8h36.4v8.8h-36.4v38.7H727z"/>
			<path class="st0" d="M798.7,471.7v-88.2h51.7v8.8h-39.9v28.3h33.8v8.8h-33.8v33.4h42.6v8.8H798.7z"/>
		</g>
	</g>
</g>
</svg>
