<svg width="441" height="319" xmlns="http://www.w3.org/2000/svg">
 <style type="text/css">.st0{fill:#5478F4;}
	.st1{fill:#FFFFFF;}
	.st2{fill:#C8786F;}
	.st3{fill:#CE6657;}
	.st4{fill:#DC9A96;}
	.st5{fill:#FF979E;}
	.st6{fill:#BBBDC4;}
	.st7{fill:#FFAEB1;}
	.st8{fill:#DD4E24;}
	.st9{fill:#FFD2D2;}
	.st10{fill:#FF97A0;}
	.st11{fill:#FF7283;}
	.st12{fill:#FFB6AB;}
	.st13{fill:#FF948E;}
	.st14{fill:#2A62ED;}
	.st15{fill:#D2DCFF;}
	.st16{fill:#A8BDF5;}
	.st17{fill:#2B5FAD;}
	.st18{fill:#124FB2;}
	.st19{fill:#010C9B;}
	.st20{fill:#000575;}
	.st21{fill:#671009;}
	.st22{fill:#003DE7;}
	.st23{fill:#D4604B;}
	.st24{fill:#FF415F;}
	.st25{fill:#0032BE;}
	.st26{fill:#00035A;}
	.st27{fill:#C3DEE2;}</style>

 <g>
  <title>Layer 1</title>
  <g id="Слой_1"/>
  <g id="Слой_2"/>
  <g id="Слой_3">
   <g id="svg_1">
    <g id="svg_2">
     <g id="svg_3">
      <path class="st0" d="m406.4,13.6c-0.1,0 -0.2,0 -0.3,-0.1c-0.3,-0.1 -0.4,-0.5 -0.3,-0.8l2.1,-4.6c0.1,-0.3 0.5,-0.4 0.8,-0.3c0.3,0.1 0.4,0.5 0.3,0.8l-2.1,4.6c-0.1,0.3 -0.3,0.4 -0.5,0.4z" id="svg_4"/>
     </g>
     <g id="svg_5">
      <path class="st0" d="m419.7,21.8c-0.2,0 -0.3,-0.1 -0.4,-0.2c-0.2,-0.2 -0.2,-0.6 0,-0.9l2.2,-2.1c0.2,-0.2 0.6,-0.2 0.9,0c0.2,0.2 0.2,0.6 0,0.9l-2.2,2.1c-0.2,0.2 -0.4,0.2 -0.5,0.2z" id="svg_6"/>
     </g>
     <g id="svg_7">
      <path class="st0" d="m386.5,16c-0.2,0 -0.4,-0.1 -0.5,-0.3l-2.1,-4c-0.2,-0.3 -0.1,-0.7 0.2,-0.8c0.3,-0.2 0.7,-0.1 0.8,0.2l2.1,4c0.2,0.3 0,0.7 -0.2,0.8c-0.1,0.1 -0.2,0.1 -0.3,0.1z" id="svg_8"/>
     </g>
     <g id="svg_9">
      <path class="st1" d="m361.1,35.2c-0.5,0 -0.8,-0.2 -0.9,-0.4c-0.2,-0.3 -0.2,-0.7 -0.1,-1.1c0.2,-0.7 0.9,-1.4 1.9,-2.1c-2.9,1.1 -6.5,2.3 -8.6,2.3c-1,0 -1.7,-0.3 -1.9,-0.9c-0.2,-0.4 -0.6,-1.6 3.7,-4c-4.1,1.4 -8.1,2.5 -10.3,2.5c-1.1,0 -1.7,-0.3 -1.9,-0.9c-0.4,-2.3 10.6,-6.8 18.5,-9.7c-5.2,1.3 -11.8,2.7 -15.9,2.7c-2.6,0 -3.9,-0.5 -4,-1.7c-0.1,-0.7 -0.4,-2.9 13,-7.5c2,-0.7 4,-1.3 5.9,-1.9c-3,0.5 -6.1,0.9 -8.5,0.9c-2.1,0 -3.4,-0.3 -4,-1c-0.3,-0.3 -0.4,-0.7 -0.4,-1.1c0.1,-0.8 0.3,-3.1 17.3,-9.2c8.3,-3 16.7,-5.4 16.8,-5.5c0.1,0 0.2,0 0.3,0.1c0.1,0.1 0.1,0.2 0.1,0.3c-3,13.4 1.9,19.5 2.1,19.6c0,0 0.1,0.1 0.1,0.2c0,0.1 0,0.3 -0.2,0.3c0,0 -3.2,1.5 -5,4.6c-1.9,3.2 -5.3,10.1 -5.4,10.2c-0.1,0.1 -0.2,0.2 -0.3,0.2c-0.1,0 -0.2,-0.2 -0.2,-0.3l-0.1,-4c-2.1,1.7 -9.5,7.4 -12,7.4zm5.9,-5.7c-0.2,0.1 -0.4,0.2 -0.8,0.4c-3.1,1.5 -5.1,3 -5.5,4c-0.1,0.2 0,0.4 0.1,0.6c0,0 0.1,0.1 0.4,0.1c2.2,0 9.4,-5.5 12,-7.6c0.1,-0.1 0.2,-0.1 0.3,0c0.1,0 0.2,0.2 0.2,0.3l0.1,3.4c1.1,-2.1 3.4,-6.7 4.8,-9.1c1.6,-2.7 4.1,-4.2 5,-4.7c-0.9,-1.3 -4.7,-7.3 -2.1,-19.4c-13.3,3.9 -32.8,10.8 -33.1,13.9c0,0.3 0,0.5 0.2,0.6c0.3,0.4 1.2,0.8 3.6,0.8c5.8,0 16,-2.5 18,-3l0.3,-0.1c0.2,0 0.3,0.1 0.4,0.2c0,0.2 -0.1,0.3 -0.2,0.4l-0.3,0.1l0,0l0,0c-13.8,3.5 -28.4,8.6 -28,11.4c0.1,0.9 1.9,1.1 3.4,1.1c7.3,0 23.1,-4.6 23.3,-4.6c0.2,0 0.3,0 0.4,0.2c0,0.2 0,0.3 -0.2,0.4c-18.9,6.3 -25.6,10.5 -25.5,11.6c0.1,0.4 0.8,0.4 1.2,0.4c3.3,0 11.4,-2.9 16,-4.6c2.4,-1 4.3,-1.7 4.4,-1.7c0.2,-0.1 0.3,0 0.4,0.2s0,0.3 -0.2,0.4c0,0 -1.8,0.7 -4.4,1.7c-9,3.8 -9.2,5.4 -9,5.8c0.2,0.4 0.8,0.5 1.3,0.5c3.4,0 11,-3.3 12.5,-3.9c0.5,-0.2 0.8,-0.4 0.9,-0.4c0.2,-0.1 0.4,0 0.4,0.2c-0.1,0.2 -0.1,0.3 -0.3,0.4l0,0l0,0z" id="svg_10"/>
     </g>
     <path class="st2" d="m426.5,39.2c0,1.9 -0.2,3.8 -0.6,5.6c-2.6,12.3 -13.4,21.5 -26.5,21.5c-10.6,0 -19.9,-6.2 -24.3,-15.1c-1.8,-3.6 -2.8,-7.6 -2.8,-11.9c0,-14.9 12.1,-27 27,-27c15.1,-0.2 27.2,11.9 27.2,26.9z" id="svg_11"/>
     <path class="st3" d="m425.9,44.7c-2.6,12.3 -13.4,21.5 -26.5,21.5c-10.6,0 -19.9,-6.2 -24.3,-15.1c5.7,2.7 14.4,5.3 25.5,3.7c12.1,-1.7 20.5,-6.6 25.3,-10.1z" id="svg_12"/>
     <path class="st4" d="m375.2,43.4l42.6,-18.7c0,0 -6.3,-8.7 -15.8,-9.9c-9.5,-1.1 -19.5,5.5 -24.1,13.2c-4.7,7.6 -2.7,15.4 -2.7,15.4z" id="svg_13"/>
     <g id="svg_14">
      <path class="st1" d="m438.4,42.1c-2.3,0 -8,-8.9 -9.5,-11.3c-0.5,0.8 -1.6,2.3 -3.3,2.1c-0.1,0 -0.2,-0.1 -0.3,-0.2c0,-0.1 -1.9,-5.4 -2.4,-6.3c-0.1,-0.1 0,-0.3 0.1,-0.4c0.1,-0.1 15.1,-13.5 17.8,-21c0,-0.1 0.1,-0.2 0.2,-0.2s0.2,0 0.3,0.1c0.1,0.1 11.7,12.5 15.2,19.3c4.3,8.2 5.1,12.5 2.5,13.8c-0.3,0.1 -0.6,0.2 -0.9,0.2l0,0c-1.7,0 -3.9,-1.8 -5.5,-3.2c0.7,1.5 1.2,3.3 0.2,4.2c-0.3,0.3 -0.8,0.5 -1.3,0.5c-1.8,0 -4.6,-1.8 -6.6,-4.1c0.8,2.1 1.4,4.6 0.3,5.4c-0.2,0.1 -0.4,0.2 -0.7,0.2l0,0c-1.4,0 -3.8,-2.4 -5.4,-4.3c0.7,1.7 1.1,3.8 -0.1,4.8c-0.2,0.3 -0.4,0.4 -0.6,0.4l0,0zm-9.5,-12.2c0.1,0 0.2,0.1 0.3,0.1c2.7,4.4 7.6,11.5 9.2,11.5l0,0c0.1,0 0.2,0 0.2,-0.1c1.4,-1.2 -0.4,-5 -1.2,-6.3c-0.1,-0.1 0,-0.3 0.1,-0.4c0.1,-0.1 0.3,-0.1 0.4,0.1c1.3,1.7 5,6.1 6.6,6.1l0,0c0.1,0 0.2,0 0.3,-0.1c1,-0.7 -0.1,-4.2 -1.7,-7.4c-0.1,-0.1 -0.1,-0.2 -0.2,-0.3c-0.1,-0.2 0,-0.3 0.1,-0.4c0.1,-0.1 0.3,0 0.4,0.1c0,0 0.1,0.1 0.2,0.3c1.6,3 5.6,6.2 7.8,6.2c0.4,0 0.7,-0.1 0.9,-0.3c1,-0.9 -0.1,-3.4 -1.4,-5.4c-1.4,-1.5 -1.4,-1.7 -1.3,-1.8c0.1,-0.1 0.2,-0.2 0.3,-0.2s0.4,0 1.5,1.7c2.1,2.2 5,4.6 6.7,4.6l0,0c0.2,0 0.4,0 0.6,-0.1c2.1,-1.2 1.3,-5.3 -2.8,-13c-3.2,-6.1 -12.9,-16.7 -14.8,-18.8c-3,7.3 -15.9,19 -17.6,20.6c0.6,1.2 2,5.1 2.3,6l0,0c1.7,0 2.7,-2.3 2.7,-2.3c0.1,-0.4 0.2,-0.4 0.4,-0.4l0,0z" id="svg_15"/>
     </g>
     <path class="st5" d="m377.2,16.8c0,0 2.4,-0.7 5.7,-1.9c3.2,-1.2 9.5,-5.3 9.5,-5.3s-4.5,1.1 -8.2,2.5c-3.7,1.5 -7,4.7 -7,4.7z" id="svg_16"/>
     <path class="st6" d="m399.4,66.8c-15.2,0 -27.7,-12.4 -27.7,-27.7c0,-15.2 12.4,-27.7 27.7,-27.7c15.2,0 27.7,12.4 27.7,27.7s-12.4,27.7 -27.7,27.7zm0,-54.1c-14.6,0 -26.4,11.9 -26.4,26.4s11.9,26.4 26.4,26.4c14.6,0 26.4,-11.9 26.4,-26.4s-11.8,-26.4 -26.4,-26.4z" id="svg_17"/>
     <g id="svg_18">
      <path class="st1" d="m428.8,12.6l0,0c-0.7,0 -1.2,-0.3 -1.6,-0.8c-1.2,-1.3 -1.1,-4 -1,-5.9c0.2,-2.6 -1.5,-7.7 -14.5,-11.7c-16.4,-5.1 -22,4.3 -23,6.3c-1.7,3.4 -6.1,3.5 -6.3,3.5c-0.2,0 -0.3,-0.1 -0.3,-0.3s0.1,-0.3 0.3,-0.3c0,0 4.3,-0.2 5.8,-3.2c1,-2 6.9,-11.8 23.7,-6.6c5.8,1.8 15.4,5.8 15,12.3c-0.1,1.8 -0.2,4.3 0.9,5.4c0.3,0.4 0.7,0.5 1.2,0.6c0.2,0 0.3,0.2 0.3,0.3c-0.2,0.2 -0.3,0.4 -0.5,0.4z" id="svg_19"/>
     </g>
     <path class="st7" d="m393.4,8.5c-0.9,1.8 -4.3,2 -8.3,3.6c-4.1,1.6 -7,4.1 -7.9,4.7c-0.7,0.5 -1.5,-0.2 -1.9,-1.5c-0.3,-0.8 -0.4,-1.9 -0.3,-3.2c0.2,-3.3 6.6,-8.9 12.8,-8.9c1.4,0 2.5,0.2 3.3,0.5c3,0.9 3.1,3.4 2.3,4.8z" id="svg_20"/>
     <path class="st7" d="m430.8,24.1c-0.9,2.5 -2.7,5.3 -3.8,3.5c-1,-1.8 -3.4,-5.7 -6.2,-8.4c-1.1,-1 -2,-1.9 -2.8,-2.7l0,0c-1.4,-1.3 -2.4,-2.1 -3,-2.6c-0.9,-0.7 0.3,-3.5 4.1,-3.7c3.8,-0.2 7.6,1.8 9.7,4.3c1.4,1.8 2.3,4.5 2.4,6.8c0,1 -0.1,2 -0.4,2.8z" id="svg_21"/>
     <path class="st8" d="m379.5,26.2l18.3,15l5.3,-25.2c0.1,0 -17.8,-0.6 -23.6,10.2z" id="svg_22"/>
     <g id="svg_23">
      <path class="st1" d="m398.2,39.9c0,-0.3 4.2,-18.3 4.2,-18.3l1.4,-0.3l-0.6,-5.2l-3.2,5.2l0.5,0.5c0,0 -2.2,9.5 -3,18l0.7,0.1z" id="svg_24"/>
      <path class="st1" d="m397.2,39.9c-0.1,-0.2 -12.8,-10.6 -12.8,-10.8s0.4,-1.2 0.4,-1.2l-5.3,-1.7l3.1,4.9l0.7,-0.8l14,10.6l0,-1l-0.1,0z" id="svg_25"/>
      <path class="st1" d="m398.5,40.5c0,0.7 -0.4,1.3 -0.8,1.3c-0.5,0 -0.8,-0.6 -0.8,-1.3s0.4,-1.3 0.8,-1.3s0.8,0.6 0.8,1.3z" id="svg_26"/>
     </g>
     <g id="svg_27">
      <g id="svg_28">
       <path class="st1" d="m403.7,21.9c-0.1,0 -0.1,0 -0.2,0c-0.3,-0.1 -0.5,-0.4 -0.4,-0.8l1.5,-5.2c0.1,-0.3 0.4,-0.5 0.8,-0.4c0.3,0.1 0.5,0.4 0.4,0.8l-1.5,5.2c0,0.2 -0.3,0.4 -0.6,0.4z" id="svg_29"/>
      </g>
      <g id="svg_30">
       <g id="svg_31">
        <path class="st1" d="m393.6,64.2c-0.1,0 -0.1,0 -0.2,0c-0.3,-0.1 -0.5,-0.4 -0.4,-0.8l1.3,-4.5c0.1,-0.3 0.4,-0.5 0.8,-0.4c0.3,0.1 0.5,0.4 0.4,0.8l-1.3,4.5c-0.1,0.2 -0.3,0.4 -0.6,0.4z" id="svg_32"/>
       </g>
       <g id="svg_33">
        <path class="st1" d="m380.3,35.6c-0.1,0 -0.1,0 -0.2,0l-4.8,-1.7c-0.3,-0.1 -0.5,-0.5 -0.4,-0.8s0.5,-0.5 0.8,-0.4l4.8,1.7c0.3,0.1 0.5,0.5 0.4,0.8c-0.2,0.2 -0.4,0.4 -0.6,0.4z" id="svg_34"/>
       </g>
       <g id="svg_35">
        <path class="st1" d="m422.6,45.8c-0.1,0 -0.1,0 -0.2,0l-4.8,-1.7c-0.3,-0.1 -0.5,-0.5 -0.4,-0.8s0.5,-0.5 0.8,-0.4l4.8,1.7c0.3,0.1 0.5,0.5 0.4,0.8c-0.1,0.2 -0.3,0.4 -0.6,0.4z" id="svg_36"/>
       </g>
       <g id="svg_37">
        <g id="svg_38">
         <path class="st1" d="m412.4,26.7c-0.2,0 -0.3,-0.1 -0.4,-0.2c-0.2,-0.2 -0.2,-0.6 0,-0.9l3.9,-3.8c0.2,-0.2 0.6,-0.2 0.9,0c0.2,0.2 0.2,0.6 0,0.9l-3.9,3.8c-0.2,0.1 -0.4,0.2 -0.5,0.2z" id="svg_39"/>
        </g>
        <g id="svg_40">
         <path class="st1" d="m382.3,58.2c-0.2,0 -0.3,-0.1 -0.4,-0.2c-0.2,-0.2 -0.2,-0.6 0,-0.9l3.4,-3.2c0.2,-0.2 0.6,-0.2 0.9,0c0.2,0.2 0.2,0.6 0,0.9l-3.4,3.2c-0.2,0.2 -0.3,0.2 -0.5,0.2z" id="svg_41"/>
        </g>
        <g id="svg_42">
         <path class="st1" d="m385.2,26.8c-0.2,0 -0.3,-0.1 -0.5,-0.2l-3.3,-3.9c-0.2,-0.3 -0.2,-0.6 0.1,-0.9c0.3,-0.2 0.6,-0.2 0.9,0.1l3.3,3.9c0.2,0.3 0.2,0.6 -0.1,0.9c-0.1,0.1 -0.2,0.1 -0.4,0.1z" id="svg_43"/>
        </g>
        <g id="svg_44">
         <path class="st1" d="m416.8,56.9c-0.2,0 -0.3,-0.1 -0.5,-0.2l-3.3,-3.9c-0.2,-0.3 -0.2,-0.6 0.1,-0.9c0.3,-0.2 0.6,-0.2 0.9,0.1l3.3,3.9c0.2,0.3 0.2,0.6 -0.1,0.9c-0.1,0 -0.3,0.1 -0.4,0.1z" id="svg_45"/>
        </g>
       </g>
       <g id="svg_46">
        <g id="svg_47">
         <path class="st1" d="m417.4,35c-0.3,0 -0.5,-0.2 -0.6,-0.5s0.1,-0.7 0.4,-0.7l5.3,-1.4c0.3,-0.1 0.7,0.1 0.7,0.4c0.1,0.3 -0.1,0.7 -0.4,0.7l-5.3,1.4c0,0.1 -0.1,0.1 -0.1,0.1z" id="svg_48"/>
        </g>
        <g id="svg_49">
         <path class="st1" d="m375.7,47.8c-0.3,0 -0.5,-0.2 -0.6,-0.5s0.1,-0.7 0.4,-0.7l4.5,-1.2c0.3,-0.1 0.7,0.1 0.7,0.4c0.1,0.3 -0.1,0.7 -0.4,0.7l-4.5,1.2c0,0.1 0,0.1 -0.1,0.1z" id="svg_50"/>
        </g>
        <g id="svg_51">
         <path class="st1" d="m393.6,21.8c-0.3,0 -0.5,-0.2 -0.6,-0.5l-1,-5c-0.1,-0.3 0.2,-0.7 0.5,-0.7c0.3,-0.1 0.6,0.2 0.7,0.5l1,5c0.1,0.3 -0.2,0.7 -0.5,0.7c0,0 0,0 -0.1,0z" id="svg_52"/>
        </g>
        <g id="svg_53">
         <path class="st1" d="m406.5,63.4c-0.3,0 -0.5,-0.2 -0.6,-0.5l-1,-5c-0.1,-0.3 0.2,-0.7 0.5,-0.7c0.3,-0.1 0.7,0.2 0.7,0.5l1,5c0.1,0.3 -0.1,0.7 -0.5,0.7l-0.1,0z" id="svg_54"/>
        </g>
       </g>
      </g>
     </g>
     <path class="st5" d="m430.8,24.1c-0.9,2.5 -2.7,5.3 -3.8,3.5c-1,-1.8 -3.4,-5.7 -6.2,-8.4c-1.1,-1 -2,-1.9 -2.8,-2.7c5.6,3.8 10.6,4.7 13.1,4.8c0.1,1 0,2 -0.3,2.8z" id="svg_55"/>
     <path class="st5" d="m393.4,8.5c-0.9,1.8 -4.3,2 -8.3,3.6c-4.1,1.6 -7,4.1 -7.9,4.7c-0.7,0.5 -1.5,-0.2 -1.9,-1.5c1.3,-0.8 4,-2.2 8.7,-4.4c4.9,-2.2 6.5,-5.3 7.1,-7.3c3,1 3.1,3.5 2.3,4.9z" id="svg_56"/>
     <path class="st9" d="m383.6,5.2c-0.6,-0.4 -4.8,2.1 -5.7,3.9c-0.9,1.8 1.6,1.2 3.5,0c1.8,-1.2 3.4,-3.1 2.2,-3.9z" id="svg_57"/>
     <path class="st9" d="m418,11.8c-0.5,1.3 5.5,3.1 5.9,2.1c0.4,-1.1 -5.4,-3.4 -5.9,-2.1z" id="svg_58"/>
     <g id="svg_59">
      <path class="st10" d="m383.9,3.8c0,0 -0.7,0.2 -1.6,0.6c-0.5,0.2 -0.9,0.5 -1.4,0.8c0,0 -0.8,-3.2 0.6,-3.7c0.4,-0.1 0.7,-0.1 1,0.2c0.8,0.5 1.4,2.1 1.4,2.1z" id="svg_60"/>
      <path class="st11" d="m382.4,4.4c0.3,-1 0.2,-2.1 0.1,-2.8c0.9,0.6 1.4,2.2 1.4,2.2s-0.7,0.2 -1.5,0.6z" id="svg_61"/>
     </g>
     <g id="svg_62">
      <path class="st10" d="m411.7,6.6c0,0.1 0,0.2 0,0.2c-0.1,1.2 -1.1,2.1 -2.3,2.1c-1.2,0 -2.2,-0.9 -2.3,-2c0,-0.1 0,-0.2 0,-0.3c0,-1.3 1,-2.3 2.3,-2.3s2.3,1 2.3,2.3z" id="svg_63"/>
      <path class="st11" d="m411.7,6.8c-0.1,1.2 -1.1,2.1 -2.3,2.1c-1.2,0 -2.2,-0.9 -2.3,-2c1.2,0.3 3.2,0.6 4.6,-0.1z" id="svg_64"/>
     </g>
     <g id="svg_65">
      <path class="st10" d="m428.3,13.9c0,0 -0.5,-0.5 -1.1,-1c-0.3,-0.3 -0.7,-0.6 -1,-0.7c0,0 2,-2.1 3.1,-1.3c0.2,0.1 0.2,0.3 0.3,0.5c0.1,0.8 -1.3,2.5 -1.3,2.5z" id="svg_66"/>
      <path class="st11" d="m428.3,13.9c0,0 -0.5,-0.5 -1.1,-1c0.7,-0.3 1.7,-0.8 2.3,-1.6c0.2,0.9 -1.2,2.6 -1.2,2.6z" id="svg_67"/>
     </g>
     <path class="st7" d="m410.6,5.6c0.5,-0.2 -0.9,-0.8 -1.8,-0.4c-0.9,0.4 -0.5,1.4 1.8,0.4z" id="svg_68"/>
     <path class="st7" d="m381.6,2c-0.6,-0.2 -0.8,2 -0.3,1.9c0.5,-0.1 0.9,-1.7 0.3,-1.9z" id="svg_69"/>
     <path class="st7" d="m428.5,11.2c0.4,0.1 -0.6,0.9 -0.9,0.6c-0.3,-0.2 0.5,-0.7 0.9,-0.6z" id="svg_70"/>
    </g>
    <g id="svg_71">
     <path class="st12" d="m273.3,43.4c-0.1,2.8 0.7,14 0.7,14l-6.9,0.3c-0.3,0.7 -0.7,1.5 -1.1,2.4c-0.1,0.2 -0.2,0.4 -0.3,0.6c-2.1,3.8 -5.5,7.8 -11.1,7.1c-0.6,-0.1 -1.2,-0.2 -1.7,-0.4c-0.3,-0.1 -0.6,-0.2 -0.8,-0.3c-2,-0.7 -3.5,-1.9 -4.5,-3.1l-0.1,-0.1c-1.2,-1.3 -1.8,-2.6 -2.1,-3.2c-0.1,-0.3 -0.2,-0.4 -0.2,-0.4l-0.1,0.1c-0.4,0.4 -1.9,1.9 -3.3,3.1c-1.1,1 -2.2,1.9 -2.5,2c-0.6,0.1 -2.9,-6.4 -4,-10c-0.3,-1.1 -0.5,-1.9 -0.5,-2.1c0,-0.9 1.8,-5.6 1.8,-5.6c0.7,0.1 1.6,0.8 2.5,1.5c1.4,1.3 2.8,3 2.8,3c0.5,-0.5 0.8,-3.8 0.8,-7.4c0,-3.6 2.2,-8.3 4.4,-7.7c2.2,0.7 3,8.1 3,8.1s0.4,-0.2 2,-2.9c0.5,-0.9 1.2,-2 1.9,-3.4c3.2,-5.9 6.8,-9 12.8,-11.4c5.8,-2.3 8.5,0.6 8.6,0.7c0.7,1.6 0.4,3.9 0.3,6.3c-0.4,4.1 -2.4,8.8 -2.4,8.8z" id="svg_72"/>
     <path class="st13" d="m252,67.1c-2,-0.7 -3.5,-1.9 -4.5,-3.1l-0.1,-0.1c-1.2,-1.3 -1.8,-2.6 -2.1,-3.2c-0.1,-0.3 -0.2,-0.4 -0.2,-0.4l-0.1,0.1c-0.4,0.4 -1.9,1.9 -3.3,3.1c-1.3,-3.7 -3.5,-8.1 -6.5,-8c-0.3,-1.1 -0.5,-1.9 -0.5,-2.1c0,-0.9 1.8,-5.6 1.8,-5.6c0.7,0.1 1.6,0.8 2.5,1.5c1.4,1.3 2.8,3 2.8,3c0.5,-0.5 0.8,-3.8 0.8,-7.4c0,-3.6 2.2,-8.3 4.4,-7.7c2.2,0.7 3,8.1 3,8.1s0.4,-0.2 2,-2.9c-1.3,3.4 -2.8,8.2 -3.1,12.6c-0.5,4.7 1.5,9.3 3.1,12.1z" id="svg_73"/>
     <path class="st0" d="m258.1,95c0,1.3 0,2.6 -0.1,3.9l0,0.3l0,0.1c-0.4,10.3 -1.7,18.7 -3.6,26.1c-0.5,2.1 -1,4 -1.6,6c-2.9,9.8 -5.6,26.4 -6,26.4c-0.2,0 -4.2,-1.7 -9.9,-4.5c-0.2,-0.1 -0.4,-0.2 -0.6,-0.3c-4.2,-2.1 -9.2,-4.6 -14.2,-7.5c-12.1,-6.9 -16.4,-15.9 -16.4,-15.9s2.9,-1.8 6.7,-4.2c2,-1.3 4.4,-2.9 6.6,-4.5c6.3,-4.5 20.3,-13.4 26.5,-29c3.2,-8 3.5,-15.6 3,-21c-0.3,-3 -0.8,-5.4 -1.2,-6.8c1.2,1.3 2.8,2.6 5.1,3.3c0.1,0 0.2,0.1 0.3,0.1c0.1,0.2 0.2,0.4 0.3,0.6c0.2,0.4 0.3,0.9 0.5,1.4c0.1,0.2 0.1,0.3 0.2,0.5c0.1,0.1 0.1,0.3 0.1,0.4c0.1,0.2 0.1,0.3 0.2,0.5c0,0.1 0.1,0.2 0.1,0.3c0.1,0.3 0.2,0.6 0.3,0.9c0.2,0.6 0.4,1.2 0.6,1.8c0,0 0,0 0,0.1c0.2,0.7 0.4,1.6 0.7,2.4c0.2,0.6 0.3,1.2 0.5,1.9c0.1,0.3 0.2,0.7 0.2,1c0,0.2 0.1,0.4 0.1,0.6c0,0.2 0.1,0.5 0.1,0.7c0.3,1.3 0.5,2.6 0.7,4c0.1,0.7 0.2,1.4 0.3,2.1l0,0c0.1,0.7 0.2,1.4 0.2,2.2c0,0.3 0.1,0.7 0.1,1s0,0.5 0.1,0.8c0,0.3 0,0.7 0.1,1c0,0.2 0,0.3 0,0.5c0,0.4 0,0.8 0,1.2c0,0.5 0,1.1 0,1.6z" id="svg_74"/>
     <path class="st14" d="m254.5,125.4c-0.5,2.1 -1,4 -1.6,6c-2.9,9.8 -5.6,26.4 -6,26.4c-0.2,0 -4.2,-1.7 -9.9,-4.5c-0.2,-0.1 -0.4,-0.2 -0.6,-0.3c-4.2,-2.1 -9.2,-4.6 -14.2,-7.5c-12.1,-6.9 -16.4,-15.9 -16.4,-15.9s2.9,-1.8 6.7,-4.2c9.2,1.9 26.3,4.4 42,0z" id="svg_75"/>
     <path class="st15" d="m244.8,93.8c-0.3,0.6 -0.6,1.3 -0.9,1.9c-4.7,9.4 -12,16.8 -26.3,26.2c-15.2,10 -22.1,13.3 -22.1,13.3c-2.3,-0.6 -4.4,-1.4 -6.3,-2.3c-0.3,-0.1 -0.5,-0.2 -0.7,-0.3c-2.9,-1.4 -5.3,-3 -7.2,-4.4c-1.1,-0.8 -2,-1.6 -2.8,-2.3c-1.4,-1.3 -2.2,-2.2 -2.2,-2.2s1.2,-0.6 3.2,-1.6c4.7,-2.5 9.3,-5.3 12.8,-7.5c7.1,-4.4 13.8,-8.8 22.1,-21.3c2.1,-3.2 4.2,-6.7 6.1,-10.2c0,0 0,0 0,-0.1c4.2,-7.6 7.7,-15 9.2,-18.3c0.3,-0.7 0.5,-1.2 0.7,-1.5c0.1,-0.2 0.1,-0.2 0.1,-0.3s0.2,-0.9 0.4,-2c0.5,-2.5 1.2,-6.6 1.2,-6.6l2.5,-1c0,0.9 3.7,12.2 4.5,12.1c0.7,-0.1 5.1,-4.3 5.9,-5.1l0.3,0.3c0.3,0.6 1,1.9 2.1,3.2c0,0.2 0.1,0.4 0.1,0.6c0.1,0.3 0.1,0.6 0.2,0.9c0.4,1.6 0.6,3.3 0.8,4.9c0.9,8 -0.2,15.8 -3.7,23.6z" id="svg_76"/>
     <path class="st16" d="m243.9,95.7c-4.7,9.4 -12,16.8 -26.3,26.2c-15.2,10 -22.1,13.3 -22.1,13.3c-2.3,-0.6 -4.4,-1.4 -6.3,-2.3c-0.3,-0.1 -0.5,-0.2 -0.7,-0.3c-2.9,-1.4 -5.3,-3 -7.2,-4.4c7.4,-2.1 32.8,-8.3 48.5,-20.1c6.4,-4.9 10.9,-9.1 14.1,-12.4z" id="svg_77"/>
     <path class="st17" d="m171.5,173.4c0,0 -20.1,13.6 -38.9,20.9c-18.8,7.4 -26.9,9.5 -37.4,3.5s-46,-40.1 -46,-40.1s2,-1.8 4.1,-3.6c2,-1.7 4.1,-3.3 4.6,-3.3c1.1,0.2 41.5,12.5 50.8,25.2c0,0 15.5,-13.9 23.6,-21.5c8.1,-7.5 23.5,-19.4 23.5,-19.4c-1,4.8 -0.7,12 3,18.9c0.6,1.1 1.3,2.4 2.2,3.7c0.9,1.5 2,3.2 3.2,5c2.2,3.5 4.7,7.1 7.3,10.7z" id="svg_78"/>
     <path class="st18" d="m171.5,173.4c0,0 -20.1,13.6 -38.9,20.9c-18.8,7.4 -26.9,9.5 -37.4,3.5s-46,-40.1 -46,-40.1s2,-1.8 4.1,-3.6c3.2,3.2 9.7,9.2 19.9,17.4c15.3,12.3 35.9,20.7 35.9,20.7c14.5,-1 39.5,-22.6 52,-34.2c0.9,1.5 2,3.2 3.2,5c2.1,3.2 4.6,6.8 7.2,10.4z" id="svg_79"/>
     <path class="st17" d="m249.3,293.4c0,0 -2.2,0.9 -3.8,1.7c-0.3,0.1 -0.5,0.2 -0.7,0.4c-0.2,0.1 -0.4,0.2 -0.6,0.3c-0.2,0.1 -0.4,0.3 -0.4,0.3c-0.1,0.4 -32.9,-39.7 -38,-51.3c-5.1,-11.6 0,-28 0,-28s-11.1,-14.4 -17.9,-22.4c-3.6,-4.3 -10.2,-12.7 -16.3,-21.1c-5.2,-7.2 -10.2,-14.4 -12.7,-19.2c-3.7,-6.9 -4,-14.1 -3,-18.9c0.3,-1.2 0.6,-2.2 1,-3.1c0.4,-0.8 0.8,-1.5 1.2,-1.9c2.6,-1 5.2,-1.8 7.6,-2.5c2.1,-0.5 4.3,-1.3 6.6,-2.3c0.3,-0.1 0.6,-0.2 0.8,-0.4c1.1,-0.5 2.1,-0.9 3.2,-1.5l0,0c0,0 0.2,0.6 1.7,1.9c0.7,0.6 1.5,1.3 2.8,2.1c1.3,0.9 3.2,1.9 5.2,2.9c0.2,0.1 0.4,0.2 0.7,0.3c4.3,2.1 8.8,3.9 8.8,3.9s26.6,59.7 31.3,76.7c4.5,17.3 22.5,82.1 22.5,82.1z" id="svg_80"/>
     <path class="st18" d="m245.5,295.1c-0.3,0.1 -0.5,0.2 -0.7,0.4c-0.2,0.1 -0.4,0.2 -0.6,0.3c-0.2,0.1 -0.4,0.3 -0.4,0.3c-0.1,0.4 -32.9,-39.7 -38,-51.3c-5.1,-11.6 0,-28 0,-28s-11.1,-14.4 -17.9,-22.4c-3.6,-4.3 -10.2,-12.7 -16.3,-21.1c-5.2,-7.2 -10.2,-14.4 -12.7,-19.2c-3.7,-6.9 -4,-14.1 -3,-18.9c0.3,-1.2 0.6,-2.2 1,-3.1c0.4,-0.8 0.8,-1.5 1.2,-1.9c2.6,-1 5.2,-1.8 7.6,-2.5c2.1,-0.5 4.3,-1.3 6.6,-2.3c0.3,-0.1 0.6,-0.2 0.8,-0.4c1.1,-0.5 2.1,-0.9 3.2,-1.5l0,0c0,0 0.2,0.6 1.7,1.9c-2.6,1.9 -6.5,4.8 -9.5,5.8c0,0 -4,3.8 -3.7,10.4s5.2,17.8 20.9,40.5c15.6,22.7 25.1,35.6 25.4,36c0.3,0.5 -5.4,7.1 0.8,23.9c5.1,14.2 26.3,43.3 33.6,53.1z" id="svg_81"/>
     <path class="st0" d="m232.1,54.4c0,0 -0.9,5.2 -1.4,7.5c-0.1,0.6 -0.2,1 -0.2,1.1c-0.1,0.3 -7.8,17.8 -16.1,30.3c-1.7,2.5 -3.3,4.7 -4.9,6.7c-0.4,0.5 -0.8,1 -1.2,1.5c-5.7,6.6 -10.7,9.9 -16,13.2c-3.6,2.2 -8.1,5 -12.8,7.5c-1.1,0.6 -2.1,1.1 -3.2,1.6c-3.6,1.7 -7.2,3.2 -10.6,4.1c-1.3,0.3 -2.8,0.8 -4.2,1.3c-1.1,0.4 -2.3,0.8 -3.4,1.2c-6.7,2.5 -12.9,5.5 -12.9,5.5c-0.2,-1.8 -0.1,-19.9 -0.1,-19.9s10.8,-7 19.8,-13.2c0.2,-0.1 0.4,-0.3 0.6,-0.4c1.3,-0.9 2.5,-1.7 3.6,-2.5c0.2,-0.2 0.4,-0.3 0.7,-0.5c0.9,-0.7 1.8,-1.3 2.6,-1.9c0.6,-0.4 1.1,-0.8 1.6,-1.2c7,-5.2 13.8,-16 15.3,-18.4c0.2,-0.3 0.3,-0.4 0.3,-0.5c-3.4,2.1 -25.9,3.9 -27.4,4.4c-1.5,0.4 -4.9,3.7 -13.1,12.1c-8.2,8.3 -18.5,22 -18.5,22c-0.3,-0.2 -0.7,-0.3 -1.1,-0.6c-3.4,-1.9 -9.1,-5.9 -9.1,-5.9s5.3,-12.7 10.2,-21.2s13.3,-21.9 15.7,-24.2c2.5,-2.4 17.4,-9.6 32.6,-12.8c15.2,-3.2 23.9,-4 32.5,-3.1c3.5,0.4 6.7,1 9.6,1.9c0.1,0 0.1,0 0.2,0.1c0.2,0.1 0.4,0.1 0.7,0.2c4,1.3 7.5,2.7 10.2,4.1z" id="svg_82"/>
     <path class="st14" d="m172.4,97.5c-3.1,4.1 -5.2,8.6 -7.5,16c-1.8,5.8 -2.9,11.6 -3.4,15.5c-1.1,0.4 -2.3,0.8 -3.4,1.2c-6.7,2.5 -12.9,5.5 -12.9,5.5c-0.2,-1.8 -0.1,-19.9 -0.1,-19.9s10.8,-7 19.8,-13.2c0.2,-0.1 0.4,-0.3 0.6,-0.4c1.3,-0.9 2.5,-1.7 3.6,-2.5c0.2,-0.2 0.4,-0.3 0.7,-0.5c0.9,-0.4 1.8,-1.1 2.6,-1.7z" id="svg_83"/>
     <path class="st14" d="m189.3,78c0.2,-0.3 0.3,-0.4 0.3,-0.5c-3.4,2.1 -25.9,3.9 -27.4,4.4c-1.5,0.4 -4.9,3.7 -13.1,12.1c-8.2,8.3 -18.5,22 -18.5,22c-0.3,-0.2 -0.7,-0.3 -1.1,-0.6c3.4,-8.2 18.3,-32.7 26.9,-37.5l37.5,-7.6c0,0 -0.4,3.1 -4.6,7.7z" id="svg_84"/>
     <path class="st0" d="m327.7,61.4c0,4.4 -0.7,9.9 -1.2,13.3c-0.3,2 -0.5,3.2 -0.5,3.2c-8,5.5 -29.3,16.9 -43.8,18.9c-13,1.8 -22.3,2.4 -23.9,2.5c-0.1,0 -0.2,0 -0.2,0c-0.1,0 -0.1,0 -0.1,0l0,-0.1l0,-0.3c0,-1.3 0.1,-2.5 0.1,-3.9c0,-0.5 0,-1.1 0,-1.6c0,-0.4 0,-0.8 0,-1.2c0,-0.2 0,-0.3 0,-0.5c0,-0.4 0,-0.7 -0.1,-1c0,-0.3 0,-0.5 -0.1,-0.8c0,-0.3 0,-0.6 -0.1,-0.9l0,-0.1c-0.1,-0.7 -0.1,-1.5 -0.2,-2.2l0,0c-0.1,-0.7 -0.2,-1.4 -0.3,-2.1c-0.2,-1.4 -0.4,-2.7 -0.7,-4c0,-0.2 -0.1,-0.5 -0.1,-0.7c-0.1,-0.2 -0.1,-0.4 -0.1,-0.6c-0.1,-0.3 -0.1,-0.7 -0.2,-1c-0.2,-0.7 -0.3,-1.3 -0.5,-1.9c-0.2,-0.8 -0.4,-1.7 -0.7,-2.4c0,0 0,0 0,-0.1c-0.2,-0.7 -0.4,-1.3 -0.6,-1.8c-0.1,-0.3 -0.2,-0.6 -0.3,-0.9c0,-0.1 -0.1,-0.2 -0.1,-0.3c-0.1,-0.2 -0.1,-0.3 -0.2,-0.5c0,-0.1 -0.1,-0.3 -0.1,-0.4c-0.1,-0.2 -0.1,-0.4 -0.2,-0.5c-0.2,-0.6 -0.4,-1.1 -0.5,-1.4c0.1,0 0.2,0 0.3,0.1c1.4,0.3 4.1,0.9 7.5,1.6c9.8,1.9 25.5,4.4 33.9,2.8c12.6,-2.6 33,-11.2 33,-11.2z" id="svg_85"/>
     <path class="st14" d="m326.5,74.7c-0.3,2 -0.5,3.2 -0.5,3.2c-8,5.5 -29.3,16.9 -43.8,18.9c-13,1.8 -22.3,2.4 -23.9,2.5c-0.1,0 -0.2,0 -0.2,0c-0.1,0 -0.1,0 -0.1,0l0,-0.1l0,-0.3c0,-1.3 0.1,-2.5 0.1,-3.9c0,-0.5 0,-1.1 0,-1.6c0,-0.4 0,-0.8 0,-1.2c0,-0.2 0,-0.3 0,-0.5c0,-0.4 0,-0.7 -0.1,-1c0,-0.3 0,-0.5 -0.1,-0.8c0,-0.3 0,-0.6 -0.1,-0.9c0.2,-0.1 0.2,-0.1 0.2,-0.1s29.3,-0.5 41.1,-3c9,-1.9 21.6,-8.1 27.4,-11.2z" id="svg_86"/>
     <path class="st14" d="m221.9,50.3c4,1.2 7.4,2.7 10.1,4.1c0,0 -0.9,5.2 -1.4,7.5c-4.7,-4.4 -8.1,-9.4 -9.6,-11.8c0.1,0 0.1,0 0.2,0.1c0.3,0 0.5,0.1 0.7,0.1z" id="svg_87"/>
     <path class="st14" d="m260.8,69.6c-1.8,0.5 -4.1,1 -6.7,1.2c-1.7,0.1 -3.6,0.2 -5.5,0c-0.3,-3 -0.8,-5.4 -1.2,-6.8c1.2,1.3 2.8,2.6 5.1,3.3c0.1,0 0.2,0.1 0.3,0.1c0.1,0.2 0.2,0.4 0.3,0.6c0.1,0 0.2,0 0.3,0.1c1.4,0.3 4,0.9 7.4,1.5z" id="svg_88"/>
     <path class="st16" d="m248.5,70.3c-9.1,0.6 -14.5,-4.3 -17.6,-9.3c0.5,-2.5 1.2,-6.6 1.2,-6.6l2.5,-1c0,0.9 3.7,12.2 4.5,12.1c0.7,-0.1 5.1,-4.3 5.9,-5.1l0.3,0.3c0.3,0.6 1,1.9 2.1,3.2c0,0.2 0.1,0.4 0.1,0.6c0.1,0.3 0.1,0.6 0.2,0.9c0.3,1.6 0.6,3.2 0.8,4.9z" id="svg_89"/>
     <g id="svg_90">
      <path class="st0" d="m172.2,174.6c-0.1,0 -0.2,0 -0.3,-0.1c-4.4,-5.9 -12.6,-16.9 -15.7,-25.9c-3.1,-8.7 0.1,-16.2 0.2,-16.3c0.1,-0.2 0.3,-0.2 0.4,-0.2c0.2,0.1 0.2,0.3 0.2,0.4s-3.1,7.4 -0.2,15.8c3.1,8.8 11.3,19.8 15.7,25.7c0.1,0.2 0.1,0.4 -0.1,0.5c-0.1,0.1 -0.1,0.1 -0.2,0.1z" id="svg_91"/>
     </g>
     <path class="st0" d="m246.1,298.4c-0.1,0 -0.1,0 -0.2,0s-0.2,-0.1 -0.3,-0.2c0,0 -0.5,-0.9 -1.4,-2.5c-3.1,-5.5 -10.7,-19.6 -17.1,-34.6c-8.7,-20.3 -9.2,-37.7 -9.2,-37.9c0,-1.2 -6.7,-13.7 -12.4,-23.1c-2.8,-4.7 -8.8,-13.9 -15.2,-23.8c-5.6,-8.7 -11.5,-17.7 -15.1,-23.6c-6.5,-10.5 -5.1,-20.8 -3,-27.3c0.3,-0.1 0.6,-0.2 0.8,-0.4c-0.8,2.2 -1.5,5 -1.8,8c1.6,0.3 9.9,1.9 14.6,-2.5c0.2,0.1 0.4,0.2 0.7,0.3c-2.8,2.8 -6.8,3.4 -10.1,3.4c-2.4,0 -4.5,-0.4 -5.3,-0.6c-0.4,5.5 0.5,12 4.5,18.5c3.7,5.9 9.5,14.9 15.1,23.6c6.4,9.8 12.4,19.1 15.2,23.8c4.9,8.2 12.5,21.9 12.5,23.5c0,0.2 0.5,17.4 9.1,37.6c6.4,15 14,29 17.1,34.5c0.9,1.5 1.4,2.4 1.4,2.4c0.3,0.6 0.2,0.8 0.1,0.9z" id="svg_92"/>
     <path class="st19" d="m110.4,117.3c0,0 6.8,-5.3 13.3,1.9c6.5,7.2 6.5,9.8 2.6,17.8l-1.5,-1.8c0,0 3.1,-5.7 1.5,-9.7c-1.6,-3.9 -7.8,-8.5 -10.4,-8c-2.6,0.5 -3.6,2.2 -3.6,2.2l-1.9,-2.4z" id="svg_93"/>
     <path class="st20" d="m262,40.8c-0.9,-0.3 -0.1,-2 2,-2.8s6.5,-1.3 7.7,-0.6c1.3,0.7 1.6,1.9 0,2c-1.5,0.2 -8.2,1.8 -9.7,1.4z" id="svg_94"/>
     <g id="svg_95">
      <path class="st21" d="m112.3,182.3c-0.1,0 -0.2,-0.1 -0.3,-0.2s-6.3,-11.8 -16.7,-16.4c-0.2,-0.1 -0.3,-0.3 -0.2,-0.4c0.1,-0.2 0.3,-0.3 0.4,-0.2c10.6,4.7 16.9,16.6 17,16.7c0.1,0.2 0,0.4 -0.2,0.5c0.1,0 0.1,0 0,0z" id="svg_96"/>
     </g>
     <path class="st22" d="m57.9,150.9l-5.5,4.3l-3.2,2.5c-2.6,1.1 -18.5,5 -18.5,5c1.1,-1.6 3.7,-4.2 6.7,-7.1c7.1,-6.7 16.7,-15 16.7,-15c2,1.8 3.8,10.3 3.8,10.3z" id="svg_97"/>
     <path class="st22" d="m243.8,296.1l0,9.5c0,0 21.7,-5.6 29.2,-9.5l-23.8,-3.3l-5.4,3.3z" id="svg_98"/>
     <path class="st20" d="m277.1,24.8c-0.1,0.4 -0.3,0.8 -0.5,1.2c-0.6,1.2 -1.3,2.5 -1.3,2.5l0,0c-0.1,-0.1 -2.8,-3 -8.6,-0.7c-5.9,2.3 -9.6,5.5 -12.8,11.4c-0.3,0.5 -0.5,1 -0.8,1.4c-2.6,4.5 -3.2,4.9 -3.2,4.9s-0.8,-7.4 -3,-8.1c-2.2,-0.7 -4.4,4.1 -4.4,7.7c0,3.6 -0.3,6.8 -0.8,7.4c0,0 -1.4,-1.7 -2.8,-3c-0.9,-0.8 -1.9,-1.5 -2.5,-1.5c0,0 -1.4,-5.3 -1.4,-10.2c0,-5 -0.1,-12.1 5.8,-17.9c0.5,-0.5 1.1,-1 1.7,-1.5c6,-4.9 15.1,-7.9 24.8,-5.5c10.5,2.3 10.2,10.5 9.8,11.9z" id="svg_99"/>
     <path class="st21" d="m241.7,52.3c0,0 -1.4,-1.7 -2.8,-3c1.4,1.3 2.8,3 2.8,3z" id="svg_100"/>
     <path class="st23" d="m138.8,150.9l-20.1,20.1l-0.5,0.5l-10.5,10.5c0,0 -9.3,-10.3 -18.8,-21.2c-0.2,-0.2 -0.3,-0.3 -0.4,-0.5c0,0 0,0 -0.1,-0.1c-7.9,-9.2 -15.8,-18.8 -18.2,-23.1l11.6,-11.2l0.5,-0.5l19.6,-18.9c0,0 15.1,20 27.1,33.9c3.8,4.3 7.3,8.1 9.8,10.5z" id="svg_101"/>
     <g id="svg_102">
      <path class="st14" d="m170.4,114.3c0,0.2 -0.1,0.3 -0.2,0.3c-1.3,0.4 -3.4,1 -3.6,1.1l-0.1,0l-0.1,0c-0.1,0 -0.2,0 -0.2,-0.3l0,0l0,-0.1c-0.1,-0.4 -0.1,-1 -0.2,-2.2l-1,-10.4c0.2,-0.1 0.4,-0.3 0.6,-0.4c0.3,3.4 1.1,10.8 1.3,12.6c0.5,-0.2 1.4,-0.5 3,-0.9c-0.1,-1.9 -0.5,-9.9 -0.6,-14.2c0.2,-0.2 0.4,-0.3 0.7,-0.5c-0.2,3.5 0.2,10.2 0.4,15z" id="svg_103"/>
     </g>
     <g id="svg_104">
      <path class="st14" d="m255.7,76.3c-0.5,16.6 -10,51 -13.4,58.4c-2.9,6.3 -4.5,14.2 -5.3,18.5c-0.2,-0.1 -0.4,-0.2 -0.6,-0.3c0.8,-4.3 2.5,-12.2 5.3,-18.4c3.6,-7.7 13.8,-45.3 13.4,-60.6c0.2,0.8 0.4,1.6 0.6,2.4z" id="svg_105"/>
     </g>
     <path class="st8" d="m138.8,150.9l-20.1,20.1l-0.5,0.5l-10.5,10.5c0,0 -9.3,-10.3 -18.8,-21.2c-0.2,-0.2 -0.3,-0.3 -0.4,-0.5c0,0 0,0 -0.1,-0.1c8.6,-2.5 27.4,-8.8 40.6,-19.9c3.8,4.4 7.3,8.2 9.8,10.6z" id="svg_106"/>
     <g id="svg_107">
      <path class="st14" d="m221.9,50.3c-0.4,4.8 -1.6,15.5 -5,26.6c-2.6,8.7 -5.5,17.4 -7.5,23c-0.4,0.5 -0.8,1 -1.2,1.5c1.9,-5.5 5.1,-15.1 8,-24.7c3.5,-11.5 4.7,-22.1 5,-26.6c0.3,0.1 0.5,0.2 0.7,0.2z" id="svg_108"/>
     </g>
     <g id="svg_109">
      <path class="st14" d="m187.5,81.1c-0.1,0 -0.1,0 -0.2,-0.1c-0.2,-0.1 -0.2,-0.3 -0.1,-0.5c0.1,-0.2 10.3,-15.8 12.1,-27.2c0,-0.2 0.2,-0.3 0.4,-0.3c0.2,0 0.3,0.2 0.3,0.4c-1.8,11.5 -12.1,27.3 -12.2,27.5c0,0.1 -0.2,0.2 -0.3,0.2z" id="svg_110"/>
     </g>
     <g id="svg_111">
      <path class="st19" d="m245.1,45.4c0.3,0.3 0.8,0.3 1.2,0.3l0.1,0c0,0.2 -0.1,0.5 -0.1,0.7s0.1,0.4 0.3,0.4c0,0 0,0 0.1,0c0.2,0 0.3,-0.1 0.3,-0.3c0.1,-0.3 0.1,-0.7 0.1,-1c0,-0.1 0.1,-0.2 0,-0.2l0,0c0.2,-2.9 -0.6,-6.2 -0.7,-6.3c0,-0.2 -0.2,-0.3 -0.4,-0.2c-0.2,0 -0.3,0.2 -0.2,0.4c0,0 0.3,1.3 0.5,2.9c-0.5,0.3 -1.8,1.2 -1.7,2.5c0,0.3 0.2,0.6 0.5,0.8zm1.3,-2.6c0.1,0.7 0.1,1.5 0.1,2.3c-0.3,0 -0.7,0 -0.9,-0.2c-0.1,-0.1 -0.2,-0.3 -0.2,-0.5c-0.2,-0.6 0.5,-1.3 1,-1.6z" id="svg_112"/>
      <path class="st19" d="m247.5,49.1c-0.1,-0.2 -0.3,-0.2 -0.5,-0.1c-0.9,0.5 -1.7,0.6 -2.3,0.2c-1.5,-0.8 -1.9,-3.4 -1.9,-3.5c0,-0.2 -0.2,-0.3 -0.4,-0.3c-0.2,0 -0.3,0.2 -0.3,0.4c0,0.1 0.4,3.1 2.2,4c0.3,0.2 0.7,0.3 1.1,0.3c0.6,0 1.2,-0.2 1.8,-0.5c0.3,-0.1 0.3,-0.3 0.3,-0.5z" id="svg_113"/>
     </g>
     <g id="svg_114">
      <path class="st19" d="m245.7,62c-0.1,0 -0.2,-0.1 -0.3,-0.2c-0.5,-1 -0.9,-2.1 -0.9,-4.5c0,-0.2 0.1,-0.3 0.3,-0.3c0.2,0 0.3,0.1 0.3,0.3c0.1,2.5 0.5,3.4 0.9,4.2c0.1,0.2 0,0.4 -0.1,0.5c-0.1,0 -0.1,0 -0.2,0z" id="svg_115"/>
     </g>
     <g id="svg_116">
      <path class="st24" d="m265.9,60.1c-0.1,0.2 -0.2,0.4 -0.3,0.6c-2,-0.6 -5.5,-1.5 -5.5,-1.5c-0.2,0 -0.3,-0.2 -0.2,-0.4c0,-0.2 0.2,-0.3 0.4,-0.2c0,-0.1 3.7,0.9 5.6,1.5z" id="svg_117"/>
     </g>
     <g id="svg_118">
      <path class="st0" d="m258.3,99.3c0,0.1 0,0.2 -0.1,0.2l-0.1,-0.2l-0.1,-0.1l-0.3,0c0,-0.1 0.5,-11 -1.3,-18.4c-0.6,-2.4 -1.4,-4.9 -2.1,-7.1c-0.8,-2.6 -1.5,-4.8 -1.8,-6.5c0.1,0 0.2,0.1 0.3,0.1c0.1,0.2 0.2,0.4 0.3,0.6c0.1,0 0.2,0 0.3,0.1c0.4,1.6 1,3.5 1.6,5.5c0.7,2.2 1.5,4.7 2.1,7.1c1.5,6.3 1.6,17.2 1.2,18.7z" id="svg_119"/>
     </g>
     <g id="svg_120">
      <path class="st19" d="m118.7,171l-0.5,0.5c-2.4,-2.2 -4.8,-4.7 -7.3,-7.3c-0.2,-0.2 -0.3,-0.3 -0.5,-0.5c-1.4,-1.6 -2.9,-3.2 -4.3,-4.8c-0.1,-0.2 -0.3,-0.3 -0.4,-0.5c-2.2,-2.6 -4.4,-5.3 -6.5,-7.9c-0.1,-0.2 -0.3,-0.4 -0.4,-0.5c-2.4,-3 -4.6,-6 -6.6,-8.8c-0.1,-0.2 -0.3,-0.4 -0.4,-0.5c-1.5,-2.1 -2.9,-4.1 -4.2,-5.9c-0.1,-0.2 -0.3,-0.4 -0.4,-0.6c-2.4,-3.4 -4.2,-6.3 -5.4,-8.2l0.5,-0.5c1.2,1.9 3.1,4.9 5.6,8.5c0,0 0,0 0.1,0.1l0,0c1.4,2 2.9,4.1 4.5,6.4c0,0 0,0 0.1,0.1l0,0c2.1,2.9 4.5,6.1 6.9,9.2l0,0l0.1,0.1l0,0c2.2,2.8 4.4,5.5 6.8,8.3l0,0l0.1,0.1c1.5,1.8 3.1,3.5 4.6,5.2l0,0c0,0 0,0 0,0.1c2.6,2.6 5.1,5.1 7.6,7.4z" id="svg_121"/>
     </g>
     <g id="svg_122">
      <path class="st19" d="m99.6,150.2c0,0 -0.1,0.1 -0.3,0.3c-1.3,1.2 -7,6.6 -10.4,10.3c-0.2,-0.2 -0.3,-0.3 -0.4,-0.5c3.4,-3.7 9.1,-9.1 10.4,-10.3c0.1,-0.1 0.2,-0.2 0.2,-0.2c0.1,-0.1 0.3,-0.1 0.4,0l0,0l0,0l0.1,0.1l0,0c0.1,0.1 0.1,0.2 0,0.3z" id="svg_123"/>
     </g>
     <g id="svg_124">
      <path class="st19" d="m84.8,146.4c-0.1,0 -0.1,0 0,0c-0.2,0 -0.3,-0.1 -0.3,-0.2l-3,-5.4c-0.1,-0.1 -0.1,-0.3 0,-0.4c5.7,-6.6 6,-6.6 6.2,-6.6c0.1,0 0.2,0.1 0.3,0.2c0.1,0.2 0.1,0.4 -0.1,0.5c0,0 -0.1,0 -0.1,0.1c-0.5,0.4 -3.6,3.9 -5.6,6.2l2.7,4.9l7.2,-5.2c0.2,-0.1 0.4,-0.1 0.5,0.1c0.1,0.2 0.1,0.4 -0.1,0.5l-7.6,5.4c0,-0.1 -0.1,-0.1 -0.1,-0.1z" id="svg_125"/>
     </g>
     <g id="svg_126">
      <path class="st21" d="m105.3,169.4l0,0c-0.1,0 -0.2,0 -0.3,-0.1l-4.2,-4.7c-0.1,-0.1 -0.1,-0.3 0,-0.4l5.2,-6c0.1,-0.1 0.3,-0.2 0.5,0c0.1,0.1 0.2,0.3 0,0.5l-5,5.8l3.8,4.2l5.4,-5.1c0.1,-0.1 0.3,-0.1 0.5,0c0.1,0.1 0.1,0.3 0,0.5l-5.7,5.3c-0.1,0 -0.1,0 -0.2,0z" id="svg_127"/>
     </g>
     <path class="st16" d="m220.5,83.2c-3.3,7.2 -7.6,15.6 -12.2,21.2c-8.7,10.7 -22.8,18 -29.9,21.5c-1.4,-1.3 -2.2,-2.2 -2.2,-2.2s1.2,-0.6 3.2,-1.6c4.7,-2.5 9.3,-5.3 12.8,-7.5c7.1,-4.4 13.8,-8.8 22.1,-21.3c2.2,-3.2 4.3,-6.7 6.2,-10.1z" id="svg_128"/>
     <g id="svg_129">
      <path class="st19" d="m119.7,160.7c-0.1,0 -0.2,0 -0.3,-0.1s-6.3,-8.7 -12.6,-16.1c-6.3,-7.5 -16.9,-23.1 -17,-23.3c-0.1,-0.2 -0.1,-0.4 0.1,-0.5s0.4,-0.1 0.5,0.1c0.1,0.2 10.7,15.8 17,23.2c6.2,7.5 12.5,16.1 12.6,16.1c0.1,0.2 0.1,0.4 -0.1,0.5c-0.1,0 -0.2,0.1 -0.2,0.1z" id="svg_130"/>
     </g>
     <g id="svg_131">
      <path class="st14" d="m147.6,95.9c-0.1,0 -0.2,0 -0.2,-0.1c-0.1,-0.1 -0.2,-0.3 0,-0.5c9.7,-11.2 14.5,-13.6 14.7,-13.7l0.1,0c0,0 4.4,-0.6 13.1,-1.6c8.6,-1 14.2,-2.8 14.2,-2.8c0.2,-0.1 0.4,0 0.4,0.2c0.1,0.2 0,0.4 -0.2,0.4c-0.1,0 -5.7,1.8 -14.3,2.8c-8.1,0.9 -12.4,1.5 -13,1.6c-0.5,0.3 -5.3,3 -14.4,13.5c-0.2,0.2 -0.3,0.2 -0.4,0.2z" id="svg_132"/>
     </g>
     <g id="svg_133">
      <path class="st19" d="m239.1,66.3c-0.1,0.2 -0.3,1.5 -0.5,2.7c-0.8,5.1 -2.3,15.8 -7.7,25.5c-6.9,12.4 -31.6,32.2 -41.7,38.5c-0.3,-0.1 -0.5,-0.2 -0.7,-0.3c9.8,-6 34.9,-26 41.8,-38.4c5.3,-9.5 6.9,-20.1 7.7,-25.2c0.4,-2.5 0.5,-3 0.7,-3.2c0.2,-0.1 0.4,-0.1 0.5,0.1c0,0 0,0.2 -0.1,0.3z" id="svg_134"/>
     </g>
     <path class="st23" d="m238.8,66c-0.5,0.1 -5.7,3.6 -5.7,3.6s0.7,3.5 0.7,4.1c0,0 -7.1,6.6 -21.3,9.9c-14.2,3.3 -24,5.3 -24,5.3l-6.2,8.4l11.4,4.1c0,0 17.4,-6.9 29.9,-14.4c12.6,-7.4 15.3,-12.1 15.3,-12.1l3.1,-3.8l-3.2,-5.1z" id="svg_135"/>
     <path class="st19" d="m270.4,43.5c-0.7,1.4 -1.5,2.4 -1.9,2.3c-0.4,-0.2 -0.2,-1.5 0.5,-2.9s1.5,-2.4 1.9,-2.3c0.4,0.2 0.2,1.5 -0.5,2.9z" id="svg_136"/>
     <path class="st25" d="m52.4,155.2l-3.2,2.5c-2.6,1.1 -18.5,5 -18.5,5c1.1,-1.6 3.7,-4.2 6.7,-7.1c4.3,0.1 10.6,0.1 15,-0.4z" id="svg_137"/>
     <path class="st13" d="m273.9,57.4l-6.9,0.3c2.3,-2 6.9,-0.3 6.9,-0.3z" id="svg_138"/>
     <path class="st26" d="m265.1,25.6c-4.1,1.6 -9.4,5.2 -13.3,14.2c-7,-4 -10.8,-13.6 -9.4,-21.7c-0.6,0.5 -1.2,1 -1.7,1.5c-5.9,5.8 -5.8,12.9 -5.8,17.9s1.4,10.2 1.4,10.2c0.6,0 1.5,0.7 2.5,1.5c1.5,1.3 2.8,3 2.8,3c0.5,-0.5 0.8,-3.8 0.8,-7.4c0,-3.6 2.2,-8.3 4.4,-7.7c2.2,0.7 3,8.1 3,8.1s0.6,-0.3 3.2,-4.9c0.2,-0.4 0.5,-0.9 0.8,-1.4c3.2,-5.9 6.8,-9 12.8,-11.4c5.8,-2.3 8.5,0.6 8.6,0.7l0,0c0,0 0.8,-1.3 1.3,-2.5c-3,-3.5 -6.9,-1.9 -11.4,-0.1z" id="svg_139"/>
     <g id="svg_140">
      <path class="st12" d="m340.4,67.8c0.4,-0.1 5.6,-1.4 5.9,0c0.3,1.5 -7.7,4.3 -7.7,4.3s4.5,-0.4 5.3,0.7c0.1,0.1 0.1,0.2 0.1,0.3c0.1,1.5 -17.9,4.8 -17.9,4.8s0.1,-1 0.2,-2.4c0.2,-1.9 0.5,-4.5 0.8,-6.8c0.7,-5.2 0.7,-7.1 0.7,-7.2c0,0 9,-7.8 9.8,-6.9c0.8,0.9 -3.8,6.9 -3.8,6.9s12.6,-6.2 13.1,-5.2c0.4,1 -6.3,6.2 -6.8,6.5c0.4,-0.1 9.2,-2.7 9.5,-1.1c0.1,1.5 -8.7,5.8 -9.2,6.1z" id="svg_141"/>
      <path class="st13" d="m344,73.1c0.1,1.5 -17.9,4.8 -17.9,4.8s0.1,-1 0.2,-2.4c3.8,-0.5 12.1,-1.2 17.6,-2.6c0,0 0.1,0.1 0.1,0.2z" id="svg_142"/>
     </g>
     <g id="svg_143">
      <path class="st12" d="m129.1,128.9c-0.3,-0.1 -0.6,-0.2 -0.8,-0.5c-1.2,-1.2 -1.4,-4 -1.4,-4s-1.9,3.3 -2.9,2.8c-1,-0.6 -1.4,-2.1 -1.4,-2.1c-2.4,0.3 -2.8,-2.4 -2.8,-2.4c-2.3,-0.5 -1.9,-3.2 -1.9,-3.2s-2.9,0 -2.6,-2.1s3.5,-6 5.2,-7.8c0,0 1.2,0.7 4.4,2.8c1.9,1.3 3.6,2.3 4.6,2.9c0.7,0.4 1.1,0.7 1.1,0.7s0.4,13.2 -1.5,12.9z" id="svg_144"/>
      <path class="st13" d="m129.1,128.9c-0.3,-0.1 -0.6,-0.2 -0.8,-0.5c0.8,-4 1.1,-10.1 1.2,-13.1c0.7,0.4 1.1,0.7 1.1,0.7s0.4,13.2 -1.5,12.9z" id="svg_145"/>
     </g>
     <g id="svg_146">
      <path class="st19" d="m247.7,65.4c-2,3 -3.8,7.3 -4,8c0,0.1 -0.2,0.2 -0.3,0.2l0,0c-0.3,0 -0.7,-0.4 -4.6,-7.1l-8.5,5.6c-0.1,0.1 -0.2,0.1 -0.3,0s-0.2,-0.2 -0.2,-0.3l0,-7c0.3,-0.7 0.5,-1.2 0.7,-1.5l0,7.9l8.2,-5.4c0.1,-0.1 0.2,-0.1 0.3,-0.1s0.2,0.1 0.2,0.2c1.3,2.2 3.3,5.6 4.1,6.8c0.6,-1.4 2.2,-5.5 4.2,-8.1c0.1,0.2 0.1,0.5 0.2,0.8z" id="svg_147"/>
     </g>
    </g>
    <path class="st27" d="m228.4,299.2c0,0 -15.2,-20.1 -80.1,-26.1c0,0 -10.8,-1.3 -25.3,-1.6c-7,-0.2 -16.7,0.9 -27.8,-1.9c-14.2,-3.6 -33.5,-9.4 -37.4,-25.2c0,0 -3.2,-17.4 10.4,-11.5c0,0 -5.4,-13.1 -14,-7.3c-3.5,2.4 -4.8,5.2 -6.1,10.6c-2.6,11 3.6,35.1 51,44.4c3.7,0.7 12.6,1.4 16.4,1.4l53.9,0c0,-0.1 32,0.1 59,17.2z" id="svg_148"/>
    <path class="st27" d="m228,292.8c0,0 -14.3,-22.6 -23.2,-20.1c-2.3,0.7 -3.4,3.4 -2.2,5.5c0.9,1.5 2.7,2.4 6.7,0.3c0,0 4.1,-2.5 18.7,14.3z" id="svg_149"/>
    <path class="st27" d="m23.9,137.6c0,0 -6.1,-26.1 1.9,-30.6c2.1,-1.2 4.8,0 5.5,2.3c0.5,1.6 -0.2,3.6 -4.5,5c0,0 -4.6,1.2 -2.9,23.3z" id="svg_150"/>
    <path class="st27" d="m222.9,304.2c0,0 -21,-17.5 -28.9,-6.4c0,0 -1.4,3.7 2.6,5.1c2.3,0.8 4.4,0 5.8,-0.9c0.8,-0.5 0.8,-1.7 0,-2.2c-0.4,-0.2 -0.6,-0.5 -0.5,-0.7c0.4,-0.5 2.3,-5.5 21,5.1z" id="svg_151"/>
    <path class="st27" d="m104.2,278.3c0,0 -24.5,-15.6 -23.8,-24.1c0,0 -0.5,-4.4 4.9,-4.5c5.4,-0.1 11.9,-4.3 7.2,-13.1c-3.9,-7.3 -13.8,-6.3 -16.8,1.2c-2.3,5.6 -12.4,25.8 28.5,40.5z" id="svg_152"/>
    <path class="st27" d="m61.8,272.5c0,0 -12.1,-11.1 -16.6,-9.5c0,0 -2.5,0.4 -1.8,3.3s-0.6,7.1 -6.1,5.8c-4.6,-1.1 -5.5,-6.7 -1.8,-9.4c2.7,-1.9 12.3,-10.4 26.3,9.8z" id="svg_153"/>
    <path class="st27" d="m1.8,109.6c0,0 4.7,-14.6 16.5,-5.4c0,0 5.2,1.6 4.7,22.8c0,0 -0.9,12 18.6,16c0,0 -19.1,1.4 -22.8,-10.8c0,0 -1.9,-4.5 -3.1,-11.8c-1.2,-7.3 0.7,-17.9 -13.9,-10.8z" id="svg_154"/>
   </g>
  </g>
 </g>
</svg>