<svg xmlns="http://www.w3.org/2000/svg" viewBox="0 0 117 16" fill="#000000" style="box-shadow: none; border-radius: 0px; opacity: 1;" preserveAspectRatio="xMidYMid meet" fill-opacity="0.4">
<path d="M73.3882 0V15.4937H76.1954V6.07595L86.2211 16H86.8226V0.405063H83.9152V9.92405L73.8895 0H73.3882ZM50.0283 0.101266C45.8175 0.101266 42.3085 3.64557 42.3085 8C42.3085 12.3544 45.8175 15.8987 50.0283 15.8987C52.1337 15.8987 53.3368 15.4937 54.5399 15.0886L55.1414 14.7848V7.29114H52.2339V12.6582C51.6324 12.8608 51.0309 12.962 50.0283 12.962C47.8226 12.962 45.1157 11.2405 45.1157 8C45.1157 4.75949 47.8226 3.03797 50.0283 3.03797C51.7327 3.03797 52.4344 3.13924 54.4396 4.05063V1.01266C53.1362 0.405063 52.2339 0.101266 50.0283 0.101266ZM33.4859 0L26.4679 15.4937H29.6761L30.8792 12.4557H36.4936L37.6967 15.4937H40.9049L33.9871 0H33.4859ZM68.7764 15.4937V12.557H62.8612V9.11392H68.1748V6.37975H62.8612V3.34177H68.7764V0.405063H59.9537V15.4937H68.7764ZM98.0514 12.8608C95.8458 12.8608 93.1388 11.1392 93.1388 7.89873C93.1388 4.65823 95.8458 2.93671 98.0514 2.93671C99.7558 2.93671 100.458 3.03797 102.463 3.94937V0.911392C101.059 0.303797 100.157 0 97.9512 0C93.7404 0 90.2314 3.5443 90.2314 7.89873C90.2314 12.2532 93.7404 15.7975 97.9512 15.7975C100.157 15.7975 101.059 15.4937 102.463 14.8861V11.8481C100.458 12.7595 99.7558 12.8608 98.0514 12.8608ZM109.28 15.4937H112.188V9.11392L117 0.303797H113.792L110.784 5.97468L107.776 0.303797H104.568L109.28 9.11392V15.4937ZM6.41645 0.405063V3.34177H10.2262V15.4937H13.0334V3.34177H16.8432V0.405063H6.41645ZM2.90746 15.4937V0.405063H0V15.4937H2.90746ZM25.1645 9.11392V6.37975H18.4473V9.11392H25.1645ZM33.6864 5.67089L35.3907 9.92405H31.8817L33.6864 5.67089Z" fill="" style="undefined" fill-opacity=""></path>
</svg>