<svg xmlns="http://www.w3.org/2000/svg" viewBox="0.7285144329071045 0.7172849774360657 31.750886917114258 17.818714141845703" fill="none" preserveAspectRatio="xMidYMid meet">
<path fill-rule="evenodd" clip-rule="evenodd" d="M18.5299 12.1983L22.7488 16.4173L31.6903 7.47575L32.4794 2.06889L27.4658 3.26241L18.5299 12.1983ZM19.902 12.1995L27.9588 4.14281L31.3125 3.34442L30.7766 7.01611L22.7476 15.0452L19.902 12.1995Z" fill="#ffffff"></path>
<path fill-rule="evenodd" clip-rule="evenodd" d="M28.3512 6.2484L30.6077 7.54404L31.0897 6.70286L29.0609 5.53793L27.8936 3.51048L27.0529 3.99346L28.3512 6.2484Z" fill="#ffffff"></path>
<path fill-rule="evenodd" clip-rule="evenodd" d="M23.4325 15.73L19.2157 11.5133L16.4098 14.3193L20.6265 18.536L23.4325 15.73ZM22.0604 15.7288L20.6253 17.1639L17.7819 14.3204L19.2169 12.8854L22.0604 15.7288Z" fill="#ffffff"></path>
<path d="M31.8902 2.7053L30.369 3.19238L30.5107 4.08634L31.4048 4.227L31.8902 2.7053Z" fill="#ffffff"></path>
<path fill-rule="evenodd" clip-rule="evenodd" d="M16.7996 5.66703L15.3854 4.25282C12.2612 1.12863 7.19585 1.12862 4.07166 4.25282C0.947467 7.37701 0.947467 12.4423 4.07166 15.5665L5.48588 16.9807L16.7996 5.66703ZM3.36455 3.54571C-0.150164 7.06043 -0.150164 12.7589 3.36455 16.2736L5.48588 18.395L18.2138 5.66703L16.0925 3.54571C12.5778 0.0309947 6.87927 0.0309935 3.36455 3.54571Z" fill="#ffffff"></path>
<path fill-rule="evenodd" clip-rule="evenodd" d="M4.80755 9.86758C4.78081 11.2037 5.22045 12.4727 6.06826 13.3205L7.60719 14.8594L14.6777 7.78888L13.1388 6.24994C12.2911 5.40219 11.022 4.96264 9.68572 4.98949C8.34903 5.01635 7.05838 5.50874 6.19246 6.37466C5.32655 7.24057 4.8343 8.53106 4.80755 9.86758ZM13.8459 5.54283C11.6919 3.38883 7.63935 3.51356 5.48535 5.66756C3.33135 7.82156 3.20715 11.8736 5.36115 14.0276L7.60719 16.2736L16.092 7.78888L13.8459 5.54283Z" fill="#ffffff"></path>
<path fill-rule="evenodd" clip-rule="evenodd" d="M20.3351 0.717285L21.7493 2.1315L17.8602 6.02059L17.1531 5.31348L20.3351 2.1315L19.628 1.42439L20.3351 0.717285Z" fill="#ffffff"></path>
</svg>