<svg xmlns="http://www.w3.org/2000/svg" viewBox="0.03515620529651642 0.9699710011482239 49.00004196166992 57.000030517578125" fill="none" preserveAspectRatio="xMidYMid meet">
<path fill-rule="evenodd" clip-rule="evenodd" d="M47.3455 2.64644H1.72481V33.6612C1.72481 46.1607 11.9374 56.2935 24.5352 56.2935C37.133 56.2935 47.3455 46.1606 47.3455 33.6611V2.64644ZM0.0351562 0.969971V33.6612C0.0351562 47.0865 11.0042 57.97 24.5352 57.97C38.0661 57.97 49.0352 47.0865 49.0352 33.6611V0.969971H0.0351562Z" fill="#5B5B5B"></path>
<path fill-rule="evenodd" clip-rule="evenodd" d="M43.9662 5.99938H5.10412V33.6611C5.10412 44.3089 13.8037 52.9406 24.5352 52.9406C35.2666 52.9406 43.9662 44.3089 43.9662 33.6611V5.99938ZM3.41447 4.32291V33.6611C3.41447 45.2348 12.8705 54.617 24.5352 54.617C36.1998 54.617 45.6558 45.2348 45.6558 33.6611V4.32291H3.41447Z" fill="#5B5B5B"></path>
<path d="M17.4566 33.7137C16.1927 33.7137 15.082 33.4287 14.1246 32.8587C13.1862 32.2887 12.4586 31.5192 11.9415 30.5502C11.4245 29.5812 11.166 28.5172 11.166 27.3582C11.166 26.1802 11.4532 25.1257 12.0277 24.1947C12.6213 23.2637 13.4352 22.5322 14.4692 22.0002C15.5225 21.4682 16.7289 21.2022 18.0885 21.2022C19.4481 21.2022 20.6449 21.5632 21.679 22.2852C22.7322 23.0072 23.7184 23.9857 24.6376 25.2207C25.3461 24.0807 26.2174 23.1307 27.2515 22.3707C28.2856 21.6107 29.3962 21.2212 30.5835 21.2022C31.8665 21.2022 32.9772 21.4777 33.9155 22.0287C34.8538 22.5797 35.5623 23.3302 36.0411 24.2802C36.539 25.2112 36.7879 26.2562 36.7879 27.4152C36.7879 28.5742 36.4911 29.6382 35.8975 30.6072C35.323 31.5572 34.5091 32.3172 33.4559 32.8872C32.4218 33.4382 31.2346 33.7137 29.8941 33.7137C28.5345 33.7137 27.3472 33.3622 26.3323 32.6592C25.3365 31.9562 24.3695 30.9777 23.4312 29.7237C22.7609 30.8637 21.8992 31.8137 20.846 32.5737C19.8119 33.3337 18.6821 33.7137 17.4566 33.7137ZM18.5193 30.8922C19.2853 30.8922 20.013 30.6642 20.7024 30.2082C21.4109 29.7332 22.0141 29.1157 22.512 28.3557C21.6503 27.0067 20.779 25.8952 19.8981 25.0212C19.0172 24.1282 18.1172 23.6817 17.198 23.6817C16.2406 23.6817 15.4842 23.9572 14.9288 24.5082C14.3926 25.0592 14.1246 25.7717 14.1246 26.6457C14.1246 27.4057 14.3256 28.1182 14.7278 28.7832C15.149 29.4292 15.6948 29.9422 16.365 30.3222C17.0544 30.7022 17.7725 30.8922 18.5193 30.8922ZM29.492 23.8242C28.7643 23.8242 28.0558 24.0902 27.3664 24.6222C26.677 25.1352 26.0738 25.7812 25.5568 26.5602C26.4568 27.9662 27.3185 29.1062 28.1419 29.9802C28.9845 30.8352 29.875 31.2627 30.8133 31.2627C31.7708 31.2627 32.5176 30.9872 33.0538 30.4362C33.5899 29.8852 33.858 29.1632 33.858 28.2702C33.858 27.5102 33.6474 26.7882 33.2261 26.1042C32.824 25.4202 32.2878 24.8692 31.6176 24.4512C30.9473 24.0332 30.2388 23.8242 29.492 23.8242Z" fill="#5B5B5B"></path>
</svg>