<svg xmlns="http://www.w3.org/2000/svg" viewBox="0 0 46 37" fill="#f9b3b9" style="box-shadow: none; border-radius: 0px; opacity: 1;" preserveAspectRatio="xMidYMid meet" fill-opacity="1">
<path d="M28.3257 37C41.5522 31.5656 46 20.5812 46 11.3312C46 3.81562 41.9033 0 36.402 0C31.1349 0 27.2723 3.46875 27.2723 8.20937C27.2723 15.2625 33.2417 18.0375 38.743 19.425C38.2748 23.2406 34.4122 29.6 26.3359 33.5312L28.3257 37ZM2.10686 37C15.2163 31.5656 19.6641 20.5812 19.6641 11.3312C19.6641 3.81562 15.5674 0 10.0662 0C4.79898 0 0.936383 3.46875 0.936383 8.20937C0.936383 15.2625 7.02289 18.0375 12.2901 19.425C11.9389 23.2406 8.07634 29.6 0 33.5312L2.10686 37Z" fill="" fill-opacity="" style="undefined"></path>
</svg>