<svg xmlns="http://www.w3.org/2000/svg" viewBox="0 0.15136702358722687 43.5 58.50003433227539" fill="none" preserveAspectRatio="xMidYMid meet">
<path fill-rule="evenodd" clip-rule="evenodd" d="M42 57.1514V21.9014C42 10.7176 32.9338 1.65137 21.75 1.65137C10.5662 1.65137 1.5 10.7176 1.5 21.9014V57.1514H42ZM21.75 0.151367C9.73781 0.151367 0 9.88917 0 21.9014V58.6514H43.5V21.9014C43.5 9.88918 33.7622 0.151367 21.75 0.151367Z" fill="#484848"></path>
<path fill-rule="evenodd" clip-rule="evenodd" d="M37.6104 52.6886V21.9983C37.6104 13.239 30.5095 6.13818 21.7502 6.13818C12.991 6.13818 5.89014 13.239 5.89014 21.9983V52.6886H37.6104ZM21.7502 4.63818C12.1625 4.63818 4.39014 12.4106 4.39014 21.9983V54.1886H39.1104V21.9983C39.1104 12.4106 31.338 4.63818 21.7502 4.63818Z" fill="#484848"></path>
</svg>