<svg xmlns="http://www.w3.org/2000/svg" viewBox="0 0 28 22" fill="none" preserveAspectRatio="xMidYMid meet">
<path fill-rule="evenodd" clip-rule="evenodd" d="M27 18H1V21H27V18ZM0 17V22H28V17H0Z" fill="#ffffff"></path>
<path fill-rule="evenodd" clip-rule="evenodd" d="M22 7H17V17H22V7ZM16 6V18H23V6H16Z" fill="#ffffff"></path>
<path fill-rule="evenodd" clip-rule="evenodd" d="M24 3H2.5C1.67157 3 1 3.67157 1 4.5C1 5.32843 1.67157 6 2.5 6H24V3ZM2.5 2C1.11929 2 0 3.11929 0 4.5C0 5.88071 1.11929 7 2.5 7H25V2H2.5Z" fill="#ffffff"></path>
<path fill-rule="evenodd" clip-rule="evenodd" d="M6 7H5V14.5C5 14.7761 5.22386 15 5.5 15C5.77614 15 6 14.7761 6 14.5V7ZM4 6V14.5C4 15.3284 4.67157 16 5.5 16C6.32843 16 7 15.3284 7 14.5V6H4Z" fill="#ffffff"></path>
<path fill-rule="evenodd" clip-rule="evenodd" d="M26.5654 7.72507V1.78271C26.5654 1.35043 26.215 1 25.7827 1C25.3504 1 25 1.35043 25 1.78271V7.72507C25 8.15735 25.3504 8.50778 25.7827 8.50778C26.215 8.50778 26.5654 8.15735 26.5654 7.72507ZM25.7827 0C24.7981 0 24 0.798146 24 1.78271V7.72507C24 8.70964 24.7981 9.50778 25.7827 9.50778C26.7673 9.50778 27.5654 8.70964 27.5654 7.72507V1.78271C27.5654 0.798147 26.7673 0 25.7827 0Z" fill="#ffffff"></path>
<path d="M5 15H6V18H5V15Z" fill="#ffffff"></path>
<path fill-rule="evenodd" clip-rule="evenodd" d="M6 15H5V18H6V15Z" fill="#ffffff"></path>
</svg>