<svg width="40" height="16" viewBox="0 0 40 16" fill="none" xmlns="http://www.w3.org/2000/svg">
<path fill-rule="evenodd" clip-rule="evenodd" d="M9.40947 5.98201C8.57088 5.27469 7.50648 4.89155 6.40947 4.90205H3.5794V2.77204C3.60819 2.46822 3.57625 2.16167 3.4854 1.87031C3.39455 1.57896 3.24648 1.30864 3.0501 1.07502C2.85372 0.841411 2.61301 0.649168 2.3416 0.509594C2.0702 0.37002 1.77355 0.285885 1.46929 0.262035C1.38372 0.245083 1.29643 0.23835 1.20928 0.242016L1.19927 0.232006L1.18926 0.242016H1.16948C1.0032 0.228528 0.836324 0.263222 0.689259 0.341991C0.630663 0.378446 0.587976 0.435565 0.569386 0.502025C0.501314 0.695692 0.497796 0.906173 0.559376 1.102C0.559376 0.882001 0.669376 1.282 0.559376 1.102V11.102C0.693573 11.8607 1.00531 12.5769 1.46929 13.192C1.6705 13.5 1.9127 13.7793 2.18926 14.022C2.81652 14.5595 3.5826 14.9095 4.39946 15.0321C4.65996 15.0806 4.92429 15.104 5.18926 15.102H10.2994C10.3746 15.0989 10.4473 15.0747 10.5093 15.0321C10.5573 15.005 10.5972 14.9658 10.6253 14.9184C10.6534 14.871 10.6687 14.8171 10.6695 14.762V8.58198C10.6589 8.08346 10.5407 7.59307 10.3233 7.14436C10.1058 6.69564 9.7942 6.2992 9.40947 5.98201ZM5.01934 14.0321C4.65374 14.0373 4.29494 13.9327 3.98931 13.732C3.86662 13.6258 3.76709 13.4956 3.69658 13.3494C3.62608 13.2033 3.58616 13.0442 3.5794 12.882V5.972H6.51934C6.88532 5.96395 7.24494 6.06874 7.54937 6.27204C7.67182 6.37632 7.77154 6.50471 7.84209 6.64924C7.91264 6.79378 7.9524 6.95132 7.95928 7.11201V12.952C7.95644 13.2441 8.0253 13.5324 8.15947 13.7919L8.28936 14.0321H5.01934ZM13.1695 12.322L13.1495 5.84199C13.1495 4.86199 12.6194 4.83194 12.8094 4.54194C13.2694 3.86194 15.9393 4.76198 15.9393 6.70198V13.622C15.9393 14.612 16.3593 14.492 16.2693 14.852C16.1193 15.412 13.1695 15.222 13.1695 12.322ZM27.8995 14.832C27.8809 14.8984 27.8379 14.9556 27.7793 14.992C27.6328 15.0729 27.4665 15.111 27.2994 15.102H27.2593C26.7305 15.1032 26.2165 14.9272 25.7994 14.602C25.1494 14.162 24.5594 13.932 24.5594 13.102V7.102C24.6182 6.80784 24.5686 6.50234 24.4195 6.24202C24.1942 6.05474 23.9123 5.94898 23.6194 5.94197H21.0794L21.1893 6.19197C21.3641 6.47172 21.4894 6.77962 21.5594 7.102V14.102C21.5594 14.292 21.5193 15.072 20.9793 15.072H20.9693C20.311 15.1348 19.6535 14.9453 19.1294 14.5419C18.7855 14.1381 18.585 13.6318 18.5594 13.102L18.7093 6.17195C18.7096 5.96792 18.6468 5.76886 18.5293 5.602C18.4683 5.54207 18.4202 5.47048 18.3875 5.39143C18.3549 5.31238 18.3385 5.22756 18.3394 5.14204C18.358 5.07558 18.4007 5.01846 18.4593 4.98201C18.6063 4.90324 18.773 4.86854 18.9393 4.88203H23.3294L23.8294 4.91206C24.7332 5.00728 25.5871 5.37319 26.2793 5.96199C26.661 6.28117 26.97 6.67835 27.1856 7.12678C27.4012 7.57522 27.5184 8.06451 27.5293 8.56196V13.7919C27.5278 13.9993 27.5906 14.202 27.7093 14.372C27.7424 14.4309 27.7792 14.4876 27.8194 14.5419C27.8532 14.5814 27.8778 14.6279 27.8917 14.6781C27.9055 14.7282 27.9082 14.7807 27.8995 14.832ZM39.5494 14.832C39.5308 14.8984 39.4881 14.9556 39.4295 14.992C39.2833 15.0739 39.1165 15.1121 38.9493 15.102H38.9095C38.3806 15.1032 37.8664 14.9272 37.4493 14.602C37.1612 14.4784 36.92 14.2666 36.7601 13.997C36.6001 13.7274 36.5298 13.4141 36.5594 13.102V7.102C36.493 6.77 36.3212 6.46835 36.0694 6.24202C35.8441 6.05474 35.5622 5.94898 35.2693 5.94197L33.5594 6.102C33.6144 6.43306 33.6144 6.77094 33.5594 7.102V14.102C33.3563 14.5131 33.0316 14.8517 32.6294 15.072H32.6194C31.9611 15.1348 31.3034 14.9453 30.7793 14.5419C30.5586 14.0963 30.4817 13.5932 30.5594 13.102L30.3594 6.17195C30.3597 5.96792 30.2969 5.76886 30.1795 5.602C30.0601 5.4783 29.992 5.31391 29.9893 5.14204C30.0079 5.07558 30.0508 5.01846 30.1094 4.98201C30.2565 4.90324 30.4231 4.86854 30.5894 4.88203H34.9793L35.4793 4.91206C36.5878 5.0509 37.6455 5.45944 38.5594 6.102C38.8928 6.31232 39.1621 6.60991 39.3384 6.96247C39.5147 7.31503 39.5911 7.70911 39.5594 8.102V13.102C39.4994 13.4326 39.4994 13.7714 39.5594 14.102C39.5894 14.152 39.4293 14.4819 39.4693 14.5419C39.5031 14.5814 39.528 14.6279 39.5418 14.6781C39.5556 14.7282 39.5581 14.7807 39.5494 14.832ZM12.7693 1.44197C12.7592 1.16486 12.832 0.891092 12.9786 0.655712C13.1251 0.420331 13.3389 0.23416 13.5921 0.121044C13.8453 0.00792772 14.1263 -0.02703 14.3995 0.0208241C14.6726 0.0686782 14.9252 0.197149 15.1248 0.389599C15.3244 0.582048 15.462 0.829709 15.5198 1.1009C15.5776 1.3721 15.553 1.65443 15.4493 1.91157C15.3455 2.16871 15.1674 2.38892 14.9375 2.54402C14.7077 2.69912 14.4368 2.78207 14.1595 2.78205C13.9802 2.7855 13.8018 2.75344 13.6348 2.68794C13.4679 2.62243 13.3157 2.52468 13.1866 2.40022C13.0575 2.27576 12.9542 2.12715 12.8826 1.96272C12.811 1.79829 12.7725 1.62127 12.7693 1.44197Z" fill="white"/>
</svg>
