<svg width="36" height="23" viewBox="0 0 36 23" fill="none" xmlns="http://www.w3.org/2000/svg">
<path d="M1.90088 9.68921C1.07245 9.68921 0.400879 10.3608 0.400879 11.1892C0.400879 12.0176 1.07245 12.6892 1.90088 12.6892V9.68921ZM34.9615 12.2499C35.5473 11.6641 35.5473 10.7143 34.9615 10.1285L25.4156 0.582607C24.8298 -0.00317955 23.8801 -0.00317955 23.2943 0.582607C22.7085 1.16839 22.7085 2.11814 23.2943 2.70393L31.7796 11.1892L23.2943 19.6745C22.7085 20.2603 22.7085 21.21 23.2943 21.7958C23.8801 22.3816 24.8298 22.3816 25.4156 21.7958L34.9615 12.2499ZM1.90088 12.6892H33.9009V9.68921H1.90088V12.6892Z" fill="white"/>
</svg>
