<svg width="104" height="19" viewBox="0 0 104 19" fill="none" xmlns="http://www.w3.org/2000/svg">
<path d="M0.927658 9.79883C0.927658 8.43164 1.26555 7.36133 1.94133 6.58789C2.62102 5.81055 3.59563 5.42188 4.86516 5.42188C5.60735 5.42188 6.22063 5.54883 6.705 5.80273C7.18938 6.05273 7.53703 6.39648 7.74797 6.83398C7.85735 7.06055 7.83977 7.2168 7.69524 7.30273L7.23235 7.57227C7.0761 7.66211 6.93742 7.58789 6.81633 7.34961C6.68742 7.10352 6.47649 6.87305 6.18352 6.6582C5.89055 6.44336 5.47063 6.33594 4.92375 6.33594C3.94719 6.33594 3.23625 6.64062 2.79094 7.25C2.34953 7.85547 2.12883 8.70508 2.12883 9.79883C2.12883 10.8926 2.34953 11.7441 2.79094 12.3535C3.23625 12.959 3.94719 13.2617 4.92375 13.2617C5.48625 13.2617 5.93547 13.1328 6.27141 12.875C6.61125 12.6172 6.85735 12.3477 7.00969 12.0664C7.13078 11.8398 7.27141 11.7715 7.43156 11.8613L7.91789 12.1367C8.05852 12.2188 8.07024 12.375 7.95305 12.6055C7.72258 13.0547 7.34758 13.4297 6.82805 13.7305C6.30852 14.0273 5.65422 14.1758 4.86516 14.1758C3.59563 14.1758 2.62102 13.7891 1.94133 13.0156C1.26555 12.2383 0.927658 11.166 0.927658 9.79883ZM9.33563 15.8164C9.17938 15.8164 9.10125 15.7285 9.10125 15.5527V13.4902C9.10125 13.3145 9.18914 13.2266 9.36492 13.2266H9.73992C10.1423 12.8516 10.402 12.2637 10.5192 11.4629C10.6403 10.6621 10.7009 9.99414 10.7009 9.45898V8.11133C10.7009 7.93555 10.8239 7.84766 11.07 7.84766H14.3805C14.5563 7.84766 14.6442 7.93555 14.6442 8.11133V13.2266H15.3415C15.5173 13.2266 15.6052 13.3145 15.6052 13.4902V15.5527C15.6052 15.7285 15.527 15.8164 15.3708 15.8164H14.9372C14.7809 15.8164 14.7028 15.7285 14.7028 15.5527V14H10.0036V15.5527C10.0036 15.7285 9.92547 15.8164 9.76922 15.8164H9.33563ZM10.7712 13.2266H13.613V8.62109H11.6032V9.78125C11.6032 10.8047 11.5095 11.6035 11.322 12.1777C11.1384 12.752 10.9548 13.1016 10.7712 13.2266ZM16.6713 10.9238C16.6713 9.95508 16.9135 9.18359 17.3979 8.60938C17.8823 8.03516 18.5756 7.74805 19.478 7.74805C20.228 7.74805 20.8491 8.01172 21.3413 8.53906C21.8373 9.0625 22.0854 9.90039 22.0854 11.0527C22.0854 11.2285 22.0053 11.3164 21.8452 11.3164H17.7612C17.8276 12.0703 18.0307 12.5957 18.3705 12.8926C18.7104 13.1855 19.0952 13.332 19.5248 13.332C19.978 13.332 20.3256 13.2559 20.5678 13.1035C20.81 12.9512 20.9877 12.8008 21.101 12.6523C21.226 12.4883 21.3471 12.457 21.4643 12.5586L21.81 12.8574C21.8998 12.9355 21.8998 13.043 21.81 13.1797C21.7358 13.293 21.5229 13.4746 21.1713 13.7246C20.8237 13.9746 20.2748 14.0996 19.5248 14.0996C18.5483 14.0996 17.8276 13.8125 17.3627 13.2383C16.9018 12.6641 16.6713 11.8926 16.6713 10.9238ZM17.7377 10.5547H21.0483C21.0327 10.0078 20.892 9.5293 20.6264 9.11914C20.3608 8.70508 19.9702 8.49805 19.4545 8.49805C19.0014 8.49805 18.6166 8.65039 18.3002 8.95508C17.9838 9.25586 17.7963 9.78906 17.7377 10.5547ZM22.7414 14.0469C22.6555 14.0117 22.6223 13.9531 22.6418 13.8711L22.7473 13.3848C22.7629 13.3105 22.8137 13.2832 22.8996 13.3027C22.9895 13.3262 23.0676 13.3379 23.134 13.3379C23.4855 13.3379 23.7648 13.0703 23.9719 12.5352C24.1828 11.9961 24.2883 10.9961 24.2883 9.53516V8.11133C24.2883 7.93555 24.4113 7.84766 24.6574 7.84766H27.968C28.1438 7.84766 28.2316 7.93555 28.2316 8.11133V13.7363C28.2316 13.9121 28.1438 14 27.968 14H27.4641C27.2883 14 27.2004 13.9121 27.2004 13.7363V8.62109H25.1906V9.83398C25.1906 11.2793 25.0324 12.3516 24.716 13.0508C24.4035 13.75 23.9191 14.0996 23.2629 14.0996C22.9973 14.0996 22.8234 14.082 22.7414 14.0469ZM29.7724 12.3594C29.7724 11.6641 30.0966 11.1543 30.7451 10.8301C31.3974 10.5059 32.3701 10.3164 33.663 10.2617V9.86328C33.663 9.49609 33.5791 9.17969 33.4111 8.91406C33.247 8.64453 32.9189 8.50977 32.4267 8.50977C32.1142 8.50977 31.8642 8.54102 31.6767 8.60352C31.4892 8.66211 31.3173 8.74219 31.1611 8.84375C31.0088 8.94141 30.8623 9.06836 30.7216 9.22461C30.6162 9.3418 30.5166 9.34766 30.4228 9.24219L30.1181 8.89062C30.0322 8.79297 30.0615 8.67578 30.206 8.53906C30.413 8.34375 30.6142 8.19727 30.8095 8.09961C31.0048 8.00195 31.247 7.91992 31.5361 7.85352C31.8291 7.7832 32.1259 7.74805 32.4267 7.74805C33.2431 7.74805 33.8252 7.95898 34.1728 8.38086C34.5205 8.79883 34.6943 9.37305 34.6943 10.1035V13.7363C34.6943 13.9121 34.6064 14 34.4306 14H33.9033C33.7509 14 33.6748 13.9121 33.6748 13.7363V13.4492H33.663C33.3545 13.6914 33.0517 13.8613 32.7548 13.959C32.4619 14.0527 32.1338 14.0996 31.7705 14.0996C31.1298 14.0996 30.6357 13.9473 30.288 13.6426C29.9443 13.334 29.7724 12.9062 29.7724 12.3594ZM30.8388 12.3828C30.8388 12.625 30.8896 12.8203 30.9912 12.9688C31.0927 13.1133 31.2334 13.207 31.413 13.25C31.5927 13.2891 31.7802 13.3086 31.9755 13.3086C32.2763 13.3086 32.5615 13.2793 32.831 13.2207C33.1005 13.1621 33.3779 13.0078 33.663 12.7578V11.0293C32.874 11.0879 32.3115 11.1602 31.9755 11.2461C31.6396 11.3281 31.3662 11.4727 31.1552 11.6797C30.9443 11.8828 30.8388 12.1172 30.8388 12.3828ZM36.8679 14C36.6921 14 36.6042 13.9121 36.6042 13.7363V8.11133C36.6042 7.93555 36.6921 7.84766 36.8679 7.84766H37.3718C37.5476 7.84766 37.6355 7.93555 37.6355 8.11133V10.4023H40.4714V8.11133C40.4714 7.93555 40.5593 7.84766 40.7351 7.84766H41.239C41.4148 7.84766 41.5027 7.93555 41.5027 8.11133V13.7363C41.5027 13.9121 41.4148 14 41.239 14H40.7351C40.5593 14 40.4714 13.9121 40.4714 13.7363V11.1758H37.6355V13.7363C37.6355 13.9121 37.5476 14 37.3718 14H36.8679ZM43.0727 10.9238C43.0727 10.0059 43.3149 9.24805 43.7993 8.65039C44.2876 8.04883 45.0005 7.74805 45.938 7.74805C46.8755 7.74805 47.5864 8.04883 48.0708 8.65039C48.5591 9.24805 48.8032 10.0059 48.8032 10.9238C48.8032 11.8418 48.5591 12.6016 48.0708 13.2031C47.5864 13.8008 46.8755 14.0996 45.938 14.0996C45.0005 14.0996 44.2876 13.8008 43.7993 13.2031C43.3149 12.6016 43.0727 11.8418 43.0727 10.9238ZM44.1626 10.9238C44.1626 11.7441 44.3247 12.3516 44.6489 12.7461C44.9731 13.1406 45.4028 13.3379 45.938 13.3379C46.4731 13.3379 46.9028 13.1406 47.227 12.7461C47.5513 12.3516 47.7134 11.7441 47.7134 10.9238C47.7134 10.1035 47.5513 9.49609 47.227 9.10156C46.9028 8.70703 46.4731 8.50977 45.938 8.50977C45.4028 8.50977 44.9731 8.70703 44.6489 9.10156C44.3247 9.49609 44.1626 10.1035 44.1626 10.9238ZM54.873 14C54.6973 14 54.6094 13.9121 54.6094 13.7363V8.11133C54.6094 7.93555 54.6973 7.84766 54.873 7.84766H56.7656C57.6641 7.84766 58.2812 7.99414 58.6172 8.28711C58.9531 8.57617 59.1211 8.96094 59.1211 9.44141C59.1211 9.74219 59.0703 9.99805 58.9688 10.209C58.8672 10.416 58.6387 10.6016 58.2832 10.7656V10.7715C58.6934 10.9082 58.9844 11.0684 59.1562 11.252C59.3281 11.4355 59.4141 11.8008 59.4141 12.3477C59.4141 12.8086 59.2441 13.1992 58.9043 13.5195C58.5645 13.8398 57.9492 14 57.0586 14H54.873ZM55.6406 13.2324H56.7891C57.3359 13.2324 57.7285 13.1738 57.9668 13.0566C58.2051 12.9355 58.3242 12.6602 58.3242 12.2305C58.3242 11.8398 58.1875 11.5742 57.9141 11.4336C57.6406 11.293 57.2656 11.2227 56.7891 11.2227H55.6406V13.2324ZM55.6406 10.4551H56.5547C57.0234 10.4551 57.3965 10.3887 57.6738 10.2559C57.9512 10.1191 58.0898 9.87891 58.0898 9.53516C58.0898 9.16406 57.9707 8.91797 57.7324 8.79688C57.4941 8.67188 57.1016 8.60938 56.5547 8.60938H55.6406V10.4551Z" fill="white"/>
<path fill-rule="evenodd" clip-rule="evenodd" d="M73.4095 5.98201C72.5709 5.27469 71.5065 4.89155 70.4095 4.90205H67.5794V2.77204C67.6082 2.46822 67.5763 2.16167 67.4854 1.87031C67.3946 1.57896 67.2465 1.30864 67.0501 1.07502C66.8537 0.841411 66.613 0.649168 66.3416 0.509594C66.0702 0.37002 65.7735 0.285885 65.4693 0.262035C65.3837 0.245083 65.2964 0.23835 65.2093 0.242016L65.1993 0.232006L65.1893 0.242016H65.1695C65.0032 0.228528 64.8363 0.263222 64.6893 0.341991C64.6307 0.378446 64.588 0.435565 64.5694 0.502025C64.5013 0.695692 64.4978 0.906173 64.5594 1.102C64.5594 0.882001 64.6694 1.282 64.5594 1.102V11.102C64.6936 11.8607 65.0053 12.5769 65.4693 13.192C65.6705 13.5 65.9127 13.7793 66.1893 14.022C66.8165 14.5595 67.5826 14.9095 68.3995 15.0321C68.66 15.0806 68.9243 15.104 69.1893 15.102H74.2994C74.3746 15.0989 74.4473 15.0747 74.5093 15.0321C74.5573 15.005 74.5972 14.9658 74.6253 14.9184C74.6534 14.871 74.6687 14.8171 74.6695 14.762V8.58198C74.6589 8.08346 74.5407 7.59307 74.3233 7.14436C74.1058 6.69564 73.7942 6.2992 73.4095 5.98201ZM69.0193 14.0321C68.6537 14.0373 68.2949 13.9327 67.9893 13.732C67.8666 13.6258 67.7671 13.4956 67.6966 13.3494C67.6261 13.2033 67.5862 13.0442 67.5794 12.882V5.972H70.5193C70.8853 5.96395 71.2449 6.06874 71.5494 6.27204C71.6718 6.37632 71.7715 6.50471 71.8421 6.64924C71.9126 6.79378 71.9524 6.95132 71.9593 7.11201V12.952C71.9564 13.2441 72.0253 13.5324 72.1595 13.7919L72.2894 14.0321H69.0193ZM77.1695 12.322L77.1495 5.84199C77.1495 4.86199 76.6194 4.83194 76.8094 4.54194C77.2694 3.86194 79.9393 4.76198 79.9393 6.70198V13.622C79.9393 14.612 80.3593 14.492 80.2693 14.852C80.1193 15.412 77.1695 15.222 77.1695 12.322ZM91.8995 14.832C91.8809 14.8984 91.8379 14.9556 91.7793 14.992C91.6328 15.0729 91.4665 15.111 91.2994 15.102H91.2593C90.7305 15.1032 90.2165 14.9272 89.7994 14.602C89.1494 14.162 88.5594 13.932 88.5594 13.102V7.102C88.6182 6.80784 88.5686 6.50234 88.4195 6.24202C88.1942 6.05474 87.9123 5.94898 87.6194 5.94197H85.0794L85.1893 6.19197C85.3641 6.47172 85.4894 6.77962 85.5594 7.102V14.102C85.5594 14.292 85.5193 15.072 84.9793 15.072H84.9693C84.311 15.1348 83.6535 14.9453 83.1294 14.5419C82.7855 14.1381 82.585 13.6318 82.5594 13.102L82.7093 6.17195C82.7096 5.96792 82.6468 5.76886 82.5293 5.602C82.4683 5.54207 82.4202 5.47048 82.3875 5.39143C82.3549 5.31238 82.3385 5.22756 82.3394 5.14204C82.358 5.07558 82.4007 5.01846 82.4593 4.98201C82.6063 4.90324 82.773 4.86854 82.9393 4.88203H87.3294L87.8294 4.91206C88.7332 5.00728 89.5871 5.37319 90.2793 5.96199C90.661 6.28117 90.97 6.67835 91.1856 7.12678C91.4012 7.57522 91.5184 8.06451 91.5293 8.56196V13.7919C91.5278 13.9993 91.5906 14.202 91.7093 14.372C91.7424 14.4309 91.7792 14.4876 91.8194 14.5419C91.8532 14.5814 91.8778 14.6279 91.8917 14.6781C91.9055 14.7282 91.9082 14.7807 91.8995 14.832ZM103.549 14.832C103.531 14.8984 103.488 14.9556 103.429 14.992C103.283 15.0739 103.117 15.1121 102.949 15.102H102.909C102.381 15.1032 101.866 14.9272 101.449 14.602C101.161 14.4784 100.92 14.2666 100.76 13.997C100.6 13.7274 100.53 13.4141 100.559 13.102V7.102C100.493 6.77 100.321 6.46835 100.069 6.24202C99.8441 6.05474 99.5622 5.94898 99.2693 5.94197L97.5594 6.102C97.6144 6.43306 97.6144 6.77094 97.5594 7.102V14.102C97.3563 14.5131 97.0316 14.8517 96.6294 15.072H96.6194C95.9611 15.1348 95.3034 14.9453 94.7793 14.5419C94.5586 14.0963 94.4817 13.5932 94.5594 13.102L94.3594 6.17195C94.3597 5.96792 94.2969 5.76886 94.1795 5.602C94.0601 5.4783 93.992 5.31391 93.9893 5.14204C94.0079 5.07558 94.0508 5.01846 94.1094 4.98201C94.2565 4.90324 94.4231 4.86854 94.5894 4.88203H98.9793L99.4793 4.91206C100.588 5.0509 101.645 5.45944 102.559 6.102C102.893 6.31232 103.162 6.60991 103.338 6.96247C103.515 7.31503 103.591 7.70911 103.559 8.102V13.102C103.499 13.4326 103.499 13.7714 103.559 14.102C103.589 14.152 103.429 14.4819 103.469 14.5419C103.503 14.5814 103.528 14.6279 103.542 14.6781C103.556 14.7282 103.558 14.7807 103.549 14.832ZM76.7693 1.44197C76.7592 1.16486 76.832 0.891092 76.9786 0.655712C77.1251 0.420331 77.3389 0.23416 77.5921 0.121044C77.8453 0.00792772 78.1263 -0.02703 78.3995 0.0208241C78.6726 0.0686782 78.9252 0.197149 79.1248 0.389599C79.3244 0.582048 79.462 0.829709 79.5198 1.1009C79.5776 1.3721 79.553 1.65443 79.4493 1.91157C79.3455 2.16871 79.1674 2.38892 78.9375 2.54402C78.7077 2.69912 78.4368 2.78207 78.1595 2.78205C77.9802 2.7855 77.8018 2.75344 77.6348 2.68794C77.4679 2.62243 77.3157 2.52468 77.1866 2.40022C77.0575 2.27576 76.9542 2.12715 76.8826 1.96272C76.811 1.79829 76.7725 1.62127 76.7693 1.44197Z" fill="white"/>
</svg>
