<svg width="76" height="80" viewBox="0 0 76 80" fill="none" xmlns="http://www.w3.org/2000/svg">
<path d="M15.8377 36.0331C14.5888 36.0331 13.5752 35.0195 13.5752 33.7706V8.88277C13.5752 7.63385 14.5888 6.62024 15.8377 6.62024C17.0866 6.62024 18.1002 7.63385 18.1002 8.88277V33.7706C18.1002 35.0195 17.0866 36.0331 15.8377 36.0331Z" fill="#CCD6DD"/>
<path d="M2.26254 74.4961C2.26254 69.4371 11.3127 60.9209 18.1002 60.9209V72.2335C15.8377 72.2335 9.05013 74.4961 6.7876 76.7586C4.52507 79.0211 2.26254 76.7586 2.26254 74.4961ZM33.9379 74.4961C33.9379 69.4371 24.8878 60.9209 18.1002 60.9209V72.2335C20.3628 72.2335 27.1504 74.4961 29.4129 76.7586C31.6754 79.0211 33.9379 76.7586 33.9379 74.4961Z" fill="#3B88C3"/>
<path d="M31.6754 31.508C36.2005 31.508 40.7255 33.7705 40.7255 36.0331C40.7255 42.8206 33.5601 62.1472 22.2474 64.4097C10.9348 66.6722 31.6754 31.508 31.6754 31.508ZM4.52506 45.0832C2.26253 47.3457 0 51.8707 0 56.3958C0 60.9209 6.22195 51.7757 9.05011 54.1333C12.9371 57.3732 4.52506 45.0832 4.52506 45.0832Z" fill="#3B88C3"/>
<path d="M10.3692 27.5486C13.763 28.6799 16.2133 27.8315 18.6659 25.8517C21.1184 23.872 21.494 31.6031 18.1002 34.1484C14.7064 36.6938 8.76731 42.6329 8.86233 37.3544C8.9551 32.0737 10.3692 27.5486 10.3692 27.5486Z" fill="black"/>
<path d="M18.1523 24.7227C16.8536 26.148 13.953 29.9989 12.5389 34.7117C10.5592 35.843 10.6543 31.9786 10.9371 30.7523C11.4461 28.5463 12.0819 28.5418 11.7199 27.311C11.2448 26.0643 9.93478 26.4874 9.18814 26.9512C5.31243 29.1776 2.26254 33.318 2.26254 40.5581C2.26254 53.0518 13.5752 69.971 18.1002 69.971C22.6253 69.971 33.9379 53.0518 33.9379 40.5581C33.9379 28.0938 24.9353 24.7385 18.1523 24.7227Z" fill="#55ACEE"/>
<path d="M23.7566 38.2956C25.6309 38.2956 27.1503 36.7761 27.1503 34.9018C27.1503 33.0274 25.6309 31.508 23.7566 31.508C21.8822 31.508 20.3628 33.0274 20.3628 34.9018C20.3628 36.7761 21.8822 38.2956 23.7566 38.2956Z" fill="black"/>
<path d="M17.9962 51.4795C14.5934 51.4795 11.5955 50.2623 8.94608 48.8799C7.83744 48.3007 7.40982 46.9341 7.98903 45.8255C8.56598 44.7214 9.93254 44.2869 11.0412 44.8662C15.3196 47.1015 19.1637 47.9998 24.0168 45.115C25.0915 44.4793 26.4784 44.8345 27.1164 45.9069C27.7545 46.9839 27.3993 48.3708 26.3246 49.0088C23.3063 50.8008 20.537 51.4795 17.9962 51.4795Z" fill="#226699"/>
<path d="M65.2377 79.5868C64.12 79.0279 62.8802 77.4193 63.5883 75.7473C66.6066 68.6294 73.2674 37.5105 67.2174 19.7248C66.0839 16.3944 62.4254 11.4462 57.9863 8.72214C43.6487 -0.0723104 22.2248 4.74461 19.2315 6.24241C18.1115 6.80351 14.6069 7.92573 14.0458 6.80804C13.4869 5.69035 15.3784 4.53872 16.4961 3.97988C20.4691 1.99564 41.9812 -4.79421 60.9932 5.76954C64.387 7.65422 69.1157 11.1453 71.6339 17.7677C79.003 37.1508 74.0028 70.7471 69.8533 78.4533C68.5365 80.9058 65.5635 79.7474 65.2377 79.5868Z" fill="#662113"/>
<path d="M61.0883 65.4459C66.0865 65.4459 70.1384 61.3941 70.1384 56.3958C70.1384 51.3976 66.0865 47.3457 61.0883 47.3457C56.09 47.3457 52.0381 51.3976 52.0381 56.3958C52.0381 61.3941 56.09 65.4459 61.0883 65.4459Z" fill="#99AAB5"/>
<path d="M61.0883 60.9209C63.5874 60.9209 65.6133 58.895 65.6133 56.3958C65.6133 53.8967 63.5874 51.8708 61.0883 51.8708C58.5891 51.8708 56.5632 53.8967 56.5632 56.3958C56.5632 58.895 58.5891 60.9209 61.0883 60.9209Z" fill="#66757F"/>
</svg>
