<svg width="76" height="80" viewBox="0 0 76 80" fill="none" xmlns="http://www.w3.org/2000/svg">
<path d="M37.6705 4.70593C51.7881 4.70593 75.3175 11.7648 75.3175 42.353C75.3175 72.9412 75.3175 80.0001 68.2587 80.0001C61.1999 80.0001 51.7881 72.9412 37.6705 72.9412C23.5528 72.9412 14.341 80.0001 7.08222 80.0001C-0.783662 80.0001 0.0233969 51.7648 0.0233969 42.353C0.0233969 11.7648 23.5528 4.70593 37.6705 4.70593Z" fill="#FFAC33"/>
<path d="M9.43517 41.3224C9.43517 21.2612 22.0775 4.99768 37.6705 4.99768C53.2634 4.99768 65.9058 21.2612 65.9058 41.3224C65.9058 61.3836 53.2634 77.6471 37.6705 77.6471C22.0775 77.6471 9.43517 61.3836 9.43517 41.3224Z" fill="#FFDC5D"/>
<path d="M37.6705 68.2354C32.1481 68.2354 29.2587 65.5059 28.9481 65.193C28.0281 64.273 28.0281 62.7859 28.9481 61.8659C29.8587 60.9554 31.3317 60.9483 32.2517 61.8424C32.3717 61.953 34.1481 63.5295 37.6705 63.5295C41.2446 63.5295 43.0187 61.9059 43.094 61.8377C44.0305 60.9601 45.5105 60.9859 46.407 61.9059C47.2987 62.8307 47.3011 64.2848 46.3928 65.193C46.0823 65.5059 43.1928 68.2354 37.6705 68.2354Z" fill="#DF1F32"/>
<path d="M40.0234 56.4705H35.3175C34.0187 56.4705 32.9646 55.4188 32.9646 54.1176C32.9646 52.8164 34.0187 51.7646 35.3175 51.7646H40.0234C41.3246 51.7646 42.3763 52.8164 42.3763 54.1176C42.3763 55.4188 41.3246 56.4705 40.0234 56.4705Z" fill="#C1694F"/>
<path d="M2.52637 54.1176C2.45578 53.3529 2.37578 52.5953 2.37578 51.7647C2.37578 40 9.4346 53.0871 9.4346 44.7059C9.4346 36.3223 14.1405 35.2941 18.8464 30.5882L25.9052 23.5294C25.9052 23.5294 37.6699 30.5882 47.0817 30.5882C56.4934 30.5882 65.9052 35.2941 65.9052 44.7059C65.9052 54.1176 72.964 40 72.964 51.7647C72.964 52.6 72.8864 53.3482 72.8275 54.1176H75.2958C75.317 50.6423 75.317 46.7482 75.317 42.3529C75.317 11.7647 51.7875 0 37.6699 0C23.5522 0 0.0228378 11.7647 0.0228378 42.3529C0.0228378 45.0776 -0.0430444 49.3788 0.0510733 54.1176H2.52637Z" fill="#FFAC33"/>
<path d="M25.9058 49.4118C24.6069 49.4118 23.5528 48.36 23.5528 47.0588V42.3529C23.5528 41.0541 24.6069 40 25.9058 40C27.2046 40 28.2587 41.0541 28.2587 42.3529V47.0588C28.2587 48.36 27.2046 49.4118 25.9058 49.4118ZM49.4352 49.4118C48.134 49.4118 47.0822 48.36 47.0822 47.0588V42.3529C47.0822 41.0541 48.134 40 49.4352 40C50.7363 40 51.7881 41.0541 51.7881 42.3529V47.0588C51.7881 48.36 50.7363 49.4118 49.4352 49.4118Z" fill="#662113"/>
</svg>
