<svg width="80" height="80" viewBox="0 0 80 80" fill="none" xmlns="http://www.w3.org/2000/svg">
<path d="M40 80C62.0914 80 80 62.0914 80 40C80 17.9086 62.0914 0 40 0C17.9086 0 0 17.9086 0 40C0 62.0914 17.9086 80 40 80Z" fill="#CCD6DD"/>
<path d="M39.9999 71.111C57.1821 71.111 71.111 57.1821 71.111 39.9999C71.111 22.8177 57.1821 8.88879 39.9999 8.88879C22.8177 8.88879 8.88879 22.8177 8.88879 39.9999C8.88879 57.1821 22.8177 71.111 39.9999 71.111Z" fill="#3B88C3"/>
<path d="M39.9998 62.2223C52.2728 62.2223 62.2221 52.273 62.2221 40.0001C62.2221 27.7271 52.2728 17.7778 39.9998 17.7778C27.7268 17.7778 17.7776 27.7271 17.7776 40.0001C17.7776 52.273 27.7268 62.2223 39.9998 62.2223Z" fill="#DD2E44"/>
<path d="M40.0001 53.3333C47.3639 53.3333 53.3334 47.3638 53.3334 40C53.3334 32.6362 47.3639 26.6666 40.0001 26.6666C32.6363 26.6666 26.6668 32.6362 26.6668 40C26.6668 47.3638 32.6363 53.3333 40.0001 53.3333Z" fill="#FFAC33"/>
<path d="M77.4759 64.8866C76.5426 65.5666 74.6826 66.2021 73.1782 66.2021C68.8115 66.2021 62.8359 64.6088 59.1026 60.8999L52.5382 52.2955C51.9293 51.6844 51.7448 51.0177 52.0715 50.2243C52.4004 49.4266 50.4493 48.8888 51.3115 48.8888H62.5515C66.7004 48.8888 72.1248 51.6799 75.7182 55.5955L76.5426 56.3755C78.2582 58.2488 79.1715 59.9955 79.1693 61.6777C79.1693 63.0577 78.5648 64.0932 77.4759 64.8866Z" fill="black"/>
<path d="M62.8999 78.2312C61.1866 78.2312 59.2733 77.3045 57.3666 75.5556L56.2822 74.7156C52.2933 71.0601 48.8888 65.5356 48.8888 61.3112V49.8356C48.8888 48.9556 49.9999 50.9778 50.811 50.6423C51.6177 50.3089 52.8444 50.4956 53.4666 51.1178L60.5022 58.0601C64.2777 61.8623 67.3044 68.3245 67.3044 72.7712C67.3044 74.3023 66.9866 75.5601 66.2999 76.5089C65.491 77.6178 64.3066 78.2312 62.8999 78.2312Z" fill="black"/>
<path d="M69.6554 71.0311C69.0865 71.0311 68.5732 70.76 68.1376 70.3267L37.0265 39.2156C36.1576 38.3467 36.1576 36.9422 37.0265 36.0711C37.8954 35.2022 39.2998 35.2045 40.1687 36.0711L71.2798 67.1822C72.1487 68.0511 72.1198 69.4845 71.251 70.3533C70.8198 70.7867 70.2265 71.0311 69.6554 71.0311Z" fill="#C1694F"/>
</svg>
