<svg width="88" height="52" viewBox="0 0 88 52" fill="none" xmlns="http://www.w3.org/2000/svg">
<path d="M31.7778 44H80.6667C80.6667 44 88 44 88 34.2222C88 29.3333 88 19.5556 85.5556 17.1111C83.1111 14.6667 66 0 58.6667 0H44C36.6667 0 19.5556 17.1111 19.5556 17.1111L9.77778 19.5556C9.77778 19.5556 2.44444 22 2.44444 26.8889V34.2222C2.44444 34.2222 0 35.0484 0 39.006C0 44 4.88889 44 4.88889 44H31.7778Z" fill="#4B53A2"/>
<path d="M48.8889 4.88892H44C39.1111 4.88892 24.4445 19.5556 24.4445 19.5556C24.4445 19.5556 36.6593 18.9127 48.8889 18.2869V4.88892ZM73.3333 12.2222C70.8889 9.7778 61.1111 4.88892 56.2222 4.88892H53.7778V18.0376C63.5825 17.5389 72.3116 17.1111 73.3333 17.1111C75.7778 17.1111 75.7778 14.6667 73.3333 12.2222Z" fill="#BBDDF5"/>
<path d="M24.4445 51.3334C29.8446 51.3334 34.2222 46.9557 34.2222 41.5556C34.2222 36.1555 29.8446 31.7778 24.4445 31.7778C19.0443 31.7778 14.6667 36.1555 14.6667 41.5556C14.6667 46.9557 19.0443 51.3334 24.4445 51.3334Z" fill="#292F33"/>
<path d="M24.4444 46.4445C27.1445 46.4445 29.3333 44.2557 29.3333 41.5556C29.3333 38.8556 27.1445 36.6667 24.4444 36.6667C21.7444 36.6667 19.5555 38.8556 19.5555 41.5556C19.5555 44.2557 21.7444 46.4445 24.4444 46.4445Z" fill="#CCD6DD"/>
<path d="M66 51.3334C71.4001 51.3334 75.7778 46.9557 75.7778 41.5556C75.7778 36.1555 71.4001 31.7778 66 31.7778C60.5999 31.7778 56.2222 36.1555 56.2222 41.5556C56.2222 46.9557 60.5999 51.3334 66 51.3334Z" fill="#292F33"/>
<path d="M66 46.4445C68.7 46.4445 70.8889 44.2557 70.8889 41.5556C70.8889 38.8556 68.7 36.6667 66 36.6667C63.2999 36.6667 61.1111 38.8556 61.1111 41.5556C61.1111 44.2557 63.2999 46.4445 66 46.4445Z" fill="#CCD6DD"/>
</svg>
