<svg width="80" height="80" viewBox="0 0 80 80" fill="none" xmlns="http://www.w3.org/2000/svg">
<path d="M40 80C62.0914 80 80 62.0914 80 40C80 17.9086 62.0914 0 40 0C17.9086 0 0 17.9086 0 40C0 62.0914 17.9086 80 40 80Z" fill="#F5F8FA"/>
<path d="M40 24.4444C38.7733 24.4444 37.7778 23.4488 37.7778 22.2221V6.66658C37.7778 5.43991 38.7733 4.44436 40 4.44436C41.2267 4.44436 42.2222 5.43991 42.2222 6.66658V22.2221C42.2222 23.4488 41.2267 24.4444 40 24.4444ZM25.3711 34.4444C25.1489 34.4444 24.9222 34.411 24.7 34.3399L6.8311 28.691C5.65999 28.3199 5.0111 27.0732 5.38222 25.9021C5.7511 24.731 7.00444 24.0844 8.1711 24.4532L26.0422 30.1021C27.2133 30.4732 27.8622 31.7221 27.4911 32.891C27.1889 33.8377 26.3133 34.4444 25.3711 34.4444ZM55.6489 33.7977C54.6844 33.7977 53.7978 33.1644 53.5155 32.1932C53.1733 31.0132 53.8511 29.7821 55.0311 29.4399L70.0311 25.0888C71.2111 24.7488 72.4422 25.4288 72.7822 26.6044C73.1244 27.7844 72.4467 29.0155 71.2667 29.3577L56.2667 33.7088C56.0622 33.7688 55.8533 33.7977 55.6489 33.7977ZM60.0955 67.0377C59.4155 67.0377 58.7489 66.7266 58.3111 66.1421L46.18 49.8466C45.4467 48.8644 45.6511 47.471 46.6355 46.7377C47.6178 46.0021 49.0111 46.2088 49.7444 47.1932L61.8755 63.4888C62.6089 64.471 62.4044 65.8644 61.42 66.5977C61.0222 66.8955 60.5555 67.0377 60.0955 67.0377ZM19.4422 66.8532C19.0044 66.8532 18.5644 66.7244 18.1755 66.4555C17.1667 65.7533 16.92 64.371 17.62 63.3621L29.0089 46.9733C29.7089 45.9644 31.0933 45.7155 32.1022 46.4155C33.1111 47.1155 33.3578 48.5021 32.6578 49.5088L21.2689 65.8977C20.8378 66.5221 20.1444 66.8532 19.4422 66.8532ZM7.77777 60.1377C6.79999 60.1377 5.90222 59.4866 5.63333 58.4977L0.771104 40.5821C0.448882 39.3977 1.14888 38.1777 2.33555 37.8555C3.52444 37.5421 4.74222 38.2355 5.06221 39.4199L9.92444 57.3355C10.2467 58.5199 9.54666 59.7399 8.35999 60.0599C8.16444 60.1155 7.96888 60.1377 7.77777 60.1377ZM48.8889 75.5555H28.8889C27.6622 75.5555 26.6667 74.5621 26.6667 73.3333C26.6667 72.1044 27.6622 71.111 28.8889 71.111H48.8889C50.1178 71.111 51.1111 72.1044 51.1111 73.3333C51.1111 74.5621 50.1178 75.5555 48.8889 75.5555ZM71.3911 60.2777C71.2155 60.2777 71.0355 60.2577 70.8578 60.2133C69.6667 59.9199 68.9378 58.7155 69.2333 57.5244L73.9555 38.3577C74.2511 37.1666 75.4644 36.4421 76.6444 36.731C77.8355 37.0244 78.5644 38.2288 78.2689 39.4221L73.5467 58.5888C73.2955 59.5999 72.3889 60.2777 71.3911 60.2777ZM67.36 17.0844C66.9822 17.0844 66.6 16.9888 66.2489 16.7866L49.4444 7.06436C48.3822 6.4488 48.0178 5.09102 48.6355 4.02658C49.2467 2.96436 50.6044 2.59769 51.6711 3.21547L68.4755 12.9377C69.5378 13.5532 69.9022 14.911 69.2844 15.9755C68.8733 16.6866 68.1267 17.0844 67.36 17.0844ZM12.2244 17.0844C11.5311 17.0844 10.8511 16.7621 10.4178 16.1577C9.70222 15.1577 9.92888 13.771 10.9267 13.0555L24.6778 3.19325C25.6755 2.47769 27.0644 2.70658 27.78 3.70214C28.4955 4.69991 28.2667 6.0888 27.2711 6.80436L13.5178 16.6666C13.1244 16.9466 12.6733 17.0844 12.2244 17.0844Z" fill="#CCD6DD"/>
<path d="M56.6511 30.0356L40.6333 18.74C39.86 18.1956 38.8244 18.2 38.0533 18.7533L22.1267 30.2356C21.3644 30.7867 21.0289 31.7556 21.2933 32.66L26.8489 51.7333C27.1244 52.68 27.9933 53.3333 28.9822 53.3333H48.8889C49.8444 53.3333 50.6889 52.7244 50.9956 51.82L57.4778 32.56C57.7911 31.6289 57.4533 30.6022 56.6511 30.0356ZM2.87111 43.4267C3 43.4267 3.13111 43.4156 3.26 43.3911C3.91333 43.2756 4.48222 42.8733 4.80889 42.2933L12.3089 28.96C12.4222 28.7578 12.5022 28.5422 12.5489 28.3133L15.5111 13.7778C15.6444 13.1244 15.4756 12.4444 15.0533 11.9289C14.6311 11.4111 14 11.1111 13.3333 11.1111H12.3822C4.76667 18.3933 0 28.6311 0 40C0 40.5911 0.0622222 41.1667 0.0888889 41.7511L1.42667 42.8933C1.83111 43.24 2.34444 43.4267 2.87111 43.4267ZM23.5933 6.65555C23.8289 7.14222 24.2889 7.48444 24.8222 7.57111L38.9889 9.88667C39.0778 9.9 39.1689 9.90889 39.2578 9.90889C39.3467 9.90889 39.4378 9.90222 39.5289 9.88667L53.0489 7.66444C53.4933 7.59111 53.8933 7.34 54.1489 6.96667C54.4067 6.59333 54.5 6.13333 54.4111 5.68889L53.7622 2.48222C49.4667 0.904444 44.8444 0 40 0C34.6111 0 29.48 1.08 24.7889 3.01333L23.6311 5.12444C23.3711 5.59778 23.3578 6.16889 23.5933 6.65555ZM69.1867 12.7089L65.8444 12.4978C65.3378 12.4689 64.8333 12.6667 64.4911 13.0511C64.1533 13.4356 64.0067 13.9444 64.1022 14.4511L66.6956 28.2244C66.7333 28.4156 66.8022 28.5533 66.9022 28.7222C70.2178 34.2867 73.9067 40.5022 74.4156 41.5711C74.4689 41.7578 74.5533 41.7467 74.6689 41.9067C74.98 42.34 75.4956 42.2222 76.0289 42.2222H76.0444C76.4845 42.2222 76.7622 42.4311 79.9733 40.5489C79.9756 40.3644 80 40.1844 80 40C80 29.4378 75.8756 19.8578 69.1867 12.7089ZM32.3133 74.1689C32.3378 73.7267 32.1844 73.2911 31.8889 72.96L21.8889 61.8489C21.7556 61.7022 21.5978 61.5778 21.42 61.4867C8.34222 54.6667 8.1 54.5867 7.94 54.5311C7.76667 54.4756 7.58222 54.4444 7.40222 54.4444C6.20889 54.4444 5.85778 54.5889 4.76889 58.9422C9.73778 68.1622 18.22 75.2 28.4222 78.2822L31.7556 75.32C32.0867 75.0267 32.2867 74.6111 32.3133 74.1689ZM71.9422 55.1311C71.5222 54.9533 71.0422 54.9578 70.6267 55.1422L57.1089 61.0689C56.8733 61.1711 56.6644 61.3267 56.5 61.5244L47.0556 72.82C46.7689 73.1622 46.6333 73.6022 46.6733 74.0467C46.7178 74.4911 46.9333 74.9 47.2778 75.18C48.7956 76.4222 50.08 77.4689 51.2044 78.38C61.0644 75.5044 69.3244 68.94 74.4356 60.2778L72.8533 56.08C72.6933 55.6511 72.3622 55.3089 71.9422 55.1311Z" fill="#31373D"/>
</svg>
