<svg xmlns="http://www.w3.org/2000/svg" xmlns:xlink="http://www.w3.org/1999/xlink"><symbol id="icon-ball" viewBox="0 0 80 80">
<path d="M40 80C62.0914 80 80 62.0914 80 40C80 17.9086 62.0914 0 40 0C17.9086 0 0 17.9086 0 40C0 62.0914 17.9086 80 40 80Z" fill="#F5F8FA"/>
<path d="M40 24.4444C38.7733 24.4444 37.7778 23.4488 37.7778 22.2221V6.66658C37.7778 5.43991 38.7733 4.44436 40 4.44436C41.2267 4.44436 42.2222 5.43991 42.2222 6.66658V22.2221C42.2222 23.4488 41.2267 24.4444 40 24.4444ZM25.3711 34.4444C25.1489 34.4444 24.9222 34.411 24.7 34.3399L6.8311 28.691C5.65999 28.3199 5.0111 27.0732 5.38222 25.9021C5.7511 24.731 7.00444 24.0844 8.1711 24.4532L26.0422 30.1021C27.2133 30.4732 27.8622 31.7221 27.4911 32.891C27.1889 33.8377 26.3133 34.4444 25.3711 34.4444ZM55.6489 33.7977C54.6844 33.7977 53.7978 33.1644 53.5155 32.1932C53.1733 31.0132 53.8511 29.7821 55.0311 29.4399L70.0311 25.0888C71.2111 24.7488 72.4422 25.4288 72.7822 26.6044C73.1244 27.7844 72.4467 29.0155 71.2667 29.3577L56.2667 33.7088C56.0622 33.7688 55.8533 33.7977 55.6489 33.7977ZM60.0955 67.0377C59.4155 67.0377 58.7489 66.7266 58.3111 66.1421L46.18 49.8466C45.4467 48.8644 45.6511 47.471 46.6355 46.7377C47.6178 46.0021 49.0111 46.2088 49.7444 47.1932L61.8755 63.4888C62.6089 64.471 62.4044 65.8644 61.42 66.5977C61.0222 66.8955 60.5555 67.0377 60.0955 67.0377ZM19.4422 66.8532C19.0044 66.8532 18.5644 66.7244 18.1755 66.4555C17.1667 65.7533 16.92 64.371 17.62 63.3621L29.0089 46.9733C29.7089 45.9644 31.0933 45.7155 32.1022 46.4155C33.1111 47.1155 33.3578 48.5021 32.6578 49.5088L21.2689 65.8977C20.8378 66.5221 20.1444 66.8532 19.4422 66.8532ZM7.77777 60.1377C6.79999 60.1377 5.90222 59.4866 5.63333 58.4977L0.771104 40.5821C0.448882 39.3977 1.14888 38.1777 2.33555 37.8555C3.52444 37.5421 4.74222 38.2355 5.06221 39.4199L9.92444 57.3355C10.2467 58.5199 9.54666 59.7399 8.35999 60.0599C8.16444 60.1155 7.96888 60.1377 7.77777 60.1377ZM48.8889 75.5555H28.8889C27.6622 75.5555 26.6667 74.5621 26.6667 73.3333C26.6667 72.1044 27.6622 71.111 28.8889 71.111H48.8889C50.1178 71.111 51.1111 72.1044 51.1111 73.3333C51.1111 74.5621 50.1178 75.5555 48.8889 75.5555ZM71.3911 60.2777C71.2155 60.2777 71.0355 60.2577 70.8578 60.2133C69.6667 59.9199 68.9378 58.7155 69.2333 57.5244L73.9555 38.3577C74.2511 37.1666 75.4644 36.4421 76.6444 36.731C77.8355 37.0244 78.5644 38.2288 78.2689 39.4221L73.5467 58.5888C73.2955 59.5999 72.3889 60.2777 71.3911 60.2777ZM67.36 17.0844C66.9822 17.0844 66.6 16.9888 66.2489 16.7866L49.4444 7.06436C48.3822 6.4488 48.0178 5.09102 48.6355 4.02658C49.2467 2.96436 50.6044 2.59769 51.6711 3.21547L68.4755 12.9377C69.5378 13.5532 69.9022 14.911 69.2844 15.9755C68.8733 16.6866 68.1267 17.0844 67.36 17.0844ZM12.2244 17.0844C11.5311 17.0844 10.8511 16.7621 10.4178 16.1577C9.70222 15.1577 9.92888 13.771 10.9267 13.0555L24.6778 3.19325C25.6755 2.47769 27.0644 2.70658 27.78 3.70214C28.4955 4.69991 28.2667 6.0888 27.2711 6.80436L13.5178 16.6666C13.1244 16.9466 12.6733 17.0844 12.2244 17.0844Z" fill="#CCD6DD"/>
<path d="M56.6511 30.0356L40.6333 18.74C39.86 18.1956 38.8244 18.2 38.0533 18.7533L22.1267 30.2356C21.3644 30.7867 21.0289 31.7556 21.2933 32.66L26.8489 51.7333C27.1244 52.68 27.9933 53.3333 28.9822 53.3333H48.8889C49.8444 53.3333 50.6889 52.7244 50.9956 51.82L57.4778 32.56C57.7911 31.6289 57.4533 30.6022 56.6511 30.0356ZM2.87111 43.4267C3 43.4267 3.13111 43.4156 3.26 43.3911C3.91333 43.2756 4.48222 42.8733 4.80889 42.2933L12.3089 28.96C12.4222 28.7578 12.5022 28.5422 12.5489 28.3133L15.5111 13.7778C15.6444 13.1244 15.4756 12.4444 15.0533 11.9289C14.6311 11.4111 14 11.1111 13.3333 11.1111H12.3822C4.76667 18.3933 0 28.6311 0 40C0 40.5911 0.0622222 41.1667 0.0888889 41.7511L1.42667 42.8933C1.83111 43.24 2.34444 43.4267 2.87111 43.4267ZM23.5933 6.65555C23.8289 7.14222 24.2889 7.48444 24.8222 7.57111L38.9889 9.88667C39.0778 9.9 39.1689 9.90889 39.2578 9.90889C39.3467 9.90889 39.4378 9.90222 39.5289 9.88667L53.0489 7.66444C53.4933 7.59111 53.8933 7.34 54.1489 6.96667C54.4067 6.59333 54.5 6.13333 54.4111 5.68889L53.7622 2.48222C49.4667 0.904444 44.8444 0 40 0C34.6111 0 29.48 1.08 24.7889 3.01333L23.6311 5.12444C23.3711 5.59778 23.3578 6.16889 23.5933 6.65555ZM69.1867 12.7089L65.8444 12.4978C65.3378 12.4689 64.8333 12.6667 64.4911 13.0511C64.1533 13.4356 64.0067 13.9444 64.1022 14.4511L66.6956 28.2244C66.7333 28.4156 66.8022 28.5533 66.9022 28.7222C70.2178 34.2867 73.9067 40.5022 74.4156 41.5711C74.4689 41.7578 74.5533 41.7467 74.6689 41.9067C74.98 42.34 75.4956 42.2222 76.0289 42.2222H76.0444C76.4845 42.2222 76.7622 42.4311 79.9733 40.5489C79.9756 40.3644 80 40.1844 80 40C80 29.4378 75.8756 19.8578 69.1867 12.7089ZM32.3133 74.1689C32.3378 73.7267 32.1844 73.2911 31.8889 72.96L21.8889 61.8489C21.7556 61.7022 21.5978 61.5778 21.42 61.4867C8.34222 54.6667 8.1 54.5867 7.94 54.5311C7.76667 54.4756 7.58222 54.4444 7.40222 54.4444C6.20889 54.4444 5.85778 54.5889 4.76889 58.9422C9.73778 68.1622 18.22 75.2 28.4222 78.2822L31.7556 75.32C32.0867 75.0267 32.2867 74.6111 32.3133 74.1689ZM71.9422 55.1311C71.5222 54.9533 71.0422 54.9578 70.6267 55.1422L57.1089 61.0689C56.8733 61.1711 56.6644 61.3267 56.5 61.5244L47.0556 72.82C46.7689 73.1622 46.6333 73.6022 46.6733 74.0467C46.7178 74.4911 46.9333 74.9 47.2778 75.18C48.7956 76.4222 50.08 77.4689 51.2044 78.38C61.0644 75.5044 69.3244 68.94 74.4356 60.2778L72.8533 56.08C72.6933 55.6511 72.3622 55.3089 71.9422 55.1311Z" fill="#31373D"/>
</symbol><symbol id="icon-car" viewBox="0 0 88 52">
<path d="M31.7778 44H80.6667C80.6667 44 88 44 88 34.2222C88 29.3333 88 19.5556 85.5556 17.1111C83.1111 14.6667 66 0 58.6667 0H44C36.6667 0 19.5556 17.1111 19.5556 17.1111L9.77778 19.5556C9.77778 19.5556 2.44444 22 2.44444 26.8889V34.2222C2.44444 34.2222 0 35.0484 0 39.006C0 44 4.88889 44 4.88889 44H31.7778Z" fill="#4B53A2"/>
<path d="M48.8889 4.88892H44C39.1111 4.88892 24.4445 19.5556 24.4445 19.5556C24.4445 19.5556 36.6593 18.9127 48.8889 18.2869V4.88892ZM73.3333 12.2222C70.8889 9.7778 61.1111 4.88892 56.2222 4.88892H53.7778V18.0376C63.5825 17.5389 72.3116 17.1111 73.3333 17.1111C75.7778 17.1111 75.7778 14.6667 73.3333 12.2222Z" fill="#BBDDF5"/>
<path d="M24.4445 51.3334C29.8446 51.3334 34.2222 46.9557 34.2222 41.5556C34.2222 36.1555 29.8446 31.7778 24.4445 31.7778C19.0443 31.7778 14.6667 36.1555 14.6667 41.5556C14.6667 46.9557 19.0443 51.3334 24.4445 51.3334Z" fill="#292F33"/>
<path d="M24.4444 46.4445C27.1445 46.4445 29.3333 44.2557 29.3333 41.5556C29.3333 38.8556 27.1445 36.6667 24.4444 36.6667C21.7444 36.6667 19.5555 38.8556 19.5555 41.5556C19.5555 44.2557 21.7444 46.4445 24.4444 46.4445Z" fill="#CCD6DD"/>
<path d="M66 51.3334C71.4001 51.3334 75.7778 46.9557 75.7778 41.5556C75.7778 36.1555 71.4001 31.7778 66 31.7778C60.5999 31.7778 56.2222 36.1555 56.2222 41.5556C56.2222 46.9557 60.5999 51.3334 66 51.3334Z" fill="#292F33"/>
<path d="M66 46.4445C68.7 46.4445 70.8889 44.2557 70.8889 41.5556C70.8889 38.8556 68.7 36.6667 66 36.6667C63.2999 36.6667 61.1111 38.8556 61.1111 41.5556C61.1111 44.2557 63.2999 46.4445 66 46.4445Z" fill="#CCD6DD"/>
</symbol><symbol id="icon-fish" viewBox="0 0 76 80">
<path d="M15.8377 36.0331C14.5888 36.0331 13.5752 35.0195 13.5752 33.7706V8.88277C13.5752 7.63385 14.5888 6.62024 15.8377 6.62024C17.0866 6.62024 18.1002 7.63385 18.1002 8.88277V33.7706C18.1002 35.0195 17.0866 36.0331 15.8377 36.0331Z" fill="#CCD6DD"/>
<path d="M2.26254 74.4961C2.26254 69.4371 11.3127 60.9209 18.1002 60.9209V72.2335C15.8377 72.2335 9.05013 74.4961 6.7876 76.7586C4.52507 79.0211 2.26254 76.7586 2.26254 74.4961ZM33.9379 74.4961C33.9379 69.4371 24.8878 60.9209 18.1002 60.9209V72.2335C20.3628 72.2335 27.1504 74.4961 29.4129 76.7586C31.6754 79.0211 33.9379 76.7586 33.9379 74.4961Z" fill="#3B88C3"/>
<path d="M31.6754 31.508C36.2005 31.508 40.7255 33.7705 40.7255 36.0331C40.7255 42.8206 33.5601 62.1472 22.2474 64.4097C10.9348 66.6722 31.6754 31.508 31.6754 31.508ZM4.52506 45.0832C2.26253 47.3457 0 51.8707 0 56.3958C0 60.9209 6.22195 51.7757 9.05011 54.1333C12.9371 57.3732 4.52506 45.0832 4.52506 45.0832Z" fill="#3B88C3"/>
<path d="M10.3692 27.5486C13.763 28.6799 16.2133 27.8315 18.6659 25.8517C21.1184 23.872 21.494 31.6031 18.1002 34.1484C14.7064 36.6938 8.76731 42.6329 8.86233 37.3544C8.9551 32.0737 10.3692 27.5486 10.3692 27.5486Z" fill="black"/>
<path d="M18.1523 24.7227C16.8536 26.148 13.953 29.9989 12.5389 34.7117C10.5592 35.843 10.6543 31.9786 10.9371 30.7523C11.4461 28.5463 12.0819 28.5418 11.7199 27.311C11.2448 26.0643 9.93478 26.4874 9.18814 26.9512C5.31243 29.1776 2.26254 33.318 2.26254 40.5581C2.26254 53.0518 13.5752 69.971 18.1002 69.971C22.6253 69.971 33.9379 53.0518 33.9379 40.5581C33.9379 28.0938 24.9353 24.7385 18.1523 24.7227Z" fill="#55ACEE"/>
<path d="M23.7566 38.2956C25.6309 38.2956 27.1503 36.7761 27.1503 34.9018C27.1503 33.0274 25.6309 31.508 23.7566 31.508C21.8822 31.508 20.3628 33.0274 20.3628 34.9018C20.3628 36.7761 21.8822 38.2956 23.7566 38.2956Z" fill="black"/>
<path d="M17.9962 51.4795C14.5934 51.4795 11.5955 50.2623 8.94608 48.8799C7.83744 48.3007 7.40982 46.9341 7.98903 45.8255C8.56598 44.7214 9.93254 44.2869 11.0412 44.8662C15.3196 47.1015 19.1637 47.9998 24.0168 45.115C25.0915 44.4793 26.4784 44.8345 27.1164 45.9069C27.7545 46.9839 27.3993 48.3708 26.3246 49.0088C23.3063 50.8008 20.537 51.4795 17.9962 51.4795Z" fill="#226699"/>
<path d="M65.2377 79.5868C64.12 79.0279 62.8802 77.4193 63.5883 75.7473C66.6066 68.6294 73.2674 37.5105 67.2174 19.7248C66.0839 16.3944 62.4254 11.4462 57.9863 8.72214C43.6487 -0.0723104 22.2248 4.74461 19.2315 6.24241C18.1115 6.80351 14.6069 7.92573 14.0458 6.80804C13.4869 5.69035 15.3784 4.53872 16.4961 3.97988C20.4691 1.99564 41.9812 -4.79421 60.9932 5.76954C64.387 7.65422 69.1157 11.1453 71.6339 17.7677C79.003 37.1508 74.0028 70.7471 69.8533 78.4533C68.5365 80.9058 65.5635 79.7474 65.2377 79.5868Z" fill="#662113"/>
<path d="M61.0883 65.4459C66.0865 65.4459 70.1384 61.3941 70.1384 56.3958C70.1384 51.3976 66.0865 47.3457 61.0883 47.3457C56.09 47.3457 52.0381 51.3976 52.0381 56.3958C52.0381 61.3941 56.09 65.4459 61.0883 65.4459Z" fill="#99AAB5"/>
<path d="M61.0883 60.9209C63.5874 60.9209 65.6133 58.895 65.6133 56.3958C65.6133 53.8967 63.5874 51.8708 61.0883 51.8708C58.5891 51.8708 56.5632 53.8967 56.5632 56.3958C56.5632 58.895 58.5891 60.9209 61.0883 60.9209Z" fill="#66757F"/>
</symbol><symbol id="icon-flag" viewBox="0 0 80 58">
<path d="M80 48.8889C80 53.7978 76.02 57.7778 71.1111 57.7778H8.88889C3.98 57.7778 0 53.7978 0 48.8889V40H80V48.8889Z" fill="#CE2028"/>
<path d="M0 17.7778H80V40H0V17.7778Z" fill="#22408C"/>
<path d="M71.1111 0H8.88889C3.98 0 0 3.98 0 8.88889V17.7778H80V8.88889C80 3.98 76.02 0 71.1111 0Z" fill="#EEEEEE"/>
</symbol><symbol id="icon-girl" viewBox="0 0 76 80">
<path d="M37.6705 4.70593C51.7881 4.70593 75.3175 11.7648 75.3175 42.353C75.3175 72.9412 75.3175 80.0001 68.2587 80.0001C61.1999 80.0001 51.7881 72.9412 37.6705 72.9412C23.5528 72.9412 14.341 80.0001 7.08222 80.0001C-0.783662 80.0001 0.0233969 51.7648 0.0233969 42.353C0.0233969 11.7648 23.5528 4.70593 37.6705 4.70593Z" fill="#FFAC33"/>
<path d="M9.43517 41.3224C9.43517 21.2612 22.0775 4.99768 37.6705 4.99768C53.2634 4.99768 65.9058 21.2612 65.9058 41.3224C65.9058 61.3836 53.2634 77.6471 37.6705 77.6471C22.0775 77.6471 9.43517 61.3836 9.43517 41.3224Z" fill="#FFDC5D"/>
<path d="M37.6705 68.2354C32.1481 68.2354 29.2587 65.5059 28.9481 65.193C28.0281 64.273 28.0281 62.7859 28.9481 61.8659C29.8587 60.9554 31.3317 60.9483 32.2517 61.8424C32.3717 61.953 34.1481 63.5295 37.6705 63.5295C41.2446 63.5295 43.0187 61.9059 43.094 61.8377C44.0305 60.9601 45.5105 60.9859 46.407 61.9059C47.2987 62.8307 47.3011 64.2848 46.3928 65.193C46.0823 65.5059 43.1928 68.2354 37.6705 68.2354Z" fill="#DF1F32"/>
<path d="M40.0234 56.4705H35.3175C34.0187 56.4705 32.9646 55.4188 32.9646 54.1176C32.9646 52.8164 34.0187 51.7646 35.3175 51.7646H40.0234C41.3246 51.7646 42.3763 52.8164 42.3763 54.1176C42.3763 55.4188 41.3246 56.4705 40.0234 56.4705Z" fill="#C1694F"/>
<path d="M2.52637 54.1176C2.45578 53.3529 2.37578 52.5953 2.37578 51.7647C2.37578 40 9.4346 53.0871 9.4346 44.7059C9.4346 36.3223 14.1405 35.2941 18.8464 30.5882L25.9052 23.5294C25.9052 23.5294 37.6699 30.5882 47.0817 30.5882C56.4934 30.5882 65.9052 35.2941 65.9052 44.7059C65.9052 54.1176 72.964 40 72.964 51.7647C72.964 52.6 72.8864 53.3482 72.8275 54.1176H75.2958C75.317 50.6423 75.317 46.7482 75.317 42.3529C75.317 11.7647 51.7875 0 37.6699 0C23.5522 0 0.0228378 11.7647 0.0228378 42.3529C0.0228378 45.0776 -0.0430444 49.3788 0.0510733 54.1176H2.52637Z" fill="#FFAC33"/>
<path d="M25.9058 49.4118C24.6069 49.4118 23.5528 48.36 23.5528 47.0588V42.3529C23.5528 41.0541 24.6069 40 25.9058 40C27.2046 40 28.2587 41.0541 28.2587 42.3529V47.0588C28.2587 48.36 27.2046 49.4118 25.9058 49.4118ZM49.4352 49.4118C48.134 49.4118 47.0822 48.36 47.0822 47.0588V42.3529C47.0822 41.0541 48.134 40 49.4352 40C50.7363 40 51.7881 41.0541 51.7881 42.3529V47.0588C51.7881 48.36 50.7363 49.4118 49.4352 49.4118Z" fill="#662113"/>
</symbol><symbol id="icon-target" viewBox="0 0 80 80">
<path d="M40 80C62.0914 80 80 62.0914 80 40C80 17.9086 62.0914 0 40 0C17.9086 0 0 17.9086 0 40C0 62.0914 17.9086 80 40 80Z" fill="#CCD6DD"/>
<path d="M39.9999 71.111C57.1821 71.111 71.111 57.1821 71.111 39.9999C71.111 22.8177 57.1821 8.88879 39.9999 8.88879C22.8177 8.88879 8.88879 22.8177 8.88879 39.9999C8.88879 57.1821 22.8177 71.111 39.9999 71.111Z" fill="#3B88C3"/>
<path d="M39.9998 62.2223C52.2728 62.2223 62.2221 52.273 62.2221 40.0001C62.2221 27.7271 52.2728 17.7778 39.9998 17.7778C27.7268 17.7778 17.7776 27.7271 17.7776 40.0001C17.7776 52.273 27.7268 62.2223 39.9998 62.2223Z" fill="#DD2E44"/>
<path d="M40.0001 53.3333C47.3639 53.3333 53.3334 47.3638 53.3334 40C53.3334 32.6362 47.3639 26.6666 40.0001 26.6666C32.6363 26.6666 26.6668 32.6362 26.6668 40C26.6668 47.3638 32.6363 53.3333 40.0001 53.3333Z" fill="#FFAC33"/>
<path d="M77.4759 64.8866C76.5426 65.5666 74.6826 66.2021 73.1782 66.2021C68.8115 66.2021 62.8359 64.6088 59.1026 60.8999L52.5382 52.2955C51.9293 51.6844 51.7448 51.0177 52.0715 50.2243C52.4004 49.4266 50.4493 48.8888 51.3115 48.8888H62.5515C66.7004 48.8888 72.1248 51.6799 75.7182 55.5955L76.5426 56.3755C78.2582 58.2488 79.1715 59.9955 79.1693 61.6777C79.1693 63.0577 78.5648 64.0932 77.4759 64.8866Z" fill="black"/>
<path d="M62.8999 78.2312C61.1866 78.2312 59.2733 77.3045 57.3666 75.5556L56.2822 74.7156C52.2933 71.0601 48.8888 65.5356 48.8888 61.3112V49.8356C48.8888 48.9556 49.9999 50.9778 50.811 50.6423C51.6177 50.3089 52.8444 50.4956 53.4666 51.1178L60.5022 58.0601C64.2777 61.8623 67.3044 68.3245 67.3044 72.7712C67.3044 74.3023 66.9866 75.5601 66.2999 76.5089C65.491 77.6178 64.3066 78.2312 62.8999 78.2312Z" fill="black"/>
<path d="M69.6554 71.0311C69.0865 71.0311 68.5732 70.76 68.1376 70.3267L37.0265 39.2156C36.1576 38.3467 36.1576 36.9422 37.0265 36.0711C37.8954 35.2022 39.2998 35.2045 40.1687 36.0711L71.2798 67.1822C72.1487 68.0511 72.1198 69.4845 71.251 70.3533C70.8198 70.7867 70.2265 71.0311 69.6554 71.0311Z" fill="#C1694F"/>
</symbol></svg>