<svg width="91" height="128" viewBox="0 0 91 128" fill="none" xmlns="http://www.w3.org/2000/svg">
<circle cx="51.8369" cy="38.7566" r="38.7566" fill="#E3F2FB"/>
<path d="M77.6367 58.7595L69.9263 56.6935C69.3016 56.5261 68.9309 55.8841 69.0983 55.2594L69.2408 54.7276L74.2736 55.5062L79.2133 57.3997L79.0708 57.9315C78.9034 58.5562 78.2613 58.9269 77.6367 58.7595Z" fill="#191847"/>
<path d="M72.8668 41.1941L78.116 42.1021L82.8393 43.8662L79.2131 57.3993L69.2406 54.7272L72.8668 41.1941Z" fill="#DDE3E8"/>
<path d="M73.9111 57.2417C74.1171 57.2969 74.3288 57.1747 74.3839 56.9688C74.4391 56.7628 74.3169 56.5511 74.1109 56.4959C73.905 56.4407 73.6933 56.563 73.6381 56.7689C73.5829 56.9749 73.7052 57.1866 73.9111 57.2417Z" fill="white"/>
<path d="M75.6326 41.9355L72.1788 43.7537L72.0085 44.3893L76.3318 42.1228L75.6326 41.9355ZM77.3835 42.4046L71.7499 45.3543L71.3009 47.0301L79.1979 42.8908L77.3835 42.4046Z" fill="#E9F5FF"/>
<g opacity="0.5">
<path opacity="0.5" d="M76.3318 42.1228L72.0085 44.3893L72.1788 43.7537L75.6326 41.9355L76.3318 42.1228Z" fill="white"/>
<path opacity="0.5" d="M79.1979 42.8908L71.3009 47.0301L71.7499 45.3543L77.3835 42.4046L79.1979 42.8908Z" fill="white"/>
</g>
<path d="M82.004 41.2903L74.8781 39.3809C74.0921 39.1703 73.2821 39.6442 73.069 40.4393L72.8653 41.1996L82.8378 43.8717L83.0415 43.1114C83.2545 42.3163 82.7901 41.5009 82.004 41.2903Z" fill="#191847"/>
<path d="M79.7661 42.0546C79.8827 42.0858 80 42.0261 80.0281 41.9212C80.0562 41.8163 79.9844 41.706 79.8679 41.6747C79.7513 41.6435 79.634 41.7032 79.6058 41.8081C79.5777 41.913 79.6495 42.0234 79.7661 42.0546Z" fill="white"/>
<path d="M78.3715 41.694L76.2201 41.1175C76.1084 41.0876 76.0421 40.9727 76.072 40.861C76.102 40.7492 76.2168 40.683 76.3285 40.7129L78.4799 41.2894C78.5916 41.3193 78.658 41.4341 78.628 41.5459C78.5981 41.6576 78.4832 41.7239 78.3715 41.694Z" fill="white"/>
<path d="M78.887 49.3884C78.2695 51.6932 75.2284 52.5684 75.2284 52.5684C75.2284 52.5684 75.5156 45.7115 76.9619 46.099C78.4081 46.4865 79.27 47.9593 78.887 49.3884Z" fill="white"/>
<path d="M75.4759 51.6441C77.1774 52.1 78.8892 51.2282 79.2995 49.697C79.7098 48.1657 78.6632 46.5548 76.9618 46.0989C75.2604 45.643 73.5485 46.5148 73.1382 48.046C72.7279 49.5773 73.7745 51.1882 75.4759 51.6441Z" fill="white"/>
<path d="M76.1364 49.1796C76.3065 49.2252 76.4814 49.1243 76.527 48.9541C76.5726 48.784 76.4716 48.6091 76.3015 48.5635C76.1313 48.5179 75.9565 48.6189 75.9109 48.789C75.8653 48.9592 75.9662 49.134 76.1364 49.1796Z" fill="#4F5D73"/>
<path d="M77.3686 49.5097C77.5387 49.5553 77.7136 49.4543 77.7592 49.2842C77.8048 49.1141 77.7038 48.9392 77.5337 48.8936C77.3635 48.848 77.1886 48.949 77.143 49.1191C77.0974 49.2892 77.1984 49.4641 77.3686 49.5097Z" fill="#4F5D73"/>
<path d="M74.904 48.8496C75.0741 48.8951 75.249 48.7942 75.2946 48.624C75.3402 48.4539 75.2392 48.279 75.0691 48.2334C74.8989 48.1878 74.724 48.2888 74.6784 48.4589C74.6329 48.6291 74.7338 48.804 74.904 48.8496Z" fill="#4F5D73"/>
<path fill-rule="evenodd" clip-rule="evenodd" d="M33.5813 65.397L43.093 98.7225L50.0328 123.285H55.0944L47.7198 65.397H33.5813Z" fill="#96C7E4"/>
<path fill-rule="evenodd" clip-rule="evenodd" d="M31.0377 65.397C30.8176 82.5734 30.0674 91.9418 29.8364 93.5024C29.6054 95.0629 26.1127 104.991 19.3582 123.285H24.6016C33.2007 105.735 38.0009 95.807 39.0023 93.5024C40.0036 91.1978 43.0939 81.8293 47.7485 65.397H31.0377Z" fill="#C3E4F8"/>
<path fill-rule="evenodd" clip-rule="evenodd" d="M18.8896 128L19.152 122.499L24.6614 122.499C28.5801 125.249 34.8933 126.952 34.8933 126.952V128H24.9238L21.5132 127.476V128H18.8896Z" fill="#191847"/>
<path fill-rule="evenodd" clip-rule="evenodd" d="M49.3228 128L49.5851 122.499L55.0946 122.499C59.0132 125.249 65.3264 126.952 65.3264 126.952V128H55.3569L51.9463 127.476V128H49.3228Z" fill="#191847"/>
<path fill-rule="evenodd" clip-rule="evenodd" d="M41.2896 37.1392C42.6908 38.5422 44.191 39.4254 45.0001 39.4193C47.0289 39.404 48.9403 32.4843 48.1496 29.3713C47.359 26.2583 40.0738 23.171 38.3355 28.5148C37.7322 30.3695 38.106 32.2521 38.9363 33.9192L34.3926 43.1824L40.5021 44.7057L41.2896 37.1392Z" fill="#D7BABA"/>
<path fill-rule="evenodd" clip-rule="evenodd" d="M51.805 26.2407C51.7892 25.7651 51.5437 25.3001 51.1132 25.073C51.0088 25.0179 50.8967 24.9783 50.7811 24.9543C50.7397 24.9457 50.7252 24.9547 50.7132 24.9212C50.7042 24.8964 50.7169 24.8445 50.7172 24.818C50.7184 24.7358 50.7147 24.6535 50.7052 24.5718C50.6728 24.2931 50.5677 24.0274 50.4207 23.789C50.1457 23.3431 49.7155 22.9753 49.2162 22.8037C48.9429 22.7098 48.6542 22.686 48.3675 22.7108C48.2191 22.7237 48.0719 22.7491 47.9266 22.7816C47.8829 22.7914 47.733 22.8552 47.6955 22.8393C47.6541 22.8218 47.5942 22.6933 47.5658 22.6577C47.2154 22.2179 46.7131 21.9542 46.1726 21.8236C45.5626 21.6763 44.9687 21.5605 44.3685 21.8045C44.2414 21.8561 44.1176 21.9165 43.9976 21.9827C43.9343 22.0175 43.8723 22.0545 43.8121 22.0941C43.7757 22.118 43.7399 22.1428 43.705 22.1688C43.6457 22.2127 43.6484 22.2327 43.5944 22.1783C43.3869 21.9691 43.121 21.8291 42.827 21.793C42.6524 21.7716 42.475 21.7812 42.3018 21.8091C42.2429 21.8185 42.0969 21.8785 42.0399 21.8652C41.9833 21.8521 41.8827 21.7376 41.83 21.7018C41.5454 21.5081 41.2147 21.3954 40.8719 21.3666C40.5184 21.337 40.1508 21.3891 39.8163 21.5044C39.6553 21.5599 39.5097 21.6294 39.3792 21.739C39.3229 21.7863 39.2698 21.838 39.209 21.8797C39.1734 21.9042 39.1103 21.9226 39.0855 21.9586C39.1003 21.937 38.7563 21.6957 38.7227 21.6774C38.5438 21.5798 38.3465 21.5413 38.1438 21.5562C37.7626 21.5841 37.3949 21.7681 37.0796 21.9722C36.9176 22.077 36.768 22.2002 36.6329 22.3375C36.5681 22.4032 36.5067 22.4722 36.4484 22.5437C36.4202 22.5783 36.3957 22.6244 36.3626 22.6536C36.3199 22.6914 36.2986 22.687 36.2369 22.6927C35.9234 22.7217 35.618 22.8268 35.3604 23.0076C35.0997 23.1905 34.8967 23.4451 34.7662 23.734C34.7585 23.751 34.7382 23.8244 34.7253 23.8314C34.7076 23.8411 34.6511 23.8208 34.6286 23.8179C34.5504 23.8079 34.4717 23.8023 34.3929 23.8013C34.2476 23.7995 34.1022 23.814 33.9604 23.8449C33.4074 23.9653 32.9416 24.3335 32.6414 24.8036C32.3264 25.2969 32.1758 25.9146 32.2601 26.4968C32.2738 26.5909 32.2946 26.684 32.3239 26.7746C32.3419 26.8301 32.3515 26.8327 32.3195 26.8783C32.2838 26.929 32.2306 26.9737 32.1911 27.0222C32.0625 27.1803 31.9564 27.3555 31.871 27.5402C31.7308 27.8432 31.6173 28.17 31.5974 28.5056C31.5882 28.6614 31.6005 28.819 31.6415 28.97C31.6624 29.047 31.6906 29.1222 31.7258 29.1939C31.744 29.2312 31.7642 29.2674 31.7859 29.3028C31.7984 29.323 31.8165 29.3425 31.826 29.3639C31.8492 29.4163 31.8654 29.382 31.8317 29.442C31.7846 29.5258 31.7067 29.6007 31.6506 29.6797C31.5929 29.7612 31.5382 29.8447 31.4861 29.9298C31.3804 30.1021 31.2831 30.2801 31.2036 30.466C31.0509 30.823 30.9627 31.2219 31.0537 31.6071C31.0927 31.7719 31.1688 31.9269 31.2751 32.0592C31.3271 32.124 31.3861 32.1833 31.4504 32.236C31.4834 32.2631 31.5293 32.2826 31.5374 32.323C31.5461 32.3665 31.4995 32.4369 31.4825 32.4789C31.334 32.8436 31.2078 33.234 31.228 33.6327C31.2466 34 31.3998 34.3584 31.6466 34.6319C32.1253 35.1625 32.9061 35.3339 33.5877 35.1747C33.7654 35.1332 33.9378 35.0696 34.0988 34.9841C34.3214 35.5175 35.0139 35.6751 35.5352 35.6689C36.1847 35.6611 36.7794 35.3599 37.1999 34.8741C37.4685 35.4385 38.3152 35.4882 38.7091 35.0467C38.8055 34.9387 38.8785 34.8113 38.9322 34.6773C38.9604 34.6069 38.9723 34.5317 38.9979 34.4612C39.0305 34.3714 39.1146 34.2972 39.1723 34.2169C39.2846 34.0605 39.3722 33.8919 39.4207 33.7051C39.4461 33.6076 39.4574 33.5092 39.4723 33.4099C39.4857 33.3205 39.5302 33.2453 39.5654 33.1625C39.4027 33.1493 39.2227 33.0597 39.0867 32.9777C38.9532 32.8972 38.847 32.7465 38.7716 32.6142C38.5965 32.307 38.5329 31.9457 38.5146 31.5974C38.4745 30.8327 38.7761 30.0026 39.589 29.7911C39.9677 29.6926 40.9664 29.9423 41.3411 30.1311C41.7351 30.3295 41.9791 31.3674 41.9809 31.4597C41.9819 31.5168 41.9582 31.5812 41.9985 31.6291C42.0872 31.7345 42.2996 31.643 42.3961 31.5957C42.5627 31.5142 42.6994 31.3845 42.8235 31.2494C43.0937 30.9551 43.3342 30.6272 43.5328 30.2808C43.6858 30.0137 43.8117 29.7303 43.9879 29.4768C44.1633 29.2245 44.3922 29.017 44.6911 28.9239C45.0161 28.8225 45.3622 28.8127 45.699 28.782C46.0328 28.7517 46.3672 28.6962 46.6618 28.5286C46.7266 28.4918 46.7907 28.4514 46.8475 28.4032C46.8923 28.3651 46.9473 28.2845 47.0053 28.2677C47.0955 28.2416 47.1809 28.3892 47.2382 28.4494C47.5212 28.7464 47.7275 29.1136 47.8727 29.4947C48.0171 29.8737 48.1242 30.2305 48.1843 30.6286C48.2288 30.9238 48.2128 31.2836 48.3538 31.5516C48.4168 31.6713 49.0513 31.8924 49.2829 31.8593C49.5145 31.8263 49.8055 31.6632 49.9108 31.5418C50.0185 31.4174 50.0748 31.2654 50.0827 31.1019C50.0874 31.0057 50.0717 30.9108 50.0739 30.8157C50.0756 30.7359 50.0779 30.6605 50.0583 30.582C50.0212 30.4333 49.9254 30.3092 49.7912 30.2338C49.9754 30.1333 50.1407 29.9992 50.2726 29.8362C50.4096 29.6669 50.5434 29.4527 50.6173 29.2477C50.6773 29.0813 50.6945 28.8976 50.6375 28.7274C50.5776 28.5489 50.4286 28.4051 50.302 28.2715C50.5768 28.1491 50.8282 27.9797 51.0503 27.7781C51.4824 27.3861 51.825 26.8415 51.805 26.2407Z" fill="#191847"/>
<path fill-rule="evenodd" clip-rule="evenodd" d="M63.8851 69.4841L55.6248 63.2034L53.6954 67.7363L61.9214 71.3114C64.2169 74.1007 65.5073 75.2693 65.7926 74.8172C66.0332 74.436 65.8567 74.0722 65.6941 73.737C65.5674 73.476 65.4492 73.2323 65.5432 73.0114C65.7579 72.5071 67.3311 72.588 68.8208 72.7286C70.3104 72.8692 69.8873 72.1989 69.5333 71.8654C68.0266 70.9289 66.1438 70.1351 63.8851 69.4841ZM19.816 79.5275C20.6119 77.9839 23.4946 62.8544 23.4946 62.8544L28.9759 62.9716C28.9759 62.9716 23.6132 79.2465 23.1911 80.2407C22.6427 81.5322 23.5027 83.4375 24.0858 84.7294C24.176 84.9293 24.2595 85.1145 24.3303 85.2805C23.4836 85.6411 23.088 85.1804 22.6709 84.6947C22.1997 84.1461 21.7012 83.5656 20.4945 84.1007C20.0283 84.3075 19.5863 84.5538 19.1544 84.7945C17.6626 85.6258 16.2922 86.3894 14.4665 85.2202C14.177 85.0349 13.8682 84.3506 14.6522 83.8338C16.6053 82.5461 19.427 80.2822 19.816 79.5275Z" fill="#D7BABA"/>
<path fill-rule="evenodd" clip-rule="evenodd" d="M39.4735 40.1608L41.7485 39.812C50.0378 47.2175 53.2511 61.2225 63.438 68.7896L60.9014 71.8191C43.0439 69.2944 38.9051 52.2078 39.4735 40.1608Z" fill="#188E2B"/>
<path fill-rule="evenodd" clip-rule="evenodd" d="M29.089 68.4482C29.089 68.4482 42.7313 68.6863 49.159 68.7985C50.0761 68.8145 49.9264 67.4893 49.8055 66.8199C48.4098 59.0932 42.582 50.6888 42.7733 39.7282L37 38.7208C32.0774 46.3261 30.2563 55.7638 29.089 68.4482Z" fill="#DDE3E9"/>
<path fill-rule="evenodd" clip-rule="evenodd" d="M26.7361 73.9084C25.7964 76.0556 24.8789 77.9274 24.0202 79.3625L19.7159 79.2874C19.5137 64.3298 25.3833 52.9257 30.2486 46.0725C29.1966 45.9789 28.2535 45.5222 27.6713 44.429C25.6219 40.5801 26.4227 38.4947 28.696 37.8443C29.9461 37.4866 31.1111 37.7659 32.5055 38.1003C33.6466 38.374 34.9414 38.6844 36.5624 38.7129C36.5624 38.7129 36.5624 38.7129 36.5624 38.7129L36.5625 38.7129C36.563 38.7129 36.5635 38.7129 36.564 38.713C36.721 38.7157 36.8637 38.7287 36.993 38.751L38.9123 38.894C38.9123 38.894 46.2512 65.4218 42.5997 74.1853L26.7361 73.9084Z" fill="#1EC038"/>
<path fill-rule="evenodd" clip-rule="evenodd" d="M26.736 73.9086C27.969 71.0913 29.2404 67.8001 30.468 64.3996C30.837 68.1745 31.495 71.9709 32.6651 74.0121L26.736 73.9086Z" fill="black" fill-opacity="0.1"/>
</svg>
