<svg width="20" height="20" viewBox="0 0 20 20" fill="none" xmlns="http://www.w3.org/2000/svg">
<rect x="0.7" y="0.7" width="18.6" height="18.6" rx="9.3" stroke="#1EC038" stroke-width="0.6"/>
<path d="M13.75 9.375V15H6.25V9.375H11.875V7.5C11.875 7.23307 11.8262 6.98568 11.7285 6.75781C11.6341 6.52995 11.5023 6.33301 11.333 6.16699C11.167 5.99772 10.9701 5.86589 10.7422 5.77148C10.5143 5.67383 10.2669 5.625 10 5.625C9.73307 5.625 9.48568 5.67383 9.25781 5.77148C9.02995 5.86589 8.83138 5.99772 8.66211 6.16699C8.49609 6.33301 8.36426 6.52995 8.2666 6.75781C8.1722 6.98568 8.125 7.23307 8.125 7.5H7.5C7.5 7.14518 7.56348 6.81641 7.69043 6.51367C7.81738 6.20768 7.99316 5.94238 8.21777 5.71777C8.44238 5.49316 8.70605 5.31738 9.00879 5.19043C9.31478 5.06348 9.64518 5 10 5C10.3548 5 10.6836 5.06348 10.9863 5.19043C11.2923 5.31738 11.5576 5.49316 11.7822 5.71777C12.0068 5.94238 12.1826 6.20768 12.3096 6.51367C12.4365 6.81641 12.5 7.14518 12.5 7.5V9.375H13.75ZM13.125 10H6.875V14.375H13.125V10Z" fill="#1EC038"/>
</svg>
