<svg width="18" height="18" viewBox="0 0 16 16" fill="none"
  xmlns="http://www.w3.org/2000/svg">
  <rect width="16" height="16" rx="8" fill="#F2D640"/>
  <path d="M11.75 7.375V13H4.25V7.375H5.5V5.54883C5.5 5.19727 5.56348 4.86686 5.69043 4.55762C5.81738 4.24837 5.99316 3.97819 6.21777 3.74707C6.44238 3.51595 6.70605 3.33366 7.00879 3.2002C7.31152 3.06673 7.64193 3 8 3C8.35482 3 8.68359 3.06673 8.98633 3.2002C9.28906 3.33366 9.55436 3.51595 9.78223 3.74707C10.0101 3.97819 10.1859 4.24837 10.3096 4.55762C10.4333 4.86686 10.4967 5.19727 10.5 5.54883V7.375H11.75ZM6.125 7.375H9.875V5.54883C9.875 5.28516 9.8278 5.03776 9.7334 4.80664C9.639 4.57552 9.50879 4.37044 9.34277 4.19141C9.17676 4.01237 8.97819 3.87402 8.74707 3.77637C8.51595 3.67871 8.26693 3.62826 8 3.625C7.73307 3.625 7.48568 3.67546 7.25781 3.77637C7.02995 3.87728 6.83138 4.01562 6.66211 4.19141C6.49284 4.36719 6.361 4.57064 6.2666 4.80176C6.1722 5.03288 6.125 5.2819 6.125 5.54883V7.375ZM11.125 8H4.875V12.375H11.125V8Z" fill="#193040"/>
</svg>
