<svg width="64" height="53" viewBox="0 0 64 53" fill="none" xmlns="http://www.w3.org/2000/svg">
<path d="M15.8473 45.8898V43.274C15.8625 43.054 15.8307 42.8333 15.754 42.6266C15.6772 42.4198 15.5573 42.2318 15.4022 42.0751C15.2471 41.9183 15.0604 41.7964 14.8545 41.7175C14.6486 41.6386 14.4282 41.6044 14.2081 41.6173C13.9199 41.5984 13.632 41.6573 13.3743 41.7876C13.1166 41.918 12.8987 42.1151 12.7432 42.3585C12.6015 42.1224 12.3987 41.929 12.1563 41.7986C11.9138 41.6681 11.6406 41.6055 11.3656 41.6173C11.1258 41.6052 10.887 41.656 10.6729 41.7645C10.4588 41.8731 10.2767 42.0358 10.1448 42.2364V41.722H9.23804V45.8898H10.1536V43.5966C10.1341 43.4541 10.1463 43.309 10.1895 43.1718C10.2326 43.0346 10.3054 42.9085 10.4029 42.8027C10.5004 42.6969 10.62 42.614 10.7533 42.5598C10.8865 42.5056 11.0301 42.4815 11.1737 42.4893C11.7754 42.4893 12.0805 42.8816 12.0805 43.5879V45.9073H12.9961V43.5966C12.9774 43.4542 12.9902 43.3095 13.0336 43.1726C13.077 43.0357 13.1499 42.91 13.2472 42.8044C13.3445 42.6988 13.4638 42.6158 13.5967 42.5614C13.7296 42.5069 13.8728 42.4823 14.0162 42.4893C14.6353 42.4893 14.9318 42.8816 14.9318 43.5879V45.9073L15.8473 45.8898ZM29.3928 41.722H27.9018V40.4577H26.9863V41.722H26.1579V42.5503H27.0037V44.4686C27.0037 45.4364 27.3786 46.0119 28.4511 46.0119C28.8518 46.0132 29.2447 45.9014 29.5846 45.6893L29.323 44.9132C29.0799 45.0583 28.8039 45.1393 28.5209 45.1487C28.0849 45.1487 27.9192 44.8696 27.9192 44.4511V42.5503H29.4015L29.3928 41.722ZM37.1269 41.6173C36.9058 41.6108 36.687 41.6641 36.4937 41.7715C36.3003 41.8789 36.1395 42.0365 36.0282 42.2277V41.722H35.1301V45.8898H36.0369V43.553C36.0369 42.8642 36.3334 42.4805 36.9089 42.4805C37.1028 42.4779 37.2954 42.5134 37.4756 42.5852L37.7547 41.7132C37.5476 41.6392 37.3294 41.6008 37.1094 41.5999L37.1269 41.6173ZM25.4342 42.0533C24.9209 41.7481 24.3308 41.5968 23.7339 41.6173C22.6789 41.6173 21.9901 42.1231 21.9901 42.9514C21.9901 43.6315 22.4958 44.05 23.4288 44.1808L23.8647 44.2419C24.3617 44.3116 24.5972 44.4424 24.5972 44.6778C24.5972 45.0004 24.2658 45.1835 23.6468 45.1835C23.1488 45.198 22.6605 45.0444 22.2604 44.7476L21.8244 45.4538C22.3526 45.8227 22.9853 46.0122 23.6293 45.9944C24.8326 45.9944 25.5301 45.4277 25.5301 44.6342C25.5301 43.8408 24.9808 43.5181 24.074 43.3874L23.638 43.3263C23.2457 43.274 22.9318 43.1955 22.9318 42.9165C22.9318 42.6375 23.2282 42.4282 23.7252 42.4282C24.1846 42.4336 24.6349 42.5567 25.0331 42.7857L25.4342 42.0533ZM49.722 41.6173C49.5009 41.6108 49.2821 41.6641 49.0888 41.7715C48.8954 41.8789 48.7346 42.0365 48.6233 42.2277V41.722H47.7252V45.8898H48.632V43.553C48.632 42.8642 48.9285 42.4805 49.504 42.4805C49.6979 42.4779 49.8905 42.5134 50.0707 42.5852L50.3498 41.7132C50.1427 41.6392 49.9245 41.6008 49.7045 41.5999L49.722 41.6173ZM38.038 43.7972C38.0273 44.0901 38.0777 44.382 38.1862 44.6542C38.2947 44.9265 38.4589 45.1731 38.6682 45.3783C38.8775 45.5835 39.1273 45.7427 39.4016 45.8458C39.676 45.9489 39.9688 45.9936 40.2615 45.977C40.8059 46.0047 41.341 45.8274 41.7612 45.48L41.3252 44.7476C41.0118 44.9866 40.6295 45.1181 40.2353 45.1225C39.9001 45.0954 39.5874 44.9431 39.3594 44.6959C39.1314 44.4487 39.0048 44.1247 39.0048 43.7885C39.0048 43.4522 39.1314 43.1282 39.3594 42.881C39.5874 42.6338 39.9001 42.4815 40.2353 42.4544C40.6295 42.4588 41.0118 42.5903 41.3252 42.8293L41.7612 42.0969C41.341 41.7495 40.8059 41.5722 40.2615 41.5999C39.9688 41.5833 39.676 41.628 39.4016 41.7311C39.1273 41.8342 38.8775 41.9934 38.6682 42.1986C38.4589 42.4038 38.2947 42.6504 38.1862 42.9227C38.0777 43.1949 38.0273 43.4868 38.038 43.7797V43.7972ZM46.5307 43.7972V41.722H45.6239V42.2277C45.4699 42.0295 45.271 41.8709 45.0435 41.7647C44.8161 41.6586 44.5667 41.6081 44.316 41.6173C43.7378 41.6173 43.1834 41.847 42.7746 42.2558C42.3658 42.6646 42.1361 43.219 42.1361 43.7972C42.1361 44.3753 42.3658 44.9297 42.7746 45.3385C43.1834 45.7473 43.7378 45.977 44.316 45.977C44.5667 45.9863 44.8161 45.9357 45.0435 45.8296C45.271 45.7235 45.4699 45.5648 45.6239 45.3666V45.8724H46.5307V43.7972ZM43.1563 43.7972C43.1707 43.5518 43.2566 43.3161 43.4034 43.119C43.5501 42.9218 43.7513 42.7719 43.9822 42.6877C44.2131 42.6034 44.4635 42.5886 44.7028 42.6449C44.942 42.7012 45.1595 42.8262 45.3286 43.0046C45.4976 43.183 45.6108 43.4069 45.6542 43.6488C45.6976 43.8907 45.6693 44.14 45.5728 44.366C45.4763 44.592 45.3158 44.7849 45.1111 44.9209C44.9064 45.0568 44.6664 45.13 44.4206 45.1312C44.248 45.1334 44.0768 45.0999 43.9178 45.0327C43.7587 44.9655 43.6153 44.8661 43.4966 44.7408C43.3778 44.6155 43.2863 44.467 43.2277 44.3046C43.1692 44.1422 43.1448 43.9694 43.1563 43.7972ZM32.2135 41.6173C31.6354 41.6254 31.0842 41.8628 30.6811 42.2774C30.278 42.6919 30.0561 43.2496 30.0642 43.8277C30.0723 44.4058 30.3097 44.957 30.7242 45.3601C31.1388 45.7632 31.6964 45.9851 32.2745 45.977C32.9018 46.0092 33.5186 45.8072 34.0053 45.4102L33.5694 44.7389C33.2251 45.0149 32.7986 45.1684 32.3574 45.1748C32.0576 45.2006 31.7597 45.1084 31.5268 44.9179C31.294 44.7274 31.1446 44.4536 31.1105 44.1547H34.2059C34.2059 44.0413 34.2059 43.928 34.2059 43.8059C34.2059 42.498 33.395 41.6261 32.2266 41.6261L32.2135 41.6173ZM32.2135 42.4282C32.3492 42.4253 32.4841 42.4492 32.6106 42.4985C32.7371 42.5477 32.8526 42.6215 32.9506 42.7154C33.0486 42.8093 33.1271 42.9216 33.1816 43.0459C33.2362 43.1702 33.2657 43.304 33.2686 43.4397H31.0887C31.1045 43.1598 31.2292 42.8973 31.4362 42.7082C31.6432 42.5192 31.9159 42.4187 32.1961 42.4282H32.2135ZM54.9318 43.8059V40.0479H54.0598V42.2277C53.9058 42.0295 53.7069 41.8709 53.4795 41.7647C53.2521 41.6586 53.0027 41.6081 52.7519 41.6173C52.1738 41.6173 51.6194 41.847 51.2106 42.2558C50.8018 42.6646 50.5721 43.219 50.5721 43.7972C50.5721 44.3753 50.8018 44.9297 51.2106 45.3385C51.6194 45.7473 52.1738 45.977 52.7519 45.977C53.0027 45.9863 53.2521 45.9357 53.4795 45.8296C53.7069 45.7235 53.9058 45.5648 54.0598 45.3666V45.8724H54.9318V43.8059ZM56.4446 45.2838C56.5013 45.2831 56.5575 45.2935 56.6102 45.3143C56.6603 45.3348 56.7061 45.3643 56.7454 45.4015C56.7837 45.4391 56.8147 45.4835 56.8369 45.5323C56.859 45.5832 56.8704 45.6381 56.8704 45.6936C56.8704 45.7491 56.859 45.804 56.8369 45.8549C56.8147 45.9038 56.7837 45.9481 56.7454 45.9857C56.7061 46.0229 56.6603 46.0525 56.6102 46.0729C56.5581 46.0959 56.5016 46.1078 56.4446 46.1078C56.3619 46.1072 56.2812 46.0831 56.2117 46.0383C56.1422 45.9935 56.0869 45.9299 56.0522 45.8549C56.0304 45.804 56.0191 45.7491 56.0191 45.6936C56.0191 45.6382 56.0304 45.5833 56.0522 45.5323C56.0744 45.4835 56.1054 45.4391 56.1438 45.4015C56.183 45.3643 56.2288 45.3348 56.2789 45.3143C56.3357 45.2917 56.3966 45.2813 56.4577 45.2838H56.4446ZM56.4446 46.0206C56.4881 46.0209 56.5312 46.012 56.571 45.9944C56.6085 45.9777 56.6425 45.954 56.6713 45.9247C56.7258 45.8652 56.7561 45.7874 56.7561 45.7067C56.7561 45.626 56.7258 45.5482 56.6713 45.4887C56.6426 45.4593 56.6086 45.4356 56.571 45.419C56.5311 45.4016 56.4881 45.3927 56.4446 45.3928C56.4011 45.393 56.3581 45.4019 56.3181 45.419C56.279 45.435 56.2434 45.4587 56.2135 45.4887C56.159 45.5482 56.1287 45.626 56.1287 45.7067C56.1287 45.7874 56.159 45.8652 56.2135 45.9247C56.2435 45.9546 56.279 45.9783 56.3181 45.9944C56.3621 46.0134 56.4098 46.0223 56.4577 46.0206H56.4446ZM56.4707 45.5018C56.5114 45.4998 56.5515 45.5122 56.5841 45.5367C56.5974 45.5477 56.608 45.5618 56.6148 45.5777C56.6216 45.5936 56.6245 45.611 56.6233 45.6282C56.624 45.6427 56.6216 45.6572 56.6163 45.6707C56.6111 45.6842 56.603 45.6964 56.5928 45.7067C56.5675 45.7297 56.5353 45.7435 56.5013 45.7459L56.6277 45.8898H56.5274L56.4097 45.7459H56.3705V45.8898H56.2876V45.5062L56.4707 45.5018ZM56.3748 45.5759V45.6805H56.4707C56.4878 45.6856 56.506 45.6856 56.523 45.6805C56.5261 45.6745 56.5277 45.6677 56.5277 45.6609C56.5277 45.6541 56.5261 45.6474 56.523 45.6413C56.5261 45.6352 56.5277 45.6285 56.5277 45.6217C56.5277 45.6149 56.5261 45.6082 56.523 45.6021C56.506 45.597 56.4878 45.597 56.4707 45.6021L56.3748 45.5759ZM51.5792 43.8059C51.5936 43.5606 51.6795 43.3248 51.8263 43.1277C51.973 42.9305 52.1742 42.7806 52.4051 42.6964C52.636 42.6122 52.8864 42.5973 53.1256 42.6536C53.3649 42.7099 53.5824 42.835 53.7514 43.0133C53.9205 43.1917 54.0337 43.4156 54.0771 43.6575C54.1205 43.8994 54.0922 44.1487 53.9957 44.3748C53.8992 44.6008 53.7387 44.7936 53.534 44.9296C53.3293 45.0656 53.0892 45.1387 52.8435 45.1399C52.6709 45.1421 52.4997 45.1086 52.3406 45.0414C52.1816 44.9742 52.0382 44.8748 51.9195 44.7495C51.8007 44.6242 51.7092 44.4757 51.6506 44.3133C51.5921 44.1509 51.5677 43.9781 51.5792 43.8059ZM20.9612 43.8059V41.722H20.0544V42.2277C19.9004 42.0295 19.7015 41.8709 19.4741 41.7647C19.2467 41.6586 18.9973 41.6081 18.7465 41.6173C18.1684 41.6173 17.6139 41.847 17.2051 42.2558C16.7963 42.6646 16.5666 43.219 16.5666 43.7972C16.5666 44.3753 16.7963 44.9297 17.2051 45.3385C17.6139 45.7473 18.1684 45.977 18.7465 45.977C18.9973 45.9863 19.2467 45.9357 19.4741 45.8296C19.7015 45.7235 19.9004 45.5648 20.0544 45.3666V45.8724H20.9612V43.8059ZM17.5868 43.8059C17.6013 43.5606 17.6872 43.3248 17.8339 43.1277C17.9807 42.9305 18.1819 42.7806 18.4127 42.6964C18.6436 42.6122 18.8941 42.5973 19.1333 42.6536C19.3725 42.7099 19.59 42.835 19.7591 43.0133C19.9281 43.1917 20.0413 43.4156 20.0847 43.6575C20.1281 43.8994 20.0998 44.1487 20.0033 44.3748C19.9068 44.6008 19.7463 44.7936 19.5416 44.9296C19.3369 45.0656 19.0969 45.1387 18.8511 45.1399C18.6778 45.1434 18.5056 45.1107 18.3456 45.044C18.1855 44.9774 18.041 44.8782 17.9213 44.7528C17.8016 44.6273 17.7093 44.4784 17.6502 44.3154C17.5911 44.1524 17.5666 43.9789 17.5781 43.8059H17.5868Z" fill="#231F20"/>
<path d="M38.8665 9.96191H25.1335V34.642H38.8665V9.96191Z" fill="#FF5F00"/>
<path d="M26.0054 22.3052C26.0029 19.928 26.5413 17.5813 27.5799 15.443C28.6184 13.3047 30.13 11.4307 32 9.96293C29.6846 8.1433 26.904 7.01178 23.976 6.69769C21.0479 6.3836 18.0906 6.89962 15.442 8.18677C12.7934 9.47391 10.5603 11.4803 8.99797 13.9765C7.43567 16.4727 6.60718 19.3582 6.60718 22.303C6.60718 25.2478 7.43567 28.1332 8.99797 30.6295C10.5603 33.1257 12.7934 35.1321 15.442 36.4192C18.0906 37.7064 21.0479 38.2224 23.976 37.9083C26.904 37.5942 29.6846 36.4627 32 34.643C30.1305 33.1758 28.6194 31.3025 27.5808 29.1649C26.5423 27.0274 26.0035 24.6816 26.0054 22.3052Z" fill="#EB001B"/>
<path d="M57.3951 22.3041C57.395 25.2491 56.5663 28.1347 55.0038 30.631C53.4412 33.1273 51.2078 35.1337 48.5588 36.4206C45.9098 37.7076 42.9522 38.2233 40.024 37.9087C37.0958 37.5942 34.3152 36.4621 32 34.6419C33.8687 33.1733 35.3794 31.2995 36.4183 29.1619C37.4571 27.0242 37.9969 24.6786 37.9969 22.3019C37.9969 19.9252 37.4571 17.5795 36.4183 15.4419C35.3794 13.3042 33.8687 11.4304 32 9.96182C34.3152 8.14161 37.0958 7.00954 40.024 6.695C42.9522 6.38047 45.9098 6.89615 48.5588 8.18311C51.2078 9.47008 53.4412 11.4764 55.0038 13.9727C56.5663 16.469 57.395 19.3546 57.3951 22.2997V22.3041Z" fill="#F79E1B"/>
<path d="M55.8954 32.0261V31.5204H56.1003V31.4158H55.5815V31.5204H55.8039V32.0261H55.8954ZM56.9025 32.0261V31.4158H56.7456L56.5625 31.8517L56.3794 31.4158H56.2399V32.0261H56.3532V31.5684L56.5232 31.9651H56.6409L56.811 31.5684V32.0305L56.9025 32.0261Z" fill="#F79E1B"/>
</svg>
