<svg width="64" height="42" viewBox="0 0 64 42" fill="none" xmlns="http://www.w3.org/2000/svg">
<path d="M58.2685 1.25344L58.9189 1.25429C59.0973 1.25515 59.2757 1.25771 59.4549 1.26198C59.7801 1.27051 60.1625 1.28844 60.5304 1.35501C60.8709 1.41647 61.1594 1.51121 61.4385 1.6529C62.0028 1.93907 62.4612 2.39773 62.747 2.96222C62.8887 3.24048 62.9826 3.52897 63.044 3.87039C63.1098 4.23485 63.1285 4.61809 63.1362 4.94499C63.1413 5.12253 63.1439 5.30092 63.1448 5.48101C63.1465 5.69696 63.1465 5.91461 63.1465 6.13141V35.6399C63.1465 35.8567 63.1465 36.0735 63.1448 36.2929C63.1441 36.4707 63.1412 36.6486 63.1362 36.8263C63.1277 37.1533 63.1098 37.5365 63.044 37.9035C62.9908 38.2185 62.8907 38.5238 62.747 38.8091C62.4594 39.3731 62.0008 39.8317 61.4368 40.1193C61.1513 40.2634 60.8457 40.3638 60.5304 40.4172C60.1755 40.4741 59.8169 40.5049 59.4575 40.5094C59.2782 40.5136 59.099 40.5162 58.9172 40.5162C58.7012 40.5179 58.4836 40.5179 58.2676 40.5179H5.72383C5.50959 40.5179 5.29535 40.5179 5.07855 40.5162C4.89931 40.5162 4.72007 40.5136 4.54509 40.5094C4.18485 40.5047 3.82542 40.4739 3.46963 40.4172C3.15322 40.3643 2.84671 40.2636 2.56061 40.1184C2.28015 39.9763 2.02426 39.7901 1.80267 39.5671C1.5804 39.3452 1.39485 39.0893 1.25299 38.8091C1.10865 38.5231 1.00823 38.2169 0.955109 37.901C0.897069 37.5456 0.865968 37.1864 0.862074 36.8263C0.857812 36.6483 0.855252 36.4702 0.854392 36.292L0.853538 35.7714V6.00082L0.854392 5.48101C0.855245 5.30263 0.857806 5.12424 0.862074 4.94499C0.870609 4.61979 0.888533 4.23741 0.955109 3.86868C1.00784 3.55289 1.10828 3.24696 1.25299 2.96137C1.53938 2.39751 1.9976 1.93928 2.56147 1.6529C2.84721 1.50872 3.1531 1.40858 3.46878 1.35587C3.8247 1.29786 4.18449 1.26676 4.54509 1.26283C4.72348 1.25856 4.90187 1.256 5.07941 1.25515L5.73151 1.25344H58.2685ZM58.2685 0.399902H5.73151L5.07514 0.400756C4.89077 0.401609 4.70641 0.40417 4.52205 0.409291C4.11881 0.414655 3.71654 0.450032 3.31856 0.51513C2.92045 0.58353 2.53471 0.710672 2.17396 0.892394C1.45049 1.26237 0.862098 1.85106 0.492492 2.57472C0.310274 2.93526 0.183107 3.32108 0.115228 3.71931C0.0494241 4.11722 0.0137586 4.51952 0.00853538 4.9228C0.00426769 5.10631 0.00170708 5.29068 0.000853538 5.47504L0 6.13141V35.6399L0.000853538 36.2972C0.00170708 36.4815 0.00426769 36.6659 0.00938892 36.8494C0.0204849 37.2506 0.044384 37.6551 0.116081 38.052C0.187778 38.4557 0.30642 38.8305 0.492492 39.1966C0.860544 39.9217 1.44973 40.5109 2.17482 40.8789C2.54098 41.0659 2.91569 41.1837 3.31856 41.2562C3.71545 41.3271 4.12003 41.351 4.52205 41.362C4.70641 41.3672 4.88992 41.3697 5.07514 41.3697C5.29364 41.3714 5.513 41.3714 5.73151 41.3714H58.2685C58.487 41.3714 58.7064 41.3714 58.9249 41.3697C59.1092 41.3689 59.2936 41.3663 59.478 41.362C59.8791 41.351 60.2837 41.3271 60.6814 41.2562C61.0793 41.1878 61.4647 41.0607 61.8252 40.8789C62.5505 40.5112 63.1398 39.922 63.5075 39.1966C63.6944 38.8305 63.8122 38.4557 63.8839 38.052C63.9556 37.6551 63.9787 37.2506 63.9898 36.8494C63.9949 36.665 63.9974 36.4807 63.9983 36.2972C64 36.0778 64 35.8593 64 35.6399V6.13141C64 5.91205 64 5.69355 63.9983 5.47419C63.9976 5.29008 63.9947 5.10599 63.9898 4.92195C63.9848 4.51869 63.9494 4.11639 63.8839 3.71846C63.8163 3.32027 63.6895 2.93445 63.5075 2.57386C63.1386 1.84938 62.5497 1.26041 61.8252 0.89154C61.4647 0.709828 61.0793 0.582685 60.6814 0.514276C60.2835 0.449251 59.8812 0.413874 59.478 0.408438C59.2927 0.403316 59.1084 0.401609 58.9249 0.399902H58.2685V0.399902Z" fill="black"/>
<path d="M19.0813 12.6924C19.672 11.9763 20.0706 10.9811 19.9622 9.98926C19.1086 10.0243 18.0767 10.5594 17.469 11.273C16.9185 11.9063 16.4422 12.9203 16.5736 13.8925C17.5228 13.9659 18.4907 13.4085 19.0813 12.6924ZM21.5335 18.9864C21.5148 16.8415 23.2833 15.8095 23.3652 15.7583C22.3674 14.3073 20.82 14.1059 20.2686 14.0837C18.9499 13.9531 17.6926 14.8604 17.026 14.8604C16.3568 14.8604 15.3275 14.1042 14.2315 14.1272C12.7942 14.1477 11.4686 14.9628 10.7286 16.2491C9.23918 18.8464 10.3505 22.6822 11.8049 24.7828C12.5168 25.8113 13.3635 26.967 14.479 26.9252C15.5528 26.8834 15.9557 26.2304 17.253 26.2304C18.5479 26.2287 18.914 26.9235 20.045 26.9038C21.1989 26.8791 21.9313 25.854 22.6389 24.8203C23.4523 23.6297 23.7894 22.4731 23.8065 22.4151C23.7835 22.3997 21.5591 21.5513 21.5335 18.9864ZM35.2721 12.6916C34.8419 12.2767 34.2871 11.9541 33.623 11.7322C32.965 11.5128 32.1746 11.4019 31.2741 11.4019C30.6973 11.3993 30.1208 11.4292 29.5474 11.4915C29.0693 11.5448 28.5929 11.6117 28.1186 11.6921L27.9794 11.716V26.7954H29.3562V20.4425C29.8197 20.5219 30.3506 20.5638 30.9361 20.5638C31.7154 20.5638 32.4451 20.4639 33.1058 20.2684C33.7414 20.0877 34.3333 19.7789 34.8453 19.3611C35.3384 18.9489 35.735 18.4335 36.007 17.8512C36.2886 17.2537 36.432 16.5513 36.432 15.7609C36.432 15.1071 36.3287 14.519 36.1273 14.0128C35.9326 13.5201 35.6419 13.071 35.2721 12.6916ZM34.0071 18.4512C33.3004 19.0436 32.3 19.344 31.0308 19.344C30.6817 19.344 30.3514 19.3287 30.0484 19.3005C29.8154 19.2794 29.5842 19.2406 29.3571 19.1844V12.7718C29.5389 12.7385 29.7642 12.7069 30.0288 12.6788C30.3642 12.6429 30.7679 12.625 31.2306 12.625C31.7618 12.6197 32.2913 12.6883 32.8036 12.829C33.2403 12.9491 33.6505 13.15 34.0131 13.4213C34.3434 13.6774 34.6029 14.0103 34.783 14.4114C34.9648 14.8177 35.0561 15.3025 35.0561 15.8514C35.0553 16.9908 34.7019 17.8657 34.0071 18.4512ZM44.661 25.3837C44.6456 24.9569 44.6396 24.5284 44.6396 24.1017V19.9099C44.6396 19.4132 44.5893 18.9062 44.4911 18.4026C44.3965 17.9015 44.2026 17.4244 43.921 16.9994C43.641 16.5794 43.2492 16.2329 42.7593 15.9683C42.2694 15.7046 41.6326 15.5714 40.8653 15.5714C40.3054 15.5714 39.7583 15.644 39.2419 15.7882C38.6996 15.9442 38.1866 16.1881 37.7234 16.5103L37.6116 16.588L38.0768 17.6762L38.2449 17.5627C38.6121 17.3163 39.0136 17.1253 39.4365 16.996C39.8639 16.8622 40.309 16.7938 40.7569 16.7928C41.3305 16.7928 41.7888 16.8969 42.1157 17.1018C42.4477 17.3092 42.6978 17.5661 42.8592 17.8666C43.0273 18.1764 43.1374 18.5059 43.1861 18.8481C43.2381 19.2041 43.2629 19.5224 43.2629 19.7956V19.9168C41.2221 19.9074 39.6285 20.2471 38.5701 20.9291C37.4597 21.6443 36.8963 22.6626 36.8963 23.9549C36.8963 24.327 36.9629 24.7017 37.0944 25.0721C37.2275 25.4468 37.4298 25.7823 37.6944 26.0691C37.9607 26.3593 38.3047 26.5957 38.7161 26.7724C39.1258 26.9508 39.608 27.0404 40.1466 27.0404C40.9092 27.0532 41.6595 26.848 42.3095 26.4489C42.5928 26.2739 42.8446 26.0751 43.0597 25.8608C43.1514 25.7687 43.2389 25.6724 43.3218 25.5723H43.3747L43.501 26.7963H44.8283L44.7916 26.6C44.7187 26.1982 44.6751 25.7917 44.661 25.3837ZM43.2629 23.2362C43.2629 23.383 43.2279 23.5844 43.1613 23.826C43.0722 24.0873 42.9475 24.3352 42.7909 24.5626C42.4422 25.0731 41.9358 25.4554 41.3492 25.6508C40.9933 25.7679 40.6203 25.8247 40.2456 25.819C39.9985 25.8191 39.7532 25.7772 39.5201 25.6952C39.2938 25.6165 39.0861 25.4922 38.9098 25.3299C38.7252 25.1553 38.5793 24.9439 38.4814 24.7094C38.373 24.4593 38.3183 24.1495 38.3183 23.7893C38.3183 23.1995 38.4771 22.7206 38.7886 22.3707C39.1241 21.9978 39.5454 21.7121 40.016 21.5385C40.5492 21.338 41.1071 21.2108 41.6744 21.1604C42.2023 21.1095 42.7326 21.0864 43.2629 21.0912V23.2362ZM54.0046 15.8164L51.4355 22.8009C51.275 23.2225 51.1257 23.6476 50.9891 24.0616C50.9225 24.2681 50.8594 24.4636 50.797 24.6496H50.7484C50.6842 24.4458 50.6188 24.2424 50.5521 24.0394C50.4189 23.6297 50.2755 23.2276 50.1287 22.8444L47.3812 15.8164H45.9123L49.8428 25.9206C49.9461 26.1638 49.9614 26.2756 49.9614 26.3209C49.9614 26.3345 49.9563 26.4173 49.8411 26.7246C49.6264 27.2729 49.3464 27.7933 49.0072 28.2746C48.6922 28.7031 48.4037 29.0513 48.1468 29.3083C47.8481 29.607 47.54 29.852 47.2267 30.0372C46.9066 30.2258 46.6147 30.3786 46.3561 30.4938L46.2076 30.5604L46.6864 31.7238L46.8383 31.6674C46.963 31.6205 47.1968 31.5138 47.5519 31.3405C47.9104 31.1638 48.3073 30.8839 48.7306 30.5049C49.1058 30.1746 49.4389 29.7993 49.7224 29.3876C50.0126 28.9711 50.3029 28.482 50.5879 27.9392C50.8696 27.3972 51.1513 26.7809 51.4261 26.1058C51.7009 25.4272 51.9963 24.6684 52.301 23.8533L55.4753 15.8164H54.0046Z" fill="black"/>
<path d="M58.2685 1.25344L58.9189 1.25429C59.0973 1.25515 59.2757 1.25771 59.4549 1.26198C59.7801 1.27051 60.1625 1.28844 60.5304 1.35501C60.8709 1.41647 61.1594 1.51121 61.4385 1.6529C62.0028 1.93907 62.4612 2.39773 62.747 2.96222C62.8887 3.24048 62.9826 3.52897 63.044 3.87039C63.1098 4.23485 63.1285 4.61809 63.1362 4.94499C63.1413 5.12253 63.1439 5.30092 63.1448 5.48101C63.1465 5.69696 63.1465 5.91461 63.1465 6.13141V35.6399C63.1465 35.8567 63.1465 36.0735 63.1448 36.2929C63.1441 36.4707 63.1412 36.6486 63.1362 36.8263C63.1277 37.1533 63.1098 37.5365 63.044 37.9035C62.9908 38.2185 62.8907 38.5238 62.747 38.8091C62.4594 39.3731 62.0008 39.8317 61.4368 40.1193C61.1513 40.2634 60.8457 40.3638 60.5304 40.4172C60.1755 40.4741 59.8169 40.5049 59.4575 40.5094C59.2782 40.5136 59.099 40.5162 58.9172 40.5162C58.7012 40.5179 58.4836 40.5179 58.2676 40.5179H5.72383C5.50959 40.5179 5.29535 40.5179 5.07855 40.5162C4.89931 40.5162 4.72007 40.5136 4.54509 40.5094C4.18485 40.5047 3.82542 40.4739 3.46963 40.4172C3.15322 40.3643 2.84671 40.2636 2.56061 40.1184C2.28015 39.9763 2.02426 39.7901 1.80267 39.5671C1.5804 39.3452 1.39485 39.0893 1.25299 38.8091C1.10865 38.5231 1.00823 38.2169 0.955109 37.901C0.897069 37.5456 0.865968 37.1864 0.862074 36.8263C0.857812 36.6483 0.855252 36.4702 0.854392 36.292L0.853538 35.7714V6.00082L0.854392 5.48101C0.855245 5.30263 0.857806 5.12424 0.862074 4.94499C0.870609 4.61979 0.888533 4.23741 0.955109 3.86868C1.00784 3.55289 1.10828 3.24696 1.25299 2.96137C1.53938 2.39751 1.9976 1.93928 2.56147 1.6529C2.84721 1.50872 3.1531 1.40858 3.46878 1.35587C3.8247 1.29786 4.18449 1.26676 4.54509 1.26283C4.72348 1.25856 4.90187 1.256 5.07941 1.25515L5.73151 1.25344H58.2685ZM58.2685 0.399902H5.73151L5.07514 0.400756C4.89077 0.401609 4.70641 0.40417 4.52205 0.409291C4.11881 0.414655 3.71654 0.450032 3.31856 0.51513C2.92045 0.58353 2.53471 0.710672 2.17396 0.892394C1.45049 1.26237 0.862098 1.85106 0.492492 2.57472C0.310274 2.93526 0.183107 3.32108 0.115228 3.71931C0.0494241 4.11722 0.0137586 4.51952 0.00853538 4.9228C0.00426769 5.10631 0.00170708 5.29068 0.000853538 5.47504L0 6.13141V35.6399L0.000853538 36.2972C0.00170708 36.4815 0.00426769 36.6659 0.00938892 36.8494C0.0204849 37.2506 0.044384 37.6551 0.116081 38.052C0.187778 38.4557 0.30642 38.8305 0.492492 39.1966C0.860544 39.9217 1.44973 40.5109 2.17482 40.8789C2.54098 41.0659 2.91569 41.1837 3.31856 41.2562C3.71545 41.3271 4.12003 41.351 4.52205 41.362C4.70641 41.3672 4.88992 41.3697 5.07514 41.3697C5.29364 41.3714 5.513 41.3714 5.73151 41.3714H58.2685C58.487 41.3714 58.7064 41.3714 58.9249 41.3697C59.1092 41.3689 59.2936 41.3663 59.478 41.362C59.8791 41.351 60.2837 41.3271 60.6814 41.2562C61.0793 41.1878 61.4647 41.0607 61.8252 40.8789C62.5505 40.5112 63.1398 39.922 63.5075 39.1966C63.6944 38.8305 63.8122 38.4557 63.8839 38.052C63.9556 37.6551 63.9787 37.2506 63.9898 36.8494C63.9949 36.665 63.9974 36.4807 63.9983 36.2972C64 36.0778 64 35.8593 64 35.6399V6.13141C64 5.91205 64 5.69355 63.9983 5.47419C63.9976 5.29008 63.9947 5.10599 63.9898 4.92195C63.9848 4.51869 63.9494 4.11639 63.8839 3.71846C63.8163 3.32027 63.6895 2.93445 63.5075 2.57386C63.1386 1.84938 62.5497 1.26041 61.8252 0.89154C61.4647 0.709828 61.0793 0.582685 60.6814 0.514276C60.2835 0.449251 59.8812 0.413874 59.478 0.408438C59.2927 0.403316 59.1084 0.401609 58.9249 0.399902H58.2685V0.399902Z" fill="black"/>
</svg>
