<svg width="60" height="26" viewBox="0 0 60 26" fill="none" xmlns="http://www.w3.org/2000/svg">
<path d="M11.3822 3.29105C12.0803 2.39349 12.5789 1.19675 12.4294 0C11.3822 0.0498644 10.1356 0.698101 9.38762 1.5458C8.73938 2.29376 8.14101 3.54037 8.2906 4.68725C9.48735 4.83684 10.6342 4.18861 11.3822 3.29105ZM12.4294 4.98644C10.734 4.88671 9.28789 5.93386 8.49006 5.93386C7.69223 5.93386 6.44561 5.0363 5.09927 5.0363C3.35401 5.08617 1.75835 6.03359 0.86079 7.62925C-0.934332 10.7707 0.362145 15.4081 2.15727 17.9512C3.00496 19.1978 4.05212 20.594 5.39846 20.5441C6.69494 20.4943 7.19358 19.6964 8.73938 19.6964C10.2852 19.6964 10.734 20.5441 12.1302 20.4943C13.5264 20.4444 14.4239 19.2477 15.2716 17.9512C16.2689 16.5051 16.6678 15.1089 16.6678 15.059C16.618 15.0092 13.9253 14.0119 13.9253 10.9203C13.8754 8.32735 16.0196 7.08074 16.1193 7.03088C14.9724 5.23576 13.0776 5.0363 12.4294 4.98644Z" fill="white"/>
<path d="M27.0895 1.44604C30.7794 1.44604 33.3225 3.98913 33.3225 7.62923C33.3225 11.3192 30.7296 13.8623 26.9897 13.8623H22.9507V20.2948H20.0087V1.44604H27.0895ZM22.9507 11.4189H26.2916C28.8347 11.4189 30.2808 10.0227 30.2808 7.67909C30.2808 5.2856 28.8347 3.93926 26.2916 3.93926H22.9008V11.4189H22.9507ZM34.0705 16.4552C34.0705 14.0617 35.9155 12.5658 39.2065 12.3663L42.9962 12.1669V11.1197C42.9962 9.57394 41.9491 8.67638 40.2537 8.67638C38.6081 8.67638 37.6109 9.47421 37.3615 10.671H34.6689C34.8184 8.17774 36.9626 6.33275 40.3534 6.33275C43.6943 6.33275 45.8385 8.07801 45.8385 10.8704V20.3446H43.1458V18.1007H43.0959C42.2981 19.6465 40.5529 20.594 38.7577 20.594C35.9653 20.594 34.0705 18.8986 34.0705 16.4552ZM42.9962 15.2086V14.1116L39.6054 14.3111C37.91 14.4108 36.9626 15.1588 36.9626 16.3555C36.9626 17.5522 37.9599 18.3501 39.4558 18.3501C41.4504 18.3501 42.9962 17.0037 42.9962 15.2086ZM48.3317 25.4308V23.1371C48.5312 23.1869 49.0298 23.1869 49.2293 23.1869C50.5258 23.1869 51.2239 22.6384 51.6726 21.2422C51.6726 21.1923 51.922 20.3945 51.922 20.3945L46.9355 6.63194H49.9772L53.4678 17.8514H53.5176L57.0081 6.63194H60L54.864 21.1425C53.6672 24.4834 52.3209 25.5305 49.4786 25.5305C49.2791 25.4807 48.581 25.4807 48.3317 25.4308Z" fill="white"/>
</svg>
