<svg width="18" height="18" viewBox="0 0 18 18" fill="none" xmlns="http://www.w3.org/2000/svg">
<circle opacity="0.5" cx="9" cy="9" r="9" fill="#2595DF"/>
<path d="M6.9231 6.14995V4.64466C7.65445 4.31743 8.38834 4.15381 9.12477 4.15381C9.56663 4.15381 9.98055 4.2138 10.3665 4.33379C10.7525 4.44832 11.1055 4.62557 11.4255 4.86555C11.7454 5.10006 11.9968 5.42457 12.1797 5.83907C12.3676 6.24812 12.4616 6.72533 12.4616 7.27073C12.4616 8.08882 12.1898 8.78965 11.6464 9.37322C11.103 9.95679 10.3488 10.3222 9.38379 10.4695V11.5902H8.04298L7.87538 9.28323C8.25121 9.28323 8.60673 9.2505 8.94193 9.18506C9.27713 9.11415 9.5971 9.0078 9.90183 8.866C10.2066 8.71874 10.4478 8.50877 10.6256 8.23607C10.8084 7.96338 10.8998 7.64159 10.8998 7.27073C10.8998 6.79078 10.7398 6.40355 10.4199 6.10904C10.0999 5.80908 9.63011 5.65909 9.01049 5.65909C8.43659 5.65909 7.74079 5.82271 6.9231 6.14995ZM7.70016 13.9872C7.70016 13.5782 7.80681 13.2646 8.02012 13.0464C8.23851 12.8283 8.50769 12.7192 8.82766 12.7192C9.13746 12.7192 9.39648 12.8283 9.60472 13.0464C9.81295 13.2646 9.91706 13.5782 9.91706 13.9872C9.91706 14.3854 9.81295 14.6935 9.60472 14.9117C9.39648 15.1244 9.13746 15.2307 8.82766 15.2307C8.50769 15.2307 8.23851 15.1244 8.02012 14.9117C7.80681 14.6935 7.70016 14.3854 7.70016 13.9872Z" fill="white"/>
</svg>
