<svg width="113" height="152" viewBox="0 0 113 152" fill="none" xmlns="http://www.w3.org/2000/svg">
<circle cx="67.1219" cy="41.626" r="41.626" fill="#E3F2FB"/>
<path fill-rule="evenodd" clip-rule="evenodd" d="M50.17 38.5433C52.2534 39.8004 54.3005 40.4077 55.2614 40.1598C57.671 39.538 57.8925 30.714 56.0281 27.2352C54.1637 23.7565 44.5792 22.2402 44.0961 29.1327C43.9284 31.5249 44.9318 33.6597 46.4144 35.4017L43.7561 47.8047H51.4777L50.17 38.5433Z" fill="#D7BABA"/>
<path fill-rule="evenodd" clip-rule="evenodd" d="M50.5559 29.8935C51.2238 28.8979 51.865 28.1386 52.6992 27.6976C56.0938 27.7513 56.4912 27.1421 56.4912 25.0888C55.9429 24.6961 54.0083 24.0348 51.8418 23.8487C50.7366 23.5321 49.4273 23.5917 48.1661 24.1198C46.6091 24.562 45.2908 25.5144 44.7085 27.2974C42.6016 30.937 44.2007 34.7258 46.3557 36.02C46.9293 35.3397 47.4299 34.6804 47.8766 34.0493C47.5178 33.6984 47.295 33.2086 47.295 32.6669C47.295 31.5996 48.1593 30.7344 49.2255 30.7344C49.3038 30.7344 49.3811 30.7391 49.457 30.7482C49.505 32.0826 49.7024 36.5969 50.221 38.165C50.8324 40.0137 54.4001 40.4677 55.6444 40.4677C56.7192 40.4677 56.6825 39.4489 56.6563 38.7188C56.6525 38.6136 56.6489 38.5145 56.6489 38.4252C56.6489 38.2387 56.4066 38.2391 56.1328 38.2397C55.7772 38.2404 55.3686 38.2412 55.3686 37.8328C55.3686 37.3877 55.9831 37.0462 56.533 36.7407C56.8761 36.5501 57.194 36.3734 57.3219 36.1943C57.7252 35.6291 57.8611 34.8669 57.2526 34.8669C56.92 34.8669 56.4637 35.0588 55.9147 35.2897C55.0859 35.6384 54.0459 36.0758 52.9015 36.0758C51.0116 36.0758 50.5617 29.9734 50.5559 29.8935Z" fill="#191847"/>
<path fill-rule="evenodd" clip-rule="evenodd" d="M33.052 88.0635C24.2154 88.0635 17.052 95.2269 17.052 104.063V112C17.052 120.837 24.2155 128 33.052 128H48.347C57.1835 128 64.347 120.837 64.347 112V104.063C64.347 95.2269 57.1835 88.0635 48.3469 88.0635H33.052ZM30.0606 97.0815C27.8514 97.0815 26.0606 98.8724 26.0606 101.081V114.982C26.0606 117.191 27.8514 118.982 30.0606 118.982H51.3384C53.5476 118.982 55.3384 117.191 55.3384 114.982V101.081C55.3384 98.8724 53.5476 97.0815 51.3384 97.0815H30.0606Z" fill="#C5CFD6"/>
<path fill-rule="evenodd" clip-rule="evenodd" d="M96.2497 126.39C89.9065 118.636 85.6144 112.888 83.3737 109.145C79.537 102.736 76.3968 97.033 75.4059 94.8545C73.0428 89.6598 80.846 87.2273 82.6121 89.6503C85.285 93.3176 90.9936 104.858 99.7377 124.27L96.2497 126.39Z" fill="#D7BABA"/>
<path fill-rule="evenodd" clip-rule="evenodd" d="M83.2512 124.135L71.446 94.3878C68.9211 88.965 81.1143 85.4005 82.9699 87.9242C87.1827 93.6536 97.1956 116.256 98.4507 117.963L83.2512 124.135Z" fill="#96C7E4"/>
<path fill-rule="evenodd" clip-rule="evenodd" d="M51.8099 118.17C54.1095 114.812 62.4739 103.515 67.0298 98.8405C68.339 97.4973 69.6164 96.2081 70.8246 95.0067C74.4159 91.4357 81.5673 97.4378 77.9827 100.69C69.0556 108.791 56.0304 119.725 54.9421 120.7C53.4169 122.067 50.3646 120.28 51.8099 118.17Z" fill="#D7BABA"/>
<path fill-rule="evenodd" clip-rule="evenodd" d="M54.2532 117.914C53.4062 117.105 52.0778 116.805 51.2742 117.657C51.0739 117.869 50.9039 118.075 50.8016 118.253C50.3665 119.007 49.7828 120.6 49.7828 120.6C50.6571 121.105 65.4981 129.682 65.4981 129.682C65.4981 129.682 67.2799 128.009 66.0533 127.085C64.8267 126.16 64.0289 125.525 64.0289 125.525L59.0145 118.61C58.6836 118.153 58.0415 118.06 57.5953 118.404L57.0209 118.847C57.0209 118.847 55.4699 118.711 54.7061 118.27C54.562 118.187 54.4081 118.062 54.2532 117.914Z" fill="#193040"/>
<path fill-rule="evenodd" clip-rule="evenodd" d="M95.8023 125.369C94.6639 125.092 93.3631 125.498 93.0926 126.638C93.0252 126.922 92.9812 127.185 92.9812 127.39C92.9812 128.261 93.2712 129.932 93.2712 129.932C94.2807 129.932 111.418 129.932 111.418 129.932C111.418 129.932 112.125 127.592 110.601 127.405C109.077 127.218 108.069 127.068 108.069 127.068L100.273 123.589C99.7578 123.359 99.155 123.6 98.9403 124.121L98.6641 124.792C98.6641 124.792 97.2533 125.451 96.3712 125.451C96.2052 125.451 96.01 125.42 95.8023 125.369Z" fill="#193040"/>
<path fill-rule="evenodd" clip-rule="evenodd" d="M67.1981 95.8737C67.1981 95.8737 52.4803 93.4734 47.4817 92.5911C37.9831 90.9145 35.2132 85.7978 36.8509 74.6338L54.3519 74.6338C57.8259 75.6381 83.3831 87.0559 83.3831 87.0559C86.4486 88.5792 85.8777 93.0708 85.3174 94.5506C85.2831 94.6411 69.8139 121.144 69.8139 121.144L55.4973 112.014L67.225 96.9495C67.225 96.9495 67.6896 96.0128 67.1981 95.8737Z" fill="#C3E4F8"/>
<path fill-rule="evenodd" clip-rule="evenodd" d="M69.2848 48.3484L58.1174 54.4711L62.2413 58.902L70.3558 51.4646C74.6304 50.2853 76.5852 49.4226 76.2203 48.8765C75.9126 48.416 75.4163 48.432 74.9592 48.4467C74.603 48.4582 74.2707 48.4689 74.0698 48.253C73.6109 47.76 74.4864 46.0361 75.3871 44.4358C76.2878 42.8355 75.3247 42.9748 74.7739 43.205C72.9715 44.4264 71.1418 46.1408 69.2848 48.3484ZM80.5129 56.9394L75.6076 59.6369L75.8869 64.5647C75.8869 64.5647 79.064 62.2693 81.7972 61.5064C85.2823 60.5336 86.6923 59.7908 88.3954 57.6186C89.3066 56.4564 90.0799 54.1199 89.2126 53.359C88.8799 53.0672 87.6403 53.7567 86.3754 54.4603C85.4115 54.9965 84.4329 55.5409 83.83 55.6651C83.0183 55.8324 83.1134 54.7793 83.1893 53.9378C83.2438 53.3339 83.2884 52.839 82.9812 52.9821C81.5453 53.0068 80.5129 56.9394 80.5129 56.9394Z" fill="#D7BABA"/>
<path fill-rule="evenodd" clip-rule="evenodd" d="M52.679 53.1075C56.5905 53.0661 61.8065 52.2391 67.3721 48.7026L69.5578 53.582C65.7188 57.3958 60.3208 60.5294 55.601 60.3967C51.8815 60.2921 49.9805 55.7883 52.679 53.1075Z" fill="#D5B924"/>
<path fill-rule="evenodd" clip-rule="evenodd" d="M42.1295 86.5361C38.4109 86.0508 34.994 85.6048 32.9691 86.0039C30.6972 78.6178 32.5837 73.9674 34.3253 69.6744C35.3749 67.087 36.3718 64.6295 36.3739 61.7811C36.3801 53.4863 43.0335 40.7188 44.0124 40.7188H44.2933H52.0513H52.9395C53.3386 45.8517 55.042 51.4093 56.7564 57.0025C57.1568 58.3087 57.5577 59.6169 57.9428 60.9221C64.4306 62.3962 78.8366 57.2646 78.8366 57.2646C78.8366 57.2646 82.4733 64.7963 82.1989 68.0037C73.8138 72.3883 66.627 74.3432 60.706 74.4723C60.8941 77.9893 60.4665 81.3357 59.03 84.3935C57.1052 88.4906 49.089 87.4444 42.1295 86.5361Z" fill="#F2D640"/>
<path d="M97.4413 29.7719C97.5019 29.546 97.4702 29.3053 97.3532 29.1027C97.2363 28.9002 97.0436 28.7524 96.8177 28.6918L93.1296 27.7036C94.7787 32.7836 94.6158 38.0253 93.8692 43.1034L97.4413 29.7719Z" fill="#EEEEEE"/>
<path d="M93.1293 27.7032L87.1118 26.0908C85.4861 33.9453 83.947 44.7169 92.5621 47.0513C92.7705 46.878 92.92 46.6444 92.99 46.3826L93.8688 43.103C94.6155 38.0249 94.7783 32.7831 93.1293 27.7032Z" fill="#DDE3E8"/>
<path d="M87.1119 26.091L85.7435 25.7243C85.5175 25.6638 85.2768 25.6955 85.0742 25.8124C84.8717 25.9294 84.7239 26.122 84.6633 26.3479L80.0983 43.3849C80.0378 43.6109 80.0695 43.8516 80.1864 44.0541C80.3033 44.2567 80.496 44.4045 80.7219 44.465L91.37 47.3182C91.5755 47.3732 91.7913 47.3776 91.9989 47.3312C92.2064 47.2848 92.3997 47.1888 92.5622 47.0515C83.948 44.7173 85.4862 33.9455 87.1119 26.091Z" fill="#B8C9D7"/>
<path d="M88.4274 37.856C87.585 37.6303 86.8285 37.1599 86.2534 36.5042C85.6784 35.8485 85.3107 35.037 85.1969 34.1724C85.0831 33.3077 85.2282 32.4287 85.6139 31.6465C85.9996 30.8644 86.6086 30.2141 87.3639 29.7781C88.1192 29.342 88.9868 29.1397 89.8571 29.1967C90.7273 29.2538 91.5611 29.5676 92.253 30.0985C92.9449 30.6294 93.4638 31.3536 93.7442 32.1794C94.0245 33.0052 94.0536 33.8957 93.8279 34.7381C93.5241 35.867 92.7849 36.8293 91.7724 37.4138C90.76 37.9983 89.557 38.1574 88.4274 37.856ZM90.4817 30.1894C89.8078 30.0088 89.0954 30.0321 88.4348 30.2564C87.7741 30.4807 87.1948 30.8958 86.77 31.4493C86.3453 32.0029 86.0943 32.6699 86.0486 33.3661C86.003 34.0623 86.1648 34.7564 86.5137 35.3606C86.8625 35.9648 87.3827 36.452 88.0085 36.7606C88.6342 37.0692 89.3374 37.1853 90.0291 37.0942C90.7208 37.0032 91.37 36.709 91.8946 36.249C92.4191 35.789 92.7955 35.1837 92.9761 34.5098C93.2171 33.6062 93.0899 32.6438 92.6222 31.8338C92.1546 31.0239 91.3848 30.4325 90.4817 30.1894Z" fill="#41535E"/>
<path d="M91.1194 43.1423L83.4528 41.088C83.3398 41.0578 83.2435 40.9839 83.1851 40.8826C83.1266 40.7813 83.1107 40.661 83.141 40.548C83.1713 40.435 83.2452 40.3387 83.3465 40.2802C83.4477 40.2218 83.5681 40.2059 83.6811 40.2362L91.3477 42.2905C91.4606 42.3207 91.557 42.3946 91.6154 42.4959C91.6739 42.5972 91.6898 42.7176 91.6595 42.8305C91.6292 42.9435 91.5553 43.0398 91.454 43.0983C91.3528 43.1567 91.2324 43.1726 91.1194 43.1423Z" fill="#41535E"/>
<path d="M88.9592 44.3899L82.9963 42.7921C82.8833 42.7619 82.787 42.688 82.7285 42.5867C82.67 42.4854 82.6542 42.3651 82.6845 42.2521C82.7147 42.1391 82.7886 42.0428 82.8899 41.9843C82.9912 41.9259 83.1115 41.91 83.2245 41.9403L89.1875 43.5381C89.3004 43.5683 89.3967 43.6422 89.4552 43.7435C89.5137 43.8448 89.5295 43.9652 89.4993 44.0781C89.469 44.1911 89.3951 44.2874 89.2938 44.3459C89.1925 44.4043 89.0722 44.4202 88.9592 44.3899Z" fill="#41535E"/>
<path d="M89.1122 35.3004C88.6978 35.1893 88.2643 35.0576 87.819 34.9082C86.9967 34.6351 86.1919 34.312 85.4091 33.9406C85.3547 33.9172 85.3055 33.883 85.2646 33.8402C85.2237 33.7973 85.1918 33.7467 85.1709 33.6912C85.15 33.6358 85.1405 33.5767 85.143 33.5175C85.1454 33.4583 85.1597 33.4002 85.1851 33.3467C85.2105 33.2931 85.2464 33.2453 85.2907 33.2059C85.335 33.1666 85.3868 33.1366 85.443 33.1177C85.4991 33.0988 85.5585 33.0914 85.6176 33.096C85.6767 33.1006 85.7342 33.117 85.7868 33.1444C86.5381 33.4999 87.3101 33.8097 88.0988 34.072C88.9181 34.3494 89.754 34.5749 90.6017 34.7472C91.4171 34.9107 92.2413 35.0271 93.0701 35.0959C93.1293 35.0985 93.1874 35.1131 93.2408 35.1387C93.2943 35.1642 93.342 35.2003 93.3812 35.2447C93.4204 35.2892 93.4502 35.3411 93.4689 35.3973C93.4876 35.4535 93.4948 35.5129 93.49 35.572C93.4853 35.631 93.4686 35.6885 93.4411 35.741C93.4137 35.7935 93.3759 35.8399 93.33 35.8775C93.2842 35.915 93.2313 35.943 93.1744 35.9596C93.1176 35.9763 93.0579 35.9813 92.9991 35.9744C92.1358 35.9032 91.2773 35.7822 90.428 35.6118C90.0021 35.5247 89.5594 35.4202 89.1122 35.3004Z" fill="#41535E"/>
<path d="M93.4254 34.078C93.3995 34.0712 93.3743 34.0618 93.3502 34.0501C92.599 33.6946 91.8269 33.3848 91.0383 33.1225C90.2189 32.8453 89.383 32.6198 88.5354 32.4473C87.7199 32.2838 86.8958 32.1674 86.0669 32.0985C86.0077 32.0959 85.9497 32.0814 85.8962 32.0558C85.8428 32.0302 85.795 31.9941 85.7558 31.9497C85.7166 31.9053 85.6868 31.8534 85.6681 31.7972C85.6494 31.741 85.6422 31.6815 85.647 31.6225C85.6518 31.5634 85.6684 31.5059 85.6959 31.4534C85.7234 31.401 85.7612 31.3546 85.807 31.317C85.8528 31.2794 85.9058 31.2515 85.9626 31.2348C86.0195 31.2182 86.0791 31.2132 86.138 31.2201C87.0013 31.2912 87.8598 31.4123 88.7091 31.5826C89.5925 31.7627 90.4639 31.9977 91.318 32.2862C92.1405 32.5586 92.9455 32.881 93.7285 33.2517C93.8275 33.2991 93.9053 33.3816 93.9466 33.4833C93.988 33.585 93.9899 33.6984 93.9521 33.8014C93.9143 33.9044 93.8394 33.9896 93.7421 34.0404C93.6448 34.0911 93.5321 34.1038 93.426 34.0759L93.4254 34.078Z" fill="#41535E"/>
<path d="M87.6007 37.5343C87.5044 37.5084 87.4197 37.4507 87.3605 37.3706C87.3012 37.2905 87.2708 37.1926 87.2743 37.093C87.3684 34.4132 88.0713 31.79 89.3297 29.4221C89.3569 29.3709 89.3938 29.3256 89.4385 29.2887C89.4832 29.2519 89.5347 29.2242 89.5901 29.2072C89.6455 29.1902 89.7037 29.1843 89.7614 29.1898C89.8191 29.1954 89.8751 29.2122 89.9262 29.2393C89.9774 29.2665 90.0227 29.3035 90.0596 29.3482C90.0965 29.3929 90.1242 29.4444 90.1412 29.4998C90.1581 29.5552 90.164 29.6134 90.1585 29.671C90.153 29.7287 90.1362 29.7847 90.109 29.8359C88.9128 32.0855 88.2449 34.578 88.1561 37.1243C88.1541 37.1822 88.1407 37.2392 88.1167 37.2919C88.0927 37.3447 88.0585 37.3922 88.0161 37.4317C87.9737 37.4712 87.9239 37.502 87.8696 37.5223C87.8153 37.5425 87.7576 37.5519 87.6997 37.5498C87.6662 37.5483 87.633 37.5431 87.6007 37.5343Z" fill="#41535E"/>
<path d="M89.3043 37.9909C89.2719 37.9822 89.2406 37.97 89.2109 37.9545C89.1597 37.9273 89.1144 37.8903 89.0775 37.8456C89.0406 37.8009 89.0129 37.7494 88.996 37.6939C88.979 37.6385 88.9731 37.5803 88.9787 37.5226C88.9843 37.4649 89.0012 37.4089 89.0284 37.3578C89.6245 36.2367 90.0915 35.0517 90.4204 33.8254C90.7489 32.5988 90.9372 31.3389 90.9816 30.0699C90.9871 29.9538 91.0383 29.8446 91.1239 29.766C91.2095 29.6874 91.3227 29.6457 91.4388 29.6502C91.5549 29.6546 91.6646 29.7046 91.744 29.7895C91.8235 29.8744 91.8662 29.9871 91.8629 30.1033C91.8157 31.4381 91.6176 32.7633 91.2723 34.0536C90.9262 35.3444 90.435 36.5919 89.808 37.7721C89.7612 37.8602 89.6859 37.9297 89.5944 37.9695C89.5029 38.0092 89.4006 38.0168 89.3043 37.9909Z" fill="#41535E"/>
<path d="M90.663 44.846C90.6075 44.8304 90.5556 44.8041 90.5103 44.7686C90.4645 44.7331 90.425 44.6902 90.3937 44.6415C90.3646 44.5912 90.3459 44.5356 90.3386 44.478C90.3313 44.4204 90.3356 44.3619 90.3512 44.306C90.383 44.1936 90.456 44.0974 90.5557 44.0367C90.5809 44.0238 90.6068 44.0124 90.6333 44.0027C90.6614 43.9929 90.6906 43.9869 90.7203 43.9849C90.7477 43.979 90.7758 43.9774 90.8038 43.9799C90.8766 43.9843 90.9473 44.0066 91.0095 44.0447C91.0717 44.0829 91.1236 44.1358 91.1605 44.1987C91.2165 44.3012 91.2317 44.421 91.203 44.5342C91.1886 44.5905 91.163 44.6433 91.1279 44.6895C91.0928 44.7358 91.0488 44.7745 90.9985 44.8036C90.9482 44.8326 90.8926 44.8513 90.835 44.8586C90.7774 44.8659 90.7189 44.8616 90.663 44.846Z" fill="#41535E"/>
</svg>
