<svg width="64" height="21" viewBox="0 0 64 21" fill="none" xmlns="http://www.w3.org/2000/svg">
<path d="M27.7333 20.614H22.5488L25.7916 0.563477H30.9757L27.7333 20.614Z" fill="#00579F"/>
<path d="M46.5273 1.05358C45.5047 0.647889 43.8827 0.199951 41.8772 0.199951C36.7574 0.199951 33.1521 2.9301 33.13 6.83339C33.0874 9.71323 35.7113 11.3128 37.6737 12.273C39.6795 13.2542 40.3613 13.8946 40.3613 14.7692C40.3409 16.1125 38.7405 16.7317 37.2479 16.7317C35.178 16.7317 34.0689 16.4124 32.3835 15.6651L31.7008 15.3448L30.9753 19.8457C32.1913 20.3996 34.4315 20.8912 36.7574 20.9128C42.1973 20.9128 45.7388 18.2249 45.7808 14.0653C45.8015 11.7828 44.416 10.0339 41.429 8.60473C39.6157 7.6873 38.5052 7.0687 38.5052 6.13001C38.5265 5.27667 39.4445 4.40262 41.4914 4.40262C43.1768 4.35981 44.4152 4.76494 45.3533 5.17035L45.8222 5.38326L46.5273 1.05358Z" fill="#00579F"/>
<path d="M53.4179 13.5108C53.8449 12.359 55.4878 7.90086 55.4878 7.90086C55.4662 7.94367 55.9139 6.72771 56.1699 5.98125L56.5322 7.70892C56.5322 7.70892 57.514 12.5084 57.7272 13.5108C56.9169 13.5108 54.4419 13.5108 53.4179 13.5108ZM59.8175 0.563477H55.8073C54.5706 0.563477 53.6311 0.925795 53.0976 2.22708L45.3967 20.6138H50.8366C50.8366 20.6138 51.7322 18.1391 51.9247 17.6061C52.5215 17.6061 57.8134 17.6061 58.5811 17.6061C58.7299 18.31 59.1997 20.6138 59.1997 20.6138H64L59.8175 0.563477Z" fill="#00579F"/>
<path d="M18.2184 0.563477L13.1411 14.236L12.5863 11.4631C11.6476 8.26346 8.70371 4.78713 5.41846 3.0586L10.0691 20.5928H15.5515L23.7005 0.563477H18.2184Z" fill="#00579F"/>
<path d="M8.4266 0.563477H0.0853345L0 0.968604C6.50671 2.63249 10.816 6.64323 12.5865 11.4639L10.7732 2.24891C10.4746 0.968321 9.55722 0.605719 8.4266 0.563477Z" fill="#FAA61A"/>
</svg>
