<svg xmlns="http://www.w3.org/2000/svg" viewBox="0 0 512 512"><g id="Слой_2" data-name="Слой 2"><path d="M75 512h167V330h-60v-60h60v-75a75.08 75.08 0 0175-75h75v60h-60a30 30 0 00-30 30v60h87.29l-10 60H302v182h135a75.08 75.08 0 0075-75V75a75.08 75.08 0 00-75-75H75A75.08 75.08 0 000 75v362a75.08 75.08 0 0075 75zM30 75c0-30.43 20.19-45 45-45h362a45.05 45.05 0 0145 45v362a45.05 45.05 0 01-45 45H332V360h72.71l20-120H332v-30h90V90H317a105.13 105.13 0 00-105 105v45h-60v120h60v122H75a45.05 45.05 0 01-45-45z" id="Слой_1-2" data-name="Слой 1"/></g></svg>