<svg xmlns="http://www.w3.org/2000/svg" viewBox="0 0 512.2 512.18"><g id="Слой_2" data-name="Слой 2"><g id="Слой_1-2" data-name="Слой 1"><path d="M428.17.08H95.39C58.64-.68 31.11 3.29 12 36.08A88.73 88.73 0 00.22 80.78L0 427.6c-.56 37.06 21.57 84.06 69.89 84.06l372 .28c23.3 3.19 70.3-26.45 70.3-74.85v-362c.04-45.43-36.02-75.77-84.02-75.01zm54.06 432.67c0 9.31-3.24 47.78-47.35 49.33H93.23c-29.65 2.36-57.53-3.64-63-41.06L30.3 70.8a41.78 41.78 0 017.4-24.09c13.54-19.19 35.44-16 42.12-16.06l361.19-1c13.51 3.58 41.22 11.46 41.22 45.42z"/><path d="M258.29 378.08c52.51 0 33.78-33.24 37.84-42.8-.06-7.14-.12-14 .12-18.18 3.33.94 11.18 4.91 27.39 20.67 25 25.31 31.43 40.31 51.65 40.31h37.22c11.8 0 17.94-4.88 21-9s5.87-10.92 2.69-21.75c-8.3-26.08-56.73-71.1-59.74-75.85.45-.88 1.18-2.05 1.56-2.65 9.56-12.63 46-67.29 51.41-89.16a.24.24 0 000-.12c2.9-10 .24-16.46-2.51-20.12-4.15-5.47-10.74-8.24-19.65-8.24h-37.22c-12.47 0-21.92 6.28-26.7 17.73-8 20.34-30.47 62.17-47.32 77-.52-21-.17-37 .1-48.9.55-23.21 2.3-45.81-21.79-45.81h-58.5c-15.1 0-29.54 16.49-13.9 36.06 13.67 17.15 4.91 26.71 7.86 74.29-11.49-12.33-31.94-45.62-46.4-88.16-4.06-11.51-10.2-22.18-27.48-22.18H98.7c-15.09 0-24.1 8.23-24.1 22 0 30.95 68.5 204.85 183.69 204.85zM135.93 173.91c3.28 0 3.61 0 6 6.91C156.78 224.43 190 289 214.26 289c18.22 0 18.22-18.68 18.22-25.71v-56c-1-18.53-7.75-27.76-12.18-33.35l53.06.06c0 .25-.3 61.93.15 76.88 0 21.22 16.85 33.38 43.15 6.76 27.76-31.33 47-78.15 47.72-80.06 1.13-2.72 2.12-3.64 5.69-3.64h37.37a.28.28 0 010 .13c-3.4 15.88-37 66.49-48.23 82.21-.18.24-.35.49-.52.75-4.94 8.08-9 17 .68 29.56.88 1 3.16 3.53 6.49 7 10.34 10.68 45.83 47.19 49 61.71-2.09.33-4.35.09-39.52.17-7.49 0-13.34-11.19-35.68-33.73-20.08-19.54-33.12-27.53-45-27.53-23.05 0-21.38 18.71-21.16 41.34.07 24.53-.08 16.77.09 18.32-1.35.52-5.21 1.58-15.26 1.58-96 0-158.47-152.32-160.87-181.43.83-.08 12.28 0 38.51 0z"/></g></g></svg>