<?xml version="1.0" standalone="no"?>
<!DOCTYPE svg PUBLIC "-//W3C//DTD SVG 1.0//EN" "http://www.w3.org/TR/2001/REC-SVG-20010904/DTD/svg10.dtd">
<svg xmlns="http://www.w3.org/2000/svg" xmlns:xlink="http://www.w3.org/1999/xlink" id="body_1" width="667" height="667">

<defs>
    <clipPath  id="1">

    <path id=""  clip-rule="evenodd" transform="matrix(1 0 0 1 0 0)"  d="M500 0L500 500L500 500L0 500L0 500L0 0L0 0L500 0z" />    </clipPath>
</defs>

<g transform="matrix(1.3333 0 0 1.3333 0 0)">
	<g clip-path="url(#1)" >
    <path id=""  transform="matrix(1 0 0 -1 0 500)"  d="M354.33786 266.71185C 363.61517 257.43454 378.78082 257.43454 388.0581 266.71185L388.0581 266.71185L394.45477 273.10852L394.45477 273.10852L396.74234 275.3961L396.74234 275.3961L397.75903 276.41275L397.75903 276.41275L416.4831 295.1368L416.4831 295.1368L416.4831 295.1368L416.4831 295.1368L416.4831 295.1368C 421.8207 300.47446 421.8207 309.1163 416.4831 314.45395L416.4831 314.45395L416.4831 314.45395C 411.1878 319.7492 402.63068 319.79156 397.29306 314.53867L397.29306 314.53867L397.29306 314.53867L397.29306 314.53867L388.22757 305.4732L388.22757 305.4732L388.22757 305.4732L388.22757 305.4732L388.22757 305.4732L388.22757 305.4732L388.22757 305.4732C 385.6011 302.84674 381.32254 302.84674 378.65372 305.4732L378.65372 305.4732L378.65372 305.4732C 376.02728 308.09967 376.02728 312.3782 378.65372 315.04703L378.65372 315.04703L378.65372 315.04703L378.65372 315.04703L397.2507 333.644L397.2507 333.644L392.37906 338.51566L392.37906 338.51566L373.78207 319.91867L373.78207 319.91867L373.78207 319.91867L373.78207 319.91867L373.78207 319.91867C 368.44446 314.58105 368.44446 305.93918 373.78207 300.60156L373.78207 300.60156L373.78207 300.60156C 379.1197 295.26392 387.76157 295.26392 393.0992 300.60156L393.0992 300.60156L393.0992 300.60156L393.0992 300.60156L393.0992 300.60156L393.0992 300.60156L402.07996 309.58234L402.07996 309.58234L402.07996 309.58234L402.07996 309.58234L402.07996 309.58234C 404.70642 312.2088 408.985 312.2088 411.6538 309.58234L411.6538 309.58234L411.6538 309.58234C 414.28024 306.95587 414.28024 302.67734 411.6538 300.05087L411.6538 300.05087L411.6538 300.05087L411.6538 300.05087L392.92975 281.3268L392.92975 281.3268L389.62552 278.02255L389.62552 278.02255L383.22882 271.6259L383.22882 271.6259L383.22882 271.6259L383.22882 271.6259L383.22882 271.6259C 376.62033 265.01736 365.86035 265.01736 359.25186 271.6259L359.25186 271.6259L359.25186 271.6259C 352.64337 278.23438 352.64337 288.99435 359.25186 295.60284L359.25186 295.60284L359.25186 295.60284L359.25186 295.60284L368.10556 304.4565L368.10556 304.4565L363.23392 309.32816L363.23392 309.32816L354.38022 300.4745L354.38022 300.4745L354.38022 300.4745L354.38022 300.4745L354.38022 300.4745C 345.06058 291.1548 345.06058 276.03152 354.33786 266.71185z" stroke="#FFFFFF" stroke-width="0.56482816" fill="#FCFCFC" fill-rule="nonzero" />
    <path id=""  transform="matrix(1 0 0 -1 0 500)"  d="M325.95526 334.0676L325.95526 334.0676L325.95526 334.0676L325.95526 334.0676L325.95526 334.0676L325.95526 334.0676C 328.5817 336.69406 332.8603 336.69406 335.48672 334.0676L335.48672 334.0676L335.48672 334.0676C 338.1132 331.44113 338.1132 327.16257 335.48672 324.49374L335.48672 324.49374L335.48672 324.49374L335.48672 324.49374L335.48672 324.49374L335.48672 324.49374L326.50595 315.51297L326.50595 315.51297L326.50595 315.51297L326.50595 315.51297L326.50595 315.51297C 321.16833 310.17532 321.16833 301.53348 326.50595 296.19583L326.50595 296.19583L326.50595 296.19583C 331.80124 290.90057 340.4431 290.8582 345.78073 296.19583L345.78073 296.19583L345.78073 296.19583L345.78073 296.19583L364.5048 314.9199L364.5048 314.9199L365.52145 315.93658L365.52145 315.93658L367.80902 318.22412L367.80902 318.22412L374.2057 324.62082L374.2057 324.62082L374.2057 324.62082C 383.52536 333.9405 383.52536 349.06378 374.2057 358.34106L374.2057 358.34106L374.2057 358.34106C 364.9284 367.61835 349.76276 367.61835 340.48547 358.34106L340.48547 358.34106L340.48547 358.34106L340.48547 358.34106L331.63177 349.4874L331.63177 349.4874L336.50342 344.61575L336.50342 344.61575L345.35712 353.46942L345.35712 353.46942L345.35712 353.46942L345.35712 353.46942L345.35712 353.46942C 351.9656 360.0779 362.7256 360.0779 369.33405 353.46942L369.33405 353.46942L369.33405 353.46942C 376.02728 346.9457 376.02728 336.1857 369.3764 329.57724L369.3764 329.57724L369.3764 329.57724L369.3764 329.57724L360.6498 320.85062L360.6498 320.85062L340.95145 301.15225L340.95145 301.15225L340.95145 301.15225L340.95145 301.15225L340.95145 301.15225C 338.28262 298.48346 334.00406 298.48346 331.3776 301.10986L331.3776 301.10986L331.3776 301.10986C 328.75116 303.73633 328.75116 307.97256 331.33524 310.64136L331.33524 310.64136L331.33524 310.64136L331.33524 310.64136L340.35837 319.66446L340.35837 319.66446L340.35837 319.66446C 345.69598 325.0021 345.69598 333.64395 340.35837 338.9816L340.35837 338.9816L340.35837 338.9816C 335.02075 344.31924 326.37888 344.31924 321.04126 338.9816L321.04126 338.9816L321.04126 338.9816L321.04126 338.9816L302.44427 320.38464L302.44427 320.38464L307.31592 315.513L307.31592 315.513L325.95526 334.0676z" stroke="#FFFFFF" stroke-width="0.56482816" fill="#FCFCFC" fill-rule="nonzero" />
    <path id=""  transform="matrix(1 0 0 -1 0 500)"  d="M262.58154 246.67456C 271.85883 237.39726 287.02448 237.39726 296.3018 246.67456L296.3018 246.67456L302.7408 253.07127L302.7408 253.07127L305.02838 255.35881L305.02838 255.35881L306.04507 256.3755L306.04507 256.3755L324.7691 275.09955L324.7691 275.09955L324.7691 275.09955L324.7691 275.09955L324.7691 275.09955C 330.10675 280.4372 330.10675 289.07904 324.7691 294.4167L324.7691 294.4167L324.7691 294.4167C 319.47385 299.71194 310.9167 299.7543 305.57907 294.5014L305.57907 294.5014L305.57907 294.5014L305.57907 294.5014L296.51358 285.43594L296.51358 285.43594L296.51358 285.43594L296.51358 285.43594L296.51358 285.43594L296.51358 285.43594L296.51358 285.43594C 293.88715 282.80948 289.60855 282.80948 286.93976 285.43594L286.93976 285.43594L286.93976 285.43594C 284.3133 288.06238 284.3133 292.34094 286.93976 295.00977L286.93976 295.00977L286.93976 295.00977L286.93976 295.00977L305.5367 313.60672L305.5367 313.60672L300.66507 318.47836L300.66507 318.47836L282.0681 299.8814L282.0681 299.8814L282.0681 299.8814L282.0681 299.8814L282.0681 299.8814C 276.73047 294.5438 276.73047 285.90192 282.0681 280.5643L282.0681 280.5643L282.0681 280.5643C 287.40573 275.22665 296.0476 275.22665 301.38522 280.5643L301.38522 280.5643L301.38522 280.5643L301.38522 280.5643L301.38522 280.5643L301.38522 280.5643L310.366 289.54507L310.366 289.54507L310.366 289.54507L310.366 289.54507L310.366 289.54507C 312.99243 292.17154 317.27103 292.17154 319.93982 289.54507L319.93982 289.54507L319.93982 289.54507C 322.56628 286.9186 322.56628 282.64005 319.93982 280.01358L319.93982 280.01358L319.93982 280.01358L319.93982 280.01358L301.21576 261.28955L301.21576 261.28955L297.91153 257.9853L297.91153 257.9853L291.51483 251.58861L291.51483 251.58861L291.51483 251.58861L291.51483 251.58861L291.51483 251.58861C 284.90637 244.98012 274.14636 244.98012 267.5379 251.58861L267.5379 251.58861L267.5379 251.58861C 260.9294 258.1971 260.9294 268.95706 267.5379 275.56558L267.5379 275.56558L267.5379 275.56558L267.5379 275.56558L276.39157 284.41925L276.39157 284.41925L271.51993 289.2909L271.51993 289.2909L262.66626 280.43723L262.66626 280.43723L262.66626 280.43723L262.66626 280.43723L262.66626 280.43723C 253.30423 271.07516 253.30423 255.95189 262.58154 246.67456z" stroke="#FFFFFF" stroke-width="0.56482816" fill="#FCFCFC" fill-rule="nonzero" />
    <path id=""  transform="matrix(1 0 0 -1 0 500)"  d="M233.05515 314.87756L233.05515 314.87756L233.05515 314.87756L233.05515 314.87756L233.05515 314.87756L233.05515 314.87756C 235.6816 317.50403 239.96017 317.50403 242.58661 314.87756L242.58661 314.87756L242.58661 314.87756C 245.21306 312.2511 245.21306 307.97256 242.58661 305.3037L242.58661 305.3037L242.58661 305.3037L242.58661 305.3037L242.58661 305.3037L242.58661 305.3037L233.60585 296.32294L233.60585 296.32294L233.60585 296.32294L233.60585 296.32294L233.60585 296.32294C 228.26822 290.9853 228.26822 282.34344 233.60585 277.0058L233.60585 277.0058L233.60585 277.0058C 238.90112 271.71054 247.54298 271.66818 252.88062 277.0058L252.88062 277.0058L252.88062 277.0058L252.88062 277.0058L271.60468 295.7299L271.60468 295.7299L272.62134 296.74655L272.62134 296.74655L274.9089 299.03412L274.9089 299.03412L281.3056 305.4308L281.3056 305.4308L281.3056 305.4308C 290.62524 314.75046 290.62524 329.87375 281.3056 339.15103L281.3056 339.15103L281.3056 339.15103C 272.0283 348.42834 256.86264 348.42834 247.58534 339.15103L247.58534 339.15103L247.58534 339.15103L247.58534 339.15103L238.73166 330.29736L238.73166 330.29736L243.6033 325.42572L243.6033 325.42572L252.45699 334.2794L252.45699 334.2794L252.45699 334.2794L252.45699 334.2794L252.45699 334.2794C 259.0655 340.88788 269.82544 340.88788 276.43396 334.2794L276.43396 334.2794L276.43396 334.2794C 283.04242 327.6709 283.04242 316.91092 276.43396 310.30243L276.43396 310.30243L276.43396 310.30243L276.43396 310.30243L267.70734 301.57584L267.70734 301.57584L248.00897 281.87744L248.00897 281.87744L248.00897 281.87744L248.00897 281.87744L248.00897 281.87744C 245.34015 279.20865 241.06158 279.20865 238.43513 281.83508L238.43513 281.83508L238.43513 281.83508C 235.80869 284.46152 235.80869 288.69775 238.39278 291.36655L238.39278 291.36655L238.39278 291.36655L238.39278 291.36655L247.41591 300.38968L247.41591 300.38968L247.41591 300.38968C 252.75352 305.7273 252.75352 314.36917 247.41591 319.70682L247.41591 319.70682L247.41591 319.70682C 242.07828 325.04443 233.43642 325.04443 228.0988 319.70682L228.0988 319.70682L228.0988 319.70682L228.0988 319.70682L209.50183 301.10983L209.50183 301.10983L214.37347 296.2382L214.37347 296.2382L233.05515 314.87756z" stroke="#FFFFFF" stroke-width="0.56482816" fill="#FCFCFC" fill-rule="nonzero" />
    <path id=""  transform="matrix(1 0 0 -1 0 500)"  d="M169.72379 227.44218C 179.00108 218.16489 194.16672 218.16489 203.44403 227.44218L203.44403 227.44218L209.84071 233.83887L209.84071 233.83887L212.12827 236.12642L212.12827 236.12642L213.14494 237.14311L213.14494 237.14311L231.869 255.86716L231.869 255.86716L231.869 255.86716L231.869 255.86716L231.869 255.86716C 237.20663 261.2048 237.20663 269.84665 231.869 275.1843L231.869 275.1843L231.869 275.1843C 226.57373 280.47955 218.01659 280.5219 212.67896 275.269L212.67896 275.269L212.67896 275.269L212.67896 275.269L203.61348 266.20352L203.61348 266.20352L203.61348 266.20352L203.61348 266.20352L203.61348 266.20352L203.61348 266.20352L203.61348 266.20352C 200.98703 263.5771 196.70845 263.5771 194.03963 266.20352L194.03963 266.20352L194.03963 266.20352C 191.41318 268.82996 191.41318 273.10855 194.03963 275.77737L194.03963 275.77737L194.03963 275.77737L194.03963 275.77737L212.6366 294.37433L212.6366 294.37433L207.76495 299.24597L207.76495 299.24597L189.16798 280.64902L189.16798 280.64902L189.16798 280.64902L189.16798 280.64902L189.16798 280.64902C 183.83035 275.3114 183.83035 266.66953 189.16798 261.3319L189.16798 261.3319L189.16798 261.3319C 194.50562 255.99426 203.14748 255.99426 208.48512 261.3319L208.48512 261.3319L208.48512 261.3319L208.48512 261.3319L208.48512 261.3319L208.48512 261.3319L217.46588 270.31265L217.46588 270.31265L217.46588 270.31265L217.46588 270.31265L217.46588 270.31265C 220.09233 272.93912 224.37091 272.93912 227.03972 270.31265L227.03972 270.31265L227.03972 270.31265C 229.66617 267.68622 229.66617 263.40762 227.03972 260.7812L227.03972 260.7812L227.03972 260.7812L227.03972 260.7812L208.31567 242.05713L208.31567 242.05713L205.01143 238.75288L205.01143 238.75288L198.61475 232.3562L198.61475 232.3562L198.61475 232.3562L198.61475 232.3562L198.61475 232.3562C 192.00624 225.74771 181.24628 225.74771 174.6378 232.3562L174.6378 232.3562L174.6378 232.3562C 168.0293 238.96469 168.0293 249.72467 174.6378 256.33316L174.6378 256.33316L174.6378 256.33316L174.6378 256.33316L183.49147 265.18683L183.49147 265.18683L178.61983 270.05847L178.61983 270.05847L169.76616 261.2048L169.76616 261.2048L169.76616 261.2048L169.76616 261.2048L169.76616 261.2048C 160.40411 251.8851 160.40411 236.76186 169.72379 227.44218z" stroke="#FFFFFF" stroke-width="0.56482816" fill="#FCFCFC" fill-rule="nonzero" />
    <path id=""  transform="matrix(1 0 0 -1 0 500)"  d="M375.85782 359.95087C 385.13513 350.67358 400.30075 350.67358 409.57806 359.95087L409.57806 359.95087L415.97473 366.34756L415.97473 366.34756L418.2623 368.6351L418.2623 368.6351L419.279 369.6518L419.279 369.6518L438.00305 388.37585L438.00305 388.37585L438.00305 388.37585L438.00305 388.37585L438.00305 388.37585C 443.34067 393.7135 443.34067 402.35535 438.00305 407.693L438.00305 407.693L438.00305 407.693C 432.70776 412.98825 424.15063 413.03064 418.813 407.77774L418.813 407.77774L418.813 407.77774L418.813 407.77774L409.7475 398.71225L409.7475 398.71225L409.7475 398.71225L409.7475 398.71225L409.7475 398.71225L409.7475 398.71225L409.7475 398.71225C 407.12106 396.0858 402.8425 396.0858 400.17368 398.71225L400.17368 398.71225L400.17368 398.71225C 397.5472 401.3387 397.5472 405.61725 400.17368 408.2861L400.17368 408.2861L400.17368 408.2861L400.17368 408.2861L418.77063 426.88306L418.77063 426.88306L413.899 431.7547L413.899 431.7547L395.30203 413.15775L395.30203 413.15775L395.30203 413.15775L395.30203 413.15775L395.30203 413.15775C 389.96442 407.8201 389.96442 399.17822 395.30203 393.8406L395.30203 393.8406L395.30203 393.8406C 400.63965 388.50296 409.28152 388.50296 414.61914 393.8406L414.61914 393.8406L414.61914 393.8406L414.61914 393.8406L414.61914 393.8406L414.61914 393.8406L423.5999 402.82138L423.5999 402.82138L423.5999 402.82138L423.5999 402.82138L423.5999 402.82138C 426.22638 405.44785 430.50494 405.44785 433.17377 402.82138L433.17377 402.82138L433.17377 402.82138C 435.8002 400.19492 435.8002 395.91638 433.17377 393.28992L433.17377 393.28992L433.17377 393.28992L433.17377 393.28992L414.4497 374.56583L414.4497 374.56583L411.14545 371.2616L411.14545 371.2616L404.74878 364.86493L404.74878 364.86493L404.74878 364.86493L404.74878 364.86493L404.74878 364.86493C 398.1403 358.25644 387.3803 358.25644 380.77182 364.86493L380.77182 364.86493L380.77182 364.86493C 374.16333 371.47342 374.16333 382.2334 380.77182 388.8419L380.77182 388.8419L380.77182 388.8419L380.77182 388.8419L389.58313 397.65317L389.58313 397.65317L384.7115 402.5248L384.7115 402.5248L375.85782 393.6711L375.85782 393.6711L375.85782 393.6711L375.85782 393.6711L375.85782 393.6711C 366.5805 384.35144 366.5805 369.22815 375.85782 359.95087z" stroke="#FFFFFF" stroke-width="0.56482816" fill="#FCFCFC" fill-rule="nonzero" />
    <path id=""  transform="matrix(1 0 0 -1 0 500)"  d="M346.33142 428.15387L346.33142 428.15387L346.33142 428.15387L346.33142 428.15387L346.33142 428.15387L346.33142 428.15387C 348.9579 430.78033 353.23645 430.78033 355.8629 428.15387L355.8629 428.15387L355.8629 428.15387C 358.48935 425.5274 358.48935 421.24887 355.8629 418.58005L355.8629 418.58005L355.8629 418.58005L355.8629 418.58005L355.8629 418.58005L355.8629 418.58005L346.88214 409.59924L346.88214 409.59924L346.88214 409.59924L346.88214 409.59924L346.88214 409.59924C 341.5445 404.26163 341.5445 395.61975 346.88214 390.28214L346.88214 390.28214L346.88214 390.28214C 352.1774 384.98685 360.81927 384.9445 366.1569 390.28214L366.1569 390.28214L366.1569 390.28214L366.1569 390.28214L384.88095 409.0062L384.88095 409.0062L385.89764 410.0229L385.89764 410.0229L388.1852 412.31042L388.1852 412.31042L394.6666 418.74948L394.6666 418.74948L394.6666 418.74948C 403.98627 428.06915 403.98627 443.1924 394.6666 452.46973L394.6666 452.46973L394.6666 452.46973C 385.38928 461.747 370.22366 461.747 360.94635 452.46973L360.94635 452.46973L360.94635 452.46973L360.94635 452.46973L352.09268 443.61606L352.09268 443.61606L356.96432 438.7444L356.96432 438.7444L365.818 447.59805L365.818 447.59805L365.818 447.59805L365.818 447.59805L365.818 447.59805C 372.42648 454.20654 383.18646 454.20654 389.79495 447.59805L389.79495 447.59805L389.79495 447.59805C 396.40344 440.98956 396.40344 430.22958 389.79495 423.6211L389.79495 423.6211L389.79495 423.6211L389.79495 423.6211L381.11072 414.9369L381.11072 414.9369L361.37 395.2385L361.37 395.2385L361.37 395.2385L361.37 395.2385L361.37 395.2385C 358.70117 392.5697 354.4226 392.5697 351.79614 395.19614L351.79614 395.19614L351.79614 395.19614C 349.16968 397.8226 349.16968 402.0588 351.75378 404.7276L351.75378 404.7276L351.75378 404.7276L351.75378 404.7276L360.77692 413.70834L360.77692 413.70834L360.77692 413.70834C 366.11453 419.046 366.11453 427.68787 360.77692 433.02548L360.77692 433.02548L360.77692 433.02548C 355.43927 438.36313 346.79742 438.36313 341.45978 433.02548L341.45978 433.02548L341.45978 433.02548L341.45978 433.02548L322.86282 414.42853L322.86282 414.42853L327.73447 409.51456L327.73447 409.51456L346.33142 428.15387z" stroke="#FFFFFF" stroke-width="0.56482816" fill="#FCFCFC" fill-rule="nonzero" />
    <path id=""  transform="matrix(1 0 0 -1 0 500)"  d="M283.00006 340.71844C 292.27737 331.44116 307.443 331.44116 316.7203 340.71844L316.7203 340.71844L323.11697 347.11514L323.11697 347.11514L325.40454 349.40268L325.40454 349.40268L326.42123 350.41937L326.42123 350.41937L345.1453 369.14343L345.1453 369.14343L345.1453 369.14343L345.1453 369.14343L345.1453 369.14343C 350.4829 374.48108 350.4829 383.12292 345.1453 388.46057L345.1453 388.46057L345.1453 388.46057C 339.85 393.75583 331.29288 393.7982 325.95526 388.5453L325.95526 388.5453L325.95526 388.5453L325.95526 388.5453L316.88977 379.47983L316.88977 379.47983L316.88977 379.47983L316.88977 379.47983L316.88977 379.47983L316.88977 379.47983L316.88977 379.47983C 314.2633 376.85336 309.98474 376.85336 307.31592 379.47983L307.31592 379.47983L307.31592 379.47983C 304.68945 382.1063 304.68945 386.38483 307.31592 389.05365L307.31592 389.05365L307.31592 389.05365L307.31592 389.05365L325.9129 407.65063L325.9129 407.65063L321.04126 412.52228L321.04126 412.52228L302.44427 393.9253L302.44427 393.9253L302.44427 393.9253L302.44427 393.9253L302.44427 393.9253C 297.10666 388.58768 297.10666 379.9458 302.44427 374.6082L302.44427 374.6082L302.44427 374.6082C 307.7819 369.27054 316.42377 369.27054 321.76138 374.6082L321.76138 374.6082L321.76138 374.6082L321.76138 374.6082L321.76138 374.6082L321.76138 374.6082L330.6998 383.58893L330.6998 383.58893L330.6998 383.58893L330.6998 383.58893L330.6998 383.58893C 333.32626 386.2154 337.60483 386.2154 340.27365 383.58893L340.27365 383.58893L340.27365 383.58893C 342.9001 380.96246 342.9001 376.6839 340.27365 374.05743L340.27365 374.05743L340.27365 374.05743L340.27365 374.05743L321.5496 355.33337L321.5496 355.33337L318.24536 352.02914L318.24536 352.02914L311.84866 345.63248L311.84866 345.63248L311.84866 345.63248L311.84866 345.63248L311.84866 345.63248C 305.24017 339.02396 294.4802 339.02396 287.8717 345.63248L287.8717 345.63248L287.8717 345.63248C 281.26324 352.24097 281.26324 363.00092 287.8717 369.60944L287.8717 369.60944L287.8717 369.60944L287.8717 369.60944L296.7254 378.4631L296.7254 378.4631L291.85376 383.33475L291.85376 383.33475L283.00006 374.48108L283.00006 374.48108L283.00006 374.48108L283.00006 374.48108L283.00006 374.48108C 273.6804 365.1614 273.6804 350.03812 283.00006 340.71844z" stroke="#FFFFFF" stroke-width="0.56482816" fill="#FCFCFC" fill-rule="nonzero" />
    <path id=""  transform="matrix(1 0 0 -1 0 500)"  d="M252.75352 407.22696L252.75352 407.22696L252.75352 407.22696L252.75352 407.22696L252.75352 407.22696L252.75352 407.22696C 255.37997 409.85342 259.65857 409.85342 262.285 407.22696L262.285 407.22696L262.285 407.22696C 264.91144 404.6005 264.91144 400.32196 262.285 397.65314L262.285 397.65314L262.285 397.65314L262.285 397.65314L262.285 397.65314L262.285 397.65314L253.30423 388.67233L253.30423 388.67233L253.30423 388.67233L253.30423 388.67233L253.30423 388.67233C 247.96661 383.33472 247.96661 374.69284 253.30423 369.35522L253.30423 369.35522L253.30423 369.35522C 258.5995 364.05994 267.24136 364.01758 272.57898 369.35522L272.57898 369.35522L272.57898 369.35522L272.57898 369.35522L291.30304 388.07928L291.30304 388.07928L292.31973 389.09595L292.31973 389.09595L294.6073 391.3835L294.6073 391.3835L301.00397 397.78018L301.00397 397.78018L301.00397 397.78018C 310.32364 407.09985 310.32364 422.22314 301.00397 431.50046L301.00397 431.50046L301.00397 431.50046C 291.72668 440.77774 276.56104 440.77774 267.28372 431.50046L267.28372 431.50046L267.28372 431.50046L267.28372 431.50046L258.43005 422.64676L258.43005 422.64676L263.3017 417.77512L263.3017 417.77512L272.15536 426.6288L272.15536 426.6288L272.15536 426.6288L272.15536 426.6288L272.15536 426.6288C 278.76385 433.2373 289.52383 433.2373 296.13232 426.6288L296.13232 426.6288L296.13232 426.6288C 302.7408 420.0203 302.7408 409.26035 296.13232 402.65182L296.13232 402.65182L296.13232 402.65182L296.13232 402.65182L287.40573 393.92523L287.40573 393.92523L267.70734 374.22687L267.70734 374.22687L267.70734 374.22687L267.70734 374.22687L267.70734 374.22687C 265.03854 371.55804 260.75995 371.55804 258.1335 374.18448L258.1335 374.18448L258.1335 374.18448C 255.50708 376.81094 255.50708 381.04715 258.09116 383.71597L258.09116 383.71597L258.09116 383.71597L258.09116 383.71597L267.1143 392.73907L267.1143 392.73907L267.1143 392.73907C 272.4519 398.07672 272.4519 406.71857 267.1143 412.0562L267.1143 412.0562L267.1143 412.0562C 261.77667 417.39383 253.1348 417.39383 247.79716 412.0562L247.79716 412.0562L247.79716 412.0562L247.79716 412.0562L229.2002 393.45926L229.2002 393.45926L234.07184 388.58762L234.07184 388.58762L252.75352 407.22696z" stroke="#FFFFFF" stroke-width="0.56482816" fill="#FCFCFC" fill-rule="nonzero" />
    <path id=""  transform="matrix(1 0 0 -1 0 500)"  d="M189.42216 319.83395C 198.69946 310.55664 213.8651 310.55664 223.14241 319.83395L223.14241 319.83395L229.5391 326.23062L229.5391 326.23062L231.82664 328.5182L231.82664 328.5182L232.84334 329.53485L232.84334 329.53485L251.56738 348.25894L251.56738 348.25894L251.56738 348.25894L251.56738 348.25894L251.56738 348.25894C 256.905 353.59656 256.905 362.23843 251.56738 367.57605L251.56738 367.57605L251.56738 367.57605C 246.27211 372.8713 237.71497 372.9137 232.37733 367.6608L232.37733 367.6608L232.37733 367.6608L232.37733 367.6608L223.31186 358.5953L223.31186 358.5953L223.31186 358.5953L223.31186 358.5953L223.31186 358.5953L223.31186 358.5953L223.31186 358.5953C 220.68541 355.96884 216.40683 355.96884 213.738 358.5953L213.738 358.5953L213.738 358.5953C 211.11156 361.22177 211.11156 365.50034 213.738 368.16916L213.738 368.16916L213.738 368.16916L213.738 368.16916L232.37733 386.76608L232.37733 386.76608L227.50569 391.63773L227.50569 391.63773L208.90874 373.04077L208.90874 373.04077L208.90874 373.04077L208.90874 373.04077L208.90874 373.04077C 203.5711 367.70312 203.5711 359.06128 208.90874 353.72363L208.90874 353.72363L208.90874 353.72363C 214.24637 348.386 222.88823 348.386 228.22586 353.72363L228.22586 353.72363L228.22586 353.72363L228.22586 353.72363L228.22586 353.72363L228.22586 353.72363L237.20663 362.7044L237.20663 362.7044L237.20663 362.7044L237.20663 362.7044L237.20663 362.7044C 239.83308 365.33087 244.11166 365.33087 246.78047 362.7044L246.78047 362.7044L246.78047 362.7044C 249.40692 360.07794 249.40692 355.7994 246.78047 353.17294L246.78047 353.17294L246.78047 353.17294L246.78047 353.17294L228.05641 334.44888L228.05641 334.44888L224.75217 331.14465L224.75217 331.14465L218.35547 324.74796L218.35547 324.74796L218.35547 324.74796L218.35547 324.74796L218.35547 324.74796C 211.74698 318.13947 200.98701 318.13947 194.37851 324.74796L194.37851 324.74796L194.37851 324.74796C 187.77002 331.35645 187.77002 342.11642 194.37851 348.7249L194.37851 348.7249L194.37851 348.7249L194.37851 348.7249L203.14748 357.53622L203.14748 357.53622L198.27583 362.40787L198.27583 362.40787L189.42216 353.5542L189.42216 353.5542L189.42216 353.5542L189.42216 353.5542L189.42216 353.5542C 180.10251 344.2769 180.10251 329.11127 189.42216 319.83395z" stroke="#FFFFFF" stroke-width="0.56482816" fill="#FCFCFC" fill-rule="nonzero" />
    <path id=""  transform="matrix(1 0 0 -1 0 500)"  d="M159.89577 388.03696L159.89577 388.03696L159.89577 388.03696L159.89577 388.03696L159.89577 388.03696L159.89577 388.03696C 162.5222 390.66342 166.80078 390.66342 169.42723 388.03696L169.42723 388.03696L169.42723 388.03696C 172.05368 385.4105 172.05368 381.13193 169.42723 378.4631L169.42723 378.4631L169.42723 378.4631L169.42723 378.4631L169.42723 378.4631L169.42723 378.4631L160.44647 369.48233L160.44647 369.48233L160.44647 369.48233L160.44647 369.48233L160.44647 369.48233C 155.10884 364.14468 155.10884 355.5028 160.44647 350.1652L160.44647 350.1652L160.44647 350.1652C 165.74173 344.86993 174.3836 344.82755 179.72124 350.1652L179.72124 350.1652L179.72124 350.1652L179.72124 350.1652L198.44528 368.88925L198.44528 368.88925L199.46196 369.90594L199.46196 369.90594L201.74951 372.19348L201.74951 372.19348L208.1462 378.59018L208.1462 378.59018L208.1462 378.59018C 217.46587 387.90985 217.46587 403.0331 208.1462 412.31042L208.1462 412.31042L208.1462 412.31042C 198.8689 421.5877 183.70326 421.5877 174.42595 412.31042L174.42595 412.31042L174.42595 412.31042L174.42595 412.31042L165.57228 403.45676L165.57228 403.45676L170.44392 398.5851L170.44392 398.5851L179.38232 407.52353L179.38232 407.52353L179.38232 407.52353L179.38232 407.52353L179.38232 407.52353C 185.99083 414.13202 196.7508 414.13202 203.3593 407.52353L203.3593 407.52353L203.3593 407.52353C 209.96779 400.915 209.96779 390.15506 203.3593 383.54654L203.3593 383.54654L203.3593 383.54654L203.3593 383.54654L194.63269 374.81995L194.63269 374.81995L174.93431 355.12158L174.93431 355.12158L174.93431 355.12158L174.93431 355.12158L174.93431 355.12158C 172.26549 352.45276 167.98692 352.45276 165.36046 355.0792L165.36046 355.0792L165.36046 355.0792C 162.73402 357.70566 162.73402 361.94186 165.3181 364.6107L165.3181 364.6107L165.3181 364.6107L165.3181 364.6107L174.34125 373.63382L174.34125 373.63382L174.34125 373.63382C 179.67888 378.97147 179.67888 387.6133 174.34125 392.95096L174.34125 392.95096L174.34125 392.95096C 169.00362 398.28857 160.36176 398.28857 155.02412 392.95096L155.02412 392.95096L155.02412 392.95096L155.02412 392.95096L136.42715 374.354L136.42715 374.354L141.29881 369.3976L141.29881 369.3976L159.89577 388.03696z" stroke="#FFFFFF" stroke-width="0.56482816" fill="#FCFCFC" fill-rule="nonzero" />
    <path id=""  transform="matrix(1 0 0 -1 0 500)"  d="M96.522064 300.64392C 105.79938 291.36664 120.965 291.36664 130.24231 300.64392L130.24231 300.64392L136.68134 307.04056L136.68134 307.04056L138.96889 309.32812L138.96889 309.32812L139.98557 310.34482L139.98557 310.34482L158.70964 329.06888L158.70964 329.06888L158.70964 329.06888L158.70964 329.06888L158.70964 329.06888C 164.04727 334.4065 164.04727 343.04837 158.70964 348.386L158.70964 348.386L158.70964 348.386C 153.41437 353.68127 144.85722 353.72363 139.51959 348.47073L139.51959 348.47073L139.51959 348.47073L139.51959 348.47073L130.45412 339.40524L130.45412 339.40524L130.45412 339.40524L130.45412 339.40524L130.45412 339.40524L130.45412 339.40524L130.45412 339.40524C 127.82767 336.77878 123.54907 336.77878 120.88028 339.40524L120.88028 339.40524L120.88028 339.40524C 118.253815 342.0317 118.253815 346.31027 120.88028 348.9791L120.88028 348.9791L120.88028 348.9791L120.88028 348.9791L139.47725 367.57605L139.47725 367.57605L134.6056 372.4477L134.6056 372.4477L116.00864 353.85074L116.00864 353.85074L116.00864 353.85074L116.00864 353.85074L116.00864 353.85074C 110.67102 348.51312 110.67102 339.87125 116.00864 334.5336L116.00864 334.5336L116.00864 334.5336C 121.34628 329.19598 129.98814 329.19598 135.32578 334.5336L135.32578 334.5336L135.32578 334.5336L135.32578 334.5336L135.32578 334.5336L135.32578 334.5336L144.30653 343.5144L144.30653 343.5144L144.30653 343.5144L144.30653 343.5144L144.30653 343.5144C 146.93298 346.14087 151.21156 346.14087 153.88037 343.5144L153.88037 343.5144L153.88037 343.5144C 156.50682 340.88794 156.50682 336.60938 153.88037 333.9829L153.88037 333.9829L153.88037 333.9829L153.88037 333.9829L135.15633 315.25885L135.15633 315.25885L131.85208 311.95462L131.85208 311.95462L125.45538 305.55792L125.45538 305.55792L125.45538 305.55792L125.45538 305.55792L125.45538 305.55792C 118.84689 298.94943 108.086914 298.94943 101.478455 305.55792L101.478455 305.55792L101.478455 305.55792C 94.869965 312.16644 94.869965 322.9264 101.478455 329.53488L101.478455 329.53488L101.478455 329.53488L101.478455 329.53488L110.33212 338.38858L110.33212 338.38858L105.46048 343.26022L105.46048 343.26022L96.60681 334.40652L96.60681 334.40652L96.60681 334.40652L96.60681 334.40652L96.60681 334.40652C 87.24475 325.04446 87.24475 309.92117 96.522064 300.64392z" stroke="#FFFFFF" stroke-width="0.56482816" fill="#FCFCFC" fill-rule="nonzero" />
    <path id=""  transform="matrix(1 0 0 -1 0 500)"  d="M366.02982 520.50323L366.02982 520.50323L366.02982 520.50323L366.02982 520.50323L366.02982 520.50323L366.02982 520.50323C 368.65625 523.1297 372.93484 523.1297 375.56128 520.50323L375.56128 520.50323L375.56128 520.50323C 378.18774 517.8768 378.18774 513.59827 375.56128 510.9294L375.56128 510.9294L375.56128 510.9294L375.56128 510.9294L375.56128 510.9294L375.56128 510.9294L366.5805 501.9486L366.5805 501.9486L366.5805 501.9486L366.5805 501.9486L366.5805 501.9486C 361.2429 496.611 361.2429 487.96912 366.5805 482.6315L366.5805 482.6315L366.5805 482.6315C 371.8758 477.33624 380.51764 477.29385 385.8553 482.6315L385.8553 482.6315L385.8553 482.6315L385.8553 482.6315L404.57935 501.35556L404.57935 501.35556L405.596 502.37225L405.596 502.37225L407.88358 504.6598L407.88358 504.6598L414.28024 511.0565L414.28024 511.0565L414.28024 511.0565C 423.5999 520.37616 423.5999 535.49945 414.28024 544.77673L414.28024 544.77673L414.28024 544.77673C 405.00296 554.054 389.8373 554.054 380.56003 544.77673L380.56003 544.77673L380.56003 544.77673L380.56003 544.77673L371.70633 535.92303L371.70633 535.92303L376.57797 531.0514L376.57797 531.0514L385.43167 539.9051L385.43167 539.9051L385.43167 539.9051L385.43167 539.9051L385.43167 539.9051C 392.04016 546.51355 402.80014 546.51355 409.4086 539.9051L409.4086 539.9051L409.4086 539.9051C 416.0171 533.2966 416.0171 522.5366 409.4086 515.9281L409.4086 515.9281L409.4086 515.9281L409.4086 515.9281L400.682 507.2015L400.682 507.2015L381.06836 487.58792L381.06836 487.58792L381.06836 487.58792L381.06836 487.58792L381.06836 487.58792C 378.39954 484.9191 374.12097 484.9191 371.4945 487.54553L371.4945 487.54553L371.4945 487.54553C 368.86807 490.172 368.86807 494.4082 371.45215 497.07703L371.45215 497.07703L371.45215 497.07703L371.45215 497.07703L380.47528 506.10013L380.47528 506.10013L380.47528 506.10013C 385.81293 511.43777 385.81293 520.07965 380.47528 525.41724L380.47528 525.41724L380.47528 525.41724C 375.13766 530.7549 366.4958 530.7549 361.15817 525.41724L361.15817 525.41724L361.15817 525.41724L361.15817 525.41724L342.5612 506.8203L342.5612 506.8203L347.43283 501.94867L347.43283 501.94867L366.02982 520.50323z" stroke="#FFFFFF" stroke-width="0.56482816" fill="#FCFCFC" fill-rule="nonzero" />
    <path id=""  transform="matrix(1 0 0 -1 0 500)"  d="M302.69846 433.11026C 311.97577 423.83298 327.1414 423.83298 336.4187 433.11026L336.4187 433.11026L342.81537 439.50696L342.81537 439.50696L345.1029 441.7945L345.1029 441.7945L346.1196 442.8112L346.1196 442.8112L364.84366 461.53525L364.84366 461.53525L364.84366 461.53525L364.84366 461.53525L364.84366 461.53525C 370.1813 466.87286 370.1813 475.51474 364.84366 480.8524L364.84366 480.8524L364.84366 480.8524C 359.5484 486.14764 350.99124 486.19 345.65363 480.9371L345.65363 480.9371L345.65363 480.9371L345.65363 480.9371L336.58813 471.8716L336.58813 471.8716L336.58813 471.8716L336.58813 471.8716L336.58813 471.8716L336.58813 471.8716L336.58813 471.8716C 333.96167 469.24515 329.6831 469.24515 327.0143 471.8716L327.0143 471.8716L327.0143 471.8716C 324.38785 474.49808 324.38785 478.77664 327.0143 481.44547L327.0143 481.44547L327.0143 481.44547L327.0143 481.44547L345.61127 500.04242L345.61127 500.04242L340.73962 504.91406L340.73962 504.91406L322.14267 486.3171L322.14267 486.3171L322.14267 486.3171L322.14267 486.3171L322.14267 486.3171C 316.80502 480.9795 316.80502 472.33762 322.14267 466.99997L322.14267 466.99997L322.14267 466.99997C 327.4803 461.66235 336.12216 461.66235 341.45978 466.99997L341.45978 466.99997L341.45978 466.99997L341.45978 466.99997L341.45978 466.99997L341.45978 466.99997L350.44055 475.98077L350.44055 475.98077L350.44055 475.98077L350.44055 475.98077L350.44055 475.98077C 353.067 478.60724 357.34558 478.60724 360.01437 475.98077L360.01437 475.98077L360.01437 475.98077C 362.64084 473.3543 362.64084 469.07574 360.01437 466.44928L360.01437 466.44928L360.01437 466.44928L360.01437 466.44928L341.29034 447.72522L341.29034 447.72522L337.98608 444.421L337.98608 444.421L331.58942 438.0243L331.58942 438.0243L331.58942 438.0243L331.58942 438.0243L331.58942 438.0243C 324.98093 431.4158 314.22095 431.4158 307.61246 438.0243L307.61246 438.0243L307.61246 438.0243C 301.00397 444.6328 301.00397 455.39276 307.61246 462.00128L307.61246 462.00128L307.61246 462.00128L307.61246 462.00128L316.46613 470.85495L316.46613 470.85495L311.59448 475.7266L311.59448 475.7266L302.7408 466.87292L302.7408 466.87292L302.7408 466.87292L302.7408 466.87292L302.7408 466.87292C 293.37878 457.55313 293.37878 442.38754 302.69846 433.11026z" stroke="#FFFFFF" stroke-width="0.56482816" fill="#FCFCFC" fill-rule="nonzero" />
    <path id=""  transform="matrix(1 0 0 -1 0 500)"  d="M273.17206 501.31326L273.17206 501.31326L273.17206 501.31326L273.17206 501.31326L273.17206 501.31326L273.17206 501.31326C 275.79852 503.93973 280.0771 503.93973 282.70355 501.31326L282.70355 501.31326L282.70355 501.31326C 285.33 498.6868 285.33 494.40823 282.70355 491.7394L282.70355 491.7394L282.70355 491.7394L282.70355 491.7394L282.70355 491.7394L282.70355 491.7394L273.72278 482.75864L273.72278 482.75864L273.72278 482.75864L273.72278 482.75864L273.72278 482.75864C 268.38516 477.421 268.38516 468.77914 273.72278 463.4415L273.72278 463.4415L273.72278 463.4415C 279.01804 458.14624 287.6599 458.10388 292.99753 463.4415L292.99753 463.4415L292.99753 463.4415L292.99753 463.4415L311.7216 482.16556L311.7216 482.16556L312.73828 483.18225L312.73828 483.18225L315.02585 485.4698L315.02585 485.4698L321.42252 491.8665L321.42252 491.8665L321.42252 491.8665C 330.7422 501.14377 330.7422 516.30945 321.42252 525.58673L321.42252 525.58673L321.42252 525.58673C 312.1452 534.864 296.97958 534.864 287.70227 525.58673L287.70227 525.58673L287.70227 525.58673L287.70227 525.58673L278.8486 516.73303L278.8486 516.73303L283.72025 511.86142L283.72025 511.86142L292.5739 520.7151L292.5739 520.7151L292.5739 520.7151L292.5739 520.7151L292.5739 520.7151C 299.1824 527.3236 309.94238 527.3236 316.55087 520.7151L316.55087 520.7151L316.55087 520.7151C 323.15936 514.10657 323.15936 503.34662 316.55087 496.73813L316.55087 496.73813L316.55087 496.73813L316.55087 496.73813L307.82428 488.01154L307.82428 488.01154L288.12592 468.31314L288.12592 468.31314L288.12592 468.31314L288.12592 468.31314L288.12592 468.31314C 285.4571 465.64435 281.17853 465.64435 278.55206 468.27078L278.55206 468.27078L278.55206 468.27078C 275.92563 470.89725 275.92563 475.13345 278.5097 477.80225L278.5097 477.80225L278.5097 477.80225L278.5097 477.80225L287.53284 486.82538L287.53284 486.82538L287.53284 486.82538C 292.87048 492.163 292.87048 500.80487 287.53284 506.1425L287.53284 506.1425L287.53284 506.1425C 282.19522 511.48013 273.55334 511.48013 268.21573 506.1425L268.21573 506.1425L268.21573 506.1425L268.21573 506.1425L249.61874 487.54553L249.61874 487.54553L254.49039 482.6739L254.49039 482.6739L273.17206 501.31326z" stroke="#FFFFFF" stroke-width="0.56482816" fill="#FCFCFC" fill-rule="nonzero" />
    <path id=""  transform="matrix(1 0 0 -1 0 500)"  d="M209.79836 413.92017C 219.07564 404.64288 234.24129 404.64288 243.51859 413.92017L243.51859 413.92017L249.91527 420.31686L249.91527 420.31686L252.20282 422.6044L252.20282 422.6044L253.21951 423.6211L253.21951 423.6211L271.94357 442.34515L271.94357 442.34515L271.94357 442.34515L271.94357 442.34515L271.94357 442.34515C 277.2812 447.68277 277.2812 456.32465 271.94357 461.6623L271.94357 461.6623L271.94357 461.6623C 266.64832 466.95755 258.09116 466.9999 252.75352 461.747L252.75352 461.747L252.75352 461.747L252.75352 461.747L243.68803 452.68152L243.68803 452.68152L243.68803 452.68152L243.68803 452.68152L243.68803 452.68152L243.68803 452.68152L243.68803 452.68152C 241.06158 450.05505 236.783 450.05505 234.1142 452.68152L234.1142 452.68152L234.1142 452.68152C 231.48775 455.30798 231.48775 459.58655 234.1142 462.25537L234.1142 462.25537L234.1142 462.25537L234.1142 462.25537L252.71117 480.85233L252.71117 480.85233L247.83952 485.72397L247.83952 485.72397L229.24255 467.127L229.24255 467.127L229.24255 467.127L229.24255 467.127L229.24255 467.127C 223.90492 461.7894 223.90492 453.14752 229.24255 447.8099L229.24255 447.8099L229.24255 447.8099C 234.58018 442.47226 243.22205 442.47226 248.55968 447.8099L248.55968 447.8099L248.55968 447.8099L248.55968 447.8099L248.55968 447.8099L248.55968 447.8099L257.54044 456.79068L257.54044 456.79068L257.54044 456.79068L257.54044 456.79068L257.54044 456.79068C 260.16687 459.41714 264.44547 459.41714 267.11426 456.79068L267.11426 456.79068L267.11426 456.79068C 269.74072 454.1642 269.74072 449.88565 267.11426 447.2592L267.11426 447.2592L267.11426 447.2592L267.11426 447.2592L248.39023 428.53513L248.39023 428.53513L245.08597 425.2309L245.08597 425.2309L238.6893 418.8342L238.6893 418.8342L238.6893 418.8342L238.6893 418.8342L238.6893 418.8342C 232.08081 412.2257 221.32082 412.2257 214.71234 418.8342L214.71234 418.8342L214.71234 418.8342C 208.10385 425.44272 208.10385 436.20267 214.71234 442.8112L214.71234 442.8112L214.71234 442.8112L214.71234 442.8112L223.56602 451.66486L223.56602 451.66486L218.69438 456.5365L218.69438 456.5365L209.8407 447.68283L209.8407 447.68283L209.8407 447.68283L209.8407 447.68283L209.8407 447.68283C 200.52106 438.32074 200.52106 423.1975 209.79836 413.92017z" stroke="#FFFFFF" stroke-width="0.56482816" fill="#FCFCFC" fill-rule="nonzero" />
    <path id=""  transform="matrix(1 0 0 -1 0 500)"  d="M67.24982 368.0844L67.24982 368.0844L67.24982 368.0844L67.24982 368.0844L67.24982 368.0844L67.24982 368.0844C 69.87628 370.71088 74.154816 370.71088 76.78128 368.0844L76.78128 368.0844L76.78128 368.0844C 79.407745 365.45795 79.407745 361.1794 76.78128 358.51056L76.78128 358.51056L76.78128 358.51056L76.78128 358.51056L76.78128 358.51056L76.78128 358.51056L67.80051 349.5298L67.80051 349.5298L67.80051 349.5298L67.80051 349.5298L67.80051 349.5298C 62.46286 344.19217 62.46286 335.5503 67.80051 330.21265L67.80051 330.21265L67.80051 330.21265C 73.095764 324.9174 81.73764 324.87503 87.07526 330.21265L87.07526 330.21265L87.07526 330.21265L87.07526 330.21265L105.79932 348.93674L105.79932 348.93674L106.81601 349.9534L106.81601 349.9534L109.103546 352.24097L109.103546 352.24097L115.500244 358.63763L115.500244 358.63763L115.500244 358.63763C 124.819885 367.9573 124.819885 383.0806 115.500244 392.35788L115.500244 392.35788L115.500244 392.35788C 106.22293 401.6352 91.05728 401.6352 81.78 392.35788L81.78 392.35788L81.78 392.35788L81.78 392.35788L72.92633 383.5042L72.92633 383.5042L77.84033 378.7173L77.84033 378.7173L86.69403 387.57098L86.69403 387.57098L86.69403 387.57098L86.69403 387.57098L86.69403 387.57098C 93.30255 394.17947 104.0625 394.17947 110.67102 387.57098L110.67102 387.57098L110.67102 387.57098C 117.27951 380.9625 117.27951 370.2025 110.67102 363.59402L110.67102 363.59402L110.67102 363.59402L110.67102 363.59402L101.9444 354.86743L101.9444 354.86743L82.24603 335.16904L82.24603 335.16904L82.24603 335.16904L82.24603 335.16904L82.24603 335.16904C 79.57721 332.50024 75.298645 332.50024 72.67218 335.12668L72.67218 335.12668L72.67218 335.12668C 70.045715 337.75314 70.045715 341.98935 72.62982 344.65814L72.62982 344.65814L72.62982 344.65814L72.62982 344.65814L81.65292 353.68127L81.65292 353.68127L81.65292 353.68127C 86.99057 359.0189 86.99057 367.66077 81.65292 372.99838L81.65292 372.99838L81.65292 372.99838C 76.31531 378.33603 67.67343 378.33603 62.335785 372.99838L62.335785 372.99838L62.335785 372.99838L62.335785 372.99838L43.73883 354.40143L43.73883 354.40143L48.610474 349.48743L48.610474 349.48743L67.24982 368.0844z" stroke="#FFFFFF" stroke-width="0.56482816" fill="#FCFCFC" fill-rule="nonzero" />
    <path id=""  transform="matrix(1 0 0 -1 0 500)"  d="M180.52612 481.3607L180.52612 481.3607L180.52612 481.3607L180.52612 481.3607L180.52612 481.3607L180.52612 481.3607C 183.15257 483.98715 187.43115 483.98715 190.0576 481.3607L190.0576 481.3607L190.0576 481.3607C 192.68405 478.73422 192.68405 474.4557 190.0576 471.78687L190.0576 471.78687L190.0576 471.78687L190.0576 471.78687L190.0576 471.78687L190.0576 471.78687L181.07683 462.80606L181.07683 462.80606L181.07683 462.80606L181.07683 462.80606L181.07683 462.80606C 175.7392 457.46844 175.7392 448.82657 181.07683 443.48895L181.07683 443.48895L181.07683 443.48895C 186.3721 438.19366 195.01396 438.1513 200.3516 443.48895L200.3516 443.48895L200.3516 443.48895L200.3516 443.48895L219.07564 462.213L219.07564 462.213L220.09233 463.2297L220.09233 463.2297L222.37987 465.51724L222.37987 465.51724L228.77657 471.91394L228.77657 471.91394L228.77657 471.91394C 238.09622 481.23358 238.09622 496.35687 228.77657 505.6342L228.77657 505.6342L228.77657 505.6342C 219.49927 514.9115 204.33363 514.9115 195.05632 505.6342L195.05632 505.6342L195.05632 505.6342L195.05632 505.6342L186.20264 496.7805L186.20264 496.7805L191.07428 491.90884L191.07428 491.90884L199.92796 500.76254L199.92796 500.76254L199.92796 500.76254L199.92796 500.76254L199.92796 500.76254C 206.53645 507.37103 217.29642 507.37103 223.90492 500.76254L223.90492 500.76254L223.90492 500.76254C 230.51341 494.15402 230.51341 483.39407 223.90492 476.78558L223.90492 476.78558L223.90492 476.78558L223.90492 476.78558L215.17831 468.05896L215.17831 468.05896L195.47993 448.3606L195.47993 448.3606L195.47993 448.3606L195.47993 448.3606L195.47993 448.3606C 192.81111 445.69177 188.53256 445.69177 185.9061 448.3182L185.9061 448.3182L185.9061 448.3182C 183.27965 450.94467 183.27965 455.18088 185.86372 457.8497L185.86372 457.8497L185.86372 457.8497L185.86372 457.8497L194.88686 466.8728L194.88686 466.8728L194.88686 466.8728C 200.22449 472.21045 200.22449 480.8523 194.88686 486.18994L194.88686 486.18994L194.88686 486.18994C 189.54922 491.52756 180.90736 491.52756 175.56975 486.18994L175.56975 486.18994L175.56975 486.18994L175.56975 486.18994L156.97278 467.593L156.97278 467.593L161.84442 462.72134L161.84442 462.72134L180.52612 481.3607z" stroke="#FFFFFF" stroke-width="0.56482816" fill="#FCFCFC" fill-rule="nonzero" />
    <path id=""  transform="matrix(1 0 0 -1 0 500)"  d="M117.152405 393.96765C 126.42972 384.69034 141.59535 384.69034 150.87265 393.96765L150.87265 393.96765L157.26933 400.36432L157.26933 400.36432L159.55687 402.6519L159.55687 402.6519L160.57356 403.66855L160.57356 403.66855L179.2976 422.3926L179.2976 422.3926L179.2976 422.3926L179.2976 422.3926L179.2976 422.3926C 184.63524 427.73026 184.63524 436.37213 179.2976 441.70975L179.2976 441.70975L179.2976 441.70975C 174.00235 447.005 165.4452 447.0474 160.10757 441.7945L160.10757 441.7945L160.10757 441.7945L160.10757 441.7945L151.04208 432.729L151.04208 432.729L151.04208 432.729L151.04208 432.729L151.04208 432.729L151.04208 432.729L151.04208 432.729C 148.41563 430.10254 144.13705 430.10254 141.46825 432.729L141.46825 432.729L141.46825 432.729C 138.8418 435.35547 138.8418 439.634 141.46825 442.30286L141.46825 442.30286L141.46825 442.30286L141.46825 442.30286L160.0652 460.8998L160.0652 460.8998L155.19356 465.77145L155.19356 465.77145L136.5966 447.1745L136.5966 447.1745L136.5966 447.1745L136.5966 447.1745L136.5966 447.1745C 131.25897 441.83685 131.25897 433.195 136.5966 427.85736L136.5966 427.85736L136.5966 427.85736C 141.93423 422.51974 150.5761 422.51974 155.91373 427.85736L155.91373 427.85736L155.91373 427.85736L155.91373 427.85736L155.91373 427.85736L155.91373 427.85736L164.89449 436.83813L164.89449 436.83813L164.89449 436.83813L164.89449 436.83813L164.89449 436.83813C 167.52094 439.4646 171.79951 439.4646 174.46834 436.83813L174.46834 436.83813L174.46834 436.83813C 177.09479 434.21167 177.09479 429.93314 174.46834 427.30667L174.46834 427.30667L174.46834 427.30667L174.46834 427.30667L155.7443 408.5826L155.7443 408.5826L152.44003 405.27838L152.44003 405.27838L146.04335 398.88168L146.04335 398.88168L146.04335 398.88168L146.04335 398.88168L146.04335 398.88168C 139.43486 392.2732 128.67488 392.2732 122.06641 398.88168L122.06641 398.88168L122.06641 398.88168C 115.45792 405.49017 115.45792 416.25015 122.06641 422.85864L122.06641 422.85864L122.06641 422.85864L122.06641 422.85864L130.92009 431.7123L130.92009 431.7123L126.04843 436.58395L126.04843 436.58395L117.19476 427.7303L117.19476 427.7303L117.19476 427.7303L117.19476 427.7303L117.19476 427.7303C 107.83276 418.41058 107.83276 403.2873 117.152405 393.96765z" stroke="#FFFFFF" stroke-width="0.56482816" fill="#FCFCFC" fill-rule="nonzero" />
    <path id=""  transform="matrix(1 0 0 -1 0 500)"  d="M87.62604 462.17065L87.62604 462.17065L87.62604 462.17065L87.62604 462.17065L87.62604 462.17065L87.62604 462.17065C 90.2525 464.79712 94.53107 464.79712 97.1575 462.17065L97.1575 462.17065L97.1575 462.17065C 99.783936 459.5442 99.783936 455.26562 97.1575 452.5968L97.1575 452.5968L97.1575 452.5968L97.1575 452.5968L97.1575 452.5968L97.1575 452.5968L88.17673 443.61603L88.17673 443.61603L88.17673 443.61603L88.17673 443.61603L88.17673 443.61603C 82.83908 438.27838 82.83908 429.6365 88.17673 424.2989L88.17673 424.2989L88.17673 424.2989C 93.471985 419.00363 102.11386 418.96124 107.45148 424.2989L107.45148 424.2989L107.45148 424.2989L107.45148 424.2989L126.17554 443.02295L126.17554 443.02295L127.192215 444.03964L127.192215 444.03964L129.47977 446.32718L129.47977 446.32718L135.87645 452.72388L135.87645 452.72388L135.87645 452.72388C 145.1961 462.00116 145.1961 477.1668 135.87645 486.44412L135.87645 486.44412L135.87645 486.44412C 126.59915 495.7214 111.4335 495.7214 102.15622 486.44412L102.15622 486.44412L102.15622 486.44412L102.15622 486.44412L93.30255 477.59045L93.30255 477.59045L98.174194 472.7188L98.174194 472.7188L107.02786 481.57248L107.02786 481.57248L107.02786 481.57248L107.02786 481.57248L107.02786 481.57248C 113.63635 488.18097 124.39633 488.18097 131.00482 481.57248L131.00482 481.57248L131.00482 481.57248C 137.61331 474.964 137.61331 464.204 131.00482 457.59552L131.00482 457.59552L131.00482 457.59552L131.00482 457.59552L122.27823 448.8689L122.27823 448.8689L102.579834 429.17053L102.579834 429.17053L102.579834 429.17053L102.579834 429.17053L102.579834 429.17053C 99.91101 426.50174 95.63245 426.50174 93.00598 429.12814L93.00598 429.12814L93.00598 429.12814C 90.37952 431.7546 90.37952 435.99084 92.96362 438.65964L92.96362 438.65964L92.96362 438.65964L92.96362 438.65964L101.986755 447.68274L101.986755 447.68274L101.986755 447.68274C 107.3244 453.0204 107.3244 461.66223 101.986755 466.99988L101.986755 466.99988L101.986755 466.99988C 96.64911 472.33752 88.00723 472.33752 82.66965 466.99988L82.66965 466.99988L82.66965 466.99988L82.66965 466.99988L64.07269 448.40292L64.07269 448.40292L68.944336 443.53128L68.944336 443.53128L87.62604 462.17065z" stroke="#FFFFFF" stroke-width="0.56482816" fill="#FCFCFC" fill-rule="nonzero" />
    <path id=""  transform="matrix(1 0 0 -1 0 500)"  d="M384.5844 5.549437C 393.86172 -3.727865 409.02734 -3.727865 418.30466 5.549437L418.30466 5.549437L424.7437 11.988477L424.7437 11.988477L427.03125 14.276031L427.03125 14.276031L428.04794 15.292721L428.04794 15.292721L446.772 34.016773L446.772 34.016773L446.772 34.016773L446.772 34.016773L446.772 34.016773C 452.10962 39.354404 452.10962 47.996273 446.772 53.333897L446.772 53.333897L446.772 53.333897C 441.47675 58.62916 432.9196 58.671524 427.58197 53.41862L427.58197 53.41862L427.58197 53.41862L427.58197 53.41862L418.51648 44.353127L418.51648 44.353127L418.51648 44.353127L418.51648 44.353127L418.51648 44.353127L418.51648 44.353127L418.51648 44.353127C 415.89 41.726677 411.61145 41.726677 408.94263 44.353127L408.94263 44.353127L408.94263 44.353127C 406.3162 46.97958 406.3162 51.258152 408.94263 53.926964L408.94263 53.926964L408.94263 53.926964L408.94263 53.926964L427.5396 72.52393L427.5396 72.52393L422.66797 77.39558L422.66797 77.39558L404.07098 58.798607L404.07098 58.798607L404.07098 58.798607L404.07098 58.798607L404.07098 58.798607C 398.73337 53.460983 398.73337 44.81911 404.07098 39.481483L404.07098 39.481483L404.07098 39.481483C 409.40863 34.14386 418.05048 34.14386 423.38812 39.481483L423.38812 39.481483L423.38812 39.481483L423.38812 39.481483L423.38812 39.481483L423.38812 39.481483L432.3689 48.462254L432.3689 48.462254L432.3689 48.462254L432.3689 48.462254L432.3689 48.462254C 434.99533 51.088707 439.2739 51.088707 441.94272 48.462254L441.94272 48.462254L441.94272 48.462254C 444.56918 45.8358 444.56918 41.557228 441.94272 38.93078L441.94272 38.93078L441.94272 38.93078L441.94272 38.93078L423.21866 20.206724L423.21866 20.206724L419.91443 16.90248L419.91443 16.90248L413.51773 10.505799L413.51773 10.505799L413.51773 10.505799L413.51773 10.505799L413.51773 10.505799C 406.90924 3.8973098 396.1493 3.8973098 389.5408 10.505799L389.5408 10.505799L389.5408 10.505799C 382.9323 17.11429 382.9323 27.874264 389.5408 34.482754L389.5408 34.482754L389.5408 34.482754L389.5408 34.482754L398.39447 43.336433L398.39447 43.336433L393.52283 48.208076L393.52283 48.208076L384.66916 39.354397L384.66916 39.354397L384.66916 39.354397L384.66916 39.354397L384.66916 39.354397C 375.26474 29.992376 375.26474 14.869101 384.5844 5.549437z" stroke="#FFFFFF" stroke-width="0.56482816" fill="#FCFCFC" fill-rule="nonzero" />
    <path id=""  transform="matrix(1 0 0 -1 0 500)"  d="M356.2018 72.905205L356.2018 72.905205L356.2018 72.905205L356.2018 72.905205L356.2018 72.905205L356.2018 72.905205C 358.82825 75.53165 363.1068 75.53165 365.73328 72.905205L365.73328 72.905205L365.73328 72.905205C 368.35974 70.27875 368.35974 66.000175 365.73328 63.331367L365.73328 63.331367L365.73328 63.331367L365.73328 63.331367L365.73328 63.331367L365.73328 63.331367L356.7525 54.350597L356.7525 54.350597L356.7525 54.350597L356.7525 54.350597L356.7525 54.350597C 351.4149 49.01297 351.4149 40.3711 356.7525 35.033478L356.7525 35.033478L356.7525 35.033478C 362.04776 29.738213 370.68964 29.69585 376.02728 35.033478L376.02728 35.033478L376.02728 35.033478L376.02728 35.033478L394.79367 53.79988L394.79367 53.79988L395.81036 54.816574L395.81036 54.816574L398.09793 57.10413L398.09793 57.10413L404.4946 63.543167L404.4946 63.543167L404.4946 63.543167C 413.81427 72.86283 413.81427 87.9861 404.4946 97.263405L404.4946 97.263405L404.4946 97.263405C 395.21732 106.54071 380.05167 106.54071 370.77438 97.263405L370.77438 97.263405L370.77438 97.263405L370.77438 97.263405L361.9207 88.40972L361.9207 88.40972L366.79233 83.53808L366.79233 83.53808L375.64603 92.39176L375.64603 92.39176L375.64603 92.39176L375.64603 92.39176L375.64603 92.39176C 382.25452 99.00025 393.01447 99.00025 399.62296 92.39176L399.62296 92.39176L399.62296 92.39176C 406.23145 85.78328 406.23145 75.0233 399.62296 68.41481L399.62296 68.41481L399.62296 68.41481L399.62296 68.41481L390.89636 59.688217L390.89636 59.688217L371.198 39.989834L371.198 39.989834L371.198 39.989834L371.198 39.989834L371.198 39.989834C 368.52917 37.321022 364.2506 37.321022 361.62415 39.947475L361.62415 39.947475L361.62415 39.947475C 358.9977 42.573925 358.9977 46.81014 361.5818 49.47895L361.5818 49.47895L361.5818 49.47895L361.5818 49.47895L370.60492 58.50208L370.60492 58.50208L370.60492 58.50208C 375.94254 63.839706 375.94254 72.48158 370.60492 77.8192L370.60492 77.8192L370.60492 77.8192C 365.2673 83.15682 356.62543 83.15682 351.28778 77.8192L351.28778 77.8192L351.28778 77.8192L351.28778 77.8192L332.69083 59.22223L332.69083 59.22223L337.56247 54.350586L337.56247 54.350586L356.2018 72.905205z" stroke="#FFFFFF" stroke-width="0.56482816" fill="#FCFCFC" fill-rule="nonzero" />
    <path id=""  transform="matrix(1 0 0 -1 0 500)"  d="M292.8281 -14.4878435C 302.1054 -23.765144 317.27103 -23.765144 326.54834 -14.4878435L326.54834 -14.4878435L332.945 -8.091164L332.945 -8.091164L335.23254 -5.80361L335.23254 -5.80361L336.24927 -4.7869186L336.24927 -4.7869186L354.9733 13.937136L354.9733 13.937136L354.9733 13.937136L354.9733 13.937136L354.9733 13.937136C 360.3109 19.274761 360.3109 27.916634 354.9733 33.254257L354.9733 33.254257L354.9733 33.254257C 349.7204 38.50716 341.12088 38.549522 335.78326 33.33898L335.78326 33.33898L335.78326 33.33898L335.78326 33.33898L326.71777 24.273489L326.71777 24.273489L326.71777 24.273489L326.71777 24.273489L326.71777 24.273489L326.71777 24.273489L326.71777 24.273489C 324.0913 21.647038 319.81274 21.647038 317.14392 24.273489L317.14392 24.273489L317.14392 24.273489C 314.5175 26.89994 314.5175 31.178513 317.14392 33.84733L317.14392 33.84733L317.14392 33.84733L317.14392 33.84733L335.78326 52.444298L335.78326 52.444298L330.91162 57.31594L330.91162 57.31594L312.31464 38.71897L312.31464 38.71897L312.31464 38.71897L312.31464 38.71897L312.31464 38.71897C 306.97702 33.381344 306.97702 24.739475 312.31464 19.40185L312.31464 19.40185L312.31464 19.40185C 317.65228 14.064224 326.29416 14.064224 331.63177 19.40185L331.63177 19.40185L331.63177 19.40185L331.63177 19.40185L331.63177 19.40185L331.63177 19.40185L340.5702 28.340254L340.5702 28.340254L340.5702 28.340254L340.5702 28.340254L340.5702 28.340254C 343.19662 30.966707 347.47522 30.966707 350.144 28.340254L350.144 28.340254L350.144 28.340254C 352.77048 25.713802 352.77048 21.43523 350.144 18.808779L350.144 18.808779L350.144 18.808779L350.144 18.808779L331.41998 0.08472508L331.41998 0.08472508L328.11572 -3.2195199L328.11572 -3.2195199L321.71906 -9.6161995L321.71906 -9.6161995L321.71906 -9.6161995L321.71906 -9.6161995L321.71906 -9.6161995C 315.11057 -16.22469 304.3506 -16.22469 297.7421 -9.6161995L297.7421 -9.6161995L297.7421 -9.6161995C 291.1336 -3.0077093 291.1336 7.752267 297.7421 14.360754L297.7421 14.360754L297.7421 14.360754L297.7421 14.360754L306.5534 23.214436L306.5534 23.214436L301.68176 28.086079L301.68176 28.086079L292.82806 19.232399L292.82806 19.232399L292.82806 19.232399L292.82806 19.232399L292.82806 19.232399C 283.50842 9.912734 283.50842 -5.21054 292.8281 -14.4878435z" stroke="#FFFFFF" stroke-width="0.56482816" fill="#FCFCFC" fill-rule="nonzero" />
    <path id=""  transform="matrix(1 0 0 -1 0 500)"  d="M263.3017 53.71516L263.3017 53.71516L263.3017 53.71516L263.3017 53.71516L263.3017 53.71516L263.3017 53.71516C 265.92813 56.341614 270.20673 56.341614 272.83316 53.71516L272.83316 53.71516L272.83316 53.71516C 275.4596 51.08871 275.4596 46.81014 272.83316 44.141327L272.83316 44.141327L272.83316 44.141327L272.83316 44.141327L272.83316 44.141327L272.83316 44.141327L263.89474 35.160553L263.89474 35.160553L263.89474 35.160553L263.89474 35.160553L263.89474 35.160553C 258.55713 29.822926 258.55713 21.181055 263.89474 15.843431L263.89474 15.843431L263.89474 15.843431C 269.19 10.548167 277.83188 10.505805 283.16953 15.843431L283.16953 15.843431L283.16953 15.843431L283.16953 15.843431L301.89355 34.567486L301.89355 34.567486L302.91028 35.584175L302.91028 35.584175L305.1978 37.87173L305.1978 37.87173L311.63684 44.31077L311.63684 44.31077L311.63684 44.31077C 320.9565 53.630432 320.9565 68.75371 311.63684 78.031006L311.63684 78.031006L311.63684 78.031006C 302.35956 87.30831 287.1939 87.30831 277.91663 78.031006L277.91663 78.031006L277.91663 78.031006L277.91663 78.031006L269.06293 69.17732L269.06293 69.17732L273.93457 64.30569L273.93457 64.30569L282.78827 73.15937L282.78827 73.15937L282.78827 73.15937L282.78827 73.15937L282.78827 73.15937C 289.39676 79.76786 300.15674 79.76786 306.7652 73.15937L306.7652 73.15937L306.7652 73.15937C 313.37372 66.55089 313.37372 55.790905 306.7652 49.18242L306.7652 49.18242L306.7652 49.18242L306.7652 49.18242L298.03864 40.455826L298.03864 40.455826L278.34024 20.757442L278.34024 20.757442L278.34024 20.757442L278.34024 20.757442L278.34024 20.757442C 275.67142 18.08863 271.39285 18.08863 268.76642 20.71508L268.76642 20.71508L268.76642 20.71508C 266.13995 23.34153 266.13995 27.577744 268.72406 30.246555L268.72406 30.246555L268.72406 30.246555L268.72406 30.246555L277.74716 39.269672L277.74716 39.269672L277.74716 39.269672C 283.08478 44.6073 283.08478 53.249172 277.74716 58.586796L277.74716 58.586796L277.74716 58.586796C 272.40955 63.92442 263.76767 63.92442 258.43005 58.586796L258.43005 58.586796L258.43005 58.586796L258.43005 58.586796L239.83308 39.989826L239.83308 39.989826L244.70473 35.07583L244.70473 35.07583L263.3017 53.71516z" stroke="#FFFFFF" stroke-width="0.56482816" fill="#FCFCFC" fill-rule="nonzero" />
    <path id=""  transform="matrix(1 0 0 -1 0 500)"  d="M199.97032 -33.720238C 209.24762 -42.997543 224.41325 -42.997543 233.69057 -33.720238L233.69057 -33.720238L240.08725 -27.32356L240.08725 -27.32356L242.3748 -25.036007L242.3748 -25.036007L243.3915 -24.019316L243.3915 -24.019316L262.11554 -5.295262L262.11554 -5.295262L262.11554 -5.295262L262.11554 -5.295262L262.11554 -5.295262C 267.4532 0.042364698 267.4532 8.684235 262.11554 14.021859L262.11554 14.021859L262.11554 14.021859C 256.82028 19.317123 248.26315 19.359486 242.92552 14.106584L242.92552 14.106584L242.92552 14.106584L242.92552 14.106584L233.86002 5.083453L233.86002 5.083453L233.86002 5.083453L233.86002 5.083453L233.86002 5.083453L233.86002 5.083453L233.86002 5.083453C 231.23357 2.4570026 226.95499 2.4570026 224.28616 5.083453L224.28616 5.083453L224.28616 5.083453C 221.65973 7.709904 221.65973 11.988477 224.28616 14.657291L224.28616 14.657291L224.28616 14.657291L224.28616 14.657291L242.88313 33.25426L242.88313 33.25426L238.05386 38.1259L238.05386 38.1259L219.41452 19.486572L219.41452 19.486572L219.41452 19.486572L219.41452 19.486572L219.41452 19.486572C 214.07689 14.148945 214.07689 5.5070744 219.41452 0.16945016L219.41452 0.16945016L219.41452 0.16945016C 224.75217 -5.168176 233.39403 -5.168176 238.73164 0.16945016L238.73164 0.16945016L238.73164 0.16945016L238.73164 0.16945016L238.73164 0.16945016L238.73164 0.16945016L247.67007 9.150217L247.67007 9.150217L247.67007 9.150217L247.67007 9.150217L247.67007 9.150217C 250.29652 11.776668 254.5751 11.776668 257.2439 9.150217L257.2439 9.150217L257.2439 9.150217C 259.87036 6.523766 259.87036 2.2451928 257.2439 -0.38125858L257.2439 -0.38125858L257.2439 -0.38125858L257.2439 -0.38125858L238.51985 -19.105312L238.51985 -19.105312L235.21559 -22.40956L235.21559 -22.40956L228.81891 -28.806238L228.81891 -28.806238L228.81891 -28.806238L228.81891 -28.806238L228.81891 -28.806238C 222.21042 -35.414726 211.45044 -35.414726 204.84196 -28.806238L204.84196 -28.806238L204.84196 -28.806238C 198.23347 -22.197748 198.23347 -11.437773 204.84196 -4.8292847L204.84196 -4.8292847L204.84196 -4.8292847L204.84196 -4.8292847L213.69565 3.9820383L213.69565 3.9820383L208.78166 8.896044L208.78166 8.896044L199.928 0.04236254L199.928 0.04236254L199.928 0.04236254L199.928 0.04236254L199.928 0.04236254C 190.65067 -9.277302 190.65067 -24.400574 199.97032 -33.720238z" stroke="#FFFFFF" stroke-width="0.56482816" fill="#FCFCFC" fill-rule="nonzero" />
    <path id=""  transform="matrix(1 0 0 -1 0 500)"  d="M376.57797 166.99146L376.57797 166.99146L376.57797 166.99146L376.57797 166.99146L376.57797 166.99146L376.57797 166.99146C 379.20444 169.6179 383.483 169.6179 386.10944 166.99146L386.10944 166.99146L386.10944 166.99146C 388.7359 164.365 388.7359 160.08643 386.10944 157.41762L386.10944 157.41762L386.10944 157.41762L386.10944 157.41762L386.10944 157.41762L386.10944 157.41762L377.1287 148.43684L377.1287 148.43684L377.1287 148.43684L377.1287 148.43684L377.1287 148.43684C 371.79105 143.09923 371.79105 134.45735 377.1287 129.11974L377.1287 129.11974L377.1287 129.11974C 382.42395 123.82446 391.06583 123.782104 396.40344 129.11974L396.40344 129.11974L396.40344 129.11974L396.40344 129.11974L415.1275 147.84378L415.1275 147.84378L416.1442 148.86047L416.1442 148.86047L418.43173 151.14803L418.43173 151.14803L424.91315 157.58705L424.91315 157.58705L424.91315 157.58705C 434.23282 166.90672 434.23282 182.02998 424.91315 191.3073L424.91315 191.3073L424.91315 191.3073C 415.63583 200.5846 400.4702 200.5846 391.1929 191.3073L391.1929 191.3073L391.1929 191.3073L391.1929 191.3073L382.33923 182.45363L382.33923 182.45363L387.21088 177.58199L387.21088 177.58199L396.06454 186.43565L396.06454 186.43565L396.06454 186.43565L396.06454 186.43565L396.06454 186.43565C 402.67303 193.04416 413.433 193.04416 420.0415 186.43565L420.0415 186.43565L420.0415 186.43565C 426.65 179.82716 426.65 169.0672 420.0415 162.4587L420.0415 162.4587L420.0415 162.4587L420.0415 162.4587L411.3149 153.7321L411.3149 153.7321L391.61652 134.03372L391.61652 134.03372L391.61652 134.03372L391.61652 134.03372L391.61652 134.03372C 388.94772 131.3649 384.66913 131.3649 382.0427 133.99135L382.0427 133.99135L382.0427 133.99135C 379.41623 136.6178 379.41623 140.85402 382.00034 143.52283L382.00034 143.52283L382.00034 143.52283L382.00034 143.52283L391.02347 152.54596L391.02347 152.54596L391.02347 152.54596C 396.36108 157.88359 396.36108 166.52545 391.02347 171.86307L391.02347 171.86307L391.02347 171.86307C 385.68582 177.2007 377.04395 177.2007 371.70633 171.86307L371.70633 171.86307L371.70633 171.86307L371.70633 171.86307L353.10938 153.26611L353.10938 153.26611L357.98102 148.39447L357.98102 148.39447L376.57797 166.99146z" stroke="#FFFFFF" stroke-width="0.56482816" fill="#FCFCFC" fill-rule="nonzero" />
    <path id=""  transform="matrix(1 0 0 -1 0 500)"  d="M313.2466 79.55605C 322.52393 70.27875 337.68958 70.27875 346.96686 79.55605L346.96686 79.55605L353.36353 85.99509L353.36353 85.99509L355.6511 88.282646L355.6511 88.282646L356.6678 89.29933L356.6678 89.29933L375.39185 108.023384L375.39185 108.023384L375.39185 108.023384L375.39185 108.023384L375.39185 108.023384C 380.72946 113.36101 380.72946 122.002884 375.39185 127.34051L375.39185 127.34051L375.39185 127.34051C 370.09656 132.63577 361.53943 132.67813 356.2018 127.425224L356.2018 127.425224L356.2018 127.425224L356.2018 127.425224L347.13632 118.35973L347.13632 118.35973L347.13632 118.35973L347.13632 118.35973L347.13632 118.35973L347.13632 118.35973L347.13632 118.35973C 344.50986 115.733284 340.2313 115.733284 337.56247 118.35973L337.56247 118.35973L337.56247 118.35973C 334.93604 120.98618 334.93604 125.26476 337.56247 127.93357L337.56247 127.93357L337.56247 127.93357L337.56247 127.93357L356.15945 146.53053L356.15945 146.53053L351.2878 151.40218L351.2878 151.40218L332.69083 132.8052L332.69083 132.8052L332.69083 132.8052L332.69083 132.8052L332.69083 132.8052C 327.3532 127.46759 327.3532 118.825714 332.69083 113.48809L332.69083 113.48809L332.69083 113.48809C 338.02844 108.15047 346.67032 108.15047 352.00793 113.48809L352.00793 113.48809L352.00793 113.48809L352.00793 113.48809L352.00793 113.48809L352.00793 113.48809L360.94635 122.426506L360.94635 122.426506L360.94635 122.426506L360.94635 122.426506L360.94635 122.426506C 363.5728 125.05295 367.85138 125.05295 370.5202 122.426506L370.5202 122.426506L370.5202 122.426506C 373.14664 119.80006 373.14664 115.52148 370.5202 112.89503L370.5202 112.89503L370.5202 112.89503L370.5202 112.89503L351.79614 94.170975L351.79614 94.170975L348.49188 90.86673L348.49188 90.86673L342.0952 84.470055L342.0952 84.470055L342.0952 84.470055L342.0952 84.470055L342.0952 84.470055C 335.48672 77.861565 324.72675 77.861565 318.11826 84.470055L318.11826 84.470055L318.11826 84.470055C 311.50977 91.07854 311.50977 101.83852 318.11826 108.44701L318.11826 108.44701L318.11826 108.44701L318.11826 108.44701L326.97195 117.30069L326.97195 117.30069L322.1003 122.17233L322.1003 122.17233L313.2466 113.31865L313.2466 113.31865L313.2466 113.31865L313.2466 113.31865L313.2466 113.31865C 303.92694 103.998985 303.92694 88.87572 313.2466 79.55605z" stroke="#FFFFFF" stroke-width="0.56482816" fill="#FCFCFC" fill-rule="nonzero" />
    <path id=""  transform="matrix(1 0 0 -1 0 500)"  d="M283.00006 146.06454L283.00006 146.06454L283.00006 146.06454L283.00006 146.06454L283.00006 146.06454L283.00006 146.06454C 285.62653 148.691 289.9051 148.691 292.53156 146.06454L292.53156 146.06454L292.53156 146.06454C 295.158 143.4381 295.158 139.15952 292.53156 136.4907L292.53156 136.4907L292.53156 136.4907L292.53156 136.4907L292.53156 136.4907L292.53156 136.4907L283.55078 127.50995L283.55078 127.50995L283.55078 127.50995L283.55078 127.50995L283.55078 127.50995C 278.21313 122.172325 278.21313 113.53045 283.55078 108.192825L283.55078 108.192825L283.55078 108.192825C 288.84604 102.89756 297.4879 102.8552 302.82553 108.192825L302.82553 108.192825L302.82553 108.192825L302.82553 108.192825L321.5496 126.91688L321.5496 126.91688L322.56628 127.93357L322.56628 127.93357L324.85385 130.22113L324.85385 130.22113L331.25052 136.6178L331.25052 136.6178L331.25052 136.6178C 340.5702 145.93747 340.5702 161.06075 331.25052 170.33804L331.25052 170.33804L331.25052 170.33804C 321.9732 179.61534 306.8076 179.61534 297.53027 170.33804L297.53027 170.33804L297.53027 170.33804L297.53027 170.33804L288.6766 161.48436L288.6766 161.48436L293.54825 156.61272L293.54825 156.61272L302.40192 165.4664L302.40192 165.4664L302.40192 165.4664L302.40192 165.4664L302.40192 165.4664C 309.0104 172.07489 319.7704 172.07489 326.37888 165.4664L326.37888 165.4664L326.37888 165.4664C 332.98737 158.8579 332.98737 148.09793 326.37888 141.48944L326.37888 141.48944L326.37888 141.48944L326.37888 141.48944L317.65228 132.76285L317.65228 132.76285L297.95392 113.06447L297.95392 113.06447L297.95392 113.06447L297.95392 113.06447L297.95392 113.06447C 295.2851 110.39565 291.00653 110.39565 288.38007 113.02211L288.38007 113.02211L288.38007 113.02211C 285.7536 115.64856 285.7536 119.884766 288.3377 122.55358L288.3377 122.55358L288.3377 122.55358L288.3377 122.55358L297.36084 131.57672L297.36084 131.57672L297.36084 131.57672C 302.69846 136.91434 302.69846 145.55623 297.36084 150.89384L297.36084 150.89384L297.36084 150.89384C 292.02322 156.23148 283.38135 156.23148 278.0437 150.89384L278.0437 150.89384L278.0437 150.89384L278.0437 150.89384L259.44675 132.29688L259.44675 132.29688L264.3184 127.425224L264.3184 127.425224L283.00006 146.06454z" stroke="#FFFFFF" stroke-width="0.56482816" fill="#FCFCFC" fill-rule="nonzero" />
    <path id=""  transform="matrix(1 0 0 -1 0 500)"  d="M219.6687 58.671524C 228.946 49.394222 244.11165 49.394222 253.38895 58.671524L253.38895 58.671524L259.7856 65.0682L259.7856 65.0682L262.07318 67.35576L262.07318 67.35576L263.08987 68.37245L263.08987 68.37245L281.8139 87.09651L281.8139 87.09651L281.8139 87.09651L281.8139 87.09651L281.8139 87.09651C 287.15155 92.434135 287.15155 101.076004 281.8139 106.41363L281.8139 106.41363L281.8139 106.41363C 276.51865 111.70889 267.96152 111.75125 262.62387 106.49835L262.62387 106.49835L262.62387 106.49835L262.62387 106.49835L253.55838 97.43285L253.55838 97.43285L253.55838 97.43285L253.55838 97.43285L253.55838 97.43285L253.55838 97.43285L253.55838 97.43285C 250.93195 94.80641 246.65337 94.80641 243.98456 97.43285L243.98456 97.43285L243.98456 97.43285C 241.35811 100.0593 241.35811 104.33788 243.98456 107.00669L243.98456 107.00669L243.98456 107.00669L243.98456 107.00669L262.5815 125.60366L262.5815 125.60366L257.70987 130.47531L257.70987 130.47531L239.11292 111.878334L239.11292 111.878334L239.11292 111.878334L239.11292 111.878334L239.11292 111.878334C 233.77528 106.54071 233.77528 97.89884 239.11292 92.56121L239.11292 92.56121L239.11292 92.56121C 244.45053 87.22359 253.0924 87.22359 258.43002 92.56121L258.43002 92.56121L258.43002 92.56121L258.43002 92.56121L258.43002 92.56121L258.43002 92.56121L267.4108 101.54198L267.4108 101.54198L267.4108 101.54198L267.4108 101.54198L267.4108 101.54198C 270.03723 104.16843 274.31583 104.16843 276.98462 101.54198L276.98462 101.54198L276.98462 101.54198C 279.61108 98.91553 279.61108 94.63695 276.98462 92.010506L276.98462 92.010506L276.98462 92.010506L276.98462 92.010506L258.2606 73.28645L258.2606 73.28645L254.95633 69.98221L254.95633 69.98221L248.51732 63.543167L248.51732 63.543167L248.51732 63.543167L248.51732 63.543167L248.51732 63.543167C 241.90883 56.93468 231.14885 56.93468 224.54034 63.543167L224.54034 63.543167L224.54034 63.543167C 217.93185 70.15166 217.93185 80.91164 224.54034 87.52012L224.54034 87.52012L224.54034 87.52012L224.54034 87.52012L233.39403 96.3738L233.39403 96.3738L228.52238 101.245445L228.52238 101.245445L219.6687 92.39176L219.6687 92.39176L219.6687 92.39176L219.6687 92.39176L219.6687 92.39176C 210.34904 83.114456 210.34904 67.94882 219.6687 58.671524z" stroke="#FFFFFF" stroke-width="0.56482816" fill="#FCFCFC" fill-rule="nonzero" />
    <path id=""  transform="matrix(1 0 0 -1 0 500)"  d="M190.14233 126.87453L190.14233 126.87453L190.14233 126.87453L190.14233 126.87453L190.14233 126.87453L190.14233 126.87453C 192.76878 129.50098 197.04736 129.50098 199.67381 126.87453L199.67381 126.87453L199.67381 126.87453C 202.30026 124.24808 202.30026 119.9695 199.67381 117.30069L199.67381 117.30069L199.67381 117.30069L199.67381 117.30069L199.67381 117.30069L199.67381 117.30069L190.69304 108.31992L190.69304 108.31992L190.69304 108.31992L190.69304 108.31992L190.69304 108.31992C 185.35541 102.9823 185.35541 94.34043 190.69304 89.0028L190.69304 89.0028L190.69304 89.0028C 195.98831 83.70754 204.63017 83.66518 209.9678 89.0028L209.9678 89.0028L209.9678 89.0028L209.9678 89.0028L228.69186 107.72685L228.69186 107.72685L229.70854 108.743546L229.70854 108.743546L231.9961 111.031105L231.9961 111.031105L238.39276 117.42778L238.39276 117.42778L238.39276 117.42778C 247.71243 126.747444 247.71243 141.87073 238.39276 151.14803L238.39276 151.14803L238.39276 151.14803C 229.11546 160.42531 213.94983 160.42531 204.67253 151.14803L204.67253 151.14803L204.67253 151.14803L204.67253 151.14803L195.81885 142.29434L195.81885 142.29434L200.69049 137.4227L200.69049 137.4227L209.54417 146.27638L209.54417 146.27638L209.54417 146.27638L209.54417 146.27638L209.54417 146.27638C 216.15266 152.88487 226.91263 152.88487 233.52113 146.27638L233.52113 146.27638L233.52113 146.27638C 240.12962 139.6679 240.12962 128.90791 233.52113 122.29942L233.52113 122.29942L233.52113 122.29942L233.52113 122.29942L224.79453 113.57283L224.79453 113.57283L205.09615 93.87444L205.09615 93.87444L205.09615 93.87444L205.09615 93.87444L205.09615 93.87444C 202.42734 91.20563 198.14877 91.20563 195.52231 93.832085L195.52231 93.832085L195.52231 93.832085C 192.89586 96.458534 192.89586 100.69475 195.47993 103.36356L195.47993 103.36356L195.47993 103.36356L195.47993 103.36356L204.50307 112.386696L204.50307 112.386696L204.50307 112.386696C 209.8407 117.72432 209.8407 126.36619 204.50307 131.70381L204.50307 131.70381L204.50307 131.70381C 199.16544 137.04144 190.52357 137.04144 185.18596 131.70381L185.18596 131.70381L185.18596 131.70381L185.18596 131.70381L166.58899 113.10685L166.58899 113.10685L171.46063 108.23521L171.46063 108.23521L190.14233 126.87453z" stroke="#FFFFFF" stroke-width="0.56482816" fill="#FCFCFC" fill-rule="nonzero" />
    <path id=""  transform="matrix(1 0 0 -1 0 500)"  d="M126.768585 39.481483C 136.04588 30.204184 151.21153 30.204184 160.48882 39.481483L160.48882 39.481483L166.88551 45.878162L166.88551 45.878162L169.17305 48.165718L169.17305 48.165718L170.18974 49.18241L170.18974 49.18241L188.91379 67.90646L188.91379 67.90646L188.91379 67.90646L188.91379 67.90646L188.91379 67.90646C 194.25142 73.244095 194.25142 81.88596 188.91379 87.22358L188.91379 87.22358L188.91379 87.22358C 183.61853 92.518845 175.06139 92.5612 169.72375 87.308304L169.72375 87.308304L169.72375 87.308304L169.72375 87.308304L160.65826 78.242805L160.65826 78.242805L160.65826 78.242805L160.65826 78.242805L160.65826 78.242805L160.65826 78.242805L160.65826 78.242805C 158.03181 75.61636 153.75323 75.61636 151.08443 78.242805L151.08443 78.242805L151.08443 78.242805C 148.45798 80.869255 148.45798 85.147835 151.08443 87.81664L151.08443 87.81664L151.08443 87.81664L151.08443 87.81664L169.68138 106.41361L169.68138 106.41361L164.80974 111.285255L164.80974 111.285255L146.21278 92.688286L146.21278 92.688286L146.21278 92.688286L146.21278 92.688286L146.21278 92.688286C 140.87514 87.35066 140.87514 78.70879 146.21278 73.37116L146.21278 73.37116L146.21278 73.37116C 151.55042 68.03354 160.19228 68.03354 165.5299 73.37116L165.5299 73.37116L165.5299 73.37116L165.5299 73.37116L165.5299 73.37116L165.5299 73.37116L174.51067 82.35193L174.51067 82.35193L174.51067 82.35193L174.51067 82.35193L174.51067 82.35193C 177.13712 84.97838 181.4157 84.97838 184.08452 82.35193L184.08452 82.35193L184.08452 82.35193C 186.71097 79.72548 186.71097 75.4469 184.08452 72.82046L184.08452 72.82046L184.08452 72.82046L184.08452 72.82046L165.36046 54.0964L165.36046 54.0964L162.05621 50.792156L162.05621 50.792156L155.65953 44.39548L155.65953 44.39548L155.65953 44.39548L155.65953 44.39548L155.65953 44.39548C 149.05104 37.78699 138.29106 37.78699 131.68259 44.39548L131.68259 44.39548L131.68259 44.39548C 125.0741 51.003967 125.0741 61.763947 131.68259 68.37244L131.68259 68.37244L131.68259 68.37244L131.68259 68.37244L140.49393 77.18376L140.49393 77.18376L135.62228 82.055405L135.62228 82.055405L126.768616 73.20172L126.768616 73.20172L126.768616 73.20172L126.768616 73.20172L126.768616 73.20172C 117.4913 63.88207 117.4913 48.75879 126.768585 39.481483z" stroke="#FFFFFF" stroke-width="0.56482816" fill="#FCFCFC" fill-rule="nonzero" />
    <path id=""  transform="matrix(1 0 0 -1 0 500)"  d="M396.27637 259.34085L396.27637 259.34085L396.27637 259.34085L396.27637 259.34085L396.27637 259.34085L396.27637 259.34085C 398.9028 261.96732 403.1814 261.96732 405.80783 259.34085L405.80783 259.34085L405.80783 259.34085C 408.4343 256.71442 408.4343 252.43584 405.80783 249.76701L405.80783 249.76701L405.80783 249.76701L405.80783 249.76701L405.80783 249.76701L405.80783 249.76701L396.82706 240.78625L396.82706 240.78625L396.82706 240.78625L396.82706 240.78625L396.82706 240.78625C 391.48944 235.44862 391.48944 226.80676 396.82706 221.46915L396.82706 221.46915L396.82706 221.46915C 402.1223 216.17387 410.7642 216.13152 416.10184 221.46915L416.10184 221.46915L416.10184 221.46915L416.10184 221.46915L434.82587 240.19319L434.82587 240.19319L435.84256 241.20987L435.84256 241.20987L438.13013 243.49742L438.13013 243.49742L444.5268 249.8941L444.5268 249.8941L444.5268 249.8941C 453.84647 259.21378 453.84647 274.33704 444.5268 283.61435L444.5268 283.61435L444.5268 283.61435C 435.2495 292.89163 420.08386 292.89163 410.80658 283.61435L410.80658 283.61435L410.80658 283.61435L410.80658 283.61435L401.95288 274.76065L401.95288 274.76065L406.82452 269.889L406.82452 269.889L415.67822 278.7427L415.67822 278.7427L415.67822 278.7427L415.67822 278.7427L415.67822 278.7427C 422.2867 285.3512 433.0467 285.3512 439.65515 278.7427L439.65515 278.7427L439.65515 278.7427C 446.26364 272.1342 446.26364 261.37424 439.65515 254.76573L439.65515 254.76573L439.65515 254.76573L439.65515 254.76573L430.9286 246.03914L430.9286 246.03914L411.2302 226.34074L411.2302 226.34074L411.2302 226.34074L411.2302 226.34074L411.2302 226.34074C 408.56137 223.67194 404.2828 223.67194 401.65634 226.29839L401.65634 226.29839L401.65634 226.29839C 399.0299 228.92484 399.0299 233.16104 401.61398 235.82985L401.61398 235.82985L401.61398 235.82985L401.61398 235.82985L410.63712 244.85298L410.63712 244.85298L410.63712 244.85298C 415.97473 250.19063 415.97473 258.8325 410.63712 264.1701L410.63712 264.1701L410.63712 264.1701C 405.2995 269.50772 396.65762 269.50772 391.32 264.1701L391.32 264.1701L391.32 264.1701L391.32 264.1701L372.72302 245.57314L372.72302 245.57314L377.59467 240.70149L377.59467 240.70149L396.27637 259.34085z" stroke="#FFFFFF" stroke-width="0.56482816" fill="#FCFCFC" fill-rule="nonzero" />
    <path id=""  transform="matrix(1 0 0 -1 0 500)"  d="M332.945 171.9478C 342.22232 162.6705 357.38794 162.6705 366.66525 171.9478L366.66525 171.9478L373.06192 178.3445L373.06192 178.3445L375.3495 180.63203L375.3495 180.63203L376.36618 181.64873L376.36618 181.64873L395.0902 200.37279L395.0902 200.37279L395.0902 200.37279L395.0902 200.37279L395.0902 200.37279C 400.42786 205.71042 400.42786 214.35228 395.0902 219.68993L395.0902 219.68993L395.0902 219.68993C 389.79495 224.98518 381.2378 225.02756 375.90018 219.77464L375.90018 219.77464L375.90018 219.77464L375.90018 219.77464L366.8347 210.70915L366.8347 210.70915L366.8347 210.70915L366.8347 210.70915L366.8347 210.70915L366.8347 210.70915L366.8347 210.70915C 364.20825 208.0827 359.92966 208.0827 357.26086 210.70915L357.26086 210.70915L357.26086 210.70915C 354.6344 213.3356 354.6344 217.61418 357.26086 220.283L357.26086 220.283L357.26086 220.283L357.26086 220.283L375.85782 238.87997L375.85782 238.87997L370.98618 243.75162L370.98618 243.75162L352.38922 225.15466L352.38922 225.15466L352.38922 225.15466L352.38922 225.15466L352.38922 225.15466C 347.05157 219.81703 347.05157 211.17516 352.38922 205.83752L352.38922 205.83752L352.38922 205.83752C 357.72684 200.4999 366.3687 200.4999 371.70633 205.83752L371.70633 205.83752L371.70633 205.83752L371.70633 205.83752L371.70633 205.83752L371.70633 205.83752L380.64474 214.81828L380.64474 214.81828L380.64474 214.81828L380.64474 214.81828L380.64474 214.81828C 383.27118 217.44472 387.54977 217.44472 390.21857 214.81828L390.21857 214.81828L390.21857 214.81828C 392.84503 212.19183 392.84503 207.91325 390.21857 205.2868L390.21857 205.2868L390.21857 205.2868L390.21857 205.2868L371.4945 186.56274L371.4945 186.56274L368.19028 183.2585L368.19028 183.2585L361.7936 176.86182L361.7936 176.86182L361.7936 176.86182L361.7936 176.86182L361.7936 176.86182C 355.18512 170.25333 344.42514 170.25333 337.81665 176.86182L337.81665 176.86182L337.81665 176.86182C 331.20816 183.4703 331.20816 194.23029 337.81665 200.83878L337.81665 200.83878L337.81665 200.83878L337.81665 200.83878L346.67032 209.69246L346.67032 209.69246L341.79868 214.5641L341.79868 214.5641L332.945 205.71042L332.945 205.71042L332.945 205.71042L332.945 205.71042L332.945 205.71042C 323.62534 196.39076 323.62534 181.2251 332.945 171.9478z" stroke="#FFFFFF" stroke-width="0.56482816" fill="#FCFCFC" fill-rule="nonzero" />
    <path id=""  transform="matrix(1 0 0 -1 0 500)"  d="M303.4186 240.15082L303.4186 240.15082L303.4186 240.15082L303.4186 240.15082L303.4186 240.15082L303.4186 240.15082C 306.04507 242.77727 310.32364 242.77727 312.95007 240.15082L312.95007 240.15082L312.95007 240.15082C 315.57654 237.52437 315.57654 233.24579 312.95007 230.57698L312.95007 230.57698L312.95007 230.57698L312.95007 230.57698L312.95007 230.57698L312.95007 230.57698L303.96933 221.5962L303.96933 221.5962L303.96933 221.5962L303.96933 221.5962L303.96933 221.5962C 298.6317 216.25858 298.6317 207.61671 303.96933 202.27908L303.96933 202.27908L303.96933 202.27908C 309.2646 196.98383 317.90646 196.94145 323.24408 202.27908L323.24408 202.27908L323.24408 202.27908L323.24408 202.27908L341.96814 221.00313L341.96814 221.00313L342.98483 222.01982L342.98483 222.01982L345.2724 224.30736L345.2724 224.30736L351.66907 230.70406L351.66907 230.70406L351.66907 230.70406C 360.98874 240.02371 360.98874 255.14699 351.66907 264.4243L351.66907 264.4243L351.66907 264.4243C 342.39175 273.70157 327.22614 273.70157 317.94882 264.4243L317.94882 264.4243L317.94882 264.4243L317.94882 264.4243L309.09515 255.5706L309.09515 255.5706L314.0515 250.7837L314.0515 250.7837L322.90518 259.6374L322.90518 259.6374L322.90518 259.6374L322.90518 259.6374L322.90518 259.6374C 329.51367 266.24588 340.27365 266.24588 346.88214 259.6374L346.88214 259.6374L346.88214 259.6374C 353.49063 253.02888 353.49063 242.2689 346.88214 235.66042L346.88214 235.66042L346.88214 235.66042L346.88214 235.66042L338.15555 226.9338L338.15555 226.9338L318.45715 207.23543L318.45715 207.23543L318.45715 207.23543L318.45715 207.23543L318.45715 207.23543C 315.78833 204.56662 311.50977 204.56662 308.88333 207.19305L308.88333 207.19305L308.88333 207.19305C 306.25687 209.8195 306.25687 214.05573 308.84094 216.72453L308.84094 216.72453L308.84094 216.72453L308.84094 216.72453L317.86407 225.74767L317.86407 225.74767L317.86407 225.74767C 323.20172 231.0853 323.20172 239.72717 317.86407 245.06479L317.86407 245.06479L317.86407 245.06479C 312.52646 250.40242 303.88458 250.40242 298.54697 245.06479L298.54697 245.06479L298.54697 245.06479L298.54697 245.06479L279.95 226.46782L279.95 226.46782L284.82166 221.59618L284.82166 221.59618L303.4186 240.15082z" stroke="#FFFFFF" stroke-width="0.56482816" fill="#FCFCFC" fill-rule="nonzero" />
    <path id=""  transform="matrix(1 0 0 -1 0 500)"  d="M240.04489 152.75778C 249.32219 143.48048 264.48782 143.48048 273.76514 152.75778L273.76514 152.75778L280.1618 159.15446L280.1618 159.15446L282.44937 161.44202L282.44937 161.44202L283.46606 162.4587L283.46606 162.4587L302.1901 181.18275L302.1901 181.18275L302.1901 181.18275L302.1901 181.18275L302.1901 181.18275C 307.5277 186.52039 307.5277 195.16225 302.1901 200.49986L302.1901 200.49986L302.1901 200.49986C 296.89484 205.79512 288.3377 205.8375 283.00006 200.58458L283.00006 200.58458L283.00006 200.58458L283.00006 200.58458L273.93457 191.5191L273.93457 191.5191L273.93457 191.5191L273.93457 191.5191L273.93457 191.5191L273.93457 191.5191L273.93457 191.5191C 271.3081 188.89265 267.02954 188.89265 264.36072 191.5191L264.36072 191.5191L264.36072 191.5191C 261.73428 194.14554 261.73428 198.42412 264.36072 201.09294L264.36072 201.09294L264.36072 201.09294L264.36072 201.09294L282.9577 219.68993L282.9577 219.68993L278.08606 224.56155L278.08606 224.56155L259.48907 205.9646L259.48907 205.9646L259.48907 205.9646L259.48907 205.9646L259.48907 205.9646C 254.15147 200.62697 254.15147 191.9851 259.48907 186.64748L259.48907 186.64748L259.48907 186.64748C 264.82672 181.30984 273.4686 181.30984 278.8062 186.64748L278.8062 186.64748L278.8062 186.64748L278.8062 186.64748L278.8062 186.64748L278.8062 186.64748L287.787 195.62823L287.787 195.62823L287.787 195.62823L287.787 195.62823L287.787 195.62823C 290.41342 198.25468 294.69202 198.25468 297.3608 195.62823L297.3608 195.62823L297.3608 195.62823C 299.98724 193.00179 299.98724 188.7232 297.3608 186.09676L297.3608 186.09676L297.3608 186.09676L297.3608 186.09676L278.63678 167.37271L278.63678 167.37271L275.33252 164.06847L275.33252 164.06847L268.93585 157.67178L268.93585 157.67178L268.93585 157.67178L268.93585 157.67178L268.93585 157.67178C 262.32733 151.06328 251.56737 151.06328 244.95888 157.67178L244.95888 157.67178L244.95888 157.67178C 238.3504 164.28027 238.3504 175.04024 244.95888 181.64873L244.95888 181.64873L244.95888 181.64873L244.95888 181.64873L253.81256 190.5024L253.81256 190.5024L248.94092 195.37404L248.94092 195.37404L240.08723 186.52037L240.08723 186.52037L240.08723 186.52037L240.08723 186.52037L240.08723 186.52037C 230.7676 177.15837 230.7676 162.03508 240.04489 152.75778z" stroke="#FFFFFF" stroke-width="0.56482816" fill="#FCFCFC" fill-rule="nonzero" />
    <path id=""  transform="matrix(1 0 0 -1 0 500)"  d="M97.45404 106.92197L97.45404 106.92197L97.45404 106.92197L97.45404 106.92197L97.45404 106.92197L97.45404 106.92197C 100.080475 109.54841 104.35907 109.54841 106.985504 106.92197L106.985504 106.92197L106.985504 106.92197C 109.61197 104.29552 109.61197 100.01694 106.985504 97.34813L106.985504 97.34813L106.985504 97.34813L106.985504 97.34813L106.985504 97.34813L106.985504 97.34813L98.00473 88.36736L98.00473 88.36736L98.00473 88.36736L98.00473 88.36736L98.00473 88.36736C 92.667114 83.02974 92.667114 74.38786 98.00473 69.05024L98.00473 69.05024L98.00473 69.05024C 103.30002 63.75498 111.941864 63.71262 117.27951 69.05024L117.27951 69.05024L117.27951 69.05024L117.27951 69.05024L136.00356 87.77429L136.00356 87.77429L137.02023 88.790985L137.02023 88.790985L139.30779 91.07854L139.30779 91.07854L145.70447 97.47522L145.70447 97.47522L145.70447 97.47522C 155.02414 106.79488 155.02414 121.91816 145.70447 131.19545L145.70447 131.19545L145.70447 131.19545C 136.42717 140.47276 121.261536 140.47276 111.98425 131.19545L111.98425 131.19545L111.98425 131.19545L111.98425 131.19545L103.21527 122.426506L103.21527 122.426506L108.086914 117.55486L108.086914 117.55486L116.94058 126.40855L116.94058 126.40855L116.94058 126.40855L116.94058 126.40855L116.94058 126.40855C 123.54907 133.01703 134.30905 133.01703 140.91754 126.40855L140.91754 126.40855L140.91754 126.40855C 147.52605 119.80006 147.52605 109.04008 140.91754 102.43159L140.91754 102.43159L140.91754 102.43159L140.91754 102.43159L132.19095 93.704994L132.19095 93.704994L112.49255 74.006615L112.49255 74.006615L112.49255 74.006615L112.49255 74.006615L112.49255 74.006615C 109.82376 71.3378 105.5452 71.3378 102.91873 73.96426L102.91873 73.96426L102.91873 73.96426C 100.29227 76.5907 100.29227 80.82691 102.87634 83.49573L102.87634 83.49573L102.87634 83.49573L102.87634 83.49573L111.899475 92.51886L111.899475 92.51886L111.899475 92.51886C 117.23712 97.85648 117.23712 106.49836 111.899475 111.83598L111.899475 111.83598L111.899475 111.83598C 106.56186 117.17361 97.91998 117.17361 92.58237 111.83598L92.58237 111.83598L92.58237 111.83598L92.58237 111.83598L73.98541 93.19665L73.98541 93.19665L78.857056 88.325005L78.857056 88.325005L97.45404 106.92197z" stroke="#FFFFFF" stroke-width="0.56482816" fill="#FCFCFC" fill-rule="nonzero" />
    <path id=""  transform="matrix(1 0 0 -1 0 500)"  d="M210.7303 220.19824L210.7303 220.19824L210.7303 220.19824L210.7303 220.19824L210.7303 220.19824L210.7303 220.19824C 213.35674 222.82469 217.63531 222.82469 220.26176 220.19824L220.26176 220.19824L220.26176 220.19824C 222.88821 217.5718 222.88821 213.29321 220.26176 210.6244L220.26176 210.6244L220.26176 210.6244L220.26176 210.6244L220.26176 210.6244L220.26176 210.6244L211.281 201.64363L211.281 201.64363L211.281 201.64363L211.281 201.64363L211.281 201.64363C 205.94337 196.306 205.94337 187.66414 211.281 182.32652L211.281 182.32652L211.281 182.32652C 216.57626 177.03127 225.21814 176.98889 230.55577 182.32652L230.55577 182.32652L230.55577 182.32652L230.55577 182.32652L249.36455 201.1353L249.36455 201.1353L250.38124 202.15198L250.38124 202.15198L252.66881 204.43953L252.66881 204.43953L259.0655 210.83621L259.0655 210.83621L259.0655 210.83621C 268.38513 220.15587 268.38513 235.27914 259.0655 244.55646L259.0655 244.55646L259.0655 244.55646C 249.78818 253.83376 234.62254 253.83376 225.34525 244.55646L225.34525 244.55646L225.34525 244.55646L225.34525 244.55646L216.49156 235.70279L216.49156 235.70279L221.3632 230.83115L221.3632 230.83115L230.21689 239.68481L230.21689 239.68481L230.21689 239.68481L230.21689 239.68481L230.21689 239.68481C 236.82538 246.2933 247.58534 246.2933 254.19383 239.68481L254.19383 239.68481L254.19383 239.68481C 260.8023 233.07632 260.8023 222.31635 254.19383 215.70786L254.19383 215.70786L254.19383 215.70786L254.19383 215.70786L245.46724 206.98125L245.46724 206.98125L225.76886 187.28287L225.76886 187.28287L225.76886 187.28287L225.76886 187.28287L225.76886 187.28287C 223.10005 184.61406 218.82149 184.61406 216.19502 187.2405L216.19502 187.2405L216.19502 187.2405C 213.56857 189.86694 213.56857 194.10316 216.15265 196.77197L216.15265 196.77197L216.15265 196.77197L216.15265 196.77197L225.17578 205.7951L225.17578 205.7951L225.17578 205.7951C 230.51341 211.13274 230.51341 219.77461 225.17578 225.11223L225.17578 225.11223L225.17578 225.11223C 219.83815 230.44986 211.19629 230.44986 205.85866 225.11223L205.85866 225.11223L205.85866 225.11223L205.85866 225.11223L187.26169 206.51526L187.26169 206.51526L192.13333 201.64362L192.13333 201.64362L210.7303 220.19824z" stroke="#FFFFFF" stroke-width="0.56482816" fill="#FCFCFC" fill-rule="nonzero" />
    <path id=""  transform="matrix(1 0 0 -1 0 500)"  d="M147.39894 132.80522C 156.67624 123.527916 171.84187 123.527916 181.11919 132.80522L181.11919 132.80522L187.51587 139.2019L187.51587 139.2019L189.80342 141.48946L189.80342 141.48946L190.8201 142.50615L190.8201 142.50615L209.54417 161.23021L209.54417 161.23021L209.54417 161.23021L209.54417 161.23021L209.54417 161.23021C 214.8818 166.56784 214.8818 175.2097 209.54417 180.54733L209.54417 180.54733L209.54417 180.54733C 204.2489 185.8426 195.69176 185.88496 190.35413 180.63205L190.35413 180.63205L190.35413 180.63205L190.35413 180.63205L181.28865 171.56657L181.28865 171.56657L181.28865 171.56657L181.28865 171.56657L181.28865 171.56657L181.28865 171.56657L181.28865 171.56657C 178.6622 168.94012 174.38362 168.94012 171.7148 171.56657L171.7148 171.56657L171.7148 171.56657C 169.08835 174.19302 169.08835 178.4716 171.7148 181.14041L171.7148 181.14041L171.7148 181.14041L171.7148 181.14041L190.31178 199.7374L190.31178 199.7374L185.44014 204.60904L185.44014 204.60904L166.84317 186.01207L166.84317 186.01207L166.84317 186.01207L166.84317 186.01207L166.84317 186.01207C 161.50554 180.67444 161.50554 172.03258 166.84317 166.69495L166.84317 166.69495L166.84317 166.69495C 172.1808 161.35732 180.82268 161.35732 186.16031 166.69495L186.16031 166.69495L186.16031 166.69495L186.16031 166.69495L186.16031 166.69495L186.16031 166.69495L195.14107 175.6757L195.14107 175.6757L195.14107 175.6757L195.14107 175.6757L195.14107 175.6757C 197.76752 178.30215 202.0461 178.30215 204.7149 175.6757L204.7149 175.6757L204.7149 175.6757C 207.34135 173.04926 207.34135 168.77068 204.7149 166.14423L204.7149 166.14423L204.7149 166.14423L204.7149 166.14423L185.99086 147.42018L185.99086 147.42018L182.68661 144.11594L182.68661 144.11594L176.28993 137.71925L176.28993 137.71925L176.28993 137.71925L176.28993 137.71925L176.28993 137.71925C 169.68143 131.11076 158.92146 131.11076 152.31299 137.71925L152.31299 137.71925L152.31299 137.71925C 145.70448 144.32774 145.70448 155.08774 152.31299 161.69621L152.31299 161.69621L152.31299 161.69621L152.31299 161.69621L161.16666 170.54988L161.16666 170.54988L156.29501 175.42152L156.29501 175.42152L147.44135 166.56786L147.44135 166.56786L147.44135 166.56786L147.44135 166.56786L147.44135 166.56786C 138.07927 157.24817 138.07927 142.12488 147.39894 132.80522z" stroke="#FFFFFF" stroke-width="0.56482816" fill="#FCFCFC" fill-rule="nonzero" />
    <path id=""  transform="matrix(1 0 0 -1 0 500)"  d="M117.87256 201.00822L117.87256 201.00822L117.87256 201.00822L117.87256 201.00822L117.87256 201.00822L117.87256 201.00822C 120.49899 203.63467 124.77759 203.63467 127.40402 201.00822L127.40402 201.00822L127.40402 201.00822C 130.03047 198.38177 130.03047 194.1032 127.40402 191.43437L127.40402 191.43437L127.40402 191.43437L127.40402 191.43437L127.40402 191.43437L127.40402 191.43437L118.42325 182.45361L118.42325 182.45361L118.42325 182.45361L118.42325 182.45361L118.42325 182.45361C 113.08563 177.11598 113.08563 168.47412 118.42325 163.1365L118.42325 163.1365L118.42325 163.1365C 123.71854 157.84123 132.36038 157.79887 137.69801 163.1365L137.69801 163.1365L137.69801 163.1365L137.69801 163.1365L156.42207 181.86055L156.42207 181.86055L157.43875 182.87723L157.43875 182.87723L159.7263 185.16478L159.7263 185.16478L166.12299 191.56146L166.12299 191.56146L166.12299 191.56146C 175.44266 200.88113 175.44266 216.0044 166.12299 225.2817L166.12299 225.2817L166.12299 225.2817C 156.84569 234.55899 141.68005 234.55899 132.40276 225.2817L132.40276 225.2817L132.40276 225.2817L132.40276 225.2817L123.54907 216.42802L123.54907 216.42802L128.42073 211.55638L128.42073 211.55638L137.2744 220.41005L137.2744 220.41005L137.2744 220.41005L137.2744 220.41005L137.2744 220.41005C 143.88289 227.01855 154.64287 227.01855 161.25136 220.41005L161.25136 220.41005L161.25136 220.41005C 167.85986 213.80156 167.85986 203.0416 161.25136 196.43309L161.25136 196.43309L161.25136 196.43309L161.25136 196.43309L152.52477 187.7065L152.52477 187.7065L132.82637 168.0081L132.82637 168.0081L132.82637 168.0081L132.82637 168.0081L132.82637 168.0081C 130.15756 165.3393 125.879 165.3393 123.25253 167.96574L123.25253 167.96574L123.25253 167.96574C 120.6261 170.5922 120.6261 174.8284 123.210175 177.49721L123.210175 177.49721L123.210175 177.49721L123.210175 177.49721L132.23329 186.52034L132.23329 186.52034L132.23329 186.52034C 137.57094 191.85799 137.57094 200.49985 132.23329 205.83746L132.23329 205.83746L132.23329 205.83746C 126.89566 211.1751 118.253815 211.1751 112.9162 205.83746L112.9162 205.83746L112.9162 205.83746L112.9162 205.83746L94.319214 187.2405L94.319214 187.2405L99.19086 182.36885L99.19086 182.36885L117.87256 201.00822z" stroke="#FFFFFF" stroke-width="0.56482816" fill="#FCFCFC" fill-rule="nonzero" />
    <path id=""  transform="matrix(1 0 0 -1 0 500)"  d="M54.49884 113.61519C 63.776123 104.33788 78.9418 104.33788 88.219086 113.61519L88.219086 113.61519L94.61578 120.01186L94.61578 120.01186L96.90332 122.29942L96.90332 122.29942L97.92001 123.31612L97.92001 123.31612L116.64404 142.04016L116.64404 142.04016L116.64404 142.04016L116.64404 142.04016L116.64404 142.04016C 121.98169 147.37779 121.98169 156.01967 116.64404 161.35728L116.64404 161.35728L116.64404 161.35728C 111.348785 166.65254 102.79166 166.69492 97.45401 161.442L97.45401 161.442L97.45401 161.442L97.45401 161.442L88.38852 152.37651L88.38852 152.37651L88.38852 152.37651L88.38852 152.37651L88.38852 152.37651L88.38852 152.37651L88.38852 152.37651C 85.762054 149.75006 81.48352 149.75006 78.8147 152.37651L78.8147 152.37651L78.8147 152.37651C 76.18823 155.00296 76.18823 159.28154 78.8147 161.95036L78.8147 161.95036L78.8147 161.95036L78.8147 161.95036L97.41165 180.54733L97.41165 180.54733L92.54001 185.41898L92.54001 185.41898L73.943054 166.82202L73.943054 166.82202L73.943054 166.82202L73.943054 166.82202L73.943054 166.82202C 68.60541 161.48439 68.60541 152.84251 73.943054 147.50488L73.943054 147.50488L73.943054 147.50488C 79.28067 142.16727 87.92255 142.16727 93.26016 147.50488L93.26016 147.50488L93.26016 147.50488L93.26016 147.50488L93.26016 147.50488L93.26016 147.50488L102.24094 156.48566L102.24094 156.48566L102.24094 156.48566L102.24094 156.48566L102.24094 156.48566C 104.86737 159.1121 109.145966 159.1121 111.81479 156.48566L111.81479 156.48566L111.81479 156.48566C 114.44122 153.8592 114.44122 149.58063 111.81479 146.95418L111.81479 146.95418L111.81479 146.95418L111.81479 146.95418L93.09073 128.23013L93.09073 128.23013L89.7865 124.92588L89.7865 124.92588L83.3898 118.5292L83.3898 118.5292L83.3898 118.5292L83.3898 118.5292L83.3898 118.5292C 76.78131 111.920715 66.02136 111.920715 59.41284 118.5292L59.41284 118.5292L59.41284 118.5292C 52.80435 125.13769 52.80435 135.89766 59.41284 142.50615L59.41284 142.50615L59.41284 142.50615L59.41284 142.50615L68.26654 151.35983L68.26654 151.35983L63.394897 156.23148L63.394897 156.23148L54.5412 147.37779L54.5412 147.37779L54.5412 147.37779L54.5412 147.37779L54.5412 147.37779C 45.221497 138.01576 45.221497 122.892494 54.49884 113.61519z" stroke="#FFFFFF" stroke-width="0.56482816" fill="#FCFCFC" fill-rule="nonzero" />
    <path id=""  transform="matrix(1 0 0 -1 0 500)"  d="M137.57094 293.39996L137.57094 293.39996L137.57094 293.39996L137.57094 293.39996L137.57094 293.39996L137.57094 293.39996C 140.19737 296.02643 144.47595 296.02643 147.1024 293.39996L147.1024 293.39996L147.1024 293.39996C 149.72885 290.7735 149.72885 286.49493 147.1024 283.8261L147.1024 283.8261L147.1024 283.8261L147.1024 283.8261L147.1024 283.8261L147.1024 283.8261L138.12164 274.84534L138.12164 274.84534L138.12164 274.84534L138.12164 274.84534L138.12164 274.84534C 132.78401 269.50772 132.78401 260.86584 138.12164 255.52824L138.12164 255.52824L138.12164 255.52824C 143.4169 250.23297 152.05878 250.1906 157.39641 255.52824L157.39641 255.52824L157.39641 255.52824L157.39641 255.52824L176.12045 274.2523L176.12045 274.2523L177.13713 275.26898L177.13713 275.26898L179.42468 277.55652L179.42468 277.55652L185.82137 283.95322L185.82137 283.95322L185.82137 283.95322C 195.14104 293.2729 195.14104 308.39615 185.82137 317.67343L185.82137 317.67343L185.82137 317.67343C 176.54407 326.95074 161.37843 326.95074 152.10114 317.67343L152.10114 317.67343L152.10114 317.67343L152.10114 317.67343L143.24747 308.81976L143.24747 308.81976L148.11911 303.94812L148.11911 303.94812L156.97278 312.8018L156.97278 312.8018L156.97278 312.8018L156.97278 312.8018L156.97278 312.8018C 163.58128 319.41028 174.34125 319.41028 180.94974 312.8018L180.94974 312.8018L180.94974 312.8018C 187.55824 306.1933 187.55824 295.43332 180.94974 288.82483L180.94974 288.82483L180.94974 288.82483L180.94974 288.82483L172.22314 280.09824L172.22314 280.09824L152.52477 260.39984L152.52477 260.39984L152.52477 260.39984L152.52477 260.39984L152.52477 260.39984C 149.85594 257.73102 145.57738 257.73102 142.95091 260.35748L142.95091 260.35748L142.95091 260.35748C 140.32446 262.98392 140.32446 267.22012 142.90855 269.88895L142.90855 269.88895L142.90855 269.88895L142.90855 269.88895L151.93169 278.91208L151.93169 278.91208L151.93169 278.91208C 157.26932 284.24973 157.26932 292.8916 151.93169 298.2292L151.93169 298.2292L151.93169 298.2292C 146.59404 303.56683 137.95218 303.56683 132.61456 298.2292L132.61456 298.2292L132.61456 298.2292L132.61456 298.2292L114.01761 279.63223L114.01761 279.63223L118.88925 274.7606L118.88925 274.7606L137.57094 293.39996z" stroke="#FFFFFF" stroke-width="0.56482816" fill="#FCFCFC" fill-rule="nonzero" />
    <path id=""  transform="matrix(1 0 0 -1 0 500)"  d="M74.197235 205.9646C 83.47452 196.6873 98.64017 196.6873 107.91748 205.9646L107.91748 205.9646L114.31415 212.36128L114.31415 212.36128L116.601715 214.64883L116.601715 214.64883L117.61838 215.66551L117.61838 215.66551L136.34244 234.38957L136.34244 234.38957L136.34244 234.38957L136.34244 234.38957L136.34244 234.38957C 141.68007 239.7272 141.68007 248.36906 136.34244 253.70668L136.34244 253.70668L136.34244 253.70668C 131.04716 259.00195 122.49002 259.0443 117.152405 253.7914L117.152405 253.7914L117.152405 253.7914L117.152405 253.7914L108.086914 244.72592L108.086914 244.72592L108.086914 244.72592L108.086914 244.72592L108.086914 244.72592L108.086914 244.72592L108.086914 244.72592C 105.46045 242.09947 101.181885 242.09947 98.51306 244.72592L98.51306 244.72592L98.51306 244.72592C 95.88663 247.35237 95.88663 251.63095 98.51306 254.29976L98.51306 254.29976L98.51306 254.29976L98.51306 254.29976L117.19476 272.89673L117.19476 272.89673L112.32312 277.76837L112.32312 277.76837L93.726166 259.17142L93.726166 259.17142L93.726166 259.17142L93.726166 259.17142L93.726166 259.17142C 88.38852 253.83379 88.38852 245.19193 93.726166 239.8543L93.726166 239.8543L93.726166 239.8543C 99.06378 234.51666 107.70566 234.51666 113.043304 239.8543L113.043304 239.8543L113.043304 239.8543L113.043304 239.8543L113.043304 239.8543L113.043304 239.8543L122.02405 248.83505L122.02405 248.83505L122.02405 248.83505L122.02405 248.83505L122.02405 248.83505C 124.65051 251.4615 128.92908 251.4615 131.5979 248.83505L131.5979 248.83505L131.5979 248.83505C 134.22435 246.2086 134.22435 241.93002 131.5979 239.30357L131.5979 239.30357L131.5979 239.30357L131.5979 239.30357L112.87384 220.57953L112.87384 220.57953L109.56961 217.27528L109.56961 217.27528L103.17291 210.8786L103.17291 210.8786L103.17291 210.8786L103.17291 210.8786L103.17291 210.8786C 96.56442 204.2701 85.804474 204.2701 79.195984 210.8786L79.195984 210.8786L79.195984 210.8786C 72.58746 217.48709 72.58746 228.24706 79.195984 234.85555L79.195984 234.85555L79.195984 234.85555L79.195984 234.85555L88.04965 243.70921L88.04965 243.70921L83.17801 248.58086L83.17801 248.58086L74.32434 239.72719L74.32434 239.72719L74.32434 239.72719L74.32434 239.72719L74.32434 239.72719C 64.91989 230.40753 64.91989 215.28427 74.197235 205.9646z" stroke="#FFFFFF" stroke-width="0.56482816" fill="#FCFCFC" fill-rule="nonzero" />
	</g>
</g>
</svg>