<svg xmlns="http://www.w3.org/2000/svg" xmlns:xlink="http://www.w3.org/1999/xlink"><symbol id="arrow-left" viewBox="0 0 750 750"><path d="M155.4 374.1l67.3-67 372 373.5-67.3 67c-372-373.5-.1 0-372-373.5z"/><path d="M154.7 374.3l373.5-372 67 67.3-373.5 372.1-67-67.4z"/></symbol><symbol id="arrow-right" viewBox="0 0 750 750"><path d="M155.4 68.8l67.3-67 371.9 373.5-67.3 67L155.4 68.8z"/><path d="M154.7 680.9L528.3 309l67 67.3-373.5 372c-67.1-67.4-.1 0-67.1-67.4z"/></symbol><symbol id="download" viewBox="0 0 600 600"><path d="M254.6 16.6h90.7v279.9h-90.7z"/><path d="M102.9 178.1l197.7 257.1 196.5-257.1zm-3.2 314.6h400.5v90.7H99.7z"/></symbol><symbol id="edit" viewBox="0 0 380 380"><path d="M101 275.9l3.4-71.6L300.6 8.1l66.6 66.6-196 196-70.2 5.2zm32.6-58.7l-1.3 26.5 25.5-1.9L325.1 74.7l-24.5-24.5-167 167z"/><path d="M250.456 83.933l21.072-21.071 45.537 45.537-21.072 21.072zM321.4 361.2H18.7V58.6h152.1v29.8H48.5v243.1h243.1V206.2h29.8z"/></symbol><symbol id="exit" viewBox="0 0 600 600"><path d="M145.7 468.8L13 336c-11-11-11-28.9 0-39.9l132.7-132.7 39.9 39.9L72.8 316.1l112.8 112.8-39.9 39.9z"/><path d="M427.7 344.3H32.4v-56.4h395.4c46.6 0 84.6-38 84.6-84.6v-84.6h56.4v84.6c0 37.5-14.7 72.8-41.5 99.5-26.7 26.7-62.1 41.5-99.6 41.5z"/></symbol><symbol id="fb" viewBox="0 0 11 22"><path d="M10.1 7.014H6.64V4.769c0-.841.561-1.028.935-1.028h2.431V0H6.64C2.899 0 2.151 2.805 2.151 4.489V6.92H0v3.834h2.151v10.848H6.64V10.754h2.992l.468-3.74z" fill-rule="nonzero"/></symbol><symbol id="vk" viewBox="0 0 26 16"><path d="M13.421 15.07c.837 0 .837-1.172.837-1.675 0-.837.837-1.674 1.675-1.674.837 0 2.26 1.423 3.349 2.512.837.837.837.837 1.674.837h2.512s1.674-.084 1.674-1.675c0-.502-.586-1.423-2.512-3.348-1.674-1.675-2.511-.838 0-4.186 1.507-2.094 2.68-3.935 2.512-4.438-.167-.502-4.437-1.339-5.023-.586-1.675 2.512-2.01 3.098-2.512 4.186-.837 1.675-.921 2.512-1.674 2.512-.754 0-.838-1.591-.838-2.512 0-2.763.419-4.688-.837-5.023h-2.511c-1.34 0-2.512.837-2.512.837s-1.005.837-.837.837c.251 0 1.674-.334 1.674.838v1.674s0 3.349-.837 3.349-2.512-3.349-4.186-5.861C4.463.67 4.212.837 3.374.837H.863c-.837 0-.921.586-.837.837C1.7 5.861 2.872 8.456 6.054 11.805c2.93 3.014 4.855 3.181 6.53 3.265h.837z" fill-rule="nonzero"/></symbol><symbol id="wave" viewBox="0 0 1432.4 1079.8"><path fill="#3882f1" d="M9 594.5C-32.7 398.5 60.2 61.7 493.6 7.6 869-39.4 1230.4 137 1368 409.3c213.8 423.1-142.2 809.8-508.1 621.6C545.7 869.3 77.7 916.9 9 594.5z"/></symbol></svg>