<?xml version="1.0" encoding="UTF-8"?>
<svg enable-background="new 0 0 81.1 78.2" version="1.1" viewBox="0 0 81.1 78.2" xml:space="preserve" xmlns="http://www.w3.org/2000/svg">
	<path d="m18.4 25.2c2.9 0 5 2.1 5 5.1s-2.1 5.1-5 5.1c-0.9 0-1.8-0.3-2.5-0.7-0.2-0.1-0.5-0.1-0.6 0.2-0.1 0.1-0.2 0.2-0.4 0.2h-1.8c-0.2 0-0.4-0.2-0.4-0.4v-12.2c0-0.2 0.2-0.4 0.4-0.4h2.4c0.2 0 0.4 0.2 0.4 0.4v2.7c0 0.3 0.3 0.5 0.6 0.4 0.6-0.2 1.3-0.4 1.9-0.4zm1.7 5.1c0-1.2-0.9-2.2-2.1-2.2s-2.1 0.9-2.1 2.2c0 1.2 0.9 2.2 2.1 2.2s2.1-0.9 2.1-2.2z"/>
	<path d="m25.3 22.1h2.5c0.2 0 0.4 0.2 0.4 0.4v12.2c0 0.2-0.2 0.4-0.4 0.4h-2.5c-0.2 0-0.4-0.2-0.4-0.4v-12.2c0-0.2 0.2-0.4 0.4-0.4z"/>
	<path d="m29.8 30.3c0-3 2.2-5.1 5.4-5.1 3.1 0 5.4 2.1 5.4 5.1s-2.3 5.1-5.4 5.1c-3.2 0-5.4-2.1-5.4-5.1zm5.3 2.1c1.2 0 2.1-0.9 2.1-2.1 0-1.3-0.9-2.1-2.1-2.1s-2.1 0.9-2.1 2.1c0.1 1.3 0.9 2.1 2.1 2.1z"/>
	<path d="m43.2 37.4c0-3 2.2-5.1 5.4-5.1 3.1 0 5.4 2.1 5.4 5.1s-2.3 5.1-5.4 5.1-5.4-2.1-5.4-5.1zm5.4 2.2c1.2 0 2.1-0.9 2.1-2.1 0-1.3-0.9-2.1-2.1-2.1s-2.1 0.9-2.1 2.1 0.9 2.1 2.1 2.1z"/>
	<path d="m70.2 36.2v5.6c0 0.2-0.2 0.4-0.4 0.4h-2.5c-0.2 0-0.4-0.2-0.4-0.4v-5.2c0-1-0.4-1.5-1.1-1.5-0.9 0-1.4 0.6-1.4 1.8v4.8c0 0.2-0.2 0.4-0.4 0.4h-2.4c-0.2 0-0.4-0.2-0.4-0.4v-5.2c0-1-0.4-1.5-1.1-1.5-0.9 0-1.4 0.6-1.4 1.8v4.8c0 0.2-0.2 0.4-0.4 0.4h-2.5c-0.2 0-0.4-0.2-0.4-0.4v-8.8c0-0.2 0.2-0.4 0.4-0.4h1.6c0.2 0 0.3 0.1 0.4 0.2l0.1 0.3c0.1 0.2 0.4 0.3 0.6 0.1 0.7-0.6 1.5-0.9 2.4-0.9 1 0 1.9 0.4 2.5 1 0.2 0.2 0.4 0.2 0.6 0 0.7-0.7 1.6-1.1 2.6-1.1 2.2 0.4 3.6 2 3.6 4.2z"/>
	<path d="m22.2 54.7v5.4c0 0.2-0.2 0.4-0.4 0.4h-2.5c-0.2 0-0.4-0.2-0.4-0.4v-5c0-1.1-0.4-1.7-1.2-1.7-1 0-1.6 0.7-1.6 1.9v4.7c0 0.2-0.2 0.4-0.4 0.4h-2.5c-0.2 0-0.4-0.2-0.4-0.4v-12.2c0-0.2 0.2-0.4 0.4-0.4h2.5c0.2 0 0.4 0.2 0.4 0.4v2.9c0 0.3 0.3 0.5 0.6 0.4 0.6-0.3 1.2-0.5 1.9-0.5 2.2 0 3.6 1.6 3.6 4.1z"/>
	<path d="m23.6 55.7c0-3 2.2-5.1 5.4-5.1 3.1 0 5.4 2.1 5.4 5.1s-2.3 5.1-5.4 5.1-5.4-2.2-5.4-5.1zm5.4 2.1c1.2 0 2.1-0.9 2.1-2.1 0-1.3-0.9-2.1-2.1-2.1s-2.1 0.9-2.1 2.1 0.9 2.1 2.1 2.1z"/>
	<path d="m35.8 56.4v-5.1c0-0.2 0.2-0.4 0.4-0.4h2.5c0.2 0 0.4 0.2 0.4 0.4v4.9c0 1 0.5 1.6 1.4 1.6s1.4-0.6 1.4-1.6v-4.9c0-0.2 0.2-0.4 0.4-0.4h2.5c0.2 0 0.4 0.2 0.4 0.4v5.1c0 2.7-1.9 4.4-4.7 4.4s-4.7-1.8-4.7-4.4z"/>
	<path d="m51.7 67.2c-2.4 0-3.9-1.2-4.2-3 0-0.2 0.2-0.5 0.4-0.5h2.4c0.2 0 0.3 0.1 0.4 0.3 0.1 0.5 0.6 0.7 1.1 0.7s0.9-0.2 0.9-0.7c0-0.6-0.7-0.7-1.6-0.9-1.5-0.2-3.4-0.7-3.4-3 0-1.9 1.6-3.2 4.1-3.2 2.2 0 3.7 1.1 4 2.8 0 0.2-0.2 0.5-0.4 0.5h-2.4c-0.2 0-0.3-0.1-0.4-0.3-0.1-0.4-0.5-0.6-1-0.6s-0.9 0.3-0.9 0.7c0 0.5 0.7 0.7 1.6 0.8 1.5 0.3 3.5 0.6 3.5 3 0.2 2-1.5 3.4-4.1 3.4z"/>
	<path d="m67.4 62v0.5c0 0.2-0.2 0.4-0.4 0.4h-6.2c-0.3 0-0.5 0.3-0.4 0.6 0.3 0.7 0.9 1.1 1.8 1.1 0.7 0 1.3-0.3 1.6-0.7 0.1-0.1 0.2-0.2 0.3-0.2h2.5c0.3 0 0.5 0.3 0.4 0.6-0.8 1.9-2.6 3-4.8 3-3 0-5.2-2.2-5.2-5.1s2.2-5.1 5.2-5.1c3-0.1 5.2 2.1 5.2 4.9zm-6.5-1h2.6c0.3 0 0.5-0.3 0.4-0.6-0.4-0.6-0.9-0.9-1.7-0.9-0.7 0-1.3 0.3-1.6 0.9-0.3 0.3-0.1 0.6 0.3 0.6z"/>
	<path d="m68 74h-21c-2.3 0-4.1-2.1-4.1-4.7 0-1.2-0.8-2.2-1.7-2.2h-29.3c-2.3 0-4.1-2.1-4.1-4.7v-16.3c0-2.6 1.8-4.7 4.1-4.7h27.2c0.1 0 0.2-0.2 0.2-0.4v-0.3c0-0.3-0.1-0.4-0.2-0.4h-31c-2.3 0-4.1-2.1-4.1-4.7v-17c0-1.9 1-3.6 2.5-4.3l17.3-8.3c1.1-0.5 2.3-0.5 3.4 0.1l14.9 8.1c1.4 0.8 2.3 2.4 2.3 4.2v4.6c0 1.6 1 2.9 2.3 2.9h25c2.3 0 4.1 2.1 4.1 4.7v14c0 2.6-1.8 4.7-4.1 4.7h-20.8c-0.1 0-0.2 0.2-0.2 0.4v0.3c0 0.3 0.1 0.4 0.2 0.4h17.1c2.3 0 4.1 2.1 4.1 4.7v14.3c0 2.5-1.8 4.6-4.1 4.6zm-56.1-30.7c-1.3 0-2.3 1.3-2.3 2.9v16.3c0 1.6 1 2.9 2.3 2.9h29.3c1.9 0 3.5 1.8 3.5 4 0 1.6 1 2.9 2.3 2.9h21c1.3 0 2.3-1.3 2.3-2.9v-14.4c0-1.6-1-2.9-2.3-2.9h-17.1c-1.1 0-2-1-2-2.2v-0.3c0-1.2 0.9-2.2 2-2.2h20.8c1.3 0 2.3-1.3 2.3-2.9v-14c0-1.6-1-2.9-2.3-2.9h-25c-2.3 0-4.1-2.1-4.1-4.7v-4.6c0-1.1-0.5-2.2-1.4-2.6l-14.9-8c-0.6-0.3-1.2-0.3-1.7 0l-17.3 8.2c-0.9 0.4-1.5 1.5-1.5 2.7v17.1c0 1.6 1 2.9 2.3 2.9h31.1c1.1 0 2 1 2 2.2v0.2c0 1.2-0.9 2.2-2 2.2h-27.3z"/>
</svg>
