<?xml version="1.0" encoding="utf-8"?>
<!-- Generator: Adobe Illustrator 23.0.1, SVG Export Plug-In . SVG Version: 6.00 Build 0)  -->
<svg version="1.1" id="Слой_1" xmlns="http://www.w3.org/2000/svg" xmlns:xlink="http://www.w3.org/1999/xlink" x="0px" y="0px"
	 viewBox="0 0 79.9 78.2" style="enable-background:new 0 0 79.9 78.2;" xml:space="preserve">
<style type="text/css">
	.st0{fill:#141414;}
	.st1{fill:#F4F4F4;}
</style>
<g>
	<g>
		<path class="st1" d="M19.9,25.2c2.9,0,5,2.1,5,5.1c0,3-2.1,5.1-5,5.1c-0.9,0-1.8-0.3-2.5-0.7c-0.2-0.1-0.5-0.1-0.6,0.2h0
			c-0.1,0.1-0.2,0.2-0.4,0.2h-1.8c-0.2,0-0.4-0.2-0.4-0.4V22.5c0-0.2,0.2-0.4,0.4-0.4h2.4c0.2,0,0.4,0.2,0.4,0.4v2.7
			c0,0.3,0.3,0.5,0.6,0.4C18.6,25.4,19.2,25.2,19.9,25.2L19.9,25.2z M21.6,30.3c0-1.2-0.9-2.2-2.1-2.2c-1.2,0-2.1,0.9-2.1,2.2
			c0,1.2,0.9,2.2,2.1,2.2C20.7,32.5,21.6,31.6,21.6,30.3z"/>
		<path class="st1" d="M26.8,22.1h2.5c0.2,0,0.4,0.2,0.4,0.4v12.2c0,0.2-0.2,0.4-0.4,0.4h-2.5c-0.2,0-0.4-0.2-0.4-0.4V22.5
			C26.4,22.3,26.6,22.1,26.8,22.1z"/>
		<path class="st1" d="M31.2,30.3c0-3,2.2-5.1,5.4-5.1c3.1,0,5.4,2.1,5.4,5.1c0,3-2.3,5.1-5.4,5.1C33.5,35.4,31.2,33.3,31.2,30.3z
			 M36.6,32.4c1.2,0,2.1-0.9,2.1-2.1c0-1.3-0.9-2.1-2.1-2.1s-2.1,0.9-2.1,2.1C34.5,31.6,35.4,32.4,36.6,32.4L36.6,32.4z"/>
		<path class="st1" d="M44.7,37.4c0-3,2.2-5.1,5.4-5.1c3.1,0,5.4,2.1,5.4,5.1c0,3-2.3,5.1-5.4,5.1C47,42.5,44.7,40.4,44.7,37.4z
			 M50.1,39.6c1.2,0,2.1-0.9,2.1-2.1c0-1.3-0.9-2.1-2.1-2.1S48,36.2,48,37.4C48,38.7,48.9,39.6,50.1,39.6L50.1,39.6z"/>
		<path class="st1" d="M71.7,36.2v5.6c0,0.2-0.2,0.4-0.4,0.4h-2.5c-0.2,0-0.4-0.2-0.4-0.4v-5.2c0-1-0.4-1.5-1.1-1.5
			c-0.9,0-1.4,0.6-1.4,1.8v4.8c0,0.2-0.2,0.4-0.4,0.4h-2.4c-0.2,0-0.4-0.2-0.4-0.4v-5.2c0-1-0.4-1.5-1.1-1.5c-0.9,0-1.4,0.6-1.4,1.8
			v4.8c0,0.2-0.2,0.4-0.4,0.4h-2.5c-0.2,0-0.4-0.2-0.4-0.4v-8.8c0-0.2,0.2-0.4,0.4-0.4H59c0.2,0,0.3,0.1,0.4,0.2l0.1,0.3
			c0.1,0.2,0.4,0.3,0.6,0.1c0.7-0.6,1.5-0.9,2.4-0.9c1,0,1.9,0.4,2.5,1c0.2,0.2,0.4,0.2,0.6,0c0.7-0.7,1.6-1.1,2.6-1.1
			C70.3,32.4,71.7,34,71.7,36.2z"/>
		<path class="st1" d="M23.7,54.7v5.4c0,0.2-0.2,0.4-0.4,0.4h-2.5c-0.2,0-0.4-0.2-0.4-0.4v-5c0-1.1-0.4-1.7-1.2-1.7
			c-1,0-1.6,0.7-1.6,1.9v4.7c0,0.2-0.2,0.4-0.4,0.4h-2.5c-0.2,0-0.4-0.2-0.4-0.4V47.8c0-0.2,0.2-0.4,0.4-0.4h2.5
			c0.2,0,0.4,0.2,0.4,0.4v2.9c0,0.3,0.3,0.5,0.6,0.4c0.6-0.3,1.2-0.5,1.9-0.5C22.3,50.6,23.7,52.2,23.7,54.7z"/>
		<path class="st1" d="M25.1,55.7c0-3,2.2-5.1,5.4-5.1c3.1,0,5.4,2.1,5.4,5.1c0,3-2.3,5.1-5.4,5.1C27.4,60.8,25.1,58.6,25.1,55.7z
			 M30.5,57.8c1.2,0,2.1-0.9,2.1-2.1c0-1.3-0.9-2.1-2.1-2.1c-1.2,0-2.1,0.9-2.1,2.1C28.4,56.9,29.3,57.8,30.5,57.8L30.5,57.8z"/>
		<path class="st1" d="M37.3,56.4v-5.1c0-0.2,0.2-0.4,0.4-0.4h2.5c0.2,0,0.4,0.2,0.4,0.4v4.9c0,1,0.5,1.6,1.4,1.6
			c0.9,0,1.4-0.6,1.4-1.6v-4.9c0-0.2,0.2-0.4,0.4-0.4h2.5c0.2,0,0.4,0.2,0.4,0.4v5.1c0,2.7-1.9,4.4-4.7,4.4
			C39.1,60.8,37.3,59,37.3,56.4z"/>
		<path class="st1" d="M53.2,67.2c-2.4,0-3.9-1.2-4.2-3c0-0.2,0.2-0.5,0.4-0.5h2.4c0.2,0,0.3,0.1,0.4,0.3c0.1,0.5,0.6,0.7,1.1,0.7
			c0.5,0,0.9-0.2,0.9-0.7c0-0.6-0.7-0.7-1.6-0.9c-1.5-0.2-3.4-0.7-3.4-3c0-1.9,1.6-3.2,4.1-3.2c2.2,0,3.7,1.1,4,2.8
			c0,0.2-0.2,0.5-0.4,0.5h-2.3c-0.2,0-0.3-0.1-0.4-0.3c-0.1-0.4-0.5-0.6-1-0.6c-0.5,0-0.9,0.3-0.9,0.7c0,0.5,0.7,0.7,1.6,0.8
			c1.5,0.3,3.5,0.6,3.5,3C57.4,65.8,55.8,67.2,53.2,67.2L53.2,67.2z"/>
		<path class="st1" d="M68.8,62c0,0.2,0,0.3,0,0.5c0,0.2-0.2,0.4-0.4,0.4h-6.2c-0.3,0-0.5,0.3-0.4,0.6c0.3,0.7,0.9,1.1,1.8,1.1
			c0.7,0,1.3-0.3,1.6-0.7c0.1-0.1,0.2-0.2,0.3-0.2H68c0.3,0,0.5,0.3,0.4,0.6c-0.8,1.9-2.6,3-4.8,3c-3,0-5.2-2.2-5.2-5.1
			c0-2.9,2.2-5.1,5.2-5.1C66.7,57,68.8,59.2,68.8,62L68.8,62z M62.3,61H65c0.3,0,0.5-0.3,0.4-0.6c-0.4-0.6-0.9-0.9-1.7-0.9
			c-0.7,0-1.3,0.3-1.6,0.9C61.8,60.7,62,61,62.3,61z"/>
	</g>
	<path class="st1" d="M69.5,74h-21c-2.3,0-4.1-2.1-4.1-4.7c0-1.2-0.8-2.2-1.7-2.2H13.4c-2.3,0-4.1-2.1-4.1-4.7V46.1
		c0-2.6,1.8-4.7,4.1-4.7h27.2c0.1,0,0.2-0.2,0.2-0.4v-0.3c0-0.3-0.1-0.4-0.2-0.4H9.6c-2.3,0-4.1-2.1-4.1-4.7V18.6
		c0-1.9,1-3.6,2.5-4.3L25.3,6c1.1-0.5,2.3-0.5,3.4,0.1l14.9,8.1c1.4,0.8,2.3,2.4,2.3,4.2V23c0,1.6,1,2.9,2.3,2.9h25
		c2.3,0,4.1,2.1,4.1,4.7v14c0,2.6-1.8,4.7-4.1,4.7H52.4c-0.1,0-0.2,0.2-0.2,0.4v0.3c0,0.3,0.1,0.4,0.2,0.4h17.1
		c2.3,0,4.1,2.1,4.1,4.7v14.3C73.6,71.9,71.8,74,69.5,74z M13.4,43.3c-1.3,0-2.3,1.3-2.3,2.9v16.3c0,1.6,1,2.9,2.3,2.9h29.3
		c1.9,0,3.5,1.8,3.5,4c0,1.6,1,2.9,2.3,2.9h21c1.3,0,2.3-1.3,2.3-2.9V55c0-1.6-1-2.9-2.3-2.9H52.4c-1.1,0-2-1-2-2.2v-0.3
		c0-1.2,0.9-2.2,2-2.2h20.8c1.3,0,2.3-1.3,2.3-2.9v-14c0-1.6-1-2.9-2.3-2.9h-25c-2.3,0-4.1-2.1-4.1-4.7v-4.6c0-1.1-0.5-2.2-1.4-2.6
		L27.8,7.7c-0.6-0.3-1.2-0.3-1.7,0L8.8,15.9c-0.9,0.4-1.5,1.5-1.5,2.7v17.1c0,1.6,1,2.9,2.3,2.9h31.1c1.1,0,2,1,2,2.2V41
		c0,1.2-0.9,2.2-2,2.2H13.4z"/>
</g>
</svg>
