<?xml version="1.0" encoding="utf-8"?>
<!-- Generator: Adobe Illustrator 23.0.1, SVG Export Plug-In . SVG Version: 6.00 Build 0)  -->
<svg version="1.1" id="Слой_1" xmlns="http://www.w3.org/2000/svg" xmlns:xlink="http://www.w3.org/1999/xlink" x="0px" y="0px"
	 viewBox="0 0 627 1180.3" style="enable-background:new 0 0 627 1180.3;" xml:space="preserve">
<style type="text/css">
	.st0{clip-path:url(#SVGID_2_);}
	.st1{clip-path:url(#SVGID_4_);}
	.st2{fill:#FCFCFC;}
</style>
<g>
	<defs>
		<polygon id="SVGID_3_" points="565.8,34.6 28.7,589.7 582.7,1148.5 		"/>
	</defs>
	<clipPath id="SVGID_2_">
		<use xlink:href="#SVGID_3_"  style="overflow:visible;"/>
	</clipPath>
	<g class="st0">
		<g>
			<path class="st2" d="M67.2,629.6c-21.9-21.9-57.7-21.9-79.6,0l-15.1,15.1l-5.4,5.4l-2.4,2.4l-44.2,44.2l0,0
				c-12.6,12.6-12.6,33,0,45.6c12.5,12.5,32.7,12.6,45.3,0.2l0,0l21.4-21.4v0c6.2-6.2,16.3-6.2,22.6,0c6.2,6.2,6.2,16.3,0,22.6l0,0
				l-43.9,43.9l11.5,11.5l43.9-43.9l0,0c12.6-12.6,12.6-33,0-45.6c-12.6-12.6-33-12.6-45.6,0h0l-21.2,21.2l0,0
				c-6.2,6.2-16.3,6.2-22.6,0c-6.2-6.2-6.2-16.3,0-22.5l0,0l44.2-44.2l7.8-7.8l15.1-15.1l0,0c15.6-15.6,41-15.6,56.6,0
				c15.6,15.6,15.6,41,0,56.6l0,0l-20.9,20.9l11.5,11.5l20.9-20.9l0,0C89.1,687.3,89.1,651.6,67.2,629.6z"/>
		</g>
	</g>
	<g class="st0">
		<g>
			<path class="st2" d="M134.2,788.6L134.2,788.6c-6.2,6.2-16.3,6.2-22.5,0c-6.2-6.2-6.2-16.3,0-22.6v0l21.2-21.2l0,0
				c12.6-12.6,12.6-33,0-45.6c-12.5-12.5-32.9-12.6-45.5,0l0,0l-44.2,44.2l-2.4,2.4l-5.4,5.4l-15.1,15.1c-22,22-22,57.7,0,79.6
				c21.9,21.9,57.7,21.9,79.6,0l0,0l20.9-20.9l-11.5-11.5l-20.9,20.9l0,0c-15.6,15.6-41,15.6-56.6,0C16,819,16,793.6,31.7,778l0,0
				l20.6-20.6l46.5-46.5l0,0c6.3-6.3,16.4-6.3,22.6-0.1c6.2,6.2,6.2,16.2,0.1,22.5l0,0l-21.3,21.3c-12.6,12.6-12.6,33,0,45.6
				c12.6,12.6,33,12.6,45.6,0l0,0l43.9-43.9l-11.5-11.5L134.2,788.6z"/>
			<path class="st2" d="M283.8,582.3c-21.9-21.9-57.7-21.9-79.6,0L189,597.4l-5.4,5.4l-2.4,2.4l-44.2,44.2l0,0
				c-12.6,12.6-12.6,33,0,45.6c12.5,12.5,32.7,12.6,45.3,0.2l0,0l21.4-21.4v0c6.2-6.2,16.3-6.2,22.6,0c6.2,6.2,6.2,16.3,0,22.6l0,0
				l-43.9,43.9l11.5,11.5l43.9-43.9l0,0c12.6-12.6,12.6-33,0-45.6c-12.6-12.6-33-12.6-45.6,0h0l-21.2,21.2l0,0
				c-6.2,6.2-16.3,6.2-22.6,0c-6.2-6.2-6.2-16.3,0-22.5l0,0l44.2-44.2l7.8-7.8l15.1-15.1l0,0c15.6-15.6,41-15.6,56.6,0
				c15.6,15.6,15.6,41,0,56.6l0,0l-20.9,20.9l11.5,11.5l20.9-20.9l0,0C305.7,639.9,305.7,604.2,283.8,582.3z"/>
		</g>
	</g>
	<g class="st0">
		<g>
			<path class="st2" d="M353.5,743.3L353.5,743.3c-6.2,6.2-16.3,6.2-22.5,0c-6.2-6.2-6.2-16.3,0-22.6v0l21.2-21.2l0,0
				c12.6-12.6,12.6-33,0-45.6c-12.5-12.5-32.9-12.6-45.5,0l0,0l-44.2,44.2l-2.4,2.4l-5.4,5.4l-15.1,15.1c-22,22-22,57.7,0,79.6
				c21.9,21.9,57.7,21.9,79.6,0l0,0l20.9-20.9l-11.5-11.5l-20.9,20.9l0,0c-15.6,15.6-41,15.6-56.6,0c-15.6-15.6-15.6-41,0-56.6l0,0
				l20.6-20.6l46.5-46.5l0,0c6.3-6.3,16.4-6.3,22.6-0.1c6.2,6.2,6.2,16.2,0.1,22.5l0,0l-21.3,21.3c-12.6,12.6-12.6,33,0,45.6
				c12.6,12.6,33,12.6,45.6,0l0,0l43.9-43.9l-11.5-11.5L353.5,743.3z"/>
			<path class="st2" d="M503,536.9c-21.9-21.9-57.7-21.9-79.6,0l-15.1,15.1l-5.4,5.4l-2.4,2.4l-44.2,44.2l0,0
				c-12.6,12.6-12.6,33,0,45.6c12.5,12.5,32.7,12.6,45.3,0.2l0,0l21.4-21.4v0c6.2-6.2,16.3-6.2,22.6,0c6.2,6.2,6.2,16.3,0,22.6l0,0
				l-43.9,43.9l11.5,11.5l43.9-43.9l0,0c12.6-12.6,12.6-33,0-45.6c-12.6-12.6-33-12.6-45.6,0h0l-21.2,21.2l0,0
				c-6.2,6.2-16.3,6.2-22.6,0c-6.2-6.2-6.2-16.3,0-22.5l0,0l44.2-44.2l7.8-7.8l15.1-15.1l0,0c15.6-15.6,41-15.6,56.6,0
				c15.6,15.6,15.6,41,0,56.6l0,0l-20.9,20.9l11.5,11.5l20.9-20.9l0,0C525,594.6,525,558.9,503,536.9z"/>
		</g>
	</g>
	<g class="st0">
		<g>
			<path class="st2" d="M16.4,849.7c-21.9-21.9-57.7-21.9-79.6,0l-15.1,15.1l-5.4,5.4l-2.4,2.4l-44.2,44.2l0,0
				c-12.6,12.6-12.6,33,0,45.6c12.5,12.5,32.7,12.6,45.3,0.2l0,0l21.4-21.4v0c6.2-6.2,16.3-6.2,22.6,0c6.2,6.2,6.2,16.3,0,22.6l0,0
				l-43.9,43.9l11.5,11.5l43.9-43.9l0,0c12.6-12.6,12.6-33,0-45.6c-12.6-12.6-33-12.6-45.6,0h0l-21.2,21.2l0,0
				c-6.2,6.2-16.3,6.2-22.6,0c-6.2-6.2-6.2-16.3,0-22.5l0,0l44.2-44.2l7.8-7.8l15.1-15.1l0,0c15.6-15.6,41-15.6,56.6,0
				c15.6,15.6,15.6,41,0,56.6l0,0L-16,938.7l11.5,11.5l20.9-20.9l0,0C38.3,907.3,38.3,871.6,16.4,849.7z"/>
		</g>
	</g>
	<g class="st0">
		<g>
			<path class="st2" d="M86.1,1010.7L86.1,1010.7c-6.2,6.2-16.3,6.2-22.5,0c-6.2-6.2-6.2-16.3,0-22.6v0l21.2-21.2l0,0
				c12.6-12.6,12.6-33,0-45.6c-12.5-12.5-32.9-12.6-45.5,0l0,0l-44.2,44.2l-2.4,2.4l-5.4,5.4L-28,988.5c-22,22-22,57.7,0,79.6
				c21.9,21.9,57.7,21.9,79.6,0l0,0l20.9-20.9L61,1035.7l-20.9,20.9l0,0c-15.6,15.6-41,15.6-56.6,0c-15.6-15.6-15.6-41,0-56.6l0,0
				L4,979.5L50.6,933l0,0c6.3-6.3,16.4-6.3,22.6-0.1c6.2,6.2,6.2,16.2,0.1,22.5l0,0L52,976.6c-12.6,12.6-12.6,33,0,45.6
				c12.6,12.6,33,12.6,45.6,0l0,0l43.9-43.9L130,966.7L86.1,1010.7z"/>
			<path class="st2" d="M235.6,804.3c-21.9-21.9-57.7-21.9-79.6,0l-15.1,15.1l-5.4,5.4l-2.4,2.4l-44.2,44.2l0,0
				c-12.6,12.6-12.6,33,0,45.6c12.5,12.5,32.7,12.6,45.3,0.2l0,0l21.4-21.4v0c6.2-6.2,16.3-6.2,22.6,0c6.2,6.2,6.2,16.3,0,22.6l0,0
				l-43.9,43.9l11.5,11.5l43.9-43.9l0,0c12.6-12.6,12.6-33,0-45.6c-12.6-12.6-33-12.6-45.6,0h0L123,905.5l0,0
				c-6.2,6.2-16.3,6.2-22.6,0c-6.2-6.2-6.2-16.3,0-22.5l0,0l44.2-44.2l7.8-7.8l15.1-15.1l0,0c15.6-15.6,41-15.6,56.6,0
				c15.6,15.6,15.6,41,0,56.6l0,0l-20.9,20.9l11.5,11.5l20.9-20.9l0,0C257.6,862,257.6,826.3,235.6,804.3z"/>
		</g>
	</g>
	<g class="st0">
		<g>
			<path class="st2" d="M307,961.3L307,961.3c-6.2,6.2-16.3,6.2-22.5,0c-6.2-6.2-6.2-16.3,0-22.6v0l21.2-21.2l0,0
				c12.6-12.6,12.6-33,0-45.6c-12.5-12.5-32.9-12.6-45.5,0l0,0l-44.2,44.2l-2.4,2.4l-5.4,5.4l-15.1,15.1c-22,22-22,57.7,0,79.6
				c21.9,21.9,57.7,21.9,79.6,0l0,0l20.9-20.9l-11.5-11.5l-20.9,20.9l0,0c-15.6,15.6-41,15.6-56.6,0c-15.6-15.6-15.6-41,0-56.6l0,0
				l20.6-20.6l46.5-46.5l0,0c6.3-6.3,16.4-6.3,22.6-0.1c6.2,6.2,6.2,16.2,0.1,22.5l0,0l-21.3,21.3c-12.6,12.6-12.6,33,0,45.6
				c12.6,12.6,33,12.6,45.6,0l0,0l43.9-43.9l-11.5-11.5L307,961.3z"/>
			<path class="st2" d="M456.5,755c-21.9-21.9-57.7-21.9-79.6,0l-15.1,15.1l-5.4,5.4l-2.4,2.4l-44.2,44.2l0,0
				c-12.6,12.6-12.6,33,0,45.6c12.5,12.5,32.7,12.6,45.3,0.2l0,0l21.4-21.4v0c6.2-6.2,16.3-6.2,22.6,0c6.2,6.2,6.2,16.3,0,22.6l0,0
				L355.1,913l11.5,11.5l43.9-43.9l0,0c12.6-12.6,12.6-33,0-45.6c-12.6-12.6-33-12.6-45.6,0h0l-21.2,21.2l0,0
				c-6.2,6.2-16.3,6.2-22.6,0c-6.2-6.2-6.2-16.3,0-22.5l0,0l44.2-44.2l7.8-7.8l15.1-15.1l0,0c15.6-15.6,41-15.6,56.6,0
				c15.6,15.6,15.6,41,0,56.6l0,0L424.1,844l11.5,11.5l20.9-20.9l0,0C478.5,812.7,478.5,776.9,456.5,755z"/>
		</g>
	</g>
	<g class="st0">
		<g>
			<path class="st2" d="M526.2,916L526.2,916c-6.2,6.2-16.3,6.2-22.5,0c-6.2-6.2-6.2-16.3,0-22.6v0l21.2-21.2l0,0
				c12.6-12.6,12.6-33,0-45.6c-12.5-12.5-32.9-12.6-45.5,0l0,0l-44.2,44.2l-2.4,2.4l-5.4,5.4l-15.1,15.1c-22,22-22,57.7,0,79.6
				c21.9,21.9,57.7,21.9,79.6,0l0,0l20.9-20.9l-11.5-11.5L480.2,962l0,0c-15.6,15.6-41,15.6-56.6,0c-15.6-15.6-15.6-41,0-56.6l0,0
				l20.6-20.6l46.5-46.5l0,0c6.3-6.3,16.4-6.3,22.6-0.1c6.2,6.2,6.2,16.2,0.1,22.5l0,0L492.1,882c-12.6,12.6-12.6,33,0,45.6
				c12.6,12.6,33,12.6,45.6,0l0,0l43.9-43.9L570.1,872L526.2,916z"/>
			<path class="st2" d="M675.8,709.7c-21.9-21.9-57.7-21.9-79.6,0L581,724.8l-5.4,5.4l-2.4,2.4L529,776.8l0,0
				c-12.6,12.6-12.6,33,0,45.6c12.5,12.5,32.7,12.6,45.3,0.2l0,0l21.4-21.4v0c6.2-6.2,16.3-6.2,22.6,0c6.2,6.2,6.2,16.3,0,22.6l0,0
				l-43.9,43.9l11.5,11.5l43.9-43.9l0,0c12.6-12.6,12.6-33,0-45.6c-12.6-12.6-33-12.6-45.6,0h0l-21.2,21.2l0,0
				c-6.2,6.2-16.3,6.2-22.6,0c-6.2-6.2-6.2-16.3,0-22.5l0,0l44.2-44.2l7.8-7.8l15.1-15.1l0,0c15.6-15.6,41-15.6,56.6,0
				c15.6,15.6,15.6,41,0,56.6l0,0l-20.9,20.9l11.5,11.5l20.9-20.9l0,0C697.7,767.3,697.7,731.6,675.8,709.7z"/>
		</g>
	</g>
	<g class="st0">
		<g>
			<path class="st2" d="M39.6,1228.7L39.6,1228.7c-6.2,6.2-16.3,6.2-22.5,0s-6.2-16.3,0-22.6v0l21.2-21.2l0,0
				c12.6-12.6,12.6-33,0-45.6c-12.5-12.5-32.9-12.6-45.5,0l0,0l-44.2,44.2l-2.4,2.4l-5.4,5.4l-15.1,15.1c-22,22-22,57.7,0,79.6
				c21.9,21.9,57.7,21.9,79.6,0l0,0l20.9-20.9l-11.5-11.5l-20.9,20.9l0,0c-15.6,15.6-41,15.6-56.6,0c-15.6-15.6-15.6-41,0-56.6l0,0
				l20.6-20.6L4.1,1151l0,0c6.3-6.3,16.4-6.3,22.6-0.1c6.2,6.2,6.2,16.2,0.1,22.5l0,0l-21.3,21.3c-12.6,12.6-12.6,33,0,45.6
				s33,12.6,45.6,0l0,0l43.9-43.9l-11.5-11.5L39.6,1228.7z"/>
			<path class="st2" d="M189.1,1022.4c-21.9-21.9-57.7-21.9-79.6,0l-15.1,15.1l-5.4,5.4l-2.4,2.4l-44.2,44.2l0,0
				c-12.6,12.6-12.6,33,0,45.6c12.5,12.5,32.7,12.6,45.3,0.2l0,0l21.4-21.4v0c6.2-6.2,16.3-6.2,22.6,0c6.2,6.2,6.2,16.3,0,22.6l0,0
				l-43.9,43.9l11.5,11.5l43.9-43.9l0,0c12.6-12.6,12.6-33,0-45.6c-12.6-12.6-33-12.6-45.6,0h0l-21.2,21.2l0,0
				c-6.2,6.2-16.3,6.2-22.6,0c-6.2-6.2-6.2-16.3,0-22.5l0,0l44.2-44.2l7.8-7.8l15.1-15.1l0,0c15.6-15.6,41-15.6,56.6,0
				c15.6,15.6,15.6,41,0,56.6l0,0l-20.9,20.9l11.5,11.5l20.9-20.9l0,0C211.1,1080.1,211.1,1044.3,189.1,1022.4z"/>
		</g>
	</g>
	<g class="st0">
		<g>
			<path class="st2" d="M258.8,1183.4L258.8,1183.4c-6.2,6.2-16.3,6.2-22.5,0c-6.2-6.2-6.2-16.3,0-22.6v0l21.2-21.2l0,0
				c12.6-12.6,12.6-33,0-45.6c-12.5-12.5-32.9-12.6-45.5,0l0,0l-44.2,44.2l-2.4,2.4l-5.4,5.4l-15.1,15.1c-22,21.9-22,57.7,0,79.6
				c21.9,21.9,57.7,21.9,79.6,0l0,0l20.9-20.9l-11.5-11.5l-20.9,20.9l0,0c-15.6,15.6-41,15.6-56.6,0c-15.6-15.6-15.6-41,0-56.6l0,0
				l20.6-20.6l46.5-46.5l0,0c6.3-6.3,16.4-6.3,22.6-0.1c6.2,6.2,6.2,16.2,0.1,22.5l0,0l-21.3,21.3c-12.6,12.6-12.6,33,0,45.6
				c12.6,12.6,33,12.6,45.6,0l0,0l43.9-43.9l-11.5-11.5L258.8,1183.4z"/>
			<path class="st2" d="M408.4,977.1c-21.9-21.9-57.7-21.9-79.6,0l-15.1,15.1l-5.4,5.4l-2.4,2.4l-44.2,44.2l0,0
				c-12.6,12.6-12.6,33,0,45.6c12.5,12.5,32.7,12.6,45.3,0.2l0,0l21.4-21.4v0c6.2-6.2,16.3-6.2,22.6,0c6.2,6.2,6.2,16.3,0,22.6l0,0
				l-43.9,43.9l11.5,11.5l43.9-43.9l0,0c12.6-12.6,12.6-33,0-45.6c-12.6-12.6-33-12.6-45.6,0h0l-21.2,21.2l0,0
				c-6.2,6.2-16.3,6.2-22.6,0c-6.2-6.2-6.2-16.3,0-22.5l0,0l44.2-44.2l7.8-7.8l15.1-15.1l0,0c15.6-15.6,41-15.6,56.6,0
				c15.6,15.6,15.6,41,0,56.6l0,0l-20.9,20.9l11.5,11.5l20.9-20.9l0,0C430.3,1034.7,430.3,999,408.4,977.1z"/>
		</g>
	</g>
	<g class="st0">
		<g>
			<path class="st2" d="M744.9,868.9L744.9,868.9c-6.2,6.2-16.3,6.2-22.5,0c-6.2-6.2-6.2-16.3,0-22.6v0l21.2-21.2l0,0
				c12.6-12.6,12.6-33,0-45.6c-12.5-12.5-32.9-12.6-45.5,0l0,0l-44.2,44.2l-2.4,2.4l-5.4,5.4l-15.1,15.1c-22,22-22,57.7,0,79.6
				c21.9,21.9,57.7,21.9,79.6,0l0,0l20.9-20.9L719.9,894L699,914.9l0,0c-15.6,15.6-41,15.6-56.6,0c-15.6-15.6-15.6-41,0-56.6l0,0
				l20.6-20.6l46.5-46.5l0,0c6.3-6.3,16.4-6.3,22.6-0.1c6.2,6.2,6.2,16.2,0.1,22.5l0,0l-21.3,21.3c-12.6,12.6-12.6,33,0,45.6
				c12.6,12.6,33,12.6,45.6,0l0,0l43.9-43.9L788.9,825L744.9,868.9z"/>
		</g>
	</g>
	<g class="st0">
		<g>
			<path class="st2" d="M477.5,1136.3L477.5,1136.3c-6.2,6.2-16.3,6.2-22.5,0s-6.2-16.3,0-22.6v0l21.2-21.2l0,0
				c12.6-12.6,12.6-33,0-45.6c-12.5-12.5-32.9-12.6-45.5,0l0,0l-44.2,44.2l-2.4,2.4l-5.4,5.4l-15.1,15.1c-22,22-22,57.7,0,79.6
				c21.9,21.9,57.7,21.9,79.6,0l0,0l20.9-20.9l-11.5-11.5l-20.9,20.9l0,0c-15.6,15.6-41,15.6-56.6,0c-15.6-15.6-15.6-41,0-56.6l0,0
				l20.6-20.6l46.5-46.5l0,0c6.3-6.3,16.4-6.3,22.6-0.1c6.2,6.2,6.2,16.2,0.1,22.5l0,0l-21.3,21.3c-12.6,12.6-12.6,33,0,45.6
				s33,12.6,45.6,0l0,0l43.9-43.9l-11.5-11.5L477.5,1136.3z"/>
			<path class="st2" d="M627.1,930c-21.9-21.9-57.7-21.9-79.6,0l-15.1,15.1l-5.4,5.4l-2.4,2.4l-44.2,44.2l0,0
				c-12.6,12.6-12.6,33,0,45.6c12.5,12.5,32.7,12.6,45.3,0.2l0,0l21.4-21.4v0c6.2-6.2,16.3-6.2,22.6,0c6.2,6.2,6.2,16.3,0,22.6l0,0
				l-43.9,43.9l11.5,11.5l43.9-43.9l0,0c12.6-12.6,12.6-33,0-45.6c-12.6-12.6-33-12.6-45.6,0h0l-21.2,21.2l0,0
				c-6.2,6.2-16.3,6.2-22.6,0c-6.2-6.2-6.2-16.3,0-22.5l0,0l44.2-44.2l7.8-7.8l15.1-15.1l0,0c15.6-15.6,41-15.6,56.6,0
				c15.6,15.6,15.6,41,0,56.6l0,0l-20.9,20.9l11.5,11.5l20.9-20.9l0,0C649.1,987.7,649.1,952,627.1,930z"/>
		</g>
	</g>
	<g class="st0">
		<g>
			<path class="st2" d="M696.8,1091L696.8,1091c-6.2,6.2-16.3,6.2-22.5,0c-6.2-6.2-6.2-16.3,0-22.6v0l21.2-21.2l0,0
				c12.6-12.6,12.6-33,0-45.6c-12.5-12.5-32.9-12.6-45.5,0l0,0l-44.2,44.2l-2.4,2.4l-5.4,5.4l-15.1,15.1c-22,21.9-22,57.7,0,79.6
				c21.9,21.9,57.7,21.9,79.6,0l0,0l20.9-20.9l-11.5-11.5l-20.9,20.9l0,0c-15.6,15.6-41,15.6-56.6,0c-15.6-15.6-15.6-41,0-56.6l0,0
				l20.6-20.6l46.5-46.5l0,0c6.3-6.3,16.4-6.3,22.6-0.1c6.2,6.2,6.2,16.2,0.1,22.5l0,0l-21.3,21.3c-12.6,12.6-12.6,33,0,45.6
				c12.6,12.6,33,12.6,45.6,0l0,0l43.9-43.9l-11.5-11.5L696.8,1091z"/>
		</g>
	</g>
	<g class="st0">
		<g>
		</g>
	</g>
	<g class="st0">
		<g>
			<path class="st2" d="M-4.2,13.1c-21.9-21.9-57.7-21.9-79.6,0L-99,28.3l-5.4,5.4l-2.4,2.4l-44.2,44.2l0,0
				c-12.6,12.6-12.6,33,0,45.6c12.5,12.5,32.7,12.6,45.3,0.2l0,0l21.4-21.4v0c6.2-6.2,16.3-6.2,22.6,0c6.2,6.2,6.2,16.3,0,22.6l0,0
				l-43.9,43.9l11.5,11.5l43.9-43.9l0,0c12.6-12.6,12.6-33,0-45.6c-12.6-12.6-33-12.6-45.6,0h0l-21.2,21.2l0,0
				c-6.2,6.2-16.3,6.2-22.6,0c-6.2-6.2-6.2-16.3,0-22.5l0,0l44.2-44.2l7.8-7.8l15.1-15.1l0,0c15.6-15.6,41-15.6,56.6,0
				c15.6,15.6,15.6,41,0,56.6l0,0l-20.9,20.9l11.5,11.5l20.9-20.9l0,0C17.8,70.8,17.8,35.1-4.2,13.1z"/>
		</g>
	</g>
	<g class="st0">
		<g>
			<path class="st2" d="M62.8,172.1L62.8,172.1c-6.2,6.2-16.3,6.2-22.5,0c-6.2-6.2-6.2-16.3,0-22.6v0l21.2-21.2l0,0
				c12.6-12.6,12.6-33,0-45.6c-12.5-12.5-32.9-12.6-45.5,0l0,0L-28.3,127l-2.4,2.4l-5.4,5.4L-51.2,150c-22,22-22,57.7,0,79.6
				c21.9,21.9,57.7,21.9,79.6,0l0,0l20.9-20.9l-11.5-11.5l-20.9,20.9l0,0c-15.6,15.6-41,15.6-56.6,0c-15.6-15.6-15.6-41,0-56.6l0,0
				l20.6-20.6l46.5-46.5l0,0c6.3-6.3,16.4-6.3,22.6-0.1c6.2,6.2,6.2,16.2,0.1,22.5l0,0l-21.3,21.3c-12.6,12.6-12.6,33,0,45.6
				c12.6,12.6,33,12.6,45.6,0l0,0l43.9-43.9l-11.5-11.5L62.8,172.1z"/>
			<path class="st2" d="M212.4-34.2c-21.9-21.9-57.7-21.9-79.6,0l-15.1,15.1l-5.4,5.4l-2.4,2.4L65.7,32.9l0,0
				c-12.6,12.6-12.6,33,0,45.6C78.1,90.9,98.4,91,111,78.7l0,0l21.4-21.4v0c6.2-6.2,16.3-6.2,22.6,0c6.2,6.2,6.2,16.3,0,22.6l0,0
				L111,123.8l11.5,11.5l43.9-43.9l0,0c12.6-12.6,12.6-33,0-45.6c-12.6-12.6-33-12.6-45.6,0h0L99.7,66.9l0,0
				c-6.2,6.2-16.3,6.2-22.6,0c-6.2-6.2-6.2-16.3,0-22.5l0,0l44.2-44.2l7.8-7.8l15.1-15.1l0,0c15.6-15.6,41-15.6,56.6,0
				c15.6,15.6,15.6,41,0,56.6l0,0L180,54.8l11.5,11.5l20.9-20.9l0,0C234.4,23.4,234.4-12.3,212.4-34.2z"/>
		</g>
	</g>
	<g class="st0">
		<g>
			<path class="st2" d="M282.1,126.8L282.1,126.8c-6.2,6.2-16.3,6.2-22.5,0c-6.2-6.2-6.2-16.3,0-22.6v0L280.7,83l0,0
				c12.6-12.6,12.6-33,0-45.6c-12.5-12.5-32.9-12.6-45.5,0l0,0l-44.2,44.2l-2.4,2.4l-5.4,5.4L168,104.6c-22,22-22,57.7,0,79.6
				c21.9,21.9,57.7,21.9,79.6,0l0,0l20.9-20.9L257,151.8l-20.9,20.9l0,0c-15.6,15.6-41,15.6-56.6,0c-15.6-15.6-15.6-41,0-56.6l0,0
				l20.6-20.6l46.5-46.5l0,0c6.3-6.3,16.4-6.3,22.6-0.1c6.2,6.2,6.2,16.2,0.1,22.5l0,0L248,92.7c-12.6,12.6-12.6,33,0,45.6
				c12.6,12.6,33,12.6,45.6,0l0,0l43.9-43.9L326,82.8L282.1,126.8z"/>
			<path class="st2" d="M431.6-79.6c-21.9-21.9-57.7-21.9-79.6,0l-15.1,15.1l-5.4,5.4l-2.4,2.4l-44.2,44.2l0,0
				c-12.6,12.6-12.6,33,0,45.6c12.5,12.5,32.7,12.6,45.3,0.2l0,0L351.6,12v0c6.2-6.2,16.3-6.2,22.6,0c6.2,6.2,6.2,16.3,0,22.6l0,0
				l-43.9,43.9L341.7,90L385.7,46l0,0c12.6-12.6,12.6-33,0-45.6c-12.6-12.6-33-12.6-45.6,0h0L319,21.6l0,0c-6.2,6.2-16.3,6.2-22.6,0
				c-6.2-6.2-6.2-16.3,0-22.5l0,0l44.2-44.2l7.8-7.8l15.1-15.1l0,0c15.6-15.6,41-15.6,56.6,0c15.6,15.6,15.6,41,0,56.6l0,0
				L399.2,9.4L410.8,21l20.9-20.9l0,0C453.6-21.9,453.6-57.6,431.6-79.6z"/>
		</g>
	</g>
	<g class="st0">
		<g>
			<path class="st2" d="M14.7,394.2L14.7,394.2c-6.2,6.2-16.3,6.2-22.5,0c-6.2-6.2-6.2-16.3,0-22.6v0l21.2-21.2l0,0
				c12.6-12.6,12.6-33,0-45.6c-12.5-12.5-32.9-12.6-45.5,0l0,0l-44.2,44.2l-2.4,2.4l-5.4,5.4L-99.4,372c-22,22-22,57.7,0,79.6
				c21.9,21.9,57.7,21.9,79.6,0l0,0l20.9-20.9l-11.5-11.5l-20.9,20.9l0,0c-15.6,15.6-41,15.6-56.6,0c-15.6-15.6-15.6-41,0-56.6l0,0
				l20.6-20.6l46.5-46.5l0,0c6.3-6.3,16.4-6.3,22.6-0.1c6.2,6.2,6.2,16.2,0.1,22.5l0,0l-21.3,21.3c-12.6,12.6-12.6,33,0,45.6
				c12.6,12.6,33,12.6,45.6,0l0,0l43.9-43.9l-11.5-11.5L14.7,394.2z"/>
			<path class="st2" d="M164.2,187.8c-21.9-21.9-57.7-21.9-79.6,0L69.5,203l-5.4,5.4l-2.4,2.4L17.5,255l0,0
				c-12.6,12.6-12.6,33,0,45.6c12.5,12.5,32.7,12.6,45.3,0.2l0,0l21.4-21.4v0c6.2-6.2,16.3-6.2,22.6,0c6.2,6.2,6.2,16.3,0,22.6l0,0
				l-43.9,43.9l11.5,11.5l43.9-43.9l0,0c12.6-12.6,12.6-33,0-45.6c-12.6-12.6-33-12.6-45.6,0h0L51.6,289l0,0
				c-6.2,6.2-16.3,6.2-22.6,0c-6.2-6.2-6.2-16.3,0-22.5l0,0l44.2-44.2l7.8-7.8l15.1-15.1l0,0c15.6-15.6,41-15.6,56.6,0
				c15.6,15.6,15.6,41,0,56.6l0,0l-20.9,20.9l11.5,11.5l20.9-20.9l0,0C186.2,245.5,186.2,209.8,164.2,187.8z"/>
		</g>
	</g>
	<g class="st0">
		<g>
			<path class="st2" d="M235.6,344.8L235.6,344.8c-6.2,6.2-16.3,6.2-22.5,0c-6.2-6.2-6.2-16.3,0-22.6v0l21.2-21.2l0,0
				c12.6-12.6,12.6-33,0-45.6c-12.5-12.5-32.9-12.6-45.5,0l0,0l-44.2,44.2l-2.4,2.4l-5.4,5.4l-15.1,15.1c-22,22-22,57.7,0,79.6
				c21.9,21.9,57.7,21.9,79.6,0l0,0l20.9-20.9l-11.5-11.5l-20.9,20.9l0,0c-15.6,15.6-41,15.6-56.6,0c-15.6-15.6-15.6-41,0-56.6l0,0
				l20.6-20.6l46.5-46.5l0,0c6.3-6.3,16.4-6.3,22.6-0.1c6.2,6.2,6.2,16.2,0.1,22.5l0,0l-21.3,21.3c-12.6,12.6-12.6,33,0,45.6
				c12.6,12.6,33,12.6,45.6,0l0,0l43.9-43.9l-11.5-11.5L235.6,344.8z"/>
			<path class="st2" d="M385.1,138.5c-21.9-21.9-57.7-21.9-79.6,0l-15.1,15.1l-5.4,5.4l-2.4,2.4l-44.2,44.2l0,0
				c-12.6,12.6-12.6,33,0,45.6c12.5,12.5,32.7,12.6,45.3,0.2l0,0l21.4-21.4v0c6.2-6.2,16.3-6.2,22.6,0c6.2,6.2,6.2,16.3,0,22.6l0,0
				l-43.9,43.9l11.5,11.5l43.9-43.9l0,0c12.6-12.6,12.6-33,0-45.6c-12.6-12.6-33-12.6-45.6,0h0l-21.2,21.2l0,0
				c-6.2,6.2-16.3,6.2-22.6,0c-6.2-6.2-6.2-16.3,0-22.5l0,0l44.2-44.2l7.8-7.8L317,150l0,0c15.6-15.6,41-15.6,56.6,0
				c15.6,15.6,15.6,41,0,56.6l0,0l-20.9,20.9l11.5,11.5l20.9-20.9l0,0C407.1,196.2,407.1,160.4,385.1,138.5z"/>
		</g>
	</g>
	<g class="st0">
		<g>
			<path class="st2" d="M454.8,299.5L454.8,299.5c-6.2,6.2-16.3,6.2-22.5,0c-6.2-6.2-6.2-16.3,0-22.6v0l21.2-21.2l0,0
				c12.6-12.6,12.6-33,0-45.6c-12.5-12.5-32.9-12.6-45.5,0l0,0l-44.2,44.2l-2.4,2.4l-5.4,5.4l-15.1,15.1c-22,22-22,57.7,0,79.6
				c21.9,21.9,57.7,21.9,79.6,0l0,0l20.9-20.9l-11.5-11.5l-20.9,20.9l0,0c-15.6,15.6-41,15.6-56.6,0c-15.6-15.6-15.6-41,0-56.6l0,0
				l20.6-20.6l46.5-46.5l0,0c6.3-6.3,16.4-6.3,22.6-0.1c6.2,6.2,6.2,16.2,0.1,22.5l0,0l-21.3,21.3c-12.6,12.6-12.6,33,0,45.6
				c12.6,12.6,33,12.6,45.6,0l0,0l43.9-43.9l-11.5-11.5L454.8,299.5z"/>
			<path class="st2" d="M604.4,93.2c-21.9-21.9-57.7-21.9-79.6,0l-15.1,15.1l-5.4,5.4l-2.4,2.4l-44.2,44.2l0,0
				c-12.6,12.6-12.6,33,0,45.6c12.5,12.5,32.7,12.6,45.3,0.2l0,0l21.4-21.4v0c6.2-6.2,16.3-6.2,22.6,0c6.2,6.2,6.2,16.3,0,22.6l0,0
				l-43.9,43.9l11.5,11.5l43.9-43.9l0,0c12.6-12.6,12.6-33,0-45.6c-12.6-12.6-33-12.6-45.6,0h0l-21.2,21.2l0,0
				c-6.2,6.2-16.3,6.2-22.6,0c-6.2-6.2-6.2-16.3,0-22.5l0,0l44.2-44.2l7.8-7.8l15.1-15.1l0,0c15.6-15.6,41-15.6,56.6,0
				c15.6,15.6,15.6,41,0,56.6l0,0L572,182.2l11.5,11.5l20.9-20.9l0,0C626.3,150.8,626.3,115.1,604.4,93.2z"/>
		</g>
	</g>
	<g class="st0">
		<g>
			<path class="st2" d="M-31.8,612.2L-31.8,612.2c-6.2,6.2-16.3,6.2-22.5,0c-6.2-6.2-6.2-16.3,0-22.6v0l21.2-21.2l0,0
				c12.6-12.6,12.6-33,0-45.6c-12.5-12.5-32.9-12.6-45.5,0l0,0l-44.2,44.2l-2.4,2.4l-5.4,5.4l-15.1,15.1c-22,22-22,57.7,0,79.6
				c21.9,21.9,57.7,21.9,79.6,0l0,0l20.9-20.9l-11.5-11.5l-20.9,20.9l0,0c-15.6,15.6-41,15.6-56.6,0c-15.6-15.6-15.6-41,0-56.6l0,0
				l20.6-20.6l46.5-46.5l0,0c6.3-6.3,16.4-6.3,22.6-0.1c6.2,6.2,6.2,16.2,0.1,22.5l0,0l-21.3,21.3c-12.6,12.6-12.6,33,0,45.6
				c12.6,12.6,33,12.6,45.6,0l0,0l43.9-43.9l-11.5-11.5L-31.8,612.2z"/>
			<path class="st2" d="M117.7,405.9c-21.9-21.9-57.7-21.9-79.6,0L23,421l-5.4,5.4l-2.4,2.4L-29,473l0,0c-12.6,12.6-12.6,33,0,45.6
				c12.5,12.5,32.7,12.6,45.3,0.2l0,0l21.4-21.4v0c6.2-6.2,16.3-6.2,22.6,0c6.2,6.2,6.2,16.3,0,22.6l0,0l-43.9,43.9l11.5,11.5
				l43.9-43.9l0,0c12.6-12.6,12.6-33,0-45.6c-12.6-12.6-33-12.6-45.6,0h0L5.1,507.1l0,0c-6.2,6.2-16.3,6.2-22.6,0
				c-6.2-6.2-6.2-16.3,0-22.5l0,0l44.2-44.2l7.8-7.8l15.1-15.1l0,0c15.6-15.6,41-15.6,56.6,0c15.6,15.6,15.6,41,0,56.6l0,0
				l-20.9,20.9l11.5,11.5l20.9-20.9l0,0C139.7,463.6,139.7,427.8,117.7,405.9z"/>
		</g>
	</g>
	<g class="st0">
		<g>
			<path class="st2" d="M187.4,566.9L187.4,566.9c-6.2,6.2-16.3,6.2-22.5,0c-6.2-6.2-6.2-16.3,0-22.6v0l21.2-21.2l0,0
				c12.6-12.6,12.6-33,0-45.6c-12.5-12.5-32.9-12.6-45.5,0l0,0l-44.2,44.2l-2.4,2.4l-5.4,5.4l-15.1,15.1c-22,22-22,57.7,0,79.6
				c21.9,21.9,57.7,21.9,79.6,0l0,0l20.9-20.9L162.3,592l-20.9,20.9l0,0c-15.6,15.6-41,15.6-56.6,0c-15.6-15.6-15.6-41,0-56.6l0,0
				l20.6-20.6l46.5-46.5l0,0c6.3-6.3,16.4-6.3,22.6-0.1c6.2,6.2,6.2,16.2,0.1,22.5l0,0l-21.3,21.3c-12.6,12.6-12.6,33,0,45.6
				c12.6,12.6,33,12.6,45.6,0l0,0l43.9-43.9l-11.5-11.5L187.4,566.9z"/>
			<path class="st2" d="M337,360.6c-21.9-21.9-57.7-21.9-79.6,0l-15.1,15.1l-5.4,5.4l-2.4,2.4l-44.2,44.2l0,0
				c-12.6,12.6-12.6,33,0,45.6c12.5,12.5,32.7,12.6,45.3,0.2l0,0l21.4-21.4v0c6.2-6.2,16.3-6.2,22.6,0c6.2,6.2,6.2,16.3,0,22.6l0,0
				l-43.9,43.9l11.5,11.5l43.9-43.9l0,0c12.6-12.6,12.6-33,0-45.6c-12.6-12.6-33-12.6-45.6,0h0l-21.2,21.2l0,0
				c-6.2,6.2-16.3,6.2-22.6,0c-6.2-6.2-6.2-16.3,0-22.5l0,0l44.2-44.2l7.8-7.8l15.1-15.1l0,0c15.6-15.6,41-15.6,56.6,0
				c15.6,15.6,15.6,41,0,56.6l0,0l-20.9,20.9l11.5,11.5l20.9-20.9l0,0C358.9,418.2,358.9,382.5,337,360.6z"/>
		</g>
	</g>
	<g class="st0">
		<g>
			<path class="st2" d="M673.6,252.4L673.6,252.4c-6.2,6.2-16.3,6.2-22.5,0c-6.2-6.2-6.2-16.3,0-22.6v0l21.2-21.2l0,0
				c12.6-12.6,12.6-33,0-45.6c-12.5-12.5-32.9-12.6-45.5,0l0,0l-44.2,44.2l-2.4,2.4l-5.4,5.4l-15.1,15.1c-22,22-22,57.7,0,79.6
				c21.9,21.9,57.7,21.9,79.6,0l0,0L660,289l-11.5-11.5l-20.9,20.9l0,0c-15.6,15.6-41,15.6-56.6,0c-15.6-15.6-15.6-41,0-56.6l0,0
				l20.6-20.6l46.5-46.5l0,0c6.3-6.3,16.4-6.3,22.6-0.1c6.2,6.2,6.2,16.2,0.1,22.5l0,0l-21.3,21.3c-12.6,12.6-12.6,33,0,45.6
				c12.6,12.6,33,12.6,45.6,0l0,0L729,220l-11.5-11.5L673.6,252.4z"/>
		</g>
	</g>
	<g class="st0">
		<g>
			<path class="st2" d="M406.2,519.8L406.2,519.8c-6.2,6.2-16.3,6.2-22.5,0c-6.2-6.2-6.2-16.3,0-22.6v0l21.2-21.2l0,0
				c12.6-12.6,12.6-33,0-45.6c-12.5-12.5-32.9-12.6-45.5,0l0,0L315,474.8l-2.4,2.4l-5.4,5.4l-15.1,15.1c-22,22-22,57.7,0,79.6
				c21.9,21.9,57.7,21.9,79.6,0l0,0l20.9-20.9l-11.5-11.5l-20.9,20.9l0,0c-15.6,15.6-41,15.6-56.6,0c-15.6-15.6-15.6-41,0-56.6l0,0
				l20.6-20.6l46.5-46.5l0,0c6.3-6.3,16.4-6.3,22.6-0.1c6.2,6.2,6.2,16.2,0.1,22.5l0,0l-21.3,21.3c-12.6,12.6-12.6,33,0,45.6
				c12.6,12.6,33,12.6,45.6,0l0,0l43.9-43.9l-11.5-11.5L406.2,519.8z"/>
			<path class="st2" d="M555.7,313.5c-21.9-21.9-57.7-21.9-79.6,0L461,328.6l-5.4,5.4l-2.4,2.4L409,380.6l0,0
				c-12.6,12.6-12.6,33,0,45.6c12.5,12.5,32.7,12.6,45.3,0.2l0,0l21.4-21.4v0c6.2-6.2,16.3-6.2,22.6,0c6.2,6.2,6.2,16.3,0,22.6l0,0
				l-43.9,43.9l11.5,11.5l43.9-43.9l0,0c12.6-12.6,12.6-33,0-45.6c-12.6-12.6-33-12.6-45.6,0h0l-21.2,21.2l0,0
				c-6.2,6.2-16.3,6.2-22.6,0c-6.2-6.2-6.2-16.3,0-22.5l0,0l44.2-44.2l7.8-7.8l15.1-15.1l0,0c15.6-15.6,41-15.6,56.6,0
				c15.6,15.6,15.6,41,0,56.6l0,0l-20.9,20.9l11.5,11.5l20.9-20.9l0,0C577.7,371.2,577.7,335.5,555.7,313.5z"/>
		</g>
	</g>
	<g class="st0">
		<g>
			<path class="st2" d="M625.4,474.5L625.4,474.5c-6.2,6.2-16.3,6.2-22.5,0c-6.2-6.2-6.2-16.3,0-22.6v0l21.2-21.2l0,0
				c12.6-12.6,12.6-33,0-45.6c-12.5-12.5-32.9-12.6-45.5,0l0,0l-44.2,44.2l-2.4,2.4l-5.4,5.4l-15.1,15.1c-22,22-22,57.7,0,79.6
				c21.9,21.9,57.7,21.9,79.6,0l0,0l20.9-20.9l-11.5-11.5l-20.9,20.9l0,0c-15.6,15.6-41,15.6-56.6,0c-15.6-15.6-15.6-41,0-56.6l0,0
				l20.6-20.6l46.5-46.5l0,0c6.3-6.3,16.4-6.3,22.6-0.1c6.2,6.2,6.2,16.2,0.1,22.5l0,0l-21.3,21.3c-12.6,12.6-12.6,33,0,45.6
				c12.6,12.6,33,12.6,45.6,0l0,0l43.9-43.9l-11.5-11.5L625.4,474.5z"/>
			<path class="st2" d="M775,268.2c-21.9-21.9-57.7-21.9-79.6,0l-15.1,15.1l-5.4,5.4l-2.4,2.4l-44.2,44.2l0,0
				c-12.6,12.6-12.6,33,0,45.6c12.5,12.5,32.7,12.6,45.3,0.2l0,0l21.4-21.4v0c6.2-6.2,16.3-6.2,22.6,0c6.2,6.2,6.2,16.3,0,22.6l0,0
				l-43.9,43.9l11.5,11.5l43.9-43.9l0,0c12.6-12.6,12.6-33,0-45.6c-12.6-12.6-33-12.6-45.6,0h0l-21.2,21.2l0,0
				c-6.2,6.2-16.3,6.2-22.6,0c-6.2-6.2-6.2-16.3,0-22.5l0,0l44.2-44.2l7.8-7.8l15.1-15.1l0,0c15.6-15.6,41-15.6,56.6,0
				c15.6,15.6,15.6,41,0,56.6l0,0l-20.9,20.9l11.5,11.5l20.9-20.9l0,0C796.9,325.8,796.9,290.1,775,268.2z"/>
		</g>
	</g>
	<g class="st0">
		<g>
			<path class="st2" d="M578.9,692.6L578.9,692.6c-6.2,6.2-16.3,6.2-22.5,0c-6.2-6.2-6.2-16.3,0-22.6v0l21.2-21.2l0,0
				c12.6-12.6,12.6-33,0-45.6c-12.5-12.5-32.9-12.6-45.5,0l0,0l-44.2,44.2l-2.4,2.4l-5.4,5.4l-15.1,15.1c-22,22-22,57.7,0,79.6
				c21.9,21.9,57.7,21.9,79.6,0l0,0l20.9-20.9l-11.5-11.5l-20.9,20.9l0,0c-15.6,15.6-41,15.6-56.6,0c-15.6-15.6-15.6-41,0-56.6l0,0
				l20.6-20.6l46.5-46.5l0,0c6.3-6.3,16.4-6.3,22.6-0.1c6.2,6.2,6.2,16.2,0.1,22.5l0,0l-21.3,21.3c-12.6,12.6-12.6,33,0,45.6
				c12.6,12.6,33,12.6,45.6,0l0,0l43.9-43.9l-11.5-11.5L578.9,692.6z"/>
			<path class="st2" d="M728.5,486.2c-21.9-21.9-57.7-21.9-79.6,0l-15.1,15.1l-5.4,5.4l-2.4,2.4l-44.2,44.2l0,0
				c-12.6,12.6-12.6,33,0,45.6c12.5,12.5,32.7,12.6,45.3,0.2l0,0l21.4-21.4v0c6.2-6.2,16.3-6.2,22.6,0c6.2,6.2,6.2,16.3,0,22.6l0,0
				L627,644.2l11.5,11.5l43.9-43.9l0,0c12.6-12.6,12.6-33,0-45.6c-12.6-12.6-33-12.6-45.6,0h0l-21.2,21.2l0,0
				c-6.2,6.2-16.3,6.2-22.6,0c-6.2-6.2-6.2-16.3,0-22.5l0,0l44.2-44.2l7.8-7.8l15.1-15.1l0,0c15.6-15.6,41-15.6,56.6,0
				c15.6,15.6,15.6,41,0,56.6l0,0l-20.9,20.9l11.5,11.5l20.9-20.9l0,0C750.4,543.9,750.4,508.2,728.5,486.2z"/>
		</g>
	</g>
</g>
</svg>
