<?xml version="1.0" encoding="utf-8"?>
<!-- Generator: Adobe Illustrator 23.0.1, SVG Export Plug-In . SVG Version: 6.00 Build 0)  -->
<svg version="1.1" id="Слой_1" xmlns="http://www.w3.org/2000/svg" xmlns:xlink="http://www.w3.org/1999/xlink" x="0px" y="0px"
	 viewBox="0 0 66.3 56.1" style="enable-background:new 0 0 66.3 56.1;" xml:space="preserve">
<style type="text/css">
	.st0{fill:#141414;}
	.st1{fill:#F4F4F4;}
</style>
<g>
	<g>
		<g>
			<path class="st0" d="M7.6,52.4c-0.4,0-0.6-0.2-0.6-0.6v-8.9c0-0.4,0.2-0.6,0.6-0.6H13c0.4,0,0.6,0.2,0.6,0.6
				c0,0.4-0.2,0.6-0.6,0.6H8.2v3.2h3c0.4,0,0.6,0.2,0.6,0.6s-0.2,0.6-0.6,0.6h-3v3.2H13c0.4,0,0.6,0.2,0.6,0.6s-0.2,0.6-0.6,0.6H7.6
				z"/>
			<path class="st0" d="M18.5,52.4c-0.9,0-1.5-0.2-2-0.5c-0.5-0.3-0.8-0.9-0.9-1.6c0-0.2,0-0.4,0.1-0.5c0.1-0.1,0.3-0.2,0.5-0.2
				c0.2,0,0.4,0.1,0.5,0.2c0.1,0.1,0.2,0.3,0.2,0.5c0.1,0.3,0.2,0.6,0.5,0.7c0.2,0.1,0.6,0.2,1.1,0.2h2.2c0.6,0,1.1-0.1,1.3-0.3
				c0.2-0.2,0.3-0.7,0.3-1.3c0-0.6-0.1-1.1-0.4-1.3c-0.2-0.2-0.7-0.4-1.3-0.4h-1.9c-0.9,0-1.7-0.2-2.1-0.7C16.2,46.6,16,45.9,16,45
				c0-0.9,0.2-1.6,0.7-2.1c0.5-0.5,1.2-0.7,2.1-0.7h1.8c0.8,0,1.4,0.2,1.9,0.5c0.5,0.3,0.7,0.8,0.9,1.5c0,0.2,0,0.4-0.1,0.5
				c-0.1,0.1-0.3,0.2-0.5,0.2c-0.2,0-0.4-0.1-0.5-0.2c-0.1-0.1-0.2-0.3-0.2-0.5c-0.1-0.3-0.2-0.5-0.5-0.6c-0.2-0.1-0.6-0.2-1-0.2
				h-1.8c-0.6,0-1,0.1-1.2,0.3c-0.2,0.2-0.3,0.6-0.3,1.2c0,0.6,0.1,1,0.3,1.2c0.2,0.2,0.6,0.3,1.2,0.3h1.9c1,0,1.7,0.2,2.2,0.7
				c0.5,0.5,0.7,1.2,0.7,2.2c0,1-0.2,1.7-0.7,2.2c-0.5,0.5-1.2,0.7-2.2,0.7H18.5z"/>
			<path class="st0" d="M29.4,52.4c-0.2,0-0.4-0.1-0.5-0.2c-0.1-0.1-0.2-0.3-0.2-0.5v-8.3h-2.9c-0.2,0-0.4-0.1-0.5-0.2
				c-0.1-0.1-0.2-0.3-0.2-0.5c0-0.2,0.1-0.4,0.2-0.5c0.1-0.1,0.3-0.2,0.5-0.2h7.1c0.2,0,0.4,0.1,0.5,0.2c0.1,0.1,0.2,0.3,0.2,0.5
				c0,0.2-0.1,0.4-0.2,0.5c-0.1,0.1-0.3,0.2-0.5,0.2H30v8.3c0,0.2-0.1,0.4-0.2,0.5C29.7,52.3,29.6,52.4,29.4,52.4z"/>
			<path class="st0" d="M34.5,52.3c-0.4-0.2-0.5-0.4-0.4-0.8l3.6-8.8c0.2-0.3,0.4-0.5,0.7-0.5h0c0.3,0,0.5,0.2,0.7,0.5l3.6,8.8
				c0.2,0.4,0,0.7-0.3,0.8c-0.4,0.2-0.7,0-0.8-0.3l-0.8-2H36l-0.8,2C35.1,52.4,34.8,52.5,34.5,52.3z M36.5,48.8h3.7l-1.9-4.6
				L36.5,48.8z"/>
			<path class="st0" d="M47.1,52.4c-0.2,0-0.4-0.1-0.5-0.2c-0.1-0.1-0.2-0.3-0.2-0.5v-8.3h-2.9c-0.2,0-0.4-0.1-0.5-0.2
				C43,43.2,43,43.1,43,42.9c0-0.2,0.1-0.4,0.2-0.5c0.1-0.1,0.3-0.2,0.5-0.2h7.1c0.2,0,0.4,0.1,0.5,0.2c0.1,0.1,0.2,0.3,0.2,0.5
				c0,0.2-0.1,0.4-0.2,0.5c-0.1,0.1-0.3,0.2-0.5,0.2h-2.9v8.3c0,0.2-0.1,0.4-0.2,0.5C47.5,52.3,47.3,52.4,47.1,52.4z"/>
			<path class="st0" d="M54,52.4c-0.4,0-0.6-0.2-0.6-0.6v-8.9c0-0.4,0.2-0.6,0.6-0.6h5.4c0.4,0,0.6,0.2,0.6,0.6
				c0,0.4-0.2,0.6-0.6,0.6h-4.8v3.2h3c0.4,0,0.6,0.2,0.6,0.6s-0.2,0.6-0.6,0.6h-3v3.2h4.8c0.4,0,0.6,0.2,0.6,0.6s-0.2,0.6-0.6,0.6
				H54z"/>
		</g>
		<path class="st0" d="M43.8,2.7h-6.2h-3.2H16.3v0c-5.1,0-9.3,4.2-9.3,9.3s4.2,9.3,9.3,9.3v0h0c0,0,0,0,0,0v0h8.7v0
			c2.5,0,4.6,2.1,4.6,4.6c0,2.5-2.1,4.6-4.6,4.6v0h-18v4.7h18c5.1,0,9.3-4.2,9.3-9.3s-4.2-9.3-9.3-9.3h-8.7c-2.5,0-4.6-2.1-4.6-4.6
			c0-2.5,2.1-4.6,4.6-4.6h18.1h3.2h6.2v0c6.4,0,11.6,5.2,11.6,11.6c0,6.4-5.2,11.6-11.6,11.6v0h-8.6v4.7h8.6c9,0,16.3-7.3,16.3-16.3
			C60.1,10,52.8,2.7,43.8,2.7z"/>
	</g>
</g>
</svg>
