<?xml version="1.0" encoding="utf-8"?>
<!-- Generator: Adobe Illustrator 23.0.1, SVG Export Plug-In . SVG Version: 6.00 Build 0)  -->
<svg version="1.1" id="Слой_1" xmlns="http://www.w3.org/2000/svg" xmlns:xlink="http://www.w3.org/1999/xlink" x="0px" y="0px"
	 viewBox="0 0 1080 1920" style="enable-background:new 0 0 1080 1920;" xml:space="preserve">
<style type="text/css">
	.st0{clip-path:url(#SVGID_2_);}
	.st1{fill:#EDEDED;}
</style>
<g>
	<defs>
		<rect id="SVGID_1_" width="1080.3" height="1920"/>
	</defs>
	<clipPath id="SVGID_2_">
		<use xlink:href="#SVGID_1_"  style="overflow:visible;"/>
	</clipPath>
	<g class="st0">
		<path class="st1" d="M-184.7,1673.9l56.1-56.1l0,0c38.2-38.2,100.2-38.2,138.4,0c38.1,38.1,38.1,100.2,0,138.4l0,0l-51.1,51.1
			l28.2,28.2l51.1-51.1l0,0c53.6-53.6,53.6-140.9,0-194.6c-53.6-53.6-140.9-53.6-194.6,0l0,0l-37,37l0,0l-127.1,127.1l28.1,28.1
			L-184.7,1673.9z"/>
		<path class="st1" d="M125.2,2116.5l51.1-51.1l-28.2-28.2L97,2088.3l0,0c-38.2,38.2-100.2,38.2-138.4,0
			c-38.2-38.2-38.2-100.2,0-138.4l0,0l37-37l19.1-19.1l108-108l-28.1-28.1l-108,108l-19.1,19.1l-37,37l0,0
			c-53.6,53.6-53.6,140.9,0,194.6C-15.8,2170.1,71.5,2170.1,125.2,2116.5L125.2,2116.5z"/>
		<path class="st1" d="M94.6,1757.8l28.1,28.1c15.2-15.2,39.9-15.2,55.1,0c15.2,15.2,15.2,39.9,0,55.1l28.1,28.1
			c30.7-30.7,30.7-80.6,0-111.3C175.3,1727.1,125.3,1727.1,94.6,1757.8z"/>
		<path class="st1" d="M126.1,2004.1c30.7,30.7,80.6,30.7,111.3,0l0,0l107.4-107.4l-28.2-28.2L209.3,1976l0,0
			c-15.2,15.2-39.9,15.2-55.1,0c-15.2-15.2-15.2-39.9,0-55.1l0,0l51.7-51.7l-28.1-28.1l-51.7,51.7l0,0l0,0l0,0l0,0
			C95.4,1923.5,95.4,1973.4,126.1,2004.1z"/>
		<path class="st1" d="M234.2,1674.4l108-108l0,0l56.1-56.1l0,0c38.2-38.2,100.2-38.2,138.4,0c38.1,38.1,38.1,100.2,0,138.4l0,0
			l-51.1,51.1l28.2,28.2l51.1-51.1l0,0c53.6-53.6,53.6-140.9,0-194.6c-53.6-53.6-140.9-53.6-194.6,0v0l-56.1,56.1l0,0l-108,108
			L234.2,1674.4z"/>
		<path class="st1" d="M206.1,1757.6c30.7,30.7,80.6,30.7,111.3,0l-28.1-28.1c-15.2,15.2-39.9,15.2-55.1,0
			c-15.2-15.2-15.2-39.9,0-55.1l-28.1-28.1C175.4,1677,175.4,1726.9,206.1,1757.6z"/>
		<path class="st1" d="M452.4,1677.8c-30.7-30.7-80.6-30.7-111.3,0l0,0l-51.7,51.7l28.1,28.1l51.7-51.7v0
			c15.2-15.2,39.9-15.2,55.1,0c15.2,15.2,15.2,39.9,0,55.1l0,0l-107.4,107.4l28.2,28.2l107.4-107.4l0,0
			C483.1,1758.4,483.1,1708.5,452.4,1677.8z"/>
		<path class="st1" d="M287.5,1261.1c15.2,15.2,15.2,39.9,0,55.1l28.1,28.1c30.7-30.7,30.7-80.6,0-111.3
			c-30.7-30.7-80.7-30.7-111.3,0l28.1,28.1C247.6,1245.9,272.3,1245.9,287.5,1261.1z"/>
		<path class="st1" d="M234.8,1591.7L234.8,1591.7l51.1-51l-28.2-28.2l-51.1,51.1l0,0c-38.2,38.2-100.2,38.2-138.4,0
			c-38.2-38.2-38.2-100.2,0-138.4l0,0l37-37l19.1-19.1l108-108l-28.1-28.1L77.2,1360.1l0,0l-37,37l0,0
			c-53.6,53.6-53.6,140.9,0,194.6C93.8,1645.3,181.1,1645.3,234.8,1591.7z"/>
		<path class="st1" d="M235.8,1479.3c30.7,30.7,80.6,30.7,111.3,0l0,0l107.4-107.4l-28.2-28.2L319,1451.2l0,0
			c-15.2,15.2-39.9,15.2-55.1,0c-15.2-15.2-15.2-39.9,0-55.1l0,0l51.7-51.7l-28.1-28.1l-51.7,51.7l0,0
			C205.1,1398.7,205.1,1448.6,235.8,1479.3z"/>
		<path class="st1" d="M979.5,1896.9c-53.6-53.6-140.9-53.6-194.6,0l0,0l-37,37l0,0L620.9,2061l28.1,28.1l108-108l56.1-56.1l0,0
			c38.2-38.2,100.2-38.2,138.4,0c38.1,38.1,38.1,100.2,0,138.4l0,0l-51.1,51.1l28.2,28.2l51.1-51.1l0,0
			C1033.2,2037.9,1033.2,1950.6,979.5,1896.9z"/>
		<path class="st1" d="M649.6,2006.5l51.1-51.1l-28.2-28.2l-51.1,51.1l0,0c-38.2,38.2-100.2,38.2-138.4,0
			c-38.2-38.2-38.2-100.2,0-138.4l0,0l37-37l19.1-19.1l108-108l-28.1-28.1l-108,108l-56.1,56.1l0,0c-53.6,53.6-53.6,140.9,0,194.6
			C508.6,2060.1,595.9,2060.1,649.6,2006.5L649.6,2006.5z"/>
		<path class="st1" d="M730.4,1759.1c30.7-30.7,30.7-80.6,0-111.3c-30.7-30.7-80.7-30.7-111.3,0l28.1,28.1
			c15.2-15.2,39.9-15.2,55.1,0c15.2,15.2,15.2,39.9,0,55.1L730.4,1759.1z"/>
		<path class="st1" d="M761.9,1894.1L761.9,1894.1l107.5-107.4l-28.2-28.2l-107.4,107.4l0,0c-15.2,15.2-39.9,15.2-55.1,0
			c-15.2-15.2-15.2-39.9,0-55.1l0,0l51.7-51.7l-28.1-28.1l-51.7,51.7l0,0c-30.7,30.7-30.7,80.6,0,111.3
			C681.2,1924.8,731.2,1924.8,761.9,1894.1z"/>
		<path class="st1" d="M461.6,1030.6l19.1-19.1l37-37l0,0c38.2-38.2,100.2-38.2,138.4,0c38.1,38.1,38.1,100.2,0,138.4l0,0
			l-51.1,51.1l28.2,28.2l51.1-51.1l0,0c53.6-53.6,53.6-140.9,0-194.6c-53.6-53.6-140.9-53.6-194.6,0l0,0l-37,37l-19.1,19.1l-108,108
			l28.1,28.1L461.6,1030.6z"/>
		<path class="st1" d="M436.8,1221.9l-28.1-28.1c-15.2,15.2-39.9,15.2-55.1,0c-15.2-15.2-15.2-39.9,0-55.1l-28.1-28.1
			c-30.7,30.7-30.7,80.7,0,111.3C356.2,1252.6,406.1,1252.6,436.8,1221.9z"/>
		<path class="st1" d="M543.7,1225.3l-107.4,107.4l28.2,28.2l107.4-107.4l0,0c30.7-30.7,30.7-80.6,0-111.3
			c-30.7-30.7-80.6-30.7-111.3,0l0,0l-51.7,51.7l28.1,28.1l51.7-51.7l0,0c15.2-15.2,39.9-15.2,55.1,0
			C558.9,1185.4,558.9,1210.1,543.7,1225.3L543.7,1225.3z"/>
		<path class="st1" d="M631.3,1221.1l-19.1,19.1l-37,37l0,0c-53.6,53.6-53.6,140.9,0,194.6c53.6,53.6,140.9,53.6,194.6,0l0,0
			l51.1-51.1l-28.2-28.2l-51.1,51.1l0,0c-38.2,38.2-100.2,38.2-138.4,0c-38.2-38.2-38.2-100.2,0-138.4l0,0l37-37l19.1-19.1l108-108
			l-28.1-28.1L631.3,1221.1z"/>
		<path class="st1" d="M739.4,1113l28.1,28.1c15.2-15.2,39.9-15.2,55.1,0c15.2,15.2,15.2,39.9,0,55.1l28.1,28.1
			c30.7-30.7,30.7-80.6,0-111.3S770.1,1082.3,739.4,1113z"/>
		<path class="st1" d="M770.9,1359.4c30.7,30.7,80.6,30.7,111.3,0l0,0L989.7,1252l-28.2-28.2l-107.4,107.4l0,0
			c-15.2,15.2-39.9,15.2-55.1,0s-15.2-39.9,0-55.1l0,0l51.7-51.7l-28.1-28.1l-51.7,51.7l0,0C740.2,1278.7,740.2,1328.7,770.9,1359.4
			z"/>
		<path class="st1" d="M862.4,990c-30.7,30.7-30.7,80.7,0,111.3c30.7,30.7,80.6,30.7,111.3,0l-28.1-28.1
			c-15.2,15.2-39.9,15.2-55.1,0c-15.2-15.2-15.2-39.9,0-55.1L862.4,990z"/>
		<path class="st1" d="M1026.5,825.9l-37,37l0,0L862.4,990l28.1,28.1l108-108l19.1-19.1l37-37l0,0c38.2-38.2,100.2-38.2,138.4,0
			c38.1,38.1,38.1,100.2,0,138.4l0,0l-51.1,51.1l28.2,28.2l51.1-51.1l0,0c53.6-53.6,53.6-140.9,0-194.6
			C1167.4,772.2,1080.1,772.2,1026.5,825.9L1026.5,825.9z"/>
		<path class="st1" d="M1108.7,1021.5c-30.7-30.7-80.6-30.7-111.3,0l0,0l-51.7,51.7l28.1,28.1l51.7-51.7v0
			c15.2-15.2,39.9-15.2,55.1,0c15.2,15.2,15.2,39.9,0,55.1l0,0l-107.4,107.4l28.2,28.2l107.4-107.4l0,0
			C1139.4,1102.1,1139.4,1052.2,1108.7,1021.5z"/>
		<path class="st1" d="M980.7,456c-30.7,30.7-30.7,80.7,0,111.3c30.7,30.7,80.6,30.7,111.3,0l-28.1-28.1
			c-15.2,15.2-39.9,15.2-55.1,0c-15.2-15.2-15.2-39.9,0-55.1L980.7,456z"/>
		<path class="st1" d="M1144.8,291.9l-37,37l0,0L980.7,456l28.1,28.1l108-108l19.1-19.1l37-37l0,0c38.2-38.2,100.2-38.2,138.4,0
			c38.1,38.1,38.1,100.2,0,138.4l0,0l-51.1,51.1l28.2,28.2l51.1-51.1l0,0c53.6-53.6,53.6-140.9,0-194.6
			C1285.7,238.3,1198.5,238.3,1144.8,291.9L1144.8,291.9z"/>
		<path class="st1" d="M1227,487.5c-30.7-30.7-80.6-30.7-111.3,0l0,0l-51.7,51.7l28.1,28.1l51.7-51.7v0c15.2-15.2,39.9-15.2,55.1,0
			c15.2,15.2,15.2,39.9,0,55.1l0,0l-107.4,107.4l28.2,28.2l107.4-107.4l0,0C1257.7,568.2,1257.7,518.2,1227,487.5z"/>
		<path class="st1" d="M944.1,604.5c15.2,15.2,15.2,39.9,0,55.1l28.1,28.1c30.7-30.7,30.7-80.6,0-111.3
			c-30.7-30.7-80.7-30.7-111.3,0l28.1,28.1C904.2,589.3,928.9,589.3,944.1,604.5z"/>
		<path class="st1" d="M696.8,935.1c53.6,53.6,140.9,53.6,194.6,0l0,0l51.1-51.1l-28.2-28.2l-51.1,51.1l0,0
			c-38.2,38.2-100.2,38.2-138.4,0c-38.2-38.2-38.2-100.2,0-138.4l0,0l37-37l19.1-19.1l108-108l-28.1-28.1l-108,108l-19.1,19.1
			l-37,37l0,0C643.1,794.1,643.1,881.4,696.8,935.1z"/>
		<path class="st1" d="M975.6,794.6c-15.2,15.2-39.9,15.2-55.1,0c-15.2-15.2-15.2-39.9,0-55.1v0l51.7-51.7l-28.1-28.1l-51.7,51.7
			l0,0l0,0v0l0,0c-30.7,30.7-30.7,80.6,0,111.3c30.7,30.7,80.6,30.7,111.3,0l0,0l107.4-107.4l-28.2-28.2L975.6,794.6L975.6,794.6z"
			/>
		<path class="st1" d="M740.6,1525.7c-30.7,30.7-30.7,80.7,0,111.3c30.7,30.7,80.6,30.7,111.3,0l-28.1-28.1
			c-15.2,15.2-39.9,15.2-55.1,0c-15.2-15.2-15.2-39.9,0-55.1L740.6,1525.7z"/>
		<path class="st1" d="M1099.3,1361.6c-53.6-53.6-140.9-53.6-194.6,0l0,0l-37,37l-19.1,19.1l-108,108l28.1,28.1l127.1-127.1v0l37-37
			l0,0c38.2-38.2,100.2-38.2,138.4,0c38.1,38.1,38.1,100.2,0,138.4l0,0l-51.1,51.1l28.2,28.2l51.1-51.1l0,0
			C1153,1502.6,1153,1415.3,1099.3,1361.6z"/>
		<path class="st1" d="M987,1557.2c-30.7-30.7-80.6-30.7-111.3,0v0l-51.7,51.7l28.1,28.1l51.7-51.7v0c15.2-15.2,39.9-15.2,55.1,0
			c15.2,15.2,15.2,39.9,0,55.1l0,0l-107.4,107.4l28.2,28.2L987,1668.6l0,0C1017.7,1637.9,1017.7,1587.9,987,1557.2z"/>
		<path class="st1" d="M1156.5,1858.3L1156.5,1858.3c-38.1,38.2-100.2,38.2-138.3,0c-38.2-38.2-38.2-100.2,0-138.4l0,0l37-37
			l19.1-19.1l108-108l-28.1-28.1L1027,1654.9h0l-37,37v0c-53.6,53.6-53.6,140.9,0,194.6c53.6,53.6,140.9,53.6,194.6,0l0,0l51.1-51.1
			l-28.2-28.2L1156.5,1858.3z"/>
		<path class="st1" d="M1099.7,1167.1L1099.7,1167.1c-53.6,53.6-53.6,140.9,0,194.6c53.6,53.6,140.9,53.6,194.6,0l0,0l51.1-51.1
			l-28.2-28.2l-51.1,51.1l0,0c-38.2,38.2-100.2,38.2-138.4,0c-38.2-38.2-38.2-100.2,0-138.4l0,0l37-37l127.1-127.1l-28.1-28.1
			l-108,108L1099.7,1167.1z"/>
	</g>
	<g class="st0">
		<path class="st1" d="M144.5,1061.8c-53.6-53.6-140.9-53.6-194.6,0l0,0l-37,37l0,0l-127.1,127.1l28.1,28.1l108-108L-22,1090l0,0
			c38.2-38.2,100.2-38.2,138.4,0c38.1,38.1,38.1,100.2,0,138.4l0,0l-51.1,51.1l28.2,28.2l51.1-51.1l0,0
			C198.1,1202.8,198.1,1115.5,144.5,1061.8z"/>
		<path class="st1" d="M32.1,1257.4c-30.7-30.7-80.6-30.7-111.3,0l0,0v0l0,0l0,0l-51.7,51.7l28.1,28.1l51.7-51.7l0,0
			c15.2-15.2,39.9-15.2,55.1,0c15.2,15.2,15.2,39.9,0,55.1l0,0l-107.4,107.4l28.2,28.2l107.4-107.4l0,0
			C62.8,1338.1,62.8,1288.1,32.1,1257.4z"/>
		<path class="st1" d="M-73.2,1059L-73.2,1059L34.2,951.6L6.1,923.4l-107.4,107.4l0,0c-15.2,15.2-39.9,15.2-55.1,0
			c-15.2-15.2-15.2-39.9,0-55.1l0,0l51.7-51.7l-28.1-28.1l-51.7,51.7l0,0c-30.7,30.7-30.7,80.6,0,111.3
			C-153.9,1089.7-103.9,1089.7-73.2,1059z"/>
		<path class="st1" d="M-109,264.7l28.1,28.1c15.2-15.2,39.9-15.2,55.1,0c15.2,15.2,15.2,39.9,0,55.1L2.4,376
			c30.7-30.7,30.7-80.6,0-111.3S-78.3,234-109,264.7z"/>
		<path class="st1" d="M-77.5,511c30.7,30.7,80.6,30.7,111.3,0l0,0l107.4-107.4l-28.2-28.2L5.7,482.9l0,0
			c-15.2,15.2-39.9,15.2-55.1,0s-15.2-39.9,0-55.1l0,0L2.4,376l-28.1-28.1l-51.7,51.7l0,0C-108.2,430.4-108.2,480.3-77.5,511z"/>
		<path class="st1" d="M14,141.6c-30.7,30.7-30.7,80.7,0,111.3s80.6,30.7,111.3,0l-28.1-28.1c-15.2,15.2-39.9,15.2-55.1,0
			c-15.2-15.2-15.2-39.9,0-55.1L14,141.6z"/>
		<path class="st1" d="M178.1-22.5l-37,37l0,0L14,141.6l28.1,28.1l108-108l19.1-19.1l37-37l0,0c38.2-38.2,100.2-38.2,138.4,0
			c38.1,38.1,38.1,100.2,0,138.4l0,0L293.5,195l28.2,28.2l51.1-51.1l0,0c53.6-53.6,53.6-140.9,0-194.6
			C319.1-76.1,231.8-76.1,178.1-22.5L178.1-22.5z"/>
		<path class="st1" d="M260.4,173.1c-30.7-30.7-80.6-30.7-111.3,0l0,0l-51.7,51.7l28.1,28.1l51.7-51.7v0c15.2-15.2,39.9-15.2,55.1,0
			c15.2,15.2,15.2,39.9,0,55.1l0,0L124.8,363.7l28.2,28.2l107.4-107.4l0,0C291.1,253.8,291.1,203.8,260.4,173.1z"/>
		<path class="st1" d="M-163.4,98.6c53.6,53.6,140.9,53.6,194.6,0l0,0l51.1-51.1L54.1,19.4L3,70.4l0,0
			c-38.2,38.2-100.2,38.2-138.4,0c-38.2-38.2-38.2-100.2,0-138.4l0,0l37-37l19.1-19.1l108-108L0.7-260.1l-108,108l-19.1,19.1l-37,37
			l0,0C-217.1-42.4-217.1,44.9-163.4,98.6z"/>
		<path class="st1" d="M115.4-41.9c-15.2,15.2-39.9,15.2-55.1,0c-15.2-15.2-15.2-39.9,0-55.1v0l51.7-51.7l-28.1-28.1l-51.7,51.7l0,0
			l0,0v0l0,0C1.5-94.4,1.5-44.5,32.1-13.8c30.7,30.7,80.6,30.7,111.3,0l0,0L251-121.2l-28.2-28.2L115.4-41.9L115.4-41.9z"/>
		<path class="st1" d="M-94.5,690.6c-30.7,30.7-30.7,80.7,0,111.3c30.7,30.7,80.6,30.7,111.3,0l-28.1-28.1
			c-15.2,15.2-39.9,15.2-55.1,0c-15.2-15.2-15.2-39.9,0-55.1L-94.5,690.6z"/>
		<path class="st1" d="M264.2,526.5c-53.6-53.6-140.9-53.6-194.6,0l0,0l-37,37l-19.1,19.1l-108,108l28.1,28.1L60.7,591.7v0l37-37
			l0,0c38.2-38.2,100.2-38.2,138.4,0c38.1,38.1,38.1,100.2,0,138.4l0,0L185,744.1l28.2,28.2l51.1-51.1l0,0
			C317.9,667.5,317.9,580.2,264.2,526.5z"/>
		<path class="st1" d="M151.9,722.1c-30.7-30.7-80.6-30.7-111.3,0v0l-51.7,51.7L16.9,802l51.7-51.7v0c15.2-15.2,39.9-15.2,55.1,0
			c15.2,15.2,15.2,39.9,0,55.1l0,0L16.3,912.8l28.2,28.2l107.4-107.4l0,0C182.6,802.8,182.6,752.8,151.9,722.1z"/>
		<path class="st1" d="M321.4,1023.3L321.4,1023.3c-38.1,38.2-100.2,38.2-138.3,0c-38.2-38.2-38.2-100.2,0-138.4l0,0l37-37
			l19.1-19.1l108-108L319,692.7L192,819.8h0l-37,37v0c-53.6,53.6-53.6,140.9,0,194.6c53.6,53.6,140.9,53.6,194.6,0l0,0l51.1-51.1
			l-28.2-28.2L321.4,1023.3z"/>
		<path class="st1" d="M430.4,804.1c30.7-30.7,30.7-80.6,0-111.3c-30.7-30.7-80.7-30.7-111.3,0l28.1,28.1
			c15.2-15.2,39.9-15.2,55.1,0c15.2,15.2,15.2,39.9,0,55.1L430.4,804.1z"/>
		<path class="st1" d="M433.7,910.9L433.7,910.9c-15.2,15.2-39.9,15.2-55.1,0c-15.2-15.2-15.2-39.9,0-55.1v0l51.7-51.7L402.3,776
			l-51.7,51.7l0,0c-30.7,30.7-30.7,80.6,0,111.3c30.7,30.7,80.6,30.7,111.3,0l0,0l107.4-107.4l-28.2-28.2L433.7,910.9z"/>
		<path class="st1" d="M430.5,581.2c-30.7,30.7-30.7,80.7,0,111.3s80.6,30.7,111.3,0l-28.1-28.1c-15.2,15.2-39.9,15.2-55.1,0
			c-15.2-15.2-15.2-39.9,0-55.1L430.5,581.2z"/>
		<path class="st1" d="M789.2,417.1c-53.6-53.6-140.9-53.6-194.6,0h0l-37,37l0,0L430.5,581.2l28.1,28.1l108-108l56.1-56.1l0,0
			c38.2-38.2,100.2-38.2,138.4,0c38.1,38.1,38.1,100.2,0,138.4l0,0L710,634.6l28.2,28.2l51.1-51.1l0,0
			C842.9,558,842.9,470.7,789.2,417.1z"/>
		<path class="st1" d="M676.9,612.7c-30.7-30.7-80.6-30.7-111.3,0l0,0l-51.7,51.7l28.1,28.1l51.7-51.7l0,0
			c15.2-15.2,39.9-15.2,55.1,0c15.2,15.2,15.2,39.9,0,55.1l0,0L541.3,803.3l28.2,28.2l107.4-107.4l0,0
			C707.6,693.3,707.6,643.4,676.9,612.7z"/>
		<path class="st1" d="M264.6,332L264.6,332c-53.6,53.6-53.6,140.9,0,194.6c53.6,53.6,140.9,53.6,194.6,0l0,0l51.1-51.1l-28.2-28.2
			L431,498.5l0,0c-38.2,38.2-100.2,38.2-138.4,0c-38.2-38.2-38.2-100.2,0-138.4l0,0l37-37L456.8,196l-28.1-28.1l-108,108L264.6,332z
			"/>
		<path class="st1" d="M511.9,196c15.2,15.2,15.2,39.9,0,55.1l28.1,28.1c30.7-30.7,30.7-80.6,0-111.3c-30.7-30.7-80.7-30.7-111.3,0
			l28.1,28.1C472,180.8,496.7,180.8,511.9,196z"/>
		<path class="st1" d="M543.4,386.1c-15.2,15.2-39.9,15.2-55.1,0c-15.2-15.2-15.2-39.9,0-55.1l0,0l51.7-51.7l-28.1-28.1l-51.7,51.7
			l0,0c-30.7,30.7-30.7,80.6,0,111.3c30.7,30.7,80.6,30.7,111.3,0l0,0L679,306.9l-28.2-28.2L543.4,386.1L543.4,386.1z"/>
	</g>
	<g class="st0">
		<path class="st1" d="M554.8-9.8l51.1-51.1l-28.2-28.2L526.6-38l0,0C488.5,0.2,426.4,0.2,388.3-38c-38.2-38.2-38.2-100.2,0-138.4
			l0,0l37-37l19.1-19.1l108-108l-28.1-28.1l-108,108l-19.1,19.1l-37,37l0,0c-53.6,53.6-53.6,140.9,0,194.6
			C413.8,43.8,501.1,43.8,554.8-9.8L554.8-9.8z"/>
		<path class="st1" d="M622,140.6c-15.2,15.2-39.9,15.2-55.1,0c-15.2-15.2-15.2-39.9,0-55.1l-28.1-28.1
			c-30.7,30.7-30.7,80.7,0,111.3s80.6,30.7,111.3,0L622,140.6z"/>
		<path class="st1" d="M897.5-106.7c-53.6-53.6-140.9-53.6-194.6,0l0,0l-37,37l-19.1,19.1l-108,108l28.1,28.1L694-41.6v0l37-37l0,0
			c38.2-38.2,100.2-38.2,138.4,0c38.1,38.1,38.1,100.2,0,138.4l0,0l-51.1,51.1l28.2,28.2l51.1-51.1l0,0
			C951.1,34.3,951.1-53,897.5-106.7z"/>
		<path class="st1" d="M785.1,200.3c30.7-30.7,30.7-80.6,0-111.3c-30.7-30.7-80.6-30.7-111.3,0l0,0L622,140.6l28.1,28.1l51.7-51.7v0
			c15.2-15.2,39.9-15.2,55.1,0s15.2,39.9,0,55.1l0,0L649.5,279.5l28.2,28.2L785.1,200.3L785.1,200.3z"/>
		<path class="st1" d="M954.6,390L954.6,390c-38.1,38.2-100.2,38.2-138.3,0c-38.2-38.2-38.2-100.2,0-138.4l0,0l56.1-56.1l0,0
			l108-108l-28.1-28.1l-108,108l-56.1,56.1v0c-53.6,53.6-53.6,140.9,0,194.6c53.6,53.6,140.9,53.6,194.6,0l0,0l51.1-51.1l-28.2-28.2
			L954.6,390z"/>
		<path class="st1" d="M1063.6,170.8c30.7-30.7,30.7-80.6,0-111.3c-30.7-30.7-80.7-30.7-111.3,0l28.1,28.1
			c15.2-15.2,39.9-15.2,55.1,0c15.2,15.2,15.2,39.9,0,55.1L1063.6,170.8z"/>
		<path class="st1" d="M1067,277.7L1067,277.7c-15.2,15.2-39.9,15.2-55.1,0c-15.2-15.2-15.2-39.9,0-55.1l0,0l51.7-51.7l-28.1-28.1
			l-51.7,51.7l0,0c-30.7,30.7-30.7,80.6,0,111.3c30.7,30.7,80.6,30.7,111.3,0l0,0l107.4-107.4l-28.2-28.2L1067,277.7z"/>
		<path class="st1" d="M1063.8-52c-30.7,30.7-30.7,80.7,0,111.3s80.6,30.7,111.3,0L1147,31.2c-15.2,15.2-39.9,15.2-55.1,0
			c-15.2-15.2-15.2-39.9,0-55.1L1063.8-52z"/>
		<path class="st1" d="M1422.4-216.1c-53.6-53.6-140.9-53.6-194.6,0l0,0l-37,37l0,0L1063.8-52l28.1,28.1l108-108L1256-188l0,0
			c38.2-38.2,100.2-38.2,138.4,0c38.1,38.1,38.1,100.2,0,138.4l0,0l-51.1,51.1l28.2,28.2l51.1-51.1l0,0
			C1476.1-75.2,1476.1-162.5,1422.4-216.1z"/>
	</g>
</g>
</svg>
