<?xml version="1.0" encoding="utf-8"?>
<!-- Generator: Adobe Illustrator 23.0.1, SVG Export Plug-In . SVG Version: 6.00 Build 0)  -->
<svg version="1.1" id="Layer_1" xmlns="http://www.w3.org/2000/svg" xmlns:xlink="http://www.w3.org/1999/xlink" x="0px" y="0px"
	 viewBox="0 0 118 123" style="enable-background:new 0 0 118 123;" xml:space="preserve">
<style type="text/css">
	.st0{fill:none;stroke:#1D4D9D;stroke-width:2;stroke-miterlimit:10;}
	.st1{fill:none;stroke:#34B18D;stroke-width:4;stroke-miterlimit:10;}
	.st2{fill-rule:evenodd;clip-rule:evenodd;fill:#34B18D;}
</style>
<path class="st0" d="M108.8,65.5c3.74,0,6.8-3.06,6.8-6.8V32.59c0-3.74-3.06-6.8-6.8-6.8H61.04c-3.74,0-6.8,3.06-6.8,6.8v6.92"/>
<line class="st0" x1="54.31" y1="33.84" x2="115.8" y2="33.84"/>
<line class="st0" x1="61.01" y1="41.87" x2="115.79" y2="41.87"/>
<line class="st0" x1="74.99" y1="47.86" x2="87.04" y2="47.86"/>
<path class="st0" d="M68.05,57.18h33.72c3.74,0,6.8,3.06,6.8,6.8V90.1c0,3.74-3.06,6.8-6.8,6.8H54.01c-2.95,0-5.48-1.91-6.41-4.55"
	/>
<path class="st0" d="M99.44,81.53h-9.78c-1.1,0-2-0.9-2-2V65.98c0-1.1,0.9-2,2-2h9.78c1.1,0,2,0.9,2,2v13.55
	C101.44,80.64,100.55,81.53,99.44,81.53z"/>
<line class="st0" x1="68.28" y1="88.67" x2="76.91" y2="88.67"/>
<line class="st0" x1="80.55" y1="88.67" x2="89.18" y2="88.67"/>
<line class="st0" x1="92.81" y1="88.67" x2="101.44" y2="88.67"/>
<polyline class="st1" points="50.38,39.31 60.88,39.31 60.88,44.35 "/>
<path class="st1" d="M67.41,61.21V49.39H7.25c-2.77,0-5.04-2.27-5.04-5.04c0-2.77,2.27-5.04,5.04-5.04h21.03"/>
<path class="st1" d="M2.21,44.35v41.82c0,0-0.38,5.86,6.63,5.86h58.58V77.37"/>
<path class="st1" d="M70.4,77.63H48.94c-4.31,0-7.84-3.53-7.84-7.84c0-4.61,3.78-8.39,8.39-8.39H70.4c0.89,0,1.62,0.73,1.62,1.62V76
	C72.02,76.89,71.29,77.63,70.4,77.63z"/>
<circle class="st2" cx="50.38" cy="69.36" r="3.4"/>
<polyline class="st1" points="10.1,49.25 45.07,30.23 55.68,49.73 "/>
<path class="st0" d="M13.03,34.57C22.32,18.61,39.62,7.87,59.42,7.87c12.34,0,23.7,4.17,32.76,11.17"/>
<path class="st0" d="M94.78,101.82c-9.44,8.29-21.81,13.31-35.36,13.31c-15.7,0-29.82-6.75-39.63-17.5"/>
</svg>
