<?xml version="1.0" encoding="utf-8"?>
<!-- Generator: Adobe Illustrator 23.0.1, SVG Export Plug-In . SVG Version: 6.00 Build 0)  -->
<svg version="1.1" id="Layer_1" xmlns="http://www.w3.org/2000/svg" xmlns:xlink="http://www.w3.org/1999/xlink" x="0px" y="0px"
	 viewBox="0 0 118 123" style="enable-background:new 0 0 118 123;" xml:space="preserve">
<style type="text/css">
	.st0{fill:none;stroke:#1D4D9D;stroke-width:2;stroke-miterlimit:10;}
	.st1{fill:none;stroke:#34B18D;stroke-width:4;stroke-miterlimit:10;}
	.st2{fill:#1D4D9D;}
</style>
<path class="st0" d="M9.3,68.26c-0.49-2.85-0.74-5.78-0.74-8.77c0-3.48,0.34-6.88,1-10.16"/>
<path class="st0" d="M24.29,96.58c-2.15-2.08-4.11-4.34-5.88-6.76"/>
<path class="st0" d="M100.07,92.21c-2.11,2.57-4.45,4.93-7.01,7.04"/>
<path class="st0" d="M20.52,26.44C29.99,15.09,44.23,7.87,60.17,7.87c28.5,0,51.61,23.1,51.61,51.61c0,3.72-0.39,7.35-1.14,10.85"/>
<path class="st1" d="M18.24,36.1c0-4.01-3.25-7.26-7.26-7.26c-4.01,0-7.26,3.25-7.26,7.26c0,4.01,3.25,7.26,7.26,7.26
	C14.99,43.35,18.24,40.1,18.24,36.1z"/>
<path class="st1" d="M113.39,81.91c0-4.01-3.25-7.26-7.26-7.26c-4.01,0-7.26,3.25-7.26,7.26c0,4.01,3.25,7.26,7.26,7.26
	C110.14,89.17,113.39,85.92,113.39,81.91z"/>
<path class="st0" d="M90.81,105.44c0-4.01-3.25-7.26-7.26-7.26c-4.01,0-7.26,3.25-7.26,7.26c0,4.01,3.25,7.26,7.26,7.26
	C87.56,112.7,90.81,109.45,90.81,105.44z"/>
<circle class="st1" cx="33.56" cy="104.49" r="7.26"/>
<circle class="st0" cx="35.17" cy="58.67" r="7.26"/>
<path class="st1" d="M90.81,58.67c0-4.01-3.25-7.26-7.26-7.26c-4.01,0-7.26,3.25-7.26,7.26c0,4.01,3.25,7.26,7.26,7.26
	C87.56,65.93,90.81,62.68,90.81,58.67z"/>
<path class="st1" d="M18.24,35.94h17.74c0,0,5.22-0.21,8.14,4.56l9.72,14.07c0,0,2.5,4.26,8.71,4.26H76.3"/>
<path class="st0" d="M71.46,36.1c0-4.01-3.25-7.26-7.26-7.26c-4.01,0-7.26,3.25-7.26,7.26c0,4.01,3.25,7.26,7.26,7.26
	C68.21,43.35,71.46,40.1,71.46,36.1z"/>
<line class="st0" x1="71.63" y1="36.1" x2="82.72" y2="36.1"/>
<circle class="st0" cx="54.52" cy="79.38" r="7.26"/>
<circle class="st0" cx="10.98" cy="79.38" r="7.26"/>
<line class="st0" x1="18.35" y1="79.31" x2="46.79" y2="79.31"/>
<path class="st1" d="M40.82,104.49h14.66c0,0,4.49,0.43,7.6-3.59l9.98-14.99c0,0,2.01-3.27,6.07-3.27h19.54"/>
<path class="st2" d="M91.18,36c0,1.04-0.84,1.88-1.88,1.88s-1.88-0.84-1.88-1.88c0-1.04,0.84-1.88,1.88-1.88S91.18,34.96,91.18,36"
	/>
<path class="st2" d="M98.03,36c0,1.04-0.84,1.88-1.88,1.88s-1.88-0.84-1.88-1.88c0-1.04,0.84-1.88,1.88-1.88S98.03,34.96,98.03,36"
	/>
<path class="st2" d="M33.39,72.55c0,1.04-0.84,1.88-1.88,1.88s-1.88-0.84-1.88-1.88c0-1.04,0.84-1.88,1.88-1.88
	S33.39,71.51,33.39,72.55"/>
<path class="st2" d="M40.24,72.55c0,1.04-0.84,1.88-1.88,1.88c-1.04,0-1.88-0.84-1.88-1.88c0-1.04,0.84-1.88,1.88-1.88
	C39.4,70.67,40.24,71.51,40.24,72.55"/>
<path class="st2" d="M78.96,72.55c0,1.04-0.84,1.88-1.88,1.88s-1.88-0.84-1.88-1.88c0-1.04,0.84-1.88,1.88-1.88
	S78.96,71.51,78.96,72.55"/>
<path class="st2" d="M85.89,72.55c0,1.04-0.84,1.88-1.88,1.88c-1.04,0-1.88-0.84-1.88-1.88c0-1.04,0.84-1.88,1.88-1.88
	C85.04,70.67,85.89,71.51,85.89,72.55"/>
<path class="st2" d="M92.82,72.55c0,1.04-0.84,1.88-1.88,1.88c-1.04,0-1.88-0.84-1.88-1.88c0-1.04,0.84-1.88,1.88-1.88
	C91.97,70.67,92.82,71.51,92.82,72.55"/>
<path class="st2" d="M37.01,26.24c0,1.04-0.84,1.88-1.88,1.88c-1.04,0-1.88-0.84-1.88-1.88c0-1.04,0.84-1.88,1.88-1.88
	C36.17,24.36,37.01,25.2,37.01,26.24"/>
<path class="st2" d="M43.94,26.24c0,1.04-0.84,1.88-1.88,1.88c-1.04,0-1.88-0.84-1.88-1.88c0-1.04,0.84-1.88,1.88-1.88
	C43.1,24.36,43.94,25.2,43.94,26.24"/>
<path class="st2" d="M50.87,26.24c0,1.04-0.84,1.88-1.88,1.88s-1.88-0.84-1.88-1.88c0-1.04,0.84-1.88,1.88-1.88
	S50.87,25.2,50.87,26.24"/>
<path class="st2" d="M53.51,113.25c0,1.04-0.84,1.88-1.88,1.88s-1.88-0.84-1.88-1.88c0-1.04,0.84-1.88,1.88-1.88
	S53.51,112.21,53.51,113.25"/>
<path class="st2" d="M60.44,113.25c0,1.04-0.84,1.88-1.88,1.88c-1.04,0-1.88-0.84-1.88-1.88c0-1.04,0.84-1.88,1.88-1.88
	C59.6,111.37,60.44,112.21,60.44,113.25"/>
<path class="st2" d="M67.37,113.25c0,1.04-0.84,1.88-1.88,1.88c-1.04,0-1.88-0.84-1.88-1.88c0-1.04,0.84-1.88,1.88-1.88
	C66.52,111.37,67.37,112.21,67.37,113.25"/>
</svg>
