<?xml version="1.0" encoding="utf-8"?>
<!-- Generator: Adobe Illustrator 23.0.1, SVG Export Plug-In . SVG Version: 6.00 Build 0)  -->
<svg version="1.1" id="Layer_1" xmlns="http://www.w3.org/2000/svg" xmlns:xlink="http://www.w3.org/1999/xlink" x="0px" y="0px"
	 viewBox="0 0 118 123" style="enable-background:new 0 0 118 123;" xml:space="preserve">
<style type="text/css">
	.st0{fill:none;stroke:#34B18D;stroke-width:4;stroke-miterlimit:10;}
	.st1{fill:none;stroke:#1D4D9D;stroke-width:2;stroke-miterlimit:10;}
	.st2{fill:#1D4D9D;}
	.st3{fill:none;stroke:#1D4D9D;stroke-width:4;stroke-miterlimit:10;}
	.st4{fill:none;stroke:#34B18D;stroke-width:4;stroke-linecap:round;stroke-miterlimit:10;}
</style>
<circle class="st0" cx="59.11" cy="54.56" r="20.95"/>
<polyline class="st1" points="58.28,90.79 47.75,120.11 39.03,109.57 25.76,112.86 36.47,80.15 "/>
<polyline class="st1" points="61.29,90.79 71.06,120.11 79.77,109.57 93.05,112.86 82.33,80.15 "/>
<path class="st2" d="M97.08,17.91c-0.73,0.53-1.75,0.38-2.28-0.35c-0.53-0.73-0.38-1.75,0.35-2.29c0.73-0.53,1.75-0.38,2.29,0.35
	C97.96,16.36,97.81,17.38,97.08,17.91"/>
<path class="st2" d="M100.63,22.78c-0.73,0.53-1.75,0.38-2.29-0.35c-0.53-0.73-0.37-1.75,0.35-2.29c0.73-0.53,1.75-0.38,2.29,0.36
	C101.52,21.22,101.36,22.24,100.63,22.78"/>
<path class="st2" d="M104.19,27.64c-0.73,0.53-1.75,0.38-2.28-0.35c-0.53-0.73-0.38-1.75,0.35-2.29c0.73-0.53,1.75-0.38,2.29,0.36
	C105.08,26.08,104.92,27.1,104.19,27.64"/>
<path class="st3" d="M64.91,20.39c1.49,0.87,4.12,1.54,5.84,1.5l3.79-0.09c1.72-0.04,3.84,1.15,4.69,2.64l1.89,3.29
	c0.86,1.49,2.8,3.39,4.31,4.22l3.33,1.82c1.51,0.83,2.75,2.91,2.74,4.64L91.5,42.2c0,1.72,0.73,4.34,1.62,5.81l1.98,3.24
	c0.9,1.47,0.92,3.9,0.06,5.39l-1.91,3.28c-0.87,1.49-1.54,4.12-1.5,5.84l0.09,3.79c0.04,1.72-1.15,3.84-2.64,4.69l-3.29,1.89
	c-1.5,0.86-3.39,2.8-4.22,4.31l-1.82,3.33c-0.83,1.51-2.91,2.75-4.64,2.74l-3.79-0.01c-1.72,0-4.34,0.73-5.81,1.62l-3.24,1.97
	c-1.47,0.9-3.9,0.92-5.39,0.06l-3.28-1.91c-1.49-0.87-4.12-1.54-5.84-1.5l-3.79,0.09c-1.72,0.04-3.84-1.15-4.69-2.64l-1.89-3.29
	c-0.86-1.5-2.8-3.39-4.31-4.22l-3.33-1.82c-1.51-0.83-2.75-2.91-2.74-4.64l0.01-3.79c0.01-1.72-0.72-4.34-1.62-5.81l-1.97-3.24
	c-0.9-1.47-0.92-3.9-0.06-5.39l1.91-3.28c0.87-1.49,1.54-4.12,1.5-5.84L26.8,39.1c-0.04-1.72,1.15-3.84,2.64-4.69l3.29-1.89
	c1.5-0.86,3.4-2.8,4.22-4.31l1.82-3.33c0.83-1.51,2.91-2.75,4.64-2.74l3.79,0.01c1.73,0,4.34-0.72,5.81-1.62l3.24-1.97
	c1.47-0.9,3.9-0.92,5.39-0.06L64.91,20.39z"/>
<polyline class="st4" points="51.3,54.18 57.81,60.5 67.79,50.71 "/>
<path class="st1" d="M107.38,33.17c3.02,6.65,4.7,14.04,4.7,21.82c0,14-5.44,26.72-14.33,36.17"/>
<path class="st1" d="M19.5,89.79c-8.14-9.3-13.08-21.47-13.08-34.8c0-29.18,23.65-52.83,52.83-52.83c10.94,0,21.11,3.33,29.54,9.02"
	/>
</svg>
