<?xml version="1.0" encoding="utf-8"?>
<!-- Generator: Adobe Illustrator 23.0.1, SVG Export Plug-In . SVG Version: 6.00 Build 0)  -->
<svg version="1.1" id="Layer_1" xmlns="http://www.w3.org/2000/svg" xmlns:xlink="http://www.w3.org/1999/xlink" x="0px" y="0px"
	 viewBox="0 0 118 123" style="enable-background:new 0 0 118 123;" xml:space="preserve">
<style type="text/css">
	.st0{fill:none;stroke:#34B18D;stroke-width:4;stroke-miterlimit:10;}
	.st1{fill:none;stroke:#1D4D9D;stroke-width:2;stroke-miterlimit:10;}
	.st2{fill:#1D4D9D;}
</style>
<path class="st0" d="M22.33,104.77l-7.89-7.98c-2.38-2.41-2.38-6.35,0-8.75l24.58-24.88c2.38-2.41,6.27-2.41,8.65,0l7.89,7.98
	c2.38,2.41,2.38,6.35,0,8.75l-24.58,24.88C28.6,107.17,24.71,107.17,22.33,104.77z"/>
<line class="st0" x1="43.58" y1="69.97" x2="20.73" y2="93.1"/>
<line class="st0" x1="48.48" y1="74.74" x2="25.63" y2="97.87"/>
<path class="st0" d="M48.9,64.77l30.12-30.49c0,0-0.87-4.38,0.88-6.48c1.75-2.1,8.94-9.1,8.94-9.1l10.09,9.88l-8.24,8.4
	c-2.9,2.69-6.95,2.09-6.95,2.09L53.62,69.55"/>
<path class="st1" d="M33.81,16.07c-2.5,0-4.87,0.54-7.02,1.49l11.1,11.23c1.28,1.3,1.28,3.4,0,4.7L33.43,38
	c-1.28,1.3-3.36,1.3-4.64,0l-11.1-11.23c-0.94,2.18-1.47,4.58-1.47,7.11c0,9.83,7.88,17.81,17.59,17.81S51.4,43.71,51.4,33.87
	C51.4,24.04,43.53,16.07,33.81,16.07z"/>
<path class="st1" d="M85.03,103.52c2.5,0,4.87-0.53,7.02-1.48L80.95,90.8c-1.28-1.3-1.28-3.4,0-4.7l4.45-4.51
	c1.28-1.3,3.36-1.3,4.64,0l11.1,11.23c0.94-2.18,1.47-4.58,1.47-7.11c0-9.83-7.88-17.8-17.59-17.8c-9.72,0-17.59,7.97-17.59,17.8
	C67.44,95.55,75.31,103.52,85.03,103.52z"/>
<line class="st1" x1="68.56" y1="60.4" x2="77.74" y2="69.74"/>
<line class="st1" x1="49.75" y1="41.28" x2="58.2" y2="49.87"/>
<line class="st1" x1="63.7" y1="70.51" x2="70.08" y2="76.99"/>
<line class="st1" x1="42.09" y1="48.53" x2="47.29" y2="53.82"/>
<path class="st2" d="M95.36,96.22c-0.74,0.73-1.93,0.73-2.66,0c-0.74-0.73-0.74-1.93,0-2.66c0.73-0.73,1.93-0.73,2.66,0
	C96.1,94.29,96.1,95.49,95.36,96.22"/>
<path class="st2" d="M100.26,101.12c-0.73,0.73-1.93,0.73-2.66,0s-0.74-1.93,0-2.66c0.74-0.73,1.93-0.73,2.66,0
	C101,99.19,101,100.39,100.26,101.12"/>
<path class="st2" d="M105.16,106.02c-0.73,0.73-1.92,0.73-2.66,0c-0.74-0.73-0.74-1.93,0-2.66c0.74-0.73,1.93-0.73,2.66,0
	C105.9,104.09,105.9,105.29,105.16,106.02"/>
<path class="st1" d="M50.65,9.55c2.72-0.43,5.51-0.65,8.35-0.65c7.96,0,15.52,1.74,22.32,4.85"/>
<path class="st1" d="M8.09,79.42c-1.76-5.31-2.71-10.99-2.71-16.89c0-5.06,0.7-9.96,2.02-14.61"/>
<path class="st1" d="M71.94,114.59c-4.14,1.03-8.48,1.57-12.94,1.57c-6.79,0-13.28-1.26-19.25-3.56"/>
<path class="st1" d="M105.45,35.71c4.57,7.89,7.18,17.05,7.18,26.82c0,2.88-0.23,5.71-0.66,8.46"/>
</svg>
