<svg width="100%" height="100%" viewBox="0 0 26 16" version="1.1" xmlns="http://www.w3.org/2000/svg" xmlns:xlink="http://www.w3.org/1999/xlink" xml:space="preserve" xmlns:serif="http://www.serif.com/" style="fill-rule:evenodd;clip-rule:evenodd;stroke-linejoin:round;stroke-miterlimit:2;"><path d="M13.421,15.07c0.837,0 0.837,-1.172 0.837,-1.675c0,-0.837 0.837,-1.674 1.675,-1.674c0.837,0 2.26,1.423 3.349,2.512c0.837,0.837 0.837,0.837 1.674,0.837l2.512,0c0,0 1.674,-0.084 1.674,-1.675c0,-0.502 -0.586,-1.423 -2.512,-3.348c-1.674,-1.675 -2.511,-0.838 0,-4.186c1.507,-2.094 2.68,-3.935 2.512,-4.438c-0.167,-0.502 -4.437,-1.339 -5.023,-0.586c-1.675,2.512 -2.01,3.098 -2.512,4.186c-0.837,1.675 -0.921,2.512 -1.674,2.512c-0.754,0 -0.838,-1.591 -0.838,-2.512c0,-2.763 0.419,-4.688 -0.837,-5.023l-2.511,0c-1.34,0 -2.512,0.837 -2.512,0.837c0,0 -1.005,0.837 -0.837,0.837c0.251,0 1.674,-0.334 1.674,0.838l0,1.674c0,0 0,3.349 -0.837,3.349c-0.837,0 -2.512,-3.349 -4.186,-5.861c-0.586,-1.004 -0.837,-0.837 -1.675,-0.837l-2.511,0c-0.837,0 -0.921,0.586 -0.837,0.837c1.674,4.187 2.846,6.782 6.028,10.131c2.93,3.014 4.855,3.181 6.53,3.265l0.837,0Z" style="fill-rule:nonzero;"/></svg>
